<svg xmlns="http://www.w3.org/2000/svg" viewBox="0 0 52 45.96"><defs><style>.cls-1{fill:#f68b68;}.cls-2{fill:#9987c0;}</style></defs><title>position</title><g id="Layer_2" data-name="Layer 2"><g id="Layer_1-2" data-name="Layer 1"><path class="cls-1" d="M18.58,33.59a1,1,0,0,0,.84.48,1,1,0,0,0,.48-.13l3.94-2.27a3.26,3.26,0,0,0,4.46,0l3.94,2.27a1,1,0,0,0,1.32-.35,1,1,0,0,0-.35-1.32L29.27,30A3.27,3.27,0,0,0,27,26.12V21.58a1,1,0,0,0-1.93,0v4.55A3.28,3.28,0,0,0,22.85,30l-3.94,2.27a1,1,0,0,0-.33,1.32Zm7.5-5.68a1.36,1.36,0,1,1-1.36,1.36,1.36,1.36,0,0,1,1.36-1.36Zm0,0"/><path class="cls-2" d="M16.73,21.93a1,1,0,0,0,1-1V18.35a.88.88,0,0,1,.32-.68,29.24,29.24,0,0,1,5.22-3.36,1.15,1.15,0,0,0,.64-1V9.62a1,1,0,0,0-.43-.8.74.74,0,0,1-.34-.63V4.4a2.47,2.47,0,0,1,2.46-2.46h.82A2.47,2.47,0,0,1,28.86,4.4V8.2a.74.74,0,0,1-.34.63,1,1,0,0,0-.42.8v3.67a1.15,1.15,0,0,0,.64,1A28.49,28.49,0,0,1,34,17.67a.88.88,0,0,1,.32.68V21a1,1,0,0,0,1.93,0V18.35a2.78,2.78,0,0,0-1-2.17A30.76,30.76,0,0,0,30,12.81V10.07a2.68,2.68,0,0,0,.76-1.88V4.4A4.4,4.4,0,0,0,26.4,0h-.82a4.4,4.4,0,0,0-4.4,4.4V8.2a2.68,2.68,0,0,0,.76,1.88v2.74a31.27,31.27,0,0,0-5.16,3.38,2.8,2.8,0,0,0-1,2.17V21a1,1,0,0,0,1,1Zm0,0"/><path class="cls-2" d="M37.74,36.84a31.21,31.21,0,0,0-5.16,3.38,2.8,2.8,0,0,0-1,2.17V45a1,1,0,0,0,1.93,0V42.38a.88.88,0,0,1,.32-.68A29.26,29.26,0,0,1,39,38.34a1.13,1.13,0,0,0,.64-1V33.65a1,1,0,0,0-.42-.8.74.74,0,0,1-.34-.63v-3.8A2.47,2.47,0,0,1,41.37,26h.82a2.47,2.47,0,0,1,2.46,2.46v3.8a.74.74,0,0,1-.34.63,1,1,0,0,0-.42.8v3.67a1.13,1.13,0,0,0,.64,1,28.49,28.49,0,0,1,5.22,3.36.88.88,0,0,1,.32.68V45A1,1,0,0,0,52,45V42.38a2.78,2.78,0,0,0-1-2.17,31.2,31.2,0,0,0-5.16-3.38V34.1a2.68,2.68,0,0,0,.76-1.88v-3.8a4.41,4.41,0,0,0-4.4-4.4h-.82a4.4,4.4,0,0,0-4.4,4.4v3.8a2.68,2.68,0,0,0,.76,1.88Zm0,0"/><path class="cls-2" d="M1,45.95a1,1,0,0,0,1-1V42.37a.88.88,0,0,1,.32-.68,29.22,29.22,0,0,1,5.22-3.36,1.13,1.13,0,0,0,.64-1V33.64a1,1,0,0,0-.42-.8.74.74,0,0,1-.34-.63v-3.8A2.47,2.47,0,0,1,9.81,26h.82a2.47,2.47,0,0,1,2.46,2.46v3.8a.74.74,0,0,1-.34.63,1,1,0,0,0-.42.8v3.67a1.13,1.13,0,0,0,.64,1,28.44,28.44,0,0,1,5.22,3.36.88.88,0,0,1,.32.68V45a1,1,0,1,0,1.93,0V42.37a2.78,2.78,0,0,0-1-2.17,31.26,31.26,0,0,0-5.16-3.38V34.09A2.68,2.68,0,0,0,15,32.21v-3.8a4.41,4.41,0,0,0-4.4-4.4H9.81a4.41,4.41,0,0,0-4.4,4.4v3.8a2.68,2.68,0,0,0,.76,1.88v2.74A31.26,31.26,0,0,0,1,40.2a2.8,2.8,0,0,0-1,2.17V45a1,1,0,0,0,1,1Zm0,0"/></g></g></svg>