<svg xmlns="http://www.w3.org/2000/svg" xmlns:xlink="http://www.w3.org/1999/xlink" viewBox="0 0 51.92 23.13"><defs><style>.cls-1{fill:none;}.cls-2{fill:#f68c68;}.cls-3{clip-path:url(#clip-path);}.cls-4{fill:#9988c0;}</style><clipPath id="clip-path"><rect class="cls-1" y="-0.05" width="52" height="23.32"/></clipPath></defs><title>technical</title><g id="Layer_2" data-name="Layer 2"><g id="Layer_1-2" data-name="Layer 1"><path class="cls-2" d="M26,11.14a4.2,4.2,0,1,0,4.2,4.2,4.21,4.21,0,0,0-4.2-4.2Zm0,6.75a2.55,2.55,0,1,1,2.55-2.55A2.56,2.56,0,0,1,26,17.89Zm0,0"/><g class="cls-3"><path class="cls-4" d="M30.5,9.62a7.3,7.3,0,0,0-9.07,0,.82.82,0,0,0,1,1.29,5.65,5.65,0,0,1,7,0,.82.82,0,1,0,1-1.29Zm0,0"/><path class="cls-4" d="M51.53,11.1a.82.82,0,0,0-1.13.28l-1.08,1.77H35.09A9.14,9.14,0,0,0,32.3,7.36h1.46a.82.82,0,0,0,0-1.65H29.94a9.09,9.09,0,0,0-3.15-.87v-4a.82.82,0,1,0-1.65,0v4A9.1,9.1,0,0,0,22,5.71H18.17a.82.82,0,0,0,0,1.65h1.45a9.14,9.14,0,0,0-2.79,5.79H2.6L1.53,11.37a.82.82,0,0,0-1.41.86l1.32,2.17a.82.82,0,0,0,.7.4H8.82a4.68,4.68,0,1,0,7.12,0h.89a9.16,9.16,0,0,0,18.26,0H36a4.68,4.68,0,1,0,7.12,0h6.68a.82.82,0,0,0,.7-.4l1.32-2.17a.82.82,0,0,0-.28-1.13ZM15.42,17.82a3,3,0,1,1-3-3,3,3,0,0,1,3,3ZM26,21.49A7.52,7.52,0,1,1,33.48,14,7.53,7.53,0,0,1,26,21.49Zm16.61-3.66a3,3,0,1,1-3-3,3,3,0,0,1,3,3Zm0,0"/></g><path class="cls-2" d="M12.38,20.2A2.37,2.37,0,1,0,10,17.82a2.38,2.38,0,0,0,2.37,2.37Zm0-3.1a.73.73,0,1,1-.73.73.73.73,0,0,1,.73-.73Zm0,0"/><path class="cls-2" d="M39.54,20.2a2.37,2.37,0,1,0-2.37-2.37,2.38,2.38,0,0,0,2.37,2.37Zm0-3.1a.73.73,0,1,1-.73.73.73.73,0,0,1,.73-.73Zm0,0"/></g></g></svg>