<svg xmlns="http://www.w3.org/2000/svg" viewBox="0 0 47.2 48"><defs><style>.cls-1{fill:#f98c67;}.cls-2{fill:#9a88c0;}</style></defs><title>current</title><g id="Layer_2" data-name="Layer 2"><g id="Layer_1-2" data-name="Layer 1"><path class="cls-1" d="M28.8,17.6H8.8a.8.8,0,1,0,0,1.6h20a.8.8,0,1,0,0-1.6Zm0,0"/><path class="cls-1" d="M8.8,12.8h8a.8.8,0,0,0,0-1.6h-8a.8.8,0,1,0,0,1.6Zm0,0"/><path class="cls-1" d="M29.6,24.8a.8.8,0,0,0-.8-.8H8.8a.8.8,0,1,0,0,1.6h20a.8.8,0,0,0,.8-.8Zm0,0"/><path class="cls-1" d="M23.2,31.2a.8.8,0,0,0-.8-.8H8.8a.8.8,0,1,0,0,1.6H22.4a.8.8,0,0,0,.8-.8Zm0,0"/><path class="cls-1" d="M8.8,36.8a.8.8,0,1,0,0,1.6H20a.8.8,0,1,0,0-1.6Zm0,0"/><path class="cls-2" d="M1.6,1.6H24.8V12.8H36v12h1.6V11.67L25.93,0H0V48H28V46.4H1.6ZM26.4,2.73l8.47,8.47H26.4Zm0,0"/><path class="cls-1" d="M46.55,35.89l-1.16-.22a1.58,1.58,0,0,1-1-2.48l.73-1a.8.8,0,0,0-.08-1L43.5,29.59a.8.8,0,0,0-1-.1l-1,.66a1.58,1.58,0,0,1-2.45-1.07l-.18-1.21a.8.8,0,0,0-.79-.68H35.87a.8.8,0,0,0-.79.65l-.29,1.49a1.58,1.58,0,0,1-2.43,1l-1.26-.85a.8.8,0,0,0-1,.1l-1.57,1.57a.8.8,0,0,0-.08,1l.72,1a1.57,1.57,0,0,1-1,2.48L27,35.89a.8.8,0,0,0-.65.79v2.22a.8.8,0,0,0,.68.79l1.21.19a1.57,1.57,0,0,1,1.07,2.44l-.66,1a.8.8,0,0,0,.1,1l1.57,1.57a.8.8,0,0,0,1,.08l1-.73a1.58,1.58,0,0,1,2.48,1l.22,1.16a.8.8,0,0,0,.79.65h2.22a.8.8,0,0,0,.79-.68l.13-.85a1.58,1.58,0,0,1,2.49-1l.7.51a.8.8,0,0,0,1-.08L44.8,44.3a.79.79,0,0,0,.1-1l-.66-1a1.58,1.58,0,0,1,1.07-2.44l1.21-.19a.8.8,0,0,0,.68-.79V36.68a.8.8,0,0,0-.65-.79Zm-.95,2.32-.54.08a3.18,3.18,0,0,0-2.15,4.92l.29.43-.61.61-.14-.11a3.18,3.18,0,0,0-5,2.08l0,.17h-.87l-.1-.5a3.18,3.18,0,0,0-5-2l-.43.32-.62-.61.29-.43a3.18,3.18,0,0,0-2.14-4.92L28,38.21v-.87l.51-.1a3.18,3.18,0,0,0,2-5l-.32-.44.62-.61.71.48a3.18,3.18,0,0,0,4.9-2l.16-.84h.87l.08.53a3.18,3.18,0,0,0,4.92,2.15l.43-.29.62.61-.32.44a3.18,3.18,0,0,0,2,5l.51.1Zm0,0"/><path class="cls-2" d="M36.8,33.6a4,4,0,1,0,4,4,4,4,0,0,0-4-4Zm0,6.4a2.4,2.4,0,1,1,2.4-2.4A2.4,2.4,0,0,1,36.8,40Zm0,0"/></g></g></svg>