<?xml version="1.0" encoding="utf-8"?>
<!-- Generator: Adobe Illustrator 20.0.0, SVG Export Plug-In . SVG Version: 6.00 Build 0)  -->
<svg version="1.1" id="Layer_1" xmlns="http://www.w3.org/2000/svg" xmlns:xlink="http://www.w3.org/1999/xlink" x="0px" y="0px"
	 viewBox="0 0 64 42" style="enable-background:new 0 0 64 42;" xml:space="preserve">
<style type="text/css">
	.st0{fill:#F98C67;}
	.st1{fill:#928ED5;}
</style>
<path class="st0" d="M41,23h1c0.6,0,1-0.4,1-1c0-0.6-0.4-1-1-1h-1c-0.6,0-1,0.4-1,1C40,22.6,40.4,23,41,23L41,23z M41,23"/>
<path class="st0" d="M43,28h-1c-0.6,0-1,0.4-1,1c0,0.6,0.4,1,1,1h1c0.6,0,1-0.4,1-1C44,28.4,43.6,28,43,28L43,28z M43,28"/>
<path class="st0" d="M42,34h-1c-0.6,0-1,0.4-1,1c0,0.6,0.4,1,1,1h1c0.6,0,1-0.4,1-1C43,34.4,42.6,34,42,34L42,34z M42,34"/>
<path class="st1" d="M59.5,14H33.6c0.9-2.1,2.4-6.1,2.4-9.5C36,2,34,0,31.5,0C29,0,27,2,27,4.5c0,2-1.2,5.6-3.7,8.9
	C21.3,16,17.9,19,13,19c-0.1,0-0.2,0-0.3,0C12,18.4,11,18,10,18H4c-2.2,0-4,1.8-4,4v14c0,2.2,1.8,4,4,4h6c1,0,2-0.4,2.7-1
	c0.1,0,0.2,0,0.3,0c1.7,0,3.6,0.8,5.3,1.6C20,41.3,21.5,42,23,42h19.5c2.5,0,4.5-2,4.5-4.5c0-0.7-0.2-1.4-0.5-2
	c1.5-0.7,2.5-2.3,2.5-4c0-0.9-0.3-1.7-0.7-2.5c1.1-0.8,1.7-2.1,1.7-3.5c0-0.9-0.3-1.8-0.8-2.5h10.3c2.5,0,4.5-2,4.5-4.5
	C64,16,62,14,59.5,14L59.5,14z M10,38H4c-1.1,0-2-0.9-2-2V22c0-1.1,0.9-2,2-2h6c1.1,0,2,0.9,2,2v14C12,37.1,11.1,38,10,38L10,38z
	 M59.5,21h-14c-0.6,0-1,0.4-1,1c0,0.6,0.4,1,1,1h0c1.4,0,2.5,1.1,2.5,2.5c0,1-0.7,2-1.7,2.3c-0.3,0.1-0.6,0.4-0.6,0.8
	c-0.1,0.4,0.1,0.7,0.4,0.9c0.6,0.5,0.9,1.2,0.9,1.9c0,1.3-1,2.3-2.2,2.5c-0.4,0-0.7,0.3-0.8,0.7c-0.1,0.4,0,0.8,0.3,1
	c0.5,0.5,0.8,1.1,0.8,1.8c0,1.4-1.1,2.5-2.5,2.5H23c-1,0-2.4-0.6-3.8-1.2c-1.6-0.7-3.4-1.5-5.3-1.7c0.1-0.3,0.1-0.7,0.1-1V22
	c0-0.4,0-0.7-0.1-1c4.1-0.3,8-2.5,11-6.3C27.7,10.9,29,6.9,29,4.5C29,3.1,30.1,2,31.5,2C32.9,2,34,3.1,34,4.5c0,4.3-2.9,10-2.9,10
	c-0.2,0.3-0.1,0.7,0,1c0.2,0.3,0.5,0.5,0.9,0.5h27.5c1.4,0,2.5,1.1,2.5,2.5S60.9,21,59.5,21L59.5,21z M59.5,21"/>
<path class="st0" d="M8,22c-1.1,0-2,0.9-2,2c0,1.1,0.9,2,2,2c1.1,0,2-0.9,2-2C10,22.9,9.1,22,8,22L8,22z M8,22"/>
</svg>
