<?xml version="1.0" encoding="utf-8"?>
<!-- Generator: Adobe Illustrator 20.0.0, SVG Export Plug-In . SVG Version: 6.00 Build 0)  -->
<svg version="1.1" id="Layer_1" xmlns="http://www.w3.org/2000/svg" xmlns:xlink="http://www.w3.org/1999/xlink" x="0px" y="0px"
	 viewBox="0 0 48 44.2" style="enable-background:new 0 0 48 44.2;" xml:space="preserve">
<style type="text/css">
	.st0{fill:#9A88C0;}
	.st1{fill:#F98C67;}
</style>
<path class="st0" d="M44.3,7.5h-9.8V5.9c0-3.2-2.6-5.9-5.9-5.9h-9.2c-3.2,0-5.9,2.6-5.9,5.9v1.6H3.7c-2,0-3.7,1.7-3.7,3.7v29.3
	c0,2,1.7,3.7,3.7,3.7h40.6c2,0,3.7-1.7,3.7-3.7V11.2C48,9.2,46.3,7.5,44.3,7.5L44.3,7.5z M14.9,5.9c0-2.5,2-4.5,4.5-4.5h9.2
	c2.5,0,4.5,2,4.5,4.5v1.6h-1.6V5.9c0-1.6-1.3-2.9-2.9-2.9h-9.2c-1.6,0-2.9,1.3-2.9,2.9v1.6h-1.6V5.9z M30.1,7.5H17.9V5.9
	c0-0.8,0.7-1.5,1.5-1.5h9.2c0.8,0,1.5,0.7,1.5,1.5V7.5z M44.3,42.8H3.7c-1.3,0-2.3-1-2.3-2.3v-9.9c0.6,0.5,1.4,0.8,2.3,0.8h3.8v3.1
	c0,1.2,1,2.2,2.2,2.2c1.2,0,2.2-1,2.2-2.2V27c0-1.2-1-2.2-2.2-2.2c-1.2,0-2.2,1-2.2,2.2v3.1H3.7c-1.3,0-2.3-1-2.3-2.3V11.2
	c0-1.3,1-2.3,2.3-2.3h40.6c1.3,0,2.3,1,2.3,2.3v16.5c0,1.3-1,2.3-2.3,2.3H42c-0.4,0-0.7,0.3-0.7,0.7c0,0.4,0.3,0.7,0.7,0.7h2.3
	c0.9,0,1.7-0.3,2.3-0.8v9.9C46.6,41.8,45.6,42.8,44.3,42.8L44.3,42.8z M8.9,32.8C9.2,32.9,9.4,33,9.7,33c0.3,0,0.5-0.1,0.8-0.2v1.7
	c0,0.4-0.4,0.8-0.8,0.8c-0.4,0-0.8-0.4-0.8-0.8V32.8z M10.5,30.8c0,0.4-0.4,0.8-0.8,0.8c-0.4,0-0.8-0.4-0.8-0.8V27
	c0-0.4,0.4-0.8,0.8-0.8c0.4,0,0.8,0.4,0.8,0.8V30.8z M10.5,30.8"/>
<path class="st1" d="M37.5,24.8c-1.2,0-2.2,1-2.2,2.2v3.1H14.2c-0.4,0-0.7,0.3-0.7,0.7c0,0.4,0.3,0.7,0.7,0.7h21.1v3.1
	c0,1.2,1,2.2,2.2,2.2c1.2,0,2.2-1,2.2-2.2V27C39.7,25.8,38.7,24.8,37.5,24.8L37.5,24.8z M36.7,27c0-0.4,0.4-0.8,0.8-0.8
	c0.4,0,0.8,0.4,0.8,0.8v3.8c0,0.4-0.4,0.8-0.8,0.8c-0.4,0-0.8-0.4-0.8-0.8V27z M37.5,35.3c-0.4,0-0.8-0.4-0.8-0.8v-1.7
	c0.2,0.1,0.5,0.2,0.8,0.2c0.3,0,0.6-0.1,0.8-0.2v1.7C38.3,35,38,35.3,37.5,35.3L37.5,35.3z M37.5,35.3"/>
<path class="st1" d="M19.5,28.5h9c0.4,0,0.7-0.3,0.7-0.7c0-0.4-0.3-0.7-0.7-0.7h-9c-0.4,0-0.7,0.3-0.7,0.7
	C18.8,28.1,19.1,28.5,19.5,28.5L19.5,28.5z M19.5,28.5"/>
</svg>
