<?xml version="1.0" encoding="utf-8"?>
<!-- Generator: Adobe Illustrator 20.0.0, SVG Export Plug-In . SVG Version: 6.00 Build 0)  -->
<svg version="1.1" id="Layer_1" xmlns="http://www.w3.org/2000/svg" xmlns:xlink="http://www.w3.org/1999/xlink" x="0px" y="0px"
	 viewBox="0 0 36.3 47.9" style="enable-background:new 0 0 36.3 47.9;" xml:space="preserve">
<style type="text/css">
	.st0{fill:#9A88C0;}
	.st1{fill:none;}
	.st2{fill:#F98C67;}
</style>
<path class="st0" d="M36,9.4l-9.1-9.1c-0.1-0.1-0.3-0.2-0.5-0.2h-24C1.1,0.1,0,1.1,0,2.5v43c0,1.3,1.1,2.4,2.4,2.4h31.4
	c1.3,0,2.4-1.1,2.4-2.4V9.9C36.3,9.7,36.2,9.5,36,9.4L36,9.4z M27.2,2.7l6.4,6.4H28c-0.5,0-0.9-0.4-0.9-0.9V2.7z M33.8,46.3H2.4
	c-0.5,0-0.9-0.4-0.9-0.9v-43c0-0.5,0.4-0.9,0.9-0.9h23.2v6.7c0,1.3,1.1,2.4,2.4,2.4h6.7v34.8C34.7,45.9,34.3,46.3,33.8,46.3
	L33.8,46.3z M33.8,46.3"/>
<rect class="st1" width="36.3" height="48"/>
<path class="st2" d="M5.7,6.6h5.8c0.4,0,0.8-0.3,0.8-0.8c0-0.4-0.3-0.8-0.8-0.8H5.7C5.3,5,5,5.4,5,5.8C5,6.2,5.3,6.6,5.7,6.6
	L5.7,6.6z M5.7,6.6"/>
<path class="st2" d="M5.7,10.7h9.1c0.4,0,0.8-0.3,0.8-0.8c0-0.4-0.3-0.8-0.8-0.8H5.7C5.3,9.1,5,9.5,5,9.9C5,10.3,5.3,10.7,5.7,10.7
	L5.7,10.7z M5.7,10.7"/>
<path class="st2" d="M12.4,16.5c0,0.4,0.3,0.8,0.8,0.8h9.9c0.4,0,0.8-0.3,0.8-0.8c0-0.4-0.3-0.8-0.8-0.8h-9.9
	C12.7,15.8,12.4,16.1,12.4,16.5L12.4,16.5z M12.4,16.5"/>
<path class="st2" d="M30.5,19.9H5.7c-0.4,0-0.8,0.3-0.8,0.8c0,0.4,0.3,0.8,0.8,0.8h24.8c0.4,0,0.8-0.3,0.8-0.8
	C31.3,20.2,31,19.9,30.5,19.9L30.5,19.9z M30.5,19.9"/>
<path class="st2" d="M20.6,34.8h-5.8c-0.4,0-0.8,0.3-0.8,0.8c0,0.4,0.3,0.8,0.8,0.8h5.8c0.4,0,0.8-0.3,0.8-0.8
	C21.4,35.1,21,34.8,20.6,34.8L20.6,34.8z M20.6,34.8"/>
<path class="st2" d="M20.6,38.9h-5.8c-0.4,0-0.8,0.3-0.8,0.8c0,0.4,0.3,0.8,0.8,0.8h5.8c0.4,0,0.8-0.3,0.8-0.8
	C21.4,39.2,21,38.9,20.6,38.9L20.6,38.9z M20.6,38.9"/>
<path class="st2" d="M30.5,24H5.7C5.3,24,5,24.4,5,24.8c0,0.4,0.3,0.8,0.8,0.8h24.8c0.4,0,0.8-0.3,0.8-0.8C31.3,24.4,31,24,30.5,24
	L30.5,24z M30.5,24"/>
<path class="st2" d="M30.5,28.1H5.7c-0.4,0-0.8,0.3-0.8,0.8c0,0.4,0.3,0.8,0.8,0.8h24.8c0.4,0,0.8-0.3,0.8-0.8
	C31.3,28.5,31,28.1,30.5,28.1L30.5,28.1z M30.5,28.1"/>
<path class="st0" d="M27.2,33.9c-2.3,0-4.1,1.8-4.1,4.1s1.8,4.1,4.1,4.1c2.2,0,4.1-1.8,4.1-4.1S29.5,33.9,27.2,33.9L27.2,33.9z
	 M27.2,40.5c-1.4,0-2.5-1.1-2.5-2.5s1.1-2.5,2.5-2.5c1.4,0,2.5,1.1,2.5,2.5S28.6,40.5,27.2,40.5L27.2,40.5z M27.2,40.5"/>
<path class="st0" d="M27.2,36.6c-0.8,0-1.4,0.6-1.4,1.4c0,0.8,0.6,1.4,1.4,1.4c0.8,0,1.4-0.6,1.4-1.4C28.6,37.2,28,36.6,27.2,36.6
	L27.2,36.6z M27.2,36.6"/>
</svg>
