<?xml version="1.0" encoding="utf-8"?>
<!-- Generator: Adobe Illustrator 20.0.0, SVG Export Plug-In . SVG Version: 6.00 Build 0)  -->
<svg version="1.1" id="Layer_1" xmlns="http://www.w3.org/2000/svg" xmlns:xlink="http://www.w3.org/1999/xlink" x="0px" y="0px"
	 viewBox="0 0 25.4 47.8" style="enable-background:new 0 0 25.4 47.8;" xml:space="preserve">
<style type="text/css">
	.st0{fill:#F98C67;}
	.st1{fill:#9A88C0;}
	.st2{fill:none;}
</style>
<path class="st0" d="M12.7,10.4c-2.9,0-5.2,2.3-5.2,5.2c0,2.9,2.3,5.2,5.2,5.2c2.9,0,5.2-2.3,5.2-5.2C17.9,12.7,15.6,10.4,12.7,10.4
	L12.7,10.4z M12.7,19.4c-2.1,0-3.8-1.7-3.8-3.8c0-2.1,1.7-3.8,3.8-3.8c2.1,0,3.8,1.7,3.8,3.8C16.5,17.7,14.8,19.4,12.7,19.4
	L12.7,19.4z M12.7,19.4"/>
<path class="st0" d="M12.7,13.4c-0.4,0-0.7,0.3-0.7,0.7c0,0.4,0.3,0.7,0.7,0.7c0.4,0,0.8,0.4,0.8,0.8c0,0.4,0.3,0.7,0.7,0.7
	c0.4,0,0.7-0.3,0.7-0.7C14.9,14.4,13.9,13.4,12.7,13.4L12.7,13.4z M12.7,13.4"/>
<path class="st1" d="M24.3,35.5l-4.5-7c0.6-6,1-11.1,1-13.7c0-5.2-2.1-9-3.9-11.2C15.1,1.2,13.1,0,13.1,0c-0.2-0.1-0.5-0.1-0.7,0
	c-0.1,0-2,1.2-3.9,3.6c-1.8,2.2-3.9,6-3.9,11.2c0,2.5,0.4,7.7,1,13.7l-4.5,7c-0.7,1.1-1,2.3-1,3.6v8c0,0.3,0.2,0.6,0.5,0.7
	c0.1,0,0.2,0,0.2,0c0.2,0,0.4-0.1,0.5-0.3l5.7-7c0.4,1.2,1.5,2,2.8,2H12v4.5c0,0.4,0.3,0.7,0.7,0.7c0.4,0,0.7-0.3,0.7-0.7v-4.5h2.2
	c1.3,0,2.4-0.8,2.8-2l5.7,7c0.1,0.2,0.3,0.3,0.5,0.3c0.1,0,0.2,0,0.2,0c0.3-0.1,0.5-0.4,0.5-0.7v-8C25.4,37.8,25,36.6,24.3,35.5
	L24.3,35.5z M1.4,39.1c0-1,0.3-2,0.8-2.8l3.5-5.5C6,33.3,6.3,36,6.7,38.7l-5.3,6.4V39.1z M15.6,41.1h-2.2v-12c0-0.4-0.3-0.7-0.7-0.7
	c-0.4,0-0.7,0.3-0.7,0.7v12H9.8c-0.8,0-1.4-0.6-1.5-1.3C7.7,36,7.3,32.2,6.9,28.6c0,0,0-0.1,0-0.1c-0.6-6-1-11.2-1-13.7
	c0-2.7,0.6-5.2,1.8-7.5h5.8c0.4,0,0.7-0.3,0.7-0.7c0-0.4-0.3-0.7-0.7-0.7h-5c0.3-0.5,0.6-0.9,1-1.3c1.3-1.6,2.6-2.7,3.2-3.1
	c0.8,0.5,2.6,2,4.2,4.4h-0.4c-0.4,0-0.7,0.3-0.7,0.7c0,0.4,0.3,0.7,0.7,0.7h1.3c1,2,1.8,4.5,1.8,7.5c0,2.5-0.4,7.7-1,13.7
	c0,0,0,0.1,0,0.1c-0.4,3.5-0.8,7.4-1.3,11.1C17.1,40.5,16.4,41.1,15.6,41.1L15.6,41.1z M24,45.1l-5.3-6.4c0.3-2.7,0.7-5.3,0.9-7.9
	l3.5,5.5c0.5,0.8,0.8,1.8,0.8,2.8V45.1z M24,45.1"/>
<rect y="-0.1" class="st2" width="25.4" height="48"/>
</svg>
