<?xml version="1.0" encoding="utf-8"?>
<!-- Generator: Adobe Illustrator 20.0.0, SVG Export Plug-In . SVG Version: 6.00 Build 0)  -->
<svg version="1.1" id="Layer_1" xmlns="http://www.w3.org/2000/svg" xmlns:xlink="http://www.w3.org/1999/xlink" x="0px" y="0px"
	 viewBox="0 0 64 63.1" style="enable-background:new 0 0 64 63.1;" xml:space="preserve">
<style type="text/css">
	.st0{fill:#928ED5;}
	.st1{fill:none;}
	.st2{fill:#F98C67;}
	.st3{fill:#9A88C0;}
</style>
<path class="st0" d="M63.1,9.2L48.9,6.3c0-0.2,0-0.4-0.1-0.6l-2-4c-0.4-0.7-1.1-1.3-1.9-1.5c-0.8-0.2-1.7-0.1-2.4,0.3L32,6L21.3,0.4
	C20.6,0,19.8-0.1,19,0.1c-0.8,0.2-1.5,0.8-1.9,1.5l-2,4C15,5.9,15,6.1,15,6.3L0.8,9.2C0.3,9.3-0.1,9.8,0,10.3c0.1,0.5,0.5,0.8,1,0.8
	c0.1,0,0.1,0,0.2,0l15-3c0.1,0,0.1,0,0.2-0.1l7.9,8.7c0.2,0.2,0.5,0.3,0.7,0.3c0,0,0,0,0,0c0.3,0,0.6-0.2,0.8-0.4l1.2-1.6
	c0,0.9,0.4,1.6,1,2.2l-3.6,38c0,0.3,0.1,0.6,0.3,0.8l6.7,6.7c0.2,0.2,0.5,0.3,0.7,0.3c0.3,0,0.5-0.1,0.7-0.3l6.7-6.7
	c0.2-0.2,0.3-0.5,0.3-0.8l-2.9-29.2c0-0.1,0-0.2,0-0.3l-0.6-5.7c0,0,0-0.1,0-0.1L36,17.3c0.6-0.5,1-1.3,1-2.2l1.2,1.6
	c0.2,0.2,0.5,0.4,0.8,0.4c0,0,0,0,0,0c0.3,0,0.6-0.1,0.7-0.3l7.9-8.7c0.1,0,0.1,0,0.2,0.1l15,3c0.1,0,0.1,0,0.2,0
	c0.5,0,0.9-0.3,1-0.8C64,9.8,63.7,9.3,63.1,9.2L63.1,9.2z M37.7,55L37,55.7L27.3,46l0.2-2l10.1,10.1c0,0,0,0,0.1,0.1L37.7,55z
	 M34.5,58.2l-7.7-7.7l0.2-2l8.6,8.6L34.5,58.2z M36.2,40l-7.7-7.7l0.2-2l7.3,7.3L36.2,40z M27.7,41.4C27.7,41.4,27.7,41.4,27.7,41.4
	l0.2-2l9.2,9.2l0.2,2.4L27.7,41.4z M28.1,36.9C28.1,36.9,28.1,36.9,28.1,36.9l0.2-2l8,8c0.1,0.1,0.2,0.1,0.3,0.2l0.2,2.5L28.1,36.9z
	 M29.2,27.9c-0.1-0.1-0.1-0.1-0.2-0.2l0.2-2l6.3,6.3c0,0,0,0,0,0l0.2,2.4L29.2,27.9z M29.5,23.2C29.5,23.2,29.4,23.2,29.5,23.2
	l0.1-2.1l5.3,5.3l0.2,2.4L29.5,23.2z M34,16.1h-1.3L29,12.5l1.1-1.4l4.6,4.6c0,0,0,0,0.1,0C34.6,16,34.3,16.1,34,16.1L34,16.1z
	 M29,15.3l0.8,0.8C29.4,16.1,29.1,15.7,29,15.3L29,15.3z M24.9,14.6L17.2,6l1.7-3.4C19,2.3,19.3,2.1,19.5,2c0.3-0.1,0.6,0,0.8,0.1
	c0,0,0,0,0.1,0l10.1,5.3L24.9,14.6z M30,18.1h1.8l2.5,2.5l0.3,2.7l-4.7-4.7L30,18.1C29.9,18.1,29.9,18.1,30,18.1L30,18.1z
	 M32.1,60.7L26.4,55l0.2-1.9l6.5,6.5L32.1,60.7z M35,13.1l-3.6-3.6L32,8.8l3.1,4C35,12.9,35,13,35,13.1L35,13.1z M39,14.6l-5.5-7.1
	l10.1-5.3c0,0,0,0,0.1,0C43.9,2,44.2,2,44.4,2c0.3,0.1,0.5,0.3,0.6,0.5L46.8,6L39,14.6z M39,14.6"/>
<rect y="0" class="st1" width="64" height="63.2"/>
<path class="st2" d="M20,26.1H8c-1.7,0-3,1.3-3,3v12c0,1.7,1.3,3,3,3h12c1.7,0,3-1.3,3-3v-12C23,27.5,21.6,26.1,20,26.1L20,26.1z
	 M8,28.1h12c0.6,0,1,0.4,1,1v3.3l-7,2.6l-7-2.6v-3.3C7,28.6,7.4,28.1,8,28.1L8,28.1z M20,42.1H8c-0.6,0-1-0.4-1-1v-6.6l6.6,2.5
	c0.1,0,0.2,0.1,0.4,0.1c0.1,0,0.2,0,0.4-0.1l6.6-2.5v6.6C21,41.7,20.5,42.1,20,42.1L20,42.1z M20,42.1"/>
<path class="st3" d="M14,34.1c0.3,0,0.5-0.1,0.7-0.3c0.2-0.2,0.3-0.4,0.3-0.7c0-0.3-0.1-0.5-0.3-0.7c-0.2-0.2-0.4-0.3-0.7-0.3
	c-0.3,0-0.5,0.1-0.7,0.3c-0.2,0.2-0.3,0.4-0.3,0.7c0,0.3,0.1,0.5,0.3,0.7C13.5,34,13.7,34.1,14,34.1L14,34.1z M14,34.1"/>
<path class="st2" d="M58,28.1h-3c0-1.7-1.3-3-3-3v-2c0-1.1-0.9-2-2-2h-2c-1.1,0-2,0.9-2,2v5h-4c-0.6,0-1,0.4-1,1v12c0,1.7,1.3,3,3,3
	h12c1.7,0,3-1.3,3-3v-12C59,28.6,58.5,28.1,58,28.1L58,28.1z M53,28.1h-1v-1C52.5,27.1,53,27.6,53,28.1L53,28.1z M48,23.1h2v5h-2
	V23.1z M57,41.1c0,0.6-0.4,1-1,1H44c-0.6,0-1-0.4-1-1v-11h10v4c0,0.6,0.4,1,1,1c0.6,0,1-0.4,1-1v-4h2V41.1z M57,41.1"/>
</svg>
