<?xml version="1.0" encoding="utf-8"?>
<!-- Generator: Adobe Illustrator 20.0.0, SVG Export Plug-In . SVG Version: 6.00 Build 0)  -->
<svg version="1.1" id="Layer_1" xmlns="http://www.w3.org/2000/svg" xmlns:xlink="http://www.w3.org/1999/xlink" x="0px" y="0px"
	 viewBox="0 0 37.5 48" style="enable-background:new 0 0 37.5 48;" xml:space="preserve">
<style type="text/css">
	.st0{fill:#9A88C0;}
	.st1{fill:#F98C67;}
</style>
<path class="st0" d="M18.7,0C8.4,0,0,8.4,0,18.7c0,4.1,1.3,8,3.8,11.3c2.1,2.8,5,5,8.2,6.2v5c0,1.8,1.3,3.3,3.1,3.7
	c0.3,1.7,1.8,3.1,3.7,3.1c1.8,0,3.3-1.3,3.7-3.1c1.7-0.3,3.1-1.8,3.1-3.7v-5c3.2-1.3,6.1-3.4,8.2-6.2c2.5-3.3,3.8-7.2,3.8-11.3
	C37.5,8.4,29.1,0,18.7,0L18.7,0z M18.7,46.6c-1,0-1.9-0.7-2.2-1.6h4.4C20.6,45.9,19.8,46.6,18.7,46.6L18.7,46.6z M21.7,43.6h-6
	c-1.3,0-2.3-1-2.3-2.3v-1.5h6.1c0.4,0,0.7-0.3,0.7-0.7c0-0.4-0.3-0.7-0.7-0.7h-6.1v-1.6h10.5c0,0,0,0,0,0c0,0,0,0,0,0H24v1.6h-1.5
	c-0.4,0-0.7,0.3-0.7,0.7c0,0.4,0.3,0.7,0.7,0.7H24v1.5C24,42.6,23,43.6,21.7,43.6L21.7,43.6z M32.6,29.2c-2.2,2.9-5.3,5.1-8.8,6.1
	H13.7c-3.5-1.1-6.6-3.2-8.8-6.1c-2.3-3-3.5-6.6-3.5-10.4c0-9.6,7.8-17.3,17.3-17.3c9.6,0,17.3,7.8,17.3,17.3
	C36.1,22.5,34.9,26.2,32.6,29.2L32.6,29.2z M32.6,29.2"/>
<path class="st1" d="M22.3,4.9c0.7,0.2,1.5,0.4,2.1,0.7c0.1,0,0.2,0.1,0.3,0.1c0.3,0,0.5-0.2,0.6-0.4c0.2-0.4,0-0.8-0.4-0.9
	c-0.8-0.3-1.6-0.6-2.4-0.8c-0.4-0.1-0.8,0.1-0.9,0.5C21.7,4.4,21.9,4.8,22.3,4.9L22.3,4.9z M22.3,4.9"/>
<path class="st1" d="M28.2,6.2c-0.3-0.2-0.8-0.2-1,0.1C27,6.6,27,7,27.3,7.3c1.3,1,2.5,2.2,3.4,3.6c0.1,0.2,0.4,0.3,0.6,0.3
	c0.1,0,0.3,0,0.4-0.1c0.3-0.2,0.4-0.7,0.2-1C30.9,8.6,29.6,7.2,28.2,6.2L28.2,6.2z M28.2,6.2"/>
<path class="st1" d="M25.4,16.5H20L20.9,9c0.1-0.8-0.1-1.2-0.5-1.4c-0.5-0.2-0.9,0-1.4,0.7l-7.4,10.4c-0.4,0.5-0.4,1.1-0.2,1.6
	c0.2,0.5,0.8,0.7,1.4,0.7h4.6l-1,9c-0.1,0.8,0.1,1.2,0.5,1.4c0.1,0,0.2,0.1,0.3,0.1c0.4,0,0.7-0.2,1-0.7l8.3-11.9
	c0.4-0.5,0.5-1.1,0.2-1.6C26.6,16.8,26.1,16.5,25.4,16.5L25.4,16.5z M25.5,18L18,28.8l1-8.4c0-0.2,0-0.4-0.2-0.5
	c-0.1-0.1-0.3-0.2-0.5-0.2h-5.4c0,0-0.1,0-0.1,0c0,0,0,0,0-0.1l6.6-9.2l-0.9,6.9c0,0.2,0,0.4,0.2,0.6c0.1,0.2,0.3,0.2,0.5,0.2
	L25.5,18C25.4,17.9,25.5,17.9,25.5,18C25.5,18,25.5,18,25.5,18L25.5,18z M25.5,18"/>
</svg>
