<?xml version="1.0" encoding="utf-8"?>
<!-- Generator: Adobe Illustrator 20.0.0, SVG Export Plug-In . SVG Version: 6.00 Build 0)  -->
<svg version="1.1" id="Layer_1" xmlns="http://www.w3.org/2000/svg" xmlns:xlink="http://www.w3.org/1999/xlink" x="0px" y="0px"
	 viewBox="0 0 16 12.2" style="enable-background:new 0 0 16 12.2;" xml:space="preserve">
<g>
	<path d="M14,0H2C0.9,0,0,0.9,0,2v8.3c0,1.1,0.9,2,2,2H14c1.1,0,2-0.9,2-2V2C16,0.9,15.1,0,14,0L14,0z M15.1,10.2
		c0,0.6-0.5,1.1-1.1,1.1H2c-0.6,0-1.1-0.5-1.1-1.1V2c0-0.6,0.5-1.1,1.1-1.1H14c0.6,0,1.1,0.5,1.1,1.1L15.1,10.2L15.1,10.2z
		 M15.1,10.2"/>
	<path d="M10.1,6L14,2.5c0.2-0.2,0.2-0.4,0-0.6c-0.2-0.2-0.4-0.2-0.6,0L8,6.7L7,5.7c0,0,0,0,0,0c0,0,0,0-0.1-0.1L2.6,1.8
		C2.4,1.6,2.1,1.7,2,1.8C1.8,2,1.8,2.3,2,2.5L6,6L2,9.7c-0.2,0.2-0.2,0.5,0,0.6c0.1,0.1,0.2,0.1,0.3,0.1c0.1,0,0.2,0,0.3-0.1l4-3.7
		l1.1,1C7.8,7.7,7.9,7.7,8,7.7c0.1,0,0.2,0,0.3-0.1l1.1-1l4,3.8c0.1,0.1,0.2,0.1,0.3,0.1c0.1,0,0.2,0,0.3-0.1c0.2-0.2,0.2-0.5,0-0.6
		L10.1,6z M10.1,6"/>
</g>
</svg>
