<?xml version="1.0" encoding="utf-8"?>
<!-- Generator: Adobe Illustrator 20.0.0, SVG Export Plug-In . SVG Version: 6.00 Build 0)  -->
<svg version="1.1" id="Isolation_Mode" xmlns="http://www.w3.org/2000/svg" xmlns:xlink="http://www.w3.org/1999/xlink" x="0px"
	 y="0px" viewBox="0 0 45.7 52" style="enable-background:new 0 0 45.7 52;" xml:space="preserve">
<style type="text/css">
	.st0{fill:#9A88C0;}
	.st1{fill:#F98C67;}
</style>
<g>
	<path class="st0" d="M27.7,27.8l0.1-1.7c1.4,0.5,2.9,0.8,4.4,0.8c7.4,0,13.4-6,13.4-13.4C45.7,6,39.7,0,32.3,0
		c-7.1,0-13,5.6-13.4,12.6h-4.2c-2,0-3.8,0.8-5.2,2.2c-1.4,1.4-2,3.3-1.9,5.3l0.5,7.7c0,3.3,1.4,6.3,3.6,8.3v1.3l-1.5,2.2l-6.9,1.9
		C1.3,42.1,0,43.8,0,45.8v3.5C0,50.8,1.2,52,2.6,52h30.5c1.5,0,2.6-1.2,2.6-2.6v-3.5c0-2-1.3-3.8-3.3-4.3l-6.9-1.9l-1.5-2.2v-1.3
		C26.3,34.1,27.7,31.2,27.7,27.8L27.7,27.8z M17.9,41.1l-4.5-3.7c1.3,0.8,2.9,1.2,4.5,1.2c1.6,0,3.1-0.4,4.5-1.2L17.9,41.1z
		 M12.7,38.9l4,3.3l-2.2,2.2c0,0,0,0,0,0c0,0,0,0,0,0l-2.7-4L12.7,38.9z M17.9,47.5c0.1,0,0.1,0,0.2,0l0.6,2.8h-1.6l0.6-2.8
		C17.8,47.5,17.8,47.5,17.9,47.5L17.9,47.5z M18.9,44.9c0,0.5-0.4,1-1,1c-0.5,0-1-0.4-1-1v-0.5l1-1l1,1V44.9z M19.2,42.2l4-3.3
		l1,1.4l-2.7,4c0,0,0,0,0,0c0,0,0,0,0,0L19.2,42.2z M32.3,1.7C38.8,1.7,44,7,44,13.4c0,6.5-5.3,11.7-11.7,11.7c-1.5,0-3-0.3-4.3-0.8
		l0.3-4.2c0.1-2-0.6-3.9-1.9-5.3c-1.4-1.5-3.2-2.2-5.2-2.2h-0.5C21,6.5,26.1,1.7,32.3,1.7L32.3,1.7z M10.8,16c1-1.1,2.5-1.7,4-1.7
		h6.4c1.5,0,2.9,0.6,4,1.7c1,1.1,1.6,2.6,1.5,4.1l-0.2,2.5c-0.7-1.4-1.5-2.4-1.5-2.5c-0.2-0.3-0.6-0.4-1-0.3
		c-4.2,1.7-12.2,1.7-12.3,1.7c-0.2,0-0.4,0.1-0.5,0.2c-0.1,0-0.8,0.7-1.6,1.9L9.3,20C9.2,18.5,9.7,17.1,10.8,16L10.8,16z M9.8,27.8
		c0.3-2.5,1.7-4.1,2.2-4.6c1.5,0,7.8-0.2,11.9-1.6c0.7,1,2.2,3.6,2.2,6.2c0,5-3.7,9-8.1,9C13.4,36.8,9.8,32.8,9.8,27.8L9.8,27.8z
		 M1.7,49.4v-3.5c0-1.2,0.8-2.3,2-2.7l6.7-1.8l2.6,4c0.3,0.4,0.8,0.7,1.3,0.8c0.1,0,0.1,0,0.2,0c0.4,0,0.7-0.1,1-0.3
		c0.1,0.4,0.4,0.7,0.7,1l-0.7,3.5H8v-2.8c0-0.5-0.4-0.8-0.8-0.8c-0.5,0-0.8,0.4-0.8,0.8v2.8H2.6C2.1,50.3,1.7,49.9,1.7,49.4
		L1.7,49.4z M34.1,45.8v3.5c0,0.5-0.4,1-1,1h-3.7v-2.8c0-0.5-0.4-0.8-0.8-0.8s-0.8,0.4-0.8,0.8v2.8h-7.4l-0.7-3.5
		c0.3-0.3,0.5-0.6,0.7-1c0.3,0.2,0.6,0.3,1,0.3c0.1,0,0.1,0,0.2,0c0.5-0.1,1-0.3,1.3-0.8l2.6-4l6.6,1.8
		C33.3,43.5,34.1,44.6,34.1,45.8L34.1,45.8z M34.1,45.8"/>
	<path class="st1" d="M31.4,19.8c-0.5,0-0.8,0.4-0.8,0.8c0,0.5,0.4,0.8,0.8,0.8h1.8c0.5,0,0.8-0.4,0.8-0.8c0-0.5-0.4-0.8-0.8-0.8
		h-0.1v-7.3h0.1c0.5,0,0.8-0.4,0.8-0.8c0-0.5-0.4-0.8-0.8-0.8h-1.8c-0.5,0-0.8,0.4-0.8,0.8c0,0.5,0.4,0.8,0.8,0.8h0.1L31.4,19.8
		L31.4,19.8z M31.4,19.8"/>
	<path class="st1" d="M32.3,8.8c0.9,0,1.6-0.7,1.6-1.6c0-0.9-0.7-1.6-1.6-1.6c-0.9,0-1.6,0.7-1.6,1.6C30.7,8,31.4,8.8,32.3,8.8
		L32.3,8.8z M32.3,8.8"/>
</g>
</svg>
