<?xml version="1.0" encoding="utf-8"?>
<!-- Generator: Adobe Illustrator 20.0.0, SVG Export Plug-In . SVG Version: 6.00 Build 0)  -->
<svg version="1.1" id="Layer_1" xmlns="http://www.w3.org/2000/svg" xmlns:xlink="http://www.w3.org/1999/xlink" x="0px" y="0px"
	 viewBox="0 0 52 52" style="enable-background:new 0 0 52 52;" xml:space="preserve">
<style type="text/css">
	.st0{fill:#9C98C2;}
	.st1{fill:#F49E80;}
</style>
<path class="st0" d="M51.2,3.3H26.8V0.8C26.8,0.3,26.4,0,26,0s-0.8,0.3-0.8,0.8v2.5H0.8C0.3,3.3,0,3.6,0,4s0.3,0.8,0.8,0.8h0.9v31
	c0,1.3,1.1,2.4,2.4,2.4h10.4l-1.1,3.9l0,0l-2.6,9c-0.1,0.4,0.1,0.8,0.5,0.9c0.1,0,0.1,0,0.2,0c0.3,0,0.6-0.2,0.7-0.5l2.5-8.4h22.9
	l2.5,8.4c0.1,0.3,0.4,0.5,0.7,0.5c0.1,0,0.1,0,0.2,0c0.4-0.1,0.6-0.5,0.5-0.9l-2.6-9l0,0l-1.1-3.9H48c1.3,0,2.4-1.1,2.4-2.4v-31h0.9
	C51.7,4.8,52,4.4,52,4S51.7,3.3,51.2,3.3L51.2,3.3z M37,41.5H15l1-3.4h20L37,41.5z M48.8,35.8c0,0.5-0.4,0.9-0.9,0.9H4
	c-0.5,0-0.9-0.4-0.9-0.9v-31h45.7V35.8z M48.8,35.8"/>
<path class="st1" d="M17.8,20.9l-9.4,9.4c-0.3,0.3-0.3,0.8,0,1.1c0.1,0.1,0.3,0.2,0.5,0.2c0.2,0,0.4-0.1,0.5-0.2l9.4-9.4
	c0.3-0.3,0.9-0.3,1.2,0l5,5c0.5,0.5,1.1,0.7,1.7,0.7c0.6,0,1.2-0.2,1.7-0.7l13.8-13.8v5.5c0,0.4,0.3,0.8,0.8,0.8
	c0.4,0,0.8-0.3,0.8-0.8v-7.3c0,0,0-0.1,0-0.1c0,0,0,0,0,0c0,0,0,0,0,0c0,0,0,0,0,0c0,0,0,0,0,0c0,0,0,0,0,0c0,0,0,0,0,0c0,0,0,0,0,0
	c0,0,0,0,0,0c0,0,0,0,0,0c0,0,0,0,0,0c0,0,0,0,0,0c0,0,0,0,0,0c0,0-0.1-0.1-0.1-0.1c0,0,0,0,0,0c0,0,0,0,0,0c0,0,0,0,0,0
	c0,0,0,0,0,0c0,0,0,0,0,0c0,0,0,0,0,0c0,0,0,0,0,0c0,0,0,0,0,0c0,0,0,0,0,0c0,0,0,0,0,0c0,0,0,0,0,0c0,0,0,0,0,0c0,0,0,0-0.1,0
	c0,0,0,0,0,0h-7.3c-0.4,0-0.8,0.3-0.8,0.8c0,0.4,0.3,0.8,0.8,0.8h5.5L27.4,25.9c-0.2,0.2-0.4,0.3-0.6,0.3c-0.2,0-0.4-0.1-0.6-0.3
	l-5-5C20.2,20,18.7,20,17.8,20.9L17.8,20.9z M17.8,20.9"/>
</svg>
