<?xml version="1.0" encoding="utf-8"?>
<!-- Generator: Adobe Illustrator 20.0.0, SVG Export Plug-In . SVG Version: 6.00 Build 0)  -->
<svg version="1.1" id="Layer_1" xmlns="http://www.w3.org/2000/svg" xmlns:xlink="http://www.w3.org/1999/xlink" x="0px" y="0px"
	 viewBox="0 0 64 64" style="enable-background:new 0 0 64 64;" xml:space="preserve">
<style type="text/css">
	.st0{fill:#928ED5;}
	.st1{fill:none;}
	.st2{fill:#F98C67;}
</style>
<path class="st0" d="M63,8.9C62.5,8.3,61.7,8,61,8h-11V5.7c1.2-0.4,2-1.5,2-2.8C51.9,1.3,50.6,0,49,0H15c-1.6,0-2.9,1.3-2.9,2.9
	c0,1.3,0.8,2.4,2,2.8V8H3C2.2,8,1.5,8.3,0.9,8.9C0.4,9.4,0.1,10.2,0.1,11c0,5.6,1.5,11,4.4,15.7c2.8,4.7,6.7,8.2,11.2,10.1
	c0.1,0,0.2,0.1,0.3,0.1c2.5,5.1,7.4,8.8,13.1,9.8V56H24c-1.6,0-2.9,1.3-2.9,2.9v4c0,0.5,0.4,0.9,0.9,0.9h20c0.5,0,0.9-0.4,0.9-0.9
	v-4c0-1.6-1.3-2.9-2.9-2.9h-5.1v-9.4c5.8-1,10.6-4.7,13.1-9.8c0.1,0,0.2,0,0.3-0.1c4.5-1.9,8.4-5.4,11.2-10.1
	c2.8-4.7,4.3-10.1,4.3-15.7C63.9,10.2,63.6,9.4,63,8.9L63,8.9z M15,1.9h34C49.6,1.9,50,2.4,50,3C50,3.5,49.6,4,49,4H15
	c-0.6,0-1.1-0.5-1.1-1.1C13.9,2.4,14.4,1.9,15,1.9L15,1.9z M6,25.7C3.4,21.4,2,16.3,1.9,11c0-0.3,0.1-0.6,0.3-0.8
	C2.5,10,2.7,9.9,3,9.9h11v19c0,1.9,0.3,3.7,0.8,5.4C11.4,32.5,8.3,29.5,6,25.7L6,25.7z M41,58.9V62H22.9v-3.1c0-0.6,0.5-1.1,1.1-1.1
	h16C40.6,57.9,41,58.3,41,58.9L41,58.9z M33,56h-2.1v-9.1c0.4,0,0.7,0,1.1,0c0.4,0,0.7,0,1.1,0V56z M32,45c-8.9,0-16-7.2-16-16v-23
	H48v23C48,37.8,40.8,45,32,45L32,45z M57.9,25.7c-2.3,3.8-5.3,6.8-8.9,8.6c0.5-1.7,0.8-3.5,0.8-5.4v-19h11c0.3,0,0.6,0.1,0.8,0.3
	c0.2,0.2,0.3,0.5,0.3,0.8C62,16.3,60.6,21.4,57.9,25.7L57.9,25.7z M57.9,25.7"/>
<rect x="0.1" class="st1" width="63.9" height="64"/>
<path class="st2" d="M41.6,19H36l-1.7-5.3C33.9,12.7,33,12,32,12c-1,0-1.9,0.6-2.2,1.6L28,19h-5.6c-1,0-1.9,0.6-2.2,1.6
	c-0.3,1,0,2,0.9,2.6l4.5,3.3l-1.7,5.3c-0.3,1,0,2,0.9,2.6c0.4,0.3,0.9,0.5,1.4,0.5c0.5,0,1-0.2,1.4-0.5l4.5-3.3l4.5,3.3
	c0.8,0.6,1.9,0.6,2.8,0c0.8-0.6,1.2-1.6,0.9-2.6l-1.7-5.3l4.5-3.3c0.8-0.6,1.2-1.6,0.9-2.6C43.5,19.6,42.6,19,41.6,19L41.6,19z
	 M41.8,21.7l-5.1,3.7c-0.3,0.2-0.5,0.7-0.3,1l1.9,6c0.1,0.3-0.1,0.5-0.2,0.5c-0.1,0.1-0.3,0.2-0.6,0l-5.1-3.7
	c-0.3-0.2-0.8-0.2-1.1,0L26.4,33c-0.3,0.2-0.5,0.1-0.6,0c-0.1-0.1-0.3-0.2-0.2-0.5l1.9-6c0.1-0.4,0-0.8-0.3-1l-5.1-3.7
	c-0.3-0.2-0.2-0.4-0.2-0.5c0-0.1,0.1-0.3,0.5-0.3h6.3c0.4,0,0.8-0.3,0.9-0.6l1.9-6c0.1-0.3,0.4-0.3,0.5-0.3c0.1,0,0.4,0,0.5,0.3
	l1.9,6c0.1,0.4,0.5,0.6,0.9,0.6h6.3c0.3,0,0.4,0.2,0.5,0.3C42,21.3,42.1,21.5,41.8,21.7L41.8,21.7z M41.8,21.7"/>
</svg>
