<?xml version="1.0" encoding="utf-8"?>
<!-- Generator: Adobe Illustrator 20.0.0, SVG Export Plug-In . SVG Version: 6.00 Build 0)  -->
<svg version="1.1" id="Layer_1" xmlns="http://www.w3.org/2000/svg" xmlns:xlink="http://www.w3.org/1999/xlink" x="0px" y="0px"
	 viewBox="0 0 38.4 48" style="enable-background:new 0 0 38.4 48;" xml:space="preserve">
<style type="text/css">
	.st0{fill:#9A88C0;}
	.st1{fill:#F98C67;}
</style>
<path class="st0" d="M38.2,46.6L36,44.5v-28l-4-4V0H0v41.6h4v4h30.9l2.2,2.2c0.2,0.2,0.4,0.2,0.6,0.2c0.2,0,0.4-0.1,0.6-0.2
	C38.5,47.5,38.5,46.9,38.2,46.6L38.2,46.6z M33.3,16H24V6.7L33.3,16z M1.6,40V1.6h28.8v9.3L23.5,4H4v36H1.6z M5.6,44V5.6h16.8v12h12
	v25.3l-6-6c1.4-1.6,2.2-3.8,2.2-6.1c0-5.2-4.2-9.5-9.5-9.5c-5.2,0-9.5,4.2-9.5,9.5c0,5.2,4.2,9.5,9.5,9.5c2.3,0,4.4-0.8,6.1-2.2l6,6
	H5.6z M21.2,38.6c-4.3,0-7.9-3.5-7.9-7.9c0-4.3,3.5-7.9,7.9-7.9c4.3,0,7.9,3.5,7.9,7.9C29,35.1,25.5,38.6,21.2,38.6L21.2,38.6z
	 M21.2,38.6"/>
<path class="st1" d="M16.5,28.8h4.8c0.4,0,0.8-0.4,0.8-0.8c0-0.4-0.4-0.8-0.8-0.8h-4.8c-0.4,0-0.8,0.4-0.8,0.8
	C15.7,28.4,16.1,28.8,16.5,28.8L16.5,28.8z M16.5,28.8"/>
<path class="st1" d="M26.1,32h-9.6c-0.4,0-0.8,0.4-0.8,0.8c0,0.4,0.4,0.8,0.8,0.8h9.6c0.4,0,0.8-0.4,0.8-0.8
	C26.9,32.4,26.5,32,26.1,32L26.1,32z M26.1,32"/>
</svg>
