<?xml version="1.0" encoding="utf-8"?>
<!-- Generator: Adobe Illustrator 20.0.0, SVG Export Plug-In . SVG Version: 6.00 Build 0)  -->
<svg version="1.1" id="Layer_1" xmlns="http://www.w3.org/2000/svg" xmlns:xlink="http://www.w3.org/1999/xlink" x="0px" y="0px"
	 viewBox="0 0 9.3 16" style="enable-background:new 0 0 9.3 16;" xml:space="preserve">
<g>
	<path d="M8.2,0H1.1C0.5,0,0,0.5,0,1.1v13.8C0,15.5,0.5,16,1.1,16h7.1c0.6,0,1.1-0.5,1.1-1.1V1.1C9.3,0.5,8.8,0,8.2,0L8.2,0z
		 M3.5,0.8h2.3c0.1,0,0.1,0.1,0.1,0.1C5.9,1,5.9,1,5.8,1H3.5C3.4,1,3.4,1,3.4,0.9C3.4,0.8,3.4,0.8,3.5,0.8L3.5,0.8z M4.6,15.5
		c-0.3,0-0.5-0.2-0.5-0.5c0-0.3,0.2-0.5,0.5-0.5s0.5,0.2,0.5,0.5C5.2,15.2,4.9,15.5,4.6,15.5L4.6,15.5z M8.5,14H0.8V1.7h7.8V14z
		 M8.5,14"/>
</g>
</svg>
