<?xml version="1.0" encoding="utf-8"?>
<!-- Generator: Adobe Illustrator 20.0.0, SVG Export Plug-In . SVG Version: 6.00 Build 0)  -->
<svg version="1.1" id="Objects" xmlns="http://www.w3.org/2000/svg" xmlns:xlink="http://www.w3.org/1999/xlink" x="0px" y="0px"
	 viewBox="0 0 135.5 41.8" style="enable-background:new 0 0 135.5 41.8;" xml:space="preserve">
<style type="text/css">
	.st0{fill:#1D1D1B;}
</style>
<g>
	<g>
		<path class="st0" d="M1.3,38.4c0,0-0.1,0-0.1,0c-0.5-0.1-0.9-0.6-0.9-1.1c0.1-1,0.3-2,0.7-3.1c0.2-0.5,0.7-0.8,1.3-0.6
			c0.5,0.2,0.8,0.7,0.6,1.3c-0.3,1-0.5,1.9-0.6,2.7C2.3,38,1.8,38.4,1.3,38.4z"/>
	</g>
	<g>
		<path class="st0" d="M55,41.9c-0.5,0-1-0.4-1-0.9c0-0.6,0.4-1,0.9-1c1.4-0.1,2.8-0.7,4.2-2c0.2-0.2,0.4-0.3,0.5-0.5
			c0.4-0.4,1-0.4,1.4,0c0.4,0.4,0.4,1,0,1.4c-0.2,0.2-0.4,0.4-0.6,0.6C58.8,41,56.9,41.8,55,41.9C55.1,41.9,55.1,41.9,55,41.9z
			 M49.6,39.5c-0.3,0-0.5-0.1-0.7-0.3c-0.7-0.8-1.4-1.6-2.1-2.6c-0.6-0.9-1.1-1.8-1.5-2.8c-0.2-0.5,0-1.1,0.5-1.3
			c0.5-0.2,1.1,0,1.3,0.5c0.4,0.9,0.9,1.8,1.4,2.6c0.6,0.9,1.2,1.7,1.8,2.3c0.4,0.4,0.4,1,0,1.4C50.1,39.4,49.8,39.5,49.6,39.5z
			 M64.3,34.3c-0.2,0-0.4-0.1-0.5-0.2c-0.5-0.3-0.6-0.9-0.3-1.4c1-1.6,2-3.4,2.9-5.3c0.2-0.5,0.8-0.7,1.3-0.5
			c0.5,0.2,0.7,0.8,0.5,1.3c-0.9,2.1-1.9,3.9-3,5.6C65,34.1,64.7,34.3,64.3,34.3z M4.5,29.8c-0.2,0-0.3,0-0.5-0.1
			c-0.5-0.3-0.7-0.9-0.4-1.4c0.6-1,1.1-2,1.7-3c0.3-0.6,0.7-1.1,1-1.7c0.1-0.3,0.3-0.5,0.4-0.8c0.3-0.5,0.9-0.6,1.4-0.4
			c0.5,0.3,0.6,0.9,0.4,1.4c-0.1,0.2-0.3,0.5-0.4,0.7c-0.3,0.6-0.6,1.1-1,1.7c-0.5,0.9-1.1,1.9-1.7,2.9C5.2,29.6,4.9,29.8,4.5,29.8z
			 M44.2,28.4c-0.5,0-0.9-0.3-1-0.8c-0.5-2.2-0.7-4.4-1-6.2c-0.1-0.5,0.3-1,0.9-1.1c0.5-0.1,1,0.3,1.1,0.9c0.2,1.9,0.5,4,0.9,6
			c0.1,0.5-0.2,1.1-0.8,1.2C44.4,28.4,44.3,28.4,44.2,28.4z M69.5,23c-0.1,0-0.2,0-0.3-0.1c-0.5-0.2-0.8-0.7-0.6-1.3
			c0.2-0.6,0.4-1.2,0.5-1.7c0.4-1.5,1-2.9,1.7-4.2c0.3-0.5,0.9-0.7,1.4-0.4c0.5,0.3,0.7,0.9,0.4,1.4c-0.7,1.2-1.2,2.5-1.6,3.9
			c-0.2,0.6-0.4,1.2-0.6,1.8C70.3,22.8,69.9,23,69.5,23z M11,19.2c-0.2,0-0.4-0.1-0.6-0.2c-0.4-0.3-0.5-1-0.2-1.4
			c1.3-1.7,2.7-3.4,4.1-4.8c0.4-0.4,1-0.4,1.4,0c0.4,0.4,0.4,1,0,1.4c-1.4,1.4-2.7,3-3.9,4.6C11.6,19.1,11.3,19.2,11,19.2z
			 M42.6,16.1c-0.5,0-0.9-0.4-1-0.9c-0.1-0.5-0.1-0.9-0.2-1.4c-0.3-1.7-0.7-3.1-1.2-4.4c-0.2-0.5,0-1.1,0.5-1.3
			c0.5-0.2,1.1,0,1.3,0.5c0.6,1.4,1.1,3,1.4,4.9c0.1,0.5,0.1,0.9,0.2,1.4c0.1,0.5-0.3,1.1-0.9,1.1C42.7,16.1,42.6,16.1,42.6,16.1z
			 M75.3,12.2c-0.3,0-0.5-0.1-0.7-0.3c-0.4-0.4-0.4-1,0-1.4c1.6-1.6,3.3-2.9,5.3-3.9c0.5-0.2,1.1,0,1.3,0.5c0.2,0.5,0,1.1-0.5,1.3
			c-1.7,0.8-3.3,2-4.7,3.5C75.9,12.1,75.6,12.2,75.3,12.2z M104.2,10.9c-0.2,0-0.4,0-0.5-0.1c-1.3-0.8-2.5-1.4-3.6-1.8
			c-0.6-0.2-1.2-0.4-1.8-0.6c-0.5-0.2-0.8-0.7-0.7-1.3c0.2-0.5,0.7-0.8,1.3-0.7c0.7,0.2,1.3,0.4,2,0.7c1.3,0.5,2.5,1.1,3.9,2
			c0.5,0.3,0.6,0.9,0.3,1.4C104.9,10.8,104.6,10.9,104.2,10.9z M19.7,10.4c-0.3,0-0.6-0.1-0.8-0.4c-0.3-0.4-0.2-1.1,0.2-1.4
			c1.7-1.3,3.6-2.4,5.5-3.3c0.5-0.2,1.1,0,1.3,0.5c0.2,0.5,0,1.1-0.5,1.3C23.7,8,22,9,20.3,10.2C20.1,10.3,19.9,10.4,19.7,10.4z
			 M92.5,7.1c0,0-0.1,0-0.1,0c-1.3-0.2-2.5-0.2-3.7-0.2c-0.8,0-1.5,0-2.3,0.1c-0.6,0-1-0.4-1.1-0.9s0.4-1,0.9-1.1
			c0.8-0.1,1.6-0.1,2.4-0.1c1.3,0,2.6,0.1,4,0.2c0.5,0.1,0.9,0.6,0.9,1.1C93.4,6.7,93,7.1,92.5,7.1z M37,5.6c-0.1,0-0.3,0-0.4-0.1
			c-0.9-0.4-2-0.7-3.1-0.7c0,0,0,0,0,0c-0.7,0-1.5,0.1-2.3,0.3c-0.5,0.1-1.1-0.2-1.2-0.8c-0.1-0.5,0.2-1.1,0.8-1.2
			c1-0.2,1.9-0.3,2.7-0.3c0,0,0,0,0,0c1.4,0,2.8,0.3,4,0.8c0.5,0.2,0.7,0.8,0.5,1.3C37.7,5.4,37.3,5.6,37,5.6z"/>
	</g>
	<g>
		<path class="st0" d="M112,16.1c-0.2,0-0.4,0-0.5-0.1c-0.8-0.5-1.6-1-2.6-1.7c-0.5-0.3-0.6-0.9-0.3-1.4c0.3-0.5,0.9-0.6,1.4-0.3
			c1,0.7,1.7,1.2,2.5,1.6c0.5,0.3,0.6,0.9,0.3,1.4C112.6,15.9,112.3,16.1,112,16.1z"/>
	</g>
</g>
<g>
	<g>
		<path class="st0" d="M116.1,5c-0.4,0-0.8-0.2-0.9-0.6c-0.6-1.3-0.7-2.4-0.6-3.5c0.1-0.5,0.6-0.9,1.2-0.8c0.5,0.1,0.9,0.6,0.8,1.2
			c-0.1,0.7,0,1.4,0.4,2.3c0.2,0.5,0,1.1-0.5,1.3C116.3,5,116.2,5,116.1,5z"/>
	</g>
	<g>
		<path class="st0" d="M129.3,27.2c-0.3,0-0.7-0.2-0.8-0.5c-0.7-1.3-1.3-2.5-2-3.7l-1.2-1.9c-0.3-0.5-0.1-1.1,0.3-1.4
			c0.5-0.3,1.1-0.1,1.4,0.3l1.2,1.9c0.7,1.2,1.4,2.5,2,3.7c0.3,0.5,0.1,1.1-0.4,1.4C129.6,27.2,129.4,27.2,129.3,27.2z M122.7,16.1
			c-0.3,0-0.7-0.2-0.9-0.5c-1.1-1.8-2.3-3.7-3.4-5.5c-0.3-0.5-0.1-1.1,0.3-1.4c0.5-0.3,1.1-0.1,1.4,0.3c1.1,1.8,2.3,3.7,3.4,5.5
			c0.3,0.5,0.1,1.1-0.3,1.4C123.1,16.1,122.9,16.1,122.7,16.1z"/>
	</g>
	<g>
		<path class="st0" d="M131.4,35.7c-0.5,0-1-0.4-1-1c0-0.6,0.4-1,1-1c0.5,0,1,0,1.4-0.1c-0.1-0.1-0.2-0.3-0.3-0.4
			c-0.2-0.2-0.4-0.5-0.6-0.8c-0.3-0.4-0.2-1.1,0.2-1.4c0.4-0.3,1.1-0.2,1.4,0.2c0.2,0.2,0.3,0.4,0.5,0.6c0.5,0.6,1.1,1.3,1.3,2.2
			l0.2,0.9l-0.9,0.3C133.7,35.5,132.6,35.6,131.4,35.7C131.4,35.7,131.4,35.7,131.4,35.7z"/>
	</g>
	<g>
		<path class="st0" d="M125.5,35c-0.1,0-0.1,0-0.2,0c-1.2-0.3-2.4-0.5-3.6-0.8c-0.7-0.2-1.5-0.4-2.2-0.5c-0.5-0.1-0.9-0.7-0.8-1.2
			c0.1-0.5,0.7-0.9,1.2-0.8c0.7,0.2,1.5,0.3,2.2,0.5c1.2,0.3,2.3,0.6,3.5,0.8c0.5,0.1,0.9,0.6,0.8,1.2C126.4,34.7,126,35,125.5,35z
			 M113.9,32.8C113.9,32.8,113.8,32.8,113.9,32.8c-2.1-0.2-4.1-0.4-6-0.5c-0.6,0-1-0.5-0.9-1.1c0-0.6,0.5-1,1.1-0.9
			c1.9,0.1,3.9,0.3,5.9,0.5c0.5,0.1,1,0.5,0.9,1.1C114.8,32.4,114.4,32.8,113.9,32.8z"/>
	</g>
	<g>
		<path class="st0" d="M102.1,32C102,32,102,32,102.1,32c-1,0-2,0-3,0c-0.6,0-1-0.5-1-1c0-0.6,0.4-1,1-1c0,0,0,0,0,0c1,0,2,0,3,0
			c0.6,0,1,0.5,1,1C103,31.6,102.6,32,102.1,32z"/>
	</g>
</g>
</svg>
