<?xml version="1.0" encoding="utf-8"?>
<!-- Generator: Adobe Illustrator 20.0.0, SVG Export Plug-In . SVG Version: 6.00 Build 0)  -->
<svg version="1.1" id="Layer_1" xmlns="http://www.w3.org/2000/svg" xmlns:xlink="http://www.w3.org/1999/xlink" x="0px" y="0px"
	 viewBox="0 0 48 48" style="enable-background:new 0 0 48 48;" xml:space="preserve">
<style type="text/css">
	.st0{fill:#9A88C0;}
	.st1{fill:#F98C67;}
</style>
<path class="st0" d="M30.8,0c-9.5,0-17.3,7.7-17.3,17.3c0,4.5,1.7,8.5,4.5,11.6l-2.4,2.4c-0.6-0.4-1.2-0.6-1.9-0.6
	c-1,0-1.9,0.4-2.6,1.1l-10,10C0.4,42.4,0,43.4,0,44.3c0,1,0.4,1.9,1.1,2.6C1.8,47.6,2.7,48,3.7,48c1,0,1.9-0.4,2.6-1.1l10-10
	c0.7-0.7,1.1-1.6,1.1-2.6c0-0.7-0.2-1.5-0.6-2.1l2.3-2.3c3.1,2.8,7.2,4.6,11.7,4.6c9.5,0,17.3-7.7,17.3-17.2S40.3,0,30.8,0L30.8,0z
	 M15.2,35.8l-10,10c-0.4,0.4-1,0.6-1.5,0.6c-0.6,0-1.1-0.2-1.5-0.6c-0.4-0.4-0.6-1-0.6-1.5c0-0.6,0.2-1.1,0.6-1.5l10-10
	c0.4-0.4,1-0.6,1.5-0.6c0.6,0,1.1,0.2,1.5,0.6c0.4,0.4,0.6,1,0.6,1.5C15.8,34.9,15.6,35.4,15.2,35.8L15.2,35.8z M30.8,33
	C22.1,33,15,25.9,15,17.3S22.1,1.5,30.8,1.5c8.7,0,15.8,7.1,15.8,15.8S39.4,33,30.8,33L30.8,33z M30.8,33"/>
<path class="st0" d="M44.2,12.5c-0.7-2-1.9-3.8-3.4-5.3c-1.5-1.5-3.4-2.7-5.4-3.4c-0.4-0.1-0.8,0.1-1,0.5c-0.1,0.4,0.1,0.8,0.5,1
	c3.6,1.3,6.5,4.2,7.8,7.8c0.1,0.3,0.4,0.5,0.7,0.5c0.1,0,0.2,0,0.3,0C44.1,13.3,44.3,12.9,44.2,12.5L44.2,12.5z M44.2,12.5"/>
<path class="st1" d="M37.8,21.6C37.8,21.6,37.8,21.6,37.8,21.6L35,20.9c-0.2-0.1-0.4-0.2-0.5-0.3l0-1.5c0,0,0,0,0,0
	c1-1.1,1.5-2.6,1.5-4.2v-1.1c1-3.1,0.3-5.8-0.1-6.6c0,0,0,0,0,0c0,0,0,0,0,0c0,0,0,0,0,0c0,0,0,0,0,0c0,0,0,0,0,0c0,0,0,0,0,0
	c0,0,0,0,0,0c0,0,0,0,0,0c0,0,0,0,0,0c0,0,0,0,0,0c0,0,0,0,0,0c0,0,0,0,0,0c0,0,0,0,0,0c0,0,0,0,0,0c0,0,0,0,0,0c0,0,0,0,0,0
	c0,0,0,0,0,0c0,0,0,0,0,0c0,0,0,0,0,0c0,0,0,0,0,0c0,0,0,0,0,0c0,0,0,0,0,0c0,0,0,0,0,0c0,0,0,0,0,0c0,0,0,0,0,0c0,0,0,0,0,0
	c0,0,0,0-0.1,0c0,0,0,0,0,0c-0.7,0.1-1.6-0.1-2.5-0.3C31,6,29.1,5.6,27.5,6.8c-1.6,0.1-2.7,1.5-2.7,3.3c0,1.3,0.6,3.6,0.7,4.1v0.6
	c0,1.6,0.6,3.1,1.5,4.2l0,1.6c0,0.1-0.2,0.2-0.5,0.3l-2.8,0.7c0,0,0,0,0,0c-1.8,0.5-2.7,2.2-2.7,3.7v0.8c0,0.9,0.8,1.6,1.7,1.6l8,0
	c0,0,0,0,0,0c0,0,0,0,0,0l8,0c1,0,1.7-0.7,1.7-1.6v-0.8C40.5,23.9,39.6,22.1,37.8,21.6L37.8,21.6z M30.8,23.1l-2.6-1.6
	c0.2-0.3,0.3-0.6,0.3-0.9v-0.3c0.7,0.4,1.5,0.6,2.3,0.6c0.8,0,1.6-0.2,2.3-0.6v0.3c0,0.4,0.1,0.7,0.3,0.9L30.8,23.1z M27,14.5
	c0-0.7,0.3-1.8,0.6-2.5c3.4,0.1,6,0.9,6.9,1.3v1.7c0,1.3-0.5,2.5-1.3,3.4c0,0,0,0,0,0c-0.7,0.7-1.5,1.2-2.5,1.2
	c-2,0-3.7-2.2-3.7-4.7V14.5z M27.7,8.2C27.8,8.2,27.8,8.2,27.7,8.2C27.8,8.2,27.8,8.2,27.7,8.2C27.8,8.2,27.8,8.2,27.7,8.2
	c0.1,0,0.1,0,0.1,0c0,0,0,0,0,0c0,0,0,0,0,0c0,0,0,0,0,0c0,0,0,0,0,0c0,0,0,0,0,0c0,0,0,0,0,0c0,0,0,0,0,0c0,0,0,0,0,0c0,0,0,0,0,0
	c0,0,0,0,0,0c1.1-0.9,2.5-0.6,4.1-0.2c0.8,0.2,1.7,0.4,2.5,0.4c0.2,0.7,0.4,2,0.2,3.5c-1.2-0.4-4.1-1.3-7.9-1.3c0,0,0,0,0,0
	c0,0,0,0-0.1,0c0,0,0,0,0,0c0,0,0,0,0,0c0,0,0,0,0,0c0,0,0,0,0,0c0,0,0,0,0,0c0,0,0,0,0,0c0,0,0,0,0,0c0,0,0,0,0,0c0,0,0,0,0,0
	c0,0,0,0,0,0c0,0,0,0,0,0c0,0,0,0,0,0c0,0,0,0,0,0c0,0,0,0,0,0c0,0,0,0,0,0c0,0,0,0,0,0c0,0,0,0,0,0c0,0,0,0,0,0c0,0,0,0,0,0
	c0,0,0,0,0,0c0,0,0,0,0,0c0,0,0,0,0,0c0,0,0,0,0,0c-0.1-0.4-0.1-0.7-0.1-0.9C26.3,9.2,26.7,8.2,27.7,8.2L27.7,8.2z M22.7,26.3
	c-0.2,0-0.2-0.1-0.2-0.1v-0.8c0-0.9,0.6-2,1.6-2.3l2.5-0.7l3.4,2v1.8L22.7,26.3z M39,26.1c0,0-0.1,0.1-0.2,0.1l-7.3,0v-1.8l3.4-2
	l2.5,0.6c1.1,0.3,1.6,1.4,1.6,2.3V26.1z M39,26.1"/>
</svg>
