<?xml version="1.0" encoding="utf-8"?>
<!-- Generator: Adobe Illustrator 20.0.0, SVG Export Plug-In . SVG Version: 6.00 Build 0)  -->
<svg version="1.1" id="Isolation_Mode" xmlns="http://www.w3.org/2000/svg" xmlns:xlink="http://www.w3.org/1999/xlink" x="0px"
	 y="0px" viewBox="0 0 48.8 52" style="enable-background:new 0 0 48.8 52;" xml:space="preserve">
<style type="text/css">
	.st0{fill:#9A88C0;}
	.st1{fill:none;}
	.st2{fill:#F98C67;}
</style>
<path class="st0" d="M12.1,21.1c0,3.6,1.3,7.3,3.5,10.1c2.4,2.9,5.4,4.5,8.7,4.5c3.2,0,6.3-1.6,8.7-4.5c2.2-2.8,3.5-6.5,3.5-10.1
	v-3.3c2.4-7.6,1.5-14,0.7-15.7c0,0,0,0,0,0c0,0,0,0,0,0c0,0,0,0,0,0c0,0,0,0,0,0c0,0,0,0,0,0c0,0,0,0,0,0c0,0,0,0,0,0c0,0,0,0,0,0
	c0,0,0,0,0,0c0,0,0,0,0,0c0,0,0,0,0,0c0,0,0,0,0,0c0,0,0,0,0,0c0,0,0,0,0,0c0,0,0,0,0,0c0,0,0,0,0,0c0,0,0,0,0,0c0,0,0,0,0,0
	c0,0,0,0,0,0c0,0,0,0,0,0c0,0,0,0,0,0c0,0,0,0,0,0c0,0,0,0,0,0c0,0,0,0,0,0c0,0,0,0-0.1,0c0,0,0,0,0,0c0,0,0,0-0.1,0c0,0,0,0,0,0
	c-2,0.3-4.5-0.2-7.1-0.7C24.9,0,20.4-0.9,16.9,1.6c-0.1,0-0.1,0-0.2,0c-3.6,0-6.2,3-6.2,7.3c0,3.3,1.4,9.5,1.6,10.4V21.1z
	 M31.8,30.2c-2,2.5-4.7,3.9-7.4,3.9c-2.7,0-5.4-1.4-7.4-3.9c-2-2.5-3.2-5.8-3.2-9.1v-0.9c0-2.9,1.6-6.8,2.2-8
	c5.6-0.7,10.1,0,12.9,0.7c2.4,0.6,4,1.3,4.6,1.6l1.5,3.5v3.2C34.9,24.4,33.8,27.7,31.8,30.2L31.8,30.2z M16.7,3.3c0.1,0,0.2,0,0.2,0
	c0.2,0.1,0.5,0,0.7-0.1c3-2.3,7.2-1.4,11.3-0.6c2.2,0.4,4.2,0.8,6.1,0.8c0.3,0,0.6,0,0.9,0c0.5,1.8,1,6.3-0.4,11.9l-0.7-1.8
	c-0.1-0.2-0.2-0.3-0.4-0.4c-0.3-0.2-7.5-4-19.2-2.5c0,0,0,0,0,0c0,0,0,0,0,0c0,0,0,0,0,0c0,0,0,0,0,0c-0.1,0-0.2,0.1-0.3,0.1
	c-0.1,0-0.1,0.1-0.1,0.1c0,0,0,0,0,0c0,0,0,0,0,0c0,0,0,0,0,0c0,0,0,0,0,0c0,0,0,0,0,0c0,0,0,0,0,0c-0.1,0.1-1,2-1.7,4.4
	c-0.4-2.1-0.8-4.8-0.8-6.5C12.2,5,14.5,3.3,16.7,3.3L16.7,3.3z M16.7,3.3"/>
<rect class="st1" width="48.8" height="52"/>
<path class="st2" d="M47.2,42c-1.1-1.6-2.6-2.7-4.4-3.2c0,0,0,0-0.1,0l-6.5-1.4l-1.7-2.6c0,0,0,0,0,0c-0.3-0.4-0.7-0.6-1.1-0.6
	c-0.4-0.1-0.9,0.1-1.2,0.4c0,0,0,0,0,0l-7.7,6.7l-7.7-6.7c0,0,0,0,0,0c-0.3-0.3-0.8-0.4-1.2-0.4c-0.4,0.1-0.8,0.3-1.1,0.6
	c0,0,0,0,0,0l-1.7,2.6L6,38.8c0,0,0,0-0.1,0c-1.8,0.5-3.3,1.6-4.4,3.2c-1,1.5-1.6,3.2-1.6,5v2C0,50.6,1.5,52,3.2,52h18.7
	c0,0,0,0,0,0c0,0,0,0,0,0h4.9c0,0,0,0,0,0l0,0h18.7c1.8,0,3.2-1.3,3.2-2.9v-2C48.7,45.3,48.2,43.5,47.2,42L47.2,42z M33.1,35.7
	l1.6,2.4l-5.6,7.7l-1.8-1.8l-1.8-1.8L33.1,35.7z M23.5,47.9h1.6c0,0,0.1,0,0.1,0l0.5,2.4h-2.9l0.5-2.4
	C23.4,47.9,23.5,47.9,23.5,47.9L23.5,47.9z M26,45.5c0,0.4-0.4,0.8-0.8,0.8h-1.6c-0.4,0-0.8-0.4-0.8-0.8V45l1.6-1.6L26,45V45.5z
	 M15.6,35.7l7.6,6.5l-1.8,1.8l-1.8,1.8L14,38.1L15.6,35.7z M1.6,49v-2c0-2.6,1.6-5.7,4.8-6.6l6.3-1.3l6.2,8.5
	c0.1,0.2,0.4,0.3,0.6,0.3c0,0,0,0,0.1,0c0.2,0,0.4-0.1,0.6-0.2l1.2-1.2c0.1,0.3,0.3,0.6,0.6,0.8l-0.6,3.1h-18
	C2.4,50.3,1.6,49.7,1.6,49L1.6,49z M47.1,49c0,0.7-0.7,1.3-1.6,1.3h-18l-0.6-3.1c0.2-0.2,0.4-0.5,0.6-0.8l1.2,1.2
	c0.2,0.2,0.4,0.2,0.6,0.2c0,0,0,0,0.1,0c0.2,0,0.5-0.1,0.6-0.3l6.2-8.5l6.3,1.3c3.1,0.9,4.8,4,4.8,6.6V49z M47.1,49"/>
</svg>
