<?xml version="1.0" encoding="utf-8"?>
<!-- Generator: Adobe Illustrator 20.0.0, SVG Export Plug-In . SVG Version: 6.00 Build 0)  -->
<svg version="1.1" id="Layer_1" xmlns="http://www.w3.org/2000/svg" xmlns:xlink="http://www.w3.org/1999/xlink" x="0px" y="0px"
	 viewBox="0 0 52 52" style="enable-background:new 0 0 52 52;" xml:space="preserve">
<style type="text/css">
	.st0{fill:#F98C67;}
	.st1{fill:#928ED5;}
	.st2{fill:#9A88C0;}
</style>
<path class="st0" d="M41.8,19.5c-0.4,0.1-0.6,0.6-0.5,1c0.6,1.7,0.9,3.6,0.9,5.4c0,9-7.3,16.3-16.3,16.3C17,42.3,9.8,35,9.8,26
	C9.8,17,17,9.8,26,9.8c3.9,0,7.6,1.4,10.5,3.9c0.3,0.3,0.9,0.2,1.1-0.1c0.3-0.3,0.3-0.9-0.1-1.1C34.4,9.6,30.2,8.1,26,8.1
	c-9.9,0-17.9,8-17.9,17.9c0,9.9,8,17.9,17.9,17.9c9.9,0,17.9-8,17.9-17.9c0-2-0.3-4-1-6C42.7,19.6,42.2,19.4,41.8,19.5L41.8,19.5z
	 M41.8,19.5"/>
<path class="st0" d="M39.8,17.5c0.2,0.2,0.4,0.4,0.7,0.4c0.1,0,0.3,0,0.4-0.1c0.4-0.2,0.5-0.7,0.3-1.1c-0.4-0.6-0.8-1.2-1.2-1.7
	c-0.3-0.4-0.8-0.4-1.1-0.1c-0.4,0.3-0.4,0.8-0.1,1.1C39.2,16.4,39.5,17,39.8,17.5L39.8,17.5z M39.8,17.5"/>
<path class="st1" d="M48.8,21.1h-1.4c-0.5-2.4-1.5-4.7-2.8-6.8l1-1c1.3-1.3,1.3-3.3,0-4.6l-2.3-2.3c-1.3-1.3-3.3-1.3-4.6,0l-1,1
	c-2.1-1.3-4.4-2.3-6.8-2.8V3.3c0-1.8-1.5-3.3-3.3-3.3h-3.3c-1.8,0-3.3,1.5-3.3,3.3v1.4c-2.4,0.5-4.7,1.5-6.8,2.8l-1-1
	c-1.3-1.3-3.3-1.3-4.6,0L6.5,8.8c-1.3,1.3-1.3,3.3,0,4.6l1,1c-1.3,2.1-2.3,4.4-2.8,6.8H3.3c-1.8,0-3.3,1.5-3.3,3.3v3.3
	c0,1.8,1.5,3.3,3.3,3.3h1.4c0.5,2.4,1.5,4.7,2.8,6.8l-1,1c-1.3,1.3-1.3,3.3,0,4.6l2.3,2.3c1.3,1.3,3.3,1.3,4.6,0l1-1
	c2.1,1.3,4.4,2.3,6.8,2.8v1.4c0,1.8,1.5,3.3,3.3,3.3h3.3c1.8,0,3.3-1.5,3.3-3.3v-1.4c2.4-0.5,4.7-1.5,6.8-2.8l1,1
	c1.3,1.3,3.3,1.3,4.6,0l2.3-2.3c1.3-1.3,1.3-3.3,0-4.6l-1-1c1.3-2.1,2.3-4.4,2.8-6.8h1.4c1.8,0,3.3-1.5,3.3-3.3v-3.3
	C52,22.6,50.5,21.1,48.8,21.1L48.8,21.1z M50.4,27.6c0,0.9-0.7,1.6-1.6,1.6h-2c-0.4,0-0.7,0.3-0.8,0.7c-0.5,2.7-1.6,5.2-3.1,7.4
	c-0.2,0.3-0.2,0.8,0.1,1l1.4,1.4c0.6,0.6,0.6,1.7,0,2.3l-2.3,2.3c-0.6,0.6-1.7,0.6-2.3,0L38.4,43c-0.3-0.3-0.7-0.3-1-0.1
	c-2.3,1.5-4.8,2.6-7.4,3.1c-0.4,0.1-0.7,0.4-0.7,0.8v2c0,0.9-0.7,1.6-1.6,1.6h-3.3c-0.9,0-1.6-0.7-1.6-1.6v-2c0-0.4-0.3-0.7-0.7-0.8
	c-2.7-0.5-5.2-1.6-7.4-3.1c-0.1-0.1-0.3-0.1-0.5-0.1c-0.2,0-0.4,0.1-0.6,0.2l-1.4,1.4c-0.6,0.6-1.7,0.6-2.3,0l-2.3-2.3
	c-0.6-0.6-0.6-1.7,0-2.3L9,38.4c0.3-0.3,0.3-0.7,0.1-1c-1.5-2.3-2.6-4.8-3.1-7.4c-0.1-0.4-0.4-0.7-0.8-0.7h-2
	c-0.9,0-1.6-0.7-1.6-1.6v-3.3c0-0.9,0.7-1.6,1.6-1.6h2c0.4,0,0.7-0.3,0.8-0.7c0.5-2.7,1.6-5.2,3.1-7.4c0.2-0.3,0.2-0.8-0.1-1
	l-1.4-1.4C7,11.6,7,10.5,7.6,9.9l2.3-2.3c0.6-0.6,1.7-0.6,2.3,0L13.6,9c0.3,0.3,0.7,0.3,1,0.1c2.3-1.5,4.8-2.6,7.4-3.1
	c0.4-0.1,0.7-0.4,0.7-0.8v-2c0-0.9,0.7-1.6,1.6-1.6h3.3c0.9,0,1.6,0.7,1.6,1.6v2c0,0.4,0.3,0.7,0.7,0.8c2.7,0.5,5.2,1.6,7.4,3.1
	c0.3,0.2,0.8,0.2,1-0.1l1.4-1.4c0.6-0.6,1.7-0.6,2.3,0l2.3,2.3c0.6,0.6,0.6,1.7,0,2.3L43,13.6c-0.3,0.3-0.3,0.7-0.1,1
	c1.5,2.3,2.6,4.8,3.1,7.4c0.1,0.4,0.4,0.7,0.8,0.7h2c0.9,0,1.6,0.7,1.6,1.6V27.6z M50.4,27.6"/>
<path class="st2" d="M21.4,29.9l-3,0.8c0,0,0,0,0,0c-1.9,0.5-2.9,2.4-2.9,4v0.9c0,1,0.8,1.7,1.9,1.7l8.7,0c0,0,0,0,0,0c0,0,0,0,0,0
	l8.7,0c1,0,1.9-0.8,1.9-1.7v-0.9c0-1.6-1-3.5-2.9-4c0,0,0,0,0,0l-3-0.8c-0.3-0.1-0.5-0.2-0.5-0.3l0-1.6c0,0,0,0,0,0
	c1-1.2,1.6-2.8,1.6-4.5v-1.2c1-3.4,0.3-6.3-0.1-7.2c0,0,0,0,0,0c0,0,0,0,0,0c0,0,0,0,0,0c0,0,0,0,0,0c0,0,0,0,0,0c0,0,0,0,0,0
	c0,0,0,0,0,0c0,0,0,0,0,0c0,0,0,0,0,0c0,0,0,0,0,0c0,0,0,0,0,0c0,0,0,0,0,0c0,0,0,0,0,0c0,0,0,0,0,0c0,0,0,0,0,0c0,0,0,0,0,0
	c0,0,0,0,0,0c0,0,0,0,0,0c0,0,0,0,0,0c0,0,0,0,0,0c0,0,0,0,0,0c0,0,0,0,0,0c0,0,0,0,0,0c0,0,0,0,0,0c0,0,0,0,0,0c0,0,0,0,0,0
	c0,0,0,0-0.1,0c0,0,0,0,0,0C30,14.7,29,14.5,28,14.3c-1.8-0.4-3.8-0.9-5.6,0.4c-1.7,0.1-2.9,1.6-2.9,3.5c0,1.4,0.7,3.9,0.8,4.5v0.7
	c0,1.8,0.6,3.4,1.6,4.6l0,1.8C21.9,29.7,21.7,29.9,21.4,29.9L21.4,29.9z M22,23.1c0-0.8,0.3-2,0.6-2.7c3.7,0.1,6.5,1,7.5,1.4v1.8
	c0,1.4-0.5,2.7-1.4,3.7c0,0,0,0,0,0C28,27.9,27,28.4,26,28.4c-2.2,0-4-2.4-4-5.1L22,23.1L22,23.1z M23.5,29.3
	c0.8,0.4,1.6,0.7,2.5,0.7c0.9,0,1.7-0.2,2.5-0.6l0,0.3c0,0.4,0.1,0.7,0.4,1L26,32.4l-2.8-1.7c0.2-0.3,0.4-0.6,0.4-1L23.5,29.3z
	 M17.3,35.8c-0.2,0-0.2-0.1-0.2-0.1v-0.9c0-1,0.6-2.1,1.7-2.4l2.8-0.7l3.6,2.2v2L17.3,35.8z M34.9,34.8v0.9c0,0-0.1,0.1-0.2,0.1
	l-7.9,0v-2l3.7-2.2l2.7,0.7C34.4,32.6,34.9,33.8,34.9,34.8L34.9,34.8z M22.7,16.3C22.8,16.3,22.8,16.2,22.7,16.3
	C22.8,16.2,22.8,16.2,22.7,16.3c0.1,0,0.1,0,0.1,0c0,0,0,0,0.1,0c0,0,0,0,0,0c0,0,0,0,0,0c0,0,0,0,0,0c0,0,0,0,0,0c0,0,0,0,0,0
	c0,0,0,0,0,0c0,0,0,0,0,0c0,0,0,0,0,0c0,0,0,0,0,0c0,0,0,0,0,0c1.2-1,2.7-0.6,4.4-0.2c0.9,0.2,1.8,0.4,2.7,0.4
	c0.2,0.8,0.4,2.2,0.2,3.8c-1.3-0.5-4.4-1.4-8.5-1.4c0,0,0,0,0,0c0,0,0,0-0.1,0c0,0,0,0,0,0c0,0,0,0,0,0c0,0,0,0,0,0c0,0,0,0,0,0
	c0,0,0,0,0,0c0,0,0,0,0,0c0,0,0,0-0.1,0c0,0,0,0,0,0c0,0,0,0-0.1,0c0,0,0,0,0,0c0,0,0,0,0,0c0,0,0,0,0,0c0,0,0,0,0,0c0,0,0,0,0,0
	c0,0,0,0,0,0c0,0,0,0,0,0c0,0,0,0,0,0c0,0,0,0,0,0c0,0,0,0,0,0c0,0,0,0,0,0c0,0,0,0,0,0c0,0,0,0,0,0c0,0,0,0,0,0
	c-0.1-0.4-0.1-0.7-0.1-1C21.2,17.3,21.6,16.3,22.7,16.3L22.7,16.3z M22.7,16.3"/>
</svg>
