<svg style="position: absolute; width: 0; height: 0; overflow: hidden;" version="1.1" xmlns="http://www.w3.org/2000/svg" xmlns:xlink="http://www.w3.org/1999/xlink">
<defs>
<symbol id="icon-position" viewBox="0 0 36 32">
<title>position</title>
<path class="path1" fill="#f68b68" d="M12.936 23.387c0.123 0.199 0.338 0.331 0.584 0.334 0.124-0.002 0.239-0.035 0.338-0.092l2.74-1.579c0.405 0.38 0.951 0.614 1.553 0.614s1.148-0.234 1.554-0.615l2.742 1.582c0.095 0.052 0.209 0.083 0.329 0.083 0.247 0 0.465-0.129 0.588-0.324 0.054-0.098 0.084-0.211 0.084-0.332 0-0.247-0.129-0.465-0.324-0.588l-2.746-1.582c0.038-0.155 0.059-0.333 0.059-0.516 0-1.030-0.684-1.901-1.624-2.182l-0.016-3.165c-0.083-0.298-0.352-0.514-0.672-0.514s-0.589 0.215-0.671 0.509l-0.001 3.173c-0.937 0.299-1.604 1.162-1.604 2.18 0 0.182 0.021 0.36 0.062 0.53l-2.746 1.565c-0.191 0.126-0.316 0.34-0.316 0.583 0 0.123 0.032 0.239 0.088 0.339zM18.158 19.433c0.523 0 0.947 0.424 0.947 0.947s-0.424 0.947-0.947 0.947c-0.523 0-0.947-0.424-0.947-0.947s0.424-0.947 0.947-0.947z"></path>
<path class="path2" fill="#9987c0" d="M11.648 15.269c0.385 0 0.696-0.312 0.696-0.696v-1.796c0-0 0-0.001 0-0.001 0-0.19 0.086-0.359 0.222-0.472 1.060-0.861 2.252-1.638 3.52-2.287 0.375-0.184 0.552-0.445 0.561-0.749l0-2.57c-0.005-0.23-0.121-0.432-0.297-0.556-0.146-0.095-0.239-0.254-0.239-0.435 0-0.002 0-0.004 0-0.005v-2.639c0.004-0.944 0.768-1.709 1.712-1.713h0.571c0.938 0.012 1.695 0.773 1.699 1.712v2.646c0 0.002 0 0.003 0 0.005 0 0.181-0.093 0.34-0.235 0.432-0.177 0.127-0.291 0.329-0.294 0.558v2.556c0.008 0.304 0.186 0.566 0.441 0.694 1.399 0.7 2.6 1.48 3.703 2.377 0.1 0.084 0.186 0.254 0.186 0.444 0 0 0 0.001 0 0.001v1.845c0.083 0.298 0.352 0.514 0.672 0.514s0.589-0.215 0.671-0.509l0.001-1.85c0-0.007 0-0.016 0-0.024 0-0.596-0.27-1.129-0.693-1.484-1.069-0.857-2.266-1.637-3.538-2.293l-0.12-1.964c0.327-0.336 0.529-0.795 0.529-1.302 0-0.003 0-0.005 0-0.008v-2.638c0-0 0-0 0-0 0-1.682-1.356-3.048-3.034-3.063h-0.572c-1.692 0-3.064 1.372-3.064 3.064v2.646c0 0.002 0 0.005 0 0.007 0 0.507 0.202 0.966 0.53 1.302l-0 1.907c-1.367 0.72-2.543 1.501-3.633 2.385-0.387 0.328-0.656 0.863-0.656 1.462 0 0.006 0 0.012 0 0.018v1.83c0 0.385 0.312 0.696 0.696 0.696z"></path>
<path class="path3" fill="#9987c0" d="M26.277 25.65c-1.367 0.72-2.544 1.501-3.633 2.385-0.387 0.328-0.656 0.864-0.656 1.462 0 0.006 0 0.012 0 0.018v1.816c0.083 0.298 0.352 0.514 0.672 0.514s0.589-0.215 0.671-0.509l0.001-1.829c0-0 0-0.001 0-0.001 0-0.19 0.086-0.359 0.222-0.472 1.051-0.859 2.231-1.636 3.487-2.287 0.376-0.182 0.554-0.444 0.559-0.749v-2.57c-0.003-0.229-0.117-0.431-0.29-0.556-0.145-0.095-0.239-0.254-0.239-0.435 0-0.002 0-0.004 0-0.005v-2.645c0.020-0.935 0.782-1.685 1.719-1.685 0.005 0 0.010 0 0.015 0h0.57c0.944 0.004 1.709 0.768 1.713 1.712v2.646c0 0.002 0 0.003 0 0.005 0 0.181-0.093 0.34-0.235 0.432-0.177 0.127-0.291 0.329-0.294 0.558v2.556c0.005 0.305 0.184 0.568 0.441 0.694 1.388 0.699 2.58 1.477 3.675 2.37 0.101 0.085 0.187 0.254 0.187 0.444 0 0 0 0.001 0 0.001v1.81c0.083 0.298 0.352 0.514 0.672 0.514s0.589-0.215 0.671-0.509l0.001-1.829c0-0.007 0-0.016 0-0.024 0-0.596-0.27-1.129-0.693-1.484-1.052-0.855-2.229-1.636-3.478-2.299l-0.118-1.958c0.327-0.336 0.529-0.795 0.529-1.302 0-0.003 0-0.005 0-0.008v-2.645c-0.004-1.69-1.373-3.060-3.063-3.064h-0.571c-1.692 0-3.064 1.372-3.064 3.064v2.646c0 0.002 0 0.005 0 0.007 0 0.507 0.202 0.966 0.53 1.302z"></path>
<path class="path4" fill="#9987c0" d="M0.696 31.993c0.385 0 0.696-0.312 0.696-0.696v-1.796c0-0 0-0.001 0-0.001 0-0.19 0.086-0.359 0.222-0.472 1.060-0.861 2.252-1.638 3.52-2.287 0.377-0.182 0.556-0.444 0.561-0.749v-2.57c-0.003-0.229-0.117-0.431-0.29-0.556-0.145-0.095-0.239-0.254-0.239-0.435 0-0.002 0-0.004 0-0.005v-2.646c0.022-0.913 0.753-1.648 1.661-1.678l0.574-0c0.944 0.004 1.709 0.768 1.713 1.712v2.646c0 0.002 0 0.003 0 0.005 0 0.181-0.093 0.34-0.235 0.432-0.177 0.127-0.291 0.329-0.294 0.558v2.556c0.005 0.305 0.184 0.568 0.441 0.694 1.388 0.699 2.58 1.477 3.675 2.37 0.101 0.085 0.187 0.255 0.187 0.444 0 0 0 0.001 0 0.001v1.81c-0.015 0.055-0.024 0.118-0.024 0.183 0 0.385 0.312 0.696 0.696 0.696s0.696-0.312 0.696-0.696c0-0.065-0.009-0.128-0.026-0.188l0.001-1.826c0-0.007 0-0.016 0-0.024 0-0.596-0.27-1.129-0.693-1.484-1.052-0.855-2.229-1.636-3.478-2.299l-0.118-1.958c0.311-0.332 0.502-0.78 0.502-1.273 0-0.013-0-0.025-0-0.038l0-2.644c-0.004-1.69-1.373-3.060-3.063-3.064h-0.55c-1.69 0.004-3.060 1.373-3.064 3.063v2.646c0 0.002 0 0.005 0 0.007 0 0.507 0.202 0.966 0.53 1.302l-0 1.907c-1.37 0.718-2.549 1.496-3.641 2.379-0.386 0.328-0.655 0.863-0.655 1.461 0 0.006 0 0.012 0 0.018v1.83c0 0.385 0.312 0.696 0.696 0.696z"></path>
</symbol>
<symbol id="icon-technical" viewBox="0 0 72 32">
<title>technical</title>
<path class="path1" fill="#f68c68" d="M35.971 15.412c-3.209 0-5.811 2.601-5.811 5.811s2.602 5.811 5.811 5.811c3.209 0 5.811-2.602 5.811-5.811-0.008-3.206-2.605-5.803-5.81-5.811zM35.971 24.751c-1.948 0-3.528-1.579-3.528-3.528s1.58-3.528 3.528-3.528c1.948 0 3.528 1.579 3.528 3.528-0.008 1.945-1.583 3.52-3.527 3.528z"></path>
<path class="path2" fill="#9988c0" d="M42.196 13.309c-1.706-1.362-3.894-2.185-6.274-2.185s-4.568 0.823-6.294 2.201c-0.199 0.192-0.335 0.484-0.335 0.809 0 0.627 0.508 1.134 1.134 1.134 0.224 0 0.433-0.065 0.609-0.177 1.313-1.045 3.002-1.678 4.838-1.678s3.524 0.633 4.858 1.693c0.187 0.18 0.461 0.297 0.763 0.297 0.627 0 1.134-0.508 1.134-1.134 0-0.402-0.21-0.756-0.525-0.957z"></path>
<path class="path3" fill="#9988c0" d="M71.291 15.357c-0.168-0.104-0.372-0.165-0.59-0.165-0.412 0-0.772 0.219-0.971 0.547l-1.497 2.454h-19.687c-0.293-3.169-1.715-5.959-3.855-8.006l2.015-0.005c0.63 0 1.141-0.511 1.141-1.141s-0.511-1.141-1.141-1.141h-5.285c-1.269-0.628-2.748-1.057-4.309-1.2l-0.049-5.538c0-0.63-0.511-1.141-1.141-1.141s-1.141 0.511-1.141 1.141v5.534c-1.606 0.149-3.079 0.577-4.418 1.237l-5.225-0.033c-0.63 0-1.141 0.511-1.141 1.141s0.511 1.141 1.141 1.141h2.006c-2.144 2.051-3.567 4.841-3.856 7.96l-19.691 0.050-1.48-2.463c-0.204-0.331-0.564-0.548-0.975-0.548-0.631 0-1.142 0.511-1.142 1.142 0 0.22 0.062 0.425 0.17 0.6l1.823 2.997c0.201 0.332 0.559 0.551 0.968 0.553h9.242c-0.963 1.123-1.55 2.595-1.55 4.203 0 3.576 2.899 6.475 6.475 6.475s6.475-2.899 6.475-6.475c0-1.608-0.586-3.079-1.557-4.212l1.239 0.009c0.547 6.544 5.993 11.648 12.631 11.648s12.084-5.104 12.628-11.602l1.262-0.046c-0.963 1.123-1.55 2.595-1.55 4.203 0 3.576 2.899 6.475 6.475 6.475s6.475-2.899 6.475-6.475c0-1.608-0.586-3.079-1.557-4.212l9.249 0.009c0.41-0.002 0.768-0.221 0.966-0.548l1.829-3.007c0.104-0.168 0.165-0.372 0.165-0.59 0-0.412-0.219-0.772-0.547-0.971zM21.333 24.654c0 2.292-1.858 4.15-4.15 4.15s-4.15-1.858-4.15-4.15c0-2.292 1.858-4.15 4.15-4.15s4.15 1.858 4.15 4.15zM35.971 29.731c-0.016 0-0.036 0-0.055 0-5.746 0-10.404-4.658-10.404-10.404s4.658-10.404 10.404-10.404c5.746 0 10.404 4.658 10.404 10.404 0 0.015-0 0.029-0 0.044-0.031 5.703-4.644 10.321-10.345 10.36zM58.95 24.668c0 2.292-1.858 4.15-4.15 4.15s-4.15-1.858-4.15-4.15c0-2.292 1.858-4.15 4.15-4.15s4.15 1.858 4.15 4.15z"></path>
<path class="path4" fill="#f68c68" d="M17.128 27.946c1.805-0.008 3.265-1.473 3.265-3.279 0-1.811-1.468-3.279-3.279-3.279-1.806 0-3.271 1.46-3.279 3.264 0.008 1.808 1.471 3.272 3.278 3.28zM17.128 23.658c0.558 0 1.010 0.452 1.010 1.010s-0.452 1.010-1.010 1.010c-0.558 0-1.010-0.452-1.010-1.010s0.452-1.010 1.010-1.010z"></path>
<path class="path5" fill="#f68c68" d="M54.703 27.946c1.811 0 3.279-1.468 3.279-3.279s-1.468-3.279-3.279-3.279c-1.811 0-3.279 1.468-3.279 3.279 0.008 1.808 1.471 3.271 3.278 3.279zM54.703 23.658c0.558 0 1.010 0.452 1.010 1.010s-0.452 1.010-1.010 1.010c-0.558 0-1.010-0.452-1.010-1.010s0.452-1.010 1.010-1.010z"></path>
</symbol>
</defs>
</svg>
