<svg style="position: absolute; width: 0; height: 0; overflow: hidden;" version="1.1" xmlns="http://www.w3.org/2000/svg" xmlns:xlink="http://www.w3.org/1999/xlink">
<defs>
<symbol id="icon-message" viewBox="0 0 35 32">
<title>message</title>
<path class="path1" fill="#9a88c0" d="M34.257 13.278l-4.382-2.921v-9.759c0-0.332-0.266-0.598-0.598-0.598h-24.033c-0.332 0-0.598 0.266-0.598 0.598v9.759l-4.382 2.921c-0.133 0.066-0.266 0.266-0.266 0.465v17.726c0 0.332 0.266 0.597 0.597 0.597h33.394c0.332 0 0.597-0.266 0.597-0.598v-17.726c-0.066-0.199-0.199-0.398-0.332-0.465v0zM4.647 15.27l-1.793-0.929h1.793v0.929zM1.129 14.672l13.145 6.971-13.145 8.764v-15.734zM17.261 21.046l14.805 9.826h-29.61l14.805-9.826zM20.249 21.643l13.145-6.971v15.668l-13.145-8.697zM29.876 14.34h1.793l-1.793 0.929v-0.929zM32.066 13.145h-2.191v-1.461l2.191 1.461zM28.747 1.129v14.739l-9.56 5.046-1.593-0.996c-0.199-0.133-0.465-0.133-0.664 0l-1.593 1.062-9.56-5.112v-14.739h22.971zM4.647 13.145h-2.191l2.191-1.461v1.461z"></path>
<path class="path2" fill="#f98c67" d="M17.261 15.004h4.581c0.332 0 0.598-0.266 0.598-0.598s-0.266-0.598-0.598-0.598h-4.581c-2.191 0-3.983-1.793-3.983-3.983v-0.199c0-2.191 1.793-3.983 3.983-3.983s3.983 1.793 3.983 3.983v0.398c0 0.465-0.398 0.863-0.863 0.863s-0.863-0.398-0.863-0.863v-0.797c0-1.394-1.129-2.456-2.456-2.456-1.394 0-2.456 1.129-2.456 2.456 0 1.394 1.129 2.456 2.456 2.456 0.598 0 1.195-0.199 1.66-0.598 0.332 0.598 0.996 0.929 1.726 0.929 1.129 0 1.992-0.929 1.992-1.992v-0.398c0-2.855-2.324-5.112-5.112-5.112-2.855 0-5.112 2.324-5.112 5.112v0.199c-0.066 2.921 2.191 5.178 5.046 5.178v0zM17.062 10.689c-0.73 0-1.328-0.598-1.328-1.328s0.598-1.328 1.328-1.328c0.73 0 1.328 0.598 1.328 1.328s-0.598 1.328-1.328 1.328v0z"></path>
</symbol>
<symbol id="icon-arrow-down" viewBox="0 0 32 32">
<title>arrow-down</title>
<path class="path1" d="M31.406 7.594c-0.396-0.396-0.864-0.594-1.406-0.594h-28c-0.542 0-1.011 0.198-1.406 0.594s-0.594 0.865-0.594 1.407c0 0.542 0.198 1.010 0.594 1.406l14 14c0.396 0.396 0.865 0.594 1.406 0.594s1.011-0.198 1.406-0.594l14-14c0.395-0.396 0.594-0.864 0.594-1.406s-0.199-1.010-0.594-1.406z"></path>
</symbol>
<symbol id="icon-arrow-right" viewBox="0 0 32 32">
<title>arrow-right</title>
<path class="path1" d="M24.464 17.584l-13.759 13.759c-0.875 0.876-2.294 0.876-3.169 0s-0.875-2.294 0-3.169l12.175-12.175-12.175-12.174c-0.875-0.875-0.875-2.294 0-3.169s2.294-0.875 3.169 0l13.759 13.759c0.437 0.438 0.656 1.011 0.656 1.584s-0.219 1.147-0.656 1.584z"></path>
</symbol>
<symbol id="icon-email" viewBox="0 0 28 32">
<title>email</title>
<path class="path1" fill="#9a88c0" d="M27.38 13.38l-2.567-2v-10.307c0-0.593-0.481-1.073-1.073-1.073h-19.907c-0.59 0.004-1.067 0.483-1.067 1.073 0 0 0 0 0 0v10.26l-2.567 2c-0.118 0.096-0.193 0.242-0.193 0.405 0 0.001 0 0.001 0 0.002v16.633c0 0 0 0 0 0 0 0.896 0.725 1.623 1.62 1.627h24.327c0.898 0 1.627-0.728 1.627-1.627v-16.587c0-0.001 0-0.001 0-0.002 0-0.163-0.075-0.309-0.192-0.404zM26.54 30.373s0 0 0 0l-9.82-7.707 9.82-7.807zM1.033 30.373v-15.513l9.827 7.807-9.82 7.74s0 0 0 0zM15.867 22c-0.565 0.454-1.29 0.729-2.080 0.729s-1.515-0.275-2.087-0.734l-1.994-1.588h8.18zM11.707 23.3l0.047-0.040c0.589 0.317 1.29 0.504 2.033 0.504s1.444-0.187 2.057-0.515l0.023 0.051 9.7 7.667h-23.567zM26.227 13.787l-1.413 1.12v-2.24zM3.833 1.033h19.907c0.018 0 0.033 0.015 0.033 0.033 0 0 0 0 0 0v14.667l-4.58 3.6h-10.813l-4.58-3.607v-14.667c0-0.018 0.015-0.033 0.033-0.033zM2.767 14.907l-1.433-1.12 1.433-1.12z"></path>
<path class="path2" fill="#f98c67" d="M7.153 4.907h3.873c0.287 0 0.52-0.233 0.52-0.52s-0.233-0.52-0.52-0.52h-3.873c-0.287 0-0.52 0.233-0.52 0.52s0.233 0.52 0.52 0.52z"></path>
<path class="path3" fill="#9a88c0" d="M7.153 7.673h6.080c0.018 0.002 0.038 0.003 0.059 0.003 0.287 0 0.52-0.233 0.52-0.52s-0.233-0.52-0.52-0.52c-0.021 0-0.041 0.001-0.061 0.004l-6.078-0c-0.018-0.002-0.038-0.003-0.059-0.003-0.287 0-0.52 0.233-0.52 0.52s0.233 0.52 0.52 0.52c0.021 0 0.041-0.001 0.061-0.004z"></path>
<path class="path4" fill="#f98c67" d="M9.953 11.58c0 0.287 0.233 0.52 0.52 0.52 0 0 0 0 0 0h6.667c0.261-0.031 0.461-0.25 0.461-0.517s-0.2-0.486-0.459-0.516l-6.669-0c-0.287 0-0.52 0.233-0.52 0.52 0 0 0 0 0 0z"></path>
<path class="path5" fill="#9a88c0" d="M7.153 14.86h13.267c0.261-0.031 0.461-0.25 0.461-0.517s-0.2-0.486-0.459-0.516l-13.269-0c-0.018-0.002-0.038-0.003-0.059-0.003-0.287 0-0.52 0.233-0.52 0.52s0.233 0.52 0.52 0.52c0.021 0 0.041-0.001 0.061-0.004z"></path>
<path class="path6" fill="#f98c67" d="M7.153 17.627h13.267c0.287 0 0.52-0.233 0.52-0.52s-0.233-0.52-0.52-0.52h-13.267c-0.287 0-0.52 0.233-0.52 0.52s0.233 0.52 0.52 0.52z"></path>
</symbol>
<symbol id="icon-phone" viewBox="0 0 19 32">
<title>phone</title>
<path class="path1" fill="#9a88c0" d="M19.273 29.507v-27.020c0-1.373-1.113-2.487-2.487-2.487 0 0 0 0 0 0h-14.3c-1.373 0-2.487 1.113-2.487 2.487s1.113 2.487 2.487 2.487c1.373 0 2.487-1.113 2.487-2.487s-1.113-2.487-2.487-2.487c-1.373 0-2.487 1.113-2.487 2.487v27.027c0 1.373 1.113 2.487 2.487 2.487h14.3c1.373-0.008 2.483-1.12 2.487-2.493zM1.6 5.76h16.067v18.187h-16.067zM2.487 1.6h14.3c0 0 0 0 0 0 0.486 0 0.88 0.394 0.88 0.88 0 0.002 0 0.005-0 0.007v1.673h-16.067v-1.673c-0-0.002-0-0.004-0-0.007 0-0.486 0.394-0.88 0.88-0.88 0.002 0 0.005 0 0.007 0zM1.6 29.507v-4h16.067v4c-0.004 0.485-0.395 0.876-0.88 0.88h-14.3c-0.002 0-0.004 0-0.007 0-0.486 0-0.88-0.394-0.88-0.88 0 0 0-0 0-0z"></path>
<path class="path2" fill="#f98c67" d="M11.26 27.233h-3.26c-0.413 0.039-0.733 0.384-0.733 0.803s0.321 0.765 0.73 0.803l3.25 0c0.413-0.039 0.733-0.384 0.733-0.803s-0.321-0.765-0.73-0.803z"></path>
</symbol>
<symbol id="icon-social" viewBox="0 0 32 32">
<title>social</title>
<path class="path1" fill="#f98c67" d="M30 20.873c0.234-0.966 0.37-2.076 0.373-3.218 0-0.011 0-0.022 0-0.033 0-5.14-2.72-9.645-6.798-12.154-0.151-0.099-0.261-0.137-0.381-0.137-0.306 0-0.553 0.248-0.553 0.553 0 0.21 0.117 0.393 0.29 0.487 3.816 2.359 6.318 6.518 6.318 11.26 0 1.016-0.115 2.006-0.333 2.957-0.216-0.14-0.485-0.169-0.76-0.169-0.003 0-0.007 0-0.010 0-2.129 0.003-3.854 1.73-3.854 3.86 0 2.132 1.728 3.86 3.86 3.86s3.86-1.728 3.86-3.86c0-1.462-0.813-2.735-2.012-3.39zM28.167 27.033c-1.524 0-2.76-1.236-2.76-2.76s1.236-2.76 2.76-2.76c1.524 0 2.76 1.236 2.76 2.76s-1.236 2.76-2.76 2.76c-1.524 0-2.76-1.236-2.76-2.76s1.236-2.76 2.76-2.76c1.524 0 2.76 1.236 2.76 2.76s-1.236 2.76-2.76 2.76z"></path>
<path class="path2" fill="#f98c67" d="M21.060 29.893c-1.495 0.636-3.233 1.006-5.058 1.006-3.671 0-6.992-1.496-9.387-3.912 0.689-0.696 1.115-1.653 1.115-2.71 0-2.124-1.722-3.847-3.847-3.847s-3.847 1.722-3.847 3.847c0 2.124 1.722 3.847 3.847 3.847 0.676 0 1.312-0.174 1.864-0.481 2.589 2.691 6.232 4.355 10.263 4.355 1.974 0 3.854-0.399 5.565-1.12 0.087-0.058 0.208-0.244 0.208-0.458 0-0.306-0.248-0.553-0.553-0.553-0.060 0-0.118 0.010-0.173 0.027zM1.107 24.273c0-1.524 1.236-2.76 2.76-2.76s2.76 1.236 2.76 2.76c0 1.524-1.236 2.76-2.76 2.76s-2.76-1.236-2.76-2.76c0-1.524 1.236-2.76 2.76-2.76s2.76 1.236 2.76 2.76c0 1.524-1.236 2.76-2.76 2.76s-2.76-1.236-2.76-2.76z"></path>
<path class="path3" fill="#9a88c0" d="M2.207 17.22h0.040c0.289-0.003 0.525-0.227 0.547-0.512 0.398-5.606 4.245-10.214 9.414-11.738 0.582 1.582 2.050 2.731 3.787 2.731 2.128 0 3.853-1.725 3.853-3.853s-1.725-3.853-3.853-3.853c-2.128 0-3.853 1.725-3.853 3.852-5.776 1.632-10.013 6.661-10.444 12.741-0.004 0.058-0.004 0.072-0.004 0.086 0 0.291 0.227 0.528 0.513 0.546zM16 1.107c1.524 0 2.76 1.236 2.76 2.76s-1.236 2.76-2.76 2.76c-1.524 0-2.76-1.236-2.76-2.76s1.236-2.76 2.76-2.76c1.524 0 2.76 1.236 2.76 2.76s-1.236 2.76-2.76 2.76c-1.524 0-2.76-1.236-2.76-2.76s1.236-2.76 2.76-2.76z"></path>
</symbol>
<symbol id="icon-question" viewBox="0 0 32 32">
<title>question</title>
<path class="path1" fill="#f98c67" d="M15.92 10.905c1.194 0 1.914 0.615 1.914 1.711 0 1.951-3.483 2.462-3.483 4.855-0.001 0.018-0.002 0.040-0.002 0.062 0 0.7 0.568 1.268 1.268 1.268 0.003 0 0.005 0 0.008-0 1.31 0 1.156-0.972 1.63-1.668 0.615-0.935 3.6-1.932 3.6-4.517 0-2.806-2.505-3.975-5.052-3.975-2.425 0-4.652 1.729-4.652 3.692-0.001 0.014-0.001 0.031-0.001 0.048 0 0.656 0.532 1.188 1.188 1.188 0.037 0 0.074-0.002 0.11-0.005 1.921 0 0.925-2.627 3.472-2.627z"></path>
<path class="path2" fill="#f98c67" d="M17.329 21.729c-0.014-0.89-0.739-1.606-1.631-1.606-0.901 0-1.631 0.73-1.631 1.631s0.73 1.631 1.631 1.631c0.899-0.003 1.627-0.732 1.631-1.63z"></path>
<path class="path3" fill="#9a88c0" d="M16 0c-8.834 0.003-15.994 7.165-15.994 16 0 4.417 1.79 8.416 4.683 11.311 2.895 2.895 6.895 4.686 11.314 4.686s8.418-1.791 11.314-4.686c2.894-2.895 4.683-6.894 4.683-11.311 0-8.837-7.163-16-16-16-0 0-0 0-0 0zM26.603 26.603c-2.714 2.714-6.464 4.393-10.606 4.393-8.284 0-14.999-6.715-14.999-14.999 0-4.142 1.679-7.892 4.393-10.606s6.464-4.393 10.606-4.393c8.284 0 14.999 6.715 14.999 14.999 0 4.142-1.679 7.892-4.393 10.606z"></path>
<path class="path4" fill="#000" d="M12.566 9.508v0z"></path>
</symbol>
<symbol id="icon-facebook" viewBox="0 0 32 32">
<title>facebook</title>
<path class="path1" d="M16 0c-8.837 0-16 7.164-16 16 0 8.837 7.163 16 16 16s16-7.163 16-16c0-8.836-7.163-16-16-16zM16 30.545c-8.033 0-14.546-6.512-14.546-14.545s6.513-14.545 14.546-14.545 14.546 6.512 14.546 14.545-6.513 14.545-14.546 14.545zM17.446 12.545c0-0.588 0.061-0.902 0.966-0.902h1.209v-2.19h-1.936c-2.325 0-3.144 1.096-3.144 2.936v1.422h-1.449v2.189h1.449v6.547h2.9v-6.547h1.937l0.257-2.189h-2.193l0.004-1.266z"></path>
</symbol>
<symbol id="icon-twitter" viewBox="0 0 32 32">
<title>twitter</title>
<path class="path1" d="M23.598 10.398c-0.576 0.336-1.215 0.58-1.895 0.713-0.544-0.571-1.319-0.928-2.179-0.928-1.647 0-2.983 1.314-2.983 2.937 0 0.229 0.025 0.454 0.077 0.67-2.48-0.123-4.68-1.293-6.151-3.069-0.257 0.434-0.403 0.938-0.403 1.477 0 1.019 0.526 1.918 1.327 2.445-0.488-0.016-0.949-0.148-1.352-0.368-0.001 0.013-0.001 0.024-0.001 0.036 0 1.424 1.029 2.611 2.395 2.881-0.251 0.067-0.514 0.103-0.786 0.103-0.192 0-0.38-0.019-0.562-0.052 0.38 1.167 1.481 2.016 2.787 2.039-1.021 0.789-2.308 1.258-3.706 1.258-0.241 0-0.478-0.014-0.712-0.041 1.321 0.833 2.89 1.319 4.575 1.319 5.489 0 8.49-4.476 8.49-8.356 0-0.128-0.003-0.254-0.008-0.38 0.582-0.415 1.088-0.932 1.488-1.521-0.535 0.233-1.11 0.391-1.714 0.463 0.617-0.365 1.090-0.94 1.313-1.626zM16 0c-8.837 0-16 7.164-16 16 0 8.837 7.163 16 16 16s16-7.163 16-16c0-8.836-7.163-16-16-16zM16 30.545c-8.033 0-14.546-6.512-14.546-14.545s6.513-14.545 14.546-14.545 14.545 6.512 14.545 14.545-6.512 14.545-14.545 14.545z"></path>
</symbol>
<symbol id="icon-google" viewBox="0 0 32 32">
<title>google</title>
<path class="path1" d="M16 0c-8.836 0-16 7.163-16 16s7.164 16 16 16c8.837 0 16-7.163 16-16s-7.163-16-16-16zM16 30.545c-8.033 0-14.545-6.511-14.545-14.545 0-8.033 6.512-14.545 14.545-14.545s14.545 6.512 14.545 14.545c0 8.034-6.512 14.545-14.545 14.545zM16.057 16.587c-0.373-0.277-0.721-0.688-0.734-0.815 0-0.217 0-0.317 0.513-0.737 0.666-0.546 1.033-1.264 1.033-2.021 0-0.654-0.183-1.24-0.498-1.665h0.278l1.538-1.165h-4.167c-1.672 0-3.137 1.313-3.137 2.809 0 1.546 1.131 2.721 2.653 2.784-0.023 0.108-0.036 0.216-0.036 0.323 0 0.224 0.051 0.437 0.152 0.642-1.886 0.013-3.475 1.274-3.475 2.766 0 1.339 1.53 2.311 3.637 2.311 2.276 0 3.505-1.424 3.505-2.765 0-1.116-0.342-1.785-1.262-2.467zM12.654 12.946c-0.069-0.558 0.047-1.074 0.315-1.382 0.163-0.188 0.373-0.286 0.607-0.286v-0.303l0.027 0.303c0.698 0.022 1.368 0.849 1.492 1.841 0.071 0.567-0.051 1.097-0.325 1.413-0.163 0.187-0.368 0.285-0.622 0.284h-0.001c-0.684-0.019-1.368-0.877-1.493-1.87zM13.809 20.66c-1.039 0-1.852-0.668-1.852-1.521 0-0.782 0.952-1.468 2.038-1.468v-0.304h0.001l0.028 0.304c0.234 0.003 0.461 0.038 0.677 0.106l0.215 0.154c0.552 0.394 0.843 0.617 0.931 0.977 0.021 0.094 0.032 0.188 0.032 0.282-0.002 0.976-0.698 1.47-2.070 1.47zM21.814 10.902h-1.455v2.184h-2.188v1.456h2.188v2.174h1.455v-2.174h2.192v-1.456h-2.192v-2.184z"></path>
</symbol>
<symbol id="icon-linkedin" viewBox="0 0 32 32">
<title>linkedin</title>
<path class="path1" d="M11.631 10.182c-0.801 0-1.45 0.652-1.45 1.457 0 0.804 0.649 1.457 1.45 1.457s1.449-0.653 1.449-1.457c0-0.805-0.649-1.457-1.449-1.457zM10.182 21.818h2.898v-8.011h-2.898v8.011zM19.896 13.808c-2.156 0-2.444 1.298-2.444 1.298l0.003-1.287h-2.909v8h2.909v-4.363c0 0 0-1.466 1.236-1.466 0.695 0 0.945 0.65 0.945 1.466v4.363h2.909v-4.363c0-2.278-0.989-3.648-2.649-3.648zM16 0c-8.836 0-16 7.163-16 16s7.164 16 16 16 16-7.163 16-16-7.164-16-16-16zM16 30.545c-8.033 0-14.545-6.512-14.545-14.545s6.512-14.545 14.545-14.545 14.545 6.512 14.545 14.545-6.512 14.545-14.545 14.545z"></path>
</symbol>
<symbol id="icon-logo" viewBox="0 0 87 32">
<title>logo</title>
<path class="path1" d="M12.869 22.837h1.894l1.398-3.813c-0.876 0.599-1.728 1.201-2.559 1.803l-0.733 2.010z"></path>
<path class="path2" d="M23.095 14.604l3.018 8.235h1.894l-3.339-9.16c-0.531 0.307-1.055 0.615-1.573 0.925"></path>
<path class="path3" d="M20.438 7.353l1.601 4.365c0.52-0.309 1.047-0.614 1.581-0.916l-1.8-4.938h-0.835v-0.002h-1.928l-3.695 10.14c0.823-0.577 1.669-1.148 2.535-1.715l2.541-6.933z"></path>
<path class="path4" d="M49.998 0.287c0 0-35.337 10.485-49.613 31.427 0.021-0.034 9.486-14.881 49.613-31.427"></path>
<path class="path5" d="M38.624 13.232v1.604c0.162-0.197 0.341-0.373 0.534-0.528 0.192-0.153 0.391-0.288 0.596-0.403s0.412-0.212 0.619-0.288c0.208-0.077 0.408-0.141 0.601-0.192 0.452-0.115 0.91-0.183 1.373-0.202v1.23c-0.457 0-0.865 0.057-1.223 0.168-0.359 0.113-0.676 0.261-0.949 0.443-0.274 0.183-0.508 0.387-0.705 0.616-0.196 0.228-0.355 0.456-0.479 0.687s-0.213 0.448-0.271 0.654c-0.057 0.206-0.086 0.379-0.086 0.518v5.384h-1.174v-9.69h1.165z"></path>
<path class="path6" d="M46.581 12.847c0.65 0 1.263 0.13 1.839 0.394s1.078 0.623 1.508 1.082c0.431 0.457 0.77 0.993 1.017 1.604 0.247 0.612 0.37 1.264 0.37 1.957s-0.123 1.345-0.37 1.957c-0.247 0.612-0.586 1.146-1.017 1.605-0.43 0.458-0.933 0.818-1.508 1.081-0.576 0.264-1.189 0.395-1.839 0.395s-1.264-0.13-1.839-0.395c-0.575-0.262-1.079-0.623-1.509-1.081s-0.77-0.992-1.017-1.605c-0.247-0.612-0.37-1.264-0.37-1.957s0.123-1.345 0.37-1.957c0.247-0.611 0.586-1.147 1.017-1.604 0.431-0.459 0.934-0.818 1.509-1.082s1.188-0.394 1.839-0.394zM50.177 17.883c0-0.525-0.094-1.021-0.284-1.485-0.191-0.465-0.448-0.87-0.773-1.216s-0.706-0.621-1.143-0.822c-0.438-0.202-0.903-0.303-1.396-0.303-0.5 0-0.969 0.101-1.405 0.303s-0.818 0.476-1.143 0.822c-0.324 0.346-0.581 0.751-0.767 1.216s-0.281 0.959-0.281 1.485c0 0.532 0.094 1.029 0.281 1.495s0.443 0.868 0.767 1.216c0.326 0.346 0.707 0.617 1.143 0.817 0.437 0.198 0.906 0.298 1.405 0.298 0.493 0 0.959-0.099 1.396-0.298 0.437-0.2 0.818-0.472 1.143-0.817 0.325-0.347 0.583-0.75 0.773-1.216 0.189-0.465 0.284-0.963 0.284-1.495"></path>
<path class="path7" d="M53.205 8.118v4.508h3.785v1.278h-3.795v4.032c0 0.519 0.093 1.002 0.28 1.455 0.188 0.45 0.449 0.842 0.787 1.174 0.337 0.333 0.738 0.594 1.202 0.788s0.973 0.287 1.527 0.287v1.28c-0.771 0-1.465-0.144-2.083-0.43-0.618-0.285-1.142-0.657-1.574-1.123-0.432-0.464-0.764-0.995-0.994-1.591-0.232-0.596-0.346-1.205-0.346-1.826v-9.834h1.211z"></path>
<path class="path8" d="M66.122 12.972v9.949h-1.166v-1.693c-0.337 0.423-0.71 0.749-1.115 0.976-0.407 0.226-0.791 0.396-1.153 0.504-0.422 0.121-0.843 0.192-1.265 0.213-0.657 0-1.27-0.137-1.839-0.405-0.57-0.268-1.063-0.632-1.482-1.089-0.419-0.458-0.749-0.985-0.989-1.584-0.242-0.599-0.362-1.232-0.362-1.897 0-0.66 0.12-1.29 0.362-1.891 0.24-0.602 0.57-1.131 0.989-1.589 0.419-0.459 0.914-0.821 1.486-1.091 0.573-0.268 1.189-0.403 1.851-0.403 0.422 0.020 0.844 0.089 1.266 0.211 0.181 0.052 0.369 0.117 0.564 0.197 0.197 0.081 0.392 0.18 0.588 0.299s0.387 0.256 0.574 0.413c0.186 0.157 0.361 0.342 0.524 0.553v-1.673h1.166zM64.983 17.946c0-0.52-0.093-1.010-0.28-1.472s-0.44-0.863-0.759-1.203c-0.319-0.34-0.695-0.611-1.125-0.808s-0.891-0.298-1.38-0.298c-0.487 0-0.947 0.1-1.381 0.298s-0.811 0.468-1.13 0.808c-0.319 0.34-0.573 0.742-0.759 1.203s-0.281 0.952-0.281 1.472 0.093 1.011 0.281 1.473c0.186 0.462 0.439 0.863 0.759 1.204 0.319 0.339 0.696 0.609 1.13 0.807 0.434 0.2 0.894 0.299 1.381 0.299 0.489 0 0.949-0.099 1.38-0.299 0.43-0.198 0.805-0.468 1.125-0.807 0.319-0.341 0.573-0.742 0.759-1.204s0.28-0.953 0.28-1.473"></path>
<path class="path9" d="M75.104 12.972l0.009 1.738c-0.344-0.428-0.722-0.76-1.135-1-0.412-0.236-0.8-0.408-1.161-0.518-0.422-0.128-0.843-0.202-1.265-0.221-0.651 0-1.264 0.128-1.839 0.384s-1.080 0.611-1.513 1.062c-0.434 0.451-0.776 0.985-1.026 1.6-0.25 0.614-0.374 1.282-0.374 2 0 0.717 0.126 1.381 0.379 1.993s0.596 1.143 1.029 1.596c0.434 0.451 0.943 0.805 1.528 1.061s1.207 0.384 1.87 0.384c0.427-0.025 0.851-0.099 1.274-0.221 0.182-0.052 0.368-0.119 0.561-0.203s0.387-0.184 0.583-0.302c0.196-0.119 0.385-0.26 0.569-0.423s0.357-0.351 0.52-0.563v1.856c0 0.185-0.032 0.395-0.095 0.629s-0.158 0.472-0.285 0.716c-0.127 0.244-0.289 0.485-0.487 0.721-0.199 0.236-0.436 0.448-0.71 0.634s-0.586 0.335-0.935 0.448c-0.35 0.112-0.741 0.168-1.174 0.168v0.012c-0.092-0.001-0.184-0.003-0.277-0.010-1.15-0.088-2.203-0.628-3.010-1.527-0.298 0.288-0.6 0.57-0.903 0.853 1.017 1.124 2.355 1.798 3.818 1.91 0.125 0.010 0.248 0.014 0.371 0.015v0.007c0.196 0 0.383-0.012 0.566-0.031 0.029-0.004 0.058-0.008 0.088-0.009 0.067-0.008 0.135-0.016 0.201-0.026 0.093-0.014 0.185-0.029 0.276-0.048v-0.005c0.14-0.031 0.278-0.068 0.409-0.111 0.461-0.153 0.87-0.357 1.229-0.61s0.669-0.543 0.935-0.87c0.265-0.326 0.483-0.657 0.655-0.995 0.171-0.336 0.299-0.668 0.383-0.994 0.084-0.328 0.127-0.62 0.127-0.875v-10.229h-1.192zM74.851 19.512c-0.187 0.465-0.444 0.87-0.768 1.216-0.326 0.347-0.705 0.619-1.139 0.817-0.434 0.199-0.897 0.299-1.391 0.299s-0.96-0.1-1.396-0.299c-0.437-0.198-0.818-0.47-1.143-0.817s-0.581-0.751-0.768-1.216c-0.186-0.465-0.28-0.959-0.28-1.485s0.093-1.020 0.28-1.484c0.187-0.465 0.443-0.871 0.768-1.218s0.706-0.617 1.143-0.816 0.902-0.299 1.396-0.299 0.958 0.1 1.391 0.299c0.434 0.199 0.813 0.47 1.139 0.816s0.581 0.752 0.768 1.218c0.186 0.464 0.28 0.959 0.28 1.484s-0.093 1.020-0.28 1.485"></path>
<path class="path10" d="M34.283 20.945c-0.25 0.196-0.503 0.346-0.759 0.452-0.256 0.105-0.488 0.183-0.697 0.23s-0.444 0.082-0.709 0.101c-0.452 0-0.851-0.067-1.198-0.202s-0.649-0.31-0.908-0.524-0.475-0.456-0.651-0.725c-0.175-0.269-0.319-0.538-0.433-0.803s-0.199-0.516-0.253-0.749c-0.054-0.235-0.091-0.427-0.109-0.573h8.215c0-0.403-0.045-0.81-0.137-1.221-0.089-0.41-0.224-0.805-0.401-1.187s-0.398-0.739-0.659-1.076c-0.263-0.336-0.566-0.628-0.913-0.873-0.347-0.248-0.735-0.444-1.166-0.588s-0.899-0.216-1.405-0.216c-0.543 0-1.035 0.080-1.477 0.24-0.444 0.16-0.838 0.372-1.184 0.634-0.347 0.263-0.645 0.562-0.896 0.899s-0.455 0.686-0.619 1.049c-0.162 0.361-0.283 0.72-0.361 1.076s-0.118 0.681-0.118 0.974c0 0.354 0.040 0.722 0.122 1.112 0.082 0.387 0.203 0.767 0.366 1.143 0.163 0.374 0.37 0.73 0.623 1.067 0.255 0.336 0.553 0.635 0.9 0.893 0.347 0.261 0.739 0.465 1.18 0.615 0.439 0.151 0.931 0.227 1.472 0.227 0.663-0.039 1.293-0.198 1.889-0.481 0.253-0.121 0.509-0.273 0.769-0.456 0.258-0.182 0.507-0.409 0.745-0.677 0.238-0.27 0.455-0.585 0.65-0.947 0.026-0.048 0.047-0.107 0.072-0.158h-1.259c-0.211 0.299-0.441 0.546-0.691 0.742zM29.155 15.797c0.217-0.321 0.453-0.584 0.709-0.793s0.517-0.369 0.782-0.482c0.265-0.111 0.504-0.193 0.718-0.244s0.46-0.086 0.737-0.105c0.276 0.019 0.523 0.055 0.736 0.105 0.214 0.052 0.454 0.133 0.718 0.244 0.266 0.113 0.525 0.273 0.782 0.482s0.492 0.472 0.71 0.793c0.217 0.321 0.384 0.715 0.506 1.183h-6.903c0.12-0.468 0.289-0.861 0.506-1.183"></path>
<path class="path11" d="M83.808 20.945c-0.249 0.196-0.502 0.346-0.758 0.452-0.256 0.105-0.487 0.183-0.696 0.23s-0.444 0.082-0.709 0.101c-0.452 0-0.851-0.067-1.198-0.202s-0.649-0.31-0.909-0.524c-0.258-0.214-0.476-0.456-0.65-0.725s-0.319-0.538-0.434-0.803c-0.116-0.266-0.198-0.516-0.253-0.749-0.054-0.235-0.090-0.427-0.108-0.573h8.214c0-0.403-0.046-0.81-0.136-1.221s-0.225-0.805-0.402-1.187c-0.177-0.381-0.398-0.739-0.659-1.076s-0.566-0.628-0.912-0.873c-0.347-0.248-0.735-0.444-1.166-0.588s-0.899-0.216-1.405-0.216c-0.542 0-1.035 0.080-1.477 0.24-0.444 0.16-0.838 0.372-1.184 0.634s-0.644 0.562-0.895 0.899c-0.25 0.336-0.456 0.686-0.62 1.049-0.162 0.361-0.282 0.72-0.361 1.076-0.077 0.355-0.118 0.681-0.118 0.974 0 0.354 0.041 0.722 0.123 1.112 0.081 0.387 0.203 0.767 0.366 1.143 0.162 0.374 0.37 0.73 0.623 1.067s0.552 0.635 0.899 0.893c0.346 0.261 0.739 0.465 1.179 0.615 0.44 0.151 0.931 0.227 1.473 0.227 0.662-0.039 1.293-0.198 1.889-0.481 0.253-0.121 0.508-0.273 0.768-0.456s0.508-0.409 0.745-0.677c0.238-0.27 0.456-0.585 0.651-0.947 0.025-0.048 0.047-0.107 0.072-0.158h-1.26c-0.21 0.299-0.441 0.546-0.691 0.742zM78.681 15.797c0.218-0.321 0.454-0.584 0.71-0.793s0.516-0.369 0.781-0.482c0.266-0.111 0.505-0.193 0.719-0.244s0.46-0.086 0.736-0.105c0.278 0.019 0.523 0.055 0.737 0.105 0.214 0.052 0.454 0.133 0.718 0.244 0.265 0.113 0.525 0.273 0.782 0.482 0.256 0.208 0.492 0.472 0.709 0.793 0.218 0.321 0.385 0.715 0.506 1.183h-6.904c0.121-0.468 0.29-0.861 0.506-1.183"></path>
</symbol>
</defs>
</svg>
