<svg style="position: absolute; width: 0; height: 0; overflow: hidden;" version="1.1" xmlns="http://www.w3.org/2000/svg" xmlns:xlink="http://www.w3.org/1999/xlink">
<defs>
<symbol id="icon-arrow-link" viewBox="0 0 46 32">
<title>arrow-link</title>
<path class="path1" fill="#6964af" d="M5.878 16.109c0 1.741-1.306 3.048-3.048 3.048-1.524-0.218-2.83-1.524-2.83-3.048 0-1.742 1.306-3.048 3.048-3.048 1.524 0 2.83 1.306 2.83 3.048v0z"></path>
<path class="path2" fill="#6964af" d="M17.85 16.109c0 1.741-1.306 3.048-3.048 3.048s-3.048-1.306-3.048-3.048c0.218-1.742 1.524-3.048 3.048-3.048 1.741 0 3.048 1.306 3.048 3.048v0z"></path>
<path class="path3" fill="#6964af" d="M29.605 16.109c0 1.741-1.306 3.048-3.048 3.048s-3.048-1.306-3.048-3.048c0-1.742 1.306-3.048 3.048-3.048s3.048 1.306 3.048 3.048v0z"></path>
<path class="path4" fill="none" stroke="#6964af" stroke-width="4.3537" stroke-miterlimit="10" stroke-linecap="round" stroke-linejoin="miter" d="M43.537 16.109l-13.932 13.932zM43.537 16.109l-13.932-13.932"></path>
</symbol>
<symbol id="icon-contact" viewBox="0 0 27 32">
<title>contact</title>
<path class="path1" fill="#f98c67" d="M12 13h11c0.333 0 0.6-0.267 0.6-0.6s-0.267-0.6-0.6-0.6h-11c-0.333 0-0.6 0.267-0.6 0.6s0.267 0.6 0.6 0.6v0z"></path>
<path class="path2" fill="#f98c67" d="M12 16.2h8c0.333 0 0.6-0.267 0.6-0.6s-0.267-0.6-0.6-0.6h-8c-0.333 0-0.6 0.267-0.6 0.6s0.267 0.6 0.6 0.6v0z"></path>
<path class="path3" fill="#f98c67" d="M12 19.067h11c0.333 0 0.6-0.267 0.6-0.6s-0.267-0.6-0.6-0.6h-11c-0.333 0-0.6 0.267-0.6 0.6s0.267 0.6 0.6 0.6v0z"></path>
<path class="path4" fill="#f98c67" d="M13.067 21.2h-1.067c-0.333 0-0.6 0.267-0.6 0.6s0.267 0.6 0.6 0.6h1.067c0.333 0 0.6-0.267 0.6-0.6s-0.267-0.6-0.6-0.6v0z"></path>
<path class="path5" fill="#f98c67" d="M13.067 24.067h-1.067c-0.333 0-0.6 0.267-0.6 0.6s0.267 0.6 0.6 0.6h1.067c0.333 0 0.6-0.267 0.6-0.6s-0.267-0.6-0.6-0.6v0z"></path>
<path class="path6" fill="#f98c67" d="M23.067 21.2h-7.667c-0.333 0-0.6 0.267-0.6 0.6s0.267 0.6 0.6 0.6h7.6c0.333 0 0.6-0.267 0.6-0.6 0.067-0.333-0.2-0.6-0.533-0.6v0z"></path>
<path class="path7" fill="#f98c67" d="M20.6 24.667c0-0.333-0.267-0.6-0.6-0.6h-4.6c-0.333 0-0.6 0.267-0.6 0.6s0.267 0.6 0.6 0.6h4.6c0.333 0 0.6-0.267 0.6-0.6v0z"></path>
<path class="path8" fill="#9a88c0" d="M19.467 31.733c0.2 0.2 0.6 0.2 0.867 0l2-2 2 2c0.133 0.133 0.267 0.2 0.4 0.2s0.267-0.067 0.4-0.2l1.2-1.2c0.133-0.133 0.2-0.267 0.2-0.4v-20.133c0-1.467-1.2-2.667-2.667-2.667h-4.533v-6.667c0-0.333-0.267-0.6-0.6-0.6h-18.133c-0.333 0-0.6 0.267-0.6 0.6v20.133c0 1.467 1.2 2.667 2.667 2.667h3.4c0.333 0 0.6-0.267 0.6-0.6s-0.267-0.6-0.6-0.6h-1.133c0.267-0.4 0.467-0.933 0.467-1.533v-10.733c0-0.867 0.667-1.533 1.533-1.533s1.533 0.667 1.533 1.533v20.133c0 0.067 0 0.067 0 0.133 0 0 0 0.067 0 0.067s0 0 0 0.067c0 0 0 0.067 0.067 0.067 0 0 0 0 0 0s0.067 0.067 0.067 0.067l1.2 1.2c0.2 0.2 0.6 0.2 0.867 0l2-2 2 2c0.2 0.2 0.6 0.2 0.867 0l2-2 1.933 2zM4.2 10v10.8c0 0.867-0.667 1.533-1.533 1.533s-1.533-0.667-1.533-1.533v-19.533h17v6.067h-11.2c-1.533-0.067-2.733 1.2-2.733 2.667v0zM15.067 30.467l-2-2c-0.133-0.133-0.267-0.2-0.4-0.2s-0.267 0.067-0.4 0.2l-2 2-0.6-0.6v-19.867c0-0.067 0-0.2 0-0.267 0 0 0-0.067 0-0.067 0-0.067 0-0.133 0-0.2 0 0 0-0.067 0-0.067 0-0.067 0-0.133-0.067-0.2 0 0 0 0 0 0 0-0.067-0.067-0.133-0.067-0.2 0 0 0-0.067 0-0.067 0-0.067-0.067-0.133-0.067-0.133s0-0.067 0-0.067-0.067-0.133-0.133-0.2c0 0 0 0 0 0v0h14.733c0.867 0 1.533 0.667 1.533 1.533v19.867l-0.6 0.6-2-2c-0.2-0.2-0.6-0.2-0.867 0l-2 2-2-2c-0.2-0.2-0.6-0.2-0.867 0l-2.2 1.933z"></path>
</symbol>
<symbol id="icon-direct" viewBox="0 0 27 32">
<title>direct</title>
<path class="path1" fill="#9a88c0" d="M0.334 16.234c0.267 1.069 1.069 2.539 1.202 2.739 0.134 0.334 0.267 0.668 0.267 1.069l1.136 10.823c0.067 0.668 0.601 1.136 1.269 1.136h1.937c0.668 0 1.202-0.468 1.269-1.136l1.002-10.823c0.067-0.334 0.134-0.735 0.267-1.069 0.134-0.267 0-0.668-0.267-0.802s-0.668 0-0.802 0.267c-0.2 0.468-0.334 0.935-0.401 1.403l-1.069 10.889c0 0.067-0.067 0.067-0.067 0.067h-1.937c-0.067 0-0.067 0-0.067-0.067l-1.136-10.823c-0.067-0.468-0.2-0.935-0.401-1.403 0 0 0 0 0-0.067 0 0-0.802-1.47-1.136-2.472-0.267-1.136-0.401-3.541-0.134-4.008 0.2-0.2 0.267-0.267 0.468-0.401 0.534-0.401 1.136-0.668 1.47-0.868l1.336 1.804c0.134 0.134 0.267 0.267 0.468 0.267s0.334-0.067 0.468-0.267l1.603-2.205c0.2-0.267 0.134-0.601-0.134-0.802s-0.601-0.134-0.802 0.134l-1.136 1.537-1.002-1.537c-0.134-0.2-0.468-0.267-0.668-0.2-0.067 0-1.203 0.468-2.205 1.203-0.267 0.2-0.401 0.334-0.601 0.534-0.868 0.868-0.401 4.342-0.2 5.077v0z"></path>
<path class="path2" fill="#9a88c0" d="M5.077 8.618h0.134c0.735 0 1.403-0.267 1.871-0.802 1.002-1.069 0.868-2.939 0.802-3.14-0.067-2.004-1.47-2.739-2.672-2.739h-0.134c-1.202 0-2.605 0.735-2.672 2.739 0 0.2-0.134 2.071 0.802 3.14 0.468 0.534 1.069 0.802 1.871 0.802v0zM3.541 4.743v0c0.067-1.403 1.002-1.603 1.537-1.603h0.067c0.534 0 1.403 0.2 1.47 1.603v0c0.067 0.401 0 1.67-0.534 2.271-0.267 0.267-0.601 0.401-1.002 0.401v0c-0.468 0-0.802-0.134-1.002-0.401-0.534-0.601-0.534-1.804-0.534-2.271v0z"></path>
<path class="path3" fill="#9a88c0" d="M18.772 18.171c-0.267 0.134-0.468 0.468-0.267 0.802 0.134 0.334 0.267 0.668 0.267 1.069l1.136 10.823c0.067 0.668 0.601 1.136 1.269 1.136h1.937c0.668 0 1.203-0.468 1.269-1.136l1.002-10.823c0.067-0.334 0.134-0.735 0.267-1.069 0.134-0.2 0.935-1.67 1.203-2.739 0.2-0.802 0.668-4.276-0.134-5.077-0.2-0.2-0.334-0.334-0.601-0.534-0.935-0.735-2.138-1.203-2.205-1.203-0.267-0.134-0.534 0-0.668 0.2l-1.203 1.537-1.136-1.537c-0.2-0.267-0.534-0.334-0.802-0.134s-0.334 0.534-0.134 0.802l1.603 2.205c0.134 0.134 0.267 0.267 0.468 0.267s0.334-0.067 0.468-0.267l1.336-1.804c0.401 0.2 1.002 0.468 1.47 0.868 0.2 0.134 0.267 0.2 0.468 0.401 0.267 0.401 0.134 2.873-0.134 4.008-0.267 1.002-1.069 2.472-1.136 2.472 0 0 0 0 0 0.067-0.2 0.468-0.334 0.935-0.401 1.403l-1.069 10.823c0 0.067-0.067 0.067-0.067 0.067h-1.937c-0.067 0-0.067 0-0.067-0.067l-1.136-10.823c-0.067-0.468-0.2-0.935-0.401-1.403 0-0.334-0.401-0.468-0.668-0.334v0z"></path>
<path class="path4" fill="#9a88c0" d="M21.979 8.618h0.134c0.735 0 1.403-0.267 1.871-0.802 1.002-1.069 0.868-2.939 0.802-3.14-0.067-2.004-1.47-2.739-2.672-2.739h-0.134c-1.136 0-2.539 0.735-2.672 2.739 0 0.2-0.134 2.071 0.802 3.14 0.468 0.534 1.136 0.802 1.871 0.802v0zM20.509 4.743v0c0.067-1.47 0.935-1.67 1.47-1.67h0.067c0.534 0 1.403 0.2 1.47 1.603v0c0.067 0.401 0 1.67-0.534 2.271-0.267 0.267-0.601 0.401-1.002 0.401v0c-0.468 0-0.802-0.134-1.002-0.401-0.534-0.534-0.534-1.737-0.468-2.205v0z"></path>
<path class="path5" fill="#f98c67" d="M8.685 9.82c-0.868 0.868-0.401 4.543-0.134 5.411 0.334 1.136 1.136 2.672 1.269 2.873 0.134 0.334 0.267 0.735 0.267 1.136l1.203 11.557c0.067 0.668 0.601 1.203 1.336 1.203h2.004c0.668 0 1.203-0.534 1.336-1.203l1.203-11.557c0.067-0.401 0.134-0.735 0.267-1.136 0.134-0.2 0.935-1.737 1.269-2.873 0.2-0.868 0.735-4.543-0.134-5.411-0.267-0.267-0.401-0.401-0.668-0.601-1.002-0.735-2.271-1.269-2.338-1.269-0.267-0.134-0.534 0-0.668 0.2l-1.269 1.67-1.203-1.67c-0.134-0.2-0.468-0.267-0.668-0.2-0.067 0-1.269 0.534-2.338 1.269-0.334 0.267-0.534 0.401-0.735 0.601v0zM9.553 10.689c0.2-0.2 0.334-0.267 0.534-0.468 0.534-0.401 1.203-0.735 1.603-0.935l1.403 1.937c0.134 0.134 0.267 0.267 0.468 0.267s0.334-0.067 0.468-0.267l1.403-1.937c0.401 0.2 1.069 0.534 1.603 0.935 0.2 0.134 0.334 0.267 0.534 0.468 0.267 0.468 0.2 3.073-0.134 4.276-0.267 1.069-1.136 2.672-1.203 2.672 0 0 0 0 0 0.067-0.2 0.468-0.334 1.002-0.401 1.47l-1.136 11.491c0 0.067-0.067 0.134-0.134 0.134h-2.004c-0.067 0-0.134-0.067-0.134-0.134l-1.203-11.557c-0.067-0.534-0.2-1.002-0.401-1.47 0 0 0 0 0-0.067 0 0-0.868-1.603-1.203-2.672-0.267-1.136-0.401-3.808-0.067-4.209v0z"></path>
<path class="path6" fill="#f98c67" d="M13.495 7.081h0.134c0.802 0 1.47-0.267 1.937-0.868 1.002-1.136 0.868-3.073 0.868-3.34-0.067-2.071-1.537-2.873-2.806-2.873h-0.134c-1.203 0-2.672 0.735-2.806 2.873 0 0.267-0.2 2.205 0.868 3.34 0.468 0.534 1.136 0.868 1.937 0.868v0zM11.891 3.006v0c0.067-1.603 1.136-1.804 1.603-1.804h0.134c0.468 0 1.537 0.2 1.603 1.737v0c0.067 0.468 0.067 1.737-0.534 2.472-0.267 0.267-0.601 0.468-1.136 0.468v0c-0.468 0-0.868-0.134-1.136-0.468-0.601-0.668-0.601-1.937-0.534-2.405v0z"></path>
</symbol>
<symbol id="icon-onsite" viewBox="0 0 36 32">
<title>onsite</title>
<path class="path1" fill="#f88b67" d="M12.939 23.374c0.139 0.209 0.348 0.348 0.557 0.348 0.139 0 0.209 0 0.348-0.070l2.713-1.6c0.417 0.348 0.974 0.626 1.53 0.626 0.626 0 1.113-0.209 1.53-0.626l2.713 1.6c0.070 0.070 0.209 0.070 0.348 0.070 0.209 0 0.487-0.139 0.557-0.348 0.209-0.348 0.070-0.765-0.278-0.904l-2.574-1.6c0.070-0.139 0.070-0.348 0.070-0.487 0-1.043-0.696-1.878-1.6-2.157v-3.13c0-0.348-0.278-0.696-0.696-0.696-0.348 0-0.696 0.278-0.696 0.696v3.13c-0.904 0.278-1.6 1.183-1.6 2.157 0 0.209 0 0.348 0.070 0.487l-2.713 1.6c-0.348 0.139-0.487 0.557-0.278 0.904v0zM18.157 19.409c0.557 0 0.974 0.417 0.974 0.974s-0.417 0.974-0.974 0.974c-0.557 0-0.974-0.417-0.974-0.974s0.417-0.974 0.974-0.974v0z"></path>
<path class="path2" fill="#9a87c0" d="M11.617 15.235c0.348 0 0.696-0.278 0.696-0.696v-1.809c0-0.209 0.070-0.348 0.209-0.487 1.6-1.322 3.339-2.157 3.617-2.365 0.278-0.139 0.417-0.417 0.417-0.696v-2.504c0-0.209-0.139-0.417-0.278-0.557-0.139-0.070-0.209-0.278-0.209-0.417v-2.643c0-0.974 0.765-1.739 1.739-1.739h0.557c0.974 0 1.739 0.765 1.739 1.739v2.643c0 0.209-0.070 0.348-0.209 0.417-0.209 0.139-0.278 0.348-0.278 0.557v2.574c0 0.278 0.209 0.557 0.417 0.696 0.348 0.139 2.087 1.043 3.617 2.365 0.139 0.139 0.209 0.278 0.209 0.487v1.809c0 0.348 0.278 0.696 0.696 0.696s0.696-0.278 0.696-0.696v-1.809c0-0.557-0.278-1.113-0.696-1.53-1.391-1.183-2.922-2.017-3.617-2.365v-1.878c0.348-0.348 0.557-0.835 0.557-1.322v-2.643c0-1.67-1.391-3.061-3.061-3.061h-0.557c-1.67 0-3.061 1.391-3.061 3.061v2.643c0 0.487 0.209 0.974 0.557 1.322v1.878c-0.696 0.348-2.157 1.183-3.617 2.365-0.417 0.348-0.696 0.904-0.696 1.53v1.809c-0.070 0.348 0.209 0.626 0.557 0.626v0z"></path>
<path class="path3" fill="#9a87c0" d="M26.226 25.6c-0.696 0.348-2.157 1.183-3.617 2.365-0.417 0.348-0.696 0.904-0.696 1.53v1.809c0 0.348 0.278 0.696 0.696 0.696 0.348 0 0.696-0.278 0.696-0.696v-1.809c0-0.209 0.070-0.348 0.209-0.487 1.6-1.322 3.339-2.157 3.617-2.365 0.278-0.139 0.417-0.417 0.417-0.696v-2.574c0-0.209-0.139-0.417-0.278-0.557-0.139-0.070-0.209-0.278-0.209-0.417v-2.643c0-0.974 0.765-1.739 1.739-1.739h0.557c0.974 0 1.739 0.765 1.739 1.739v2.643c0 0.209-0.070 0.348-0.209 0.417-0.209 0.139-0.278 0.348-0.278 0.557v2.574c0 0.278 0.139 0.557 0.417 0.696 0.348 0.139 2.087 1.043 3.617 2.365 0.139 0.139 0.209 0.278 0.209 0.487v1.809c0 0.348 0.278 0.696 0.696 0.696 0.348 0 0.696-0.278 0.696-0.696v-1.809c0-0.557-0.278-1.113-0.696-1.53-1.391-1.183-2.922-2.017-3.617-2.365v-1.878c0.348-0.348 0.557-0.835 0.557-1.322v-2.643c0-1.67-1.391-3.061-3.061-3.061h-0.557c-1.67 0-3.061 1.391-3.061 3.061v2.643c0 0.487 0.209 0.974 0.557 1.322v1.878z"></path>
<path class="path4" fill="#9a87c0" d="M0.696 31.93c0.348 0 0.696-0.278 0.696-0.696v-1.809c0-0.209 0.070-0.348 0.209-0.487 1.6-1.322 3.339-2.157 3.617-2.365 0.278-0.139 0.417-0.417 0.417-0.696v-2.574c0-0.209-0.139-0.417-0.278-0.557-0.139-0.070-0.209-0.278-0.209-0.417v-2.643c0-0.974 0.765-1.739 1.739-1.739h0.557c0.974 0 1.739 0.765 1.739 1.739v2.643c0 0.209-0.070 0.348-0.209 0.417-0.209 0.139-0.278 0.348-0.278 0.557v2.574c0 0.278 0.139 0.557 0.417 0.696 0.348 0.139 2.087 1.043 3.617 2.365 0.139 0.139 0.209 0.278 0.209 0.487v1.878c0 0.348 0.278 0.696 0.696 0.696 0.348 0 0.696-0.278 0.696-0.696v-1.809c0-0.557-0.278-1.113-0.696-1.53-1.391-1.183-2.922-2.017-3.617-2.365v-1.878c0.348-0.348 0.557-0.835 0.557-1.322v-2.643c0-1.67-1.391-3.061-3.061-3.061h-0.696c-1.67 0-3.061 1.391-3.061 3.061v2.643c0 0.487 0.209 0.974 0.557 1.322v1.878c-0.696 0.348-2.157 1.183-3.617 2.365-0.417 0.348-0.696 0.904-0.696 1.53v1.809c0 0.348 0.278 0.626 0.696 0.626v0z"></path>
</symbol>
<symbol id="icon-services" viewBox="0 0 71 32">
<title>services</title>
<path class="path1" fill="#f68c68" d="M35.708 15.382c-3.159 0-5.768 2.609-5.768 5.768s2.609 5.768 5.768 5.768c3.159 0 5.768-2.609 5.768-5.768s-2.609-5.768-5.768-5.768v0zM35.708 24.584c-1.923 0-3.571-1.511-3.571-3.571s1.511-3.571 3.571-3.571c1.923 0 3.571 1.511 3.571 3.571s-1.648 3.571-3.571 3.571v0z"></path>
<path class="path2" fill="#9988c0" d="M41.888 13.322c-1.785-1.373-3.983-2.197-6.18-2.197s-4.532 0.824-6.18 2.197c-0.549 0.412-0.549 1.099-0.137 1.648s1.099 0.549 1.648 0.137c1.373-1.099 3.021-1.648 4.807-1.648s3.433 0.549 4.807 1.648c0.275 0.137 0.412 0.275 0.687 0.275s0.687-0.137 0.824-0.412c0.275-0.549 0.275-1.236-0.275-1.648v0z"></path>
<path class="path3" fill="#9988c0" d="M70.73 15.245c-0.549-0.275-1.236-0.137-1.511 0.412l-1.511 2.472h-19.502c-0.275-3.159-1.648-5.906-3.846-7.966h2.060c0.687 0 1.099-0.549 1.099-1.099 0-0.687-0.549-1.099-1.099-1.099h-5.219c-1.373-0.687-2.747-1.099-4.395-1.236v-5.494c0-0.687-0.549-1.099-1.099-1.099-0.687 0-1.099 0.549-1.099 1.099v5.494c-1.648 0.137-3.021 0.549-4.395 1.236h-5.219c-0.687 0-1.099 0.549-1.099 1.099 0 0.687 0.549 1.099 1.099 1.099h2.060c-2.197 2.060-3.571 4.807-3.846 7.966h-19.64l-1.511-2.472c-0.275-0.549-0.961-0.687-1.511-0.412s-0.687 0.961-0.412 1.511l1.785 3.021c0.137 0.275 0.549 0.549 0.961 0.549h9.202c-0.961 1.099-1.511 2.609-1.511 4.12 0 3.571 2.884 6.455 6.455 6.455s6.455-2.884 6.455-6.455c0-1.648-0.549-3.021-1.511-4.12h1.236c0.549 6.455 6.043 11.399 12.498 11.399 6.592 0 11.948-5.082 12.498-11.399h1.236c-0.961 1.099-1.511 2.609-1.511 4.12 0 3.571 2.884 6.455 6.455 6.455s6.455-2.884 6.455-6.455c0-1.648-0.549-3.021-1.511-4.12h9.202c0.412 0 0.824-0.275 0.961-0.549l1.785-3.021c0.137-0.412 0-1.099-0.549-1.511v0zM21.15 24.584c0 2.335-1.923 4.12-4.12 4.12-2.335 0-4.12-1.923-4.12-4.12 0-2.335 1.923-4.12 4.12-4.12 2.335-0.137 4.12 1.785 4.12 4.12v0zM35.708 29.528c-5.631 0-10.3-4.67-10.3-10.3s4.67-10.3 10.3-10.3 10.3 4.67 10.3 10.3-4.67 10.3-10.3 10.3v0zM58.506 24.584c0 2.335-1.923 4.12-4.12 4.12-2.335 0-4.12-1.923-4.12-4.12 0-2.335 1.923-4.12 4.12-4.12 2.197-0.137 4.12 1.785 4.12 4.12v0z"></path>
<path class="path4" fill="#f68c68" d="M17.030 27.742c1.785 0 3.296-1.511 3.296-3.296s-1.511-3.296-3.296-3.296c-1.785 0-3.296 1.511-3.296 3.296 0 1.923 1.511 3.296 3.296 3.296v0zM17.030 23.485c0.549 0 0.961 0.412 0.961 0.961s-0.412 0.961-0.961 0.961c-0.549 0-0.961-0.412-0.961-0.961 0-0.412 0.412-0.961 0.961-0.961v0z"></path>
<path class="path5" fill="#f68c68" d="M54.249 27.742c1.785 0 3.296-1.511 3.296-3.296s-1.511-3.296-3.296-3.296c-1.785 0-3.296 1.511-3.296 3.296 0.137 1.923 1.511 3.296 3.296 3.296v0zM54.249 23.485c0.549 0 0.961 0.412 0.961 0.961s-0.412 0.961-0.961 0.961c-0.549 0-0.961-0.412-0.961-0.961 0-0.412 0.412-0.961 0.961-0.961v0z"></path>
</symbol>
<symbol id="icon-temporary" viewBox="0 0 36 32">
<title>temporary</title>
<path class="path1" fill="#9a88c0" d="M36.312 23.754v-1.891c0-0.378-0.151-0.756-0.454-0.983-1.664-1.362-3.48-2.345-3.858-2.496-0.076 0-0.076-0.076-0.076-0.076v-2.648c0.303-0.227 0.53-0.605 0.53-1.059v-2.723c0-1.362-1.135-2.496-2.496-2.496h-0.605c-1.362 0-2.496 1.135-2.496 2.496v2.723c0 0.454 0.227 0.832 0.53 1.059v2.648c0 0.076 0 0.076-0.076 0.076-0.378 0.151-2.194 1.135-3.858 2.496-0.303 0.227-0.454 0.605-0.454 0.983v1.891z"></path>
<path class="path2" fill="#f98c67" d="M7.792 5.749c2.723-2.799 6.355-4.388 10.288-4.388 3.858-0.076 7.489 1.437 10.288 4.085h-1.513c-0.378 0-0.681 0.303-0.681 0.681s0.303 0.681 0.681 0.681v0h3.177c0.378 0 0.681-0.303 0.681-0.681v-3.177c0-0.378-0.303-0.681-0.681-0.681s-0.681 0.303-0.681 0.681v1.513c-3.026-2.95-7.035-4.539-11.272-4.463-4.312 0.076-8.246 1.74-11.272 4.842-0.227 0.227-0.227 0.681 0 0.908 0.303 0.303 0.756 0.303 0.983 0v0z"></path>
<path class="path3" fill="#f98c67" d="M7.187 29.050v-1.513c3.026 2.875 6.96 4.463 11.121 4.463h0.151c4.236-0.076 8.246-1.74 11.272-4.842 0.227-0.303 0.227-0.681 0-0.983-0.303-0.227-0.681-0.227-0.983 0-2.723 2.799-6.355 4.388-10.288 4.388-3.858 0.076-7.489-1.437-10.288-4.085h1.513c0.378 0 0.681-0.303 0.681-0.681s-0.303-0.681-0.681-0.681v0l-3.177 0.076c-0.151 0-0.378 0.076-0.454 0.227-0.151 0.151-0.227 0.303-0.227 0.454v3.177c0 0.378 0.303 0.681 0.681 0.681v0c0.378 0 0.681-0.303 0.681-0.681v0z"></path>
<path class="path4" fill="#9a88c0" d="M5.825 15.66c0-0.227-0.151-0.454-0.303-0.53s-0.227-0.303-0.227-0.454v-2.723c0-0.983 0.756-1.74 1.74-1.74h0.605c0.983 0 1.74 0.756 1.74 1.74v2.723c0 0.151-0.076 0.378-0.227 0.454-0.151 0.151-0.303 0.303-0.303 0.53v2.648c0 0.303 0.151 0.605 0.454 0.756 0.378 0.151 2.118 1.059 3.783 2.421 0.151 0.151 0.227 0.303 0.227 0.53v1.891c0 0.378 0.303 0.681 0.681 0.681s0.681-0.303 0.681-0.681v-1.891c0-0.605-0.227-1.135-0.757-1.513-1.437-1.21-3.026-2.043-3.707-2.421v-1.967c0.378-0.378 0.53-0.832 0.53-1.362v-2.723c0-1.74-1.437-3.177-3.177-3.177h-0.53c-1.74 0-3.177 1.437-3.177 3.177v2.723c0 0.53 0.227 0.983 0.53 1.362v1.967c-0.681 0.378-2.269 1.21-3.707 2.421-0.454 0.378-0.756 0.908-0.756 1.513v1.891c0 0.378 0.303 0.681 0.681 0.681s0.681-0.303 0.681-0.681v-1.891c0-0.227 0.076-0.378 0.227-0.53 1.664-1.362 3.404-2.27 3.783-2.421 0.303-0.151 0.454-0.378 0.454-0.756l0.076-2.648z"></path>
</symbol>
</defs>
</svg>
