<svg style="position: absolute; width: 0; height: 0; overflow: hidden;" version="1.1" xmlns="http://www.w3.org/2000/svg" xmlns:xlink="http://www.w3.org/1999/xlink">
<defs>
<symbol id="icon-navigate" viewBox="0 0 32 32">
<title>navigate</title>
<path class="path1" d="M16 25.12c-0.573 0-1.147-0.219-1.584-0.656l-13.759-13.759c-0.875-0.875-0.875-2.294 0-3.169s2.294-0.875 3.169 0l12.174 12.175 12.174-12.175c0.875-0.875 2.294-0.875 3.169 0s0.876 2.294 0 3.169l-13.759 13.759c-0.437 0.437-1.011 0.656-1.584 0.656z"></path>
</symbol>
<symbol id="icon-clients" viewBox="0 0 32 32">
<title>clients</title>
<path class="path1" fill="#f98c67" d="M16.062 19.446c-3.138 0-5.785-2.338-6.215-5.354-0.738-0.308-1.292-1.046-1.292-1.846v-0.369c0-0.8 0.492-1.538 1.231-1.846v-1.108c0-2.4 1.908-4.308 4.308-4.308h7.631c0.308 0 0.554 0.246 0.554 0.554v4.862c0.677 0.308 1.169 1.046 1.169 1.785v0.369c0 0.8-0.492 1.538-1.169 1.846-0.492 3.077-3.138 5.415-6.215 5.415zM14.092 5.723c-1.723 0-3.2 1.415-3.2 3.2v1.538c0 0.308-0.185 0.554-0.492 0.554-0.431 0.062-0.738 0.431-0.738 0.862v0.369c0 0.431 0.308 0.8 0.738 0.862 0.246 0.062 0.492 0.246 0.492 0.554 0.185 2.646 2.462 4.738 5.108 4.738s4.923-2.092 5.108-4.738c0-0.246 0.185-0.492 0.492-0.492 0.369-0.062 0.677-0.431 0.677-0.862v-0.369c0-0.431-0.308-0.738-0.677-0.8-0.246-0.062-0.492-0.308-0.492-0.554v-4.862h-7.015z"></path>
<path class="path2" fill="#f98c67" d="M5.723 28.062c-0.308 0-0.554-0.246-0.554-0.554v-2.892c0-1.908 1.662-3.569 3.631-3.569h2.831l1.169-2.4c0.123-0.308 0.492-0.431 0.738-0.246 0.308 0.123 0.431 0.492 0.246 0.738l-1.354 2.708c-0.123 0.185-0.308 0.308-0.492 0.308h-3.2c-1.354 0-2.523 1.108-2.523 2.4v2.892c0.062 0.369-0.185 0.615-0.492 0.615zM26.277 28c-0.308 0-0.554-0.246-0.554-0.554v-2.892c0-1.292-1.046-2.338-2.4-2.338h-3.569c-0.246 0-0.431-0.123-0.492-0.308l-1.354-2.708c-0.123-0.308 0-0.615 0.246-0.738 0.308-0.123 0.615 0 0.738 0.246l1.169 2.4h3.2c1.969 0 3.508 1.538 3.508 3.508v2.892c0.062 0.246-0.185 0.492-0.492 0.492z"></path>
<path class="path3" fill="#f98c67" d="M30.031 7.938c-0.062 0-0.185 0-0.246-0.062l-1.723-0.923-1.723 0.923c-0.185 0.123-0.431 0.062-0.615-0.062s-0.246-0.369-0.246-0.554l0.308-1.969-1.415-1.354c-0.185-0.123-0.185-0.369-0.123-0.615 0.062-0.185 0.246-0.369 0.492-0.369l1.969-0.308 0.862-1.785c0.185-0.369 0.862-0.369 1.046 0l0.862 1.785 1.969 0.308c0.185 0.062 0.369 0.185 0.492 0.369 0.062 0.185 0 0.431-0.123 0.615l-1.415 1.354 0.308 1.846c0 0.062 0.062 0.123 0.062 0.185-0.185 0.308-0.431 0.615-0.738 0.615 0 0 0 0 0 0zM25.969 3.938l0.8 0.8c0.123 0.123 0.185 0.308 0.185 0.492l-0.185 1.108 0.985-0.492c0.185-0.062 0.369-0.062 0.554 0l0.985 0.492-0.185-1.108c-0.062-0.185 0-0.369 0.185-0.492l0.8-0.8-1.169-0.185c-0.185 0-0.369-0.123-0.431-0.308l-0.492-0.985-0.492 0.985c-0.062 0.185-0.246 0.308-0.431 0.308l-1.108 0.185z"></path>
<path class="path4" fill="#9a88c0" d="M16 32c-8.8 0-16-7.2-16-16s7.2-16 16-16c0.308 0 0.554 0.246 0.554 0.554s-0.246 0.615-0.554 0.615c-8.185 0-14.831 6.646-14.831 14.831s6.646 14.831 14.831 14.831c8.185 0 14.831-6.646 14.831-14.831 0-0.308 0.246-0.554 0.554-0.554s0.554 0.246 0.554 0.554c0.062 8.8-7.138 16-15.938 16z"></path>
</symbol>
<symbol id="icon-job-seeker" viewBox="0 0 32 32">
<title>job-seeker</title>
<path class="path1" fill="#f98c67" d="M14.908 6.737c-2.495 2.495-2.495 6.55 0 9.045 1.248 1.248 2.869 1.871 4.554 1.871 1.622 0 3.306-0.624 4.554-1.871 2.495-2.495 2.495-6.55 0-9.045-2.558-2.495-6.612-2.495-9.107 0v0zM24.265 14.097v-5.676c0.998 1.747 0.998 3.93 0 5.676v0zM23.454 7.361v7.797c0 0 0 0-0.062 0.062-2.183 2.183-5.739 2.183-7.922 0-0.312-0.312-0.624-0.686-0.811-1.060h0.499c0.249 0 0.437-0.187 0.437-0.437s-0.187-0.437-0.437-0.437h-0.873c-0.312-0.811-0.437-1.684-0.374-2.558h3.244c0.25 0 0.437-0.187 0.437-0.437s-0.187-0.437-0.437-0.437h-3.119c0.187-0.936 0.686-1.809 1.372-2.558h5.24c0.25 0 0.437-0.187 0.437-0.437s-0.187-0.437-0.437-0.437h-4.304c0.936-0.624 1.996-0.936 3.119-0.936 1.435 0.187 2.869 0.686 3.992 1.871-0.062-0.062-0.062-0.062 0 0v0z"></path>
<path class="path2" fill="#9a88c0" d="M32 21.708l-5.926-5.926c0.936-1.31 1.372-2.869 1.372-4.491 0-2.121-0.811-4.179-2.37-5.676-0.624-0.624-1.31-1.123-2.058-1.497v-3.68c0-0.249-0.187-0.437-0.437-0.437h-18.027c-0.062 0-0.187 0.062-0.25 0.125l-4.179 4.179c-0.062 0.062-0.125 0.187-0.125 0.25v27.010c0 0.25 0.187 0.437 0.437 0.437h22.207c0.25 0 0.437-0.187 0.437-0.437v-13.162c0.312-0.187 0.624-0.312 0.936-0.561l5.988 5.988c0.312 0.312 0.686 0.437 1.060 0.437s0.749-0.125 1.060-0.437c0.249-0.25 0.437-0.624 0.437-1.060-0.125-0.374-0.249-0.749-0.561-1.060v0zM26.635 11.228c0 1.934-0.749 3.743-2.121 5.053-2.807 2.807-7.361 2.807-10.168 0-1.372-1.372-2.121-3.181-2.121-5.053s0.749-3.743 2.121-5.053c1.372-1.372 3.244-2.121 5.053-2.121s3.68 0.686 5.053 2.121c1.435 1.372 2.183 3.181 2.183 5.053v0zM4.179 1.435v2.745h-2.745l2.745-2.745zM22.207 31.189h-21.396v-26.199h3.743c0.25 0 0.437-0.187 0.437-0.437v-3.743h17.216v2.932c-2.869-1.060-6.175-0.437-8.421 1.871-0.499 0.499-0.936 1.060-1.31 1.684h-3.867c-0.249 0-0.437 0.187-0.437 0.437s0.187 0.437 0.437 0.437h3.431c-0.249 0.561-0.374 1.123-0.499 1.684h-7.548c-0.249 0-0.437 0.187-0.437 0.437 0 0.125 0.187 0.312 0.437 0.312h7.485c0 0.187 0 0.437 0 0.686 0 0.374 0 0.686 0.062 1.060h-3.867c-0.25 0-0.437 0.187-0.437 0.437s0.187 0.437 0.437 0.437h3.992c0.125 0.561 0.312 1.123 0.624 1.684h-8.296c-0.249 0-0.437 0.187-0.437 0.437 0 0.062 0.187 0.249 0.437 0.249h8.733c0.312 0.437 0.624 0.873 1.060 1.31 0.125 0.125 0.249 0.25 0.437 0.374h-1.435c-0.249 0-0.437 0.187-0.437 0.437s0.187 0.437 0.437 0.437h2.558c1.248 0.749 2.682 1.123 4.117 1.123 0.936 0 1.871-0.187 2.745-0.499v12.413zM25.076 16.904c0.187-0.187 0.312-0.312 0.437-0.499l4.242 4.242-0.936 0.936-4.242-4.242c0.187-0.125 0.374-0.25 0.499-0.437v0zM31.439 23.205c-0.25 0.25-0.686 0.25-0.936 0l-1.060-1.060 0.936-0.936 1.060 1.060c0.125 0.125 0.187 0.312 0.187 0.437 0 0.25-0.062 0.374-0.187 0.499v0z"></path>
<path class="path3" fill="#f98c67" d="M3.992 8.109h3.306c0.25 0 0.437-0.187 0.437-0.437s-0.187-0.437-0.437-0.437h-3.306c-0.249 0-0.437 0.187-0.437 0.437s0.187 0.437 0.437 0.437v0z"></path>
<path class="path4" fill="#f98c67" d="M3.992 13.099h2.246c0.25 0 0.437-0.187 0.437-0.437s-0.187-0.437-0.437-0.437h-2.246c-0.249 0-0.437 0.187-0.437 0.437s0.187 0.437 0.437 0.437v0z"></path>
<path class="path5" fill="#f98c67" d="M3.992 18.090h7.61c0.249 0 0.437-0.187 0.437-0.437s-0.187-0.437-0.437-0.437h-7.61c-0.249 0-0.437 0.187-0.437 0.437s0.187 0.437 0.437 0.437v0z"></path>
<path class="path6" fill="#f98c67" d="M19.025 19.774h-11.914c-0.25 0-0.437 0.187-0.437 0.437s0.187 0.437 0.437 0.437h11.914c0.25 0 0.437-0.187 0.437-0.437s-0.187-0.437-0.437-0.437v0z"></path>
<path class="path7" fill="#9a88c0" d="M3.992 20.647h1.809c0.25 0 0.437-0.187 0.437-0.437s-0.187-0.437-0.437-0.437h-1.809c-0.249 0-0.437 0.187-0.437 0.437s0.187 0.437 0.437 0.437v0z"></path>
<path class="path8" fill="#f98c67" d="M19.025 24.826h-7.735c-0.249 0-0.437 0.187-0.437 0.437s0.187 0.437 0.437 0.437h7.797c0.25 0 0.437-0.187 0.437-0.437-0.062-0.25-0.25-0.437-0.499-0.437v0z"></path>
<path class="path9" fill="#9a88c0" d="M3.992 25.637h5.988c0.249 0 0.437-0.187 0.437-0.437s-0.187-0.437-0.437-0.437h-5.988c-0.249 0-0.437 0.187-0.437 0.437s0.187 0.437 0.437 0.437v0z"></path>
<path class="path10" fill="#f98c67" d="M19.025 27.322h-4.429c-0.249 0-0.437 0.187-0.437 0.437s0.187 0.437 0.437 0.437h4.429c0.25 0 0.437-0.187 0.437-0.437s-0.187-0.437-0.437-0.437v0z"></path>
<path class="path11" fill="#9a88c0" d="M13.411 27.322h-7.361c-0.25 0-0.437 0.187-0.437 0.437s0.187 0.437 0.437 0.437h7.361c0.249 0 0.437-0.187 0.437-0.437s-0.187-0.437-0.437-0.437v0z"></path>
<path class="path12" fill="#9a88c0" d="M4.803 27.322h-0.811c-0.249 0-0.437 0.187-0.437 0.437s0.187 0.437 0.437 0.437h0.811c0.25 0 0.437-0.187 0.437-0.437s-0.187-0.437-0.437-0.437v0z"></path>
<path class="path13" fill="#9a88c0" d="M19.025 22.331h-2.495c-0.25 0-0.437 0.187-0.437 0.437s0.187 0.437 0.437 0.437h2.495c0.25 0 0.437-0.187 0.437-0.437s-0.187-0.437-0.437-0.437v0z"></path>
<path class="path14" fill="#f98c67" d="M3.992 23.142h11.103c0.249 0 0.437-0.187 0.437-0.437s-0.187-0.437-0.437-0.437h-11.103c-0.249 0-0.437 0.187-0.437 0.437s0.187 0.437 0.437 0.437v0z"></path>
<path class="path15" fill="#9a88c0" d="M20.647 9.98h-1.435c-0.25 0-0.437 0.187-0.437 0.437s0.187 0.437 0.437 0.437h1.435c0.25 0 0.437-0.187 0.437-0.437-0.062-0.249-0.25-0.437-0.437-0.437v0z"></path>
<path class="path16" fill="#9a88c0" d="M20.647 13.349h-3.805c-0.25 0-0.437 0.187-0.437 0.437s0.187 0.437 0.437 0.437h3.805c0.25 0 0.437-0.187 0.437-0.437-0.062-0.312-0.25-0.437-0.437-0.437v0z"></path>
</symbol>
</defs>
</svg>
