<svg style="position: absolute; width: 0; height: 0; overflow: hidden;" version="1.1" xmlns="http://www.w3.org/2000/svg" xmlns:xlink="http://www.w3.org/1999/xlink">
<defs>
<symbol id="icon-replay" viewBox="0 0 32 32">
<title>replay</title>
<path class="path1" d="M31.054 14.626c-1.929-4.798-7.137-7.196-15.625-7.196h-4v-4.571c0-0.31-0.113-0.578-0.339-0.804s-0.494-0.339-0.804-0.339c-0.31 0-0.578 0.113-0.804 0.339l-9.143 9.143c-0.226 0.226-0.339 0.494-0.339 0.804s0.113 0.577 0.339 0.804l9.143 9.143c0.226 0.226 0.494 0.34 0.804 0.34s0.577-0.113 0.804-0.34c0.226-0.226 0.339-0.494 0.339-0.804v-4.572h4c1.166 0 2.211 0.036 3.133 0.107s1.84 0.199 2.75 0.384c0.911 0.184 1.703 0.437 2.375 0.759s1.301 0.735 1.884 1.241c0.583 0.506 1.060 1.107 1.429 1.804s0.658 1.521 0.866 2.473c0.208 0.953 0.313 2.030 0.313 3.232 0 0.655-0.030 1.387-0.089 2.196 0 0.071-0.015 0.211-0.045 0.42s-0.045 0.366-0.045 0.473c0 0.178 0.051 0.327 0.152 0.446s0.241 0.178 0.42 0.178c0.191 0 0.357-0.101 0.5-0.304 0.083-0.107 0.16-0.238 0.232-0.393s0.152-0.333 0.241-0.535c0.090-0.202 0.152-0.345 0.188-0.428 1.512-3.392 2.268-6.077 2.268-8.053-0-2.369-0.315-4.351-0.946-5.946z"></path>
</symbol>
<symbol id="icon-email" viewBox="0 0 45 32">
<title>email</title>
<path class="path1" d="M22.404 22.404l-5.526-4.854-15.869 13.592c0.566 0.532 1.331 0.859 2.171 0.859 0.011 0 0.022-0 0.033-0h38.383c0.009 0 0.021 0 0.032 0 0.841 0 1.605-0.327 2.173-0.861l-15.871-13.59z"></path>
<path class="path2" d="M43.799 0.859c-0.561-0.532-1.321-0.859-2.157-0.859-0.016 0-0.033 0-0.049 0l-38.383-0c-0.005-0-0.011-0-0.017-0-0.845 0-1.614 0.327-2.188 0.861l21.398 18.332z"></path>
<path class="path3" d="M0 2.8v26.586l15.459-13.144-15.459-13.442z"></path>
<path class="path4" d="M29.349 16.243l15.459 13.144v-26.586l-15.459 13.442z"></path>
</symbol>
<symbol id="icon-like" viewBox="0 0 34 32">
<title>like</title>
<path class="path1" fill="#6864ad" d="M17.563 0.54l4.263 10.089 10.913 0.938c0.444 0.033 0.791 0.401 0.791 0.85 0 0.263-0.119 0.498-0.306 0.655l-8.243 7.191 2.472 10.686c0.018 0.065 0.028 0.139 0.028 0.216 0 0.471-0.382 0.853-0.853 0.853-0.168 0-0.325-0.049-0.458-0.133l-9.403-5.682-9.407 5.684c-0.129 0.082-0.286 0.131-0.454 0.131-0.471 0-0.853-0.382-0.853-0.853 0-0.077 0.010-0.151 0.029-0.222l2.443-10.68-8.242-7.19c-0.189-0.158-0.308-0.393-0.308-0.656 0-0.449 0.347-0.817 0.788-0.85l10.916-0.938 4.32-10.089c0.127-0.322 0.435-0.546 0.796-0.546s0.669 0.224 0.794 0.541z"></path>
</symbol>
<symbol id="icon-facebook" viewBox="0 0 32 32">
<title>facebook</title>
<path class="path1" fill="#6864ad" d="M11.227 6.187v4.48h-3.227v5.333h3.227v16h6.64v-16h4.453s0.427-2.667 0.613-5.333h-5.040v-3.76c0.135-0.7 0.719-1.23 1.435-1.28l3.605-0v-5.627h-4.907c-6.96 0-6.8 5.333-6.8 6.187z"></path>
</symbol>
<symbol id="icon-linkedin" viewBox="0 0 32 32">
<title>linkedin</title>
<path class="path1" fill="#6864ad" d="M32 20v11.84h-6.853v-10.96c0-2.667-0.987-4.667-3.467-4.667-1.617 0.011-2.991 1.042-3.512 2.48-0.163 0.472-0.252 0.985-0.252 1.519 0 0.066 0.001 0.131 0.004 0.197l-0 11.511h-6.853s0-18.667 0-20.64h6.853v2.933c1.196-2.056 3.388-3.416 5.898-3.416 0.064 0 0.128 0.001 0.191 0.003 4.497-0 7.991 2.96 7.991 9.28zM3.893 1.333c-0.092-0.008-0.2-0.013-0.308-0.013-1.974 0-3.573 1.6-3.573 3.573s1.6 3.573 3.573 3.573c0.109 0 0.216-0.005 0.322-0.014l-0.014 0.001c0.092 0.008 0.2 0.013 0.308 0.013 1.974 0 3.573-1.6 3.573-3.573s-1.6-3.573-3.573-3.573c-0.109 0-0.216 0.005-0.322 0.014zM0.4 31.92h6.853v-20.64h-6.853z"></path>
</symbol>
<symbol id="icon-more" viewBox="0 0 32 32">
<title>more</title>
<path class="path1" fill="#6965ae" d="M7.733 15.867c0 2.135-1.731 3.867-3.867 3.867s-3.867-1.731-3.867-3.867c0-2.136 1.731-3.867 3.867-3.867s3.867 1.731 3.867 3.867z"></path>
<path class="path2" fill="#6965ae" d="M32 15.867c0 2.135-1.731 3.867-3.867 3.867s-3.867-1.731-3.867-3.867c0-2.136 1.731-3.867 3.867-3.867s3.867 1.731 3.867 3.867z"></path>
<path class="path3" fill="#6965ae" d="M19.867 15.867c0 2.135-1.731 3.867-3.867 3.867s-3.867-1.731-3.867-3.867c0-2.136 1.731-3.867 3.867-3.867s3.867 1.731 3.867 3.867z"></path>
</symbol>
<symbol id="icon-reddit" viewBox="0 0 32 32">
<title>reddit</title>
<path class="path1" fill="#6965ae" d="M32 14.16c-0.008-2.218-1.808-4.012-4.027-4.012-1.102 0-2.1 0.442-2.827 1.159-2.352-1.483-5.191-2.402-8.238-2.506-0.024-2.428 1.944-4.394 4.372-4.394 0.331 0 0.653 0.036 0.963 0.106l0.157-0.005s0 0 0 0.133c-0 0.009-0 0.019-0 0.030 0 1.856 1.504 3.36 3.36 3.36s3.36-1.504 3.36-3.36c0-1.856-1.504-3.36-3.36-3.36-1.181 0-2.219 0.609-2.819 1.53l-0.328 0.013c-0.409-0.097-0.878-0.153-1.36-0.153-3.375 0-6.114 2.727-6.133 6.098-3.075 0.107-5.915 1.026-8.336 2.549-0.664-0.8-1.691-1.272-2.828-1.272-2.224 0-4.027 1.803-4.027 4.027 0 1.57 0.898 2.929 2.208 3.594-0.074 0.465-0.132 0.99-0.137 1.527-0 5.791 6.267 10.457 14 10.457s14-4.693 14-10.453c-0.005-0.541-0.063-1.065-0.169-1.572 1.297-0.632 2.161-1.961 2.169-3.494zM25.76 3.067c0.839 0.071 1.493 0.77 1.493 1.621 0 0.898-0.728 1.627-1.627 1.627-0.896 0-1.624-0.725-1.627-1.621 0-0.002 0-0.004 0-0.006 0-0.898 0.728-1.627 1.627-1.627 0.047 0 0.093 0.002 0.139 0.006zM1.76 14.16c0.063-1.216 1.064-2.179 2.29-2.179 0.479 0 0.923 0.147 1.291 0.397-1.137 0.976-2.040 2.187-2.649 3.557-0.61-0.351-0.986-1.025-0.986-1.787 0-0.005 0-0.010 0-0.015zM24.853 25.333c-2.367 1.671-5.311 2.671-8.49 2.671-0.128 0-0.255-0.002-0.383-0.005-0.089 0.003-0.217 0.005-0.345 0.005-3.178 0-6.123-1-8.536-2.702-1.959-1.305-3.284-3.527-3.366-6.063 0.118-2.519 1.434-4.696 3.385-5.995 2.41-1.72 5.381-2.74 8.591-2.74 0.102 0 0.204 0.001 0.305 0.003 0.093-0.003 0.221-0.005 0.349-0.005 3.178 0 6.123 1 8.536 2.702 1.945 1.295 3.266 3.494 3.366 6.007-0.082 2.563-1.407 4.785-3.385 6.104zM29.333 16c-0.635-1.435-1.538-2.645-2.654-3.616 0.408-0.466 1.008-0.751 1.675-0.751 1.267 0 2.293 1.027 2.293 2.293 0 0.911-0.531 1.698-1.301 2.068z"></path>
<path class="path2" fill="#6965ae" d="M12.72 16.8c0 1.016-0.824 1.84-1.84 1.84s-1.84-0.824-1.84-1.84c0-1.016 0.824-1.84 1.84-1.84s1.84 0.824 1.84 1.84z"></path>
<path class="path3" fill="#6965ae" d="M22.933 16.8c0 1.016-0.824 1.84-1.84 1.84s-1.84-0.824-1.84-1.84c0-1.016 0.824-1.84 1.84-1.84s1.84 0.824 1.84 1.84z"></path>
<path class="path4" fill="#6965ae" d="M20.347 21.227c-1.237 1.129-2.89 1.821-4.704 1.821-2.015 0-3.83-0.853-5.105-2.217-0.163-0.246-0.434-0.403-0.741-0.403-0.486 0-0.88 0.394-0.88 0.88 0 0.28 0.131 0.53 0.335 0.691 1.599 1.717 3.87 2.787 6.391 2.787 2.268 0 4.333-0.866 5.884-2.285 0.11-0.142 0.181-0.331 0.181-0.537 0-0.486-0.394-0.88-0.88-0.88-0.179 0-0.345 0.053-0.484 0.145z"></path>
</symbol>
<symbol id="icon-twitter" viewBox="0 0 32 32">
<title>twitter</title>
<path class="path1" fill="#6965ae" d="M31.413 5.76c-0.624 0.287-1.362 0.543-2.127 0.729 0.744-0.761 1.378-1.739 1.74-2.84 0.022-0.077 0.026-0.11 0.026-0.144 0-0.206-0.167-0.373-0.373-0.373-0.063 0-0.122 0.016-0.174 0.043-0.965 0.583-2.084 1.058-3.27 1.366l-0.302 0.019c-0.013 0.001-0.028 0.001-0.043 0.001-0.206 0-0.395-0.071-0.545-0.189-1.202-1.058-2.793-1.705-4.534-1.705-0.009 0-0.017 0-0.026 0-0.781 0.005-1.533 0.131-2.237 0.361-2.186 0.694-3.886 2.491-4.445 4.739-0.146 0.576-0.225 1.185-0.225 1.813 0 0.317 0.020 0.63 0.059 0.936 0.008-0.009 0.015 0.023 0.015 0.057s-0.007 0.066-0.020 0.095c-0.027 0.009-0.059 0.015-0.093 0.015s-0.066-0.006-0.095-0.017l0.002 0.001c-5.064-0.459-9.47-2.947-12.453-6.633-0.096-0.121-0.201-0.176-0.32-0.176s-0.224 0.055-0.293 0.142c-0.627 1.017-0.997 2.249-0.997 3.568 0 1.884 0.757 3.591 1.984 4.834-0.597-0.145-1.121-0.356-1.605-0.63-0.016-0.007-0.072-0.020-0.13-0.020-0.2 0-0.364 0.158-0.373 0.355-0 0.004-0 0.007-0 0.010 0 2.821 1.692 5.247 4.116 6.32l-0.116 0.017c-0.172 0.017-0.371 0.027-0.573 0.027s-0.401-0.010-0.598-0.029c0.014 0.001 0.002 0-0.011 0-0.206 0-0.373 0.167-0.373 0.373 0 0.029 0.003 0.057 0.010 0.084 0.787 2.412 2.803 4.214 5.29 4.684-1.919 1.31-4.329 2.087-6.92 2.087-0.018 0-0.036-0-0.053-0h-0.797c-0.005-0-0.011-0-0.017-0-0.247 0-0.455 0.168-0.516 0.397-0.009 0.039-0.014 0.080-0.014 0.121 0 0.202 0.112 0.377 0.277 0.468 2.716 1.645 5.987 2.632 9.486 2.668 0.022 0 0.036 0 0.049 0 2.887 0 5.624-0.639 8.079-1.783 2.269-1.062 4.284-2.591 5.917-4.463 1.546-1.747 2.784-3.774 3.627-5.994 0.811-2.113 1.26-4.403 1.271-6.796l0-0.005c0-0 0-0.001 0-0.002 0-0.363 0.165-0.688 0.425-0.904 1.029-0.867 1.911-1.859 2.637-2.963 0.062-0.104 0.079-0.167 0.079-0.234 0-0.206-0.167-0.373-0.373-0.373-0.046 0-0.090 0.008-0.13 0.023z"></path>
</symbol>
<symbol id="icon-comment" viewBox="0 0 35 32">
<title>comment</title>
<path class="path1" d="M17.599 0c-9.723 0-17.599 6.453-17.599 14.401 0.097 4.060 2.012 7.654 4.96 10.011l-1.763 7.588 9.459-3.784c1.484 0.371 3.188 0.585 4.941 0.587 9.724 0 17.6-6.438 17.6-14.401s-7.875-14.401-17.599-14.401zM17.599 27.19c-1.62-0.003-3.192-0.2-4.696-0.571-0.009-0.020-0.176-0.048-0.349-0.048s-0.339 0.028-0.495 0.079l-6.603 2.681 1.071-4.576c0.026-0.108 0.041-0.233 0.041-0.361 0-0.49-0.22-0.928-0.567-1.221-2.627-2.078-4.318-5.234-4.402-8.788-0-7.053 7.2-12.787 16-12.787s16 5.734 16 12.803-7.201 12.788-16 12.788z"></path>
</symbol>
<symbol id="icon-arrow-right" viewBox="0 0 32 32">
<title>arrow-right</title>
<path class="path1" d="M24.464 17.584l-13.759 13.759c-0.875 0.876-2.294 0.876-3.169 0s-0.875-2.294 0-3.169l12.175-12.175-12.175-12.174c-0.875-0.875-0.875-2.294 0-3.169s2.294-0.875 3.169 0l13.759 13.759c0.437 0.438 0.656 1.011 0.656 1.584s-0.219 1.147-0.656 1.584z"></path>
</symbol>
</defs>
</svg>
