<svg style="position: absolute; width: 0; height: 0; overflow: hidden;" version="1.1" xmlns="http://www.w3.org/2000/svg" xmlns:xlink="http://www.w3.org/1999/xlink">
<defs>
<symbol id="icon-logo-nav" viewBox="0 0 88 32">
<title>logo-nav</title>
<path class="path1" fill="#fff" d="M12.71 22.96h1.928l1.423-3.883q-1.336 0.915-2.606 1.837z"></path>
<path class="path2" fill="#fff" d="M23.122 14.579l3.075 8.385h1.928l-3.398-9.328q-0.812 0.469-1.601 0.942z"></path>
<path class="path3" fill="#fff" d="M20.417 7.195l1.632 4.443q0.788-0.473 1.608-0.934l-1.833-5.027h-2.815l-3.761 10.325q1.258-0.879 2.582-1.746z"></path>
<path class="path4" fill="#fff" d="M50.517 0s-35.982 10.68-50.517 32c0.020-0.035 9.659-15.15 50.517-32z"></path>
<path class="path5" fill="#fff" d="M38.935 13.179v1.632c0.164-0.198 0.342-0.374 0.537-0.531 0.362-0.292 0.771-0.53 1.214-0.701 0.244-0.089 0.445-0.152 0.642-0.208 0.413-0.11 0.893-0.184 1.386-0.205l0.014 1.253c-0.019-0-0.041-0-0.064-0-0.421 0-0.828 0.062-1.212 0.178-0.338 0.105-0.658 0.258-0.95 0.451-0.259 0.172-0.495 0.379-0.7 0.614-0.183 0.209-0.345 0.437-0.482 0.682-0.117 0.21-0.211 0.431-0.28 0.663-0.056 0.181-0.087 0.361-0.093 0.549l-0 5.487h-1.183v-9.856z"></path>
<path class="path6" fill="#fff" d="M47.036 12.789c0.013-0 0.028-0 0.043-0 0.663 0 1.292 0.145 1.857 0.406 0.572 0.264 1.083 0.634 1.508 1.086 0.434 0.462 0.784 1.003 1.027 1.6 0.251 0.625 0.389 1.31 0.389 2.028s-0.138 1.402-0.39 2.030c-0.242 0.595-0.593 1.136-1.026 1.598-0.424 0.452-0.935 0.822-1.505 1.085-0.58 0.266-1.224 0.414-1.903 0.414s-1.322-0.148-1.901-0.413c-0.572-0.264-1.082-0.634-1.507-1.086-0.434-0.462-0.784-1.003-1.027-1.6-0.251-0.625-0.389-1.31-0.389-2.028s0.138-1.402 0.39-2.030c0.242-0.595 0.593-1.136 1.026-1.598 0.425-0.451 0.935-0.821 1.505-1.085 0.567-0.262 1.196-0.407 1.859-0.407 0.016 0 0.031 0 0.047 0zM50.699 17.914c0-0.009 0-0.020 0-0.031 0-0.533-0.106-1.041-0.297-1.505-0.186-0.452-0.452-0.863-0.781-1.214-0.327-0.344-0.719-0.625-1.157-0.824-0.442-0.204-0.933-0.318-1.45-0.318s-1.008 0.114-1.449 0.318c-0.44 0.2-0.832 0.481-1.16 0.825-0.33 0.35-0.596 0.76-0.781 1.213-0.191 0.476-0.296 0.998-0.296 1.544s0.105 1.068 0.296 1.546c0.184 0.451 0.451 0.862 0.78 1.212 0.327 0.343 0.719 0.623 1.157 0.82 0.443 0.201 0.934 0.313 1.45 0.313s1.007-0.112 1.449-0.312c0.439-0.198 0.832-0.478 1.159-0.821 0.668-0.715 1.078-1.676 1.078-2.734 0-0.010-0-0.019-0-0.029z"></path>
<path class="path7" fill="#fff" d="M53.781 7.971v4.589h3.856v1.301h-3.864v4.104c-0 0.009-0 0.020-0 0.032 0 0.523 0.104 1.022 0.293 1.476 0.182 0.435 0.449 0.828 0.779 1.157 0.342 0.33 0.748 0.596 1.197 0.779 0.469 0.194 0.985 0.301 1.526 0.301 0.018 0 0.037-0 0.055-0l-0.003 1.305c-0.023 0-0.050 0.001-0.077 0.001-2.112 0-3.916-1.313-4.642-3.168-0.234-0.584-0.363-1.222-0.363-1.89 0-0 0-0 0-0.001v-10.014z"></path>
<path class="path8" fill="#fff" d="M66.933 12.915v10.132h-1.183v-1.723c-0.311 0.4-0.688 0.731-1.117 0.983-0.356 0.206-0.748 0.38-1.159 0.511-0.422 0.127-0.863 0.204-1.318 0.228-0.033 0.001-0.056 0.001-0.079 0.001-0.656 0-1.277-0.145-1.834-0.406-0.564-0.268-1.065-0.64-1.48-1.093-0.42-0.459-0.759-0.994-0.996-1.581-0.246-0.606-0.381-1.269-0.381-1.963s0.135-1.357 0.381-1.963c0.236-0.589 0.575-1.125 0.996-1.585 0.416-0.454 0.918-0.828 1.481-1.095 0.563-0.262 1.189-0.407 1.849-0.407 0.023 0 0.045 0 0.068 0.001 0.676 0.033 1.313 0.182 1.898 0.428 0.197 0.083 0.394 0.185 0.581 0.301 0.202 0.125 0.392 0.264 0.571 0.417 0.19 0.164 0.365 0.348 0.519 0.55l0.006-1.694zM65.774 17.981c0-0.007 0-0.016 0-0.024 0-0.531-0.104-1.037-0.293-1.5-0.185-0.448-0.452-0.855-0.781-1.201-0.317-0.338-0.698-0.615-1.123-0.813-0.435-0.201-0.919-0.313-1.428-0.313s-0.993 0.112-1.427 0.312c-0.428 0.197-0.81 0.475-1.128 0.813-0.329 0.347-0.596 0.753-0.781 1.202-0.19 0.467-0.294 0.978-0.294 1.514 0 1.058 0.408 2.022 1.076 2.741 0.318 0.336 0.7 0.612 1.126 0.808 0.435 0.201 0.919 0.313 1.428 0.313s0.993-0.112 1.426-0.313c0.426-0.198 0.807-0.474 1.125-0.81 0.657-0.711 1.058-1.662 1.058-2.708 0-0.006 0-0.013-0-0.019z"></path>
<path class="path9" fill="#fff" d="M76.087 12.915v1.77c-0.319-0.406-0.702-0.745-1.136-1.007-0.358-0.214-0.749-0.393-1.16-0.527-0.422-0.133-0.862-0.214-1.318-0.236-0.018-0.001-0.025-0.001-0.033-0.001-0.671 0-1.307 0.145-1.88 0.406-0.572 0.258-1.084 0.622-1.511 1.067-0.438 0.458-0.791 0.999-1.034 1.596-0.262 0.631-0.406 1.325-0.406 2.052 0 0.007 0 0.014 0 0.021-0 0.008-0 0.019-0 0.030 0 0.721 0.145 1.408 0.407 2.034 0.247 0.594 0.601 1.133 1.038 1.592 0.431 0.447 0.948 0.811 1.524 1.066 0.585 0.261 1.231 0.406 1.912 0.406 0.008 0 0.016-0 0.025-0 0.472-0.030 0.915-0.11 1.338-0.235 0.185-0.054 0.375-0.124 0.559-0.206 0.203-0.090 0.397-0.193 0.583-0.308 0.198-0.122 0.387-0.264 0.563-0.421 0.189-0.17 0.362-0.357 0.517-0.559l0.007 1.879c-0.005 0.231-0.041 0.451-0.103 0.66-0.074 0.261-0.174 0.504-0.297 0.731-0.139 0.259-0.304 0.5-0.492 0.72-0.205 0.241-0.442 0.454-0.705 0.633-0.287 0.194-0.603 0.349-0.94 0.458-0.368 0.115-0.76 0.177-1.167 0.177-0.015 0-0.030-0-0.045-0l0.002 0c-0.095 0-0.185 0-0.28 0-1.228-0.106-2.303-0.684-3.059-1.548-0.308 0.286-0.616 0.574-0.923 0.862 0.969 1.092 2.333 1.815 3.866 1.942 0.147 0.001 0.273 0.001 0.415 0.001v0c0.203-0 0.403-0.012 0.6-0.034l0.066 0.002 0.205-0.028 0.28-0.047c0.17-0.037 0.31-0.076 0.447-0.123 0.448-0.149 0.862-0.361 1.236-0.625 0.348-0.246 0.662-0.539 0.932-0.869 0.251-0.304 0.472-0.636 0.658-0.99 0.17-0.321 0.304-0.658 0.401-1.010 0.085-0.301 0.132-0.606 0.138-0.922l0-10.412zM75.831 19.574c-0.194 0.479-0.461 0.89-0.79 1.24-0.32 0.341-0.705 0.621-1.135 0.82-0.44 0.201-0.928 0.313-1.442 0.313s-1.002-0.112-1.441-0.313c-0.44-0.197-0.833-0.477-1.16-0.821-0.329-0.35-0.596-0.761-0.781-1.213-0.19-0.474-0.295-0.994-0.295-1.538s0.105-1.064 0.295-1.54c0.184-0.451 0.451-0.862 0.78-1.212 0.326-0.343 0.719-0.624 1.158-0.821 0.44-0.201 0.928-0.313 1.442-0.313s1.002 0.112 1.441 0.313c0.431 0.2 0.815 0.48 1.136 0.821 0.33 0.35 0.596 0.761 0.781 1.213 0.19 0.474 0.295 0.994 0.295 1.538s-0.105 1.064-0.295 1.54z"></path>
<path class="path10" fill="#fff" d="M34.515 21.032c-0.227 0.181-0.487 0.336-0.767 0.453-0.219 0.094-0.455 0.174-0.699 0.234-0.24 0.055-0.487 0.092-0.739 0.108-0.039 0.001-0.069 0.002-0.098 0.002-0.785 0-1.505-0.279-2.066-0.743-0.25-0.207-0.47-0.449-0.649-0.721-0.162-0.245-0.31-0.513-0.435-0.793-0.111-0.249-0.199-0.503-0.264-0.765-0.062-0.271-0.101-0.465-0.117-0.614h8.377c-0.001-0.44-0.051-0.869-0.145-1.28-0.090-0.421-0.226-0.826-0.402-1.208-0.182-0.382-0.406-0.742-0.665-1.072-0.527-0.671-1.247-1.187-2.076-1.465-0.446-0.149-0.924-0.23-1.421-0.23-0.014 0-0.029 0-0.043 0-0.016-0-0.038-0-0.059-0-0.518 0-1.014 0.090-1.475 0.254-0.837 0.306-1.557 0.853-2.078 1.555-0.242 0.322-0.453 0.673-0.625 1.045-0.161 0.348-0.287 0.713-0.374 1.094-0.080 0.334-0.124 0.676-0.129 1.028 0.003 0.406 0.049 0.796 0.133 1.172 0.087 0.414 0.214 0.809 0.379 1.185 0.168 0.375 0.38 0.731 0.629 1.058 0.254 0.335 0.556 0.635 0.893 0.889 0.351 0.266 0.742 0.478 1.164 0.626 0.461 0.157 0.957 0.242 1.473 0.242 0.019 0 0.039-0 0.058-0 0.703-0.039 1.359-0.215 1.951-0.502 0.273-0.134 0.531-0.289 0.774-0.463 0.269-0.195 0.518-0.422 0.74-0.674 0.25-0.287 0.47-0.604 0.653-0.943 0.041-0.075 0.061-0.138 0.088-0.189h-1.281c-0.201 0.29-0.434 0.54-0.699 0.752zM29.292 15.805c0.207-0.302 0.445-0.561 0.715-0.783 0.234-0.195 0.494-0.359 0.774-0.485 0.227-0.116 0.471-0.217 0.724-0.299 0.251-0.061 0.508-0.099 0.77-0.115 0.289 0.016 0.546 0.054 0.794 0.112 0.254 0.066 0.498 0.151 0.733 0.254 0.27 0.122 0.53 0.286 0.763 0.481 0.271 0.223 0.51 0.483 0.708 0.772 0.235 0.359 0.413 0.761 0.519 1.192l-7.012 0.027c0.115-0.439 0.291-0.824 0.521-1.169z"></path>
<path class="path11" fill="#fff" d="M84.942 21.032c-0.227 0.181-0.487 0.336-0.767 0.453-0.219 0.094-0.455 0.174-0.699 0.234-0.24 0.055-0.487 0.092-0.739 0.108-0.039 0.001-0.068 0.002-0.097 0.002-0.785 0-1.506-0.279-2.067-0.743-0.25-0.206-0.47-0.449-0.649-0.721-0.162-0.245-0.31-0.513-0.435-0.793-0.111-0.249-0.199-0.503-0.264-0.765-0.046-0.184-0.085-0.382-0.113-0.583l8.362-0.031c-0.001-0.441-0.051-0.869-0.145-1.281-0.090-0.421-0.226-0.826-0.402-1.208-0.182-0.381-0.405-0.741-0.664-1.072-0.258-0.329-0.565-0.623-0.908-0.87-0.727-0.522-1.618-0.829-2.582-0.829-0.017 0-0.035 0-0.052 0-0.015-0-0.036-0-0.057-0-0.518 0-1.015 0.090-1.477 0.254-0.423 0.16-0.815 0.381-1.166 0.653-0.337 0.256-0.638 0.558-0.892 0.895-0.255 0.319-0.477 0.666-0.66 1.035-0.161 0.345-0.287 0.711-0.374 1.091-0.078 0.335-0.121 0.677-0.126 1.028 0.003 0.405 0.049 0.796 0.133 1.171 0.087 0.414 0.217 0.809 0.383 1.184 0.167 0.375 0.38 0.732 0.629 1.058 0.254 0.336 0.555 0.636 0.894 0.889 0.351 0.266 0.742 0.478 1.165 0.626 0.461 0.157 0.957 0.242 1.474 0.242 0.019 0 0.038-0 0.057-0 0.703-0.039 1.359-0.215 1.952-0.502 0.273-0.134 0.531-0.289 0.774-0.463 0.268-0.194 0.516-0.421 0.736-0.673 0.25-0.288 0.47-0.604 0.653-0.944 0.041-0.075 0.061-0.138 0.085-0.189h-1.281c-0.201 0.29-0.434 0.54-0.699 0.752zM79.722 15.805c0.207-0.302 0.445-0.561 0.715-0.783 0.234-0.195 0.494-0.359 0.774-0.485 0.224-0.099 0.468-0.184 0.721-0.249 0.258-0.075 0.516-0.115 0.783-0.115s0.525 0.039 0.768 0.112c0.267 0.068 0.511 0.153 0.745 0.256 0.27 0.123 0.53 0.286 0.763 0.481 0.271 0.223 0.51 0.482 0.708 0.772 0.236 0.359 0.414 0.761 0.519 1.193l-7.012 0.026c0.112-0.458 0.289-0.86 0.526-1.221z"></path>
<path class="path12" fill="#fff" d="M12.718 27.376h0.371l0.619 3.41 0.978-3.426h0.509l0.97 3.426 0.619-3.426h0.371l-0.721 3.867h-0.442l-1.033-3.481-1.029 3.481h-0.524z"></path>
<path class="path13" fill="#fff" d="M20.173 30.545c-0.204 0.468-0.663 0.789-1.196 0.789-0.011 0-0.021-0-0.032-0-0.787 0-1.351-0.595-1.351-1.545s0.54-1.557 1.329-1.557 1.309 0.556 1.309 1.545v0.106h-2.275c-0.004 0.032-0.006 0.069-0.006 0.107 0 0.543 0.431 0.984 0.97 1.001 0.024 0.002 0.050 0.003 0.077 0.003 0.396 0 0.734-0.247 0.868-0.596zM19.865 29.579c0.003-0.028 0.005-0.061 0.005-0.095 0-0.509-0.413-0.922-0.922-0.922-0.009 0-0.017 0-0.026 0-0.528 0.011-0.954 0.442-0.954 0.974 0 0.015 0 0.031 0.001 0.046z"></path>
<path class="path14" fill="#fff" d="M22.412 28.314h0.319v0.28c0.173-0.222 0.439-0.363 0.739-0.363 0.008 0 0.015 0 0.023 0 0.014-0.001 0.032-0.002 0.050-0.002 0.318 0 0.594 0.177 0.736 0.439l0.002 0.004c0.187-0.268 0.493-0.442 0.841-0.442 0.004 0 0.008 0 0.011 0 0.014-0.001 0.031-0.001 0.048-0.001 0.509 0 0.922 0.413 0.922 0.922 0 0.035-0.002 0.070-0.006 0.104l0 1.967h-0.359v-1.857c0-0.564-0.205-0.824-0.631-0.824s-0.686 0.276-0.686 0.788v1.892h-0.359v-1.857c0-0.564-0.193-0.824-0.631-0.824s-0.674 0.371-0.674 0.788v1.892h-0.359z"></path>
<path class="path15" fill="#fff" d="M28.779 30.904v0c-0.192 0.257-0.495 0.422-0.837 0.422-0.032 0-0.063-0.001-0.094-0.004-0.654 0-0.958-0.394-0.958-0.824s0.26-0.733 0.978-0.919c0.469-0.122 0.867-0.217 0.867-0.54 0-0.252-0.181-0.481-0.651-0.481-0.019-0.002-0.040-0.003-0.062-0.003-0.356 0-0.649 0.272-0.683 0.619l-0.343-0.076c0.065-0.496 0.485-0.874 0.993-0.874 0.028 0 0.055 0.001 0.083 0.003 0.627-0 1.053 0.28 1.053 1.001v2.011h-0.347zM27.238 30.478c0 0.28 0.134 0.512 0.631 0.512 0.583 0 0.883-0.319 0.883-0.678v-0.788c-0.039 0.095-0.177 0.197-0.788 0.371s-0.729 0.304-0.729 0.583z"></path>
<path class="path16" fill="#fff" d="M30.045 27.21h0.359v2.484l1.293-1.38h0.497l-1.049 1.147 1.222 1.778h-0.434l-1.057-1.53-0.453 0.481v1.049h-0.359z"></path>
<path class="path17" fill="#fff" d="M35.233 30.545c-0.204 0.468-0.663 0.789-1.196 0.789-0.011 0-0.021-0-0.032-0-0.787 0-1.351-0.595-1.351-1.545s0.556-1.545 1.333-1.545 1.309 0.556 1.309 1.545v0.106h-2.275c-0.004 0.033-0.006 0.072-0.006 0.111 0 0.547 0.438 0.991 0.983 1.001 0.017 0.001 0.036 0.002 0.055 0.002 0.401 0 0.743-0.254 0.874-0.61zM34.925 29.579c0.003-0.028 0.005-0.061 0.005-0.095 0-0.509-0.413-0.922-0.922-0.922-0.007 0-0.014 0-0.022 0-0.529 0.011-0.954 0.442-0.954 0.974 0 0.015 0 0.031 0.001 0.046z"></path>
<path class="path18" fill="#fff" d="M39.179 30.904v0c-0.192 0.257-0.495 0.422-0.837 0.422-0.032 0-0.063-0.001-0.094-0.004-0.654 0-0.958-0.394-0.958-0.824s0.26-0.733 0.978-0.919c0.469-0.122 0.867-0.217 0.867-0.54 0-0.252-0.181-0.481-0.651-0.481-0.019-0.002-0.040-0.003-0.062-0.003-0.356 0-0.649 0.272-0.683 0.619l-0.343-0.076c0.065-0.496 0.485-0.874 0.993-0.874 0.028 0 0.055 0.001 0.083 0.003 0.627-0 1.053 0.28 1.053 1.001v2.011h-0.331zM37.638 30.478c0 0.28 0.134 0.512 0.631 0.512 0.583 0 0.883-0.319 0.883-0.678v-0.788c-0.039 0.095-0.177 0.197-0.788 0.371s-0.725 0.304-0.725 0.583z"></path>
<path class="path19" fill="#fff" d="M40.448 27.376h0.446v0.457h-0.446zM40.492 28.314h0.359v2.925h-0.359z"></path>
<path class="path20" fill="#fff" d="M41.887 28.314h0.347v0.315c0.117-0.217 0.343-0.363 0.603-0.363 0.002 0 0.003 0 0.005 0 0.007-0 0.016-0.001 0.024-0.001 0.082 0 0.159 0.021 0.226 0.057l-0.074 0.361c-0.056-0.029-0.122-0.045-0.191-0.045-0.015 0-0.029 0.001-0.043 0.002-0.306-0-0.55 0.217-0.55 0.694v1.904h-0.359z"></path>
<path class="path21" fill="#fff" d="M46.125 30.21c-0.036 0.624-0.551 1.116-1.181 1.116-0.001 0-0.001 0-0.002 0-0.769 0-1.313-0.548-1.313-1.545s0.591-1.545 1.313-1.545c0.001 0 0.003 0 0.004 0 0.618 0 1.126 0.475 1.178 1.080l-0.355 0.060c-0.029-0.437-0.387-0.781-0.827-0.788-0.565 0-0.963 0.438-0.963 1.214s0.371 1.214 0.954 1.214c0.46-0.017 0.827-0.39 0.836-0.851z"></path>
<path class="path22" fill="#fff" d="M46.878 28.314h0.347v0.315c0.117-0.217 0.343-0.363 0.603-0.363 0.002 0 0.003 0 0.005 0 0.007-0 0.016-0.001 0.024-0.001 0.082 0 0.159 0.021 0.226 0.057l-0.074 0.361c-0.055-0.029-0.121-0.045-0.191-0.045-0.015 0-0.029 0.001-0.044 0.002-0.306-0-0.55 0.217-0.55 0.694v1.904h-0.359z"></path>
<path class="path23" fill="#fff" d="M50.49 30.904v0c-0.192 0.257-0.495 0.422-0.837 0.422-0.032 0-0.063-0.001-0.094-0.004-0.654 0-0.958-0.394-0.958-0.824s0.26-0.733 0.978-0.919c0.469-0.122 0.867-0.217 0.867-0.54 0-0.252-0.181-0.481-0.651-0.481-0.019-0.002-0.040-0.003-0.062-0.003-0.356 0-0.649 0.272-0.683 0.619l-0.343-0.076c0.065-0.496 0.485-0.874 0.993-0.874 0.028 0 0.055 0.001 0.083 0.003 0.627-0 1.053 0.28 1.053 1.001v2.011h-0.331zM48.948 30.478c0 0.28 0.134 0.512 0.631 0.512 0.587 0 0.883-0.319 0.883-0.678v-0.788c-0.039 0.095-0.177 0.197-0.788 0.371s-0.725 0.304-0.725 0.583z"></path>
<path class="path24" fill="#fff" d="M51.862 28.645h-0.394v-0.331h0.394v-0.288c0-0.524 0.252-0.651 0.595-0.651h0.438v0.331h-0.394c-0.237 0-0.3 0.055-0.3 0.394v0.233h0.718v0.331h-0.718v2.594h-0.359z"></path>
<path class="path25" fill="#fff" d="M53.651 28.645h-0.394v-0.331h0.418v-0.718h0.335v0.718h0.718v0.331h-0.718v1.746c0 0.335 0.059 0.485 0.355 0.485h0.209v0.355h-0.221c-0.485 0-0.702-0.292-0.702-0.788z"></path>
<path class="path26" fill="#fff" d="M57.018 30.179c0.059 0.548 0.327 0.824 0.852 0.824s0.741-0.225 0.741-0.512-0.15-0.453-0.867-0.647-0.982-0.414-0.982-0.84 0.343-0.788 0.99-0.788c0.027-0.002 0.058-0.004 0.089-0.004 0.502 0 0.921 0.358 1.014 0.833l-0.33 0.093c-0.059-0.348-0.359-0.61-0.72-0.61-0.024 0-0.048 0.001-0.072 0.003-0.45-0-0.644 0.236-0.644 0.457s0.15 0.347 0.816 0.54c0.788 0.229 1.037 0.445 1.037 0.938 0 0.394-0.292 0.84-1.088 0.84-0.032 0.003-0.069 0.005-0.106 0.005-0.606 0-1.098-0.488-1.104-1.093z"></path>
<path class="path27" fill="#fff" d="M59.529 29.777c0-1.001 0.611-1.545 1.313-1.545s1.285 0.548 1.285 1.545-0.564 1.545-1.285 1.545-1.313-0.536-1.313-1.545zM61.773 29.777c0-0.788-0.394-1.214-0.926-1.214s-0.954 0.394-0.954 1.214 0.438 1.214 0.954 1.214 0.93-0.422 0.93-1.214z"></path>
<path class="path28" fill="#fff" d="M64.654 30.904v0c-0.192 0.257-0.495 0.422-0.837 0.422-0.032 0-0.063-0.001-0.094-0.004-0.654 0-0.958-0.394-0.958-0.824s0.26-0.733 0.978-0.919c0.469-0.122 0.867-0.217 0.867-0.54 0-0.252-0.181-0.481-0.651-0.481-0.019-0.002-0.040-0.003-0.062-0.003-0.356 0-0.649 0.272-0.683 0.619l-0.343-0.076c0.065-0.496 0.485-0.874 0.993-0.874 0.028 0 0.055 0.001 0.083 0.003 0.627-0 1.053 0.28 1.053 1.001v2.011h-0.347zM63.113 30.478c0 0.28 0.134 0.512 0.631 0.512 0.587 0 0.883-0.319 0.883-0.678v-0.788c-0.039 0.095-0.177 0.197-0.788 0.371s-0.741 0.304-0.741 0.583z"></path>
<path class="path29" fill="#fff" d="M65.908 28.314h0.347v0.315c0.117-0.217 0.343-0.363 0.603-0.363 0.002 0 0.003 0 0.005 0 0.007-0 0.016-0.001 0.024-0.001 0.082 0 0.159 0.021 0.226 0.057l-0.073 0.361c-0.056-0.029-0.122-0.045-0.191-0.045-0.015 0-0.029 0.001-0.043 0.002-0.306-0-0.55 0.217-0.55 0.694v1.904h-0.359z"></path>
</symbol>
<symbol id="icon-facebook" viewBox="0 0 32 32">
<title>facebook</title>
<path class="path1" d="M16 0c-8.837 0-16 7.164-16 16 0 8.837 7.163 16 16 16s16-7.163 16-16c0-8.836-7.163-16-16-16zM16 30.545c-8.033 0-14.546-6.512-14.546-14.545s6.513-14.545 14.546-14.545 14.546 6.512 14.546 14.545-6.513 14.545-14.546 14.545zM17.446 12.545c0-0.588 0.061-0.902 0.966-0.902h1.209v-2.19h-1.936c-2.325 0-3.144 1.096-3.144 2.936v1.422h-1.449v2.189h1.449v6.547h2.9v-6.547h1.937l0.257-2.189h-2.193l0.004-1.266z"></path>
</symbol>
<symbol id="icon-google" viewBox="0 0 32 32">
<title>google</title>
<path class="path1" d="M16 0c-8.836 0-16 7.163-16 16s7.164 16 16 16c8.837 0 16-7.163 16-16s-7.163-16-16-16zM16 30.545c-8.033 0-14.545-6.511-14.545-14.545 0-8.033 6.512-14.545 14.545-14.545s14.545 6.512 14.545 14.545c0 8.034-6.512 14.545-14.545 14.545zM16.057 16.587c-0.373-0.277-0.721-0.688-0.734-0.815 0-0.217 0-0.317 0.513-0.737 0.666-0.546 1.033-1.264 1.033-2.021 0-0.654-0.183-1.24-0.498-1.665h0.278l1.538-1.165h-4.167c-1.672 0-3.137 1.313-3.137 2.809 0 1.546 1.131 2.721 2.653 2.784-0.023 0.108-0.036 0.216-0.036 0.323 0 0.224 0.051 0.437 0.152 0.642-1.886 0.013-3.475 1.274-3.475 2.766 0 1.339 1.53 2.311 3.637 2.311 2.276 0 3.505-1.424 3.505-2.765 0-1.116-0.342-1.785-1.262-2.467zM12.654 12.946c-0.069-0.558 0.047-1.074 0.315-1.382 0.163-0.188 0.373-0.286 0.607-0.286v-0.303l0.027 0.303c0.698 0.022 1.368 0.849 1.492 1.841 0.071 0.567-0.051 1.097-0.325 1.413-0.163 0.187-0.368 0.285-0.622 0.284h-0.001c-0.684-0.019-1.368-0.877-1.493-1.87zM13.809 20.66c-1.039 0-1.852-0.668-1.852-1.521 0-0.782 0.952-1.468 2.038-1.468v-0.304h0.001l0.028 0.304c0.234 0.003 0.461 0.038 0.677 0.106l0.215 0.154c0.552 0.394 0.843 0.617 0.931 0.977 0.021 0.094 0.032 0.188 0.032 0.282-0.002 0.976-0.698 1.47-2.070 1.47zM21.814 10.902h-1.455v2.184h-2.188v1.456h2.188v2.174h1.455v-2.174h2.192v-1.456h-2.192v-2.184z"></path>
</symbol>
<symbol id="icon-linkedin" viewBox="0 0 32 32">
<title>linkedin</title>
<path class="path1" d="M11.631 10.182c-0.801 0-1.45 0.652-1.45 1.457 0 0.804 0.649 1.457 1.45 1.457s1.449-0.653 1.449-1.457c0-0.805-0.649-1.457-1.449-1.457zM10.182 21.818h2.898v-8.011h-2.898v8.011zM19.896 13.808c-2.156 0-2.444 1.298-2.444 1.298l0.003-1.287h-2.909v8h2.909v-4.363c0 0 0-1.466 1.236-1.466 0.695 0 0.945 0.65 0.945 1.466v4.363h2.909v-4.363c0-2.278-0.989-3.648-2.649-3.648zM16 0c-8.836 0-16 7.163-16 16s7.164 16 16 16 16-7.163 16-16-7.164-16-16-16zM16 30.545c-8.033 0-14.545-6.512-14.545-14.545s6.512-14.545 14.545-14.545 14.545 6.512 14.545 14.545-6.512 14.545-14.545 14.545z"></path>
</symbol>
<symbol id="icon-twitter" viewBox="0 0 32 32">
<title>twitter</title>
<path class="path1" d="M23.598 10.398c-0.576 0.336-1.215 0.58-1.895 0.713-0.544-0.571-1.319-0.928-2.179-0.928-1.647 0-2.983 1.314-2.983 2.937 0 0.229 0.025 0.454 0.077 0.67-2.48-0.123-4.68-1.293-6.151-3.069-0.257 0.434-0.403 0.938-0.403 1.477 0 1.019 0.526 1.918 1.327 2.445-0.488-0.016-0.949-0.148-1.352-0.368-0.001 0.013-0.001 0.024-0.001 0.036 0 1.424 1.029 2.611 2.395 2.881-0.251 0.067-0.514 0.103-0.786 0.103-0.192 0-0.38-0.019-0.562-0.052 0.38 1.167 1.481 2.016 2.787 2.039-1.021 0.789-2.308 1.258-3.706 1.258-0.241 0-0.478-0.014-0.712-0.041 1.321 0.833 2.89 1.319 4.575 1.319 5.489 0 8.49-4.476 8.49-8.356 0-0.128-0.003-0.254-0.008-0.38 0.582-0.415 1.088-0.932 1.488-1.521-0.535 0.233-1.11 0.391-1.714 0.463 0.617-0.365 1.090-0.94 1.313-1.626zM16 0c-8.837 0-16 7.164-16 16 0 8.837 7.163 16 16 16s16-7.163 16-16c0-8.836-7.163-16-16-16zM16 30.545c-8.033 0-14.546-6.512-14.546-14.545s6.513-14.545 14.546-14.545 14.545 6.512 14.545 14.545-6.512 14.545-14.545 14.545z"></path>
</symbol>
<symbol id="icon-logo" viewBox="0 0 87 32">
<title>logo</title>
<path class="path1" d="M12.869 22.837h1.894l1.398-3.813c-0.876 0.599-1.728 1.201-2.559 1.803l-0.733 2.010z"></path>
<path class="path2" d="M23.095 14.604l3.018 8.235h1.894l-3.339-9.16c-0.531 0.307-1.055 0.615-1.573 0.925"></path>
<path class="path3" d="M20.438 7.353l1.601 4.365c0.52-0.309 1.047-0.614 1.581-0.916l-1.8-4.938h-0.835v-0.002h-1.928l-3.695 10.14c0.823-0.577 1.669-1.148 2.535-1.715l2.541-6.933z"></path>
<path class="path4" d="M49.998 0.287c0 0-35.337 10.485-49.613 31.427 0.021-0.034 9.486-14.881 49.613-31.427"></path>
<path class="path5" d="M38.624 13.232v1.604c0.162-0.197 0.341-0.373 0.534-0.528 0.192-0.153 0.391-0.288 0.596-0.403s0.412-0.212 0.619-0.288c0.208-0.077 0.408-0.141 0.601-0.192 0.452-0.115 0.91-0.183 1.373-0.202v1.23c-0.457 0-0.865 0.057-1.223 0.168-0.359 0.113-0.676 0.261-0.949 0.443-0.274 0.183-0.508 0.387-0.705 0.616-0.196 0.228-0.355 0.456-0.479 0.687s-0.213 0.448-0.271 0.654c-0.057 0.206-0.086 0.379-0.086 0.518v5.384h-1.174v-9.69h1.165z"></path>
<path class="path6" d="M46.581 12.847c0.65 0 1.263 0.13 1.839 0.394s1.078 0.623 1.508 1.082c0.431 0.457 0.77 0.993 1.017 1.604 0.247 0.612 0.37 1.264 0.37 1.957s-0.123 1.345-0.37 1.957c-0.247 0.612-0.586 1.146-1.017 1.605-0.43 0.458-0.933 0.818-1.508 1.081-0.576 0.264-1.189 0.395-1.839 0.395s-1.264-0.13-1.839-0.395c-0.575-0.262-1.079-0.623-1.509-1.081s-0.77-0.992-1.017-1.605c-0.247-0.612-0.37-1.264-0.37-1.957s0.123-1.345 0.37-1.957c0.247-0.611 0.586-1.147 1.017-1.604 0.431-0.459 0.934-0.818 1.509-1.082s1.188-0.394 1.839-0.394zM50.177 17.883c0-0.525-0.094-1.021-0.284-1.485-0.191-0.465-0.448-0.87-0.773-1.216s-0.706-0.621-1.143-0.822c-0.438-0.202-0.903-0.303-1.396-0.303-0.5 0-0.969 0.101-1.405 0.303s-0.818 0.476-1.143 0.822c-0.324 0.346-0.581 0.751-0.767 1.216s-0.281 0.959-0.281 1.485c0 0.532 0.094 1.029 0.281 1.495s0.443 0.868 0.767 1.216c0.326 0.346 0.707 0.617 1.143 0.817 0.437 0.198 0.906 0.298 1.405 0.298 0.493 0 0.959-0.099 1.396-0.298 0.437-0.2 0.818-0.472 1.143-0.817 0.325-0.347 0.583-0.75 0.773-1.216 0.189-0.465 0.284-0.963 0.284-1.495"></path>
<path class="path7" d="M53.205 8.118v4.508h3.785v1.278h-3.795v4.032c0 0.519 0.093 1.002 0.28 1.455 0.188 0.45 0.449 0.842 0.787 1.174 0.337 0.333 0.738 0.594 1.202 0.788s0.973 0.287 1.527 0.287v1.28c-0.771 0-1.465-0.144-2.083-0.43-0.618-0.285-1.142-0.657-1.574-1.123-0.432-0.464-0.764-0.995-0.994-1.591-0.232-0.596-0.346-1.205-0.346-1.826v-9.834h1.211z"></path>
<path class="path8" d="M66.122 12.972v9.949h-1.166v-1.693c-0.337 0.423-0.71 0.749-1.115 0.976-0.407 0.226-0.791 0.396-1.153 0.504-0.422 0.121-0.843 0.192-1.265 0.213-0.657 0-1.27-0.137-1.839-0.405-0.57-0.268-1.063-0.632-1.482-1.089-0.419-0.458-0.749-0.985-0.989-1.584-0.242-0.599-0.362-1.232-0.362-1.897 0-0.66 0.12-1.29 0.362-1.891 0.24-0.602 0.57-1.131 0.989-1.589 0.419-0.459 0.914-0.821 1.486-1.091 0.573-0.268 1.189-0.403 1.851-0.403 0.422 0.020 0.844 0.089 1.266 0.211 0.181 0.052 0.369 0.117 0.564 0.197 0.197 0.081 0.392 0.18 0.588 0.299s0.387 0.256 0.574 0.413c0.186 0.157 0.361 0.342 0.524 0.553v-1.673h1.166zM64.983 17.946c0-0.52-0.093-1.010-0.28-1.472s-0.44-0.863-0.759-1.203c-0.319-0.34-0.695-0.611-1.125-0.808s-0.891-0.298-1.38-0.298c-0.487 0-0.947 0.1-1.381 0.298s-0.811 0.468-1.13 0.808c-0.319 0.34-0.573 0.742-0.759 1.203s-0.281 0.952-0.281 1.472 0.093 1.011 0.281 1.473c0.186 0.462 0.439 0.863 0.759 1.204 0.319 0.339 0.696 0.609 1.13 0.807 0.434 0.2 0.894 0.299 1.381 0.299 0.489 0 0.949-0.099 1.38-0.299 0.43-0.198 0.805-0.468 1.125-0.807 0.319-0.341 0.573-0.742 0.759-1.204s0.28-0.953 0.28-1.473"></path>
<path class="path9" d="M75.104 12.972l0.009 1.738c-0.344-0.428-0.722-0.76-1.135-1-0.412-0.236-0.8-0.408-1.161-0.518-0.422-0.128-0.843-0.202-1.265-0.221-0.651 0-1.264 0.128-1.839 0.384s-1.080 0.611-1.513 1.062c-0.434 0.451-0.776 0.985-1.026 1.6-0.25 0.614-0.374 1.282-0.374 2 0 0.717 0.126 1.381 0.379 1.993s0.596 1.143 1.029 1.596c0.434 0.451 0.943 0.805 1.528 1.061s1.207 0.384 1.87 0.384c0.427-0.025 0.851-0.099 1.274-0.221 0.182-0.052 0.368-0.119 0.561-0.203s0.387-0.184 0.583-0.302c0.196-0.119 0.385-0.26 0.569-0.423s0.357-0.351 0.52-0.563v1.856c0 0.185-0.032 0.395-0.095 0.629s-0.158 0.472-0.285 0.716c-0.127 0.244-0.289 0.485-0.487 0.721-0.199 0.236-0.436 0.448-0.71 0.634s-0.586 0.335-0.935 0.448c-0.35 0.112-0.741 0.168-1.174 0.168v0.012c-0.092-0.001-0.184-0.003-0.277-0.010-1.15-0.088-2.203-0.628-3.010-1.527-0.298 0.288-0.6 0.57-0.903 0.853 1.017 1.124 2.355 1.798 3.818 1.91 0.125 0.010 0.248 0.014 0.371 0.015v0.007c0.196 0 0.383-0.012 0.566-0.031 0.029-0.004 0.058-0.008 0.088-0.009 0.067-0.008 0.135-0.016 0.201-0.026 0.093-0.014 0.185-0.029 0.276-0.048v-0.005c0.14-0.031 0.278-0.068 0.409-0.111 0.461-0.153 0.87-0.357 1.229-0.61s0.669-0.543 0.935-0.87c0.265-0.326 0.483-0.657 0.655-0.995 0.171-0.336 0.299-0.668 0.383-0.994 0.084-0.328 0.127-0.62 0.127-0.875v-10.229h-1.192zM74.851 19.512c-0.187 0.465-0.444 0.87-0.768 1.216-0.326 0.347-0.705 0.619-1.139 0.817-0.434 0.199-0.897 0.299-1.391 0.299s-0.96-0.1-1.396-0.299c-0.437-0.198-0.818-0.47-1.143-0.817s-0.581-0.751-0.768-1.216c-0.186-0.465-0.28-0.959-0.28-1.485s0.093-1.020 0.28-1.484c0.187-0.465 0.443-0.871 0.768-1.218s0.706-0.617 1.143-0.816 0.902-0.299 1.396-0.299 0.958 0.1 1.391 0.299c0.434 0.199 0.813 0.47 1.139 0.816s0.581 0.752 0.768 1.218c0.186 0.464 0.28 0.959 0.28 1.484s-0.093 1.020-0.28 1.485"></path>
<path class="path10" d="M34.283 20.945c-0.25 0.196-0.503 0.346-0.759 0.452-0.256 0.105-0.488 0.183-0.697 0.23s-0.444 0.082-0.709 0.101c-0.452 0-0.851-0.067-1.198-0.202s-0.649-0.31-0.908-0.524-0.475-0.456-0.651-0.725c-0.175-0.269-0.319-0.538-0.433-0.803s-0.199-0.516-0.253-0.749c-0.054-0.235-0.091-0.427-0.109-0.573h8.215c0-0.403-0.045-0.81-0.137-1.221-0.089-0.41-0.224-0.805-0.401-1.187s-0.398-0.739-0.659-1.076c-0.263-0.336-0.566-0.628-0.913-0.873-0.347-0.248-0.735-0.444-1.166-0.588s-0.899-0.216-1.405-0.216c-0.543 0-1.035 0.080-1.477 0.24-0.444 0.16-0.838 0.372-1.184 0.634-0.347 0.263-0.645 0.562-0.896 0.899s-0.455 0.686-0.619 1.049c-0.162 0.361-0.283 0.72-0.361 1.076s-0.118 0.681-0.118 0.974c0 0.354 0.040 0.722 0.122 1.112 0.082 0.387 0.203 0.767 0.366 1.143 0.163 0.374 0.37 0.73 0.623 1.067 0.255 0.336 0.553 0.635 0.9 0.893 0.347 0.261 0.739 0.465 1.18 0.615 0.439 0.151 0.931 0.227 1.472 0.227 0.663-0.039 1.293-0.198 1.889-0.481 0.253-0.121 0.509-0.273 0.769-0.456 0.258-0.182 0.507-0.409 0.745-0.677 0.238-0.27 0.455-0.585 0.65-0.947 0.026-0.048 0.047-0.107 0.072-0.158h-1.259c-0.211 0.299-0.441 0.546-0.691 0.742zM29.155 15.797c0.217-0.321 0.453-0.584 0.709-0.793s0.517-0.369 0.782-0.482c0.265-0.111 0.504-0.193 0.718-0.244s0.46-0.086 0.737-0.105c0.276 0.019 0.523 0.055 0.736 0.105 0.214 0.052 0.454 0.133 0.718 0.244 0.266 0.113 0.525 0.273 0.782 0.482s0.492 0.472 0.71 0.793c0.217 0.321 0.384 0.715 0.506 1.183h-6.903c0.12-0.468 0.289-0.861 0.506-1.183"></path>
<path class="path11" d="M83.808 20.945c-0.249 0.196-0.502 0.346-0.758 0.452-0.256 0.105-0.487 0.183-0.696 0.23s-0.444 0.082-0.709 0.101c-0.452 0-0.851-0.067-1.198-0.202s-0.649-0.31-0.909-0.524c-0.258-0.214-0.476-0.456-0.65-0.725s-0.319-0.538-0.434-0.803c-0.116-0.266-0.198-0.516-0.253-0.749-0.054-0.235-0.090-0.427-0.108-0.573h8.214c0-0.403-0.046-0.81-0.136-1.221s-0.225-0.805-0.402-1.187c-0.177-0.381-0.398-0.739-0.659-1.076s-0.566-0.628-0.912-0.873c-0.347-0.248-0.735-0.444-1.166-0.588s-0.899-0.216-1.405-0.216c-0.542 0-1.035 0.080-1.477 0.24-0.444 0.16-0.838 0.372-1.184 0.634s-0.644 0.562-0.895 0.899c-0.25 0.336-0.456 0.686-0.62 1.049-0.162 0.361-0.282 0.72-0.361 1.076-0.077 0.355-0.118 0.681-0.118 0.974 0 0.354 0.041 0.722 0.123 1.112 0.081 0.387 0.203 0.767 0.366 1.143 0.162 0.374 0.37 0.73 0.623 1.067s0.552 0.635 0.899 0.893c0.346 0.261 0.739 0.465 1.179 0.615 0.44 0.151 0.931 0.227 1.473 0.227 0.662-0.039 1.293-0.198 1.889-0.481 0.253-0.121 0.508-0.273 0.768-0.456s0.508-0.409 0.745-0.677c0.238-0.27 0.456-0.585 0.651-0.947 0.025-0.048 0.047-0.107 0.072-0.158h-1.26c-0.21 0.299-0.441 0.546-0.691 0.742zM78.681 15.797c0.218-0.321 0.454-0.584 0.71-0.793s0.516-0.369 0.781-0.482c0.266-0.111 0.505-0.193 0.719-0.244s0.46-0.086 0.736-0.105c0.278 0.019 0.523 0.055 0.737 0.105 0.214 0.052 0.454 0.133 0.718 0.244 0.265 0.113 0.525 0.273 0.782 0.482 0.256 0.208 0.492 0.472 0.709 0.793 0.218 0.321 0.385 0.715 0.506 1.183h-6.904c0.121-0.468 0.29-0.861 0.506-1.183"></path>
</symbol>
<symbol id="icon-search" viewBox="0 0 32 32">
<title>search</title>
<path class="path1" d="M0.179 13.437c0 7.268 5.913 13.175 13.175 13.175 3.346 0 6.406-1.257 8.734-3.319l8.397 8.396c0.155 0.156 0.356 0.234 0.564 0.234 0.206 0 0.409-0.078 0.564-0.234 0.311-0.31 0.311-0.81 0-1.122l-8.403-8.396c2.062-2.328 3.319-5.381 3.319-8.734 0-7.268-5.913-13.175-13.175-13.175s-13.175 5.907-13.175 13.175v0zM24.939 13.437c0 6.387-5.2 11.586-11.586 11.586s-11.586-5.2-11.586-11.586c0-6.386 5.2-11.586 11.586-11.586s11.586 5.193 11.586 11.586v0z"></path>
</symbol>
<symbol id="icon-advanced-search" viewBox="0 0 32 32">
<title>advanced-search</title>
<path class="path1" d="M31.806 0.203c-0.162-0.164-0.373-0.224-0.583-0.203h-30.425c-0.206-0.018-0.423 0.043-0.578 0.203-0.069 0.064-0.114 0.137-0.149 0.22-0.043 0.092-0.071 0.194-0.071 0.306 0 0.213 0.092 0.397 0.238 0.532l10.671 14.937v15.026c-0.007 0.112 0.011 0.222 0.055 0.327 0.108 0.261 0.368 0.45 0.672 0.45 0.22 0 0.412-0.101 0.544-0.256l8.714-8.694c0.165-0.167 0.224-0.389 0.196-0.605v-6.244l10.714-14.969c0.284-0.288 0.284-0.747 0.002-1.029v0zM19.844 15.474c-0.153 0.151-0.217 0.352-0.206 0.551v6.223l-7.272 7.252v-13.477c0.005-0.199-0.057-0.398-0.21-0.549l-10.012-14.019h27.733l-10.033 14.019z"></path>
</symbol>
<symbol id="icon-aerospace" viewBox="0 0 32 32">
<title>aerospace</title>
<path class="path1" fill="#9a88c0" d="M20.509 0c-6.336 0-11.492 5.155-11.492 11.491 0 2.982 1.141 5.701 3.011 7.747l-1.182 1.181c-0.384-0.247-0.832-0.38-1.301-0.38-0.645 0-1.251 0.251-1.708 0.708l-7.131 7.13c-0.456 0.456-0.707 1.063-0.707 1.707s0.251 1.252 0.707 1.708c0.455 0.456 1.063 0.707 1.708 0.707s1.251-0.251 1.708-0.708l7.129-7.131c0.457-0.456 0.709-1.063 0.709-1.707 0-0.503-0.153-0.982-0.436-1.385l1.165-1.165c2.053 1.909 4.802 3.078 7.819 3.078 6.335 0.001 11.49-5.155 11.49-11.491s-5.155-11.491-11.491-11.491v0zM10.589 21.411c0.28 0.279 0.433 0.649 0.433 1.043 0 0.262-0.069 0.513-0.195 0.733l-2.014-2.014c0.221-0.127 0.471-0.195 0.733-0.195 0.395 0 0.765 0.153 1.043 0.432v0zM3.849 30.237l-2.087-2.087 6.349-6.349 2.088 2.087-6.35 6.349zM1.373 30.628c-0.28-0.279-0.433-0.649-0.433-1.043 0-0.262 0.067-0.513 0.195-0.734l2.014 2.015c-0.221 0.127-0.471 0.195-0.733 0.195-0.395 0.001-0.765-0.153-1.043-0.432v0zM20.509 22.043c-5.819 0-10.552-4.733-10.552-10.552s4.733-10.552 10.552-10.552c5.818 0 10.551 4.733 10.551 10.552s-4.734 10.552-10.551 10.552v0z"></path>
<path class="path2" fill="#f98c67" d="M20.509 2.004c-5.232 0-9.487 4.256-9.487 9.487s4.256 9.487 9.487 9.487 9.487-4.257 9.487-9.487c0-5.231-4.256-9.487-9.487-9.487v0zM20.509 20.039c-4.713 0-8.548-3.835-8.548-8.548s3.834-8.548 8.548-8.548c4.712 0 8.547 3.835 8.547 8.548s-3.835 8.548-8.547 8.548v0z"></path>
<path class="path3" fill="#f98c67" d="M27.681 9.353c-0.723-2.429-2.605-4.311-5.035-5.034-0.249-0.074-0.511 0.067-0.583 0.316-0.074 0.249 0.067 0.511 0.315 0.584 2.124 0.633 3.771 2.279 4.403 4.403 0.061 0.205 0.248 0.336 0.451 0.336 0.044 0 0.090-0.006 0.134-0.019 0.249-0.075 0.39-0.337 0.315-0.585v0z"></path>
</symbol>
<symbol id="icon-employees" viewBox="0 0 24 32">
<title>employees</title>
<path class="path1" fill="#9a88c0" d="M20.923 1.103h-6.618c-0.007 0-0.012 0.001-0.018 0.001-0.497-0.669-1.292-1.104-2.188-1.104-0.895 0-1.691 0.434-2.187 1.104-0.006 0-0.013-0.001-0.018-0.001h-6.619c-1.806 0-3.275 1.469-3.275 3.274v24.266c0 1.805 1.469 3.274 3.275 3.274h17.648c1.805 0 3.274-1.469 3.274-3.274v-24.266c0-1.805-1.469-3.274-3.274-3.274v0zM12.098 1.034c0.932 0 1.689 0.757 1.689 1.689v0.551c0 0.286 0.232 0.517 0.517 0.517h2.206c0.323 0 0.587 0.263 0.587 0.586s-0.264 0.586-0.587 0.586h-8.824c-0.323 0-0.586-0.263-0.586-0.586s0.263-0.586 0.586-0.586h2.206c0.286 0 0.517-0.232 0.517-0.517v-0.551c0-0.931 0.758-1.689 1.688-1.689v0zM7.687 5.997h8.824c0.893 0 1.62-0.727 1.62-1.62 0-0.012 0-0.023-0.001-0.035h2.794c0.018 0 0.034 0.015 0.034 0.035v24.266c0 0.018-0.015 0.034-0.034 0.034h-17.648c-0.019 0-0.035-0.015-0.035-0.034v-24.266c0-0.019 0.015-0.035 0.035-0.035h2.793c-0.001 0.012-0.001 0.023-0.001 0.035 0 0.893 0.727 1.62 1.62 1.62v0zM23.164 28.644c0 1.235-1.005 2.239-2.24 2.239h-17.648c-1.235 0-2.24-1.005-2.24-2.239v-24.266c0-1.235 1.006-2.24 2.24-2.24h6.165c-0.042 0.189-0.064 0.385-0.064 0.586v0.034h-1.689c-0.484 0-0.919 0.214-1.216 0.551h-3.195c-0.589 0-1.069 0.479-1.069 1.069v24.266c0 0.589 0.479 1.069 1.069 1.069h17.648c0.589 0 1.069-0.48 1.069-1.069v-24.266c0-0.589-0.48-1.069-1.069-1.069h-3.196c-0.297-0.338-0.731-0.551-1.216-0.551h-1.689v-0.034c0-0.201-0.022-0.397-0.064-0.586h6.165c1.236 0 2.24 1.005 2.24 2.24v24.266z"></path>
<path class="path2" fill="#f98c67" d="M12.098 4.343c0.286 0 0.517-0.231 0.517-0.517v-1.103c0-0.286-0.231-0.517-0.517-0.517-0.285 0-0.517 0.231-0.517 0.517v1.103c0 0.286 0.232 0.517 0.517 0.517v0z"></path>
<path class="path3" fill="#f98c67" d="M11.548 12.064h6.618c0.284 0 0.516-0.232 0.516-0.517s-0.232-0.517-0.516-0.517h-6.619c-0.286 0-0.517 0.232-0.517 0.517s0.232 0.517 0.517 0.517v0z"></path>
<path class="path4" fill="#f98c67" d="M5.666 11.181c-0.202 0.202-0.202 0.529 0 0.731l1.103 1.103c0.101 0.101 0.234 0.152 0.366 0.152s0.264-0.051 0.366-0.152l2.206-2.206c0.202-0.202 0.202-0.529 0-0.731s-0.529-0.202-0.731 0l-1.841 1.84-0.737-0.737c-0.202-0.202-0.529-0.202-0.731 0v0z"></path>
<path class="path5" fill="#f98c67" d="M11.548 17.58h6.618c0.284 0 0.516-0.232 0.516-0.517s-0.232-0.517-0.516-0.517h-6.619c-0.286 0-0.517 0.232-0.517 0.517s0.232 0.517 0.517 0.517v0z"></path>
<path class="path6" fill="#f98c67" d="M8.976 15.593l-1.841 1.841-0.737-0.737c-0.202-0.202-0.529-0.202-0.731 0-0.202 0.201-0.202 0.528 0 0.73l1.103 1.104c0.101 0.1 0.234 0.151 0.366 0.151s0.264-0.051 0.366-0.151l2.206-2.207c0.202-0.202 0.202-0.529 0-0.731s-0.529-0.202-0.731 0.001v0z"></path>
<path class="path7" fill="#f98c67" d="M11.548 23.094h6.618c0.284 0 0.516-0.231 0.516-0.516s-0.232-0.517-0.516-0.517h-6.619c-0.286 0-0.517 0.232-0.517 0.517s0.232 0.516 0.517 0.516v0z"></path>
<path class="path8" fill="#f98c67" d="M8.976 21.108l-1.841 1.841-0.737-0.738c-0.202-0.202-0.529-0.202-0.731 0s-0.202 0.529 0 0.731l1.103 1.103c0.101 0.101 0.234 0.153 0.366 0.153s0.264-0.051 0.366-0.153l2.206-2.206c0.202-0.202 0.202-0.529 0-0.731s-0.529-0.202-0.731 0.001v0z"></path>
</symbol>
<symbol id="icon-engineer" viewBox="0 0 32 32">
<title>engineer</title>
<path class="path1" fill="#9a88c0" d="M16 32c-8.822 0-16-7.178-16-16s7.178-16 16-16 16 7.177 16 16c0 8.822-7.178 16-16 16zM16 1.143c-8.193 0-14.857 6.665-14.857 14.857s6.665 14.857 14.857 14.857 14.857-6.665 14.857-14.857c0-8.193-6.665-14.857-14.857-14.857z"></path>
<path class="path2" fill="#f98c67" d="M8.098 7.094l4.040 4.041-0.808 0.808-4.040-4.041 0.808-0.808z"></path>
<path class="path3" fill="#f98c67" d="M11.33 7.094l0.808 0.808-4.040 4.040-0.808-0.808 4.040-4.040z"></path>
<path class="path4" fill="#f98c67" d="M18.582 20.237l4.041 4.040-0.808 0.809-4.041-4.040 0.808-0.809z"></path>
<path class="path5" fill="#f98c67" d="M21.812 20.235l0.809 0.808-4.039 4.043-0.809-0.808 4.039-4.043z"></path>
<path class="path6" fill="#9a88c0" d="M9.714 26.857c-1.575 0-2.857-1.282-2.857-2.857s1.281-2.857 2.857-2.857 2.857 1.282 2.857 2.857-1.281 2.857-2.857 2.857zM9.714 22.286c-0.945 0-1.714 0.769-1.714 1.714s0.769 1.714 1.714 1.714 1.714-0.769 1.714-1.714-0.769-1.714-1.714-1.714z"></path>
<path class="path7" fill="#9a88c0" d="M9.771 22.283c-0.308 0-0.562-0.246-0.571-0.556-0.008-0.291-0.085-7.164 9.521-10.166 0.3-0.095 0.621 0.074 0.715 0.375s-0.073 0.621-0.375 0.716c-8.79 2.747-8.72 8.981-8.719 9.043 0.009 0.315-0.24 0.578-0.555 0.587-0.005 0-0.011 0-0.017 0z"></path>
<path class="path8" fill="#9a88c0" d="M18.623 15.391c-0.075 0-0.151-0.015-0.223-0.046-0.291-0.123-0.427-0.459-0.303-0.749l1.117-2.63-2.63-1.116c-0.291-0.123-0.427-0.459-0.303-0.749 0.125-0.291 0.459-0.426 0.75-0.303l3.156 1.339c0.291 0.123 0.426 0.459 0.303 0.749l-1.339 3.156c-0.093 0.218-0.304 0.349-0.526 0.349z"></path>
<path class="path9" fill="#f98c67" d="M25.143 12.571c-1.575 0-2.857-1.281-2.857-2.857s1.282-2.857 2.857-2.857c1.575 0 2.857 1.282 2.857 2.857s-1.282 2.857-2.857 2.857zM25.143 8c-0.945 0-1.714 0.769-1.714 1.714s0.769 1.715 1.714 1.715 1.715-0.769 1.715-1.715-0.769-1.714-1.715-1.714z"></path>
</symbol>
<symbol id="icon-experience" viewBox="0 0 32 32">
<title>experience</title>
<path class="path1" fill="#f98c67" d="M31.489 13.447c0.282 0 0.511-0.229 0.511-0.511s-0.229-0.511-0.511-0.511c-6.57 0-11.914-5.345-11.914-11.915 0-0.282-0.229-0.511-0.511-0.511s-0.511 0.229-0.511 0.511c-0.001 7.134 5.803 12.937 12.936 12.937v0z"></path>
<path class="path2" fill="#f98c67" d="M0.511 18.553c-0.282 0-0.511 0.229-0.511 0.511s0.229 0.511 0.511 0.511c6.57 0 11.915 5.345 11.915 11.914 0 0.282 0.229 0.511 0.511 0.511s0.511-0.229 0.511-0.511c-0.001-7.132-5.804-12.936-12.937-12.936v0z"></path>
<path class="path3" fill="#9a88b8" d="M17.021 21.674c0.282 0 0.511-0.228 0.511-0.51s-0.229-0.511-0.511-0.511h-0.51v-9.306h0.51c0.282 0 0.511-0.228 0.511-0.511s-0.229-0.511-0.511-0.511h-0.51v-4.142h0.51c0.282 0 0.511-0.229 0.511-0.511s-0.229-0.511-0.511-0.511h-0.51v-4.141h0.51c0.282 0 0.511-0.229 0.511-0.511s-0.229-0.511-0.511-0.511h-2.042c-0.282 0-0.511 0.229-0.511 0.511s0.229 0.511 0.511 0.511h0.511v4.142h-0.511c-0.282 0-0.511 0.228-0.511 0.511s0.229 0.511 0.511 0.511h0.511v4.142h-0.511c-0.282 0-0.511 0.229-0.511 0.511s0.229 0.511 0.511 0.511h0.511v4.142h-4.142v-0.511c0-0.282-0.228-0.511-0.511-0.511s-0.511 0.229-0.511 0.511v0.511h-4.142v-0.511c0-0.282-0.229-0.511-0.511-0.511s-0.511 0.229-0.511 0.511v0.511h-4.141v-0.511c0-0.282-0.229-0.511-0.511-0.511s-0.511 0.229-0.511 0.511v2.042c0 0.282 0.229 0.511 0.511 0.511s0.511-0.229 0.511-0.511v-0.511h4.142v0.51c0 0.282 0.228 0.511 0.511 0.511s0.511-0.229 0.511-0.511v-0.51h4.142v0.51c0 0.282 0.229 0.511 0.511 0.511s0.511-0.229 0.511-0.511v-0.51h4.142v4.142h-0.511c-0.282 0-0.511 0.228-0.511 0.511s0.229 0.51 0.511 0.51h0.511v4.142h-0.511c-0.282 0-0.511 0.229-0.511 0.511s0.229 0.51 0.511 0.51h0.511v4.142h-0.511c-0.282 0-0.511 0.228-0.511 0.51s0.228 0.512 0.51 0.512h2.042c0.282 0 0.511-0.229 0.511-0.511s-0.229-0.51-0.511-0.51h-0.51v-4.142h0.51c0.282 0 0.511-0.228 0.511-0.51s-0.229-0.511-0.511-0.511h-0.51v-4.142h0.51z"></path>
<path class="path4" fill="#9a88b8" d="M31.489 14.468c-0.282 0-0.51 0.229-0.51 0.511v0.511h-4.142v-0.511c0-0.282-0.228-0.511-0.51-0.511s-0.511 0.229-0.511 0.511v0.511h-4.142v-0.511c0-0.282-0.228-0.511-0.51-0.511s-0.511 0.229-0.511 0.511v0.511h-2.61c-0.282 0-0.511 0.229-0.511 0.511s0.229 0.511 0.511 0.511h2.61v0.51c0 0.282 0.228 0.511 0.511 0.511s0.51-0.229 0.51-0.511v-0.511h4.142v0.51c0 0.282 0.229 0.511 0.511 0.511s0.51-0.229 0.51-0.511v-0.51h4.142v0.51c0 0.282 0.228 0.511 0.51 0.511s0.511-0.229 0.511-0.511v-2.042c0-0.282-0.229-0.51-0.511-0.51v0z"></path>
</symbol>
<symbol id="icon-industry" viewBox="0 0 26 32">
<title>industry</title>
<path class="path1" fill="#9a88c0" d="M21.698 22.506c0.166-0.093 0.321-0.207 0.46-0.347 0.746-0.745 0.749-1.9 0.751-3.016 0.001-0.711 0.004-1.448 0.215-1.961 0.2-0.479 0.681-0.958 1.191-1.464 0.81-0.803 1.645-1.633 1.645-2.738s-0.835-1.935-1.645-2.739c-0.51-0.506-0.991-0.985-1.191-1.464-0.211-0.514-0.214-1.248-0.215-1.96-0.003-1.117-0.005-2.27-0.751-3.016s-1.901-0.749-3.017-0.751c-0.712-0.001-1.448-0.003-1.959-0.216-0.48-0.198-0.959-0.68-1.464-1.191-0.802-0.807-1.633-1.643-2.737-1.643s-1.935 0.835-2.739 1.644c-0.507 0.51-0.986 0.992-1.464 1.19-0.514 0.213-1.249 0.214-1.961 0.216-1.115 0.003-2.269 0.005-3.016 0.751s-0.749 1.901-0.751 3.016c-0.001 0.711-0.003 1.446-0.216 1.96-0.198 0.479-0.68 0.958-1.19 1.464-0.808 0.803-1.643 1.633-1.643 2.738s0.835 1.935 1.643 2.738c0.511 0.507 0.992 0.986 1.19 1.464 0.214 0.514 0.216 1.249 0.216 1.961 0.003 1.116 0.005 2.27 0.751 3.016 0.14 0.14 0.295 0.254 0.459 0.347l-3.010 5.213c-0.078 0.137-0.083 0.304-0.013 0.445s0.208 0.236 0.364 0.256l3.584 0.428 2.162 2.89c0.089 0.12 0.23 0.188 0.376 0.188 0.011 0 0.019 0 0.029 0 0.157-0.009 0.299-0.098 0.378-0.234l3.542-6.134c0.397 0.244 0.825 0.403 1.307 0.403 0.48 0 0.91-0.158 1.308-0.403l3.541 6.134c0.078 0.136 0.222 0.225 0.379 0.234 0.008 0 0.018 0 0.026 0 0.148 0 0.287-0.069 0.376-0.188l2.164-2.89 3.584-0.428c0.158-0.019 0.293-0.115 0.364-0.256s0.067-0.308-0.013-0.445l-3.009-5.214zM7.675 30.606l-1.857-2.482c-0.076-0.104-0.193-0.17-0.32-0.185l-3.077-0.367 2.748-4.759c0.521 0.096 1.090 0.096 1.649 0.098 0.447 0.001 0.904 0.003 1.307 0.055l-1.939 3.36c-0.13 0.224-0.053 0.512 0.171 0.641 0.075 0.042 0.154 0.063 0.235 0.063 0.162 0 0.32-0.084 0.406-0.235l2.039-3.529c0.001-0.001 0.001-0.003 0.002-0.005 0.393 0.24 0.79 0.638 1.205 1.057 0.223 0.224 0.449 0.451 0.682 0.662l-3.25 5.627zM10.908 23.655c-0.549-0.554-1.118-1.126-1.77-1.396-0.685-0.284-1.515-0.286-2.318-0.288-0.968-0.003-1.883-0.005-2.355-0.476-0.471-0.473-0.475-1.388-0.476-2.355-0.002-0.802-0.003-1.633-0.288-2.317-0.269-0.653-0.842-1.221-1.396-1.771-0.672-0.668-1.367-1.358-1.367-2.072s0.695-1.405 1.367-2.072c0.554-0.55 1.127-1.118 1.396-1.771 0.285-0.684 0.287-1.515 0.289-2.317 0.002-0.968 0.004-1.882 0.477-2.355 0.471-0.472 1.386-0.474 2.354-0.477 0.803-0.001 1.632-0.003 2.318-0.287 0.652-0.27 1.221-0.843 1.77-1.396 0.667-0.672 1.358-1.367 2.073-1.367s1.404 0.695 2.073 1.367c0.549 0.554 1.117 1.126 1.77 1.396 0.683 0.284 1.515 0.286 2.318 0.287 0.968 0.002 1.882 0.005 2.354 0.477s0.475 1.387 0.477 2.355c0.001 0.803 0.003 1.633 0.287 2.317 0.271 0.653 0.843 1.221 1.396 1.771 0.673 0.668 1.368 1.358 1.368 2.072s-0.695 1.405-1.368 2.072c-0.553 0.55-1.125 1.118-1.396 1.771-0.284 0.684-0.286 1.515-0.287 2.317-0.003 0.968-0.005 1.883-0.477 2.355s-1.386 0.473-2.355 0.476c-0.802 0.002-1.633 0.003-2.317 0.288-0.654 0.27-1.221 0.843-1.77 1.396-0.669 0.672-1.358 1.367-2.073 1.367s-1.406-0.695-2.073-1.367v0zM20.461 27.938c-0.126 0.015-0.242 0.082-0.32 0.185l-1.856 2.482-3.249-5.627c0.232-0.21 0.458-0.437 0.681-0.662 0.447-0.451 0.873-0.879 1.295-1.11 0.008 0.019 0.017 0.039 0.029 0.057l2.037 3.53c0.086 0.15 0.245 0.234 0.407 0.234 0.079 0 0.162-0.020 0.235-0.063 0.224-0.129 0.301-0.417 0.171-0.641l-1.947-3.372c0.377-0.041 0.791-0.042 1.197-0.043 0.561-0.001 1.128-0.002 1.651-0.098l2.747 4.759-3.078 0.367z"></path>
<path class="path2" fill="#f98c67" d="M21.455 12.98c0-4.674-3.802-8.476-8.475-8.476s-8.476 3.802-8.476 8.476 3.802 8.476 8.476 8.476c4.674 0 8.475-3.802 8.475-8.476v0zM12.98 20.518c-4.157 0-7.538-3.381-7.538-7.538s3.381-7.538 7.538-7.538c4.156 0 7.538 3.382 7.538 7.538s-3.382 7.538-7.538 7.538v0z"></path>
<path class="path3" fill="#9a88c0" d="M12.98 6.505c-3.57 0-6.475 2.905-6.475 6.475 0 1.366 0.421 2.672 1.217 3.778 0.151 0.21 0.444 0.258 0.654 0.106s0.258-0.444 0.106-0.654c-0.68-0.944-1.039-2.061-1.039-3.23 0-3.052 2.484-5.536 5.536-5.536s5.536 2.483 5.536 5.536-2.483 5.536-5.536 5.536c-0.974 0-1.932-0.256-2.768-0.74-0.225-0.13-0.512-0.053-0.642 0.171s-0.053 0.512 0.171 0.642c0.98 0.567 2.099 0.866 3.239 0.866 3.57 0 6.475-2.905 6.475-6.474 0-3.571-2.904-6.475-6.474-6.475v0z"></path>
<path class="path4" fill="#f98c67" d="M16.514 12.98c0 0.259 0.21 0.469 0.469 0.469s0.469-0.21 0.469-0.469c0-2.466-2.007-4.473-4.473-4.473-0.26 0-0.469 0.21-0.469 0.469s0.209 0.469 0.469 0.469c1.949 0 3.534 1.585 3.534 3.534v0z"></path>
</symbol>
<symbol id="icon-knowledge" viewBox="0 0 23 32">
<title>knowledge</title>
<path class="path1" fill="#9a88c0" d="M19.472 3.201c-2.318-2.199-5.357-3.318-8.559-3.15-2.887 0.152-5.603 1.401-7.65 3.518-2.045 2.116-3.203 4.874-3.26 7.765-0.044 2.202 0.534 4.354 1.673 6.225 1.105 1.815 2.686 3.289 4.573 4.263 0.903 0.466 1.463 1.405 1.463 2.449v2.88c0 1.373 0.663 2.459 1.675 2.901 0.147 1.053 1.054 1.867 2.147 1.867s1.997-0.811 2.147-1.862c0.983-0.41 1.675-1.381 1.675-2.511v-3.271c0-1.044 0.565-1.986 1.473-2.456 3.849-1.992 6.239-5.919 6.239-10.248 0-3.196-1.277-6.168-3.597-8.369v0zM14.323 24.273v0.552h-5.578v-0.555c0-0.209-0.017-0.415-0.048-0.616h5.677c-0.033 0.202-0.051 0.409-0.051 0.619v0zM14.323 27.030c-0.011-0.001-0.023-0.002-0.035-0.002h-5.508c-0.012 0-0.023 0.001-0.035 0.002v-1.173h5.578v1.173zM11.534 30.885c-0.44 0-0.822-0.253-1.011-0.62h2.021c-0.189 0.367-0.57 0.62-1.011 0.62v0zM12.636 29.232h-2.204c-0.737 0-1.296-0.446-1.545-1.171h5.355c-0.219 0.678-0.856 1.171-1.606 1.171v0zM16.354 20.9c-0.741 0.383-1.316 0.992-1.661 1.721h-6.315c-0.345-0.729-0.917-1.336-1.655-1.717-1.717-0.887-3.157-2.23-4.165-3.883-1.036-1.701-1.563-3.661-1.522-5.667 0.052-2.63 1.107-5.14 2.971-7.068s4.337-3.067 6.961-3.204c0.191-0.010 0.381-0.015 0.571-0.015 2.705 0 5.251 1.012 7.222 2.883 2.111 2.003 3.274 4.709 3.274 7.619 0.001 3.941-2.176 7.517-5.681 9.331v0z"></path>
<path class="path2" fill="#f98c67" d="M18.145 9.951h-0.24c-0.155-0.616-0.397-1.201-0.72-1.744l0.168-0.168c0.201-0.201 0.312-0.469 0.312-0.755s-0.111-0.554-0.312-0.755l-0.78-0.779c-0.416-0.416-1.093-0.416-1.509 0l-0.169 0.168c-0.543-0.324-1.127-0.565-1.743-0.721v-0.24c0-0.589-0.479-1.067-1.067-1.067h-1.102c-0.589 0-1.067 0.479-1.067 1.067v0.24c-0.617 0.155-1.2 0.396-1.743 0.721l-0.169-0.168c-0.416-0.416-1.094-0.416-1.509 0l-0.779 0.779c-0.201 0.201-0.312 0.469-0.312 0.755s0.111 0.553 0.312 0.755l0.169 0.168c-0.324 0.543-0.566 1.127-0.721 1.744h-0.239c-0.589 0-1.068 0.479-1.068 1.067v1.102c0 0.588 0.479 1.067 1.068 1.067h0.239c0.155 0.617 0.397 1.201 0.721 1.744l-0.169 0.168c-0.201 0.201-0.312 0.469-0.312 0.755s0.111 0.554 0.312 0.755l0.779 0.779c0.201 0.201 0.469 0.312 0.755 0.312s0.554-0.111 0.755-0.312l0.169-0.169c0.543 0.324 1.127 0.566 1.743 0.721v0.239c0 0.589 0.479 1.068 1.067 1.068h1.102c0.589 0 1.067-0.479 1.067-1.068v-0.239c0.617-0.155 1.201-0.397 1.743-0.721l0.169 0.169c0.201 0.201 0.469 0.312 0.755 0.312s0.553-0.111 0.755-0.312l0.779-0.779c0.201-0.201 0.312-0.469 0.312-0.755s-0.111-0.553-0.312-0.755l-0.169-0.168c0.324-0.543 0.566-1.127 0.721-1.744h0.239c0.589 0 1.068-0.479 1.068-1.067v-1.102c-0.001-0.588-0.479-1.067-1.067-1.067v0zM18.179 12.12c0 0.017-0.016 0.034-0.034 0.034h-0.656c-0.249 0-0.463 0.178-0.508 0.423-0.142 0.773-0.439 1.489-0.881 2.131-0.141 0.205-0.117 0.482 0.060 0.659l0.462 0.462c0.007 0.007 0.010 0.014 0.010 0.025s-0.003 0.017-0.010 0.024l-0.779 0.779c-0.013 0.013-0.036 0.013-0.048 0l-0.462-0.462c-0.177-0.176-0.453-0.201-0.658-0.060-0.643 0.443-1.359 0.739-2.132 0.881-0.245 0.045-0.423 0.259-0.423 0.508v0.655c0 0.018-0.017 0.035-0.035 0.035h-1.102c-0.017 0-0.034-0.017-0.034-0.035v-0.655c0-0.249-0.179-0.462-0.423-0.508-0.773-0.142-1.489-0.438-2.131-0.881-0.089-0.061-0.191-0.091-0.293-0.091-0.133 0-0.265 0.051-0.366 0.151l-0.462 0.462c-0.013 0.013-0.037 0.013-0.049 0l-0.779-0.779c-0.006-0.007-0.009-0.014-0.009-0.024s0.003-0.018 0.009-0.025l0.462-0.462c0.177-0.177 0.202-0.453 0.061-0.659-0.442-0.642-0.739-1.359-0.881-2.131-0.045-0.245-0.259-0.423-0.508-0.423h-0.657c-0.017 0-0.034-0.017-0.034-0.034v-1.102c0-0.017 0.016-0.035 0.034-0.035h0.656c0.249 0 0.462-0.178 0.508-0.423 0.142-0.773 0.439-1.49 0.881-2.132 0.141-0.205 0.116-0.482-0.061-0.658l-0.462-0.463c-0.006-0.006-0.009-0.014-0.009-0.024s0.003-0.018 0.009-0.025l0.779-0.779c0.013-0.013 0.037-0.013 0.049 0l0.462 0.462c0.176 0.177 0.453 0.201 0.659 0.061 0.642-0.443 1.359-0.739 2.131-0.881 0.245-0.045 0.423-0.259 0.423-0.508v-0.655c0-0.018 0.017-0.035 0.034-0.035h1.102c0.017 0 0.035 0.017 0.035 0.035v0.655c0 0.249 0.178 0.463 0.423 0.508 0.773 0.142 1.489 0.439 2.132 0.881 0.205 0.141 0.482 0.116 0.658-0.061l0.462-0.462c0.013-0.013 0.036-0.013 0.048 0l0.779 0.779c0.007 0.006 0.010 0.014 0.010 0.025s-0.003 0.018-0.010 0.024l-0.462 0.463c-0.177 0.176-0.201 0.453-0.060 0.658 0.442 0.642 0.739 1.359 0.881 2.132 0.045 0.245 0.259 0.423 0.508 0.423h0.656c0.017 0 0.034 0.017 0.034 0.035v1.102z"></path>
<path class="path3" fill="#9a88c0" d="M11.534 7.196c-2.411 0-4.373 1.961-4.373 4.373 0 2.411 1.961 4.373 4.373 4.373s4.373-1.961 4.373-4.373c-0.001-2.412-1.962-4.373-4.373-4.373v0zM11.534 14.908c-1.841 0-3.34-1.498-3.34-3.339s1.499-3.34 3.34-3.34c1.842 0 3.341 1.498 3.341 3.34s-1.499 3.339-3.341 3.339v0z"></path>
<path class="path4" fill="#f98c67" d="M11.534 9.399c-1.195 0-2.169 0.973-2.169 2.169s0.973 2.169 2.169 2.169c1.197 0 2.169-0.973 2.169-2.169s-0.973-2.169-2.169-2.169v0zM11.534 12.705c-0.626 0-1.135-0.51-1.135-1.136s0.509-1.137 1.135-1.137c0.627 0 1.137 0.51 1.137 1.137s-0.51 1.136-1.137 1.136v0z"></path>
</symbol>
<symbol id="icon-marker" viewBox="0 0 26 32">
<title>marker</title>
<path class="path1" d="M12.924 6.377c-3.692 0-6.69 3.005-6.69 6.69s2.998 6.698 6.69 6.698c3.693 0 6.692-3.005 6.692-6.691 0-3.685-2.998-6.697-6.691-6.697v0zM12.924 18.162c-2.809 0-5.087-2.285-5.087-5.088 0-2.801 2.285-5.087 5.087-5.087 2.803 0 5.087 2.285 5.087 5.087 0 2.803-2.277 5.088-5.087 5.088v0z"></path>
<path class="path2" d="M12.924 0c-0.15 0-0.308 0-0.458 0.007-6.456 0.224-11.792 5.238-12.406 11.66-0.118 1.243-0.059 2.494 0.17 3.685 0 0 0.020 0.151 0.091 0.433 0.196 0.884 0.49 1.742 0.864 2.54 1.329 3.148 4.243 8 10.567 13.25 0.334 0.275 0.753 0.425 1.184 0.425 0.433 0 0.852-0.15 1.186-0.425 6.318-5.243 9.231-10.102 10.554-13.225 0.379-0.817 0.674-1.681 0.869-2.559 0.039-0.158 0.067-0.288 0.084-0.413 0.157-0.806 0.237-1.63 0.237-2.456-0.012-7.123-5.813-12.924-12.942-12.924v0zM24.040 15.103c0 0.013-0.020 0.125-0.066 0.327-0.177 0.773-0.431 1.526-0.772 2.272-1.263 2.986-4.040 7.601-10.108 12.636-0.060 0.046-0.119 0.059-0.165 0.059-0.039 0-0.104-0.013-0.163-0.059-6.069-5.041-8.851-9.656-10.121-12.661-0.335-0.719-0.589-1.474-0.766-2.252-0.039-0.17-0.059-0.275-0.066-0.307 0-0.013-0.007-0.027-0.007-0.039-0.204-1.068-0.255-2.168-0.151-3.254 0.544-5.624 5.211-10.018 10.868-10.213 6.422-0.222 11.726 4.937 11.726 11.32 0 0.718-0.074 1.439-0.21 2.172v0z"></path>
</symbol>
<symbol id="icon-recruiting" viewBox="0 0 39 32">
<title>recruiting</title>
<path class="path1" fill="#9a88c0" d="M30.371 23.143c-0.023-0.005-0.047-0.012-0.069-0.014l-4.723-0.709c-0.763-0.494-0.836-1.719-0.837-3.046 1.491-1.537 2.421-3.701 2.421-6.095v-0.193c1.157-1.028 1.816-2.485 1.816-4.044v-3.633c0.001-2.983-2.426-5.409-5.409-5.409h-7.87c-1.128 0-2.078 0.79-2.323 1.846-2.077 0.252-3.693 2.025-3.693 4.17v3.027c0 1.557 0.658 3.016 1.816 4.044v0.193c0 2.394 0.931 4.558 2.421 6.095-0.001 1.327-0.074 2.552-0.837 3.046l-4.722 0.709c-0.023 0.003-0.047 0.009-0.069 0.014-1.039 0.291-1.922 0.935-2.555 1.862-0.577 0.846-0.896 1.869-0.896 2.878v2.345c0 0.977 0.872 1.771 1.944 1.771h25.092c1.072 0 1.943-0.794 1.943-1.771v-2.345c0-1.010-0.318-2.032-0.896-2.878-0.634-0.927-1.517-1.571-2.555-1.862v0zM19.332 21.716c1.585 0 3.060-0.51 4.294-1.385 0.055 1.036 0.269 2.185 1.111 2.877-0.456 2.32-2.719 4.032-5.406 4.032s-4.949-1.712-5.405-4.032c0.843-0.692 1.057-1.842 1.111-2.877 1.234 0.875 2.709 1.385 4.294 1.385v0zM12.636 12.878c0.003-0.035 0.003-0.069 0-0.103v-3.127c0-1.021 0.832-1.854 1.854-1.854h10.29c0.314 0 0.567-0.254 0.567-0.567s-0.254-0.567-0.567-0.567h-10.291c-1.648 0-2.989 1.341-2.989 2.989v1.71c-0.441-0.682-0.681-1.48-0.681-2.316v-3.026c0-1.69 1.375-3.064 3.064-3.064 0.314 0 0.567-0.254 0.567-0.567 0-0.689 0.56-1.249 1.248-1.249h7.869c2.358 0 4.275 1.918 4.275 4.275v3.632c0 0.836-0.24 1.635-0.681 2.316v-2.316c0-0.313-0.254-0.567-0.566-0.567-0.315 0-0.568 0.254-0.568 0.567v4.237c0 4.027-3.004 7.301-6.697 7.301s-6.696-3.275-6.696-7.301v-0.4zM32.688 30.23c0 0.345-0.37 0.638-0.808 0.638h-25.093c-0.438 0-0.809-0.292-0.809-0.638v-2.346c0-1.438 0.889-3.144 2.591-3.638l4.281-0.643c0.636 2.757 3.318 4.772 6.482 4.772s5.848-2.015 6.483-4.772l4.281 0.643c1.702 0.495 2.591 2.2 2.591 3.638v2.346z"></path>
<path class="path2" fill="#f98c67" d="M3.594 25.423h-2.136c-0.185 0-0.324-0.112-0.324-0.212v-1.518c0-0.852 0.522-1.86 1.519-2.158l3.090-0.463c0.013-0.002 0.026-0.005 0.039-0.008 0.006-0.002 0.012-0.002 0.017-0.004 0.021-0.005 0.041-0.012 0.062-0.020 0.005-0.002 0.009-0.004 0.014-0.006 0.016-0.006 0.032-0.014 0.048-0.022 0.003-0.001 0.005-0.002 0.008-0.004 0.005-0.003 0.009-0.005 0.014-0.009 0.005-0.002 0.009-0.005 0.013-0.007 0.688-0.393 0.925-1.103 1.008-1.797 0.753 0.448 1.619 0.703 2.538 0.703 0.771 0 1.516-0.176 2.211-0.522 0.281-0.139 0.395-0.48 0.255-0.761s-0.48-0.395-0.761-0.256c-0.537 0.267-1.111 0.403-1.706 0.403-2.279 0-4.133-2.029-4.133-4.524v-2.421c0-0.551 0.448-1 0.999-1h1.46c0.313 0 0.567-0.254 0.567-0.567s-0.254-0.567-0.567-0.567h-1.459c-1.177 0-2.135 0.958-2.135 2.135v0.298c-0.049-0.2-0.076-0.407-0.076-0.619v-1.957c0-0.983 0.799-1.782 1.782-1.782 0.314 0 0.567-0.254 0.567-0.567 0-0.335 0.272-0.608 0.607-0.608h0.713c0.313 0 0.567-0.254 0.567-0.567s-0.254-0.567-0.567-0.567h-0.712c-0.777 0-1.437 0.512-1.661 1.216-1.378 0.232-2.431 1.434-2.431 2.877v1.958c0 1.051 0.439 2.036 1.211 2.736v0.005c0 1.61 0.629 3.063 1.636 4.094-0.006 0.722-0.061 1.369-0.418 1.634l-3.007 0.451c-0.023 0.004-0.047 0.008-0.069 0.014-1.563 0.438-2.38 1.971-2.38 3.26v1.518c0 0.744 0.654 1.348 1.458 1.348h2.136c0.313 0 0.567-0.254 0.567-0.568s-0.254-0.568-0.567-0.568v0z"></path>
<path class="path3" fill="#f98c67" d="M36.285 20.434c-0.022-0.006-0.046-0.011-0.068-0.014l-3.009-0.451c-0.356-0.265-0.411-0.913-0.418-1.634 1.008-1.031 1.636-2.484 1.636-4.094v-0.005c0.772-0.701 1.211-1.686 1.211-2.738v-3.061c0-1.648-1.34-2.989-2.988-2.989h-1.816c-0.314 0-0.567 0.254-0.567 0.567s0.254 0.567 0.567 0.567h1.816c1.022 0 1.854 0.832 1.854 1.854v3.062c0 0.21-0.027 0.418-0.076 0.618v-0.298c0-1.177-0.957-2.135-2.133-2.135h-1.46c-0.314 0-0.567 0.254-0.567 0.567s0.254 0.567 0.567 0.567h1.46c0.549 0 0.998 0.449 0.998 0.999v2.421c0 2.494-1.854 4.525-4.133 4.525-0.594 0-1.17-0.136-1.705-0.403-0.281-0.139-0.621-0.025-0.762 0.255s-0.025 0.621 0.255 0.761c0.695 0.345 1.44 0.522 2.211 0.522 0.92 0 1.784-0.255 2.538-0.703 0.083 0.694 0.319 1.405 1.008 1.797 0.004 0.003 0.008 0.005 0.013 0.007s0.010 0.006 0.015 0.009c0.002 0.002 0.005 0.003 0.008 0.004 0.015 0.009 0.031 0.016 0.049 0.022 0.005 0.002 0.009 0.005 0.014 0.006 0.020 0.007 0.040 0.014 0.061 0.019 0.006 0.002 0.012 0.002 0.017 0.004 0.014 0.003 0.026 0.006 0.040 0.008l3.090 0.463c0.997 0.298 1.52 1.306 1.52 2.158v1.518c0 0.1-0.138 0.212-0.323 0.212h-2.136c-0.314 0-0.567 0.254-0.567 0.567s0.254 0.568 0.567 0.568h2.136c0.804 0 1.458-0.604 1.458-1.348v-1.518c-0.002-1.288-0.819-2.821-2.381-3.259v0z"></path>
</symbol>
<symbol id="icon-relationships" viewBox="0 0 32 32">
<title>relationships</title>
<path class="path1" fill="#9a88c0" d="M20.509 27.053h-4.039v-8.047c0-0.26-0.211-0.469-0.47-0.469s-0.47 0.209-0.47 0.469v8.047h-4.039c-0.811 0-1.471 0.66-1.471 1.472v2.004c0 0.811 0.66 1.471 1.471 1.471h9.018c0.811 0 1.471-0.66 1.471-1.471v-2.004c0.001-0.812-0.66-1.472-1.471-1.472v0zM21.041 30.529c0 0.293-0.238 0.532-0.532 0.532h-9.019c-0.293 0-0.532-0.238-0.532-0.532v-2.004c0-0.294 0.239-0.533 0.532-0.533h9.018c0.293 0 0.532 0.238 0.532 0.533v2.004z"></path>
<path class="path2" fill="#f98c67" d="M13.495 29.057h-1.001c-0.261 0-0.47 0.21-0.47 0.469s0.209 0.47 0.47 0.47h1.001c0.26 0 0.469-0.211 0.469-0.47s-0.209-0.469-0.469-0.469v0z"></path>
<path class="path3" fill="#f98c67" d="M19.507 29.057h-4.008c-0.259 0-0.469 0.21-0.469 0.469s0.21 0.47 0.469 0.47h4.008c0.259 0 0.47-0.211 0.47-0.47s-0.211-0.469-0.47-0.469v0z"></path>
<path class="path4" fill="#9a88c0" d="M30.529 22.043h-5.511c-0.235 0-0.457 0.056-0.653 0.153l-3.523-3.523c-0.183-0.183-0.481-0.183-0.664 0s-0.183 0.481 0 0.664l3.523 3.523c-0.099 0.197-0.155 0.419-0.155 0.653v2.004c0 0.812 0.66 1.472 1.472 1.472h5.511c0.811 0 1.471-0.66 1.471-1.472v-2.004c-0.001-0.81-0.661-1.471-1.472-1.471v0zM31.061 25.518c0 0.294-0.238 0.533-0.532 0.533h-5.511c-0.293 0-0.532-0.238-0.532-0.533v-2.004c0-0.293 0.239-0.532 0.532-0.532h5.511c0.293 0 0.532 0.238 0.532 0.532v2.004z"></path>
<path class="path5" fill="#f98c67" d="M26.521 24.047h-0.501c-0.26 0-0.47 0.209-0.47 0.47 0 0.259 0.21 0.469 0.47 0.469h0.501c0.259 0 0.469-0.211 0.469-0.469 0-0.26-0.21-0.47-0.469-0.47v0z"></path>
<path class="path6" fill="#f98c67" d="M29.526 24.047h-1.001c-0.261 0-0.47 0.209-0.47 0.47 0 0.259 0.209 0.469 0.47 0.469h1.001c0.259 0 0.47-0.211 0.47-0.469 0-0.26-0.211-0.47-0.47-0.47v0z"></path>
<path class="path7" fill="#f98c67" d="M5.981 24.047h-0.501c-0.259 0-0.469 0.209-0.469 0.47 0 0.259 0.21 0.469 0.469 0.469h0.501c0.259 0 0.469-0.211 0.469-0.469 0-0.26-0.211-0.47-0.469-0.47v0z"></path>
<path class="path8" fill="#f98c67" d="M3.475 24.047h-1.001c-0.261 0-0.47 0.209-0.47 0.47 0 0.259 0.209 0.469 0.47 0.469h1.001c0.26 0 0.469-0.211 0.469-0.469 0-0.26-0.209-0.47-0.469-0.47v0z"></path>
<path class="path9" fill="#9a88c0" d="M11.823 19.338c0.183-0.183 0.183-0.481 0-0.664s-0.481-0.183-0.664 0l-3.523 3.523c-0.197-0.097-0.419-0.153-0.653-0.153h-5.511c-0.811-0.001-1.471 0.66-1.471 1.471v2.004c0 0.812 0.66 1.472 1.471 1.472h5.511c0.812 0 1.472-0.66 1.472-1.472v-2.004c0-0.235-0.056-0.457-0.154-0.653l3.522-3.523zM7.514 25.518c0 0.294-0.238 0.533-0.532 0.533h-5.511c-0.293 0-0.532-0.238-0.532-0.533v-2.004c0-0.293 0.239-0.532 0.532-0.532h5.511c0.293 0 0.532 0.238 0.532 0.532v2.004z"></path>
<path class="path10" fill="#9a88c0" d="M9.487 17.471h13.027c0.811 0 1.471-0.66 1.471-1.471v-1.061c0-1.067-0.68-2.010-1.691-2.347l-3.139-1.047c-0.059-0.019-0.121-0.027-0.18-0.023v-0.901c0.648-0.728 1.002-1.653 1.002-2.638v-1.111c0.582-0.197 1.002-0.747 1.002-1.394v-2.505c0-1.64-1.334-2.975-2.975-2.975h-4.008c-0.663 0-1.225 0.441-1.408 1.044-0.894 0.188-1.567 0.982-1.567 1.931v2.505c0 0.647 0.421 1.197 1.002 1.394v0.963c0 1.035 0.379 1.991 1.002 2.722v0.964c-0.059-0.004-0.121 0.003-0.18 0.023l-3.139 1.047c-1.012 0.337-1.691 1.28-1.691 2.347v1.061c0 0.811 0.661 1.471 1.471 1.471v0zM13.495 12.462c0.26 0 0.469-0.211 0.469-0.47v-0.621c0.565 0.353 1.217 0.567 1.913 0.588 0.042 0.001 0.083 0.002 0.124 0.002 0.727 0 1.425-0.195 2.034-0.559v0.591c0 0.259 0.209 0.47 0.47 0.47 0.007 0 0.013-0.001 0.019-0.001-0.123 1.158-1.209 2.067-2.525 2.067-1.317 0-2.402-0.909-2.525-2.067 0.007-0.001 0.013 0.001 0.019 0.001v0zM11.961 5.479v-2.505c0-0.569 0.463-1.033 1.033-1.033 0.259 0 0.469-0.21 0.469-0.47 0-0.293 0.239-0.532 0.533-0.532h4.008c1.123 0 2.035 0.913 2.035 2.035v2.505c0 0.090-0.022 0.175-0.063 0.25v-0.751c0-0.811-0.66-1.472-1.471-1.472h-5.011c-0.811 0-1.471 0.66-1.471 1.472v0.751c-0.040-0.075-0.063-0.16-0.063-0.25v0zM12.963 4.979c0-0.293 0.239-0.532 0.532-0.532h5.011c0.293 0 0.532 0.239 0.532 0.532v3.006c0 0.829-0.327 1.603-0.922 2.18s-1.379 0.881-2.209 0.856c-1.623-0.049-2.943-1.477-2.943-3.183v-2.859zM8.955 14.939c0-0.661 0.422-1.247 1.049-1.456l2.547-0.849c0.209 1.594 1.676 2.833 3.449 2.833s3.239-1.239 3.449-2.833l2.547 0.849c0.627 0.209 1.049 0.794 1.049 1.456v1.061c0 0.293-0.239 0.533-0.532 0.533h-13.026c-0.293 0-0.533-0.239-0.533-0.533v-1.061z"></path>
</symbol>
<symbol id="icon-strategy" viewBox="0 0 32 32">
<title>strategy</title>
<path class="path1" fill="#9a88c0" d="M16.411 16.214c0.376 0.515 0.581 1.137 0.581 1.785 0 1.67-1.358 3.029-3.028 3.029s-3.029-1.359-3.029-3.029c0-1.671 1.359-3.029 3.029-3.029 0.236 0 0.473 0.027 0.701 0.081 0.252 0.060 0.503-0.096 0.564-0.347 0.059-0.251-0.097-0.504-0.348-0.563-0.298-0.071-0.607-0.107-0.917-0.107-2.187 0-3.966 1.779-3.966 3.966 0 2.186 1.779 3.966 3.966 3.966s3.965-1.78 3.965-3.966c0-0.898-0.3-1.756-0.85-2.453zM22.746 9.879l0.751-0.75c2.253 2.417 3.488 5.551 3.488 8.87 0 7.18-5.841 13.022-13.021 13.022-7.181 0-13.022-5.843-13.022-13.022s5.842-13.021 13.022-13.021c2.799 0 5.469 0.875 7.716 2.531 0.209 0.153 0.501 0.109 0.655-0.099s0.109-0.501-0.099-0.655c-2.41-1.777-5.27-2.715-8.272-2.715-3.729 0-7.234 1.451-9.871 4.089-2.635 2.635-4.087 6.141-4.087 9.869s1.452 7.233 4.088 9.87c2.637 2.637 6.142 4.089 9.871 4.089s7.234-1.452 9.869-4.089c2.637-2.637 4.089-6.142 4.089-9.87 0-3.569-1.333-6.939-3.763-9.533l0.491-0.491h3.303c0.125 0 0.243-0.049 0.331-0.137l3.497-3.497c0.134-0.135 0.175-0.335 0.101-0.511v0c-0.071-0.175-0.242-0.289-0.432-0.289h-3.029v-3.028c0-0.19-0.115-0.361-0.289-0.433-0.176-0.073-0.377-0.033-0.512 0.101l-3.497 3.497c-0.087 0.088-0.137 0.207-0.137 0.331v3.303l-10.354 10.355c-0.183 0.183-0.183 0.48 0 0.662 0.091 0.091 0.211 0.138 0.331 0.138 0.119 0 0.239-0.047 0.331-0.138l0.649-0.649c0.033 0.102 0.051 0.209 0.051 0.318 0 0.568-0.463 1.030-1.031 1.030-0.569 0-1.031-0.462-1.031-1.030 0-0.259-0.209-0.469-0.468-0.469s-0.469 0.209-0.469 0.469c0 1.085 0.883 1.967 1.968 1.967 1.084 0 1.967-0.883 1.967-1.967 0-0.363-0.099-0.715-0.286-1.019l0.765-0.765zM22.083 10.542c1.875 2.040 2.905 4.675 2.905 7.457 0 6.078-4.945 11.022-11.023 11.022s-11.023-4.944-11.023-11.022c0-6.079 4.945-11.023 11.023-11.023 2.231 0 4.377 0.662 6.212 1.915 0.213 0.147 0.505 0.091 0.651-0.122s0.091-0.505-0.121-0.651c-1.992-1.361-4.322-2.080-6.742-2.080-6.595 0-11.959 5.365-11.959 11.96s5.365 11.959 11.959 11.959c6.593 0 11.959-5.365 11.959-11.959 0-3.031-1.127-5.903-3.179-8.119zM20.623 12.001l1.459-1.459zM19.959 12.665c1.314 1.471 2.030 3.347 2.030 5.333 0 4.425-3.6 8.025-8.025 8.025-4.426 0-8.025-3.6-8.025-8.025s3.599-8.025 8.025-8.025c1.506 0 2.975 0.419 4.245 1.213 0.22 0.137 0.509 0.070 0.645-0.149 0.137-0.22 0.070-0.509-0.149-0.646-1.42-0.887-3.061-1.356-4.742-1.356-4.942 0-8.962 4.021-8.962 8.962s4.020 8.962 8.962 8.962c4.941 0 8.962-4.021 8.962-8.962 0-2.236-0.814-4.349-2.303-5.997zM17.080 15.545l1.464-1.464c0.936 1.091 1.447 2.469 1.447 3.917 0 3.323-2.703 6.026-6.026 6.026s-6.027-2.703-6.027-6.026 2.703-6.027 6.027-6.027c1.039 0 2.062 0.268 2.96 0.775 0.225 0.127 0.511 0.048 0.637-0.177 0.128-0.225 0.047-0.511-0.177-0.639-1.039-0.587-2.222-0.897-3.421-0.897-3.841 0-6.963 3.124-6.963 6.963s3.123 6.963 6.963 6.963c3.839 0 6.963-3.125 6.963-6.963 0-1.698-0.609-3.312-1.72-4.582l0.751-0.752zM27.76 7.039h-2.173l1.199-1.199c0.183-0.183 0.183-0.479 0-0.662-0.182-0.183-0.479-0.183-0.661 0l-1.199 1.199v-2.173l2.56-2.56v2.366c0 0.259 0.211 0.469 0.469 0.469h2.367l-2.561 2.561z"></path>
<path class="path2" fill="#f98c67" d="M17.081 15.543l-0.671 0.671c0.375 0.517 0.585 1.139 0.585 1.784 0 1.668-1.36 3.028-3.028 3.028-1.673 0-3.033-1.36-3.033-3.028 0-1.673 1.36-3.027 3.033-3.027 0.234 0 0.468 0.025 0.703 0.080 0.245 0.061 0.498-0.099 0.559-0.351 0.062-0.247-0.092-0.499-0.345-0.56-0.301-0.074-0.609-0.111-0.917-0.111-2.19 0-3.969 1.785-3.969 3.969s1.779 3.963 3.969 3.963c2.185 0 3.963-1.779 3.963-3.963 0.001-0.898-0.301-1.753-0.849-2.455z"></path>
<path class="path3" fill="#f98c67" d="M17.131 15.543l-0.665 0.671c0.375 0.517 0.578 1.139 0.578 1.784 0 1.668-1.36 3.028-3.028 3.028s-3.027-1.36-3.027-3.028c0-1.673 1.359-3.027 3.027-3.027 0.234 0 0.474 0.025 0.701 0.080 0.253 0.061 0.505-0.099 0.567-0.351 0.055-0.247-0.099-0.499-0.351-0.56-0.302-0.074-0.609-0.111-0.917-0.111-2.184 0-3.963 1.785-3.963 3.969s1.779 3.963 3.963 3.963c2.185 0 3.963-1.779 3.963-3.963 0-0.898-0.296-1.753-0.849-2.455z"></path>
</symbol>
<symbol id="icon-work" viewBox="0 0 42 32">
<title>work</title>
<path class="path1" fill="#9a88c0" d="M41.207 30.773h-8.487c0.584-0.738 0.819-1.685 0.641-2.61l-1.738-9.132c-0.22-1.148-1.045-2.093-2.155-2.463l-4.436-1.479c-0.078-0.026-0.158-0.035-0.235-0.031v-1.178c0.846-0.951 1.309-2.161 1.309-3.447v-1.452c0.761-0.257 1.309-0.976 1.309-1.822v-3.273c0-2.144-1.744-3.888-3.888-3.888h-5.237c-0.867 0-1.6 0.576-1.841 1.364-1.168 0.246-2.047 1.284-2.047 2.524v3.273c0 0.846 0.549 1.565 1.309 1.822v1.259c0 1.352 0.496 2.603 1.309 3.557v1.26c-0.077-0.005-0.157 0.005-0.235 0.031l-4.436 1.479c-1.109 0.369-1.934 1.313-2.154 2.463l-1.739 9.132c-0.177 0.925 0.058 1.872 0.641 2.61h-8.487c-0.339 0-0.614 0.274-0.614 0.614s0.275 0.613 0.614 0.613h40.594c0.34 0 0.614-0.274 0.614-0.613s-0.274-0.614-0.614-0.614v0zM17.637 16.286c0.339 0 0.613-0.274 0.613-0.614v-0.812c0.738 0.462 1.591 0.741 2.501 0.769 0.053 0.002 0.108 0.002 0.161 0.002 0.951 0 1.861-0.253 2.658-0.73v0.77c0 0.339 0.275 0.614 0.614 0.614 0.010 0 0.017 0 0.026-0.001-0.159 1.514-1.58 2.703-3.3 2.703s-3.139-1.189-3.299-2.703c0.008 0.002 0.016 0.002 0.026 0.002v0zM15.632 7.161v-3.273c0-0.745 0.606-1.35 1.35-1.35 0.339 0 0.614-0.275 0.614-0.614 0-0.384 0.312-0.696 0.696-0.696h5.237c1.467 0 2.66 1.193 2.66 2.66v3.273c0 0.118-0.029 0.229-0.082 0.327v-0.981c0-1.061-0.863-1.924-1.924-1.924h-6.547c-1.061 0-1.924 0.863-1.924 1.924v0.981c-0.052-0.097-0.081-0.208-0.081-0.327v0zM16.941 6.506c0-0.384 0.312-0.696 0.696-0.696h6.547c0.384 0 0.696 0.312 0.696 0.696v3.928c0 1.083-0.428 2.094-1.205 2.849s-1.803 1.152-2.887 1.119c-2.122-0.064-3.847-1.929-3.847-4.16v-3.736zM13.054 30.773c-0.023 0-0.041-0.018-0.041-0.042v-8.511c0-0.022 0.018-0.041 0.041-0.041h15.714c0.023 0 0.041 0.018 0.041 0.041v8.511c0 0.023-0.018 0.042-0.041 0.042h-15.714zM30.077 30.773h-0.043c0.001-0.014 0.002-0.027 0.002-0.042v-8.511c0-0.7-0.569-1.268-1.268-1.268h-15.714c-0.7 0-1.269 0.568-1.269 1.268v8.511c0 0.014 0.002 0.027 0.002 0.042h-0.151c-0.599 0-1.163-0.265-1.544-0.727-0.383-0.462-0.537-1.064-0.425-1.654l1.739-9.132c0.136-0.712 0.647-1.296 1.336-1.526l3.663-1.22c0.274 2.083 2.19 3.703 4.508 3.703s4.234-1.62 4.508-3.703l3.662 1.22c0.688 0.23 1.199 0.815 1.336 1.526l1.738 9.132c0.113 0.59-0.042 1.192-0.423 1.654-0.384 0.462-0.946 0.727-1.546 0.727h-0.109z"></path>
<path class="path2" fill="#f98c67" d="M20.911 24.88c-1.061 0-1.924 0.864-1.924 1.924s0.863 1.925 1.924 1.925c1.060 0 1.924-0.864 1.924-1.925s-0.864-1.924-1.924-1.924v0zM20.911 27.499c-0.384 0-0.696-0.313-0.696-0.697s0.312-0.696 0.696-0.696c0.384 0 0.696 0.313 0.696 0.696 0 0.384-0.312 0.697-0.696 0.697v0z"></path>
</symbol>
</defs>
</svg>
