<?xml version="1.0" encoding="utf-8"?>
<!-- Generator: Adobe Illustrator 20.0.0, SVG Export Plug-In . SVG Version: 6.00 Build 0)  -->
<svg version="1.1" id="Layer_1" xmlns="http://www.w3.org/2000/svg" xmlns:xlink="http://www.w3.org/1999/xlink" x="0px" y="0px"
	 viewBox="0 0 21 14.7" style="enable-background:new 0 0 21 14.7;" xml:space="preserve">
<style type="text/css">
	.st0{fill:#6964AF;}
	.st1{fill:none;stroke:#6964AF;stroke-width:2;stroke-linecap:round;stroke-miterlimit:10;}
</style>
<g>
	<path class="st0" d="M2.7,7.4c0,0.8-0.6,1.4-1.4,1.4C0.6,8.7,0,8.1,0,7.4C0,6.6,0.6,6,1.4,6C2.1,6,2.7,6.6,2.7,7.4L2.7,7.4z
		 M2.7,7.4"/>
</g>
<g>
	<path class="st0" d="M8.2,7.4c0,0.8-0.6,1.4-1.4,1.4c-0.8,0-1.4-0.6-1.4-1.4C5.5,6.6,6.1,6,6.8,6C7.6,6,8.2,6.6,8.2,7.4L8.2,7.4z
		 M8.2,7.4"/>
</g>
<g>
	<path class="st0" d="M13.6,7.4c0,0.8-0.6,1.4-1.4,1.4c-0.8,0-1.4-0.6-1.4-1.4c0-0.8,0.6-1.4,1.4-1.4C13,6,13.6,6.6,13.6,7.4
		L13.6,7.4z M13.6,7.4"/>
</g>
<g>
	<path class="st1" d="M20,7.4l-6.4,6.4 M20,7.4L13.6,1"/>
</g>
</svg>
