<svg xmlns="http://www.w3.org/2000/svg" viewBox="0 0 21 14.73"><defs><style>.cls-1{fill:#6a65ad;}.cls-2{fill:none;stroke:#6a65ad;stroke-linecap:round;stroke-miterlimit:10;stroke-width:2px;}</style></defs><title>Asset 6</title><g id="Layer_2" data-name="Layer 2"><g id="Layer_1-2" data-name="Layer 1"><path class="cls-1" d="M2.73,7.36A1.36,1.36,0,1,1,1.37,6,1.36,1.36,0,0,1,2.73,7.36Zm0,0"/><path class="cls-1" d="M8.18,7.36A1.36,1.36,0,1,1,6.82,6,1.36,1.36,0,0,1,8.18,7.36Zm0,0"/><path class="cls-1" d="M13.64,7.36A1.36,1.36,0,1,1,12.27,6a1.36,1.36,0,0,1,1.36,1.36Zm0,0"/><path class="cls-2" d="M20,7.36l-6.36,6.36M20,7.36,13.64,1"/></g></g></svg>