<?xml version="1.0" encoding="utf-8"?>
<!-- Generator: Adobe Illustrator 20.0.0, SVG Export Plug-In . SVG Version: 6.00 Build 0)  -->
<svg version="1.1" id="Layer_1" xmlns="http://www.w3.org/2000/svg" xmlns:xlink="http://www.w3.org/1999/xlink" x="0px" y="0px"
	 viewBox="0 0 39.8 48" style="enable-background:new 0 0 39.8 48;" xml:space="preserve">
<style type="text/css">
	.st0{fill:#F98C67;}
	.st1{fill:#9A88C0;}
	.st2{fill:none;}
</style>
<path class="st0" d="M18,19.5h16.5c0.5,0,0.9-0.4,0.9-0.9s-0.4-0.9-0.9-0.9H18c-0.5,0-0.9,0.4-0.9,0.9S17.5,19.5,18,19.5L18,19.5z
	 M18,19.5"/>
<path class="st0" d="M18,24.3h12c0.5,0,0.9-0.4,0.9-0.9s-0.4-0.9-0.9-0.9H18c-0.5,0-0.9,0.4-0.9,0.9C17.1,23.9,17.5,24.3,18,24.3
	L18,24.3z M18,24.3"/>
<path class="st0" d="M18,28.6h16.5c0.5,0,0.9-0.4,0.9-0.9c0-0.5-0.4-0.9-0.9-0.9H18c-0.5,0-0.9,0.4-0.9,0.9
	C17.1,28.2,17.5,28.6,18,28.6L18,28.6z M18,28.6"/>
<path class="st0" d="M19.6,31.8H18c-0.5,0-0.9,0.4-0.9,0.9c0,0.5,0.4,0.9,0.9,0.9h1.6c0.5,0,0.9-0.4,0.9-0.9
	C20.5,32.2,20.1,31.8,19.6,31.8L19.6,31.8z M19.6,31.8"/>
<path class="st0" d="M19.6,36.1H18c-0.5,0-0.9,0.4-0.9,0.9c0,0.5,0.4,0.9,0.9,0.9h1.6c0.5,0,0.9-0.4,0.9-0.9
	C20.5,36.5,20.1,36.1,19.6,36.1L19.6,36.1z M19.6,36.1"/>
<path class="st0" d="M34.6,31.8H23.1c-0.5,0-0.9,0.4-0.9,0.9c0,0.5,0.4,0.9,0.9,0.9h11.4c0.5,0,0.9-0.4,0.9-0.9
	C35.5,32.2,35.1,31.8,34.6,31.8L34.6,31.8z M34.6,31.8"/>
<path class="st0" d="M30.9,37c0-0.5-0.4-0.9-0.9-0.9h-6.9c-0.5,0-0.9,0.4-0.9,0.9c0,0.5,0.4,0.9,0.9,0.9H30
	C30.5,37.9,30.9,37.5,30.9,37L30.9,37z M30.9,37"/>
<path class="st1" d="M29.2,47.6c0.3,0.3,0.9,0.3,1.3,0l3-3l3,3c0.2,0.2,0.4,0.3,0.6,0.3c0.2,0,0.4-0.1,0.6-0.3l1.8-1.8
	c0.2-0.2,0.3-0.4,0.3-0.6V15c0-2.2-1.8-4-4-4H29V1c0-0.5-0.4-0.9-0.9-0.9H0.9C0.4,0.1,0,0.5,0,1v30.2c0,2.2,1.8,4,4,4h5.1
	c0.5,0,0.9-0.4,0.9-0.9c0-0.5-0.4-0.9-0.9-0.9H7.4c0.4-0.6,0.7-1.4,0.7-2.3V15c0-1.3,1-2.3,2.3-2.3c1.3,0,2.3,1,2.3,2.3v30.2
	c0,0.1,0,0.1,0,0.2c0,0,0,0.1,0,0.1c0,0,0,0,0,0.1c0,0,0,0.1,0.1,0.1c0,0,0,0,0,0c0,0,0.1,0.1,0.1,0.1l1.8,1.8
	c0.3,0.3,0.9,0.3,1.3,0l3-3l3,3c0.3,0.3,0.9,0.3,1.3,0l3-3L29.2,47.6z M6.3,15v16.2c0,1.3-1,2.3-2.3,2.3c-1.3,0-2.3-1-2.3-2.3V1.9
	h25.5v9.1H10.4C8.1,10.9,6.3,12.8,6.3,15L6.3,15z M22.6,45.7l-3-3c-0.2-0.2-0.4-0.3-0.6-0.3c-0.2,0-0.4,0.1-0.6,0.3l-3,3l-0.9-0.9
	V15c0-0.1,0-0.3,0-0.4c0,0,0-0.1,0-0.1c0-0.1,0-0.2,0-0.3c0,0,0-0.1,0-0.1c0-0.1,0-0.2-0.1-0.3c0,0,0,0,0,0c0-0.1-0.1-0.2-0.1-0.3
	c0,0,0-0.1,0-0.1c0-0.1-0.1-0.2-0.1-0.2c0,0,0-0.1,0-0.1c0-0.1-0.1-0.2-0.2-0.3c0,0,0,0,0,0v0h22.1c1.3,0,2.3,1,2.3,2.3v29.8
	l-0.9,0.9l-3-3c-0.3-0.3-0.9-0.3-1.3,0l-3,3l-3-3c-0.3-0.3-0.9-0.3-1.3,0L22.6,45.7z M22.6,45.7"/>
<rect class="st2" width="39.8" height="48"/>
</svg>
