<?xml version="1.0" encoding="utf-8"?>
<!-- Generator: Adobe Illustrator 20.0.0, SVG Export Plug-In . SVG Version: 6.00 Build 0)  -->
<svg version="1.1" id="Layer_1" xmlns="http://www.w3.org/2000/svg" xmlns:xlink="http://www.w3.org/1999/xlink" x="0px" y="0px"
	 viewBox="0 0 40.7 47.9" style="enable-background:new 0 0 40.7 47.9;" xml:space="preserve">
<style type="text/css">
	.st0{fill:#9A88C0;}
	.st1{fill:none;}
	.st2{fill:#F98C67;}
</style>
<path class="st0" d="M0.5,24.3c0.4,1.6,1.6,3.8,1.8,4.1c0.2,0.5,0.4,1,0.4,1.6l1.7,16.2c0.1,1,0.9,1.7,1.9,1.7h2.9
	c1,0,1.8-0.7,1.9-1.7L12.6,30c0.1-0.5,0.2-1.1,0.4-1.6c0.2-0.4,0-1-0.4-1.2c-0.4-0.2-1,0-1.2,0.4c-0.3,0.7-0.5,1.4-0.6,2.1L9.2,46
	c0,0.1-0.1,0.1-0.1,0.1H6.2c-0.1,0-0.1,0-0.1-0.1L4.4,29.8c-0.1-0.7-0.3-1.4-0.6-2.1c0,0,0,0,0-0.1c0,0-1.2-2.2-1.7-3.7
	c-0.4-1.7-0.6-5.3-0.2-6c0.3-0.3,0.4-0.4,0.7-0.6c0.8-0.6,1.7-1,2.2-1.3l2,2.7c0.2,0.2,0.4,0.4,0.7,0.4c0.3,0,0.5-0.1,0.7-0.4
	l2.4-3.3c0.3-0.4,0.2-0.9-0.2-1.2c-0.4-0.3-0.9-0.2-1.2,0.2l-1.7,2.3L6,14.4c-0.2-0.3-0.7-0.4-1-0.3c-0.1,0-1.8,0.7-3.3,1.8
	c-0.4,0.3-0.6,0.5-0.9,0.8C-0.5,18,0.2,23.2,0.5,24.3L0.5,24.3z M0.5,24.3"/>
<path class="st0" d="M7.6,12.9h0.2c1.1,0,2.1-0.4,2.8-1.2c1.5-1.6,1.3-4.4,1.2-4.7c-0.1-3-2.2-4.1-4-4.1H7.6C5.8,2.9,3.7,4,3.6,7
	c0,0.3-0.2,3.1,1.2,4.7C5.5,12.5,6.4,12.9,7.6,12.9L7.6,12.9z M5.3,7.1L5.3,7.1C5.4,5,6.8,4.7,7.6,4.7h0.1c0.8,0,2.1,0.3,2.2,2.4v0
	c0.1,0.6,0,2.5-0.8,3.4c-0.4,0.4-0.9,0.6-1.5,0.6h0c-0.7,0-1.2-0.2-1.5-0.6C5.3,9.6,5.3,7.8,5.3,7.1L5.3,7.1z M5.3,7.1"/>
<path class="st0" d="M28.1,27.2c-0.4,0.2-0.7,0.7-0.4,1.2c0.2,0.5,0.4,1,0.4,1.6l1.7,16.2c0.1,1,0.9,1.7,1.9,1.7h2.9
	c1,0,1.8-0.7,1.9-1.7L38,30c0.1-0.5,0.2-1.1,0.4-1.6c0.2-0.3,1.4-2.5,1.8-4.1c0.3-1.2,1-6.4-0.2-7.6c-0.3-0.3-0.5-0.5-0.9-0.8
	c-1.4-1.1-3.2-1.8-3.3-1.8c-0.4-0.2-0.8,0-1,0.3L33,16.7l-1.7-2.3c-0.3-0.4-0.8-0.5-1.2-0.2c-0.4,0.3-0.5,0.8-0.2,1.2l2.4,3.3
	c0.2,0.2,0.4,0.4,0.7,0.4c0.3,0,0.5-0.1,0.7-0.4l2-2.7c0.6,0.3,1.5,0.7,2.2,1.3c0.3,0.2,0.4,0.3,0.7,0.6c0.4,0.6,0.2,4.3-0.2,6
	c-0.4,1.5-1.6,3.7-1.7,3.7c0,0,0,0,0,0.1c-0.3,0.7-0.5,1.4-0.6,2.1L34.5,46c0,0.1-0.1,0.1-0.1,0.1h-2.9c-0.1,0-0.1,0-0.1-0.1
	l-1.7-16.2c-0.1-0.7-0.3-1.4-0.6-2.1C29.1,27.2,28.5,27,28.1,27.2L28.1,27.2z M28.1,27.2"/>
<rect class="st1" width="40.7" height="48"/>
<path class="st0" d="M32.9,12.9h0.2c1.1,0,2.1-0.4,2.8-1.2c1.5-1.6,1.3-4.4,1.2-4.7c-0.1-3-2.2-4.1-4-4.1h-0.2c-1.7,0-3.8,1.1-4,4.1
	c0,0.3-0.2,3.1,1.2,4.7C30.8,12.5,31.8,12.9,32.9,12.9L32.9,12.9z M30.7,7.1L30.7,7.1c0.1-2.2,1.4-2.5,2.2-2.5h0.1
	c0.8,0,2.1,0.3,2.2,2.4v0c0.1,0.6,0,2.5-0.8,3.4c-0.4,0.4-0.9,0.6-1.5,0.6h0c-0.7,0-1.2-0.2-1.5-0.6C30.6,9.6,30.6,7.8,30.7,7.1
	L30.7,7.1z M30.7,7.1"/>
<path class="st2" d="M13,14.7c-1.3,1.3-0.6,6.8-0.2,8.1c0.5,1.7,1.7,4,1.9,4.3c0.2,0.5,0.4,1.1,0.4,1.7l1.8,17.3
	c0.1,1,0.9,1.8,2,1.8h3c1,0,1.8-0.8,2-1.8l1.8-17.3c0.1-0.6,0.2-1.1,0.4-1.7c0.2-0.3,1.4-2.6,1.9-4.3c0.3-1.3,1.1-6.8-0.2-8.1
	c-0.4-0.4-0.6-0.6-1-0.9c-1.5-1.1-3.4-1.9-3.5-1.9c-0.4-0.2-0.8,0-1,0.3l-1.9,2.5l-1.8-2.5c-0.2-0.3-0.7-0.4-1-0.3
	c-0.1,0-1.9,0.8-3.5,1.9C13.6,14.2,13.3,14.4,13,14.7L13,14.7z M14.3,16c0.3-0.3,0.5-0.4,0.8-0.7c0.8-0.6,1.8-1.1,2.4-1.4l2.1,2.9
	c0.2,0.2,0.4,0.4,0.7,0.4c0.3,0,0.5-0.1,0.7-0.4l2.1-2.9c0.6,0.3,1.6,0.8,2.4,1.4c0.3,0.2,0.5,0.4,0.8,0.7c0.4,0.7,0.3,4.6-0.2,6.4
	c-0.4,1.6-1.7,4-1.8,4c0,0,0,0,0,0.1c-0.3,0.7-0.5,1.5-0.6,2.2L22,45.9c0,0.1-0.1,0.2-0.2,0.2h-3c-0.1,0-0.2-0.1-0.2-0.2l-1.8-17.3
	c-0.1-0.8-0.3-1.5-0.6-2.2c0,0,0,0,0-0.1c0,0-1.3-2.4-1.8-4C14,20.6,13.8,16.6,14.3,16L14.3,16z M14.3,16"/>
<path class="st2" d="M20.2,10.6h0.2c1.2,0,2.2-0.4,2.9-1.3c1.5-1.7,1.3-4.6,1.3-5C24.5,1.2,22.3,0,20.4,0h-0.2c-1.8,0-4,1.1-4.2,4.3
	c0,0.4-0.3,3.3,1.3,5C18,10.1,19,10.6,20.2,10.6L20.2,10.6z M17.8,4.5L17.8,4.5c0.1-2.4,1.7-2.7,2.4-2.7h0.2c0.7,0,2.3,0.3,2.4,2.6
	v0c0.1,0.7,0.1,2.6-0.8,3.7c-0.4,0.4-0.9,0.7-1.7,0.7h0c-0.7,0-1.3-0.2-1.7-0.7C17.7,7.1,17.7,5.2,17.8,4.5L17.8,4.5z M17.8,4.5"/>
</svg>
