<?xml version="1.0" encoding="utf-8"?>
<!-- Generator: Adobe Illustrator 20.0.0, SVG Export Plug-In . SVG Version: 6.00 Build 0)  -->
<svg version="1.1" id="Layer_1" xmlns="http://www.w3.org/2000/svg" xmlns:xlink="http://www.w3.org/1999/xlink" x="0px" y="0px"
	 viewBox="0 0 52 46" style="enable-background:new 0 0 52 46;" xml:space="preserve">
<style type="text/css">
	.st0{fill:#F88B67;}
	.st1{fill:#9A87C0;}
</style>
<path class="st0" d="M18.6,33.6c0.2,0.3,0.5,0.5,0.8,0.5c0.2,0,0.3,0,0.5-0.1l3.9-2.3c0.6,0.5,1.4,0.9,2.2,0.9
	c0.9,0,1.6-0.3,2.2-0.9l3.9,2.3c0.1,0.1,0.3,0.1,0.5,0.1c0.3,0,0.7-0.2,0.8-0.5c0.3-0.5,0.1-1.1-0.4-1.3L29.3,30
	c0.1-0.2,0.1-0.5,0.1-0.7c0-1.5-1-2.7-2.3-3.1v-4.5c0-0.5-0.4-1-1-1c-0.5,0-1,0.4-1,1v4.5c-1.3,0.4-2.3,1.7-2.3,3.1
	c0,0.3,0,0.5,0.1,0.7l-3.9,2.3C18.5,32.5,18.3,33.1,18.6,33.6L18.6,33.6z M26.1,27.9c0.8,0,1.4,0.6,1.4,1.4c0,0.8-0.6,1.4-1.4,1.4
	c-0.8,0-1.4-0.6-1.4-1.4C24.7,28.5,25.3,27.9,26.1,27.9L26.1,27.9z M26.1,27.9"/>
<path class="st1" d="M16.7,21.9c0.5,0,1-0.4,1-1v-2.6c0-0.3,0.1-0.5,0.3-0.7c2.3-1.9,4.8-3.1,5.2-3.4c0.4-0.2,0.6-0.6,0.6-1V9.6
	c0-0.3-0.2-0.6-0.4-0.8c-0.2-0.1-0.3-0.4-0.3-0.6V4.4c0-1.4,1.1-2.5,2.5-2.5h0.8c1.4,0,2.5,1.1,2.5,2.5v3.8c0,0.3-0.1,0.5-0.3,0.6
	c-0.3,0.2-0.4,0.5-0.4,0.8v3.7c0,0.4,0.3,0.8,0.6,1c0.5,0.2,3,1.5,5.2,3.4c0.2,0.2,0.3,0.4,0.3,0.7V21c0,0.5,0.4,1,1,1s1-0.4,1-1
	v-2.6c0-0.8-0.4-1.6-1-2.2c-2-1.7-4.2-2.9-5.2-3.4v-2.7c0.5-0.5,0.8-1.2,0.8-1.9V4.4c0-2.4-2-4.4-4.4-4.4h-0.8c-2.4,0-4.4,2-4.4,4.4
	v3.8c0,0.7,0.3,1.4,0.8,1.9v2.7c-1,0.5-3.1,1.7-5.2,3.4c-0.6,0.5-1,1.3-1,2.2V21C15.8,21.5,16.2,21.9,16.7,21.9L16.7,21.9z
	 M16.7,21.9"/>
<path class="st1" d="M37.7,36.8c-1,0.5-3.1,1.7-5.2,3.4c-0.6,0.5-1,1.3-1,2.2V45c0,0.5,0.4,1,1,1c0.5,0,1-0.4,1-1v-2.6
	c0-0.3,0.1-0.5,0.3-0.7c2.3-1.9,4.8-3.1,5.2-3.4c0.4-0.2,0.6-0.6,0.6-1v-3.7c0-0.3-0.2-0.6-0.4-0.8c-0.2-0.1-0.3-0.4-0.3-0.6v-3.8
	c0-1.4,1.1-2.5,2.5-2.5h0.8c1.4,0,2.5,1.1,2.5,2.5v3.8c0,0.3-0.1,0.5-0.3,0.6c-0.3,0.2-0.4,0.5-0.4,0.8v3.7c0,0.4,0.2,0.8,0.6,1
	c0.5,0.2,3,1.5,5.2,3.4c0.2,0.2,0.3,0.4,0.3,0.7V45c0,0.5,0.4,1,1,1c0.5,0,1-0.4,1-1v-2.6c0-0.8-0.4-1.6-1-2.2
	c-2-1.7-4.2-2.9-5.2-3.4v-2.7c0.5-0.5,0.8-1.2,0.8-1.9v-3.8c0-2.4-2-4.4-4.4-4.4h-0.8c-2.4,0-4.4,2-4.4,4.4v3.8
	c0,0.7,0.3,1.4,0.8,1.9V36.8z M37.7,36.8"/>
<path class="st1" d="M1,45.9c0.5,0,1-0.4,1-1v-2.6c0-0.3,0.1-0.5,0.3-0.7c2.3-1.9,4.8-3.1,5.2-3.4c0.4-0.2,0.6-0.6,0.6-1v-3.7
	c0-0.3-0.2-0.6-0.4-0.8c-0.2-0.1-0.3-0.4-0.3-0.6v-3.8c0-1.4,1.1-2.5,2.5-2.5h0.8c1.4,0,2.5,1.1,2.5,2.5v3.8c0,0.3-0.1,0.5-0.3,0.6
	c-0.3,0.2-0.4,0.5-0.4,0.8v3.7c0,0.4,0.2,0.8,0.6,1c0.5,0.2,3,1.5,5.2,3.4c0.2,0.2,0.3,0.4,0.3,0.7V45c0,0.5,0.4,1,1,1
	c0.5,0,1-0.4,1-1v-2.6c0-0.8-0.4-1.6-1-2.2c-2-1.7-4.2-2.9-5.2-3.4v-2.7c0.5-0.5,0.8-1.2,0.8-1.9v-3.8c0-2.4-2-4.4-4.4-4.4H9.8
	c-2.4,0-4.4,2-4.4,4.4v3.8c0,0.7,0.3,1.4,0.8,1.9v2.7c-1,0.5-3.1,1.7-5.2,3.4c-0.6,0.5-1,1.3-1,2.2V45C0,45.5,0.4,45.9,1,45.9
	L1,45.9z M1,45.9"/>
</svg>
