<?xml version="1.0" encoding="utf-8"?>
<!-- Generator: Adobe Illustrator 20.0.0, SVG Export Plug-In . SVG Version: 6.00 Build 0)  -->
<svg version="1.1" id="Layer_1" xmlns="http://www.w3.org/2000/svg" xmlns:xlink="http://www.w3.org/1999/xlink" x="0px" y="0px"
	 viewBox="0 0 51.8 23.3" style="enable-background:new 0 0 51.8 23.3;" xml:space="preserve">
<style type="text/css">
	.st0{fill:#F68C68;}
	.st1{clip-path:url(#SVGID_2_);fill:#9988C0;}
</style>
<g>
	<path class="st0" d="M26,11.2c-2.3,0-4.2,1.9-4.2,4.2c0,2.3,1.9,4.2,4.2,4.2c2.3,0,4.2-1.9,4.2-4.2C30.2,13.1,28.3,11.2,26,11.2
		L26,11.2z M26,17.9c-1.4,0-2.6-1.1-2.6-2.6s1.1-2.6,2.6-2.6c1.4,0,2.6,1.1,2.6,2.6S27.4,17.9,26,17.9L26,17.9z M26,17.9"/>
	<g>
		<defs>
			<rect id="SVGID_1_" width="52" height="23.3"/>
		</defs>
		<clipPath id="SVGID_2_">
			<use xlink:href="#SVGID_1_"  style="overflow:visible;"/>
		</clipPath>
		<path class="st1" d="M30.5,9.7c-1.3-1-2.9-1.6-4.5-1.6c-1.6,0-3.3,0.6-4.5,1.6c-0.4,0.3-0.4,0.8-0.1,1.2c0.3,0.4,0.8,0.4,1.2,0.1
			c1-0.8,2.2-1.2,3.5-1.2c1.3,0,2.5,0.4,3.5,1.2c0.2,0.1,0.3,0.2,0.5,0.2c0.2,0,0.5-0.1,0.6-0.3C30.9,10.5,30.9,10,30.5,9.7
			L30.5,9.7z M30.5,9.7"/>
		<path class="st1" d="M51.5,11.1c-0.4-0.2-0.9-0.1-1.1,0.3l-1.1,1.8H35.1c-0.2-2.3-1.2-4.3-2.8-5.8h1.5c0.5,0,0.8-0.4,0.8-0.8
			c0-0.5-0.4-0.8-0.8-0.8h-3.8c-1-0.5-2-0.8-3.2-0.9v-4c0-0.5-0.4-0.8-0.8-0.8c-0.5,0-0.8,0.4-0.8,0.8v4C24,5,23,5.3,22,5.8h-3.8
			c-0.5,0-0.8,0.4-0.8,0.8c0,0.5,0.4,0.8,0.8,0.8h1.5c-1.6,1.5-2.6,3.5-2.8,5.8H2.6l-1.1-1.8c-0.2-0.4-0.7-0.5-1.1-0.3
			c-0.4,0.2-0.5,0.7-0.3,1.1l1.3,2.2c0.1,0.2,0.4,0.4,0.7,0.4h6.7c-0.7,0.8-1.1,1.9-1.1,3c0,2.6,2.1,4.7,4.7,4.7
			c2.6,0,4.7-2.1,4.7-4.7c0-1.2-0.4-2.2-1.1-3h0.9c0.4,4.7,4.4,8.3,9.1,8.3c4.8,0,8.7-3.7,9.1-8.3H36c-0.7,0.8-1.1,1.9-1.1,3
			c0,2.6,2.1,4.7,4.7,4.7c2.6,0,4.7-2.1,4.7-4.7c0-1.2-0.4-2.2-1.1-3h6.7c0.3,0,0.6-0.2,0.7-0.4l1.3-2.2
			C52,11.9,51.9,11.4,51.5,11.1L51.5,11.1z M15.4,17.9c0,1.7-1.4,3-3,3c-1.7,0-3-1.4-3-3c0-1.7,1.4-3,3-3
			C14.1,14.8,15.4,16.2,15.4,17.9L15.4,17.9z M26,21.5c-4.1,0-7.5-3.4-7.5-7.5s3.4-7.5,7.5-7.5s7.5,3.4,7.5,7.5S30.1,21.5,26,21.5
			L26,21.5z M42.6,17.9c0,1.7-1.4,3-3,3c-1.7,0-3-1.4-3-3c0-1.7,1.4-3,3-3C41.2,14.8,42.6,16.2,42.6,17.9L42.6,17.9z M42.6,17.9"/>
	</g>
	<path class="st0" d="M12.4,20.2c1.3,0,2.4-1.1,2.4-2.4c0-1.3-1.1-2.4-2.4-2.4c-1.3,0-2.4,1.1-2.4,2.4C10,19.2,11.1,20.2,12.4,20.2
		L12.4,20.2z M12.4,17.1c0.4,0,0.7,0.3,0.7,0.7c0,0.4-0.3,0.7-0.7,0.7c-0.4,0-0.7-0.3-0.7-0.7C11.7,17.5,12,17.1,12.4,17.1
		L12.4,17.1z M12.4,17.1"/>
	<path class="st0" d="M39.5,20.2c1.3,0,2.4-1.1,2.4-2.4c0-1.3-1.1-2.4-2.4-2.4c-1.3,0-2.4,1.1-2.4,2.4
		C37.2,19.2,38.2,20.2,39.5,20.2L39.5,20.2z M39.5,17.1c0.4,0,0.7,0.3,0.7,0.7c0,0.4-0.3,0.7-0.7,0.7c-0.4,0-0.7-0.3-0.7-0.7
		C38.8,17.5,39.1,17.1,39.5,17.1L39.5,17.1z M39.5,17.1"/>
</g>
</svg>
