<?xml version="1.0" encoding="utf-8"?>
<!-- Generator: Adobe Illustrator 20.0.0, SVG Export Plug-In . SVG Version: 6.00 Build 0)  -->
<svg version="1.1" id="Layer_1" xmlns="http://www.w3.org/2000/svg" xmlns:xlink="http://www.w3.org/1999/xlink" x="0px" y="0px"
	 viewBox="0 0 48 42.3" style="enable-background:new 0 0 48 42.3;" xml:space="preserve">
<style type="text/css">
	.st0{fill:#9A88C0;}
	.st1{fill:#F98C67;}
</style>
<path class="st0" d="M48,31.4v-2.5c0-0.5-0.2-1-0.6-1.3c-2.2-1.8-4.6-3.1-5.1-3.3c-0.1,0-0.1-0.1-0.1-0.1v-3.5
	c0.4-0.3,0.7-0.8,0.7-1.4v-3.6c0-1.8-1.5-3.3-3.3-3.3h-0.8c-1.8,0-3.3,1.5-3.3,3.3v3.6c0,0.6,0.3,1.1,0.7,1.4v3.5
	c0,0.1,0,0.1-0.1,0.1c-0.5,0.2-2.9,1.5-5.1,3.3c-0.4,0.3-0.6,0.8-0.6,1.3v2.5"/>
<path class="st1" d="M10.3,7.6c3.6-3.7,8.4-5.8,13.6-5.8c5.1-0.1,9.9,1.9,13.6,5.4l-2,0c-0.5,0-0.9,0.4-0.9,0.9
	C34.6,8.6,35,9,35.5,9h0l4.2,0c0.5,0,0.9-0.4,0.9-0.9l0-4.2c0-0.5-0.4-0.9-0.9-0.9c-0.5,0-0.9,0.4-0.9,0.9l0,2
	c-4-3.9-9.3-6-14.9-5.9C18.2,0.1,13,2.3,9,6.4C8.7,6.7,8.7,7.3,9,7.6C9.4,8,10,8,10.3,7.6L10.3,7.6z M10.3,7.6"/>
<path class="st1" d="M9.5,38.4l0-2c4,3.8,9.2,5.9,14.7,5.9h0.2c5.6-0.1,10.9-2.3,14.9-6.4c0.3-0.4,0.3-0.9,0-1.3
	c-0.4-0.3-0.9-0.3-1.3,0c-3.6,3.7-8.4,5.8-13.6,5.8c-5.1,0.1-9.9-1.9-13.6-5.4l2,0c0.5,0,0.9-0.4,0.9-0.9c0-0.5-0.4-0.9-0.9-0.9h0
	l-4.2,0.1c-0.2,0-0.5,0.1-0.6,0.3c-0.2,0.2-0.3,0.4-0.3,0.6l0,4.2c0,0.5,0.4,0.9,0.9,0.9h0C9.1,39.3,9.5,38.9,9.5,38.4L9.5,38.4z
	 M9.5,38.4"/>
<path class="st0" d="M7.7,20.7c0-0.3-0.2-0.6-0.4-0.7c-0.2-0.1-0.3-0.4-0.3-0.6v-3.6c0-1.3,1-2.3,2.3-2.3h0.8c1.3,0,2.3,1,2.3,2.3
	v3.6c0,0.2-0.1,0.5-0.3,0.6c-0.2,0.2-0.4,0.4-0.4,0.7v3.5c0,0.4,0.2,0.8,0.6,1c0.5,0.2,2.8,1.4,5,3.2c0.2,0.2,0.3,0.4,0.3,0.7v2.5
	c0,0.5,0.4,0.9,0.9,0.9c0.5,0,0.9-0.4,0.9-0.9v-2.5c0-0.8-0.3-1.5-1-2c-1.9-1.6-4-2.7-4.9-3.2v-2.6c0.5-0.5,0.7-1.1,0.7-1.8v-3.6
	c0-2.3-1.9-4.2-4.2-4.2H9.3c-2.3,0-4.2,1.9-4.2,4.2v3.6c0,0.7,0.3,1.3,0.7,1.8v2.6c-0.9,0.5-3,1.6-4.9,3.2c-0.6,0.5-1,1.2-1,2v2.5
	c0,0.5,0.4,0.9,0.9,0.9c0.5,0,0.9-0.4,0.9-0.9v-2.5c0-0.3,0.1-0.5,0.3-0.7c2.2-1.8,4.5-3,5-3.2c0.4-0.2,0.6-0.5,0.6-1L7.7,20.7
	L7.7,20.7z M7.7,20.7"/>
</svg>
