<?xml version="1.0" encoding="utf-8"?>
<!-- Generator: Adobe Illustrator 16.0.2, SVG Export Plug-In . SVG Version: 6.00 Build 0)  -->
<!DOCTYPE svg PUBLIC "-//W3C//DTD SVG 1.1//EN" "http://www.w3.org/Graphics/SVG/1.1/DTD/svg11.dtd">
<svg version="1.1" id="Layer_1" xmlns="http://www.w3.org/2000/svg" xmlns:xlink="http://www.w3.org/1999/xlink" x="0px" y="0px"
	 width="18.008px" height="17.998px" viewBox="0 0 18.008 17.998" enable-background="new 0 0 18.008 17.998" xml:space="preserve">
<g>
	<path d="M17.889,0.114C17.798,0.022,17.679-0.012,17.561,0H0.449C0.333-0.01,0.211,0.024,0.124,0.114
		C0.085,0.15,0.06,0.191,0.04,0.238C0.016,0.29,0,0.347,0,0.41c0,0.12,0.052,0.223,0.134,0.299L6.136,9.11v8.451
		c-0.004,0.063,0.006,0.125,0.031,0.184c0.061,0.147,0.207,0.253,0.378,0.253c0.124,0,0.232-0.057,0.306-0.144l4.901-4.89
		c0.093-0.094,0.126-0.219,0.11-0.34V9.112l6.026-8.419C18.048,0.531,18.048,0.273,17.889,0.114L17.889,0.114z M11.161,8.703
		c-0.086,0.085-0.122,0.198-0.116,0.31v3.5l-4.09,4.079V9.012C6.958,8.9,6.923,8.788,6.837,8.703L1.206,0.818h15.598L11.161,8.703z
		 M11.161,8.703"/>
</g>
</svg>
