<?xml version="1.0" encoding="utf-8"?>
<!-- Generator: Adobe Illustrator 16.0.2, SVG Export Plug-In . SVG Version: 6.00 Build 0)  -->
<!DOCTYPE svg PUBLIC "-//W3C//DTD SVG 1.1//EN" "http://www.w3.org/Graphics/SVG/1.1/DTD/svg11.dtd">
<svg version="1.1" id="Layer_1" xmlns="http://www.w3.org/2000/svg" xmlns:xlink="http://www.w3.org/1999/xlink" x="0px" y="0px"
	 width="48px" height="48px" viewBox="0 0 48 48" enable-background="new 0 0 48 48" xml:space="preserve">
<path fill="#9A88C0" d="M30.764,0C21.26,0,13.526,7.732,13.526,17.237c0,4.473,1.712,8.552,4.517,11.62l-1.773,1.772
	c-0.576-0.371-1.248-0.57-1.951-0.57c-0.968,0-1.877,0.377-2.562,1.062L1.061,41.816C0.377,42.5,0,43.41,0,44.377
	c0,0.968,0.377,1.878,1.061,2.562C1.744,47.623,2.656,48,3.623,48c0.968,0,1.877-0.377,2.562-1.062l10.694-10.696
	c0.686-0.684,1.063-1.594,1.063-2.561c0-0.754-0.23-1.473-0.654-2.077l1.748-1.748c3.08,2.863,7.203,4.617,11.729,4.617
	C40.268,34.474,48,26.741,48,17.237S40.268,0,30.764,0L30.764,0z M15.883,32.116c0.42,0.418,0.649,0.974,0.649,1.565
	c0,0.393-0.103,0.769-0.293,1.1l-3.021-3.021c0.331-0.19,0.707-0.292,1.1-0.292C14.91,31.468,15.466,31.697,15.883,32.116
	L15.883,32.116z M5.773,45.356l-3.131-3.131l9.524-9.523l3.132,3.13L5.773,45.356z M2.059,45.942
	c-0.42-0.418-0.649-0.974-0.649-1.565c0-0.393,0.101-0.769,0.293-1.101l3.021,3.022c-0.331,0.19-0.707,0.292-1.1,0.292
	C3.031,46.591,2.476,46.361,2.059,45.942L2.059,45.942z M30.764,33.064c-8.729,0-15.828-7.1-15.828-15.828
	c0-8.728,7.1-15.828,15.828-15.828c8.727,0,15.827,7.1,15.827,15.828C46.591,25.965,39.49,33.064,30.764,33.064L30.764,33.064z
	 M30.764,33.064"/>
<path fill="#F98C67" d="M30.764,3.006c-7.848,0-14.231,6.384-14.231,14.231c0,7.846,6.384,14.231,14.231,14.231
	c7.847,0,14.23-6.385,14.23-14.231C44.994,9.39,38.61,3.006,30.764,3.006L30.764,3.006z M30.764,30.059
	c-7.07,0-12.822-5.752-12.822-12.822S23.693,4.415,30.764,4.415c7.068,0,12.821,5.752,12.821,12.822S37.832,30.059,30.764,30.059
	L30.764,30.059z M30.764,30.059"/>
<path fill="#F98C67" d="M41.522,14.029c-1.084-3.644-3.907-6.467-7.552-7.551c-0.373-0.111-0.766,0.101-0.875,0.474
	c-0.111,0.373,0.101,0.766,0.473,0.876c3.186,0.949,5.656,3.418,6.604,6.604c0.092,0.307,0.372,0.504,0.676,0.504
	c0.066,0,0.135-0.009,0.201-0.029C41.422,14.794,41.634,14.401,41.522,14.029L41.522,14.029z M41.522,14.029"/>
</svg>
