<svg id="Layer_1" data-name="Layer 1" xmlns="http://www.w3.org/2000/svg" viewBox="0 0 221.93 81.17"><defs><style>.cls-1{fill:#fff;}</style></defs><title>aerotage-logo</title><path class="cls-1" d="M64.24,142.15h4.89l3.61-9.85q-3.39,2.32-6.61,4.66Z" transform="translate(-32 -83.91)"/><path class="cls-1" d="M90.65,120.89l7.8,21.27h4.89L94.72,118.5q-2.06,1.19-4.06,2.39" transform="translate(-32 -83.91)"/><path class="cls-1" d="M83.79,102.16l4.14,11.27q2-1.2,4.08-2.37L87.36,98.31H80.22l-9.54,26.19q3.19-2.23,6.55-4.43Z" transform="translate(-32 -83.91)"/><path class="cls-1" d="M160.14,83.91S68.87,111,32,165.08c.05-.09,24.5-38.43,128.14-81.17" transform="translate(-32 -83.91)"/><path class="cls-1" d="M130.76,117.34v4.14a9.3,9.3,0,0,1,1.38-1.36,11.47,11.47,0,0,1,3.14-1.79c.54-.2,1.05-.36,1.55-.5a17.23,17.23,0,0,1,3.55-.52v3.18a10.64,10.64,0,0,0-3.16.43,9.61,9.61,0,0,0-2.45,1.14,8.86,8.86,0,0,0-1.82,1.59,10,10,0,0,0-1.24,1.77,8.51,8.51,0,0,0-.7,1.69,5.17,5.17,0,0,0-.22,1.34v13.91h-3v-25Z" transform="translate(-32 -83.91)"/><path class="cls-1" d="M151.31,116.35a11.26,11.26,0,0,1,4.75,1,12.33,12.33,0,0,1,3.9,2.79,13.19,13.19,0,0,1,2.63,4.14,13.84,13.84,0,0,1,0,10.11,13.2,13.2,0,0,1-2.63,4.14,12.29,12.29,0,0,1-3.9,2.79,11.58,11.58,0,0,1-9.5,0,12.33,12.33,0,0,1-3.9-2.79,13.19,13.19,0,0,1-2.63-4.14,13.84,13.84,0,0,1,0-10.11,13.18,13.18,0,0,1,2.63-4.14,12.37,12.37,0,0,1,3.9-2.79,11.25,11.25,0,0,1,4.75-1m9.29,13a10,10,0,0,0-.73-3.83,10.16,10.16,0,0,0-2-3.14,9.43,9.43,0,0,0-3-2.12,8.76,8.76,0,0,0-7.24,0,9.46,9.46,0,0,0-3,2.12,9.94,9.94,0,0,0-2,3.14,10.57,10.57,0,0,0,0,7.7,10,10,0,0,0,2,3.14,9.38,9.38,0,0,0,3,2.11,8.9,8.9,0,0,0,7.24,0,9.35,9.35,0,0,0,3-2.11,10.16,10.16,0,0,0,2.73-7" transform="translate(-32 -83.91)"/><path class="cls-1" d="M168.42,104.13v11.64h9.78v3.3h-9.8v10.41a9.76,9.76,0,0,0,.72,3.76,9.12,9.12,0,0,0,2,3,9.63,9.63,0,0,0,3.1,2,10.15,10.15,0,0,0,3.94.74v3.31a12.64,12.64,0,0,1-12-8.12,12.9,12.9,0,0,1-.89-4.71v-25.4Z" transform="translate(-32 -83.91)"/><path class="cls-1" d="M201.78,116.67v25.7h-3V138a9.93,9.93,0,0,1-2.88,2.52,15.16,15.16,0,0,1-3,1.3,14.27,14.27,0,0,1-3.27.55,11,11,0,0,1-4.75-1,12.16,12.16,0,0,1-3.83-2.81,13.34,13.34,0,0,1-2.55-4.09,13.27,13.27,0,0,1,0-9.78,13.28,13.28,0,0,1,2.55-4.1,12.16,12.16,0,0,1,3.84-2.82,11.14,11.14,0,0,1,4.78-1,14.18,14.18,0,0,1,4.73,1.05,11,11,0,0,1,1.52.77,11.87,11.87,0,0,1,1.48,1.07,9.26,9.26,0,0,1,1.35,1.43v-4.32Zm-2.94,12.85a10.06,10.06,0,0,0-.72-3.8,9.94,9.94,0,0,0-2-3.11,9.29,9.29,0,0,0-2.91-2.09,8.65,8.65,0,0,0-7.13,0,9.2,9.2,0,0,0-2.92,2.09,9.9,9.9,0,0,0-2,3.11,10.22,10.22,0,0,0,2,10.72,9.23,9.23,0,0,0,2.92,2.08,8.63,8.63,0,0,0,7.13,0,9.32,9.32,0,0,0,2.91-2.08,10.13,10.13,0,0,0,2.68-6.91" transform="translate(-32 -83.91)"/><path class="cls-1" d="M225,116.67l0,4.49a10.61,10.61,0,0,0-2.93-2.58,14.71,14.71,0,0,0-3-1.34,13.21,13.21,0,0,0-3.27-.57,11.53,11.53,0,0,0-4.75,1,12.31,12.31,0,0,0-3.91,2.74,12.88,12.88,0,0,0-2.65,4.13,13.6,13.6,0,0,0-1,5.17,13.35,13.35,0,0,0,1,5.15,13.17,13.17,0,0,0,2.66,4.12,12.22,12.22,0,0,0,3.95,2.74,11.88,11.88,0,0,0,4.83,1,15.11,15.11,0,0,0,3.29-.57,11.6,11.6,0,0,0,1.45-.52,12.28,12.28,0,0,0,1.5-.78,10.08,10.08,0,0,0,1.47-1.09,10.58,10.58,0,0,0,1.34-1.45v4.79a6.32,6.32,0,0,1-.25,1.63,9.25,9.25,0,0,1-.74,1.85,10.3,10.3,0,0,1-1.26,1.86,9,9,0,0,1-1.83,1.64,9.46,9.46,0,0,1-2.42,1.16,9.93,9.93,0,0,1-3,.43v0c-.24,0-.47,0-.71,0a11.59,11.59,0,0,1-7.77-3.94c-.77.74-1.55,1.47-2.33,2.2a14.74,14.74,0,0,0,9.86,4.93c.32,0,.64,0,1,0v0a13.93,13.93,0,0,0,1.46-.08l.23,0,.52-.07.71-.12h0a10.35,10.35,0,0,0,1.06-.29,12.11,12.11,0,0,0,3.17-1.58,12,12,0,0,0,2.42-2.25,14.68,14.68,0,0,0,1.69-2.57,12.7,12.7,0,0,0,1-2.57,9.2,9.2,0,0,0,.33-2.26V116.67Zm-.65,16.89a10,10,0,0,1-2,3.14,9.28,9.28,0,0,1-2.94,2.11,8.79,8.79,0,0,1-7.2,0,9.24,9.24,0,0,1-3-2.11,10,10,0,0,1-2-3.14,10.53,10.53,0,0,1,0-7.67,10,10,0,0,1,2-3.14,9.31,9.31,0,0,1,3-2.11,8.79,8.79,0,0,1,7.2,0,9.35,9.35,0,0,1,2.94,2.11,10,10,0,0,1,2,3.14,10.53,10.53,0,0,1,0,7.67" transform="translate(-32 -83.91)"/><path class="cls-1" d="M119.55,137.26a8.38,8.38,0,0,1-2,1.17,11.81,11.81,0,0,1-1.8.59,12,12,0,0,1-1.83.26,8.23,8.23,0,0,1-5.44-1.87,8.31,8.31,0,0,1-1.68-1.87,14.13,14.13,0,0,1-1.12-2.07,11.41,11.41,0,0,1-.65-1.93c-.14-.61-.24-1.1-.28-1.48H126a14.52,14.52,0,0,0-.35-3.15,14.75,14.75,0,0,0-1-3.07,14.55,14.55,0,0,0-1.7-2.78,11.24,11.24,0,0,0-5.37-3.77,11.37,11.37,0,0,0-3.63-.56,11.12,11.12,0,0,0-3.82.62,11.45,11.45,0,0,0-5.37,4,14.61,14.61,0,0,0-1.6,2.71,14.19,14.19,0,0,0-.93,2.78,11.77,11.77,0,0,0-.31,2.52,13.91,13.91,0,0,0,.32,2.87,15.46,15.46,0,0,0,.94,3,13.6,13.6,0,0,0,1.61,2.75,11.56,11.56,0,0,0,2.32,2.31,10.83,10.83,0,0,0,3,1.59,11.63,11.63,0,0,0,3.8.59,13,13,0,0,0,4.88-1.24,13.87,13.87,0,0,0,2-1.18,11.42,11.42,0,0,0,1.93-1.75,13.15,13.15,0,0,0,1.68-2.45c.07-.12.12-.28.19-.41h-3.25a8.88,8.88,0,0,1-1.79,1.92M106.3,124a9.41,9.41,0,0,1,1.83-2,8.52,8.52,0,0,1,2-1.24A12.27,12.27,0,0,1,112,120a12,12,0,0,1,1.9-.27,11.91,11.91,0,0,1,1.9.27,12.27,12.27,0,0,1,1.86.63,8.47,8.47,0,0,1,2,1.24,9.44,9.44,0,0,1,1.83,2,9.84,9.84,0,0,1,1.31,3.06H105A9.75,9.75,0,0,1,106.3,124" transform="translate(-32 -83.91)"/><path class="cls-1" d="M247.46,137.26a8.33,8.33,0,0,1-2,1.17,11.79,11.79,0,0,1-1.8.59,12.1,12.1,0,0,1-1.83.26,8.24,8.24,0,0,1-5.44-1.87,8.29,8.29,0,0,1-1.68-1.87,14.19,14.19,0,0,1-1.12-2.07,11.41,11.41,0,0,1-.65-1.93,15,15,0,0,1-.28-1.48h21.22a14.71,14.71,0,0,0-.35-3.15,14.92,14.92,0,0,0-1-3.07,14.45,14.45,0,0,0-1.7-2.78,11.21,11.21,0,0,0-2.36-2.26,11.24,11.24,0,0,0-6.64-2.08,11.14,11.14,0,0,0-3.82.62A11.44,11.44,0,0,0,235,119a11.6,11.6,0,0,0-2.31,2.32A14.51,14.51,0,0,0,231,124a14.31,14.31,0,0,0-.93,2.78,11.92,11.92,0,0,0-.3,2.52,14,14,0,0,0,.32,2.87,15.32,15.32,0,0,0,.95,3,13.49,13.49,0,0,0,1.61,2.75,11.43,11.43,0,0,0,2.32,2.31,10.8,10.8,0,0,0,3,1.59,11.65,11.65,0,0,0,3.8.59,13,13,0,0,0,4.88-1.24,13.87,13.87,0,0,0,2-1.18,11.21,11.21,0,0,0,1.92-1.75,13.13,13.13,0,0,0,1.68-2.45c.07-.12.12-.28.18-.41h-3.25a8.91,8.91,0,0,1-1.79,1.92M234.22,124a9.44,9.44,0,0,1,1.83-2,8.51,8.51,0,0,1,2-1.24,12.38,12.38,0,0,1,1.86-.63,6.78,6.78,0,0,1,3.8,0,12.29,12.29,0,0,1,1.86.63,8.52,8.52,0,0,1,2,1.24,9.4,9.4,0,0,1,1.83,2,9.73,9.73,0,0,1,1.31,3.06H232.91a9.87,9.87,0,0,1,1.31-3.06" transform="translate(-32 -83.91)"/><path class="cls-1" d="M64.26,153.35h.94L66.77,162h0l2.48-8.69h1.29L73,162h0l1.57-8.69h.94l-1.83,9.81H72.56l-2.62-8.83h0l-2.61,8.83H66Z" transform="translate(-32 -83.91)"/><path class="cls-1" d="M83.17,161.39a3.3,3.3,0,0,1-3.11,2c-2,0-3.43-1.51-3.43-3.92S78,155.52,80,155.52s3.32,1.41,3.32,3.92v.27H77.55A2.54,2.54,0,0,0,80,162.52,2.36,2.36,0,0,0,82.4,161Zm-.78-2.45A2.34,2.34,0,0,0,80,156.36a2.47,2.47,0,0,0-2.42,2.58Z" transform="translate(-32 -83.91)"/><path class="cls-1" d="M88.85,155.73h.81v.71h0a2.37,2.37,0,0,1,1.93-.92,2.12,2.12,0,0,1,2,1.12h0a2.59,2.59,0,0,1,2.16-1.12,2.34,2.34,0,0,1,2.45,2.59v5h-.91v-4.71c0-1.43-.52-2.09-1.6-2.09s-1.74.7-1.74,2v4.8h-.91v-4.71c0-1.43-.49-2.09-1.6-2.09s-1.71.94-1.71,2v4.8h-.91Z" transform="translate(-32 -83.91)"/><path class="cls-1" d="M105,162.3h0a2.64,2.64,0,0,1-2.35,1.06c-1.67,0-2.44-1-2.44-2.09s.66-1.86,2.48-2.33c1.19-.31,2.2-.55,2.2-1.37,0-.64-.46-1.22-1.65-1.22a1.74,1.74,0,0,0-1.89,1.57l-.87-.2a2.54,2.54,0,0,1,2.72-2.21c1.6,0,2.68.71,2.68,2.54v5.1H105Zm-3.91-1.08c0,.71.34,1.3,1.6,1.3,1.48,0,2.24-.81,2.24-1.72v-2h0c-.1.24-.45.5-2,.94S101.08,160.51,101.08,161.22Z" transform="translate(-32 -83.91)"/><path class="cls-1" d="M108.21,152.93h.91v6.3h0l3.28-3.5h1.26L111,158.64l3.1,4.51H113l-2.68-3.88h0l-1.15,1.22v2.66h-.91Z" transform="translate(-32 -83.91)"/><path class="cls-1" d="M121.37,161.39a3.3,3.3,0,0,1-3.11,2c-2,0-3.43-1.51-3.43-3.92s1.41-3.92,3.38-3.92,3.32,1.41,3.32,3.92v.27h-5.77a2.54,2.54,0,0,0,2.48,2.82A2.36,2.36,0,0,0,120.6,161Zm-.78-2.45a2.34,2.34,0,0,0-2.38-2.58,2.47,2.47,0,0,0-2.42,2.58Z" transform="translate(-32 -83.91)"/><path class="cls-1" d="M131.38,162.3h0a2.64,2.64,0,0,1-2.35,1.06c-1.67,0-2.44-1-2.44-2.09s.66-1.86,2.48-2.33c1.19-.31,2.2-.55,2.2-1.37,0-.64-.46-1.22-1.65-1.22a1.74,1.74,0,0,0-1.89,1.57l-.87-.2a2.54,2.54,0,0,1,2.72-2.21c1.6,0,2.68.71,2.68,2.54v5.1h-.84Zm-3.91-1.08c0,.71.34,1.3,1.6,1.3,1.48,0,2.24-.81,2.24-1.72v-2h0c-.1.24-.45.5-2,.94S127.47,160.51,127.47,161.22Z" transform="translate(-32 -83.91)"/><path class="cls-1" d="M134.6,153.35h1.13v1.16H134.6Zm.11,2.38h.91v7.42h-.91Z" transform="translate(-32 -83.91)"/><path class="cls-1" d="M138.25,155.73h.88v.8h0a1.73,1.73,0,0,1,1.54-.92,1.21,1.21,0,0,1,.63.14l-.18.92a1.08,1.08,0,0,0-.59-.11c-.78,0-1.4.55-1.4,1.76v4.83h-.91Z" transform="translate(-32 -83.91)"/><path class="cls-1" d="M149,160.54a3,3,0,0,1-3,2.83c-1.95,0-3.33-1.39-3.33-3.92s1.5-3.92,3.33-3.92a3,3,0,0,1,3,2.75l-.9.14a2.14,2.14,0,0,0-2.1-2c-1.43,0-2.44,1.11-2.44,3.08s.94,3.08,2.42,3.08a2.2,2.2,0,0,0,2.12-2.16Z" transform="translate(-32 -83.91)"/><path class="cls-1" d="M150.91,155.73h.88v.8h0a1.73,1.73,0,0,1,1.54-.92,1.21,1.21,0,0,1,.63.14l-.18.92a1.07,1.07,0,0,0-.59-.11c-.78,0-1.4.55-1.4,1.76v4.83h-.91Z" transform="translate(-32 -83.91)"/><path class="cls-1" d="M160.07,162.3h0a2.64,2.64,0,0,1-2.35,1.06c-1.67,0-2.44-1-2.44-2.09s.66-1.86,2.48-2.33c1.19-.31,2.2-.55,2.2-1.37,0-.64-.46-1.22-1.65-1.22a1.74,1.74,0,0,0-1.89,1.57l-.87-.2a2.54,2.54,0,0,1,2.72-2.21c1.6,0,2.68.71,2.68,2.54v5.1h-.84Zm-3.91-1.08c0,.71.34,1.3,1.6,1.3,1.49,0,2.24-.81,2.24-1.72v-2h0c-.1.24-.45.5-2,.94S156.16,160.51,156.16,161.22Z" transform="translate(-32 -83.91)"/><path class="cls-1" d="M163.55,156.57h-1v-.84h1V155c0-1.33.64-1.65,1.51-1.65h1.11v.84h-1c-.6,0-.76.14-.76,1v.59h1.82v.84h-1.82v6.58h-.91Z" transform="translate(-32 -83.91)"/><path class="cls-1" d="M168.09,156.57h-1v-.84h1.06v-1.82H169v1.82h1.82v.84H169V161c0,.85.15,1.23.9,1.23h.53v.9h-.56c-1.23,0-1.78-.74-1.78-2Z" transform="translate(-32 -83.91)"/><path class="cls-1" d="M176.63,160.46c.15,1.39.83,2.09,2.16,2.09s1.88-.57,1.88-1.3-.38-1.15-2.2-1.64-2.49-1.05-2.49-2.13.87-2,2.51-2a2.62,2.62,0,0,1,2.8,2.12l-.84.22a1.85,1.85,0,0,0-2-1.54c-1.15,0-1.64.6-1.64,1.16s.38.88,2.07,1.37c2,.58,2.63,1.13,2.63,2.38,0,1-.74,2.13-2.76,2.13a2.8,2.8,0,0,1-3.07-2.76Z" transform="translate(-32 -83.91)"/><path class="cls-1" d="M183,159.44c0-2.54,1.55-3.92,3.33-3.92s3.26,1.39,3.26,3.92-1.43,3.92-3.26,3.92S183,162,183,159.44Zm5.69,0c0-2-1-3.08-2.35-3.08s-2.42,1-2.42,3.08,1.11,3.08,2.42,3.08S188.7,161.45,188.7,159.44Z" transform="translate(-32 -83.91)"/><path class="cls-1" d="M196,162.3h0a2.64,2.64,0,0,1-2.35,1.06c-1.67,0-2.44-1-2.44-2.09s.66-1.86,2.48-2.33c1.19-.31,2.2-.55,2.2-1.37,0-.64-.46-1.22-1.65-1.22a1.74,1.74,0,0,0-1.89,1.57l-.87-.2a2.54,2.54,0,0,1,2.72-2.21c1.6,0,2.68.71,2.68,2.54v5.1H196Zm-3.91-1.08c0,.71.34,1.3,1.6,1.3,1.49,0,2.24-.81,2.24-1.72v-2h0c-.1.24-.45.5-2,.94S192.05,160.51,192.05,161.22Z" transform="translate(-32 -83.91)"/><path class="cls-1" d="M199.18,155.73h.88v.8h0a1.73,1.73,0,0,1,1.54-.92,1.21,1.21,0,0,1,.63.14l-.18.92a1.08,1.08,0,0,0-.59-.11c-.78,0-1.4.55-1.4,1.76v4.83h-.91Z" transform="translate(-32 -83.91)"/></svg>