<?xml version="1.0" encoding="utf-8"?>
<!-- Generator: Adobe Illustrator 15.0.0, SVG Export Plug-In . SVG Version: 6.00 Build 0)  -->
<!DOCTYPE svg PUBLIC "-//W3C//DTD SVG 1.1//EN" "http://www.w3.org/Graphics/SVG/1.1/DTD/svg11.dtd">
<svg version="1.1" id="Layer_1" xmlns="http://www.w3.org/2000/svg" xmlns:xlink="http://www.w3.org/1999/xlink" x="0px" y="0px"
	 width="16px" height="14px" viewBox="0 0 16 14" enable-background="new 0 0 16 14" xml:space="preserve">
<g>
	<path fill-rule="evenodd" clip-rule="evenodd" fill="#6A6A6A" d="M8,3.143c-2.702,0-4.984,1.375-4.984,3.002
		c0,0.117,0.102,0.213,0.225,0.213c0.126,0,0.228-0.097,0.228-0.213c0-1.371,2.117-2.572,4.531-2.572
		c0.124,0,0.225-0.097,0.225-0.216C8.225,3.239,8.124,3.143,8,3.143L8,3.143z M8,3.143"/>
	<path fill-rule="evenodd" clip-rule="evenodd" fill="#6A6A6A" d="M8,1C3.996,1,0.75,3.302,0.75,6.145
		c0,1.768,1.259,3.327,3.175,4.252c0,0.013-0.001,0.021-0.001,0.033c0,0.768-0.609,1.596-0.874,2.03
		c-0.021,0.047-0.034,0.099-0.034,0.153C3.016,12.826,3.2,13,3.428,13c0.041,0,0.117-0.011,0.115-0.005
		c1.416-0.219,2.75-1.449,3.06-1.807C7.053,11.25,7.52,11.285,8,11.285c4.001,0,7.25-2.301,7.25-5.141C15.25,3.302,12.001,1,8,1L8,1
		z M8,10.43c-0.416,0-0.842-0.031-1.267-0.09c-0.046-0.006-0.089-0.008-0.131-0.008c-0.27,0-0.526,0.113-0.702,0.312
		c-0.193,0.224-0.745,0.722-1.398,1.089c0.177-0.384,0.315-0.813,0.326-1.257c0.001-0.026,0.004-0.054,0.004-0.079
		c0-0.322-0.191-0.615-0.494-0.764c-1.679-0.81-2.68-2.116-2.68-3.488C1.658,3.78,4.502,1.858,8,1.858
		c3.496,0,6.343,1.921,6.343,4.286C14.343,8.507,11.498,10.43,8,10.43L8,10.43z M8,10.43"/>
</g>
</svg>
