<?xml version="1.0" encoding="utf-8"?>
<!-- Generator: Adobe Illustrator 15.0.0, SVG Export Plug-In . SVG Version: 6.00 Build 0)  -->
<!DOCTYPE svg PUBLIC "-//W3C//DTD SVG 1.1//EN" "http://www.w3.org/Graphics/SVG/1.1/DTD/svg11.dtd">
<svg version="1.1" id="Layer_1" xmlns="http://www.w3.org/2000/svg" xmlns:xlink="http://www.w3.org/1999/xlink" x="0px" y="0px"
	 width="525px" height="25px" viewBox="0 0 525 25" enable-background="new 0 0 525 25" xml:space="preserve">
<path id="edit_note_4" fill="#616161" d="M13.311,4.031H4.651v15.999h12.125V8.033L13.311,4.031z M13.311,5.445l2.241,2.588h-2.241
	V5.445z M15.907,19.029H5.521V5.032h6.924v4h3.462V19.029z M11.583,8.033h-5.2V7.032h5.2V8.033z M6.383,10.031h8.662v0.999H6.383
	V10.031z M6.383,13.031h8.662v1H6.383V13.031z M6.383,16.029h8.662v1H6.383V16.029z"/>
<g>
	<path fill="#FFFFFF" d="M16.775,12.093c-2.208,0-3.999,1.793-3.999,3.999c0,2.209,1.791,4.002,3.999,4.002
		c2.209,0,4.001-1.793,4.001-4.002C20.776,13.887,18.984,12.093,16.775,12.093z"/>
	<path fill="none" stroke="#FFFFFF" stroke-width="0.5" stroke-miterlimit="10" d="M16.775,12.093c-2.208,0-3.999,1.793-3.999,3.999
		c0,2.209,1.791,4.002,3.999,4.002c2.209,0,4.001-1.793,4.001-4.002C20.776,13.887,18.984,12.093,16.775,12.093z"/>
	<path fill="none" stroke="#5F5F5F" stroke-width="0.2" stroke-miterlimit="10" d="M16.775,12.093c-2.208,0-3.999,1.793-3.999,3.999
		c0,2.209,1.791,4.002,3.999,4.002c2.209,0,4.001-1.793,4.001-4.002C20.776,13.887,18.984,12.093,16.775,12.093z"/>
</g>
<g>
	<polygon fill="#5F5F5F" points="16.029,16.293 18.394,17.936 18.501,17.729 16.142,16.084 	"/>
	<polygon fill="#5F5F5F" points="16.276,15.824 18.641,17.467 18.911,16.949 16.552,15.305 	"/>
	<polygon fill="#5F5F5F" points="19.051,16.686 19.188,16.43 16.829,14.783 16.694,15.041 	"/>
	<polygon fill="#5F5F5F" points="15.586,14.482 15.222,15.164 15.869,16.18 16.669,14.674 	"/>
	<polygon fill="#5F5F5F" points="14.688,14.324 15.139,15.027 15.439,14.459 	"/>
</g>
<path fill="#4E4E4E" d="M44.5,16.5c0,1.657-1.343,3-3,3h-8c-1.656,0-3-1.343-3-3v-8c0-1.657,1.344-3,3-3h8c1.657,0,3,1.343,3,3V16.5
	z"/>
<rect x="36.5" y="7.516" fill="#FFFFFF" width="2.016" height="6.984"/>
<rect x="36.5" y="15.5" fill="#FFFFFF" width="2.016" height="2.016"/>
<path fill="#626464" d="M69.998,20.498H57.938V4.5h12.061V20.498z M66,4.5l3.998,3.984V4.5H66z"/>
<g>
	<polygon fill="#626464" points="57.438,16 54.474,16 54.432,11.999 57.438,11.999 57.438,8.453 63.669,13.492 57.438,19.704 	"/>
	<path fill="#FFFFFF" d="M57.938,9.5l4.984,4.031L57.938,18.5v-3h-2.969l-0.031-3.001h3V9.5 M56.938,7.405V9.5v1.999h-2h-1.01
		l0.01,1.01l0.031,3.001l0.01,0.989h0.99h1.969v2v2.409l1.706-1.701l4.984-4.969l0.788-0.785l-0.865-0.7l-4.984-4.031L56.938,7.405
		L56.938,7.405z"/>
</g>
<g>
	<path fill="#434343" d="M86.738,4.563h1.482c1.98,0.489,2.946,3.092,1.707,4.742c-1.081,1.647-3.76,1.654-4.846,0.013
		C83.834,7.675,84.785,5.095,86.738,4.563z"/>
	<path fill="#434343" d="M83.102,12.007c0.548-0.443,1.321-0.675,1.993-0.409c0.881,0.75,1.048,2.023,1.837,2.848
		c0.37,0.284,0.744,0.287,1.123,0.013c0.799-0.817,0.963-2.097,1.837-2.848c0.675-0.295,1.462-0.04,2.018,0.403
		c1.872,1.445,2.773,4.015,2.372,6.348c-0.377,1.533-2.085,1.898-3.41,2.076h-6.729c-1.325-0.176-3.031-0.533-3.417-2.061
		C80.307,16.039,81.218,13.455,83.102,12.007z"/>
</g>
<g>
	<path fill="#424242" d="M108.499,17.002V20h8.002v-5h-8.002V17.002z M109.5,16.001h6v1.001h-6V16.001z M109.5,17.998h6v1.001h-6
		V17.998z M109.5,17.998"/>
	<path fill="#424242" d="M116.501,7.998V5h-8.002v5h8.002V7.998z M116.501,7.998"/>
	<path fill="#424242" d="M118.499,7.998h-1.002v3.003h-10V7.998h-0.996c-1,0-2.001,1.001-2.001,2.002v5
		c0,1.001,1.001,2.002,2.001,2.002h0.996v-3.003h10v3.003h1.002c1,0,2.001-1.001,2.001-2.002v-5
		C120.5,8.999,119.499,7.998,118.499,7.998L118.499,7.998z M118.499,7.998"/>
</g>
<g>
	<path fill="#636363" d="M137.502,14.294l-9.097-8.293H146.6L137.502,14.294z M137.502,14.294"/>
	<path fill="#636363" d="M133.878,12.498l-6.375,5.812V6.686L133.878,12.498z M133.878,12.498"/>
	<path fill="#636363" d="M134.705,13.251l2.797,2.551l2.797-2.551l6.307,5.748h-18.206L134.705,13.251z M134.705,13.251"/>
	<path fill="#636363" d="M141.125,12.498l6.375-5.813V18.31L141.125,12.498z M141.125,12.498"/>
</g>
<g>
	<g>
		<defs>
			<rect id="SVGID_1_" x="158.701" y="6.875" width="8.299" height="11.25"/>
		</defs>
		<clipPath id="SVGID_2_">
			<use xlink:href="#SVGID_1_"  overflow="visible"/>
		</clipPath>
		<path clip-path="url(#SVGID_2_)" fill="#878787" d="M159.859,7.172c0.211,0,0.424,0.063,0.584,0.187l6.314,4.843
			c0.321,0.247,0.321,0.649,0,0.896l-6.314,4.844c-0.321,0.247-0.846,0.247-1.169,0c-0.323-0.249-0.323-0.648,0-0.898l5.729-4.393
			l-5.729-4.395c-0.323-0.248-0.323-0.649,0-0.896C159.436,7.235,159.646,7.172,159.859,7.172L159.859,7.172z M159.859,7.172"/>
	</g>
</g>
<path fill="#626464" d="M192.341,16.179l-1.162,1.161c-0.213,0.214-0.561,0.214-0.773,0l-2.905-2.902l-2.903,2.902
	c-0.214,0.214-0.562,0.214-0.774-0.001l-1.164-1.16c-0.211-0.214-0.211-0.56,0-0.775l2.904-2.902l-2.902-2.903
	c-0.213-0.214-0.213-0.563,0-0.774l1.162-1.162c0.213-0.215,0.562-0.215,0.774,0l2.903,2.904l2.904-2.904
	c0.214-0.215,0.562-0.215,0.773,0l1.162,1.16c0.213,0.213,0.213,0.562,0.001,0.776l-2.904,2.903l2.904,2.902
	C192.553,15.619,192.553,15.965,192.341,16.179z"/>
<g>
	<g>
		<defs>
			<rect id="SVGID_3_" x="208.35" y="6.875" width="8" height="11"/>
		</defs>
		<clipPath id="SVGID_4_">
			<use xlink:href="#SVGID_3_"  overflow="visible"/>
		</clipPath>
		<path clip-path="url(#SVGID_4_)" fill="#878787" d="M215.209,17.855c-0.203,0-0.408-0.063-0.563-0.183l-6.087-4.735
			c-0.31-0.241-0.31-0.635,0-0.875l6.087-4.736c0.311-0.242,0.815-0.242,1.127,0c0.312,0.243,0.312,0.634,0,0.878l-5.522,4.295
			l5.522,4.297c0.312,0.242,0.312,0.635,0,0.877C215.618,17.792,215.415,17.855,215.209,17.855L215.209,17.855z M215.209,17.855"/>
	</g>
</g>
<g>
	<path fill="#555555" d="M232.247,21l1.003-6.15L229,10.494l5.873-0.898L237.499,4l2.628,5.596L246,10.494l-4.25,4.355l1.003,6.15
		l-5.254-2.903L232.247,21z M237.499,17.379l4.454,2.463l-0.852-5.215l3.604-3.691l-4.979-0.76l-2.228-4.745l-2.226,4.745
		l-4.979,0.76l3.602,3.691l-0.85,5.215L237.499,17.379z M237.499,17.379"/>
</g>
<g>
	<path fill="#626464" d="M264.314,9.784c1.23-1.243,2.562-2.383,4.031-3.284c0.053,0.073,0.104,0.147,0.154,0.222
		c-0.168,0.17-0.339,0.338-0.508,0.507c-1.879,1.894-3.548,4.029-4.959,6.345c-0.967,1.575-1.813,3.233-2.587,4.926h-0.14
		c-1.27-1.582-2.538-3.163-3.807-4.744c0.053-0.072,0.107-0.144,0.163-0.213c1.036,0.627,2.07,1.258,3.106,1.885
		C261.122,13.405,262.625,11.492,264.314,9.784z"/>
</g>
<g>
	<rect x="278.5" y="0.492" fill="#4F4F51" width="18" height="3"/>
	<polygon fill="#4F4F51" points="281.5,10.523 286.5,5.555 288.469,5.555 293.375,10.523 	"/>
	<rect x="284.5" y="10.508" fill="#4F4F51" width="6" height="14"/>
	<rect x="286.55" y="4.487" fill="#4F4F51" width="1.9" height="1.067"/>
</g>
<g>
	<g>
		<path fill="#555555" d="M317.134,10.518l-0.441,0.443l-2.652-2.652l0.442-0.442c0.488-0.488,1.279-0.488,1.768,0l0.884,0.884
			C317.622,9.238,317.622,10.029,317.134,10.518L317.134,10.518z M310.946,15.82c-0.122,0.123-0.122,0.32,0,0.443
			c0.122,0.121,0.32,0.121,0.442,0l4.861-4.861l-0.442-0.441L310.946,15.82z M308.736,13.611c-0.122,0.123-0.122,0.32,0,0.441
			c0.122,0.123,0.32,0.123,0.442,0l4.861-4.86l-0.441-0.442L308.736,13.611z M314.481,9.634l-4.861,4.862
			c-0.244,0.242-0.243,0.639,0,0.883c0.244,0.244,0.64,0.246,0.885,0l4.861-4.861L314.481,9.634z M310.504,16.703
			c-0.15-0.148-0.222-0.338-0.249-0.533c-0.063,0.01-0.127,0.018-0.192,0.018c-0.334,0-0.647-0.131-0.884-0.367
			s-0.366-0.549-0.366-0.883c0-0.061,0.009-0.121,0.018-0.18c-0.202-0.027-0.389-0.115-0.535-0.262
			c-0.015-0.016-0.02-0.033-0.032-0.049L307.5,17.5l3.045-0.762C310.531,16.727,310.517,16.717,310.504,16.703L310.504,16.703z
			 M310.504,16.703"/>
	</g>
</g>
<g>
	<path fill="#555555" d="M331.826,18.471h9.458c1.045,0,1.889-0.869,1.889-1.938v-3.478l-1.889,1.55v1.928h-9.458V9.771h2.129
		l2.364-1.935h-4.493c-1.044,0-1.894,0.868-1.894,1.935v6.763C329.933,17.602,330.782,18.471,331.826,18.471L331.826,18.471z
		 M331.826,18.471"/>
	<path fill="#555555" d="M345.066,9.771l-4.729-3.866v1.907c-3.348,0.038-6.65,3.021-6.65,6.817c1.604-1.597,3.496-3.036,6.65-2.919
		v1.927L345.066,9.771z M345.066,9.771"/>
</g>
<g>
	<path fill-rule="evenodd" clip-rule="evenodd" fill="#555555" d="M364.326,17.779c0.258,0,0.467-0.195,0.467-0.438v-5.282
		c0-0.242-0.209-0.44-0.467-0.44c-0.256,0-0.463,0.198-0.463,0.44v5.282C363.863,17.584,364.07,17.779,364.326,17.779
		L364.326,17.779z M367.121,7.217h-2.795V6.339c0-0.488-0.414-0.881-0.93-0.881h-2.793c-0.516,0-0.934,0.394-0.934,0.881v0.878
		h-2.791c-0.518,0-0.932,0.393-0.932,0.881v0.879c0,0.486,0.414,0.881,0.932,0.881v7.921c0,0.974,0.832,1.763,1.861,1.763h6.52
		c1.027,0,1.861-0.789,1.861-1.763V9.858c0.516,0,0.932-0.395,0.932-0.881V8.099C368.053,7.61,367.637,7.217,367.121,7.217
		L367.121,7.217z M360.604,6.777c0-0.243,0.209-0.438,0.465-0.438h1.863c0.256,0,0.465,0.195,0.465,0.438v0.44h-2.793V6.777z
		 M366.191,17.779c0,0.485-0.42,0.882-0.932,0.882h-6.52c-0.516,0-0.932-0.396-0.932-0.882V9.858h8.383V17.779z M366.654,8.978
		h-9.313c-0.256,0-0.463-0.196-0.463-0.438c0-0.244,0.207-0.441,0.463-0.441h9.313c0.258,0,0.467,0.197,0.467,0.441
		C367.121,8.782,366.912,8.978,366.654,8.978L366.654,8.978z M359.67,17.779c0.258,0,0.467-0.195,0.467-0.438v-5.282
		c0-0.242-0.209-0.44-0.467-0.44c-0.256,0-0.463,0.198-0.463,0.44v5.282C359.207,17.584,359.414,17.779,359.67,17.779L359.67,17.779
		z M361.998,17.779c0.258,0,0.467-0.195,0.467-0.438v-5.282c0-0.242-0.209-0.44-0.467-0.44c-0.256,0-0.463,0.198-0.463,0.44v5.282
		C361.535,17.584,361.742,17.779,361.998,17.779L361.998,17.779z M361.998,17.779"/>
</g>
<g id="bell">
	<g>
		<path fill="#565656" d="M392.087,7.207c0.218-0.271,0.55-0.448,0.899-0.483c0.355-0.038,0.72,0.069,0.994,0.29
			c0.275,0.219,0.453,0.548,0.473,0.895c0.022,0.261-0.042,0.527-0.186,0.751c-0.247,0.414-0.75,0.662-1.241,0.619
			c0.241,0.508,0.336,1.072,0.336,1.623c-0.007,1.206-0.464,2.377-1.164,3.366c-0.147,0.229-0.334,0.43-0.504,0.643
			c-0.349,0.4-0.775,0.744-1.024,1.215c-0.48,0.84-0.574,1.809-0.854,2.715c-0.1,0.299-0.237,0.615-0.528,0.787
			c-0.379,0.23-0.845,0.242-1.277,0.203c-0.846-0.109-1.633-0.475-2.346-0.906c-0.821-0.502-1.565-1.123-2.245-1.787
			c-0.937-0.924-1.796-1.963-2.309-3.17c-0.216-0.541-0.372-1.125-0.302-1.709c0.043-0.322,0.171-0.658,0.454-0.848
			c0.287-0.189,0.629-0.269,0.971-0.34c0.786-0.177,1.609-0.262,2.363-0.574c0.223-0.095,0.436-0.211,0.625-0.352
			c0.226-0.18,0.434-0.377,0.646-0.568c1.025-0.873,2.266-1.556,3.624-1.757c0.777-0.106,1.595-0.065,2.309,0.256
			C391.785,7.764,391.88,7.447,392.087,7.207z M392.966,7.377c-0.216,0.051-0.399,0.218-0.47,0.42
			c-0.066,0.2-0.027,0.43,0.109,0.593c0.146,0.189,0.406,0.283,0.646,0.24c0.348-0.056,0.61-0.417,0.531-0.753
			C393.722,7.526,393.322,7.281,392.966,7.377z M389.796,8.966c-0.713,0.115-1.326,0.535-1.857,0.994
			c-0.677,0.59-1.301,1.234-2.029,1.771c-0.584,0.436-1.225,0.803-1.92,1.033c-0.484,0.153-0.996,0.268-1.51,0.231
			c0,0.584,0.434,1.074,0.937,1.355c0.039,0.029,0.089,0.008,0.134,0.008c0.793-0.084,1.535-0.453,2.139-0.945
			c0.412-0.322,0.737-0.727,1.064-1.118c0.826-0.943,1.686-1.881,2.735-2.592c0.527-0.342,1.133-0.643,1.782-0.639
			C390.795,8.942,390.287,8.88,389.796,8.966z"/>
	</g>
	<path fill="#565656" d="M384.274,18.639c0.645,0.498,1.335,0.951,2.084,1.287c-0.066,0.311-0.246,0.598-0.514,0.785
		c-0.324,0.24-0.76,0.314-1.147,0.209c-0.329-0.086-0.619-0.299-0.794-0.58c-0.209-0.342-0.246-0.773-0.09-1.137
		C383.903,18.979,384.071,18.785,384.274,18.639z"/>
</g>
<g>
	<polygon fill="#565656" points="381.625,11.368 381.625,8.792 379.292,8.792 379.292,6.36 381.625,6.36 381.625,3.784 
		383.875,3.784 383.875,6.36 386.208,6.36 386.208,8.792 383.875,8.792 383.875,11.368 	"/>
	<path fill="#FFFFFF" d="M383.625,4.034V6.61h2.333v1.932h-2.333v2.576h-1.75V8.542h-2.333V6.61h2.333V4.034H383.625 M384.125,3.534
		h-0.5h-1.75h-0.5v0.5V6.11h-1.833h-0.5v0.5v1.932v0.5h0.5h1.833v2.076v0.5h0.5h1.75h0.5v-0.5V9.042h1.833h0.5v-0.5V6.61v-0.5h-0.5
		h-1.833V4.034V3.534L384.125,3.534z"/>
</g>
<g>
	<path fill="#555555" d="M412.501,7.628c-2.63,0-4.762,2.003-4.762,4.478c0,2.937,2.077,3.685,2.077,5.394
		c0,0.422,0.328,0.816,0.822,1.105c-0.102,0.082-0.16,0.176-0.16,0.271c0,0.131,0.104,0.254,0.283,0.357
		c-0.167,0.104-0.266,0.221-0.266,0.346c0,0.127,0.101,0.246,0.271,0.35c-0.175,0.104-0.277,0.223-0.277,0.352
		c0,0.158,0.15,0.301,0.402,0.416c-0.096,0.088-0.152,0.186-0.152,0.285c0,0.299,0.475,0.555,1.141,0.656
		c0.117,0.213,0.356,0.361,0.634,0.361s0.515-0.148,0.631-0.359c0.675-0.1,1.155-0.357,1.155-0.658c0-0.098-0.054-0.195-0.148-0.279
		c0.258-0.119,0.41-0.264,0.41-0.42c0-0.129-0.1-0.246-0.271-0.352c0.175-0.102,0.277-0.223,0.277-0.352
		c0-0.131-0.105-0.25-0.284-0.355c0.169-0.102,0.266-0.221,0.266-0.346c0-0.1-0.062-0.195-0.172-0.281
		c0.486-0.289,0.81-0.678,0.81-1.098c0-1.709,2.074-2.457,2.074-5.393C417.262,9.631,415.131,7.628,412.501,7.628L412.501,7.628z
		 M414.986,14.877c-0.475,0.684-1.012,1.455-1.044,2.52c-0.163,0.178-0.744,0.469-1.439,0.469c-0.698,0-1.278-0.291-1.441-0.471
		c-0.034-1.063-0.571-1.836-1.046-2.518c-0.531-0.764-1.031-1.482-1.031-2.771c0-1.795,1.578-3.255,3.517-3.255
		s3.515,1.46,3.515,3.255C416.016,13.395,415.516,14.113,414.986,14.877L414.986,14.877z M414.986,14.877"/>
	<path fill="#555555" d="M412.501,6.058c0.342,0,0.622-0.363,0.622-0.809v-1.44c0-0.445-0.28-0.81-0.622-0.81
		c-0.344,0-0.623,0.364-0.623,0.81v1.44C411.878,5.695,412.157,6.058,412.501,6.058L412.501,6.058z M412.501,6.058"/>
	<path fill="#555555" d="M409.309,6.898c0.297-0.17,0.354-0.622,0.126-1.006l-0.732-1.249c-0.227-0.384-0.655-0.562-0.952-0.394
		c-0.297,0.169-0.354,0.622-0.127,1.006l0.734,1.248C408.582,6.887,409.01,7.066,409.309,6.898L409.309,6.898z M409.309,6.898"/>
	<path fill="#555555" d="M406.569,8.259l-1.271-0.723c-0.393-0.223-0.855-0.165-1.025,0.125c-0.172,0.292,0.01,0.713,0.401,0.935
		l1.271,0.721c0.393,0.222,0.854,0.167,1.023-0.125C407.141,8.899,406.961,8.48,406.569,8.259L406.569,8.259z M406.569,8.259"/>
	<path fill="#555555" d="M420.327,16.055l-1.271-0.721c-0.393-0.223-0.855-0.166-1.026,0.127c-0.171,0.289,0.01,0.711,0.402,0.934
		l1.271,0.721c0.393,0.221,0.853,0.166,1.025-0.127C420.9,16.695,420.72,16.277,420.327,16.055L420.327,16.055z M420.327,16.055"/>
	<path fill="#555555" d="M406.115,12.327c0-0.337-0.371-0.612-0.823-0.612h-1.468c-0.455,0-0.824,0.275-0.824,0.612
		c0,0.335,0.369,0.61,0.824,0.61h1.468C405.744,12.937,406.115,12.662,406.115,12.327L406.115,12.327z M406.115,12.327"/>
	<path fill="#555555" d="M421.177,11.714h-1.468c-0.451,0-0.823,0.275-0.823,0.612c0,0.335,0.372,0.61,0.823,0.61h1.468
		c0.453,0,0.823-0.275,0.823-0.61C422,11.99,421.63,11.714,421.177,11.714L421.177,11.714z M421.177,11.714"/>
	<path fill="#555555" d="M405.945,15.334l-1.271,0.721c-0.392,0.223-0.573,0.641-0.401,0.934c0.17,0.293,0.631,0.348,1.025,0.127
		l1.269-0.721c0.394-0.223,0.573-0.645,0.401-0.934C406.799,15.168,406.338,15.111,405.945,15.334L405.945,15.334z M405.945,15.334"
		/>
	<path fill="#555555" d="M419.057,9.317l1.271-0.721c0.393-0.222,0.573-0.643,0.402-0.935c-0.173-0.29-0.633-0.348-1.025-0.125
		l-1.271,0.723c-0.393,0.221-0.573,0.64-0.402,0.933C418.201,9.484,418.664,9.539,419.057,9.317L419.057,9.317z M419.057,9.317"/>
	<path fill="#555555" d="M417.25,4.25c-0.297-0.168-0.725,0.01-0.95,0.394l-0.734,1.249c-0.228,0.384-0.168,0.836,0.129,1.004
		c0.295,0.17,0.724-0.009,0.951-0.393l0.733-1.25C417.605,4.869,417.548,4.418,417.25,4.25L417.25,4.25z M417.25,4.25"/>
</g>
<g>
	<path fill="#555555" d="M437.501,5.314c-2.63,0-4.762,2.003-4.762,4.478c0,2.937,2.077,3.685,2.077,5.394
		c0,0.422,0.328,0.816,0.822,1.105c-0.102,0.082-0.16,0.176-0.16,0.271c0,0.131,0.104,0.254,0.283,0.357
		c-0.167,0.104-0.266,0.221-0.266,0.346c0,0.127,0.101,0.246,0.271,0.35c-0.175,0.104-0.277,0.223-0.277,0.352
		c0,0.158,0.15,0.301,0.402,0.416c-0.096,0.088-0.152,0.186-0.152,0.285c0,0.299,0.475,0.555,1.141,0.656
		c0.117,0.213,0.356,0.361,0.634,0.361s0.515-0.148,0.631-0.359c0.675-0.1,1.155-0.357,1.155-0.658c0-0.098-0.054-0.195-0.148-0.279
		c0.258-0.119,0.41-0.264,0.41-0.42c0-0.129-0.1-0.246-0.271-0.352c0.175-0.102,0.277-0.223,0.277-0.352
		c0-0.131-0.105-0.25-0.284-0.355c0.169-0.102,0.266-0.221,0.266-0.346c0-0.1-0.062-0.195-0.172-0.281
		c0.486-0.289,0.81-0.678,0.81-1.098c0-1.709,2.074-2.457,2.074-5.393C442.262,7.317,440.131,5.314,437.501,5.314L437.501,5.314z
		 M439.986,12.563c-0.475,0.684-1.012,1.455-1.044,2.52c-0.163,0.178-0.744,0.469-1.439,0.469c-0.698,0-1.278-0.291-1.441-0.471
		c-0.034-1.063-0.571-1.836-1.046-2.518c-0.531-0.764-1.031-1.482-1.031-2.771c0-1.795,1.578-3.255,3.517-3.255
		s3.515,1.46,3.515,3.255C441.016,11.08,440.516,11.799,439.986,12.563L439.986,12.563z M439.986,12.563"/>
</g>
<g>
	<g>
		<path fill="#555555" d="M469.165,5.461c0.519,0.491,0.516,1.288,0,1.778l-0.623,0.593l-1.87-1.777l0.625-0.594
			C467.813,4.971,468.648,4.971,469.165,5.461L469.165,5.461z M459.814,12.571l-0.623,2.37l2.494-0.593l6.235-5.924l-1.872-1.778
			L459.814,12.571z M466.026,11.408v5.416h-8.817V8.445h5.7l1.764-1.676h-9.226V18.5h12.344V9.732L466.026,11.408z M466.026,11.408"
			/>
	</g>
</g>
<path fill="#555555" d="M482,11.488l4.157-3.988v1.967c2.94,0.04,5.843,3.117,5.843,7.033c-1.409-1.646-3.071-3.132-5.843-3.011
	v1.987L482,11.488z"/>
<path stroke="#58595B" stroke-miterlimit="10" d="M516.164,8.043l0.017,0.119l-0.179,0.037l-0.024,0.252h0.214l0.284-0.027
	l0.146-0.173l-0.155-0.061l-0.086-0.098l-0.128-0.207l-0.062-0.292l-0.241,0.048l-0.067,0.104V7.86l0.116,0.079L516.164,8.043z
	 M516.164,8.043"/>
<path stroke="#58595B" stroke-miterlimit="10" d="M515.96,8.141l0.013-0.159l-0.142-0.061l-0.197,0.045l-0.146,0.236v0.15h0.171
	L515.96,8.141z M515.96,8.141"/>
<path stroke="#58595B" stroke-miterlimit="10" d="M511.895,8.813l-0.043,0.111h-0.211v0.108h0.05c0,0,0.003,0.022,0.007,0.053
	l0.13-0.011l0.08-0.05l0.021-0.101l0.104-0.008l0.04-0.085l-0.095-0.02L511.895,8.813z M511.895,8.813"/>
<g>
	<defs>
		<rect id="SVGID_5_" x="504.5" y="4.5" width="16" height="16"/>
	</defs>
	<clipPath id="SVGID_6_">
		<use xlink:href="#SVGID_5_"  overflow="visible"/>
	</clipPath>
	<path clip-path="url(#SVGID_6_)" stroke="#58595B" stroke-miterlimit="10" d="M511.352,9.009l-0.009,0.107l0.153-0.013l0.016-0.107
		l-0.092-0.072L511.352,9.009z M511.352,9.009"/>
	<path clip-path="url(#SVGID_6_)" fill="#58595B" d="M520.506,12.394c-0.001-0.234-0.015-0.467-0.037-0.694
		c-0.073-0.76-0.255-1.49-0.528-2.174c-0.021-0.049-0.04-0.103-0.062-0.152c-0.363-0.858-0.876-1.639-1.501-2.314
		c-0.04-0.043-0.082-0.086-0.124-0.13c-0.119-0.122-0.239-0.242-0.366-0.356c-1.423-1.292-3.313-2.081-5.384-2.081
		c-2.088,0-3.993,0.803-5.419,2.115c-0.333,0.306-0.639,0.64-0.915,0.996c-1.046,1.35-1.67,3.04-1.67,4.873
		c0,4.404,3.591,7.984,8.004,7.984c3.105,0,5.8-1.773,7.128-4.357c0.282-0.551,0.505-1.139,0.652-1.757
		c0.039-0.157,0.07-0.314,0.1-0.475c0.08-0.452,0.124-0.919,0.124-1.395C520.508,12.448,520.506,12.42,520.506,12.394
		L520.506,12.394z M519,9.203l0.047-0.053c0.061,0.119,0.117,0.239,0.172,0.359l-0.076-0.001L519,9.527V9.203z M517.843,7.809
		l0.001-0.357c0.126,0.133,0.248,0.271,0.363,0.412l-0.145,0.215l-0.503-0.004l-0.032-0.104L517.843,7.809z M508.188,6.922V6.91
		h0.161l0.013-0.055h0.264v0.114l-0.075,0.1h-0.362V6.922z M508.445,7.278c0,0,0.158-0.027,0.173-0.027c0.013,0,0,0.16,0,0.16
		l-0.361,0.022l-0.069-0.082L508.445,7.278z M519.51,10.448h-0.586l-0.356-0.265l-0.376,0.035v0.229h-0.119l-0.129-0.091
		l-0.649-0.165v-0.42l-0.824,0.064l-0.256,0.138h-0.328l-0.16-0.018l-0.397,0.222v0.413l-0.812,0.584l0.067,0.25h0.166l-0.044,0.237
		l-0.115,0.042l-0.007,0.621l0.701,0.799h0.307l0.018-0.051h0.55l0.157-0.145h0.313l0.17,0.17l0.465,0.049l-0.062,0.614l0.517,0.907
		l-0.271,0.519l0.018,0.243l0.214,0.211v0.588l0.279,0.375v0.487h0.243c-1.348,1.651-3.4,2.71-5.697,2.71
		c-4.051,0-7.345-3.287-7.345-7.328c0-1.017,0.209-1.987,0.585-2.867V9.379l0.264-0.317c0.092-0.171,0.188-0.34,0.293-0.504
		l0.013,0.133l-0.306,0.371c-0.095,0.178-0.184,0.359-0.262,0.547v0.417l0.304,0.146v0.581l0.292,0.497l0.24,0.037l0.03-0.17
		l-0.281-0.433l-0.055-0.42h0.164l0.069,0.433l0.406,0.59l-0.106,0.191l0.259,0.395l0.642,0.157v-0.103l0.256,0.037l-0.024,0.182
		l0.203,0.036l0.31,0.085l0.439,0.5l0.563,0.042l0.055,0.457l-0.385,0.268l-0.018,0.408l-0.056,0.25l0.556,0.693l0.044,0.238
		c0,0,0.2,0.055,0.225,0.055s0.452,0.322,0.452,0.322v1.255l0.152,0.042l-0.104,0.578l0.257,0.342l-0.046,0.572l0.337,0.596
		l0.437,0.378l0.437,0.008l0.042-0.14l-0.319-0.271l0.018-0.132l0.058-0.165l0.011-0.168l-0.217-0.006l-0.109-0.136l0.181-0.175
		l0.023-0.131l-0.2-0.057l0.011-0.122l0.288-0.044l0.437-0.208l0.146-0.269l0.458-0.584l-0.104-0.457l0.141-0.244l0.421,0.014
		l0.284-0.224l0.092-0.882l0.313-0.398l0.057-0.256l-0.288-0.094l-0.189-0.309l-0.646-0.007l-0.513-0.193l-0.024-0.366l-0.172-0.298
		l-0.463-0.007l-0.269-0.42l-0.237-0.117l-0.014,0.129l-0.432,0.025l-0.159-0.219l-0.452-0.091l-0.373,0.428l-0.585-0.098
		l-0.043-0.659l-0.428-0.074l0.172-0.322l-0.05-0.186l-0.562,0.375l-0.354-0.043l-0.125-0.276l0.075-0.284l0.196-0.359l0.448-0.227
		h0.866l-0.003,0.263l0.312,0.146l-0.023-0.451l0.224-0.226l0.453-0.297l0.032-0.208l0.451-0.47l0.479-0.265l-0.042-0.036
		l0.325-0.305l0.118,0.031l0.055,0.068l0.124-0.136l0.03-0.015l-0.135-0.019l-0.139-0.045V8.43l0.074-0.06h0.159l0.074,0.032
		l0.064,0.128l0.077-0.013V8.506l0.022,0.008l0.225-0.034l0.032-0.111l0.129,0.032v0.12l-0.119,0.082l0.018,0.13l0.407,0.125
		l0.001,0.004l0.094-0.008l0.006-0.177l-0.323-0.146l-0.018-0.085l0.269-0.092l0.012-0.256l-0.281-0.17L512.374,7.5l-0.385,0.188
		h-0.14l0.035-0.329l-0.522-0.123l-0.217,0.164v0.499l-0.389,0.122l-0.156,0.326l-0.171,0.027V7.957l-0.364-0.051l-0.184-0.119
		l-0.074-0.269l0.654-0.382l0.322-0.098l0.032,0.215l0.178-0.008l0.013-0.109l0.187-0.025l0.004-0.039l-0.081-0.034l-0.018-0.113
		l0.23-0.02l0.138-0.145l0.008-0.009h0.002l0.042-0.043l0.482-0.061l0.214,0.181l-0.56,0.297l0.71,0.168l0.094-0.237h0.311
		l0.11-0.207l-0.22-0.056V6.531l-0.69-0.304l-0.476,0.054l-0.269,0.141l0.018,0.34l-0.281-0.042l-0.043-0.189l0.27-0.244
		L510.7,6.263l-0.14,0.043l-0.062,0.164l0.184,0.031l-0.037,0.183l-0.312,0.02l-0.049,0.12l-0.451,0.013
		c0,0-0.012-0.255-0.031-0.255c-0.018,0,0.354-0.007,0.354-0.007l0.27-0.262l-0.147-0.073l-0.194,0.189L509.76,6.41l-0.194-0.268
		h-0.415l-0.434,0.322h0.396l0.037,0.117l-0.103,0.094l0.438,0.013l0.067,0.159l-0.495-0.02l-0.023-0.122l-0.311-0.067l-0.166-0.091
		l-0.369,0.003c1.212-0.88,2.702-1.401,4.314-1.401c1.858,0,3.554,0.692,4.85,1.83l-0.087,0.155l-0.339,0.133l-0.144,0.154
		l0.032,0.181l0.176,0.024l0.105,0.263l0.301-0.122l0.05,0.351h-0.09l-0.247-0.037l-0.275,0.046l-0.265,0.375l-0.382,0.06
		l-0.055,0.324l0.161,0.039l-0.047,0.208l-0.378-0.076l-0.345,0.076l-0.073,0.19l0.06,0.404l0.203,0.094l0.341-0.001l0.229-0.021
		l0.071-0.183l0.359-0.465l0.236,0.048l0.233-0.21l0.043,0.164l0.574,0.387l-0.07,0.093l-0.259-0.013l0.1,0.14l0.159,0.035
		l0.187-0.077l-0.004-0.225l0.082-0.042l-0.065-0.07L517.55,9.17l-0.102-0.284h0.318l0.102,0.101l0.274,0.236l0.012,0.284
		l0.283,0.301l0.105-0.412l0.196-0.107l0.037,0.338l0.193,0.21l0.382-0.006c0.074,0.189,0.14,0.383,0.198,0.581L519.51,10.448z
		 M508.866,8.119l0.191-0.092l0.173,0.042l-0.059,0.232l-0.188,0.06L508.866,8.119z M509.887,8.667v0.151h-0.44l-0.164-0.045
		l0.042-0.106l0.211-0.086h0.287v0.086H509.887z M510.088,8.877v0.146l-0.109,0.071l-0.139,0.025V8.877H510.088z M509.964,8.818
		V8.645l0.151,0.136L509.964,8.818z M510.033,9.169v0.143l-0.104,0.104h-0.234l0.036-0.159l0.111-0.009l0.022-0.055L510.033,9.169z
		 M509.451,8.877h0.243l-0.311,0.434l-0.129-0.069l0.027-0.183L509.451,8.877z M510.444,9.119v0.143h-0.232l-0.064-0.093V9.037
		h0.019L510.444,9.119z M510.229,8.924l0.067-0.069l0.112,0.069l-0.09,0.074L510.229,8.924z M519.628,10.817l0.024-0.025
		c0.01,0.04,0.02,0.082,0.029,0.125L519.628,10.817z M519.628,10.817"/>
</g>
</svg>
