<?xml version="1.0" encoding="utf-8"?>
<!-- Generator: Adobe Illustrator 15.0.0, SVG Export Plug-In . SVG Version: 6.00 Build 0)  -->
<!DOCTYPE svg PUBLIC "-//W3C//DTD SVG 1.1//EN" "http://www.w3.org/Graphics/SVG/1.1/DTD/svg11.dtd">
<svg version="1.1" id="Layer_1" xmlns="http://www.w3.org/2000/svg" xmlns:xlink="http://www.w3.org/1999/xlink" x="0px" y="0px"
	 width="24px" height="24px" viewBox="0 0 24 24" enable-background="new 0 0 24 24" xml:space="preserve">
<g>
	<path fill="#999998" d="M21.792,2.451h-3.184V0.985c0-0.406-0.33-0.735-0.735-0.735s-0.735,0.33-0.735,0.735v1.466h-4.402V0.985
		c0-0.406-0.33-0.735-0.735-0.735c-0.406,0-0.734,0.33-0.734,0.735v1.466H6.858V0.985c0-0.406-0.33-0.735-0.736-0.735
		c-0.404,0-0.73,0.33-0.73,0.735v1.466H2.208c-1.079,0-1.958,0.878-1.958,1.958v17.38c0,1.082,0.878,1.961,1.958,1.961h19.584
		c1.079,0,1.958-0.879,1.958-1.961V4.409C23.75,3.33,22.871,2.451,21.792,2.451L21.792,2.451z M22.28,21.789
		c0,0.272-0.219,0.491-0.488,0.491H2.208c-0.269,0-0.487-0.219-0.487-0.491V4.409c0-0.269,0.218-0.487,0.487-0.487h3.185v1.47
		c0,0.405,0.326,0.73,0.73,0.73c0.406,0,0.736-0.326,0.736-0.73v-1.47h4.407v1.47c0,0.405,0.328,0.73,0.734,0.73
		c0.405,0,0.735-0.326,0.735-0.73v-1.47h4.402v1.47c0,0.405,0.33,0.73,0.735,0.73s0.735-0.326,0.735-0.73v-1.47h3.184
		c0.27,0,0.488,0.218,0.488,0.487V21.789z M22.28,21.789"/>
	<rect x="5.392" y="9.064" fill="#999998" width="2.936" height="2.201"/>
	<rect x="5.392" y="12.735" fill="#999998" width="2.936" height="2.202"/>
	<rect x="5.392" y="16.406" fill="#999998" width="2.936" height="2.202"/>
	<rect x="10.53" y="16.406" fill="#999998" width="2.937" height="2.202"/>
	<rect x="10.53" y="12.735" fill="#999998" width="2.937" height="2.202"/>
	<rect x="10.53" y="9.064" fill="#999998" width="2.937" height="2.201"/>
	<rect x="15.672" y="16.406" fill="#999998" width="2.937" height="2.202"/>
	<rect x="15.672" y="12.735" fill="#999998" width="2.937" height="2.202"/>
	<rect x="15.672" y="9.064" fill="#999998" width="2.937" height="2.201"/>
</g>
</svg>
