<?xml version="1.0" encoding="utf-8"?>
<!-- Generator: Adobe Illustrator 15.0.0, SVG Export Plug-In . SVG Version: 6.00 Build 0)  -->
<!DOCTYPE svg PUBLIC "-//W3C//DTD SVG 1.1//EN" "http://www.w3.org/Graphics/SVG/1.1/DTD/svg11.dtd">
<svg version="1.1" id="Layer_1" xmlns="http://www.w3.org/2000/svg" xmlns:xlink="http://www.w3.org/1999/xlink" x="0px" y="0px"
	 width="15px" height="15px" viewBox="0 0 15 15" enable-background="new 0 0 15 15" xml:space="preserve">
<g>
	<path fill="#FFFFFF" d="M3,14.375c-1.31,0-2.375-1.065-2.375-2.375V3C0.625,1.69,1.69,0.625,3,0.625h9
		c1.31,0,2.375,1.065,2.375,2.375v9c0,1.31-1.065,2.375-2.375,2.375H3z"/>
	<path fill="#82B541" d="M12,1.25c0.965,0,1.75,0.785,1.75,1.75v9c0,0.965-0.785,1.75-1.75,1.75H3c-0.965,0-1.75-0.785-1.75-1.75V3
		c0-0.965,0.785-1.75,1.75-1.75H12 M12,0H3C1.343,0,0,1.343,0,3v9c0,1.656,1.343,3,3,3h9c1.656,0,3-1.344,3-3V3
		C15,1.343,13.656,0,12,0L12,0z"/>
</g>
<g>
	<path fill="#82B541" d="M9.763,4.278c1.024-1.036,2.134-1.985,3.359-2.736c0.043,0.061,0.086,0.123,0.128,0.185
		c-0.14,0.142-0.282,0.282-0.423,0.423C11.261,3.728,9.87,5.506,8.695,7.437c-0.807,1.313-1.511,2.694-2.156,4.104H6.422
		C5.365,10.223,4.307,8.906,3.25,7.588c0.044-0.06,0.089-0.12,0.136-0.177C4.25,7.933,5.111,8.459,5.975,8.98
		C7.102,7.295,8.354,5.702,9.763,4.278z"/>
</g>
</svg>
