<?xml version="1.0" encoding="utf-8"?>
<!-- Generator: Adobe Illustrator 15.0.0, SVG Export Plug-In . SVG Version: 6.00 Build 0)  -->
<!DOCTYPE svg PUBLIC "-//W3C//DTD SVG 1.1//EN" "http://www.w3.org/Graphics/SVG/1.1/DTD/svg11.dtd">
<svg version="1.1" id="Layer_1" xmlns="http://www.w3.org/2000/svg" xmlns:xlink="http://www.w3.org/1999/xlink" x="0px" y="0px"
	 width="15px" height="15px" viewBox="0 0 15 15" enable-background="new 0 0 15 15" xml:space="preserve">
<g>
	<path fill="#FFFFFF" d="M3,14.375c-1.31,0-2.375-1.065-2.375-2.375V3C0.625,1.69,1.69,0.625,3,0.625h9
		c1.31,0,2.375,1.065,2.375,2.375v9c0,1.31-1.065,2.375-2.375,2.375H3z"/>
	<path fill="#B2B3B3" d="M12,1.25c0.965,0,1.75,0.785,1.75,1.75v9c0,0.965-0.785,1.75-1.75,1.75H3c-0.965,0-1.75-0.785-1.75-1.75V3
		c0-0.965,0.785-1.75,1.75-1.75H12 M12,0H3C1.343,0,0,1.343,0,3v9c0,1.656,1.343,3,3,3h9c1.656,0,3-1.344,3-3V3
		C15,1.343,13.656,0,12,0L12,0z"/>
</g>
</svg>
