<?xml version="1.0" encoding="utf-8"?>
<!-- Generator: Adobe Illustrator 15.0.0, SVG Export Plug-In . SVG Version: 6.00 Build 0)  -->
<!DOCTYPE svg PUBLIC "-//W3C//DTD SVG 1.1//EN" "http://www.w3.org/Graphics/SVG/1.1/DTD/svg11.dtd">
<svg version="1.1" id="Layer_1" xmlns="http://www.w3.org/2000/svg" xmlns:xlink="http://www.w3.org/1999/xlink" x="0px" y="0px"
	 width="22px" height="54px" viewBox="0 0 22 54" enable-background="new 0 0 22 54" xml:space="preserve">
<circle fill="#A2A2A1" cx="10.999" cy="11" r="11"/>
<circle fill="#8A8989" cx="10.999" cy="43" r="11"/>
<path fill="#FFFFFF" d="M15.84,14.929l-1.162,1.161c-0.213,0.214-0.561,0.214-0.773,0l-2.905-2.902L8.096,16.09
	c-0.214,0.214-0.562,0.214-0.774-0.001l-1.164-1.16c-0.211-0.214-0.211-0.56,0-0.775l2.904-2.902L6.159,8.348
	c-0.213-0.214-0.213-0.563,0-0.774l1.162-1.162c0.213-0.215,0.562-0.215,0.774,0l2.903,2.904l2.904-2.904
	c0.214-0.215,0.562-0.215,0.773,0l1.162,1.16c0.213,0.213,0.213,0.562,0.001,0.776l-2.904,2.903l2.904,2.902
	C16.052,14.369,16.052,14.715,15.84,14.929z"/>
<path fill="#FFFFFF" d="M15.84,46.679l-1.162,1.161c-0.213,0.214-0.561,0.214-0.773,0l-2.905-2.902L8.096,47.84
	c-0.214,0.214-0.562,0.214-0.774-0.001l-1.164-1.16c-0.211-0.214-0.211-0.56,0-0.775l2.904-2.902l-2.902-2.903
	c-0.213-0.214-0.213-0.563,0-0.773l1.162-1.162c0.213-0.216,0.562-0.216,0.774,0l2.903,2.903l2.904-2.903
	c0.214-0.216,0.562-0.216,0.773,0l1.162,1.16c0.213,0.213,0.213,0.562,0.001,0.775l-2.904,2.903l2.904,2.902
	C16.052,46.119,16.052,46.465,15.84,46.679z"/>
</svg>
