<?xml version="1.0" encoding="utf-8"?>
<!-- Generator: Adobe Illustrator 13.0.0, SVG Export Plug-In . SVG Version: 6.00 Build 14948)  -->
<!DOCTYPE svg PUBLIC "-//W3C//DTD SVG 1.1//EN" "http://www.w3.org/Graphics/SVG/1.1/DTD/svg11.dtd">
<svg version="1.1" xmlns="http://www.w3.org/2000/svg" xmlns:xlink="http://www.w3.org/1999/xlink" x="0px" y="0px" width="1450px"
	 height="50px" viewBox="0 0 1450 50" enable-background="new 0 0 1450 50" xml:space="preserve">
<g id="Accounting_1_" enable-background="new    ">
	<g id="Accounting">
		<g>
			<path fill="#864288" d="M17.958,14.919c1.225,2.684,5.893,2.334,5.893,2.334c4.726,0.116,5.368-2.101,5.192-3.034
				c-0.117-2.976,3.384-6.243,3.326-7.352c0.058-0.992-0.409-1.983-1.517-2.042c-1.109-0.059-1.517,0.875-2.917,0.934
				S25.66,3.95,25.018,3.483c-0.642-0.467-2.159-0.817-3.209-0.117s-3.326,3.151-3.326,3.151h-2.567
				c-2.101,0-2.042,1.575-1.692,2.158C14.575,9.26,17.375,13.811,17.958,14.919z M23.129,8.202c0.127-0.153,1.991,1.25,2.578,1.634
				l-0.894,1.403l-1.71-1.966l-1.838,1.787c0,0-0.868,0.587-0.766-0.383C20.5,10.678,23.001,8.355,23.129,8.202z M46.839,37.44
				c-2.859-17.212-18.787-19.43-18.787-19.43c-0.175,0.233-2.334,1.051-4.259,1.051s-4.259-0.584-4.259-0.584
				C4.247,23.204,3.139,37.557,3.139,37.557c0,10.619,18.758,9.477,21.873,9.415C48.353,46.972,46.956,38.374,46.839,37.44z
				 M25.83,40.293v1.747h-1.622v-1.747c-1.805-0.102-3.338-1-3.338-3.676v-0.939h2.812v0.47c0,1.063,0.26,1.858,1.25,1.858
				c1.024,0,1.319-0.857,1.319-1.613c0-3.043-5.328-1.368-5.328-6.678c0-2.165,0.856-3.9,3.286-4.166v-1.474h1.622v1.474
				c2.43,0.225,3.111,1.817,3.111,3.859v0.348h-2.812c0-0.634-0.052-1.123-0.243-1.45c-0.156-0.307-0.451-0.47-0.885-0.47
				c-0.746,0-1.163,0.47-1.163,1.45c0,3.002,5.328,1.49,5.328,6.494C29.166,38.782,28.068,40.068,25.83,40.293z"/>
		</g>
	</g>
</g>
<g id="Administrative_1_" enable-background="new    ">
	<g id="Administrative">
		<g>
			<path fill="#864288" d="M67.37,16.229c3.898,0.155,4.048,3.738,4.048,3.738h10.588v-2.969h-4.01
				c-0.138-0.713-1.058-2.195-1.058-2.195l3.256-3.256l-4.14-4.141l-3.21,3.211c-0.736-0.506-2.842-1.059-2.842-1.059V6.012H65
				v3.547c-1.058,0.253-3.149,1.081-3.149,1.081l-3.201-3.146l-4.117,4.209l3.132,3.123c-0.345,0.482-1.012,3.171-1.012,3.171
				h-3.667v4.96h3.644c0.046,0.506,0.974,2.832,0.974,2.832l-3.399,3.227l4.094,4.232l3.569-3.453
				c0.46,0.276,2.142,1.315,2.142,1.315l0.002,3.886l2.975,0.03l0.001-10.932c-2.904-0.482-3.636-3.036-3.619-3.771
				C63.477,16.724,66.519,16.212,67.37,16.229z M97.985,21.954H69l-0.002,1.021h28.987V21.954z M69,23.987v20.004h29.015V23.987H69z
				 M72.993,25.959h21v1.999H72.991L72.993,25.959z M74.486,41.934l-2.519-2.507l0.943-0.942l1.564,1.563l3.91-3.91l0.978,0.978
				L74.486,41.934z M74.486,34.95l-2.519-2.507L72.91,31.5l1.564,1.564l3.91-3.91l0.978,0.978L74.486,34.95z M94.013,41H80.001
				l0.002-2.025h14.009V41z M94.013,33.975H80.001l0.002-1.963h14.009V33.975z"/>
		</g>
	</g>
</g>
<g id="Advertising_1_" enable-background="new    ">
	<g id="Advertising">
		<g>
			<path fill-rule="evenodd" clip-rule="evenodd" fill="#864288" d="M143.446,3.985h-35.893c-1.962,0-3.554,1.622-3.554,3.585
				v35.893c0,1.963,1.591,3.522,3.554,3.522h35.893c1.963,0,3.554-1.56,3.554-3.522V7.57C147,5.607,145.409,3.985,143.446,3.985z
				 M130.855,6.964l3.386,6.022H128.2l-3.386-6.022H130.855z M120.194,6.964l3.386,6.022h-6.041l-3.386-6.022H120.194z
				 M107.001,9.499c0-1.752,0.729-2.535,2.48-2.535h0.051l3.386,6.022h-5.918V9.499z M144.008,41.004
				c0,1.752-1.22,3.005-2.972,3.005h-31.042c-1.752,0-2.994-1.253-2.994-3.005V15.968h37.007V41.004z M144.489,12.986h-5.628
				l-3.387-6.022h5.686l3.329,5.913V12.986z M118.661,38.575c0.917-0.509,14.404-7.829,15.179-8.286
				c0.695-0.409,0.707-1.385,0-1.794c-1.076-0.623-14.515-7.906-15.146-8.267c-0.787-0.451-1.707,0.122-1.707,0.893
				c0,0.594,0,15.705,0,16.566C116.987,38.536,117.99,38.948,118.661,38.575z"/>
		</g>
	</g>
</g>
<g id="Plane_1_" enable-background="new    ">
	<g id="Plane">
		<g>
			<path fill-rule="evenodd" clip-rule="evenodd" fill="#864288" d="M193.669,6.442c-1.858-1.528-4.528,0.608-4.528,0.608
				l-6.351,6.918l-24.756,0.019l-1.294,1.04c-0.588,0.412,0.118,1,0.118,1l17.876,5.88c0.495,0.204-0.532,1.021-0.532,1.021
				l-5.018,5.239h-7.114l-1.549,1.369c-0.757,0.885,0.168,1.306,0.168,1.306l3.957,0.968c1.052,0.253,0.547,0.758,0.547,0.758
				s-1.394,1.977-1.185,1.585c-0.613,1.078-0.152,1.804-0.152,1.804c0.835,0.763,2.22-0.238,2.22-0.238l0.884-0.878
				c0.926-0.842,1.136,0.548,1.136,0.548l0.716,3.198c0.252,1.558,1.473,0.885,1.473,0.885l1.207-1.39l0.013-7.253l0.464-0.323
				l5.346-5.052c0.838-0.578,1.01,0.421,1.01,0.421l5.346,16.964c0.505,1.052,1.058,0.532,1.058,0.532l1.258-1.882l0.017-24.521
				l7.428-6.703C194.551,8.677,194.066,6.919,193.669,6.442z"/>
		</g>
	</g>
</g>
<g id="Automotive_1_" enable-background="new    ">
	<g id="Automotive">
		<g>
			<path fill="#864288" d="M247.44,27.431c0.029-6.796-2.858-7.35-5.804-10.5c-0.35-0.233-0.438-0.583-0.058-0.583
				c2.217,0,3.325-0.525,3.004-1.138c-1.371-1.866-3.85-2.07-3.762-0.524c0.117,0.729-0.292,1.108-0.671,0.816
				c-3.967-6.533-5.979-6.485-5.979-6.485s-17.004-0.029-18.142,0c-3.325,0.263-5.716,5.756-6.066,6.223s-0.875,0.496-0.904,0.204
				c0.146-0.292,0.117-1.575-0.35-1.691c-2.683,0.087-3.15,0.846-3.237,1.517c-0.029,1.604,3.296,0.729,3.15,1.429
				c-0.146,0.204-1.721,1.663-2.829,2.479c-3.821,2.217-3.179,8.05-3.179,8.05l-0.029,3.121c-0.029,3.85,1.458,6.271,1.458,6.271
				l-0.058,2.853c-0.029,1.371,1.254,1.254,1.254,1.254s6.271,0.029,7.058,0.029c1.429,0.029,1.488-1.225,1.488-1.225v-1.568h22.458
				l0.029,0.372c-0.087,2.392,1.225,2.45,1.225,2.45h6.708c1.954,0,1.721-1.226,1.721-1.226l0.058-3.581
				C247.797,34.735,247.44,27.431,247.44,27.431z M204.289,26.322c-0.467-0.933-0.554-2.683,0.67-3.762
				c1.225-1.079,2.917,0.262,3.18,0.758c0.262,0.496,0.583,0.904,0.583,0.904c0.059,0.204,0.029,0.088,0.671,0.204
				c0.642,0.117,1.867,1.458,2.596,2.246c0.904,0.671-0.058,1.079-0.058,1.079s-4.667,0.146-5.454-0.029
				C205.222,27.344,204.609,26.877,204.289,26.322z M208.232,35.972c0,0-2.191-0.6-2.642-2.474l-0.116-1.477l4.814-0.009
				c0,0,2.106,0.368,3.535,3.954L208.232,35.972z M232.704,35.956h-15.395c0,0-2.282-0.946-2.433-2.977h20.259
				C235.136,32.979,234.76,35.454,232.704,35.956z M234.995,30.997h-19.612c0,0-0.299-0.58-0.353-1.016
				c0.367-0.026,20.359-0.013,20.359-0.013S235.334,30.616,234.995,30.997z M235.629,29.023h-21.296c0,0-0.299-0.42-0.354-0.854
				c0.367-0.027,22.044-0.014,22.044-0.014S235.968,28.644,235.629,29.023z M213.83,28.018c0,0,0.34-0.987,0.707-1.015
				s20.74,0,20.74,0s0.842,0.268,0.951,1.015H213.83z M213.83,25.938c0,0,0.34-0.666,0.707-0.693c0.367-0.026,20.74,0,20.74,0
				s0.842-0.054,0.951,0.693H213.83z M213.17,18.007c0,0-2.479,0.12-1.896-1.514c0,0,2.625-4.199,3.587-4.783
				c0,0,0.175-0.671,1.575-0.671h17.15c0,0,1.429-0.816,4.638,4.492l0.612,1.05c0,0,0.35,1.396-1.954,1.426H213.17z M244.449,33.498
				c-0.467,1.874-2.611,2.475-2.611,2.475l-5.591-0.014c1.429-3.586,3.535-3.959,3.535-3.959l4.814,0.003L244.449,33.498z
				 M245.662,26.322c-0.321,0.555-0.934,1.021-2.188,1.4c-0.787,0.175-5.454,0.029-5.454,0.029s-0.962-0.408-0.058-1.079
				c0.729-0.788,1.954-2.129,2.596-2.246c0.642-0.116,0.613,0,0.671-0.204c0,0,0.321-0.408,0.583-0.904
				c0.262-0.496,1.954-1.837,3.179-0.758C246.215,23.64,246.128,25.39,245.662,26.322z"/>
		</g>
	</g>
</g>
<g id="Construction_1_" enable-background="new    ">
	<g id="Construction">
		<g>
			<path fill="#864288" d="M295.502,41.383c-0.188-0.604-0.539-1.053-0.997-1.45c0.069-0.126,0.12-0.263,0.12-0.417
				c0-0.482-0.392-0.875-0.875-0.875c-0.347,0-0.641,0.206-0.782,0.499c-0.361-0.094-0.743-0.148-1.143-0.148h-0.385
				c-0.083-0.396-0.418-0.7-0.839-0.7c-0.421,0-0.756,0.304-0.84,0.7h-1.821c-0.083-0.396-0.418-0.7-0.84-0.7
				c-0.421,0-0.756,0.304-0.839,0.7h-1.471c-0.083-0.396-0.418-0.7-0.84-0.7c-0.421,0-0.756,0.304-0.839,0.7h-1.821
				c-0.083-0.396-0.418-0.7-0.84-0.7c-0.421,0-0.756,0.304-0.839,0.7h-1.821c-0.083-0.396-0.418-0.7-0.84-0.7s-0.756,0.304-0.84,0.7
				h-1.82c-0.083-0.396-0.418-0.7-0.84-0.7c-0.421,0-0.756,0.304-0.84,0.7h-0.385c-0.399,0-0.781,0.055-1.143,0.148
				c-0.142-0.293-0.435-0.499-0.782-0.499c-0.483,0-0.875,0.393-0.875,0.875c0,0.154,0.05,0.291,0.12,0.417
				c-0.459,0.397-0.81,0.847-0.997,1.45c-0.482,0.002-0.873,0.393-0.873,0.875c0,0.446,0.338,0.8,0.77,0.854
				c0.145,0.771,0.545,1.463,1.099,1.939c-0.069,0.125-0.119,0.262-0.119,0.415c0,0.483,0.392,0.875,0.875,0.875
				c0.348,0,0.643-0.207,0.784-0.502c0.362,0.094,0.741,0.152,1.141,0.152h0.385c0.084,0.396,0.419,0.7,0.84,0.7
				c0.421,0,0.756-0.304,0.84-0.7h1.82c0.084,0.396,0.418,0.7,0.84,0.7s0.756-0.304,0.84-0.7h1.821c0.083,0.396,0.418,0.7,0.839,0.7
				c0.421,0,0.756-0.304,0.84-0.7h1.821c0.083,0.396,0.418,0.7,0.839,0.7c0.421,0,0.756-0.304,0.84-0.7h1.471
				c0.083,0.396,0.418,0.7,0.839,0.7c0.421,0,0.756-0.304,0.84-0.7h1.821c0.083,0.396,0.418,0.7,0.84,0.7
				c0.421,0,0.756-0.304,0.839-0.7h0.385c0.399,0,0.779-0.059,1.141-0.152c0.141,0.295,0.437,0.502,0.785,0.502
				c0.483,0,0.875-0.392,0.875-0.875c0-0.153-0.05-0.29-0.12-0.415c0.555-0.477,0.954-1.169,1.1-1.939
				c0.431-0.054,0.77-0.407,0.77-0.854C296.375,41.775,295.984,41.385,295.502,41.383z M272.05,44.087
				c-1.01,0-1.829-0.819-1.829-1.829s0.818-1.829,1.829-1.829c1.01,0,1.829,0.819,1.829,1.829S273.06,44.087,272.05,44.087z
				 M278.7,44.087c-1.01,0-1.829-0.819-1.829-1.829s0.819-1.829,1.829-1.829c1.01,0,1.829,0.819,1.829,1.829
				S279.71,44.087,278.7,44.087z M285.7,44.087c-1.01,0-1.829-0.819-1.829-1.829s0.819-1.829,1.829-1.829
				c1.01,0,1.829,0.819,1.829,1.829S286.71,44.087,285.7,44.087z M292.35,44.087c-1.01,0-1.829-0.819-1.829-1.829
				s0.819-1.829,1.829-1.829c1.01,0,1.829,0.819,1.829,1.829S293.36,44.087,292.35,44.087z M273.014,31.991h-0.832l-8.214-3.838
				c0.561-0.41,0.608-1.009,0.601-1.252c-0.055-0.995-1.411-1.662-1.411-1.662v-0.701c1.759-0.721,1.958-3.444,1.958-3.444
				c-0.255-1.437-2.019-1.414-2.115-1.411V4.422c0.246,0.02,0.466-0.008,0.541-0.008c0.197,0,0.306,0.459,0.306,0.459v2.516
				l14.459,29.557h12.69V26.711c-0.394-1.356-1.55-1.728-1.55-1.728l-5.046,0.022c-2.006-0.017-5.156,4.012-5.156,4.012
				L263.449,2.858c-1.14-0.323-1.303,0.461-1.326,0.672C262.049,3.618,262,3.727,262,3.85v15.897
				c-0.939,0.179-1.485,0.73-1.555,1.282c0.01,0.847,0.886,3.22,2.264,3.547v0.904c0.218,0.099,1.4,0.854,1.389,1.477
				c-0.033,0.874-0.729,1.057-1.061,1.095l-0.263-0.005c-1.059-0.116-1.006-1.067-1.006-1.067c-0.339-0.668-0.459,0.011-0.459,0.011
				c-0.006,0.454,0.146,0.886,0.483,1.18l-7.966,3.822l-0.825,0.005v2.989h20.013V31.991z M282.244,30.211
				c0,0,0.919-2.906,2.472-3.234l3.566,0.021c0,0,0.678,0.088,0.744,0.875c0.065,0.547,0.022,2.469,0.022,2.469
				s0.087,0.525-1.16,0.722l-4.878,2.013c0,0-1.028,0.503-0.962-0.503C282.047,32.573,282.068,30.758,282.244,30.211z M255.6,31.99
				l6.158-3.229l1.969,0.033h0.251l5.939,3.208L255.6,31.99z"/>
		</g>
	</g>
</g>
<g id="Consulting_1_" enable-background="new    ">
	<g id="Consulting">
		<g>
			<path fill="#864288" d="M340.632,18.646c-4.251-9.918-12.166-12.277-17.127-12.277c-14.664,0.857-18.322,14.128-16.472,20.042
				c1.02,3.74,1.15,4.176,1.15,4.176l-3.25,6.74c-0.371,0.584,0.49,0.196,0.49,0.196l10.287-2.28
				C313.908,18.329,332.818,15.377,340.632,18.646z M342.053,38.254c2.728-4.176,3.008-5.407,2.646-9.08
				c-0.546-5.551-7.236-9.106-14.271-8.026c-7.034,1.08-12.05,6.426-11.203,11.939c0.815,7.537,9.199,9.7,16.149,7.398
				c2.26,1.489,7.45,3.504,9.753,3.146C343.545,41.867,342.781,39.948,342.053,38.254z"/>
		</g>
	</g>
</g>
<g id="Customer_Service_1_" enable-background="new    ">
	<g id="Customer_Service">
		<g>
			<path fill-rule="evenodd" clip-rule="evenodd" fill="#864288" d="M377.527,28.931l5.716,0.03h0.15
				c1.023-0.211,0.421-1.083,0.421-1.083c-0.602-0.541-2.197-0.987-3.129-1.053c-0.964,0.06-2.918,0.782-2.918,0.782
				C376.745,28.179,377.527,28.931,377.527,28.931z M369.134,26.825c-0.964,0.06-2.918,0.782-2.918,0.782
				c-1.022,0.571-0.241,1.323-0.241,1.323l5.716,0.03h0.15c1.023-0.211,0.421-1.083,0.421-1.083
				C371.661,27.337,370.066,26.891,369.134,26.825z M392.163,18.041c0,0-3.159-12.861-17.554-13.222
				c-1.85,0.135-12.5,0.271-17.147,13.041c-0.406,0.947-4.829,0.226-5.28,6.317c0,0.722,1.264,5.73,6.317,5.46
				c1.038,0,2.166-0.992,1.399-1.985l-0.284-0.391c0,0-4.655-18.271,15.126-20.482c5.701,0.116,17.57,4.306,15.708,18.853
				c-0.296,0.89-0.721,3.289-2.488,5.936c-0.065-4.443,0.934-8.385,0.934-9.327C388.16,10.35,377.537,8.546,374.798,8.546
				c-12.761,0.802-14.097,11.757-13.897,13.561c0.201,1.804,3.007,11.356-2.071,19.573c2.271,0,9.086-0.468,9.086-0.468
				c2.071,3.006,5.479,3.941,6.681,3.941c5.211-0.334,7.416-4.209,7.416-4.209c0.668,0.401,8.953,0.669,8.953,0.669
				c-1.961-2.489-2.738-5.611-2.947-8.627c0.736-0.949,1.463-2.045,2.158-3.349c6.498,0.136,7.13-4.062,7.265-6.047
				S395.953,18.582,392.163,18.041z M383.504,36.016c-1.481,1.023-3.276,1.977-5.505,2.767c-1.577-1.805-3.299-0.525-3.299,0.873
				c-0.045,1.489,2.662,2.843,3.565,0.046c0.093-0.674,1.909-0.818,4.335-2.081c-1.83,2.953-4.354,5.356-7.802,5.796
				c-4.41,0-10.289-7.548-11.425-15.832c3.608-2.672,10.222-9.151,10.289-10.421s0,5.679-1.737,8.217
				c-0.267,0.668,6.213-4.476,7.349-7.415c1.002,1.068,6.547,6.613,7.75,6.547C387.024,24.512,386.226,30.705,383.504,36.016z"/>
		</g>
	</g>
</g>
<g id="Education_1_" enable-background="new    ">
	<g id="Education">
		<g>
			<path fill="#864288" d="M438.442,25.16c2.733-0.866,4.134-1.899,4.134-1.899c-0.867-1.134-0.867-1.934-0.867-1.934
				c-0.267-1.267,0.934-2,0.934-2c0.267-0.533-0.066-2.467-0.066-2.467l-15.601-5.467c-2-0.866-2.6-0.133-2.6-0.133l-21.867,7.933
				c-2.133,0.733-0.199,1.733-0.199,1.733l10.267,4.2l-0.033-4.967c1.6-3.733,13-3.433,13-3.433
				c13.233,0.166,12.899,3.666,12.899,3.666V25.16z M425.242,17.894c-9.166-0.2-11.5,2.467-11.5,2.467l-0.008,7.233
				c4.3-1.967,11.809-1.733,11.809-1.733c6.3-0.434,11.699,1.7,11.699,1.7v-7.134C435.843,18.027,425.242,17.894,425.242,17.894z
				 M425.31,26.827c-7.2,0-11.2,1.833-11.2,1.833c4.267,2.033,11.7,2.033,11.7,2.033c7.699-0.233,10.899-2.066,10.899-2.066
				C430.009,26.527,425.31,26.827,425.31,26.827z M448.009,18.96l-2.666-0.966v1.466c0.866,0.2,0.8,1,0.8,1l0.033,1.567l2.3-0.834
				C451.076,20.094,448.009,18.96,448.009,18.96z M445.31,21.36c0.033-1.066-0.934-1.267-0.934-1.267l-0.033-2.667
				c-0.233-3.366-3.467-2.6-3.467-2.6l0.133,0.633c2.601-0.333,2.667,1.634,2.667,1.634s0,2.7,0,2.934
				c-1.167,0.267-1.066,1.066-1.066,1.066c0,1.2,0.934,1.233,0.934,1.233l-1.367,16h3.533l-1.133-15.934
				C445.376,21.794,445.31,21.36,445.31,21.36z"/>
		</g>
	</g>
</g>
<g id="Engineering_1_" enable-background="new    ">
	<g id="Engineering">
		<g>
			<path fill="#864288" d="M495.997,23.968c-0.124-2.565-4.014-2.192-4.014-2.192c-1.406,0.082-2.027-1.531-2.027-1.531
				l-1.075-2.565c-0.621-1.324,0.372-2.565,0.372-2.565l1.407-1.861c1.116-1.2,0.082-2.276,0.082-2.276s-1.448-1.282-1.861-1.82
				c-0.91-0.91-1.821-0.248-1.821-0.248s-1.613,1.241-2.44,1.779c-0.869,0.868-2.151,0.413-2.151,0.413s-2.648-1.158-3.146-1.365
				c-1.158-0.372-1.365-2.647-1.365-3.6c-0.124-2.358-1.861-2.358-1.861-2.358s-0.414-0.083-2.276,0
				c-1.861,0.083-1.82,1.862-1.82,1.862s-0.124,1.779-0.331,2.771c-0.207,0.993-1.489,1.49-1.489,1.49l-1.958,0.873
				c-1.27,0.942-2.883,0.037-2.883,0.037l-2.11-1.614c-1.075-1.116-2.275-0.206-2.275-0.206l-1.696,1.737
				c-1.076,1.158-0.538,1.944-0.538,1.944s1.489,2.11,1.986,2.648c0.661,0.869,0.206,2.151,0.206,2.151l-0.992,2.565
				c-0.704,1.986-2.193,1.779-2.193,1.779l-1.655,0.083c-2.482,0.124-2.399,1.985-2.399,1.985l0.041,1.821
				c-0.248,2.027,1.903,2.192,1.903,2.192l1.572,0.166c1.986,0.082,2.565,1.406,2.565,1.406l0.827,1.862
				c1.2,2.316-0.082,3.393-0.082,3.393l-1.407,1.986c-0.993,1.075-0.289,1.985-0.289,1.985l1.778,1.779
				c1.242,1.283,2.483,0.372,2.483,0.372l2.027-1.696c1.365-0.951,2.647-0.124,2.647-0.124l2.234,0.952
				c1.614,0.455,1.944,2.689,1.944,4.096c0.249,2.317,2.11,2.069,2.11,2.069h1.2c2.648,0.248,2.606-1.779,2.606-1.779l0.29-2.027
				c0-1.986,1.613-2.276,1.613-2.276l2.275-1.034c1.531-0.744,2.731,0.331,2.731,0.331l1.985,1.489c1.407,0.993,2.028,0,2.028,0
				l1.778-1.82c1.2-0.91,0.373-2.068,0.373-2.068s-1.076-1.531-1.696-2.358c-0.911-1.117-0.249-2.441-0.249-2.441l0.952-2.317
				c0.91-1.82,1.903-1.737,3.6-1.944c2.523,0.207,2.565-1.944,2.565-1.944L495.997,23.968z M474.896,30.464
				c-3.039,0-5.503-2.464-5.503-5.503s2.464-5.503,5.503-5.503s5.503,2.464,5.503,5.503S477.935,30.464,474.896,30.464z"/>
		</g>
	</g>
</g>
<g id="Banking_1_" enable-background="new    ">
	<g id="Banking">
		<g>
			<path fill="#864288" d="M513.549,14.358c1.2,1.4,2.4,1.95,3.8,1.95c3.351-0.3,6.301-2.6,6.301-2.6c0.899-0.301,1.6,0.35,1.6,0.35
				s11.55,6.5,11.8,6.65c0.25,0.149,1.601,0.699,1.601,0.699c6.45-1.05,7.3-4.6,7.3-4.6c-0.8-2.55-9.101-11.4-9.25-11.15
				c-1,1-3.5,2.351-4.45,2.9c-2.1,0.7-4.899-0.3-7.15-0.65c-2.249-0.35-3.45,0.051-4.05,0.551s-6.95,4.449-6.95,4.449
				C513.299,13.358,513.199,14.009,513.549,14.358z M524.35,14.608c-0.801,0.55-2.4,1.101-2.4,1.101l1.5,1.05
				c-4.25,1.149-5.2,2.25-6.25,3.25c-3.65,4-1.5,9.899-1.5,9.899l-5-3.05c3-3.95-1.9-5.649-1.9-5.649s3-6.101,3.5-6.101
				c0.25,0.351,0.95,0.75,1.351,0.9c-0.15-0.55-0.5-0.9-0.95-1.601c-0.9-2.1,3.05-2.699,3.8-4.05c-0.3-0.25-3.35-1.899-3.35-1.899
				l-9.551,17l33.15,18.6l9.5-17.3L524.35,14.608z M522.525,32.053l-0.79,1.322l-1.172-0.7l0.789-1.322
				c-1.518-1.008-2.505-2.495-1.33-4.463l0.413-0.691l2.434,1.453l-0.206,0.346c-0.467,0.781-0.591,1.502,0.266,2.014
				c0.887,0.529,1.519,0.051,1.851-0.506c1.337-2.238-4.012-3.761-1.68-7.668c0.951-1.593,2.51-2.395,4.73-1.334l0.664-1.111
				l1.172,0.699l-0.664,1.112c2.006,1.421,2.072,3.051,1.175,4.554l-0.152,0.255l-2.435-1.453c0.278-0.466,0.448-0.854,0.427-1.192
				c-0.001-0.306-0.185-0.579-0.56-0.803c-0.646-0.386-1.214-0.256-1.645,0.466c-1.318,2.209,3.959,3.851,1.761,7.532
				C526.254,32.771,524.563,33.044,522.525,32.053z M534.499,36.158c0,0-1.95,0.051-2.649,2.601c-2.4-1.3-5.2-3-5.2-3
				s5.25-0.7,7.449-5.601c0.251-0.8,1.25-3.05-0.3-7.699c0.25,0.1,5.4,2.949,5.4,2.949s-1.101,1.801-0.85,3.2
				c0.05,0.45,0.449,1.4,2.699,2.7l-3.3,5.95C537.749,37.259,536.35,35.858,534.499,36.158z"/>
		</g>
	</g>
</g>
<g id="Government_1_" enable-background="new    ">
	<g id="Government">
		<g>
			<path fill="#864288" d="M582.013,37.006h-15.026V39h-3.973v4.995h22.978v-5.002h-3.979V37.006z M568.406,26.988h-15.752
				c0,1.739,3.016,4.063,8.041,4.063S568.185,28.397,568.406,26.988z M554.745,26.096l4.975-9.133
				c0.195,0.075,0.404,0.12,0.625,0.12c0.249,0,0.484-0.053,0.698-0.147l4.989,9.16h1.226l-5.396-9.906
				c0.145-0.254,0.233-0.544,0.233-0.857c0-0.351-0.105-0.675-0.283-0.949l10.196-2.534v24.133h5.005V10.779l9.591-1.844
				c-0.002,0.034-0.01,0.065-0.01,0.099c0,0.346,0.104,0.666,0.277,0.938l-5.352,9.824h1.225l4.975-9.132
				c0.195,0.075,0.404,0.12,0.625,0.12c0.249,0,0.484-0.053,0.698-0.147l4.989,9.159h1.226l-5.396-9.905
				c0.144-0.254,0.233-0.544,0.233-0.856c0-0.847-0.602-1.553-1.401-1.715V6.911L576.708,7.79c-0.364-0.417-1.049-1.004-2.033-1.004
				c-1.521,0-2.666,1.41-2.666,1.41v0.467l-11.894,4.575l0.148,0.353c-0.927,0.043-1.669,0.803-1.669,1.742
				c0,0.346,0.104,0.667,0.277,0.938l-5.352,9.825H554.745z M580.654,20.97c0,1.739,3.015,4.001,8.041,4.001
				c5.025,0,7.488-2.592,7.711-4.001H580.654z"/>
		</g>
	</g>
</g>
<g id="Healthcare_1_" enable-background="new    ">
	<g id="Healthcare">
		<g>
			<path fill="#864288" d="M641.883,45.803c-0.31-4.359-0.646-9.389-0.646-9.389c-0.028-7.396-6.947-8.662-6.947-8.662l-0.028,4.359
				c3.487,1.097,1.885,8.605,1.771,9.084c-0.534,3.459-2.784,2.729-3.206,2.729c-1.181-0.169-0.563-1.294-0.422-1.294
				c2.25,0.478,2.222-1.547,2.307-1.94c0.084-0.395,0.281-4.641,0.281-4.641c-0.057-2.56-1.604-2.841-2.362-2.869
				c-2.757-0.591-3.656,4.021-4.359,6.3c-0.479,1.828,0.112,1.828,1.321,2.588c-0.056,1.462-1.181,1.097-1.321,1.013
				c-0.141-0.085-0.984-0.788-0.984-0.788c-1.098-1.097-0.479-2.672-0.394-3.065c0.084-0.394,1.603-4.725,1.603-4.725
				c1.237-3.46,4.05-2.729,4.219-2.869c0.169-1.463,0.057-4.219,0.057-4.219c-0.057-0.169-1.997-0.815-2.56-0.422
				c0.028,0.506-1.688,6.3-2.981,6.947c-1.182-0.731-1.041-3.685-1.041-3.685c0.76-0.956-0.394-1.913-0.956-1.744
				c-1.012,0.085-1.266,1.153-1.012,1.772c0.027,2.84-0.676,3.797-0.676,3.797c-2.475-2.672-3.262-6.976-3.262-6.976
				c-0.141-0.422-0.676-0.196-0.676-0.196c-3.684,4.612-0.844,12.459-0.844,12.459c1.435,0.31,1.895,1.146,1.898,2.084
				c0.055,1.707-1.212,1.928-1.817,1.928c-0.606,0-2.809-0.661-1.542-3.305c-2.313-6.112-0.441-12.06-0.441-12.06
				s-0.825,0.056-2.147,0.386c-5.947,1.321-5.672,10.879-6.168,16.716c0,1.763,1.598,1.873,1.598,1.873h30.288
				C642.176,46.876,641.883,45.803,641.883,45.803z M618.499,18.43c3.021,7.136,6.814,6.558,6.814,6.558
				c3.3-0.037,5.77-4.248,6.032-4.998c0.262-0.75,0.6-1.351,0.787-1.538c2.1-0.862,2.399-3.149,1.875-3.375
				c-0.862-0.037-1.013-1.425-0.788-1.649c0.188-1.125,0.713-2.101,0.413-4.013c-0.15-1.987-1.912-2.25-2.4-3.112
				c-2.212-2.851-4.35-2.7-5.362-2.663c-9.713,1.238-9,7.575-8.888,9.338c0.075,0.825,0.75,0.487,0.488,1.875
				c-0.263-0.112-0.938-0.3-1.051,0.638C617.021,19.089,618.493,17.787,618.499,18.43z"/>
		</g>
	</g>
</g>
<g id="Hospitality_1_" enable-background="new    ">
	<g id="Hospitality">
		<g>
			<path fill="#864288" d="M695.263,37.803c1.466-4.637,1.356-6.715,1.356-6.715c-0.438-7.132-7.197-7.569-8.095-7.569
				c-1.618,0.044-4.024,0.897-4.506,0.656c0-0.328-0.021-0.896,0-1.225s-0.219-0.788-0.875-0.831
				c-3.092,0.058-3.033,1.75-3.559,1.225c-0.524-0.525-1.225-1.108-2.625-1.225c-5.017-0.117-4.899,5.483-4.783,7.875
				c0.117,2.392-0.116,3.675-1.633,3.675c-2.101-0.584-0.875-1.75-1.05-3.15c-0.103-2.192-2.435-2.156-3.019-2.112
				c-0.018,0.003-0.085,0.012-0.264,0.034c-0.524,0.065-0.722,0.679-0.722,0.679c-0.131,0.524,0.197,0.984,0.481,0.984
				c1.75,0.043,1.444,1.181,1.203,2.69c0.109,2.69,2.472,3.281,3.26,3.325c3.609,0.394,4.637-3.872,4.703-4.419
				c0.131-0.569,0.48-0.503,0.48-0.503c0.219,0.109,1.554-0.022,1.707,0.175c0.043,3.149,2.056,4.112,2.777,4.462
				c0.723,0.351,0.744,0.963,0.744,0.963l0.021,2.362c0.022,1.794-0.152,2.734-0.459,3.413c-0.678,0.94-0.656,2.49-0.656,2.49h4.966
				V44.8c-0.109-1.226-0.831-1.659-0.831-3.956c0.065-1.815,0.284-3.172,1.05-3.697c0.568,0.504,1.729,1.028,2.844,0.963
				c2.165-0.065,2.69-0.963,2.975-0.896c1.335,0.787,1.335,2.581,1.335,3.063c0,0.48-0.263,2.012-0.788,2.931
				c-0.524,0.679-0.306,1.856-0.306,1.856h4.899c0.044-1.051-0.656-1.878-0.678-3.104C695.219,41.653,695.263,37.803,695.263,37.803
				z M666.476,28.406c0.023-0.004-0.039,0.003-0.087,0.008C666.41,28.412,666.438,28.409,666.476,28.406z M662.099,31.559
				c0.562-4.66,3.14-5.916,3.834-6.544c0.693-0.628,3.734-3.239,5.255-4.032c0.793-0.628,1.917-1.521,2.148-2.247
				c0.093-0.522,0.388-1.075,0.761-1.506c0.766-0.483,1.44-1.071,1.77-1.125c0.58-0.094,0.485,0.298,1.786-0.063
				s1.191,1.144,2.194,1.395c3.149-0.188,4.561-2.288,5.172-3.26c0.61-0.972,1.159,0.768,2.084,0.768
				c2.727-1.959,3.04-5.782,1.614-6.362c-1.427-0.58-0.909-1.599-1.771-1.583c-0.861,0.016-1.253-0.109-1.817-0.188
				s-0.407-0.251-1.301-0.486c-0.894-0.234-1.521,0.611-2.288,0.345c-0.768-0.266-1.019-0.814-1.708-0.721s-1.803,0.878-2.727,0.078
				c-0.925-0.799-1.113-0.61-2.085-0.188s-0.814,0.517-1.99,0.251c-1.175-0.267-2.006-1.176-3.761,0.141s-2.868,0.878-3.479,0.235
				c-0.61-0.643-1.19-0.94-1.739-0.627s-0.959,0.295-1.732-0.39c-1.399-0.7-1.75,0.524-3.063,0.919
				c-1.313,0.394-1.794-0.656-2.274-0.744c-0.481-0.088-2.538,0.831-2.45,1.356c0.044,1.443-0.569,1.531-0.831,2.013
				c-0.263,0.48-0.7,1.443-0.525,1.969c0.394,0.787,0.569,1.969,0.438,3.806c0.687,1.093,1.329,0.688,1.8,0.386
				c0.101,0.081,0.208,0.144,0.208,0.144c0.265,0.231-0.496,2.38-0.761,3.073c-0.264,0.694-0.198,1.917-0.032,2.248
				c0.165,0.33,0.595,1.619,1.058,3.04c0.463,1.422,1.719,2.678,2.181,3.867c0.463,1.189,1.058,2.28,1.124,3.438
				c0.066,1.156,0.1,5.685,0.761,6.609c1.454,3.438,0.297,7.451,0.297,7.451h5.553c-0.099-1.917-2.313-5.831-2.81-7.12
				C661.668,33.343,662.099,31.559,662.099,31.559z M669.039,18.041c-0.06-0.501,0.086-0.877,0.119-1.351
				c0.27-0.089,0.56-0.163,0.91-0.163c1.145,0,1.16,1.207,2.241,1.332c0.073,0.005,0.149-0.014,0.223-0.02
				c-0.083,1.997-2.375,2.686-2.899,3.242c-0.528,0.562-0.991,0.462-0.958,0C668.709,20.619,669.105,18.603,669.039,18.041z
				 M663.722,17.499c0.178,0.014,0.325-0.004,0.461-0.035c0.081,0.379,0.062,0.852-0.245,1.111c-0.416,0.35-0.831,1.837-1.182,1.641
				c-0.904-1.319-0.868-2.698-0.966-3.266C662.474,17.224,663.171,17.457,663.722,17.499z M656.348,16.752
				c0-0.43,0.363-0.925,0.165-1.256c-0.068-0.113-0.052-0.23-0.004-0.335c0.508,0.647,1.617,1.486,1.873,1.599
				c0.351,0.152,0.395,1.203,0.481,2.165c0.088,0.963-0.021,2.101-0.634,1.444c-0.655-0.857-1.568-2.104-2.044-2.756
				C656.271,17.31,656.348,17.128,656.348,16.752z M660.082,29.41c-0.198,0-1.256-2.049-1.289-2.347
				c-0.033-0.297-0.562-1.619-0.991-2.082s-0.661-1.091-0.959-1.719s-0.562-1.354-1.058-2.512c-0.317-0.74-0.121-1.599,0.088-2.228
				c0.471,0.841,2.289,3.118,2.267,3.901c0.044,1.116,1.706,3.391,1.903,3.675c0.196,0.285,0.219,2.604,0.196,2.997
				c-0.005,0.096,0.01,0.201,0.043,0.301C660.196,29.407,660.122,29.41,660.082,29.41z M660.153,23.584
				c-1.531-1.115-0.941-2.253-0.656-2.777c0.284-0.525,0.306-2.013,0.153-2.516c-0.153-0.504-0.11-1.729-0.307-2.078
				c-0.055-0.098-0.265-0.25-0.545-0.421c0.302,0.056,0.591,0.121,0.833,0.219c0.377,0.153,0.927,0.414,1.525,0.675
				c-0.004,0.064-0.005,0.136,0.002,0.227c0.065,1.729,0.678,2.844,0.963,3.828c0.284,0.984-0.176,1.335-0.788,2.538
				C660.591,25.006,660.7,24,660.153,23.584z M661.214,29.065c0.042-1.503-0.102-4.029,0.317-4.409
				c0.656-0.568,2.362-3.85,2.669-4.9c0.287-0.985,1.219-2.665,1.333-2.869c0.394-0.107,0.913-0.146,1.73,0.017
				c0.202,0.07,0.381,0.094,0.552,0.101c0.02,0.276,0.084,0.587,0.199,0.971c0.396,0.661-0.43,3.371-0.893,3.934
				c-0.463,0.562-1.487,2.082-2.843,3.073c-1.354,0.991-1.982,2.743-2.545,3.569C661.579,28.779,661.398,28.942,661.214,29.065z"/>
		</g>
	</g>
</g>
<g id="HR_1_" enable-background="new    ">
	<g id="HR">
		<g>
			<path fill="#864288" d="M724.5,4.5c-11.598,0-21,9.402-21,21s9.402,21,21,21s21-9.402,21-21S736.098,4.5,724.5,4.5z
				 M727.008,31.741c-0.524,0.817-2.42,3.617-2.479,3.763c-0.059,0.146-2.13-3.529-2.479-3.704s-2.479-0.524-3.616-2.129
				c0,0,2.362-0.175,2.537,0.029s-0.875-1.342-0.787-2.129c1.225,1.283,3.267,1.896,4.287,1.896c0,0,2.275-0.117,4.229-1.867
				c0,0,0,0.992-0.408,1.342c-0.292,0.204,2.42-0.029,2.42-0.029S729.837,31.509,727.008,31.741z M724.529,28.358
				c-0.584,0-6.038-0.263-6.942-8.809c0,0,6.738-1.021,10.938-4.813c0.613-0.554,1.546,2.101,0.351,3.15
				c-0.759,0.35,2.304-0.088,2.45,0.116C731.471,18.208,731.383,27.921,724.529,28.358z M733.191,29l2.566,0.35
				c-3.616-2.975-2.975-10.149-2.975-10.149c-0.116-8.459-4.375-11.55-8.283-11.434c-9.858,1.108-8.225,12.425-8.225,12.425
				c0.35,6.825-3.268,9.217-3.268,9.217l1.75,0.351c-4.35,1.465-5.354,5.831-5.585,7.645c-2.559-3.29-4.097-7.412-4.097-11.903
				c0-10.729,8.696-19.425,19.425-19.425s19.425,8.696,19.425,19.425c0,4.494-1.54,8.619-4.103,11.91
				C739.465,32.145,733.191,29,733.191,29z"/>
		</g>
	</g>
</g>
<g id="Industrial_1_" enable-background="new    ">
	<g id="Industrial">
		<g>
			<path fill="#864288" d="M764.539,32.847l-2.279,0.495l-4.021,6.12l1.56,1.53l6.091-4.005l0.479-2.205l4.995-4.995l-1.875-1.936
				L764.539,32.847z M786.336,10.066c0.172-0.118,0.482-0.183,0.687,0.011c0.3,0.289,0.042,0.675,0.042,0.675l-8.785,8.839
				l1.393,1.404c0,0,8.636-8.604,8.765-8.765c0.149-0.171,0.472-0.235,0.707-0.043c0.354,0.278,0.07,0.68,0.07,0.68l-8.85,8.85
				l1.29,1.275l8.58-8.58c1.965-2.28,0.479-4.59,0.075-5.01c-1.891-2.28-4.8-1.23-5.641-0.226c-0.555,0.556-8.415,8.4-8.415,8.4
				l1.286,1.274L786.336,10.066z M789.964,33.417l-16.274-16.245c1.155-6.585-5.715-10.935-10.561-8.43
				c0.36,0.285,4.485,4.455,4.485,4.455c1.08,1.064,0.18,2.22,0.18,2.22l-2.085,2.115c-1.035,1.02-2.205,0.12-2.205,0.12
				l-4.604-4.575c-1.905,4.395,1.47,11.13,8.25,10.365c0.569,0.585,16.41,16.38,16.41,16.38c3.075,2.58,5.909,0.21,6.284-0.195
				c2.342-2.327,0.937-5.334,0.172-6.13C789.982,33.445,789.964,33.417,789.964,33.417z M786.717,38.877
				c-1.264,0-2.287-1.024-2.287-2.287c0-1.264,1.023-2.288,2.287-2.288s2.287,1.024,2.287,2.288
				C789.004,37.853,787.98,38.877,786.717,38.877z"/>
		</g>
	</g>
</g>
<g id="Insurance_1_" enable-background="new    ">
	<g id="Insurance">
		<g>
			<path fill="#864288" d="M824.01,27.018l-0.289,0.04c-0.438,0-1.551,1.232-1.551,1.232c-0.557,0.835-0.835,0.397-0.835,0.397
				l-1.353-2.307c-1.829-1.749-2.425-0.039-2.425-0.039l-1.272,2.783l-0.756-0.875c-0.318-0.358-0.278-0.676-0.278-0.676
				c0.802-1.425,0.021-1.948-0.636-1.908c-1.541,0.284-0.591,1.8-0.591,1.8l0.034,0.665l-0.994,1.033l-1.63-3.498h-1.174
				c-2.385,0.198-2.255,2.743-2.255,2.743v6.401c0.358,2.624,3.005,2.465,3.005,2.465v7.32c0.198,2.426,1.761,2.366,1.761,2.366
				h3.673c2.027,0.08,1.549-2.485,1.549-2.485l-0.004-14.954c0,0,1.795,2.385,2.352,3.101s1.59,0,1.59,0s2.505-2.425,2.863-2.783
				c0.357-0.357,1.216-1.271,1.216-1.271V14.017l-2-0.005V27.018z M814.529,17.389c-1.889,0-3.419,1.531-3.419,3.42
				s1.53,3.42,3.419,3.42c1.89,0,3.421-1.531,3.421-3.42S816.419,17.389,814.529,17.389z M831.76,28.188
				c0-1.383,0.691-2.045,1.93-2.045c0.72,0,1.209,0.23,1.469,0.662c0.316,0.461,0.403,1.797,0.403,2.689h4.446v-1.134
				c0-2.881-1.25-5.127-5.281-5.443v-1.913h-2.31v1.913c-4.032,0.374-5.496,2.822-5.496,5.875c0,7.488,8.842,5.126,8.842,9.418
				c0,1.065-0.489,2.275-2.188,2.275c-1.642,0-2.074-1.124-2.074-2.621v-0.896h-4.509v1.559c0,3.773,2.493,5.04,5.488,5.185v2.284
				h2.247v-2.284c3.715-0.317,5.875-2.132,5.875-6.365C840.602,30.291,831.76,32.422,831.76,28.188z M819.169,16.039
				c2.049-4.691,9.318-4.427,11.169,0c2.907-6.013,10.042-2.643,10.772-0.198c-0.382-7.389-7.806-13.282-16.258-13.282
				c-14.59,0.047-16.324,13.349-16.324,13.349C810.512,11.612,817.781,11.612,819.169,16.039z"/>
		</g>
	</g>
</g>
<g id="Information_1_" enable-background="new    ">
	<g id="Information">
		<g>
			<path fill-rule="evenodd" clip-rule="evenodd" fill="#864288" d="M896.987,38.012V5.961h-42.975v32.051h15.979v4.976h-7.246
				c-0.42,0-0.76,0.341-0.76,0.76c0,0-0.002,0.837-0.002,1.229h27.005c0-0.524-0.002-1.229-0.002-1.229c0-0.419-0.34-0.76-0.76-0.76
				h-7.221v-4.976H896.987z M856.001,35.991V7.981h38.997v28.01H856.001z"/>
		</g>
	</g>
</g>
<g id="Legal_1_" enable-background="new    ">
	<g id="Legal">
		<g>
			<path fill="#864288" d="M945,38.969h-40.188c-0.442,0-0.8,0.358-0.8,0.8v1.419c0,0.441,0.357,0.8,0.8,0.8H945
				c0.441,0,0.956-0.358,0.956-0.8v-1.419C945.956,39.327,945.441,38.969,945,38.969z M907.794,36.969h34.412
				c0.441,0,0.8-0.358,0.8-0.8v-1.356c0-0.441-0.358-0.8-0.8-0.8h-34.412c-0.442,0-0.801,0.358-0.801,0.8v1.356
				C906.993,36.61,907.352,36.969,907.794,36.969z M911.806,18.994c-0.441,0-0.8,0.482-0.8,0.925v11.2
				c0,0.441,0.358,0.862,0.8,0.862h4.388c0.442,0,0.8-0.421,0.8-0.862v-11.2c0-0.442-0.357-0.925-0.8-0.925H911.806z
				 M922.794,18.994c-0.442,0-0.801,0.482-0.801,0.925v11.2c0,0.441,0.358,0.8,0.801,0.8h4.605c0.442,0,0.613-0.358,0.613-0.8v-11.2
				c0-0.442-0.171-0.925-0.613-0.925H922.794z M933.806,18.994c-0.441,0-0.8,0.482-0.8,0.925v11.2c0,0.441,0.358,0.8,0.8,0.8h4.388
				c0.442,0,0.8-0.358,0.8-0.8v-11.2c0-0.442-0.357-0.925-0.8-0.925H933.806z M943.015,14.696c-0.002-0.697-0.243-0.852-0.821-1.084
				c-2.996-1.105-13.73-4.913-16.506-5.938c-0.472-0.19-0.905-0.167-1.537,0.06c-3,1.117-13.504,4.884-16.372,5.952
				c-0.675,0.207-0.764,0.616-0.764,1.031c0,1.038,0,3.259,0,3.259h36.005C943.02,17.977,943.017,15.753,943.015,14.696z"/>
		</g>
	</g>
</g>
<g id="Logistics__x2F__1_" enable-background="new    ">
	<g id="Logistics__x2F_">
		<g>
			<path fill="#864288" d="M962.475,31.271c-2.663,0-4.822,2.158-4.822,4.821c0,2.662,2.159,4.821,4.822,4.821
				c2.662,0,4.82-2.159,4.82-4.821C967.295,33.429,965.137,31.271,962.475,31.271z M962.475,38.408c-1.28,0-2.317-1.037-2.317-2.316
				c0-1.28,1.037-2.317,2.317-2.317c1.279,0,2.316,1.037,2.316,2.317C964.791,37.371,963.754,38.408,962.475,38.408z
				 M958.694,31.014h-5.688v3.397c0.245,2.136,3.075,2.521,3.075,2.521C955.451,32.836,958.694,31.014,958.694,31.014z
				 M968.984,36.932h10.036v-5.948h-12.557C969.614,32.278,968.984,36.932,968.984,36.932z M997.978,33.816l0.011-7.5
				c0-1.7-0.089-2.45-0.089-2.45c-4.551-8.75-7.8-7.85-7.8-7.85h-7.601c-2.6,0.149-2.51,2.75-2.51,2.75v18.206l2.91-0.008
				c0-6.35,4.75-7.099,6-7.198c7.25,0.05,6.699,7.25,6.699,7.25C998.449,36.666,997.978,33.816,997.978,33.816z M991.664,23.001
				h-6.665v-4.078h5.58c0,0,1.855-0.507,4.935,5.339C995.514,24.262,993.834,22.967,991.664,23.001z M989.424,31.271
				c-2.662,0-4.821,2.158-4.821,4.821c0,2.662,2.159,4.821,4.821,4.821c2.663,0,4.821-2.159,4.821-4.821
				C994.245,33.429,992.087,31.271,989.424,31.271z M989.424,38.408c-1.279,0-2.317-1.037-2.317-2.316
				c0-1.28,1.038-2.317,2.317-2.317c1.28,0,2.317,1.037,2.317,2.317C991.741,37.371,990.704,38.408,989.424,38.408z M974.549,9.979
				h-16.8c-2.319,0-4.743,2.269-4.743,4.588v15.4h26.015v-15.4C979.021,12.247,976.869,9.979,974.549,9.979z"/>
		</g>
	</g>
</g>
<g id="Management_1_" enable-background="new    ">
	<g id="Management">
		<g>
			<path fill-rule="evenodd" clip-rule="evenodd" fill="#864288" d="M1022.999,34.018h4.994v-7.013h-4.994V34.018z M1030.012,24.955
				v4.072l13.994-0.004v-12.6c0-2.962-0.107-3.412-3.069-3.412l-6.953-0.052V9.336c0-1.077-0.885-1.35-3.847-1.35h-9
				c-2.962,0-4.158-0.196-4.158,1.35c0,0,0.027,2.43,0.027,3.676c0,0-5.859-0.052-7.057-0.053c-2.962,0.025-2.963,0.508-2.962,3.465
				v12.6l14.021,0.004l0.004,1.983v-6.056H1030.012z M1019.024,12.979c0,0-0.031-1.206-0.031-3.006h12.943c0,0.69,0,0.651,0,3.006
				H1019.024z M1029.984,29.027l0.027,1.952v-1.952H1029.984z M1021.012,35.974v-4.963h-14.024v8.813
				c0,1.799,0.388,2.144,3.35,2.144h30.6c2.962,0,2.439-0.794,3.069-2.144v-8.845h-13.994v4.994H1021.012z"/>
		</g>
	</g>
</g>
<g id="Manufacturing_1_" enable-background="new    ">
	<g id="Manufacturing">
		<g>
			<path fill="#864288" d="M1091.701,7.695c0.116-0.174,0.097-0.677,0-1.005c-2.938-4.407-7.055-0.426-6.919-0.116
				c-5.219-2.629-6.243,1.526-6.861,0.966c-5.007-1.372-4.33,2.571-4.33,2.571c-1.759,0.772-1.333,2.28-1.333,2.28
				c0.135,1.275,1.488,1.623,1.777,1.623c1.624-0.038,2.242-1.604,2.242-1.604c2.745,1.198,3.518-1.044,3.866-0.657
				c3.942,2.628,6.514-0.657,6.822-0.426c0.716,1.198,2.049,1.295,2.667,1.392c2.919,0.039,3.46-2.106,3.479-2.628
				C1093.016,8.023,1091.701,7.695,1091.701,7.695z M1088.179,42.055c-4.7-9-5.25-22.3-5.25-22.3c2.3-0.15,1.8-1.897,1.8-1.897
				c0.033-1.88-0.963-1.877-0.963-1.877h-20.537c-1.25,0.801-0.95,1.774-0.95,1.774c0,2.05,1.75,2,1.75,2
				c-0.2,12.35-5.25,22.399-5.25,22.399c-2.1,0.051-2.1,1.75-2.1,1.75c-0.15,2.301,1.35,2.098,1.35,2.098h30.751
				c1.899-0.05,1.6-1.797,1.6-1.797C1090.429,41.854,1088.179,42.055,1088.179,42.055z M1070.848,42.12l1.905-8.392h-4.925
				l8.436-11.501l-2.095,8.659h4.902L1070.848,42.12z"/>
		</g>
	</g>
</g>
<g id="Mining__x2F__Oil__x2F__Gas_1_" enable-background="new    ">
	<g id="Mining__x2F__Oil__x2F__Gas">
		<g>
			<path fill="#864288" d="M1144.001,20.503c0.248-1.565-2.295-4.242-2.295-4.242l-6.673-7.043
				c-1.318-0.988-2.225-0.123-2.225-0.123c-0.947,0.658-0.205,2.018-0.205,2.018l4.324,4.407l-0.041,4.448
				c0.041,2.43,4.118,5.478,4.118,5.478s0.041,7.29,0,9.144c-0.193,3.407-1.152,3.372-2.1,3.454
				c-2.184-0.659-2.225-3.866-2.225-3.866l-0.041-4.406c0.041-4.325-3.46-4.531-3.46-4.531h-2.188V10
				c0-2.319-1.916-3.985-4.236-3.985h-13.8c-2.319,0-3.949,1.666-3.949,3.985v31.2h-1.451c-0.993,0-1.8,1.105-1.8,2.1v0.686h28.2
				V43.3c0-0.994-0.806-2.1-1.8-2.1h-1.164V27.999h1.199c1.729-0.082,1.771,1.771,1.771,1.771s-0.042,3.089-0.083,4.571
				c0.247,6.59,3.954,6.649,5.025,6.649c5.313,0,5.096-6.772,5.096-6.772V20.503z M1127.956,18.198c0,0.994-0.806,1.8-1.8,1.8h-12.6
				c-0.995,0-1.586-0.806-1.586-1.8V10.6c0-0.994,0.591-1.62,1.586-1.62h12.6c0.994,0,1.8,0.626,1.8,1.62V18.198z"/>
		</g>
	</g>
</g>
<g id="Real_Estate_1_" enable-background="new    ">
	<g id="Real_Estate">
		<g>
			<path fill="#864288" d="M1158.998,29.467c0,0,0.002,8.785,0.002,10.671c0.094,2.923,2.681,2.828,2.681,2.828h9.317
				c0,0,0-10.577,0-10.907c0-1.179,0.849-1.081,0.849-1.081s5.296,0,6.333,0s0.801,1.223,0.801,1.223l-0.004,10.766h9.212
				c2.876-0.047,2.826-2.695,2.826-2.695V29.228l-15.994-14.173L1158.998,29.467z M1195.811,24.832l-19.8-17.207
				c0,0-0.99-0.896-1.979,0l-19.612,17.113c0,0-0.942,0.707-0.235,1.556l1.744,1.744c0,0,0.585,0.853,1.604-0.142l17.442-15.368
				l17.962,15.557c0,0,1.084,0.613,1.461-0.235l1.414-1.603C1195.811,26.247,1196.565,25.634,1195.811,24.832z M1190.01,11.214
				c-0.041-1.361-1.135-1.217-1.135-1.217l-2.803,0.011c-1.134,0.021-1.093,1.082-1.093,1.082v1.618l5.03,4.455V11.214z"/>
		</g>
	</g>
</g>
<g id="Retail_1_" enable-background="new    ">
	<g id="Retail">
		<g>
			<path fill="#864288" d="M1226.12,39.401c-1.495,0-2.707,1.213-2.707,2.708s1.212,2.707,2.707,2.707s2.708-1.212,2.708-2.707
				S1227.615,39.401,1226.12,39.401z M1235.12,39.401c-1.495,0-2.707,1.213-2.707,2.708s1.212,2.707,2.707,2.707
				s2.708-1.212,2.708-2.707S1236.615,39.401,1235.12,39.401z M1238.346,30.034c0,0,4.475-9.945,4.699-10.596
				c0.226-0.649,0.801-1.404,0.726-2.079c-0.425-2.5-2.875-2.392-2.875-2.392l-22.37,0.008l-0.005-0.017l-1.5-5.25
				c-1.2-4.1-4.7-3.732-4.7-3.732h-4.9c-1.331,0.019-1.868,0.545-1.85,1.482c0.075,1.594,1.519,1.481,1.519,1.481l4.8,0.003
				c1.932-0.281,2.307,1.741,2.307,1.741l5.662,19.274c1.262,8.81,6.938,9,6.938,9s10.781,0,11.663,0c0.881,0,1.506-0.75,1.513-1.5
				c-0.063-1.531-1.851-1.45-1.851-1.45h-10.95c-2.899,0.101-3.449-3.249-3.449-3.249l-0.211-0.721h12.035
				C1237.521,31.989,1238.346,30.034,1238.346,30.034z M1234.008,17.973h6.688l-0.906,1.991h-5.781V17.973z M1234.008,21.982h4.863
				l-1.365,3.002h-3.498V21.982z M1225.971,30.007h-3.055l-0.886-3.034h3.94V30.007z M1225.971,24.984h-4.521l-0.877-3.002h5.398
				V24.984z M1225.971,19.964h-5.988l-0.582-1.991h6.57V19.964z M1231.971,30.007h-3.963v-3.034h3.963V30.007z M1231.971,24.984
				h-3.963v-3.002h3.963V24.984z M1231.971,19.964h-3.963v-1.991h3.963V19.964z M1234.008,30.007v-3.034h2.593l-1.38,3.034H1234.008
				z"/>
		</g>
	</g>
</g>
<g id="Sales_1_" enable-background="new    ">
	<g id="Sales">
		<g>
			<path fill="#864288" d="M1279.219,31.597c-0.075-0.325,0.025-2.774,0.025-2.774c0.625-0.525,1.975-3.75,1.975-3.75
				c0.3,0.425,0.75,0.074,0.825-0.051c0.074-0.125,0.875-1.425,1-2c0.8-2.75-1.05-3.199-1.05-3.199
				c0.749-2.65,0.35-5.226,0.35-5.226c-1.6-3.225-6.65-4.975-8.275-4.925c-10.05,0.75-6.949,10.25-7.175,10.3
				c-0.225,0.05-1.25,0.375-1.325,1.925c0.551,2.726,1.95,3,2.4,3.301c0.2,1.625,2.05,3.725,2.05,3.725l-0.017,2.792
				c0,0-4.081,0.994-5.311,1.268c-0.063,0.016-0.098,0.023-0.098,0.023c-4.316,1.067-4.4,4.2-4.4,4.2s-0.267,1.8-0.066,1.934
				c16,4.733,28.934,0,28.934,0l0.059-0.617C1289.294,31.697,1281.544,33.572,1279.219,31.597z M1290.019,30.021
				c-0.075-0.675-0.024-2.3-0.024-2.3c1.324-0.85,1.175-2.225,1.625-2.8c1.35-0.475,1.649-1.875,1.649-2.35
				c0.2-1.45-0.851-1.375-0.851-1.375c-0.225-2.9,0.326-3.125,0.301-4.15c-2.875-4.9-7.65-3.9-8.225-3.825
				c-0.575,0.075-0.851,0.775-0.525,1.15c0.6,0.875,0,3.274,0,3.274l0.05,1.45c3,3.925-0.774,7.15-1.3,7.476
				c-0.9,0.449,0.425,1.199,0.425,1.199s0.05,1.95-0.025,2.075c-0.074,0.125-1.774,0.375-1.774,0.375
				c11.65,2.075,8.7,5.825,9.5,6.925c3.05-0.149,6.725-1.625,6.725-1.625v-0.649C1297.744,30.747,1292.969,30.722,1290.019,30.021z
				 M1266.193,29.847c-0.074-0.125-0.024-2.075-0.024-2.075s1.325-0.75,0.425-1.199c-0.525-0.325-4.3-3.551-1.3-7.476l0.05-1.45
				c0,0-0.601-2.399,0-3.274c0.325-0.375,0.05-1.075-0.525-1.15s-5.35-1.075-8.225,3.825c-0.025,1.025,0.525,1.25,0.3,4.15
				c0,0-1.05-0.075-0.85,1.375c0,0.475,0.3,1.875,1.649,2.35c0.45,0.575,0.3,1.95,1.625,2.8c0,0,0.05,1.625-0.024,2.3
				c-2.95,0.7-7.726,0.726-7.55,4.851v0.649c0,0,3.674,1.476,6.725,1.625c0.8-1.1-2.15-4.85,9.5-6.925
				C1267.969,30.222,1266.269,29.972,1266.193,29.847z"/>
		</g>
	</g>
</g>
<g id="Science_1_" enable-background="new    ">
	<g id="Science">
		<g>
			<path fill="#864288" d="M1339.61,40.336l-8.61-16.59v-4.27c2.827,0,2.612-2.654,2.612-2.654c0.017-2.481-2.414-2.831-2.414-2.831
				h-11.96c-2.104-0.068-2.275,2.763-2.275,2.763c-0.031,2.384,2.052,2.93,2.052,2.93v4.89l-8.639,16.865
				c-1.862,3.171,1.792,3.557,1.792,3.557h25.856C1342.645,44.374,1339.61,40.336,1339.61,40.336z M1325.317,15.865
				c1.643,0,2.975,1.332,2.975,2.975s-1.332,2.975-2.975,2.975c-1.644,0-2.976-1.332-2.976-2.975S1323.674,15.865,1325.317,15.865z
				 M1326.189,25.49c0,1.061-0.861,1.922-1.923,1.922s-1.922-0.861-1.922-1.922c0-1.062,0.86-1.922,1.922-1.922
				S1326.189,24.429,1326.189,25.49z M1311.941,42.971l6.4-11.656c0,0,3.9,1.45,5.75,0.25c0,0,4.275-4.399,5.525-4.6l9,16.006
				H1311.941z M1323.217,11.442c0.94,0,1.703-0.762,1.703-1.702s-0.763-1.703-1.703-1.703s-1.703,0.763-1.703,1.703
				S1322.276,11.442,1323.217,11.442z M1327.067,8.165c0.677,0,1.225-0.549,1.225-1.226c0-0.676-0.548-1.225-1.225-1.225
				s-1.226,0.549-1.226,1.225C1325.842,7.616,1326.391,8.165,1327.067,8.165z"/>
		</g>
	</g>
</g>
<g id="Travel_1_" enable-background="new    ">
	<g id="Travel">
		<g>
			<path fill="#864288" d="M1392.563,15.987c-1.05-6.417-3.851-8.692-5.542-8.983c-1.691-0.292-8.567,1.057-9.027,0.313
				c-0.459-0.744-3.441-2.822-7.203-2.21c-7.438,1.859-8.882,8.138-8.882,8.138c1.575-1.378,2.406-1.487,3.347-1.728
				c-1.269,1.225-1.859,3.762-1.859,3.762c0.394-0.59,3.895-4.024,6.738-4.813c-2.713,1.903-4.173,4.024-4.703,5.814
				c1.154-1.25,2.798-2.182,3.68-2.23c-0.08,0.805,0.563,2.172,0.563,2.172c0.563-1.367,3.539-4.344,5.631-4.263
				c-3.781,3.941-3.54,7.642-3.218,6.998s1.367-1.126,1.367-1.126c-1.528,3.298-2.172,21.961-2.172,21.961
				c-9.412,1.608-13.032,6.194-13.032,6.194s30.973,0,31.938,0c-3.861-5.712-12.872-6.275-12.872-6.275
				c-0.16-10.939,1.288-23.649,1.288-23.649c3.675,1.342,1.067,7.975,1.884,10.949c1.867,0,5.25-5.892,4.55-12.075
				c2.159,0.817,3.733,4.259,5.542,8.342c0.175-0.758,0.059-4.783,0.059-4.783s0.233,0,0.467-0.116
				c0.116-0.642,0.175-1.692-0.059-3.733C1392.155,15.346,1391.98,14.82,1392.563,15.987z M1370.003,7.383c0,0-1.75,2.188-2.8,2.537
				c-1.05,0.351-1.05-1.531,1.399-2.362C1371.053,6.727,1369.609,7.383,1370.003,7.383z M1380.43,43.754
				c0.525-0.292-2.274-3.092-2.274-3.092s3.792,1.108,7.116,4.2c-1.05,0.699-13.3,0.524-13.3,0.524S1379.905,44.045,1380.43,43.754z
				 M1383.303,19.808c-0.306-2.712-0.131-5.993-2.975-7.044c-2.844-1.05,0.612-0.48,0.875-0.524
				C1381.203,12.239,1386.06,14.82,1383.303,19.808z M1389.778,19.764c-0.788-2.887,0.219-2.712-2.188-5.862
				c-0.219-0.743-0.788-1.618-0.788-1.618S1390.521,13.07,1389.778,19.764z"/>
		</g>
	</g>
</g>
<g id="Fitness_1_" enable-background="new    ">
	<g id="Fitness">
		<g>
			<path fill="#874489" d="M1428.351,11.797c-0.965-0.893-1.679-0.286-1.679-0.286l-2.036,1.965
				c-0.75,0.964,0.286,1.857,0.286,1.857l9.714,9.785c0.857,0.929,1.715,0.215,1.715,0.215l2-1.929
				c0.821-0.75,0.035-1.536,0.035-1.536L1428.351,11.797z M1414.851,25.297c-0.965-0.893-1.679-0.286-1.679-0.286l-2.036,1.965
				c-0.75,0.964,0.286,1.857,0.286,1.857l9.714,9.785c0.857,0.929,1.715,0.215,1.715,0.215l2-1.929
				c0.821-0.75,0.035-1.536,0.035-1.536L1414.851,25.297z M1419.207,27.761l2.715,2.75l8.179-8.285l-2.715-2.679L1419.207,27.761z
				 M1439.547,16.672l-6.188-6.146c-0.917-0.938-1.709-0.021-1.709-0.021l-1.041,1.125c-0.896,0.709-0.042,1.375-0.042,1.375
				l6.146,6.271c0.958,0.916,1.583,0.229,1.583,0.229l1.313-1.271C1440.4,17.234,1439.547,16.672,1439.547,16.672z M1418.797,37.172
				l-6.188-6.146c-0.917-0.938-1.709-0.021-1.709-0.021l-1.041,1.125c-0.896,0.709-0.042,1.375-0.042,1.375l6.146,6.271
				c0.959,0.916,1.584,0.229,1.584,0.229l1.313-1.271C1419.65,37.734,1418.797,37.172,1418.797,37.172z M1439.595,12.773
				c0.712-0.594,0.079-1.306,0.079-1.306l-1.424-1.483c-0.612-0.593-1.088-0.178-1.088-0.178l-1.482,1.443l2.709,2.71
				L1439.595,12.773z M1409.514,37.352c-0.712,0.594-0.079,1.306-0.079,1.306l1.424,1.483c0.613,0.593,1.088,0.178,1.088,0.178
				l1.483-1.443l-2.709-2.71L1409.514,37.352z"/>
		</g>
	</g>
</g>
</svg>
