<?xml version="1.0" encoding="utf-8"?>
<!-- Generator: Adobe Illustrator 15.0.0, SVG Export Plug-In . SVG Version: 6.00 Build 0)  -->
<!DOCTYPE svg PUBLIC "-//W3C//DTD SVG 1.1//EN" "http://www.w3.org/Graphics/SVG/1.1/DTD/svg11.dtd">
<svg version="1.1" id="Layer_1" xmlns="http://www.w3.org/2000/svg" xmlns:xlink="http://www.w3.org/1999/xlink" x="0px" y="0px"
	 width="66px" height="66px" viewBox="0 0 66 66" enable-background="new 0 0 66 66" xml:space="preserve">
<rect fill="#EEEEEE" width="66" height="66"/>
<g>
	<path fill="#BBBBBB" d="M45.598,37.121c-0.604,3.458-3.82,6.283-7.754,6.814c-6.316,0.85-11.676-3.862-10.709-9.412
		c0.602-3.458,3.819-6.285,7.753-6.814C41.199,26.86,46.561,31.567,45.598,37.121L45.598,37.121z M58.167,23.638v24.365
		c0,1.839-1.696,3.33-3.789,3.33H12.123c-2.092,0-3.789-1.491-3.789-3.328V23.638c0-1.839,1.697-3.33,3.789-3.33h0.365v-0.741
		c0-0.598,0.552-1.085,1.232-1.085h5.839c0.68,0,1.231,0.487,1.231,1.085v0.741h3.218l2.544-4.621
		c0.287-0.521,0.888-0.854,1.547-0.854h16.533c0.656,0,1.261,0.333,1.543,0.854l2.544,4.621h5.659
		C56.471,20.308,58.167,21.799,58.167,23.638L58.167,23.638z M19.235,23.959c0-1.26-1.165-2.282-2.596-2.282
		c-1.432,0-2.596,1.021-2.596,2.282c0,1.258,1.164,2.28,2.596,2.28C18.071,26.239,19.235,25.217,19.235,23.959L19.235,23.959z
		 M33.276,24.258c-4.962,0.969-8.964,4.487-10.065,8.848c-2.184,8.654,6.396,16.193,16.241,14.275
		c4.962-0.968,8.965-4.487,10.065-8.848C51.701,29.88,43.122,22.341,33.276,24.258L33.276,24.258z M33.276,24.258"/>
</g>
</svg>
