<svg id="Isolation_Mode" data-name="Isolation Mode" xmlns="http://www.w3.org/2000/svg" viewBox="0 0 41.37 48"><defs><style>.cls-1{fill:#9a88c0;}.cls-2{fill:#f98c67;}</style></defs><title>email2</title><path class="cls-1" d="M41.07,20.07l-3.85-3V1.61A1.61,1.61,0,0,0,35.61,0H5.75A1.61,1.61,0,0,0,4.15,1.61V17l-3.85,3a.78.78,0,0,0-.29.61V45.56A2.44,2.44,0,0,0,2.44,48H38.93a2.44,2.44,0,0,0,2.44-2.44V20.68a.78.78,0,0,0-.29-.61ZM39.81,45.56s0,0,0,0L25.08,34,39.81,22.29Zm-38.26,0V22.29L16.29,34,1.56,45.61s0,0,0,0ZM23.8,33a5,5,0,0,1-6.24,0l-3-2.39H26.83Zm-6.24,1.95.07-.06a6.53,6.53,0,0,0,6.1,0l.07.06L38.35,46.45H3ZM39.34,20.68l-2.12,1.68V19ZM5.75,1.55H35.61a.05.05,0,0,1,.05.05v22L28.79,29H12.57L5.7,23.59v-22a.05.05,0,0,1,.05-.05ZM4.15,22.36,2,20.68,4.15,19Zm0,0"/><path class="cls-2" d="M10.73,7.36h5.81a.78.78,0,0,0,0-1.56H10.73a.78.78,0,0,0,0,1.56Zm0,0"/><path class="cls-1" d="M10.73,11.51h9.12a.78.78,0,1,0,0-1.55H10.73a.78.78,0,1,0,0,1.55Zm0,0"/><path class="cls-2" d="M14.93,17.37a.78.78,0,0,0,.78.78h10a.78.78,0,0,0,0-1.55h-10a.78.78,0,0,0-.78.78Zm0,0"/><path class="cls-1" d="M10.73,22.29h19.9a.78.78,0,0,0,0-1.55H10.73a.78.78,0,1,0,0,1.55Zm0,0"/><path class="cls-2" d="M10.73,26.44h19.9a.78.78,0,0,0,0-1.56H10.73a.78.78,0,0,0,0,1.56Zm0,0"/></svg>