<?xml version="1.0" encoding="utf-8"?>
<!-- Generator: Adobe Illustrator 16.0.2, SVG Export Plug-In . SVG Version: 6.00 Build 0)  -->
<!DOCTYPE svg PUBLIC "-//W3C//DTD SVG 1.1//EN" "http://www.w3.org/Graphics/SVG/1.1/DTD/svg11.dtd">
<svg version="1.1" id="Layer_1" xmlns="http://www.w3.org/2000/svg" xmlns:xlink="http://www.w3.org/1999/xlink" x="0px" y="0px"
	 width="36.256px" height="47.948px" viewBox="0 0 36.256 47.948" enable-background="new 0 0 36.256 47.948" xml:space="preserve">
<path fill="#9A88C0" d="M31.35,1.653h-9.916c-0.01,0-0.018,0.001-0.027,0.001C20.663,0.651,19.471,0,18.128,0
	c-1.341,0-2.534,0.651-3.277,1.654c-0.009,0-0.019-0.001-0.027-0.001H4.907C2.201,1.653,0,3.854,0,6.559v36.36
	c0,2.705,2.201,4.906,4.907,4.906H31.35c2.705,0,4.906-2.201,4.906-4.906V6.559C36.256,3.854,34.055,1.653,31.35,1.653L31.35,1.653z
	 M18.128,1.549c1.396,0,2.531,1.135,2.531,2.531v0.826c0,0.428,0.348,0.775,0.775,0.775h3.305c0.484,0,0.879,0.394,0.879,0.878
	c0,0.484-0.395,0.878-0.879,0.878H11.518c-0.484,0-0.878-0.394-0.878-0.878c0-0.484,0.394-0.878,0.878-0.878h3.306
	c0.428,0,0.774-0.347,0.774-0.775V4.08C15.598,2.685,16.733,1.549,18.128,1.549L18.128,1.549z M11.518,8.986h13.221
	c1.338,0,2.428-1.089,2.428-2.427c0-0.018,0-0.034-0.002-0.052h4.186c0.027,0,0.051,0.023,0.051,0.052v36.36
	c0,0.027-0.023,0.051-0.051,0.051H4.907c-0.028,0-0.052-0.023-0.052-0.051V6.559c0-0.029,0.023-0.052,0.052-0.052h4.185
	C9.091,6.525,9.09,6.542,9.09,6.559C9.09,7.897,10.18,8.986,11.518,8.986L11.518,8.986z M34.708,42.919
	c0,1.85-1.506,3.355-3.357,3.355H4.907c-1.851,0-3.357-1.506-3.357-3.355V6.559c0-1.851,1.507-3.357,3.357-3.357h9.237
	c-0.063,0.283-0.096,0.577-0.096,0.878v0.051h-2.531c-0.725,0-1.377,0.32-1.822,0.826H4.907c-0.883,0-1.601,0.718-1.601,1.602v36.36
	c0,0.883,0.718,1.602,1.601,1.602H31.35c0.883,0,1.602-0.719,1.602-1.602V6.559c0-0.883-0.719-1.602-1.602-1.602h-4.789
	c-0.445-0.506-1.096-0.826-1.822-0.826h-2.531V4.08c0-0.301-0.033-0.595-0.096-0.878h9.238c1.852,0,3.357,1.506,3.357,3.357V42.919z
	 M34.708,42.919"/>
<rect y="-0.052" fill="none" width="36.256" height="48"/>
<path fill="#F98C67" d="M18.128,6.507c0.429,0,0.775-0.346,0.775-0.774V4.08c0-0.428-0.346-0.774-0.775-0.774
	c-0.427,0-0.774,0.346-0.774,0.774v1.652C17.354,6.161,17.701,6.507,18.128,6.507L18.128,6.507z M18.128,6.507"/>
<path fill="#F98C67" d="M17.303,18.076h9.917c0.426,0,0.773-0.347,0.773-0.775s-0.348-0.774-0.773-0.774h-9.917
	c-0.428,0-0.775,0.347-0.775,0.774S16.875,18.076,17.303,18.076L17.303,18.076z M17.303,18.076"/>
<path fill="#F98C67" d="M8.49,16.753c-0.302,0.303-0.302,0.793,0,1.096l1.653,1.653c0.151,0.151,0.35,0.227,0.548,0.227
	s0.396-0.076,0.548-0.227l3.306-3.306c0.303-0.303,0.303-0.793,0-1.095c-0.303-0.303-0.793-0.303-1.096,0l-2.758,2.757l-1.105-1.105
	C9.283,16.451,8.793,16.451,8.49,16.753L8.49,16.753z M8.49,16.753"/>
<path fill="#F98C67" d="M17.303,26.341h9.917c0.426,0,0.773-0.348,0.773-0.775s-0.348-0.775-0.773-0.775h-9.917
	c-0.428,0-0.775,0.348-0.775,0.775S16.875,26.341,17.303,26.341L17.303,26.341z M17.303,26.341"/>
<path fill="#F98C67" d="M13.449,23.364l-2.758,2.758l-1.105-1.104c-0.303-0.303-0.793-0.303-1.096,0
	c-0.302,0.301-0.302,0.791,0,1.094l1.653,1.654c0.151,0.15,0.35,0.227,0.548,0.227s0.396-0.076,0.548-0.227l3.306-3.307
	c0.303-0.303,0.303-0.793,0-1.096S13.752,23.061,13.449,23.364L13.449,23.364z M13.449,23.364"/>
<path fill="#F98C67" d="M17.303,34.603h9.917c0.426,0,0.773-0.346,0.773-0.773s-0.348-0.775-0.773-0.775h-9.917
	c-0.428,0-0.775,0.348-0.775,0.775S16.875,34.603,17.303,34.603L17.303,34.603z M17.303,34.603"/>
<path fill="#F98C67" d="M13.449,31.628l-2.758,2.758L9.586,33.28c-0.303-0.303-0.793-0.303-1.096,0
	c-0.302,0.303-0.302,0.793,0,1.096l1.653,1.652c0.151,0.152,0.35,0.229,0.548,0.229s0.396-0.076,0.548-0.229l3.306-3.305
	c0.303-0.303,0.303-0.793,0-1.096S13.752,31.325,13.449,31.628L13.449,31.628z M13.449,31.628"/>
</svg>
