<?xml version="1.0" encoding="utf-8"?>
<!-- Generator: Adobe Illustrator 16.0.2, SVG Export Plug-In . SVG Version: 6.00 Build 0)  -->
<!DOCTYPE svg PUBLIC "-//W3C//DTD SVG 1.1//EN" "http://www.w3.org/Graphics/SVG/1.1/DTD/svg11.dtd">
<svg version="1.1" id="Layer_1" xmlns="http://www.w3.org/2000/svg" xmlns:xlink="http://www.w3.org/1999/xlink" x="0px" y="0px"
	 width="48px" height="48px" viewBox="0 0 48 48" enable-background="new 0 0 48 48" xml:space="preserve">
<g>
	<path fill="#9A88C0" d="M24,48C10.767,48,0,37.233,0,24C0,10.766,10.767,0,24,0s24,10.766,24,24C48,37.233,37.233,48,24,48z
		 M24,1.714C11.711,1.714,1.714,11.711,1.714,24c0,12.289,9.997,22.286,22.286,22.286S46.286,36.289,46.286,24
		C46.286,11.711,36.289,1.714,24,1.714z"/>
</g>
<g>
	
		<rect x="10.286" y="13.42" transform="matrix(0.707 0.7072 -0.7072 0.707 14.3657 -6.1218)" fill="#F98C67" width="8.571" height="1.714"/>
</g>
<g>
	
		<rect x="13.714" y="9.992" transform="matrix(0.7071 0.7071 -0.7071 0.7071 14.3633 -6.1218)" fill="#F98C67" width="1.714" height="8.571"/>
</g>
<g>
	
		<rect x="26.009" y="33.134" transform="matrix(0.7072 0.707 -0.707 0.7072 32.9048 -11.4658)" fill="#F98C67" width="8.572" height="1.715"/>
</g>
<g>
	
		<rect x="29.437" y="29.705" transform="matrix(0.7074 0.7068 -0.7068 0.7074 32.8901 -11.4667)" fill="#F98C67" width="1.715" height="8.572"/>
</g>
<g>
	<path fill="#9A88C0" d="M14.571,40.286c-2.363,0-4.285-1.923-4.285-4.286s1.922-4.286,4.285-4.286s4.286,1.923,4.286,4.286
		S16.935,40.286,14.571,40.286z M14.571,33.429C13.153,33.429,12,34.582,12,36s1.153,2.571,2.571,2.571s2.571-1.153,2.571-2.571
		S15.989,33.429,14.571,33.429z"/>
</g>
<g>
	<path fill="#9A88C0" d="M14.656,33.425c-0.462,0-0.843-0.369-0.856-0.834c-0.012-0.437-0.128-10.746,14.282-15.249
		c0.45-0.142,0.932,0.111,1.073,0.563s-0.11,0.932-0.563,1.074C15.407,23.099,15.512,32.45,15.514,32.544
		c0.013,0.473-0.36,0.867-0.833,0.881C14.673,33.425,14.664,33.425,14.656,33.425z"/>
</g>
<g>
	<path fill="#9A88C0" d="M27.935,23.086c-0.112,0-0.226-0.022-0.335-0.069c-0.437-0.185-0.64-0.688-0.455-1.124l1.675-3.945
		l-3.945-1.674c-0.437-0.185-0.64-0.688-0.455-1.124c0.187-0.437,0.688-0.639,1.125-0.454l4.734,2.009
		c0.436,0.185,0.639,0.688,0.454,1.124l-2.009,4.734C28.585,22.89,28.268,23.086,27.935,23.086z"/>
</g>
<g>
	<path fill="#F98C67" d="M37.714,18.857c-2.362,0-4.285-1.922-4.285-4.286c0-2.363,1.923-4.286,4.285-4.286
		c2.363,0,4.286,1.923,4.286,4.286C42,16.935,40.077,18.857,37.714,18.857z M37.714,12c-1.418,0-2.571,1.153-2.571,2.571
		s1.153,2.572,2.571,2.572s2.572-1.154,2.572-2.572S39.132,12,37.714,12z"/>
</g>
</svg>
