<?xml version="1.0" encoding="utf-8"?>
<!-- Generator: Adobe Illustrator 16.0.2, SVG Export Plug-In . SVG Version: 6.00 Build 0)  -->
<!DOCTYPE svg PUBLIC "-//W3C//DTD SVG 1.1//EN" "http://www.w3.org/Graphics/SVG/1.1/DTD/svg11.dtd">
<svg version="1.1" id="Layer_1" xmlns="http://www.w3.org/2000/svg" xmlns:xlink="http://www.w3.org/1999/xlink" x="0px" y="0px"
	 width="52px" height="52px" viewBox="0 0 52 52" enable-background="new 0 0 52 52" xml:space="preserve">
<g>
	<path fill="#F98C67" d="M51.17,21.851c0.458,0,0.83-0.372,0.83-0.83s-0.372-0.83-0.83-0.83c-10.676,0-19.361-8.686-19.361-19.362
		c0-0.458-0.372-0.83-0.83-0.83s-0.83,0.372-0.83,0.83C30.148,12.421,39.579,21.851,51.17,21.851L51.17,21.851z M51.17,21.851"/>
	<path fill="#F98C67" d="M0.83,30.148c-0.458,0-0.83,0.372-0.83,0.83s0.372,0.83,0.83,0.83c10.676,0,19.362,8.686,19.362,19.361
		c0,0.458,0.372,0.83,0.83,0.83s0.83-0.372,0.83-0.83C21.851,39.579,12.421,30.148,0.83,30.148L0.83,30.148z M0.83,30.148"/>
	<path fill="#9A88B8" d="M27.659,35.22c0.458,0,0.83-0.371,0.83-0.829c0-0.459-0.372-0.83-0.83-0.83H26.83V18.439h0.829
		c0.458,0,0.83-0.371,0.83-0.83c0-0.458-0.372-0.83-0.83-0.83H26.83v-6.73h0.829c0.458,0,0.83-0.372,0.83-0.83
		c0-0.459-0.372-0.83-0.83-0.83H26.83V1.66h0.829c0.458,0,0.83-0.372,0.83-0.83c0-0.458-0.372-0.83-0.83-0.83H24.34
		c-0.458,0-0.83,0.372-0.83,0.83c0,0.458,0.372,0.83,0.83,0.83h0.83v6.73h-0.83c-0.458,0-0.83,0.371-0.83,0.83
		c0,0.458,0.372,0.83,0.83,0.83h0.83v6.73h-0.83c-0.458,0-0.83,0.372-0.83,0.83s0.372,0.83,0.83,0.83h0.83v6.731h-6.731v-0.83
		c0-0.458-0.371-0.83-0.83-0.83c-0.458,0-0.83,0.372-0.83,0.83v0.83h-6.73v-0.83c0-0.458-0.372-0.83-0.83-0.83
		c-0.459,0-0.83,0.372-0.83,0.83v0.83H1.66v-0.83c0-0.458-0.372-0.83-0.83-0.83c-0.458,0-0.83,0.372-0.83,0.83v3.319
		c0,0.458,0.372,0.83,0.83,0.83c0.458,0,0.83-0.372,0.83-0.83V26.83h6.73v0.829c0,0.458,0.371,0.83,0.83,0.83
		c0.458,0,0.83-0.372,0.83-0.83V26.83h6.73v0.829c0,0.458,0.372,0.83,0.83,0.83c0.458,0,0.83-0.372,0.83-0.83V26.83h6.731v6.73
		h-0.83c-0.458,0-0.83,0.371-0.83,0.83c0,0.458,0.372,0.829,0.83,0.829h0.83v6.73h-0.83c-0.458,0-0.83,0.372-0.83,0.83
		s0.372,0.829,0.83,0.829h0.83v6.731h-0.83c-0.458,0-0.83,0.371-0.83,0.829S23.882,52,24.34,52h3.319c0.458,0,0.83-0.372,0.83-0.83
		s-0.372-0.829-0.83-0.829H26.83v-6.731h0.829c0.458,0,0.83-0.371,0.83-0.829s-0.372-0.83-0.83-0.83H26.83v-6.73H27.659z
		 M27.659,35.22"/>
	<path fill="#9A88B8" d="M51.17,23.511c-0.458,0-0.829,0.372-0.829,0.83v0.83h-6.731v-0.83c0-0.458-0.371-0.83-0.829-0.83
		s-0.83,0.372-0.83,0.83v0.83h-6.73v-0.83c0-0.458-0.371-0.83-0.829-0.83c-0.459,0-0.83,0.372-0.83,0.83v0.83h-4.241
		c-0.458,0-0.83,0.372-0.83,0.83s0.372,0.83,0.83,0.83h4.241v0.829c0,0.458,0.371,0.83,0.83,0.83c0.458,0,0.829-0.372,0.829-0.83
		V26.83h6.73v0.829c0,0.458,0.372,0.83,0.83,0.83s0.829-0.372,0.829-0.83V26.83h6.731v0.829c0,0.458,0.371,0.83,0.829,0.83
		S52,28.117,52,27.659V24.34C52,23.882,51.628,23.511,51.17,23.511L51.17,23.511z M51.17,23.511"/>
</g>
</svg>
