<?xml version="1.0" encoding="utf-8"?>
<!-- Generator: Adobe Illustrator 16.0.2, SVG Export Plug-In . SVG Version: 6.00 Build 0)  -->
<!DOCTYPE svg PUBLIC "-//W3C//DTD SVG 1.1//EN" "http://www.w3.org/Graphics/SVG/1.1/DTD/svg11.dtd">
<svg version="1.1" id="Layer_1" xmlns="http://www.w3.org/2000/svg" xmlns:xlink="http://www.w3.org/1999/xlink" x="0px" y="0px"
	 width="32px" height="32px" viewBox="0 0 32 32" enable-background="new 0 0 32 32" xml:space="preserve">
<path fill="#171819" d="M16,0C7.163,0,0,7.164,0,16c0,8.837,7.163,16,16,16s16-7.163,16-16C32,7.164,24.837,0,16,0 M16,30.545
	C7.967,30.545,1.454,24.033,1.454,16S7.967,1.455,16,1.455S30.546,7.967,30.546,16S24.033,30.545,16,30.545 M17.446,12.545
	c0-0.588,0.061-0.902,0.966-0.902h1.209V9.453h-1.936c-2.325,0-3.144,1.096-3.144,2.936v1.422h-1.449V16h1.449v6.547h2.9V16h1.937
	l0.257-2.189h-2.193L17.446,12.545z"/>
</svg>
