<?xml version="1.0" encoding="utf-8"?>
<!-- Generator: Adobe Illustrator 15.0.0, SVG Export Plug-In . SVG Version: 6.00 Build 0)  -->
<!DOCTYPE svg PUBLIC "-//W3C//DTD SVG 1.1//EN" "http://www.w3.org/Graphics/SVG/1.1/DTD/svg11.dtd">
<svg version="1.1" id="Layer_1" xmlns="http://www.w3.org/2000/svg" xmlns:xlink="http://www.w3.org/1999/xlink" x="0px" y="0px"
	 width="190px" height="70px" viewBox="0 0 190 70" enable-background="new 0 0 190 70" xml:space="preserve">
<path id="facebook1_base" opacity="0.7" fill="#4D4D4D" d="M30,26.907c0,1.671-1.358,3.026-3.033,3.026H3.034
	C1.359,29.933,0,28.578,0,26.907V3.027C0,1.355,1.359,0,3.034,0h23.933C28.642,0,30,1.355,30,3.027V26.907z"/>
<path id="Facebook1_Icon" fill="#FFFFFF" d="M12.701,23.947h3.575v-8.973h2.413L19,11.802h-2.725V9.938
	c0-0.7,0.445-0.862,0.758-0.862h1.923V5.999l-2.648-0.012c-2.939,0-3.607,2.295-3.607,3.764v2.051H11v3.172h1.7V23.947z"/>
<path id="Twitter1_base" opacity="0.7" fill="#4D4D4D" d="M70,26.907c0,1.671-1.359,3.026-3.033,3.026H43.033
	c-1.675,0-3.033-1.355-3.033-3.026V3.027C40,1.355,41.358,0,43.033,0h23.934C68.641,0,70,1.355,70,3.027V26.907z"/>
<g id="Twitter1_Icon">
	<path fill="#FFFFFF" d="M59.827,18.833h-4.31c-0.599,0-1.108-0.209-1.527-0.63c-0.42-0.422-0.628-0.932-0.628-1.533v-1.534H59.5
		c0.555,0,1.032-0.199,1.428-0.594c0.396-0.399,0.596-0.874,0.596-1.43c0-0.555-0.199-1.031-0.597-1.427
		c-0.397-0.397-0.876-0.596-1.433-0.596h-6.133V7.921c0-0.599-0.215-1.113-0.639-1.54C52.3,5.953,51.79,5.737,51.195,5.737
		c-0.61,0-1.13,0.211-1.553,0.631c-0.423,0.419-0.636,0.938-0.636,1.554v8.748c0,1.8,0.636,3.336,1.908,4.612
		c1.274,1.278,2.81,1.916,4.605,1.916h4.307c0.598,0,1.113-0.215,1.54-0.643c0.427-0.427,0.64-0.941,0.64-1.54
		s-0.213-1.112-0.64-1.541C60.94,19.048,60.424,18.833,59.827,18.833L59.827,18.833z M59.827,18.833"/>
</g>
<path id="Google_x2B__1_base" opacity="0.7" fill="#4D4D4D" d="M110,26.907c0,1.671-1.359,3.026-3.033,3.026H83.034
	c-1.676,0-3.033-1.355-3.033-3.026V3.027C80,1.355,81.358,0,83.034,0h23.933C108.641,0,110,1.355,110,3.027V26.907z"/>
<g id="Google_x2B__Icon">
	<path fill="#FFFFFF" d="M100.293,18.402h0.859c0.234,0,0.41-0.186,0.41-0.415v-3.016h3.018c0.234,0,0.42-0.186,0.42-0.417v-0.858
		c0-0.229-0.186-0.417-0.42-0.417h-3.018v-3.014c0-0.23-0.176-0.415-0.41-0.415h-0.859c-0.234,0-0.42,0.185-0.42,0.415v3.014h-3.018
		c-0.225,0-0.41,0.188-0.41,0.417v0.858c0,0.231,0.186,0.417,0.41,0.417h3.018v3.016C99.873,18.216,100.059,18.402,100.293,18.402"
		/>
	<path fill="#FFFFFF" d="M88.414,23.652c0.762,0.193,1.582,0.294,2.437,0.294c0.762,0,1.494-0.102,2.168-0.295
		c2.1-0.611,3.466-2.157,3.466-3.944c0-1.715-0.556-2.74-2.036-3.788c-0.63-0.449-1.211-1.106-1.221-1.308
		c0-0.368,0.034-0.544,0.859-1.189c1.069-0.836,1.655-1.936,1.655-3.098c0-1.052-0.322-1.988-0.869-2.646h0.43
		c0.088,0,0.176-0.027,0.244-0.079l1.181-0.856c0.146-0.108,0.215-0.296,0.156-0.469c-0.059-0.17-0.215-0.288-0.4-0.288h-5.302
		c-0.581,0-1.172,0.102-1.748,0.301c-1.934,0.667-3.286,2.313-3.286,4.005c0,2.393,1.855,4.209,4.336,4.267
		c-0.049,0.19-0.073,0.377-0.073,0.561c0,0.369,0.098,0.719,0.288,1.056c-0.024,0.001-0.044,0.001-0.068,0.001
		c-2.363,0-4.502,1.161-5.308,2.886C85.108,19.512,85,19.965,85,20.415c0,0.436,0.112,0.854,0.332,1.248
		C85.845,22.574,86.939,23.28,88.414,23.652 M88.887,10.227c-0.117-0.877,0.068-1.665,0.508-2.162
		c0.283-0.323,0.649-0.493,1.064-0.493l0.049,0.001c1.172,0.034,2.295,1.339,2.5,2.911c0.117,0.88-0.078,1.707-0.522,2.211
		c-0.283,0.323-0.649,0.493-1.079,0.493l0,0h-0.02C90.24,13.153,89.092,11.796,88.887,10.227 M91.143,17.504l0.044,0.001
		c0.396,0.004,0.776,0.063,1.138,0.171c0.127,0.087,0.244,0.168,0.361,0.247c0.835,0.569,1.387,0.944,1.543,1.548
		c0.034,0.152,0.054,0.305,0.054,0.452c0,1.552-1.157,2.34-3.442,2.34c-1.733,0-3.091-1.061-3.091-2.421
		C87.75,18.598,89.336,17.504,91.143,17.504"/>
</g>
<path id="LinkedIn1_base" opacity="0.7" fill="#4D4D4D" d="M150.105,26.907c0,1.671-1.359,3.026-3.033,3.026h-23.934
	c-1.676,0-3.033-1.355-3.033-3.026V3.027c0-1.671,1.357-3.027,3.033-3.027h23.934c1.674,0,3.033,1.355,3.033,3.027V26.907z"/>
<g id="LinkedIn_Icon">
	<rect x="126.402" y="12.45" fill="#FFFFFF" width="3.732" height="11.996"/>
	<path fill="#FFFFFF" d="M128.268,10.81c1.193,0,2.162-0.969,2.162-2.163c0-1.192-0.969-2.162-2.162-2.162
		c-1.195,0-2.162,0.969-2.162,2.162C126.105,9.841,127.072,10.81,128.268,10.81"/>
	<path fill="#FFFFFF" d="M144.105,17.867c0-3.231-0.699-5.716-4.473-5.716c-1.813,0-3.033,0.995-3.529,1.939h-0.053V12.45h-3.578
		v11.996h3.73v-5.934c0-1.564,0.295-3.08,2.238-3.08c1.91,0,1.936,1.79,1.936,3.181v5.833h3.729V17.867z"/>
</g>
<path id="LinkedIn1_base_1_" opacity="0.7" fill="#4D4D4D" d="M190,26.907c0,1.671-1.359,3.026-3.033,3.026h-23.934
	c-1.676,0-3.033-1.355-3.033-3.026V3.027C160,1.355,161.357,0,163.033,0h23.934C188.641,0,190,1.355,190,3.027V26.907z"/>
<rect x="164" y="3.991" fill="none" width="22" height="21.951"/>
<circle fill="#FFFFFF" cx="169.078" cy="20.876" r="1.688"/>
<path fill="#FFFFFF" d="M175.846,22.988c-0.699,0-1.268-0.568-1.268-1.267c0-3.492-2.848-6.333-6.348-6.333
	c-0.699,0-1.268-0.567-1.268-1.267c0-0.699,0.568-1.266,1.268-1.266c4.9,0,8.885,3.977,8.885,8.865
	C177.115,22.42,176.547,22.988,175.846,22.988z"/>
<path fill="#FFFFFF" d="M181.77,22.988c-0.701,0-1.27-0.568-1.27-1.267c0-6.75-5.504-12.242-12.27-12.242
	c-0.699,0-1.268-0.567-1.268-1.267c0-0.699,0.568-1.267,1.268-1.267c8.166,0,14.809,6.628,14.809,14.775
	C183.039,22.42,182.471,22.988,181.77,22.988z"/>
<path id="facebook1_base_1_" fill="#4D4D4D" d="M30,66.974C30,68.646,28.641,70,26.966,70H3.034C1.358,70,0,68.646,0,66.974v-23.88
	c0-1.671,1.358-3.027,3.034-3.027h23.933c1.675,0,3.033,1.356,3.033,3.027V66.974z"/>
<path id="Facebook1_Icon_1_" fill="#FFFFFF" d="M12.7,64.014h3.575v-8.973h2.412L19,51.868h-2.725v-1.862
	c0-0.7,0.445-0.863,0.758-0.863h1.923v-3.077l-2.648-0.012c-2.939,0-3.607,2.295-3.607,3.765v2.05H11v3.173h1.7V64.014z"/>
<path id="Twitter1_base_1_" fill="#4D4D4D" d="M70,66.974C70,68.646,68.64,70,66.966,70H43.033C41.357,70,40,68.646,40,66.974
	v-23.88c0-1.671,1.357-3.027,3.033-3.027h23.934c1.674,0,3.033,1.356,3.033,3.027V66.974z"/>
<g id="Twitter1_Icon_1_">
	<path fill="#FFFFFF" d="M59.826,58.899h-4.311c-0.598,0-1.107-0.21-1.526-0.631c-0.421-0.421-0.628-0.932-0.628-1.532v-1.533H59.5
		c0.555,0,1.032-0.199,1.428-0.595c0.396-0.399,0.596-0.875,0.596-1.431c0-0.555-0.199-1.03-0.597-1.426
		c-0.397-0.397-0.876-0.597-1.433-0.597h-6.133v-3.167c0-0.6-0.215-1.114-0.639-1.541c-0.423-0.427-0.934-0.644-1.528-0.644
		c-0.61,0-1.13,0.211-1.553,0.632c-0.423,0.419-0.636,0.938-0.636,1.553v8.748c0,1.801,0.636,3.337,1.908,4.613
		c1.274,1.278,2.811,1.915,4.605,1.915h4.307c0.598,0,1.113-0.214,1.54-0.643c0.427-0.427,0.64-0.941,0.64-1.54
		c0-0.598-0.213-1.112-0.64-1.539S60.423,58.899,59.826,58.899L59.826,58.899z M59.826,58.899"/>
</g>
<path id="Google_x2B__1_base_1_" fill="#4D4D4D" d="M110,66.974c0,1.672-1.359,3.026-3.033,3.026H83.033
	C81.357,70,80,68.646,80,66.974v-23.88c0-1.671,1.357-3.027,3.033-3.027h23.934c1.674,0,3.033,1.356,3.033,3.027V66.974z"/>
<g id="Google_x2B__Icon_1_">
	<path fill="#FFFFFF" d="M100.293,58.469h0.859c0.234,0,0.41-0.185,0.41-0.415v-3.017h3.018c0.234,0,0.42-0.185,0.42-0.415v-0.859
		c0-0.228-0.186-0.417-0.42-0.417h-3.018v-3.015c0-0.23-0.176-0.415-0.41-0.415h-0.859c-0.234,0-0.42,0.185-0.42,0.415v3.015h-3.018
		c-0.225,0-0.41,0.189-0.41,0.417v0.859c0,0.23,0.186,0.415,0.41,0.415h3.018v3.017C99.873,58.284,100.059,58.469,100.293,58.469"/>
	<path fill="#FFFFFF" d="M88.413,63.719c0.762,0.193,1.582,0.295,2.437,0.295c0.762,0,1.494-0.102,2.168-0.295
		c2.1-0.611,3.467-2.157,3.467-3.944c0-1.715-0.557-2.739-2.037-3.788c-0.63-0.448-1.211-1.106-1.221-1.308
		c0-0.368,0.034-0.544,0.859-1.188c1.069-0.836,1.655-1.936,1.655-3.099c0-1.053-0.322-1.988-0.869-2.645h0.43
		c0.088,0,0.176-0.027,0.244-0.08l1.182-0.855c0.146-0.109,0.215-0.296,0.156-0.47c-0.059-0.17-0.215-0.288-0.4-0.288h-5.303
		c-0.581,0-1.172,0.103-1.748,0.302c-1.934,0.667-3.286,2.313-3.286,4.005c0,2.393,1.855,4.209,4.336,4.266
		c-0.049,0.191-0.073,0.376-0.073,0.562c0,0.368,0.098,0.719,0.288,1.056c-0.024,0-0.044,0-0.068,0
		c-2.363,0-4.502,1.162-5.308,2.887C85.107,59.58,85,60.032,85,60.482c0,0.435,0.112,0.854,0.332,1.247
		C85.844,62.642,86.938,63.347,88.413,63.719 M88.886,50.294c-0.117-0.877,0.068-1.664,0.508-2.161
		c0.283-0.323,0.649-0.493,1.064-0.493h0.049c1.172,0.035,2.295,1.339,2.5,2.911c0.117,0.879-0.078,1.708-0.522,2.21
		c-0.283,0.324-0.649,0.493-1.079,0.493l0,0h-0.02C90.239,53.221,89.091,51.862,88.886,50.294 M91.142,57.57l0.044,0.002
		c0.396,0.004,0.776,0.063,1.138,0.172c0.127,0.086,0.244,0.168,0.361,0.245c0.835,0.569,1.387,0.945,1.543,1.55
		c0.034,0.152,0.054,0.304,0.054,0.452c0,1.551-1.157,2.341-3.442,2.341c-1.733,0-3.091-1.063-3.091-2.423
		C87.749,58.666,89.335,57.57,91.142,57.57"/>
</g>
<path id="LinkedIn1_base_3_" fill="#4D4D4D" d="M150.105,66.974c0,1.672-1.359,3.026-3.033,3.026h-23.934
	c-1.676,0-3.033-1.354-3.033-3.026v-23.88c0-1.671,1.357-3.027,3.033-3.027h23.934c1.674,0,3.033,1.356,3.033,3.027V66.974z"/>
<g id="LinkedIn_Icon_1_">
	<rect x="126.4" y="52.518" fill="#FFFFFF" width="3.732" height="11.995"/>
	<path fill="#FFFFFF" d="M128.268,50.877c1.191,0,2.162-0.969,2.162-2.163c0-1.193-0.971-2.161-2.162-2.161
		c-1.195,0-2.162,0.968-2.162,2.161C126.105,49.908,127.072,50.877,128.268,50.877"/>
	<path fill="#FFFFFF" d="M144.105,57.934c0-3.231-0.699-5.716-4.473-5.716c-1.814,0-3.033,0.995-3.531,1.938h-0.051v-1.639h-3.578
		v11.995h3.729v-5.935c0-1.564,0.297-3.079,2.238-3.079c1.91,0,1.938,1.789,1.938,3.181v5.833h3.729V57.934z"/>
</g>
<path id="LinkedIn1_base_2_" fill="#4D4D4D" d="M190,66.974c0,1.672-1.359,3.026-3.033,3.026h-23.934
	c-1.676,0-3.033-1.354-3.033-3.026v-23.88c0-1.671,1.357-3.027,3.033-3.027h23.934c1.674,0,3.033,1.356,3.033,3.027V66.974z"/>
<rect x="164" y="44.058" fill="none" width="22" height="21.951"/>
<circle fill="#FFFFFF" cx="169.076" cy="60.943" r="1.688"/>
<path fill="#FFFFFF" d="M175.846,63.055c-0.701,0-1.27-0.567-1.27-1.267c0-3.492-2.846-6.332-6.346-6.332
	c-0.701,0-1.27-0.566-1.27-1.267c0-0.699,0.568-1.267,1.27-1.267c4.898,0,8.885,3.978,8.885,8.865
	C177.115,62.487,176.547,63.055,175.846,63.055z"/>
<path fill="#FFFFFF" d="M181.77,63.055c-0.701,0-1.27-0.567-1.27-1.267c0-6.751-5.504-12.242-12.27-12.242
	c-0.701,0-1.27-0.567-1.27-1.267c0-0.698,0.568-1.267,1.27-1.267c8.164,0,14.807,6.629,14.807,14.775
	C183.037,62.487,182.469,63.055,181.77,63.055z"/>
</svg>
