<?xml version="1.0" encoding="utf-8"?>
<!-- Generator: Adobe Illustrator 15.0.0, SVG Export Plug-In . SVG Version: 6.00 Build 0)  -->
<!DOCTYPE svg PUBLIC "-//W3C//DTD SVG 1.1//EN" "http://www.w3.org/Graphics/SVG/1.1/DTD/svg11.dtd">
<svg version="1.1" id="Layer_1" xmlns="http://www.w3.org/2000/svg" xmlns:xlink="http://www.w3.org/1999/xlink" x="0px" y="0px"
	 width="16px" height="20px" viewBox="0 0 16 20" enable-background="new 0 0 16 20" xml:space="preserve">
<g>
	<path fill="#7F4781" d="M13.064,8.217V5.843c0-2.951-2.266-5.343-5.063-5.343S2.936,2.892,2.936,5.843v2.374
		C2.005,8.217,1.25,9.015,1.25,10v4.154c0,2.95,2.266,5.346,5.063,5.346h3.375c2.797,0,5.063-2.396,5.063-5.346V10
		C14.75,9.015,13.995,8.217,13.064,8.217L13.064,8.217z M4.063,5.843c0-2.296,1.763-4.153,3.939-4.153
		c2.172,0,3.937,1.857,3.937,4.153v2.374h-1.125V5.846c0-1.642-1.26-2.969-2.812-2.969c-1.555,0-2.813,1.327-2.813,2.969v2.371
		H4.063V5.843z M10.253,5.843v2.374H5.75V5.843c0-1.31,1.008-2.374,2.252-2.374C9.243,3.469,10.253,4.533,10.253,5.843L10.253,5.843
		z M13.628,11.779v2.375c0,2.293-1.769,4.156-3.94,4.156H6.313c-2.17,0-3.936-1.863-3.936-4.156V10c0-0.327,0.25-0.595,0.56-0.595
		h10.128c0.311,0,0.563,0.268,0.563,0.595V11.779z M13.628,11.779"/>
	<path fill="#7F4781" d="M8.002,11.779c-0.622,0-1.127,0.531-1.127,1.189c0,0.357,0.187,1.043,0.376,1.584
		c0.151,0.442,0.343,0.789,0.75,0.789c0.439,0,0.596-0.346,0.75-0.781c0.189-0.541,0.373-1.23,0.373-1.592
		C9.125,12.311,8.623,11.779,8.002,11.779L8.002,11.779z M8.002,11.779"/>
</g>
</svg>
