<svg id="Layer_1" data-name="Layer 1" xmlns="http://www.w3.org/2000/svg" viewBox="0 0 16 16"><title>google-small</title><path d="M9.21,10.19a5,5,0,0,0-.56-.63Q8.34,9.26,8,9l-.56-.46a2.27,2.27,0,0,1-.41-.46.88.88,0,0,1-.16-.49A1.08,1.08,0,0,1,7.12,7a3.83,3.83,0,0,1,.54-.59q.32-.28.63-.62a2.8,2.8,0,0,0,.54-.89A3.38,3.38,0,0,0,9,3.6,3.7,3.7,0,0,0,8.67,2,2.88,2.88,0,0,0,7.62.76h1.3L10.21,0H6a8.6,8.6,0,0,0-1.8.19A4.07,4.07,0,0,0,2,1.55,3.59,3.59,0,0,0,1,4a3.08,3.08,0,0,0,1,2.37,3.5,3.5,0,0,0,2.46.94,5.5,5.5,0,0,0,.67,0,2.14,2.14,0,0,1-.07.21l-.08.21a1,1,0,0,0,0,.19A1.32,1.32,0,0,0,5,8a2.45,2.45,0,0,0,.62,1.43,11.59,11.59,0,0,0-1.44.13A11.06,11.06,0,0,0,2.67,10a4.6,4.6,0,0,0-1.39.68A3.1,3.1,0,0,0,0,13a2.38,2.38,0,0,0,.29,1.17A2.6,2.6,0,0,0,1,15a4.43,4.43,0,0,0,1,.56,6,6,0,0,0,1.17.32,7,7,0,0,0,1.15.1,6,6,0,0,0,4-1.26A3.52,3.52,0,0,0,9.78,12a3.23,3.23,0,0,0-.16-1,2.87,2.87,0,0,0-.41-.82ZM5.5,6.69a1.87,1.87,0,0,1-.93-.25,2.48,2.48,0,0,1-.75-.65,4.67,4.67,0,0,1-.54-.9,4.91,4.91,0,0,1-.34-1,4.41,4.41,0,0,1-.11-1,2.6,2.6,0,0,1,.49-1.59A1.62,1.62,0,0,1,4.7.69a1.84,1.84,0,0,1,1.15.39,2.74,2.74,0,0,1,.81,1,6.28,6.28,0,0,1,.45,1.25,5.18,5.18,0,0,1,.16,1.23,2.59,2.59,0,0,1-.42,1.54,1.55,1.55,0,0,1-1.35.58Zm2.66,7.22a1.89,1.89,0,0,1-.72.71,3.6,3.6,0,0,1-1,.38,4.74,4.74,0,0,1-1.08.12A5.27,5.27,0,0,1,4.17,15,4.93,4.93,0,0,1,3,14.53a2.42,2.42,0,0,1-.89-.81,2.06,2.06,0,0,1-.34-1.17,2,2,0,0,1,.26-1,2.11,2.11,0,0,1,.66-.72,3.77,3.77,0,0,1,.94-.44,6,6,0,0,1,1-.24,7.6,7.6,0,0,1,1-.07l.48,0,.29.2.32.22.3.22L7.4,11l.26.25a1.77,1.77,0,0,1,.25.28l.2.29a1.21,1.21,0,0,1,.17.33c0,.11.06.22.09.35a1.72,1.72,0,0,1,0,.39,2.06,2.06,0,0,1-.26,1.06Zm0,0"/><path d="M13.54,2.46V0H12.31V2.46H9.85V3.69h2.46V6.15h1.23V3.69H16V2.46Zm0,0"/></svg>