<?xml version="1.0" encoding="utf-8"?>
<!-- Generator: Adobe Illustrator 16.0.2, SVG Export Plug-In . SVG Version: 6.00 Build 0)  -->
<!DOCTYPE svg PUBLIC "-//W3C//DTD SVG 1.1//EN" "http://www.w3.org/Graphics/SVG/1.1/DTD/svg11.dtd">
<svg version="1.1" id="Layer_1" xmlns="http://www.w3.org/2000/svg" xmlns:xlink="http://www.w3.org/1999/xlink" x="0px" y="0px"
	 width="32px" height="32px" viewBox="0 0 32 32" enable-background="new 0 0 32 32" xml:space="preserve">
<path fill="#0E0F0F" d="M16,0C7.164,0,0,7.163,0,16s7.164,16,16,16c8.837,0,16-7.163,16-16S24.837,0,16,0 M16,30.545
	C7.967,30.545,1.455,24.034,1.455,16C1.455,7.967,7.967,1.455,16,1.455c8.033,0,14.545,6.512,14.545,14.545
	C30.545,24.034,24.033,30.545,16,30.545 M16.057,16.587c-0.373-0.277-0.721-0.688-0.734-0.815c0-0.217,0-0.317,0.513-0.737
	c0.666-0.546,1.033-1.264,1.033-2.021c0-0.654-0.183-1.24-0.498-1.665h0.278l1.538-1.165H14.02c-1.672,0-3.137,1.313-3.137,2.809
	c0,1.546,1.131,2.721,2.653,2.784C13.513,15.885,13.5,15.993,13.5,16.1c0,0.224,0.051,0.437,0.152,0.642
	c-1.886,0.013-3.475,1.274-3.475,2.766c0,1.339,1.53,2.311,3.637,2.311c2.276,0,3.505-1.424,3.505-2.765
	C17.319,17.938,16.977,17.269,16.057,16.587 M12.654,12.946c-0.069-0.558,0.047-1.074,0.315-1.382
	c0.163-0.188,0.373-0.286,0.607-0.286v-0.303l0.027,0.303c0.698,0.022,1.368,0.849,1.492,1.841c0.071,0.567-0.051,1.097-0.325,1.413
	c-0.163,0.187-0.368,0.285-0.622,0.284h-0.001C13.463,14.797,12.779,13.939,12.654,12.946 M13.809,20.66
	c-1.039,0-1.852-0.668-1.852-1.521c0-0.782,0.952-1.468,2.038-1.468v-0.304h0.001l0.028,0.304c0.234,0.003,0.461,0.038,0.677,0.106
	l0.215,0.154c0.552,0.394,0.843,0.617,0.931,0.977c0.021,0.094,0.032,0.188,0.032,0.282C15.877,20.166,15.181,20.66,13.809,20.66
	 M21.814,10.902h-1.455v2.184h-2.188v1.456h2.188v2.174h1.455v-2.174h2.192v-1.456h-2.192V10.902z"/>
</svg>
