<?xml version="1.0" encoding="utf-8"?>
<!-- Generator: Adobe Illustrator 16.0.2, SVG Export Plug-In . SVG Version: 6.00 Build 0)  -->
<!DOCTYPE svg PUBLIC "-//W3C//DTD SVG 1.1//EN" "http://www.w3.org/Graphics/SVG/1.1/DTD/svg11.dtd">
<svg version="1.1" id="Layer_1" xmlns="http://www.w3.org/2000/svg" xmlns:xlink="http://www.w3.org/1999/xlink" x="0px" y="0px"
	 width="38.875px" height="47.92px" viewBox="0 0 38.875 47.92" enable-background="new 0 0 38.875 47.92" xml:space="preserve">
<path fill="#9A88C0" d="M32.493,33.702c0.248-0.139,0.48-0.31,0.689-0.52c1.117-1.116,1.121-2.845,1.125-4.516
	c0.002-1.065,0.006-2.168,0.322-2.936c0.299-0.718,1.02-1.434,1.783-2.193c1.213-1.202,2.463-2.445,2.463-4.1
	c0-1.655-1.25-2.898-2.463-4.101c-0.764-0.758-1.484-1.475-1.783-2.192c-0.316-0.769-0.32-1.869-0.322-2.935
	c-0.004-1.672-0.008-3.4-1.125-4.517c-1.117-1.118-2.846-1.122-4.518-1.125c-1.066-0.002-2.168-0.005-2.934-0.324
	c-0.719-0.297-1.436-1.019-2.193-1.783C22.336,1.251,21.092,0,19.438,0c-1.655,0-2.897,1.251-4.101,2.462
	c-0.759,0.764-1.476,1.485-2.192,1.782c-0.769,0.319-1.87,0.321-2.937,0.324C8.539,4.573,6.81,4.576,5.692,5.693
	C4.575,6.81,4.571,8.539,4.567,10.21c-0.001,1.065-0.004,2.166-0.324,2.935c-0.297,0.717-1.018,1.434-1.782,2.193
	C1.251,16.54,0,17.783,0,19.438c0,1.655,1.251,2.898,2.461,4.1c0.765,0.759,1.485,1.476,1.782,2.193
	c0.32,0.769,0.323,1.87,0.324,2.936c0.004,1.671,0.008,3.399,1.125,4.516c0.21,0.21,0.441,0.381,0.688,0.52l-4.508,7.807
	c-0.117,0.205-0.124,0.455-0.019,0.666s0.311,0.354,0.545,0.383l5.367,0.641l3.238,4.328c0.134,0.179,0.344,0.281,0.563,0.281
	c0.016,0,0.028,0,0.043,0c0.235-0.014,0.448-0.146,0.566-0.351l5.304-9.185c0.595,0.366,1.235,0.604,1.957,0.604
	c0.719,0,1.362-0.237,1.958-0.604l5.303,9.185c0.117,0.204,0.332,0.337,0.568,0.351c0.012,0,0.027,0,0.039,0
	c0.221,0,0.43-0.103,0.563-0.281l3.24-4.328l5.367-0.641c0.236-0.028,0.439-0.172,0.545-0.383s0.1-0.461-0.02-0.666L32.493,33.702z
	 M11.493,45.832l-2.781-3.717c-0.114-0.155-0.289-0.255-0.479-0.277l-4.608-0.55l4.115-7.126c0.78,0.143,1.633,0.144,2.469,0.146
	c0.67,0.002,1.353,0.004,1.957,0.083l-2.904,5.031c-0.194,0.336-0.079,0.766,0.256,0.96c0.112,0.063,0.231,0.094,0.352,0.094
	c0.243,0,0.479-0.126,0.608-0.352l3.053-5.285c0.002-0.002,0.002-0.004,0.003-0.007c0.589,0.359,1.183,0.956,1.805,1.583
	c0.334,0.336,0.672,0.676,1.021,0.991L11.493,45.832z M16.334,35.424c-0.822-0.829-1.674-1.686-2.65-2.091
	c-1.026-0.426-2.269-0.428-3.471-0.431c-1.45-0.004-2.82-0.008-3.527-0.713c-0.706-0.708-0.711-2.078-0.713-3.527
	c-0.003-1.201-0.005-2.445-0.432-3.47c-0.403-0.978-1.261-1.829-2.09-2.652c-1.006-1-2.047-2.033-2.047-3.103
	s1.041-2.104,2.047-3.103c0.829-0.824,1.687-1.674,2.09-2.652c0.427-1.025,0.43-2.268,0.433-3.47
	c0.003-1.45,0.006-2.819,0.714-3.526c0.705-0.707,2.075-0.71,3.525-0.714c1.202-0.002,2.444-0.005,3.471-0.43
	c0.977-0.405,1.828-1.262,2.65-2.091c0.999-1.006,2.034-2.047,3.104-2.047c1.071,0,2.102,1.041,3.104,2.047
	c0.822,0.829,1.672,1.686,2.65,2.091c1.023,0.425,2.268,0.428,3.471,0.43c1.449,0.003,2.818,0.007,3.525,0.714
	c0.707,0.707,0.711,2.077,0.715,3.526c0.002,1.203,0.004,2.446,0.43,3.47c0.406,0.978,1.262,1.829,2.09,2.652
	c1.008,1,2.049,2.033,2.049,3.103s-1.041,2.104-2.049,3.103c-0.828,0.824-1.684,1.674-2.09,2.652
	c-0.426,1.025-0.428,2.269-0.43,3.47c-0.004,1.45-0.008,2.82-0.715,3.527c-0.707,0.706-2.076,0.709-3.527,0.713
	c-1.201,0.003-2.445,0.005-3.469,0.431c-0.979,0.405-1.828,1.262-2.65,2.091c-1.002,1.006-2.033,2.047-3.104,2.047
	C18.368,37.471,17.333,36.43,16.334,35.424L16.334,35.424z M30.641,41.837c-0.189,0.022-0.363,0.123-0.479,0.277l-2.779,3.717
	l-4.865-8.426c0.348-0.315,0.686-0.655,1.02-0.991c0.67-0.675,1.307-1.316,1.939-1.662c0.012,0.029,0.025,0.059,0.043,0.086
	l3.051,5.286c0.129,0.225,0.367,0.351,0.609,0.351c0.119,0,0.242-0.03,0.352-0.094c0.336-0.193,0.451-0.624,0.256-0.96l-2.916-5.05
	c0.564-0.061,1.184-0.063,1.793-0.064c0.84-0.001,1.689-0.003,2.473-0.146l4.113,7.127L30.641,41.837z M30.641,41.837"/>
<rect y="-0.08" fill="none" width="38.866" height="48"/>
<path fill="#F98C67" d="M32.129,19.438c0-6.999-5.693-12.693-12.692-12.693c-6.999,0-12.693,5.694-12.693,12.693
	s5.694,12.693,12.693,12.693C26.436,32.131,32.129,26.437,32.129,19.438L32.129,19.438z M19.438,30.726
	c-6.225,0-11.288-5.063-11.288-11.288c0-6.224,5.063-11.288,11.288-11.288c6.223,0,11.288,5.064,11.288,11.288
	C30.725,25.663,25.661,30.726,19.438,30.726L19.438,30.726z M19.438,30.726"/>
<path fill="#9A88C0" d="M19.438,9.742c-5.346,0-9.696,4.35-9.696,9.696c0,2.046,0.63,4.002,1.822,5.658
	c0.226,0.314,0.665,0.386,0.98,0.159c0.314-0.226,0.387-0.665,0.159-0.98c-1.019-1.414-1.556-3.087-1.556-4.837
	c0-4.571,3.72-8.29,8.29-8.29c4.571,0,8.29,3.719,8.29,8.29s-3.719,8.29-8.29,8.29c-1.458,0-2.893-0.383-4.145-1.108
	c-0.337-0.194-0.766-0.079-0.961,0.256c-0.194,0.336-0.079,0.767,0.256,0.961c1.468,0.849,3.144,1.297,4.85,1.297
	c5.346,0,9.696-4.35,9.696-9.695C29.133,14.092,24.784,9.742,19.438,9.742L19.438,9.742z M19.438,9.742"/>
<path fill="#F98C67" d="M24.729,19.438c0,0.388,0.314,0.702,0.703,0.702s0.703-0.314,0.703-0.702c0-3.693-3.006-6.698-6.698-6.698
	c-0.389,0-0.702,0.315-0.702,0.703c0,0.388,0.313,0.703,0.702,0.703C22.356,14.146,24.729,16.52,24.729,19.438L24.729,19.438z
	 M24.729,19.438"/>
</svg>
