<svg xmlns="http://www.w3.org/2000/svg" xmlns:xlink="http://www.w3.org/1999/xlink" preserveAspectRatio="xMidYMid" width="60" height="60" viewBox="0 0 60 60">
  <defs>
    <style>
      .cls-1 {
        fill: #fff;
        fill-rule: evenodd;
      }
    </style>
  </defs>
  <path d="M30.000,60.000 C13.431,60.000 0.000,46.569 0.000,30.000 C0.000,13.431 13.431,0.000 30.000,0.000 C46.569,0.000 60.000,13.431 60.000,30.000 C60.000,46.569 46.569,60.000 30.000,60.000 ZM30.000,2.000 C14.536,2.000 2.000,14.536 2.000,30.000 C2.000,45.464 14.536,58.000 30.000,58.000 C45.464,58.000 58.000,45.464 58.000,30.000 C58.000,14.536 45.464,2.000 30.000,2.000 ZM30.694,36.717 C30.311,37.101 29.689,37.101 29.306,36.717 L20.283,27.678 C19.899,27.295 19.899,26.672 20.283,26.288 C20.666,25.904 21.288,25.904 21.671,26.288 L30.000,34.631 L38.329,26.288 C38.712,25.904 39.334,25.904 39.717,26.288 C40.101,26.672 40.101,27.295 39.717,27.678 L30.694,36.717 Z" class="cls-1"/>
</svg>
