<?xml version="1.0" encoding="utf-8"?>
<!-- Generator: Adobe Illustrator 16.0.2, SVG Export Plug-In . SVG Version: 6.00 Build 0)  -->
<!DOCTYPE svg PUBLIC "-//W3C//DTD SVG 1.1//EN" "http://www.w3.org/Graphics/SVG/1.1/DTD/svg11.dtd">
<svg version="1.1" id="Layer_1" xmlns="http://www.w3.org/2000/svg" xmlns:xlink="http://www.w3.org/1999/xlink" x="0px" y="0px"
	 width="34.603px" height="48px" viewBox="0 0 34.603 48" enable-background="new 0 0 34.603 48" xml:space="preserve">
<path fill="#9A88C0" d="M29.208,4.801c-3.477-3.299-8.036-4.977-12.839-4.725c-4.33,0.228-8.404,2.102-11.475,5.277
	C1.827,8.527,0.09,12.664,0.004,17.001c-0.066,3.303,0.801,6.531,2.51,9.337c1.658,2.722,4.029,4.933,6.859,6.395
	c1.354,0.699,2.195,2.107,2.195,3.673v4.32c0,2.06,0.994,3.689,2.512,4.351c0.221,1.58,1.581,2.8,3.221,2.8
	c1.639,0,2.996-1.217,3.221-2.793c1.474-0.615,2.513-2.071,2.513-3.767v-4.907c0-1.566,0.847-2.979,2.209-3.684
	c5.773-2.988,9.359-8.878,9.359-15.372C34.603,12.56,32.687,8.102,29.208,4.801L29.208,4.801z M21.484,36.409v0.828h-8.367v-0.832
	c0-0.313-0.025-0.622-0.072-0.924h8.515C21.51,35.784,21.484,36.095,21.484,36.409L21.484,36.409z M21.484,40.545
	c-0.017-0.001-0.034-0.003-0.052-0.003H13.17c-0.018,0-0.035,0.002-0.053,0.003v-1.759h8.367V40.545z M17.301,46.327
	c-0.66,0-1.233-0.379-1.516-0.93h3.032C18.534,45.948,17.962,46.327,17.301,46.327L17.301,46.327z M18.954,43.848h-3.306
	c-1.105,0-1.944-0.669-2.317-1.756h8.032C21.034,43.109,20.079,43.848,18.954,43.848L18.954,43.848z M24.531,31.35
	c-1.111,0.575-1.974,1.488-2.492,2.582h-9.473c-0.518-1.093-1.376-2.004-2.483-2.576c-2.576-1.331-4.736-3.345-6.247-5.824
	c-1.554-2.552-2.344-5.491-2.283-8.5C1.631,13.087,3.214,9.322,6.009,6.43c2.796-2.893,6.505-4.6,10.442-4.806
	c0.287-0.015,0.572-0.023,0.857-0.023c4.057,0,7.876,1.518,10.833,4.324c3.167,3.005,4.911,7.064,4.911,11.429
	C33.054,23.266,29.788,28.629,24.531,31.35L24.531,31.35z M24.531,31.35"/>
<rect fill="none" width="34.582" height="48"/>
<path fill="#F98C67" d="M27.218,14.926h-0.36c-0.232-0.924-0.595-1.801-1.08-2.616l0.252-0.252c0.302-0.302,0.468-0.704,0.468-1.132
	c0-0.429-0.166-0.831-0.468-1.132L24.86,8.625c-0.624-0.624-1.64-0.624-2.264,0l-0.253,0.252c-0.814-0.486-1.69-0.848-2.615-1.081
	v-0.36c0-0.883-0.718-1.601-1.601-1.601h-1.653c-0.883,0-1.601,0.718-1.601,1.601v0.36c-0.925,0.233-1.8,0.594-2.615,1.081
	l-0.253-0.252c-0.624-0.624-1.641-0.624-2.264,0L8.573,9.793c-0.302,0.302-0.468,0.704-0.468,1.132c0,0.428,0.166,0.83,0.468,1.132
	l0.253,0.252c-0.486,0.815-0.849,1.691-1.081,2.616H7.386c-0.884,0-1.602,0.718-1.602,1.601v1.653c0,0.882,0.718,1.601,1.602,1.601
	h0.359c0.232,0.925,0.595,1.801,1.081,2.616l-0.253,0.252c-0.302,0.302-0.468,0.704-0.468,1.132c0,0.429,0.166,0.831,0.468,1.133
	l1.169,1.168c0.301,0.302,0.703,0.468,1.132,0.468s0.831-0.166,1.132-0.468l0.253-0.253c0.815,0.486,1.69,0.849,2.615,1.081v0.359
	c0,0.883,0.718,1.602,1.601,1.602h1.653c0.883,0,1.601-0.719,1.601-1.602v-0.359c0.925-0.232,1.801-0.595,2.615-1.081l0.253,0.253
	c0.302,0.302,0.703,0.468,1.132,0.468s0.83-0.166,1.132-0.468l1.169-1.168c0.302-0.302,0.468-0.704,0.468-1.133
	c0-0.428-0.166-0.83-0.468-1.132l-0.253-0.252c0.486-0.815,0.849-1.691,1.081-2.616h0.359c0.884,0,1.602-0.718,1.602-1.601v-1.653
	C28.818,15.644,28.101,14.926,27.218,14.926L27.218,14.926z M27.269,18.18c0,0.026-0.024,0.051-0.051,0.051h-0.984
	c-0.374,0-0.694,0.267-0.762,0.635c-0.213,1.159-0.658,2.234-1.321,3.197c-0.212,0.308-0.175,0.723,0.09,0.988l0.693,0.693
	c0.01,0.01,0.015,0.021,0.015,0.037c0,0.015-0.005,0.026-0.015,0.036l-1.169,1.168c-0.019,0.02-0.054,0.02-0.072,0l-0.693-0.693
	c-0.265-0.264-0.68-0.302-0.987-0.09c-0.964,0.664-2.039,1.108-3.198,1.321c-0.367,0.068-0.634,0.389-0.634,0.762v0.983
	c0,0.027-0.025,0.053-0.052,0.053h-1.653c-0.025,0-0.051-0.025-0.051-0.053v-0.983c0-0.373-0.268-0.693-0.635-0.762
	c-1.159-0.213-2.234-0.657-3.197-1.321c-0.134-0.092-0.287-0.137-0.439-0.137c-0.2,0-0.398,0.077-0.549,0.227l-0.693,0.693
	c-0.019,0.02-0.055,0.02-0.073,0l-1.169-1.168c-0.009-0.01-0.014-0.021-0.014-0.036c0-0.016,0.005-0.027,0.014-0.037l0.693-0.693
	c0.265-0.265,0.303-0.68,0.091-0.988c-0.663-0.963-1.108-2.039-1.321-3.197c-0.068-0.368-0.389-0.635-0.762-0.635H7.385
	c-0.026,0-0.051-0.025-0.051-0.051v-1.653c0-0.026,0.024-0.052,0.051-0.052h0.984c0.373,0,0.693-0.267,0.762-0.634
	c0.213-1.159,0.658-2.235,1.321-3.198c0.212-0.308,0.174-0.723-0.091-0.987l-0.693-0.694c-0.009-0.009-0.014-0.021-0.014-0.036
	c0-0.015,0.005-0.027,0.014-0.037l1.169-1.169c0.019-0.019,0.055-0.019,0.073,0l0.693,0.693c0.264,0.265,0.68,0.302,0.988,0.091
	c0.963-0.664,2.038-1.109,3.197-1.322c0.367-0.067,0.635-0.388,0.635-0.762V7.437c0-0.027,0.025-0.052,0.051-0.052h1.653
	c0.026,0,0.052,0.025,0.052,0.052V8.42c0,0.374,0.267,0.695,0.634,0.762c1.159,0.213,2.234,0.658,3.198,1.322
	c0.308,0.211,0.723,0.174,0.987-0.091l0.693-0.693c0.019-0.019,0.054-0.019,0.072,0l1.169,1.169c0.01,0.009,0.015,0.021,0.015,0.037
	c0,0.015-0.005,0.027-0.015,0.036l-0.693,0.694c-0.265,0.264-0.302,0.68-0.09,0.987c0.663,0.963,1.108,2.039,1.321,3.198
	c0.067,0.368,0.388,0.634,0.762,0.634h0.984c0.026,0,0.051,0.025,0.051,0.052V18.18z M27.269,18.18"/>
<path fill="#9A88C0" d="M17.301,10.794c-3.616,0-6.559,2.942-6.559,6.56c0,3.616,2.942,6.559,6.559,6.559
	c3.617,0,6.56-2.942,6.56-6.559C23.86,13.736,20.918,10.794,17.301,10.794L17.301,10.794z M17.301,22.362
	c-2.762,0-5.01-2.247-5.01-5.009c0-2.763,2.248-5.01,5.01-5.01c2.763,0,5.011,2.247,5.011,5.01
	C22.312,20.116,20.063,22.362,17.301,22.362L17.301,22.362z M17.301,22.362"/>
<path fill="#F98C67" d="M17.301,14.099c-1.793,0-3.253,1.459-3.253,3.254c0,1.794,1.46,3.253,3.253,3.253
	c1.795,0,3.254-1.459,3.254-3.253C20.555,15.559,19.096,14.099,17.301,14.099L17.301,14.099z M17.301,19.058
	c-0.939,0-1.703-0.765-1.703-1.704c0-0.94,0.764-1.705,1.703-1.705c0.94,0,1.705,0.765,1.705,1.705
	C19.006,18.293,18.241,19.058,17.301,19.058L17.301,19.058z M17.301,19.058"/>
</svg>
