<?xml version="1.0" encoding="utf-8"?>
<!-- Generator: Adobe Illustrator 16.0.2, SVG Export Plug-In . SVG Version: 6.00 Build 0)  -->
<!DOCTYPE svg PUBLIC "-//W3C//DTD SVG 1.1//EN" "http://www.w3.org/Graphics/SVG/1.1/DTD/svg11.dtd">
<svg version="1.1" id="Layer_1" xmlns="http://www.w3.org/2000/svg" xmlns:xlink="http://www.w3.org/1999/xlink" x="0px" y="0px"
	 width="32px" height="32px" viewBox="0 0 32 32" enable-background="new 0 0 32 32" xml:space="preserve">
<path fill="#0A0A0A" d="M11.631,10.182c-0.801,0-1.45,0.652-1.45,1.457c0,0.804,0.649,1.457,1.45,1.457
	c0.8,0,1.449-0.653,1.449-1.457C13.08,10.834,12.431,10.182,11.631,10.182 M10.182,21.818h2.898v-8.011h-2.898V21.818z
	 M19.896,13.808c-2.156,0-2.444,1.298-2.444,1.298l0.003-1.287h-2.909v8h2.909v-4.363c0,0,0-1.466,1.236-1.466
	c0.695,0,0.945,0.65,0.945,1.466v4.363h2.909v-4.363C22.545,15.178,21.556,13.808,19.896,13.808 M16,0C7.164,0,0,7.163,0,16
	s7.164,16,16,16s16-7.163,16-16S24.836,0,16,0 M16,30.545C7.967,30.545,1.455,24.033,1.455,16S7.967,1.455,16,1.455
	S30.545,7.967,30.545,16S24.033,30.545,16,30.545"/>
</svg>
