<?xml version="1.0" encoding="utf-8"?>
<!-- Generator: Adobe Illustrator 15.0.0, SVG Export Plug-In . SVG Version: 6.00 Build 0)  -->
<!DOCTYPE svg PUBLIC "-//W3C//DTD SVG 1.1//EN" "http://www.w3.org/Graphics/SVG/1.1/DTD/svg11.dtd">
<svg version="1.1" id="Layer_1" xmlns="http://www.w3.org/2000/svg" xmlns:xlink="http://www.w3.org/1999/xlink" x="0px" y="0px"
	 width="30px" height="31px" viewBox="0 0 30 31" enable-background="new 0 0 30 31" xml:space="preserve">
<g>
	<path fill="#F1F2F2" d="M15,3c6.893,0,12.5,5.607,12.5,12.5S21.893,28,15,28S2.5,22.393,2.5,15.5S8.107,3,15,3 M15,1
		C6.992,1,0.5,7.491,0.5,15.5C0.5,23.508,6.992,30,15,30c8.008,0,14.5-6.492,14.5-14.5C29.5,7.491,23.008,1,15,1L15,1z"/>
</g>
<rect x="2.433" y="14.247" fill="#F1F2F2" width="6" height="2"/>
<rect x="21.6" y="14.247" fill="#F1F2F2" width="6" height="2"/>
<rect x="14" y="2.931" fill="#F1F2F2" width="2" height="6"/>
<rect x="14" y="22.1" fill="#F1F2F2" width="2" height="6"/>
</svg>
