<?xml version="1.0" encoding="utf-8"?>
<!-- Generator: Adobe Illustrator 15.0.0, SVG Export Plug-In . SVG Version: 6.00 Build 0)  -->
<!DOCTYPE svg PUBLIC "-//W3C//DTD SVG 1.1//EN" "http://www.w3.org/Graphics/SVG/1.1/DTD/svg11.dtd">
<svg version="1.1" id="Layer_1" xmlns="http://www.w3.org/2000/svg" xmlns:xlink="http://www.w3.org/1999/xlink" x="0px" y="0px"
	 width="390px" height="40px" viewBox="0 0 390 40" enable-background="new 0 0 390 40" xml:space="preserve">
<g id="fb">
	<rect x="-0.073" fill="#2A4C93" width="40" height="40"/>
	<path id="Facebook_Icon" fill="#FFFFFF" d="M17.052,31h4.468V20.009h3.016l0.391-3.885h-3.406V13.84
		c0-0.857,0.557-1.057,0.947-1.057h2.404V9.015L21.562,9c-3.675,0-4.509,2.811-4.509,4.612v2.512h-2.125v3.885h2.125V31z"/>
	<rect x="39.927" fill="#3F62AD" width="90" height="40"/>
	<rect x="39.927" y="14.5" fill="none" width="90.146" height="15"/>
	
		<text id="Facebook" transform="matrix(1.0195 0 0 1 54.7866 24.2236)" fill="#FFFFFF" font-family="'MyriadPro-Bold'" font-size="13.6953">Facebook</text>
</g>
<g id="g_x2B_">
	<rect x="129.927" fill="#AF3F25" width="40" height="40"/>
	<rect x="169.927" fill="#D64E2A" width="90" height="40"/>
	<rect x="169.927" y="14.5" fill="none" width="90.146" height="15"/>
	
		<text id="Facebook_1_" transform="matrix(1.0195 0 0 1 188.333 24.2236)" fill="#FFFFFF" font-family="'MyriadPro-Bold'" font-size="13.6953">Google+</text>
	<g id="Google_x2B__Icon">
		<path fill="#FFFFFF" d="M155.749,23.826h0.943c0.256,0,0.459-0.207,0.459-0.463v-3.358h3.316c0.253,0,0.459-0.207,0.459-0.464
			v-0.956c0-0.255-0.206-0.465-0.459-0.465h-3.316v-3.356c0-0.256-0.203-0.463-0.459-0.463h-0.943c-0.252,0-0.459,0.207-0.459,0.463
			v3.356h-3.317c-0.253,0-0.459,0.21-0.459,0.465v0.956c0,0.257,0.206,0.464,0.459,0.464h3.317v3.358
			C155.29,23.619,155.497,23.826,155.749,23.826"/>
		<path fill="#FFFFFF" d="M142.682,29.674c0.839,0.215,1.741,0.327,2.678,0.327c0.842,0,1.646-0.112,2.387-0.329
			c2.313-0.68,3.81-2.402,3.81-4.393c0-1.91-0.607-3.053-2.232-4.219c-0.697-0.5-1.333-1.231-1.346-1.457
			c0-0.41,0.037-0.605,0.947-1.324c1.175-0.93,1.822-2.154,1.822-3.449c0-1.172-0.354-2.214-0.959-2.946h0.47
			c0.096,0,0.192-0.03,0.269-0.088l1.305-0.954c0.164-0.119,0.231-0.328,0.169-0.521c-0.063-0.189-0.237-0.32-0.438-0.32h-5.835
			c-0.639,0-1.287,0.114-1.924,0.335c-2.127,0.743-3.613,2.576-3.613,4.461c0,2.664,2.041,4.688,4.771,4.752
			c-0.054,0.211-0.079,0.419-0.079,0.623c0,0.412,0.104,0.802,0.314,1.177c-0.025,0.002-0.049,0.002-0.076,0.002
			c-2.6,0-4.949,1.291-5.84,3.215c-0.233,0.498-0.353,1.002-0.353,1.502c0,0.485,0.125,0.953,0.366,1.392
			C139.853,28.473,141.056,29.259,142.682,29.674 M143.201,14.723c-0.127-0.979,0.078-1.854,0.559-2.408
			c0.311-0.36,0.718-0.549,1.173-0.549h0.054c1.289,0.039,2.521,1.491,2.75,3.242c0.129,0.979-0.086,1.9-0.574,2.461
			c-0.312,0.361-0.713,0.551-1.188,0.551l0,0h-0.021C144.689,17.98,143.428,16.469,143.201,14.723 M145.681,22.825l0.054,0.001
			c0.433,0.005,0.854,0.07,1.25,0.191c0.137,0.097,0.27,0.188,0.396,0.273c0.92,0.634,1.525,1.052,1.696,1.727
			c0.039,0.168,0.06,0.338,0.06,0.502c0,1.729-1.273,2.606-3.788,2.606c-1.905,0-3.397-1.183-3.397-2.696
			C141.951,24.044,143.695,22.825,145.681,22.825"/>
	</g>
</g>
<g id="linkedin">
	<rect x="259.927" fill="#005B8E" width="40" height="40"/>
	<rect x="299.927" fill="#1C7CB6" width="90" height="40"/>
	<rect x="299.927" y="14.5" fill="none" width="90.146" height="15"/>
	
		<text id="Facebook_2_" transform="matrix(1.0195 0 0 1 317.7188 24.2236)" fill="#FFFFFF" font-family="'MyriadPro-Bold'" font-size="13.6953">LinkedIn</text>
	<g id="LinkedIn_Icon">
		<rect x="270.256" y="14.903" fill="#FFFFFF" width="4.146" height="13.36"/>
		<path fill="#FFFFFF" d="M272.33,13.077c1.324,0,2.401-1.078,2.401-2.408c0-1.328-1.077-2.407-2.401-2.407
			c-1.329,0-2.403,1.079-2.403,2.407C269.927,11.999,271.001,13.077,272.33,13.077"/>
		<path fill="#FFFFFF" d="M289.927,20.937c0-3.598-0.775-6.365-4.969-6.365c-2.016,0-3.371,1.107-3.924,2.16h-0.057v-1.828h-3.976
			v13.36h4.144v-6.609c0-1.742,0.33-3.43,2.486-3.43c2.123,0,2.152,1.993,2.152,3.542v6.497h4.143V20.937z"/>
	</g>
</g>
</svg>
