<?xml version="1.0" encoding="utf-8"?>
<!-- Generator: Adobe Illustrator 17.0.0, SVG Export Plug-In . SVG Version: 6.00 Build 0)  -->
<!DOCTYPE svg PUBLIC "-//W3C//DTD SVG 1.1//EN" "http://www.w3.org/Graphics/SVG/1.1/DTD/svg11.dtd">
<svg version="1.1" id="Isolation_Mode" xmlns="http://www.w3.org/2000/svg" xmlns:xlink="http://www.w3.org/1999/xlink" x="0px"
	 y="0px" width="358.912px" height="132.565px" viewBox="76.91 28.407 358.912 132.565"
	 enable-background="new 76.91 28.407 358.912 132.565" xml:space="preserve">
<g>
	<path fill="#874288" d="M202.283,82.137c0,0,69.603-29.001,26.25-53.73C275.241,47.945,276.463,67.789,202.283,82.137"/>
	<path fill="#874288" d="M264.157,35.707c1.109,3.752-0.337,7.493-3.241,8.354c-2.904,0.859-6.161-1.485-7.274-5.238
		c-1.112-3.753,0.34-7.493,3.244-8.352C259.791,29.609,263.045,31.955,264.157,35.707"/>
	<path fill="#874288" d="M241.917,52.803c0,0,4.36-7.905-10.274-16.807c0,0,7.023,2.276,14.688,10.101
		C251.697,51.57,241.917,52.803,241.917,52.803"/>
	<path fill="#874288" d="M116.742,149.777l-3.651,11.082h-1.25l2.92-8.866l0.218-0.664l0.122-0.336l0.113-0.33h-0.029l-0.186,0.26
		c-0.093,0.132-0.15,0.215-0.18,0.253l-0.378,0.516l-6.799,9.168h-1.25l-0.801-9.061l-0.045-0.507l-0.013-0.263
		c-0.01-0.057-0.013-0.144-0.02-0.249h-0.029l-0.09,0.301l-0.093,0.302l-0.202,0.613l-2.92,8.866h-1.25l3.651-11.082h2.167
		l0.593,7.168l0.09,1.16l0.045,0.58l0.038,0.574h0.032l0.416-0.574c0.205-0.279,0.343-0.471,0.414-0.58l0.862-1.151l5.305-7.178
		H116.742z"/>
	<path fill="#874288" d="M118.162,155.272h-1.128c0.297-0.904,0.702-1.506,1.215-1.821c0.51-0.31,1.362-0.468,2.555-0.468
		c1.291,0,2.103,0.192,2.43,0.573c0.33,0.382,0.317,1.106-0.032,2.176l-1.689,5.125h-1.138l0.366-0.836l-0.027-0.007
		c-0.641,0.638-1.621,0.956-2.948,0.956c-1.959,0-2.68-0.785-2.161-2.36c0.305-0.939,0.737-1.587,1.292-1.943
		c0.558-0.359,1.411-0.532,2.555-0.532c1.366,0,2.1,0.266,2.193,0.801l0.025-0.01l0.308-0.939c0.295-0.888,0.362-1.462,0.202-1.727
		c-0.153-0.26-0.644-0.395-1.468-0.395c-1.394,0-2.218,0.395-2.481,1.18C118.217,155.082,118.194,155.157,118.162,155.272
		 M119.416,157.019c-0.875,0-1.471,0.093-1.792,0.276c-0.323,0.183-0.584,0.58-0.785,1.189c-0.205,0.625-0.215,1.042-0.022,1.243
		c0.193,0.202,0.689,0.302,1.488,0.302c1.596,0,2.564-0.481,2.882-1.459c0.202-0.612,0.179-1.023-0.058-1.234
		C120.884,157.124,120.317,157.019,119.416,157.019"/>
	<polygon fill="#874288" points="128.401,149.777 126.279,156.215 126.801,156.215 130.575,153.099 132.001,153.099 
		127.507,156.663 130.046,160.859 128.51,160.859 126.452,157.099 125.987,157.099 124.753,160.859 123.615,160.859 
		127.266,149.777 	"/>
	<path fill="#874288" d="M136.94,158.517h1.161l-0.086,0.282c-0.267,0.807-0.693,1.371-1.292,1.692
		c-0.593,0.321-1.507,0.482-2.738,0.482c-1.427,0-2.279-0.257-2.555-0.779c-0.272-0.522-0.134-1.622,0.414-3.292
		c0.513-1.548,1.081-2.59,1.702-3.122c0.625-0.529,1.593-0.795,2.904-0.795c1.427,0,2.286,0.23,2.58,0.689
		c0.288,0.461,0.193,1.433-0.295,2.907l-0.196,0.609h-5.587c-0.405,1.225-0.529,2.007-0.379,2.34c0.15,0.334,0.712,0.5,1.67,0.5
		c0.917,0,1.536-0.077,1.866-0.237c0.327-0.158,0.574-0.507,0.75-1.035L136.94,158.517z M137.665,156.304l0.115-0.365
		c0.276-0.837,0.317-1.385,0.125-1.635c-0.199-0.25-0.748-0.379-1.664-0.379c-0.917,0-1.565,0.148-1.936,0.443
		c-0.372,0.295-0.718,0.942-1.051,1.936L137.665,156.304L137.665,156.304z"/>
	<path fill="#874288" d="M155.376,149.777l-6.315,6.453l-1.529,4.628h-1.25l1.53-4.628l-1.962-6.453h1.452l1.151,3.745l0.218,0.721
		c0.026,0.086,0.064,0.209,0.106,0.356l0.099,0.365h0.035c0.151-0.16,0.263-0.282,0.34-0.365l0.333-0.356l0.702-0.721l3.606-3.745
		H155.376z"/>
	<path fill="#874288" d="M158.437,152.983c1.433,0,2.283,0.25,2.545,0.746c0.266,0.497,0.122,1.581-0.426,3.251
		c-0.551,1.664-1.122,2.747-1.715,3.248c-0.589,0.5-1.603,0.744-3.035,0.744c-1.433,0-2.276-0.244-2.539-0.744
		c-0.266-0.5-0.122-1.584,0.426-3.248c0.551-1.67,1.122-2.754,1.711-3.251C155.997,153.234,157.004,152.983,158.437,152.983
		 M158.126,153.925c-1.009,0-1.689,0.164-2.032,0.494c-0.353,0.327-0.75,1.179-1.205,2.561c-0.455,1.379-0.619,2.234-0.481,2.561
		c0.128,0.327,0.699,0.487,1.709,0.487c1.009,0,1.689-0.16,2.038-0.487c0.347-0.327,0.75-1.182,1.209-2.561
		c0.449-1.382,0.612-2.234,0.477-2.561C159.714,154.089,159.135,153.925,158.126,153.925"/>
	<path fill="#874288" d="M169.936,153.099l-2.559,7.76h-1.135l0.414-1.012l-0.016-0.026c-0.648,0.766-1.619,1.152-2.914,1.152
		c-1.811,0-2.42-0.898-1.824-2.709l1.699-5.164h1.138l-1.7,5.164c-0.237,0.702-0.272,1.177-0.118,1.414
		c0.158,0.237,0.57,0.353,1.254,0.353c0.894,0,1.567-0.173,2.016-0.529c0.449-0.356,0.83-1.004,1.141-1.952l1.465-4.449h1.138
		V153.099z"/>
	<path fill="#874288" d="M172.15,153.099h1.138l-0.407,0.89l0.016,0.026c0.692-0.731,1.552-1.096,2.587-1.096
		c1.429,0,1.9,0.737,1.417,2.208l-0.186,0.536h-1.119l0.086-0.192c0.084-0.205,0.141-0.346,0.161-0.417
		c0.266-0.795-0.038-1.192-0.908-1.192c-1.263,0-2.157,0.782-2.667,2.346l-1.535,4.652h-1.138L172.15,153.099z"/>
	<path fill="#874288" d="M188.807,157.156h1.244l-0.141,0.423c-0.494,1.514-1.065,2.454-1.702,2.828
		c-0.638,0.379-1.994,0.565-4.068,0.565c-1.853,0-2.927-0.331-3.212-0.994c-0.282-0.66-0.022-2.223,0.789-4.68
		c0.631-1.918,1.086-3.129,1.365-3.622c0.276-0.497,0.75-0.943,1.408-1.331c0.782-0.454,2.212-0.68,4.292-0.68
		c1.417,0,2.295,0.215,2.641,0.654c0.343,0.439,0.311,1.285-0.106,2.542l-0.087,0.301h-1.243l0.105-0.34
		c0.292-0.897,0.337-1.471,0.129-1.725c-0.199-0.256-0.818-0.378-1.834-0.378c-1.785,0-2.923,0.148-3.42,0.449
		c-0.491,0.295-0.962,1.119-1.41,2.474c-1.019,3.109-1.487,4.937-1.401,5.469c0.09,0.538,0.907,0.808,2.456,0.808
		c1.471,0,2.43-0.119,2.869-0.353c0.442-0.231,0.821-0.815,1.132-1.751L188.807,157.156z"/>
	<path fill="#874288" d="M193.214,155.272h-1.128c0.298-0.904,0.699-1.506,1.212-1.821c0.512-0.31,1.359-0.468,2.552-0.468
		c1.292,0,2.106,0.192,2.433,0.573c0.333,0.382,0.321,1.106-0.032,2.176l-1.686,5.125h-1.138l0.365-0.836l-0.026-0.007
		c-0.641,0.638-1.628,0.956-2.955,0.956c-1.959,0-2.677-0.785-2.157-2.36c0.308-0.939,0.741-1.587,1.295-1.943
		c0.558-0.359,1.408-0.532,2.555-0.532c1.362,0,2.093,0.266,2.19,0.801l0.025-0.01l0.311-0.939c0.295-0.888,0.356-1.462,0.202-1.727
		c-0.157-0.26-0.648-0.395-1.469-0.395c-1.397,0-2.225,0.395-2.481,1.18C193.266,155.082,193.243,155.157,193.214,155.272
		 M194.465,157.019c-0.872,0-1.469,0.093-1.792,0.276c-0.323,0.183-0.584,0.58-0.785,1.189c-0.205,0.625-0.215,1.042-0.019,1.243
		c0.192,0.202,0.686,0.302,1.484,0.302c1.6,0,2.561-0.481,2.885-1.459c0.199-0.612,0.18-1.023-0.061-1.234
		C195.933,157.124,195.362,157.019,194.465,157.019"/>
	<path fill="#874288" d="M201.334,153.099h1.138l-0.407,0.89l0.013,0.026c0.693-0.731,1.552-1.096,2.591-1.096
		c1.426,0,1.9,0.737,1.413,2.208l-0.186,0.536h-1.119l0.087-0.192c0.083-0.205,0.138-0.346,0.163-0.417
		c0.26-0.795-0.041-1.192-0.907-1.192c-1.266,0-2.154,0.782-2.67,2.346l-1.532,4.652h-1.138L201.334,153.099z"/>
	<path fill="#874288" d="M211.46,158.517h1.164l-0.09,0.282c-0.262,0.807-0.695,1.371-1.292,1.692
		c-0.596,0.321-1.507,0.482-2.735,0.482c-1.429,0-2.279-0.257-2.558-0.779c-0.272-0.522-0.134-1.622,0.417-3.292
		c0.513-1.548,1.074-2.59,1.699-3.122c0.626-0.529,1.597-0.795,2.904-0.795c1.427,0,2.289,0.23,2.581,0.689
		c0.295,0.461,0.199,1.433-0.292,2.907l-0.202,0.609h-5.588c-0.403,1.225-0.522,2.007-0.371,2.34c0.15,0.334,0.708,0.5,1.669,0.5
		c0.914,0,1.536-0.077,1.863-0.237c0.327-0.158,0.574-0.507,0.75-1.035L211.46,158.517z M212.191,156.304l0.109-0.365
		c0.279-0.837,0.321-1.385,0.125-1.635c-0.192-0.25-0.746-0.379-1.66-0.379c-0.923,0-1.564,0.148-1.939,0.443
		c-0.369,0.295-0.718,0.942-1.045,1.936L212.191,156.304L212.191,156.304z"/>
	<path fill="#874288" d="M219.817,158.517h1.161l-0.083,0.282c-0.266,0.807-0.696,1.371-1.295,1.692
		c-0.593,0.321-1.507,0.482-2.738,0.482c-1.427,0-2.279-0.257-2.555-0.779c-0.272-0.522-0.134-1.622,0.414-3.292
		c0.513-1.548,1.081-2.59,1.702-3.122c0.625-0.529,1.59-0.795,2.904-0.795c1.427,0,2.286,0.23,2.58,0.689
		c0.295,0.461,0.192,1.433-0.295,2.907l-0.196,0.609h-5.587c-0.405,1.225-0.533,2.007-0.379,2.34c0.15,0.334,0.712,0.5,1.67,0.5
		c0.917,0,1.539-0.077,1.865-0.237c0.327-0.158,0.574-0.507,0.75-1.035L219.817,158.517z M220.541,156.304l0.115-0.365
		c0.276-0.837,0.318-1.385,0.125-1.635c-0.192-0.25-0.747-0.379-1.66-0.379c-0.921,0-1.568,0.148-1.94,0.443
		c-0.372,0.295-0.718,0.942-1.045,1.936L220.541,156.304L220.541,156.304z"/>
	<path fill="#874288" d="M224.674,153.099h1.131l-0.407,0.89l0.016,0.026c0.689-0.731,1.548-1.096,2.587-1.096
		c1.429,0,1.901,0.737,1.417,2.208l-0.189,0.536h-1.119l0.086-0.192c0.083-0.205,0.145-0.346,0.164-0.417
		c0.263-0.795-0.041-1.192-0.904-1.192c-1.27,0-2.157,0.782-2.674,2.346l-1.532,4.652h-1.138L224.674,153.099z"/>
	<path fill="#874288" d="M243.1,152.781h-1.24c0.292-0.894,0.33-1.458,0.112-1.702c-0.218-0.237-0.875-0.359-1.981-0.359
		c-1.315,0-2.196,0.115-2.648,0.346c-0.459,0.23-0.814,0.738-1.074,1.538c-0.298,0.891-0.327,1.436-0.093,1.629
		c0.231,0.195,1.074,0.327,2.523,0.397c1.705,0.077,2.728,0.295,3.077,0.657c0.346,0.366,0.315,1.177-0.102,2.439
		c-0.449,1.366-1.007,2.243-1.679,2.647c-0.671,0.398-1.924,0.597-3.764,0.597c-1.6,0-2.593-0.199-2.99-0.603
		c-0.391-0.404-0.388-1.218,0.013-2.442l0.154-0.493h1.244l-0.09,0.276c-0.327,0.994-0.378,1.609-0.153,1.852
		c0.224,0.237,0.958,0.36,2.211,0.36c1.433,0,2.353-0.123,2.764-0.36c0.413-0.244,0.785-0.888,1.131-1.933
		c0.225-0.677,0.26-1.125,0.109-1.35c-0.154-0.227-0.577-0.359-1.276-0.403l-1.275-0.064l-1.215-0.064
		c-1.833-0.129-2.456-1.106-1.853-2.924c0.414-1.263,0.965-2.103,1.648-2.526c0.689-0.423,1.847-0.631,3.485-0.631
		c1.654,0,2.667,0.195,3.045,0.587C243.548,150.644,243.526,151.486,243.1,152.781"/>
	<path fill="#874288" d="M247.888,152.983c1.436,0,2.283,0.25,2.548,0.746c0.263,0.497,0.123,1.581-0.429,3.251
		c-0.548,1.664-1.119,2.747-1.712,3.248c-0.589,0.5-1.602,0.744-3.038,0.744c-1.43,0-2.273-0.244-2.539-0.744
		c-0.263-0.5-0.122-1.584,0.429-3.248c0.548-1.67,1.119-2.754,1.712-3.251C245.449,153.234,246.462,152.983,247.888,152.983
		 M247.578,153.925c-1.007,0-1.686,0.164-2.029,0.494c-0.353,0.327-0.753,1.179-1.205,2.561c-0.458,1.379-0.619,2.234-0.487,2.561
		c0.134,0.327,0.705,0.487,1.712,0.487c1.014,0,1.693-0.16,2.039-0.487c0.353-0.327,0.753-1.182,1.209-2.561
		c0.455-1.382,0.615-2.234,0.48-2.561C249.165,154.089,248.594,153.925,247.578,153.925"/>
	<path fill="#874288" d="M253.524,155.272h-1.128c0.298-0.904,0.702-1.506,1.215-1.821c0.51-0.31,1.362-0.468,2.555-0.468
		c1.292,0,2.103,0.192,2.433,0.573c0.327,0.382,0.314,1.106-0.039,2.176l-1.686,5.125h-1.138l0.365-0.836l-0.019-0.007
		c-0.645,0.638-1.628,0.956-2.955,0.956c-1.959,0-2.683-0.785-2.161-2.36c0.305-0.939,0.741-1.587,1.295-1.943
		c0.554-0.359,1.41-0.532,2.559-0.532c1.362,0,2.093,0.266,2.186,0.801l0.025-0.01l0.308-0.939c0.295-0.888,0.363-1.462,0.209-1.727
		c-0.158-0.26-0.648-0.395-1.472-0.395c-1.397,0-2.227,0.395-2.484,1.18C253.579,155.082,253.559,155.157,253.524,155.272
		 M254.778,157.019c-0.875,0-1.465,0.093-1.795,0.276c-0.321,0.183-0.584,0.58-0.779,1.189c-0.209,0.625-0.215,1.042-0.022,1.243
		c0.189,0.202,0.686,0.302,1.484,0.302c1.603,0,2.561-0.481,2.882-1.459c0.204-0.612,0.179-1.023-0.064-1.234
		C256.246,157.124,255.675,157.019,254.778,157.019"/>
	<path fill="#874288" d="M261.647,153.099h1.135l-0.407,0.89l0.019,0.026c0.685-0.731,1.551-1.096,2.583-1.096
		c1.433,0,1.901,0.737,1.42,2.208l-0.186,0.536h-1.125l0.09-0.192c0.087-0.205,0.138-0.346,0.163-0.417
		c0.26-0.795-0.042-1.192-0.907-1.192c-1.266,0-2.157,0.782-2.673,2.346l-1.532,4.652h-1.138L261.647,153.099z"/>
	<path fill="#3C3C3C" d="M157.501,127.038c0.314-6.283,0.571-8.203,7.998-8.203c6.234,0,7.167,0.468,7.372,8.203H157.501z
		 M172.927,134.83v1.039c0,3.843-1.818,4.209-7.427,4.209c-7.373,0-7.998-1.091-7.998-9.716h19.631v-2.752
		c0-10.074-2.805-12.1-11.633-12.1c-9.768,0-12.256,2.647-12.256,13.973c0,10.382,1.606,13.919,12.256,13.919
		c6.077,0,11.633-0.365,11.633-7.585v-0.988H172.927z"/>
	<path fill="#3C3C3C" d="M184.3,115.821l-0.205,3.375l0.099,0.105c1.404-3.013,4.677-3.792,7.741-3.792
		c5.244,0,7.581,2.596,7.581,7.687v1.972h-3.895v-1.819c0-3.372-1.141-4.516-4.567-4.516c-5.09,0-6.754,2.442-6.649,7.27v16.98
		h-4.106V115.82L184.3,115.821L184.3,115.821z"/>
	<path fill="#3C3C3C" d="M204.604,129.483c0-9.505,0.519-10.649,7.844-10.649c7.325,0,7.844,1.144,7.844,10.649
		c0,9.453-0.519,10.594-7.844,10.594C205.123,140.078,204.604,138.936,204.604,129.483 M200.347,129.483
		c0,11.473,1.974,13.919,12.101,13.919c10.126,0,12.104-2.446,12.104-13.919c0-11.535-1.978-13.973-12.104-13.973
		C202.321,115.51,200.347,117.949,200.347,129.483"/>
	<path fill="#3C3C3C" d="M242.622,119.145h-10.543v17.297c0.055,2.956,0.834,3.635,3.847,3.635c3.843,0,3.843-2.029,3.843-4.623
		v-2.027h3.895v2.027c0,5.398-2.237,7.947-7.841,7.947c-6.392,0-7.847-1.818-7.847-8.21v-16.047h-3.635v-3.324h3.635v-6.594h4.103
		v6.594h10.543V119.145z"/>
	<path fill="#3C3C3C" d="M256.957,140.078c-4.725,0-6.854-0.26-6.854-5.456c0-4.411,1.975-4.725,6.854-4.725
		c5.196,0,8.261-0.052,8.261,5.09C265.218,139.969,261.064,140.078,256.957,140.078 M269.424,143.084v-18.589
		c0.055-8.312-4.981-9.04-11.841-8.985c-6.075-0.055-10.902,0.417-10.902,7.424v0.577h4.257v-0.936
		c-0.051-3.741,3.891-3.741,7.116-3.741c4.619,0,7.271,0.468,7.271,5.452v5.037h-0.263c-0.57-2.491-5.866-2.754-8.569-2.754
		c-6.754,0-10.643,1.042-10.643,8.571c0,7.116,4.254,8.261,10.383,8.261c3.427,0,7.428-0.106,8.985-3.222l0.106,0.102v2.801h4.1
		V143.084z"/>
	<path fill="#3C3C3C" d="M283.756,140.078c-7.944,0-7.475-4.052-7.475-10.594c0-7.171-0.106-10.649,7.475-10.649
		c7.376,0,7.895,3.065,7.895,10.649C291.651,135.558,291.651,140.078,283.756,140.078 M295.758,115.821h-4.106v3.427l-0.102,0.053
		c-1.613-3.273-4.988-3.792-8.777-3.792c-9.351,0-10.751,4.879-10.751,13.973c0,9.344,1.923,13.919,10.751,13.919
		c3.215,0,7.636-0.365,8.777-3.69h0.102v6.283c-0.055,5.351-3.013,5.87-7.895,5.87c-4.311,0-6.799-0.311-6.799-5.558h-4.106
		c-0.42,7.895,4.571,8.882,10.905,8.882c6.598,0,12.002-1.609,12.002-8.882L295.758,115.821L295.758,115.821z"/>
	<path fill="#3C3C3C" d="M302.557,127.038c0.314-6.283,0.571-8.203,7.998-8.203c6.231,0,7.167,0.468,7.372,8.203H302.557z
		 M317.982,134.83v1.039c0,3.843-1.821,4.209-7.427,4.209c-7.379,0-7.998-1.091-7.998-9.716h19.631v-2.752
		c0-10.074-2.801-12.1-11.633-12.1c-9.764,0-12.256,2.647-12.256,13.973c0,10.382,1.609,13.919,12.256,13.919
		c6.078,0,11.633-0.365,11.633-7.585v-0.988H317.982z"/>
	<path fill="#3C3C3C" d="M355.099,104.413v27.481c0,4.587-0.837,7.715-2.51,9.377c-1.673,1.667-4.815,2.5-9.421,2.5
		c-4.658,0-7.858-0.712-9.584-2.129c-1.735-1.42-2.603-4.029-2.603-7.834c0-1.769,0.032-3.311,0.093-4.623h4.308v0.713v3
		c0,3.176,0.426,5.16,1.282,5.959c0.86,0.802,2.965,1.203,6.338,1.203c3.327,0,5.446-0.526,6.347-1.571
		c0.904-1.045,1.356-3.482,1.356-7.309v-26.767H355.099z"/>
	<path fill="#3C3C3C" d="M370.964,115.686c5.039,0,8.312,0.875,9.815,2.625c1.503,1.748,2.257,5.556,2.257,11.416
		c0,5.863-0.753,9.665-2.257,11.416c-1.503,1.75-4.776,2.629-9.815,2.629c-5.024,0-8.29-0.879-9.786-2.629
		c-1.507-1.751-2.26-5.552-2.26-11.416c0-5.86,0.753-9.668,2.26-11.416C362.674,116.561,365.94,115.686,370.964,115.686
		 M370.964,118.995c-3.54,0-5.735,0.577-6.577,1.728c-0.846,1.154-1.273,4.154-1.273,9.004c0,4.85,0.427,7.851,1.273,9.001
		c0.842,1.152,3.038,1.728,6.577,1.728c3.558,0,5.757-0.577,6.603-1.728c0.85-1.151,1.273-4.151,1.273-9.001
		c0-4.85-0.423-7.85-1.273-9.004C376.72,119.571,374.522,118.995,370.964,118.995"/>
	<path fill="#3C3C3C" d="M435.021,123.22h-3.991c0-1.905-0.388-3.081-1.157-3.543c-0.77-0.455-2.754-0.683-5.95-0.683
		c-2.971,0-4.853,0.247-5.651,0.728c-0.801,0.484-1.199,1.651-1.199,3.497c0,2.799,1.343,4.26,4.022,4.391l3.226,0.17l4.084,0.205
		c4.945,0.247,7.418,2.834,7.418,7.76c0,3.062-0.818,5.165-2.456,6.313c-1.635,1.135-4.632,1.712-8.989,1.712
		c-4.472,0-7.549-0.548-9.232-1.628c-1.683-1.088-2.526-3.074-2.526-5.969l0.029-1.48h4.138l0.029,1.285
		c0,1.786,0.458,2.979,1.372,3.581c0.911,0.599,2.712,0.897,5.392,0.897c3.288,0,5.456-0.314,6.494-0.943
		c1.035-0.628,1.555-1.94,1.555-3.936c0-2.875-1.304-4.309-3.91-4.309c-6.072,0-10.06-0.512-11.973-1.541
		c-1.914-1.026-2.866-3.158-2.866-6.392c0-3.067,0.75-5.106,2.266-6.122c1.516-1.016,4.523-1.526,9.03-1.526
		c7.232,0,10.844,2.176,10.844,6.536V123.22L435.021,123.22z"/>
	<path fill="#3C3C3C" d="M385.927,143.348v-38.935h3.991v15.143l0.087,0.086c0.913-2.644,3.898-3.965,8.959-3.965
		c3.994,0,6.748,1.038,8.271,3.109c1.52,2.074,2.283,5.831,2.283,11.271c0,5.154-0.805,8.723-2.411,10.707
		c-1.609,1.987-4.513,2.984-8.712,2.984c-4.283,0-7.136-1.266-8.56-3.799l-0.112,0.032l0.195,3.366L385.927,143.348L385.927,143.348
		z M397.935,118.991c-3.135,0-5.237,0.667-6.306,2.007c-1.065,1.34-1.596,4.007-1.596,8.001c0,4.924,0.482,8.065,1.44,9.411
		c0.961,1.353,3.17,2.027,6.629,2.027c2.933,0,4.869-0.689,5.805-2.068c0.943-1.378,1.414-4.209,1.414-8.485
		c0-4.507-0.465-7.45-1.397-8.828C402.99,119.677,400.994,118.991,397.935,118.991"/>
	<path fill="#3C3C3C" d="M134.306,112.394l11.123,30.558h5.873l-12.027-33.206C137.623,110.605,135.969,111.484,134.306,112.394"/>
	<path fill="#3C3C3C" d="M114.918,113.952l9.976-27.406l5.334,14.654c1.638-0.84,3.321-1.667,5.048-2.481l-6.096-16.821h-2.594
		l0.003-0.006h-5.975l-13.749,37.943c-22.952,18.043-29.928,35.251-29.956,35.296c33.242-47.642,114.491-70.79,114.491-70.79
		C156.934,90.751,132.292,102.15,114.918,113.952"/>
</g>
</svg>
