<?xml version="1.0" encoding="utf-8"?>
<!-- Generator: Adobe Illustrator 15.0.0, SVG Export Plug-In . SVG Version: 6.00 Build 0)  -->
<!DOCTYPE svg PUBLIC "-//W3C//DTD SVG 1.1//EN" "http://www.w3.org/Graphics/SVG/1.1/DTD/svg11.dtd">
<svg version="1.1" id="Layer_1" xmlns="http://www.w3.org/2000/svg" xmlns:xlink="http://www.w3.org/1999/xlink" x="0px" y="0px"
	 width="14px" height="13px" viewBox="0 0 14 13" enable-background="new 0 0 14 13" xml:space="preserve">
<g>
	<path fill="#FFFFFF" d="M9.301,1.84v1.859c0.973,0.731,1.602,1.891,1.602,3.199c0,2.211-1.793,4-4,4c-2.211,0-4-1.789-4-4
		c0-1.309,0.625-2.468,1.597-3.199V1.84C2.61,2.738,1.301,4.668,1.301,6.898c0,3.094,2.508,5.602,5.602,5.602
		c3.089,0,5.597-2.508,5.597-5.602C12.5,4.668,11.191,2.738,9.301,1.84L9.301,1.84z M9.301,1.84"/>
	<path fill="#FFFFFF" d="M7.699,6.102V1.297c0-0.442-0.355-0.797-0.796-0.797c-0.446,0-0.801,0.363-0.801,0.797v4.805
		c0,0.441,0.355,0.796,0.801,0.796C7.344,6.898,7.699,6.539,7.699,6.102L7.699,6.102z M7.699,6.102"/>
</g>
</svg>
