<?xml version="1.0" encoding="utf-8"?>
<!-- Generator: Adobe Illustrator 16.0.2, SVG Export Plug-In . SVG Version: 6.00 Build 0)  -->
<!DOCTYPE svg PUBLIC "-//W3C//DTD SVG 1.1//EN" "http://www.w3.org/Graphics/SVG/1.1/DTD/svg11.dtd">
<svg version="1.1" id="Layer_1" xmlns="http://www.w3.org/2000/svg" xmlns:xlink="http://www.w3.org/1999/xlink" x="0px" y="0px"
	 width="223.667px" height="82.651px" viewBox="0 0 223.667 82.651" enable-background="new 0 0 223.667 82.651"
	 xml:space="preserve">
<path stroke="#000000" stroke-miterlimit="10" d="M33.239,58.984h4.891l3.611-9.848c-2.263,1.546-4.464,3.101-6.609,4.656
	L33.239,58.984z"/>
<path stroke="#000000" stroke-miterlimit="10" d="M59.652,37.719l7.796,21.27h4.891L63.716,35.33
	C62.344,36.123,60.991,36.919,59.652,37.719"/>
<path stroke="#000000" stroke-miterlimit="10" d="M52.788,18.991l4.135,11.274c1.344-0.797,2.703-1.585,4.083-2.367l-4.649-12.755
	h-2.158v-0.004h-4.979l-9.544,26.189c2.125-1.49,4.312-2.966,6.548-4.429L52.788,18.991z"/>
<path stroke="#000000" stroke-miterlimit="10" d="M129.138,0.741c0,0-91.269,27.08-128.142,81.17
	C1.05,81.823,25.497,43.477,129.138,0.741"/>
<path stroke="#000000" stroke-miterlimit="10" d="M99.761,34.176v4.142c0.418-0.509,0.88-0.964,1.379-1.363
	c0.496-0.396,1.01-0.745,1.54-1.041c0.529-0.296,1.063-0.547,1.598-0.745c0.538-0.2,1.054-0.363,1.553-0.497
	c1.167-0.298,2.35-0.472,3.545-0.522v3.177c-1.18,0-2.234,0.146-3.16,0.434c-0.928,0.292-1.745,0.673-2.452,1.143
	c-0.708,0.473-1.313,1-1.821,1.59c-0.505,0.59-0.917,1.178-1.237,1.775c-0.318,0.597-0.551,1.158-0.699,1.688
	c-0.148,0.531-0.222,0.978-0.222,1.339v13.907h-3.033V34.176H99.761z"/>
<path stroke="#000000" stroke-miterlimit="10" d="M120.312,33.183c1.68,0,3.263,0.335,4.75,1.017
	c1.485,0.682,2.785,1.609,3.896,2.794c1.113,1.18,1.988,2.565,2.627,4.142c0.638,1.581,0.956,3.266,0.956,5.054
	s-0.318,3.474-0.956,5.054c-0.639,1.581-1.514,2.96-2.627,4.145c-1.11,1.183-2.41,2.114-3.896,2.792
	c-1.487,0.682-3.07,1.019-4.75,1.019c-1.681,0-3.264-0.337-4.749-1.019c-1.485-0.678-2.786-1.609-3.898-2.792
	c-1.113-1.185-1.988-2.563-2.626-4.145c-0.638-1.581-0.956-3.266-0.956-5.054s0.318-3.474,0.956-5.054
	c0.638-1.577,1.513-2.962,2.626-4.142c1.113-1.185,2.413-2.112,3.898-2.794S118.631,33.183,120.312,33.183 M129.6,46.19
	c0-1.357-0.244-2.637-0.733-3.835c-0.492-1.2-1.157-2.248-1.997-3.14c-0.839-0.893-1.823-1.603-2.951-2.123
	c-1.13-0.521-2.332-0.782-3.606-0.782c-1.291,0-2.502,0.262-3.63,0.782c-1.128,0.52-2.112,1.23-2.953,2.123
	c-0.838,0.893-1.5,1.94-1.981,3.14c-0.483,1.198-0.725,2.478-0.725,3.835c0,1.374,0.242,2.659,0.725,3.861
	c0.481,1.202,1.143,2.243,1.981,3.141c0.841,0.893,1.825,1.594,2.953,2.11c1.128,0.512,2.339,0.769,3.63,0.769
	c1.274,0,2.477-0.257,3.606-0.769c1.128-0.517,2.112-1.218,2.951-2.11c0.84-0.897,1.505-1.938,1.997-3.141
	C129.355,48.849,129.6,47.564,129.6,46.19"/>
<path stroke="#000000" stroke-miterlimit="10" d="M137.42,20.968v11.644h9.777v3.302h-9.802v10.414c0,1.341,0.24,2.589,0.722,3.759
	c0.485,1.163,1.16,2.176,2.033,3.033c0.871,0.86,1.906,1.535,3.104,2.034s2.513,0.742,3.943,0.742v3.307
	c-1.992,0-3.784-0.371-5.379-1.111c-1.596-0.735-2.95-1.698-4.065-2.9c-1.117-1.198-1.973-2.569-2.567-4.109
	c-0.599-1.54-0.893-3.112-0.893-4.715V20.968H137.42z"/>
<path stroke="#000000" stroke-miterlimit="10" d="M170.782,33.505v25.697h-3.012v-4.373c-0.871,1.093-1.834,1.934-2.881,2.521
	c-1.052,0.584-2.043,1.023-2.978,1.303c-1.089,0.313-2.178,0.496-3.267,0.549c-1.696,0-3.279-0.354-4.749-1.046
	c-1.473-0.692-2.746-1.633-3.828-2.813c-1.083-1.183-1.935-2.544-2.555-4.092c-0.625-1.546-0.935-3.182-0.935-4.9
	c0-1.705,0.31-3.332,0.935-4.885c0.62-1.555,1.472-2.922,2.555-4.103c1.082-1.185,2.36-2.121,3.839-2.818
	c1.479-0.692,3.072-1.041,4.782-1.041c1.091,0.052,2.18,0.231,3.271,0.544c0.467,0.135,0.952,0.303,1.457,0.51
	c0.508,0.209,1.013,0.464,1.519,0.771c0.505,0.305,0.999,0.662,1.482,1.067c0.481,0.405,0.932,0.884,1.353,1.428v-4.32H170.782z
	 M167.84,46.351c0-1.344-0.241-2.609-0.723-3.802c-0.481-1.191-1.137-2.23-1.96-3.107c-0.825-0.878-1.795-1.577-2.905-2.088
	c-1.112-0.512-2.3-0.769-3.563-0.769c-1.259,0-2.447,0.257-3.567,0.769c-1.121,0.512-2.095,1.21-2.918,2.088
	c-0.825,0.877-1.479,1.916-1.96,3.107c-0.483,1.193-0.725,2.458-0.725,3.802s0.241,2.611,0.725,3.805
	c0.481,1.193,1.135,2.228,1.96,3.11c0.823,0.875,1.797,1.572,2.918,2.084c1.12,0.516,2.309,0.771,3.567,0.771
	c1.263,0,2.45-0.255,3.563-0.771c1.11-0.512,2.08-1.209,2.905-2.084c0.823-0.882,1.479-1.917,1.96-3.11
	C167.599,48.962,167.84,47.695,167.84,46.351"/>
<path stroke="#000000" stroke-miterlimit="10" d="M193.981,33.505l0.023,4.49c-0.889-1.106-1.864-1.964-2.931-2.583
	c-1.065-0.61-2.066-1.054-2.999-1.337c-1.089-0.331-2.178-0.522-3.267-0.57c-1.681,0-3.265,0.331-4.749,0.993
	c-1.485,0.662-2.79,1.577-3.909,2.744c-1.122,1.165-2.004,2.543-2.65,4.133c-0.645,1.587-0.967,3.31-0.967,5.166
	c0,1.851,0.326,3.567,0.979,5.148s1.54,2.953,2.659,4.123c1.121,1.165,2.435,2.079,3.946,2.741c1.509,0.662,3.118,0.993,4.83,0.993
	c1.104-0.065,2.199-0.257,3.29-0.57c0.469-0.133,0.95-0.308,1.448-0.523c0.497-0.213,1-0.475,1.505-0.779
	c0.506-0.307,0.995-0.671,1.47-1.093c0.476-0.423,0.922-0.906,1.344-1.453v4.793c0,0.479-0.083,1.02-0.246,1.625
	s-0.409,1.22-0.735,1.849c-0.327,0.63-0.747,1.252-1.259,1.862c-0.515,0.609-1.126,1.158-1.834,1.638
	c-0.708,0.479-1.514,0.866-2.415,1.156c-0.904,0.289-1.914,0.434-3.033,0.434v0.03c-0.237-0.002-0.475-0.007-0.715-0.026
	c-2.971-0.227-5.69-1.622-7.774-3.943c-0.769,0.744-1.55,1.472-2.332,2.203c2.628,2.903,6.082,4.644,9.862,4.933
	c0.322,0.026,0.641,0.035,0.959,0.039v0.018c0.505,0,0.988-0.03,1.463-0.08c0.074-0.011,0.15-0.02,0.227-0.024
	c0.174-0.021,0.349-0.041,0.519-0.067c0.239-0.037,0.477-0.076,0.714-0.124v-0.013c0.361-0.079,0.717-0.175,1.057-0.288
	c1.191-0.396,2.247-0.923,3.175-1.576c0.926-0.653,1.729-1.402,2.415-2.248c0.684-0.843,1.248-1.698,1.692-2.569
	c0.441-0.869,0.772-1.725,0.99-2.567c0.218-0.848,0.327-1.601,0.327-2.259V33.505H193.981z M193.328,50.397
	c-0.483,1.2-1.146,2.247-1.984,3.14c-0.841,0.896-1.82,1.599-2.941,2.11c-1.12,0.514-2.317,0.771-3.594,0.771
	s-2.479-0.258-3.606-0.771c-1.128-0.512-2.112-1.215-2.952-2.11c-0.841-0.893-1.501-1.94-1.984-3.14
	c-0.481-1.2-0.723-2.476-0.723-3.835c0-1.357,0.241-2.635,0.723-3.833c0.483-1.202,1.144-2.25,1.984-3.145
	c0.84-0.893,1.824-1.594,2.952-2.108c1.128-0.514,2.33-0.771,3.606-0.771s2.474,0.257,3.594,0.771
	c1.121,0.514,2.101,1.215,2.941,2.108c0.839,0.895,1.501,1.942,1.984,3.145c0.481,1.198,0.723,2.476,0.723,3.833
	C194.051,47.921,193.81,49.197,193.328,50.397"/>
<path stroke="#000000" stroke-miterlimit="10" d="M88.548,54.097c-0.645,0.506-1.298,0.894-1.96,1.168
	c-0.662,0.27-1.261,0.473-1.799,0.595c-0.536,0.124-1.146,0.211-1.831,0.261c-1.167,0-2.197-0.174-3.093-0.521
	c-0.895-0.349-1.677-0.801-2.345-1.354c-0.668-0.553-1.228-1.178-1.681-1.873c-0.451-0.694-0.823-1.389-1.119-2.073
	c-0.296-0.686-0.514-1.333-0.653-1.934c-0.14-0.607-0.235-1.102-0.281-1.48h12.358h8.859c0-1.041-0.117-2.093-0.353-3.153
	c-0.231-1.059-0.579-2.08-1.037-3.066c-0.459-0.984-1.028-1.91-1.703-2.779c-0.679-0.867-1.463-1.622-2.358-2.256
	c-0.895-0.64-1.899-1.146-3.012-1.518c-1.113-0.372-2.321-0.557-3.628-0.557c-1.402,0-2.674,0.207-3.815,0.621
	c-1.146,0.414-2.165,0.96-3.058,1.638c-0.897,0.679-1.666,1.452-2.313,2.321c-0.645,0.867-1.176,1.772-1.599,2.709
	c-0.418,0.932-0.731,1.86-0.932,2.779c-0.203,0.917-0.305,1.759-0.305,2.517c0,0.915,0.104,1.864,0.316,2.871
	c0.211,1,0.525,1.981,0.945,2.953c0.42,0.967,0.956,1.886,1.609,2.755c0.658,0.869,1.429,1.64,2.324,2.307
	c0.895,0.673,1.91,1.202,3.047,1.589c1.134,0.391,2.404,0.586,3.802,0.586c1.712-0.1,3.339-0.512,4.878-1.243
	c0.653-0.313,1.315-0.705,1.986-1.178c0.667-0.471,1.309-1.057,1.925-1.749c0.614-0.697,1.174-1.512,1.679-2.445
	c0.068-0.124,0.122-0.277,0.185-0.407h-3.253C89.789,52.952,89.195,53.592,88.548,54.097 M75.303,40.802
	c0.56-0.828,1.171-1.509,1.832-2.047c0.662-0.538,1.335-0.952,2.019-1.244c0.684-0.287,1.302-0.499,1.855-0.631
	c0.553-0.131,1.187-0.222,1.903-0.272c0.714,0.05,1.35,0.142,1.901,0.272c0.553,0.133,1.172,0.344,1.855,0.631
	c0.686,0.292,1.357,0.706,2.019,1.244c0.662,0.538,1.271,1.219,1.833,2.047c0.56,0.83,0.993,1.847,1.307,3.055H73.997
	C74.306,42.649,74.744,41.632,75.303,40.802"/>
<path stroke="#000000" stroke-miterlimit="10" d="M216.464,54.097c-0.643,0.506-1.296,0.894-1.958,1.168
	c-0.662,0.27-1.259,0.473-1.797,0.595c-0.537,0.124-1.147,0.211-1.831,0.261c-1.167,0-2.199-0.174-3.093-0.521
	c-0.896-0.349-1.677-0.801-2.347-1.354c-0.667-0.553-1.229-1.178-1.68-1.873c-0.45-0.694-0.825-1.389-1.121-2.073
	c-0.299-0.686-0.512-1.333-0.653-1.934c-0.14-0.607-0.233-1.102-0.279-1.48h12.356h8.859c0-1.041-0.118-2.093-0.351-3.153
	c-0.233-1.059-0.582-2.08-1.039-3.066c-0.457-0.984-1.028-1.91-1.703-2.779c-0.677-0.867-1.463-1.622-2.356-2.256
	c-0.896-0.64-1.898-1.146-3.012-1.518c-1.112-0.372-2.323-0.557-3.63-0.557c-1.4,0-2.672,0.207-3.815,0.621
	c-1.146,0.414-2.165,0.96-3.058,1.638c-0.895,0.679-1.664,1.452-2.311,2.321c-0.646,0.867-1.178,1.772-1.601,2.709
	c-0.418,0.932-0.729,1.86-0.932,2.779c-0.2,0.917-0.305,1.759-0.305,2.517c0,0.915,0.106,1.864,0.317,2.871
	c0.209,1,0.525,1.981,0.945,2.953c0.418,0.967,0.956,1.886,1.609,2.755c0.655,0.869,1.426,1.64,2.323,2.307
	c0.894,0.673,1.908,1.202,3.045,1.589c1.137,0.391,2.404,0.586,3.804,0.586c1.71-0.1,3.339-0.512,4.879-1.243
	c0.653-0.313,1.313-0.705,1.983-1.178c0.669-0.471,1.312-1.057,1.925-1.749c0.614-0.697,1.177-1.512,1.682-2.445
	c0.065-0.124,0.122-0.277,0.185-0.407h-3.255C217.707,52.952,217.11,53.592,216.464,54.097 M203.221,40.802
	c0.563-0.828,1.172-1.509,1.834-2.047c0.662-0.538,1.333-0.952,2.017-1.244c0.686-0.287,1.305-0.499,1.857-0.631
	c0.551-0.131,1.187-0.222,1.901-0.272c0.717,0.05,1.35,0.142,1.903,0.272c0.553,0.133,1.172,0.344,1.855,0.631
	c0.684,0.292,1.356,0.706,2.019,1.244c0.66,0.538,1.271,1.219,1.831,2.047c0.563,0.83,0.995,1.847,1.307,3.055h-17.831
	C202.226,42.649,202.664,41.632,203.221,40.802"/>
</svg>
