<?xml version="1.0" encoding="utf-8"?>
<!-- Generator: Adobe Illustrator 16.0.2, SVG Export Plug-In . SVG Version: 6.00 Build 0)  -->
<!DOCTYPE svg PUBLIC "-//W3C//DTD SVG 1.1//EN" "http://www.w3.org/Graphics/SVG/1.1/DTD/svg11.dtd">
<svg version="1.1" id="Layer_1" xmlns="http://www.w3.org/2000/svg" xmlns:xlink="http://www.w3.org/1999/xlink" x="0px" y="0px"
	 width="19.296px" height="23.887px" viewBox="0 0 19.296 23.887" enable-background="new 0 0 19.296 23.887" xml:space="preserve">
<g>
	<g>
		<defs>
			<rect id="SVGID_1_" y="-0.054" width="19.352" height="24"/>
		</defs>
		<clipPath id="SVGID_2_">
			<use xlink:href="#SVGID_1_"  overflow="visible"/>
		</clipPath>
		<path clip-path="url(#SVGID_2_)" d="M9.647,4.76c-2.756,0-4.994,2.243-4.994,4.994c0,2.751,2.238,5,4.994,5
			c2.757,0,4.995-2.243,4.995-4.995C14.642,7.008,12.404,4.76,9.647,4.76L9.647,4.76z M9.647,13.557
			c-2.097,0-3.797-1.706-3.797-3.798c0-2.091,1.706-3.797,3.797-3.797c2.092,0,3.797,1.706,3.797,3.797
			C13.444,11.851,11.744,13.557,9.647,13.557L9.647,13.557z M9.647,13.557"/>
		<path clip-path="url(#SVGID_2_)" d="M9.647,0C9.535,0,9.417,0,9.305,0.005c-4.819,0.167-8.802,3.91-9.261,8.704
			C-0.044,9.637,0,10.571,0.171,11.46c0,0,0.015,0.113,0.068,0.323c0.146,0.66,0.366,1.3,0.645,1.896
			c0.992,2.35,3.167,5.972,7.888,9.891c0.249,0.205,0.562,0.317,0.884,0.317c0.323,0,0.636-0.112,0.885-0.317
			c4.716-3.914,6.891-7.541,7.878-9.872c0.283-0.61,0.503-1.255,0.649-1.91c0.029-0.118,0.05-0.215,0.063-0.308
			c0.117-0.602,0.177-1.217,0.177-1.833C19.299,4.33,14.969,0,9.647,0L9.647,0z M17.945,11.274c0,0.01-0.015,0.093-0.049,0.244
			c-0.132,0.577-0.322,1.139-0.576,1.696c-0.943,2.229-3.016,5.674-7.545,9.432C9.73,22.68,9.686,22.69,9.652,22.69
			c-0.029,0-0.078-0.01-0.122-0.044C5,18.883,2.923,15.438,1.975,13.195c-0.25-0.537-0.44-1.1-0.572-1.681
			c-0.029-0.127-0.044-0.205-0.049-0.229c0-0.01-0.005-0.02-0.005-0.029c-0.152-0.797-0.19-1.618-0.113-2.429
			c0.406-4.198,3.89-7.478,8.113-7.624c4.794-0.166,8.753,3.685,8.753,8.45C18.102,10.189,18.047,10.727,17.945,11.274
			L17.945,11.274z M17.945,11.274"/>
	</g>
</g>
</svg>
