<?xml version="1.0" encoding="utf-8"?>
<!-- Generator: Adobe Illustrator 15.0.0, SVG Export Plug-In . SVG Version: 6.00 Build 0)  -->
<!DOCTYPE svg PUBLIC "-//W3C//DTD SVG 1.1//EN" "http://www.w3.org/Graphics/SVG/1.1/DTD/svg11.dtd">
<svg version="1.1" id="Layer_1" xmlns="http://www.w3.org/2000/svg" xmlns:xlink="http://www.w3.org/1999/xlink" x="0px" y="0px"
	 width="630px" height="25px" viewBox="0 0 630 25" enable-background="new 0 0 630 25" xml:space="preserve">
<rect x="600" display="none" fill="#E6E7E8" width="30" height="25"/>
<rect x="602.5" y="2.5" display="none" fill="#EFEFF0" width="25" height="20"/>
<g id="aerotage">
	<path fill="#FFFFFF" d="M13.863,2.516c3.533,1.427,7.05,3.071,9.94,5.453c1.64,1.349,3.11,3.547,2.019,5.581
		c-1.501,2.637-4.668,3.875-7.468,5.036c-5.073,1.848-10.388,3.167-15.778,3.93c5.478-3.019,11.987-5.573,15.125-11.03
		c1.489-2.603-1.273-4.719-3.218-6.208c1.03,0.417,2.053,0.87,3.094,1.279C16.795,4.887,15.207,3.773,13.863,2.516z"/>
	<path fill="#FFFFFF" d="M24.103,2.763c3.152-0.877,4.9,4.243,1.988,5.268C23.083,8.666,21.576,4.116,24.103,2.763z"/>
</g>
<g id="group_1_">
	<path fill="#FFFFFF" d="M41.839,5.474c1.216-2.544,4.952-2.618,6.288-0.175c0.725,1.179,0.465,2.7,0.289,4.017
		c0.39,1.003,0.058,2.264-0.609,3.018c-0.082,0.881-0.244,1.774-0.829,2.423c0.042,0.555,0.058,1.113,0.177,1.655
		c1.153,0.946,2.764,0.555,3.924,1.513c1.108,0.751,1.615,2.162,1.745,3.557c-5.185,0.054-10.37,0.033-15.553,0.009
		c0.044-1.469,0.684-2.912,1.835-3.654c1.153-0.841,2.664-0.538,3.802-1.403c0.149-0.538,0.147-1.109,0.183-1.663
		c-0.555-0.661-0.799-1.518-0.839-2.411c-0.605-0.799-1.103-2.08-0.581-3.063C41.382,8.048,41.223,6.633,41.839,5.474z"/>
	<path fill="#FFFFFF" d="M34.826,8.244c0.714-2.427,4.493-2.251,4.943,0.293c0.349,1.766-0.194,3.72,0.677,5.363
		c-0.605,0.265-1.239,0.456-1.889,0.542c0.015,0.232,0.033,0.71,0.042,0.946c0.566,0.261,1.302,0.273,1.689,0.873
		c-1.407,0.049-2.575,1.012-3.358,2.263c-1.476-0.003-2.953,0.009-4.431-0.008c0.195-0.958,0.586-2.026,1.483-2.39
		c0.671-0.229,1.347-0.444,2.011-0.714c0-0.33,0.025-0.661,0.074-0.986c-0.655-0.087-1.3-0.245-1.92-0.49
		C35.074,12.183,34.371,10.115,34.826,8.244z"/>
	<path fill="#FFFFFF" d="M50.289,8.513c0.466-2.484,4.174-2.708,4.906-0.331c0.575,1.868-0.213,3.973,0.73,5.747
		c-0.614,0.244-1.251,0.403-1.896,0.489c0.017,0.245,0.039,0.742,0.056,0.987c0.97,0.525,2.292,0.456,2.933,1.574
		c0.312,0.436,0.403,0.999,0.482,1.542c-1.466,0.003-2.931,0.012-4.402-0.005c-0.76-1.28-1.964-2.193-3.364-2.26
		c0.44-0.555,1.14-0.627,1.73-0.863c-0.004-0.323,0.013-0.637,0.057-0.947c-0.649-0.072-1.285-0.252-1.887-0.551
		C50.468,12.224,49.964,10.295,50.289,8.513z"/>
</g>
<g id="speaker">
	<g>
		<path fill="#FFFFFF" d="M76.788,2.555c0.907-0.276,1.864,0.083,2.631,0.494c2.111,1.138,3.495,2.984,4.563,4.858
			c1.176,2.071,1.982,4.341,2.014,6.658c0.037,1.292-0.116,2.646-0.848,3.798c-0.393,0.635-1.142,1.123-2.004,1.16
			c-0.699,0.004-1.362-0.24-1.921-0.576c-1.609-0.949-3.463-1.631-5.422-1.801c-0.328-0.007-0.653-0.023-0.979-0.061
			c-0.248-0.035-0.497,0.066-0.742,0.016c-0.514-0.098-0.905-0.434-1.238-0.766c-0.807-0.889-1.394-1.916-1.796-2.988
			c-0.308-0.746-0.473-1.524-0.716-2.288c-0.696,2.128-0.222,4.448,1.06,6.344c-0.918,0.557-2.025,0.919-3.165,0.919
			c-1.381-0.03-2.698-0.679-3.465-1.651c-1.146-1.459-0.987-3.579,0.438-4.862c0.746-0.668,1.79-0.995,2.779-1.317
			c0.646-0.219,1.316-0.353,1.97-0.544c0.904-0.28,1.738-0.734,2.388-1.343c0.74-0.697,1.232-1.547,1.727-2.379
			c0.404-0.661,0.728-1.355,1.038-2.048C75.421,3.503,75.934,2.803,76.788,2.555z M77.578,4.441
			c-0.382,0.095-0.528,0.453-0.628,0.746c-0.247,0.878-0.439,1.794-0.313,2.698c0.199,2.373,1.056,4.716,2.555,6.73
			c0.622,0.878,1.437,1.655,2.373,2.3c0.399,0.264,0.806,0.65,1.366,0.576c0.383-0.061,0.559-0.406,0.692-0.682
			c0.271-0.682,0.37-1.404,0.529-2.1c-0.114-1.946-0.732-3.866-1.682-5.635c-0.868-1.594-1.941-3.196-3.658-4.234
			C78.448,4.638,78.038,4.381,77.578,4.441z"/>
	</g>
	<path fill="#FFFFFF" d="M78.296,9.557c0.607,0.003,1.258,0.055,1.754,0.39c0.538,0.359,0.805,0.931,0.92,1.485
		c0.145,0.775-0.323,1.531-0.985,2.037C79.421,12.167,78.856,10.863,78.296,9.557z"/>
	<path fill="#FFFFFF" d="M68.964,19.688c0.985-0.336,2.003-0.606,3.014-0.902c-0.1,0.092-0.192,0.177-0.286,0.275
		c0.969,0.675,1.954,1.326,2.882,2.041c0.163,0.137,0.34,0.306,0.296,0.522c-0.037,0.204-0.308,0.271-0.496,0.35
		c-0.83,0.262-1.702,0.41-2.581,0.481c-0.567,0.027-1.067-0.298-1.392-0.664C69.843,21.13,69.46,20.381,68.964,19.688z"/>
</g>
<path id="user" fill="#FFFFFF" d="M104.999,2.485C99.478,2.485,95,6.963,95,12.49c0,5.513,4.478,9.994,9.999,9.994
	c5.522,0,10.001-4.481,10.001-9.994C115,6.963,110.521,2.485,104.999,2.485z M111.397,19.298c-0.128-0.06-0.259-0.127-0.392-0.187
	c-0.01,0.014-0.024,0.029-0.037,0.041c-0.222-0.108-0.648-0.302-1.186-0.48c-0.454-0.152-0.923-0.279-1.409-0.375
	c0.002-0.012,0.003-0.012,0.003-0.015c-0.476-0.093-0.834-0.149-0.834-0.149s-0.198-0.613-0.266-1.313
	c-0.064-0.695,0.041-1.102,0.041-1.102s0.421-0.238,0.574-0.502c0.154-0.264,0.251-1.881,0.251-1.881l0.552-0.269l0.367-1.574v-0.64
	l-0.367-0.416c0,0,0.196-0.9,0.196-1.905c0-0.997-0.234-1.896-0.234-1.896s-0.882-0.946-1.767-1.346
	c-0.881-0.406-1.746-0.406-1.746-0.406s-0.053,0-0.146,0.007c-0.091-0.007-0.143-0.007-0.143-0.007s-0.87,0-1.748,0.406
	c-0.884,0.4-1.765,1.346-1.765,1.346s-0.234,0.899-0.234,1.896c0,1.004,0.195,1.905,0.195,1.905l-0.367,0.416v0.64l0.367,1.574
	l0.552,0.269c0,0,0.097,1.617,0.251,1.881c0.15,0.264,0.574,0.502,0.574,0.502s0.106,0.406,0.042,1.102
	c-0.068,0.699-0.266,1.313-0.266,1.313s-0.357,0.057-0.834,0.149c0,0.003,0.001,0.003,0.004,0.015
	c-0.486,0.096-0.952,0.223-1.41,0.375c-0.537,0.179-0.964,0.372-1.182,0.48c-0.018-0.012-0.03-0.027-0.041-0.041
	c-0.138,0.06-0.263,0.127-0.393,0.187c-1.82-1.704-2.959-4.122-2.959-6.808c0-5.163,4.197-9.361,9.357-9.361
	s9.358,4.199,9.358,9.361C114.356,15.176,113.217,17.594,111.397,19.298z"/>
<path fill="#FFFFFF" d="M139.194,17.382h-15.461V6.193h20.565v6.063c0.101-0.003,0.202-0.006,0.301,0.031
	c0.307,0.113,0.621,0.198,0.933,0.292V5.094H122.5v13.388h17.176c-0.072-0.092-0.143-0.185-0.217-0.274
	C139.26,17.964,139.168,17.669,139.194,17.382z"/>
<rect x="133.502" y="8.889" fill="#FFFFFF" width="5.994" height="1.101"/>
<rect x="133.502" y="14.574" fill="#FFFFFF" width="5.616" height="1.102"/>
<rect x="133.502" y="11.729" fill="#FFFFFF" width="5.994" height="1.101"/>
<path fill="#FFFFFF" d="M125.108,15.764h6.589c0-1.2-0.889-2.229-2.136-2.625c0.288-0.252,0.497-0.627,0.592-1.159
	c0.126,0.021,0.29-0.092,0.35-0.287c0.056-0.206,0.128-0.543,0-0.573c-0.041-0.007-0.082,0-0.119,0.015V10.57
	c0.021-0.609-0.074-1.196-0.82-1.453c-0.136-0.25-0.146-0.477-0.146-0.477c-0.335,0.271-1.611,0.374-1.611,0.374l0.014,0.007
	c-1.62,0.146-1.387,0.668-1.387,1.549v0.565c-0.039-0.022-0.078-0.022-0.117-0.015c-0.13,0.03-0.089,0.353-0.031,0.558
	c0.061,0.198,0.259,0.33,0.385,0.301c0.097,0.554,0.29,0.921,0.557,1.167C125.989,13.551,125.108,14.566,125.108,15.764z"/>
<g>
	<g>
		<path fill="#FFFFFF" d="M143.117,11.959c2.209,0,4.001,1.794,4.001,3.998c0,2.209-1.792,4.002-4.001,4.002
			c-2.208,0-3.999-1.793-3.999-4.002C139.118,13.753,140.909,11.959,143.117,11.959 M143.117,11.459
			c-2.481,0-4.499,2.018-4.499,4.498c0,2.482,2.018,4.502,4.499,4.502c2.482,0,4.501-2.02,4.501-4.502
			C147.618,13.477,145.599,11.459,143.117,11.459L143.117,11.459z"/>
	</g>
	
		<rect x="143.755" y="15.999" transform="matrix(0.7084 -0.7058 0.7058 0.7084 30.4114 106.3792)" fill="#FFFFFF" width="0.382" height="0.773"/>
	<path fill="#FFFFFF" d="M145.227,17.087c0.116,0.113,0.116,0.31,0,0.433l-0.149,0.143c-0.117,0.121-0.312,0.121-0.432,0
		l-0.774-0.774c-0.121-0.12-0.121-0.315,0-0.432l0.146-0.144c0.119-0.12,0.312-0.12,0.432,0L145.227,17.087z"/>
	<path fill="#FFFFFF" d="M142.651,13.447c-0.91,0-1.649,0.735-1.649,1.645s0.739,1.647,1.649,1.647c0.909,0,1.648-0.738,1.648-1.647
		S143.561,13.447,142.651,13.447z M142.651,16.438c-0.743,0-1.345-0.604-1.345-1.346c0-0.739,0.602-1.339,1.345-1.339
		c0.74,0,1.34,0.6,1.34,1.339C143.991,15.834,143.392,16.438,142.651,16.438z"/>
	<path fill="#FFFFFF" d="M142.985,15.904c-0.655,0-1.186-0.529-1.186-1.186c0-0.019,0-0.031,0.001-0.051
		c-0.087,0.137-0.139,0.303-0.139,0.48c0,0.507,0.414,0.915,0.923,0.915c0.191,0,0.377-0.061,0.523-0.163
		C143.072,15.904,143.03,15.904,142.985,15.904z"/>
</g>
<path fill="#FFFFFF" d="M173.318,11.632c-2.287-0.312-3.92-1.499-4.699-3.699c-0.088-0.248-0.06-0.458,0.016-0.639
	c-0.278-0.232-0.383-0.624-0.319-0.984h-1.041c0,0,0-1.979,0-2.394c0-0.409-0.222-0.36-0.222-0.36h-5.802
	c0,0-0.247,0.036-0.247,0.372c0,0.34,0,2.382,0,2.382h-5.65c-0.511,0-0.927,0.494-0.927,1.105v4.911h19.999v-1.151
	C174.198,11.553,173.768,11.693,173.318,11.632z M166.328,6.31h-4.372V4.389h4.372V6.31z"/>
<rect x="163.101" y="13.829" fill="#FFFFFF" width="2.65" height="0.879"/>
<path id="Business" fill="#FFFFFF" d="M166.44,16.115h-4.03v-2.183h-7.983v6.519c0,0.608,0.416,1.104,0.927,1.104h18.142
	c0.514,0,0.931-0.495,0.931-1.104v-6.519h-7.985V16.115z"/>
<g>
	<path fill="#FFFFFF" d="M172.729,3.571c2.208,0,4,1.793,4,3.999c0,2.208-1.792,4.001-4,4.001s-4-1.792-4-4.001
		C168.729,5.364,170.521,3.571,172.729,3.571 M172.729,3.071c-2.481,0-4.5,2.018-4.5,4.499c0,2.482,2.019,4.501,4.5,4.501
		s4.5-2.019,4.5-4.501C177.229,5.089,175.211,3.071,172.729,3.071L172.729,3.071z"/>
</g>
<polygon fill="#FFFFFF" points="174.822,8.278 173.427,8.278 173.427,9.69 172.033,9.69 172.033,8.278 170.636,8.278 170.636,6.862 
	172.033,6.862 172.033,5.452 173.427,5.452 173.427,6.862 174.822,6.862 "/>
<rect x="193.502" y="14.574" fill="#FFFFFF" width="5.994" height="1.102"/>
<path fill="#FFFFFF" d="M204.955,11.059c-0.185,0.196-0.42,0.27-0.657,0.262v6.061h-20.565V6.193h15.679
	c-0.101-0.404,0.027-0.857,0.377-1.099H182.5v13.388h23.032v-7.691C205.396,10.939,205.198,11.031,204.955,11.059z"/>
<rect x="193.502" y="11.729" fill="#FFFFFF" width="5.994" height="1.101"/>
<rect x="193.502" y="8.889" fill="#FFFFFF" width="5.994" height="1.101"/>
<path fill="#FFFFFF" d="M185.108,15.764h6.589c0-1.2-0.889-2.229-2.136-2.625c0.288-0.252,0.497-0.627,0.592-1.159
	c0.126,0.021,0.29-0.092,0.35-0.286c0.056-0.206,0.128-0.543,0-0.573c-0.041-0.007-0.082,0-0.119,0.015V10.57
	c0.021-0.609-0.074-1.196-0.82-1.453c-0.136-0.25-0.146-0.477-0.146-0.477c-0.335,0.271-1.611,0.374-1.611,0.374l0.014,0.007
	c-1.62,0.146-1.387,0.668-1.387,1.549v0.565c-0.039-0.021-0.078-0.021-0.117-0.015c-0.13,0.03-0.089,0.353-0.031,0.558
	c0.061,0.199,0.259,0.33,0.385,0.302c0.097,0.554,0.29,0.921,0.557,1.167C185.989,13.551,185.108,14.566,185.108,15.764z"/>
<g>
	<g>
		<path fill="#FFFFFF" d="M203.118,3.484c2.209,0,4,1.793,4,3.999c0,2.208-1.791,4.002-4,4.002s-4-1.794-4-4.002
			C199.118,5.277,200.909,3.484,203.118,3.484 M203.118,2.984c-2.481,0-4.5,2.018-4.5,4.499c0,2.482,2.019,4.502,4.5,4.502
			s4.5-2.02,4.5-4.502C207.618,5.002,205.6,2.984,203.118,2.984L203.118,2.984z"/>
	</g>
	<polygon fill="#FFFFFF" points="205.481,8.274 203.905,8.274 203.905,9.847 202.331,9.847 202.331,8.274 200.755,8.274 
		200.755,6.693 202.331,6.693 202.331,5.121 203.905,5.121 203.905,6.693 205.481,6.693 	"/>
</g>
<path id="search_profile_2_" fill="#FFFFFF" d="M222.483,16.97h-7.151c0-1.342,0.956-2.479,2.301-2.933
	c-0.289-0.275-0.499-0.687-0.604-1.307c-0.138,0.031-0.353-0.115-0.418-0.339c-0.063-0.229-0.108-0.591,0.033-0.624
	c0.043-0.008,0.085-0.008,0.127,0.016V11.15c0-0.987-0.253-1.571,1.505-1.735l-0.015-0.008c0,0,1.385-0.115,1.749-0.419
	c0,0,0.01,0.255,0.158,0.534c0.81,0.288,0.913,0.945,0.891,1.628v0.633c0.04-0.016,0.084-0.023,0.128-0.016
	c0.14,0.033,0.062,0.411,0,0.642c-0.064,0.218-0.243,0.345-0.38,0.321c-0.104,0.596-0.329,1.016-0.642,1.298
	C221.52,14.473,222.483,15.625,222.483,16.97z M237.5,5.016v15h-24.999v-15H237.5z M236.161,6.247h-22.322v12.536h22.322V6.247z
	 M234.292,9.267h-10v1.234h10V9.267z M234.292,12.45h-10v1.232h10V12.45z M234.292,15.637h-10v1.234h10V15.637z"/>
<g id="Cart">
	<g>
		<path fill="#FFFFFF" d="M264.981,2.988c-0.085-0.334-0.425-0.537-0.76-0.454l-2.5,0.625c-0.243,0.062-0.427,0.261-0.466,0.509
			l-0.315,2.004l-15.392,1.847c-0.014,0.004-0.023,0.009-0.035,0.015c-0.016,0.002-0.029-0.004-0.044,0.002
			c-0.035,0.005-0.06,0.028-0.091,0.041c-0.037,0.019-0.069,0.03-0.1,0.051c-0.046,0.028-0.081,0.066-0.116,0.109
			c-0.018,0.017-0.041,0.028-0.054,0.051c-0.006,0.005-0.006,0.009-0.008,0.015c-0.035,0.052-0.056,0.112-0.071,0.17
			c-0.004,0.023-0.019,0.04-0.023,0.064c-0.01,0.083-0.01,0.169,0.009,0.255l1.875,7.5l0.625,2.5
			c0.006,0.019,0.018,0.029,0.021,0.049c0.01,0.029,0.025,0.056,0.041,0.086c0.019,0.037,0.046,0.079,0.075,0.109
			c0.017,0.025,0.037,0.045,0.056,0.067c0.04,0.029,0.079,0.06,0.123,0.082c0.021,0.012,0.042,0.026,0.066,0.034
			c0.071,0.026,0.146,0.045,0.224,0.045h13.127c0.345,0,0.625-0.281,0.625-0.627s-0.28-0.623-0.625-0.623h-12.64l-0.313-1.25h11.702
			c0.079,0,0.152-0.016,0.22-0.045c0.026-0.008,0.05-0.026,0.077-0.041c0.038-0.016,0.077-0.038,0.109-0.064
			c0.025-0.019,0.043-0.045,0.064-0.078c0.026-0.031,0.054-0.053,0.075-0.087c0.017-0.038,0.026-0.071,0.036-0.108
			c0.014-0.03,0.029-0.064,0.037-0.102l0.004-0.016v-0.004l1.805-11.449l2.1-0.525C264.861,3.664,265.064,3.324,264.981,2.988z
			 M247.984,15.016l-1.583-6.336l1.937-0.235l0.941,6.571H247.984z M250.541,15.016l-0.96-6.721l1.948-0.233l0.313,6.954H250.541z
			 M254.4,15.016h-1.306l-0.322-7.103l1.946-0.232L254.4,15.016z M256.946,15.016h-1.294l0.324-7.489l1.938-0.233L256.946,15.016z
			 M259.453,15.016h-1.247l0.984-7.875l1.333-0.158L259.453,15.016z M250.622,20.016c-0.688,0-1.25,0.56-1.25,1.25
			s0.562,1.25,1.25,1.25c0.692,0,1.25-0.56,1.25-1.25S251.314,20.016,250.622,20.016z M258.751,20.016c-0.691,0-1.25,0.56-1.25,1.25
			s0.557,1.25,1.25,1.25c0.688,0,1.25-0.56,1.25-1.25C259.999,20.575,259.439,20.016,258.751,20.016z"/>
	</g>
</g>
<path fill="#FFFFFF" d="M290.905,14.484v-0.629c-0.399-0.004-0.812-0.118-1.051-0.272l0.166-0.418
	c0.246,0.149,0.603,0.268,0.987,0.268c0.486,0,0.815-0.255,0.815-0.608c0-0.345-0.267-0.556-0.774-0.743
	c-0.699-0.244-1.132-0.532-1.132-1.076c0-0.516,0.403-0.905,1.035-0.999V9.378h0.426v0.605c0.412,0.012,0.692,0.109,0.892,0.215
	l-0.173,0.41c-0.144-0.073-0.423-0.211-0.862-0.211c-0.528,0-0.729,0.288-0.729,0.536c0,0.325,0.254,0.487,0.852,0.71
	c0.706,0.26,1.062,0.584,1.062,1.136c0,0.491-0.376,0.949-1.082,1.055v0.65H290.905z"/>
<rect x="278.674" y="16.574" fill="#FFFFFF" width="5.107" height="1.026"/>
<rect x="278.674" y="13.871" fill="#FFFFFF" width="8.449" height="1.031"/>
<rect x="278.633" y="11.243" fill="#FFFFFF" width="8.453" height="1.025"/>
<rect x="278.674" y="8.695" fill="#FFFFFF" width="8.449" height="1.026"/>
<path fill="#FFFFFF" d="M275,2.516v2.717v0.552v16.731h15.876L295,18.526V5.785V5.233V2.516H275z M293.611,17.179l-3.956-0.012
	l0.011,4.155h-13.371V6.351h17.316V17.179z"/>
<path fill="#FFFFFF" d="M322.667,11.834c-0.178,0-0.326-0.044-0.455-0.109c-0.045,0.006-0.08,0.026-0.129,0.026
	c-0.175,0-0.32-0.041-0.448-0.104c-0.045,0.007-0.084,0.021-0.135,0.021c-0.26,0-0.452-0.095-0.607-0.224
	c-0.093,0.033-0.192,0.057-0.31,0.057c-0.337,0-0.581-0.14-0.742-0.341c-0.103-0.049-0.193-0.113-0.268-0.191
	C319.52,10.977,319.477,11,319.417,11c-0.604,0-0.915-0.441-0.952-0.909c-0.273-0.108-0.444-0.33-0.522-0.59
	c-0.176-0.161-0.251-0.383-0.28-0.615c-0.244-0.325-0.263-0.792-0.069-1.15c-0.115-0.362-0.012-0.734,0.229-0.996
	c0.025-0.15,0.077-0.299,0.161-0.431h-1.699c0,0,0-1.979,0-2.394c0-0.409-0.222-0.36-0.222-0.36h-5.802c0,0-0.248,0.036-0.248,0.372
	c0,0.34,0,2.382,0,2.382h-5.65c-0.51,0-0.926,0.494-0.926,1.105v4.912h19.999v-0.879C323.275,11.672,323.026,11.834,322.667,11.834z
	 M315.336,6.31h-4.371V4.389h4.371V6.31z"/>
<rect x="312.109" y="13.829" fill="#FFFFFF" width="2.65" height="0.879"/>
<path id="Business_1_" fill="#FFFFFF" d="M315.449,16.115h-4.031v-2.183h-7.982v6.519c0,0.608,0.416,1.104,0.926,1.104h18.143
	c0.514,0,0.931-0.495,0.931-1.104v-6.519h-7.985V16.115z"/>
<g>
	<path fill="#FFFFFF" d="M321.738,3.571c2.208,0,4,1.793,4,3.999c0,2.208-1.792,4.001-4,4.001s-4-1.793-4-4.001
		C317.738,5.364,319.53,3.571,321.738,3.571 M321.738,3.071c-2.481,0-4.5,2.018-4.5,4.499c0,2.482,2.019,4.501,4.5,4.501
		s4.5-2.02,4.5-4.501C326.238,5.089,324.22,3.071,321.738,3.071L321.738,3.071z"/>
</g>
<path fill="#FFFFFF" d="M323.639,7.079c-0.02-0.06-0.069-0.104-0.132-0.111l-1.19-0.183l-0.528-1.126
	c-0.053-0.117-0.234-0.117-0.287,0l-0.528,1.126l-1.19,0.183c-0.063,0.008-0.112,0.052-0.132,0.111
	c-0.016,0.064-0.002,0.131,0.045,0.178l0.855,0.875l-0.199,1.242c-0.014,0.063,0.012,0.128,0.063,0.164
	c0.047,0.039,0.115,0.042,0.168,0.013l1.063-0.586l1.059,0.586c0.025,0.014,0.051,0.019,0.078,0.019
	c0.031,0,0.066-0.011,0.094-0.031c0.051-0.036,0.076-0.102,0.063-0.164l-0.199-1.242l0.855-0.875
	C323.641,7.21,323.654,7.143,323.639,7.079z"/>
<g id="bell">
	<g>
		<path fill="#FFFFFF" d="M351.53,3.204c0.317-0.379,0.804-0.629,1.316-0.678c0.519-0.054,1.054,0.096,1.455,0.406
			c0.402,0.308,0.661,0.77,0.692,1.256c0.031,0.366-0.063,0.74-0.272,1.054c-0.361,0.58-1.098,0.929-1.816,0.869
			c0.353,0.712,0.491,1.504,0.491,2.278c-0.01,1.692-0.679,3.337-1.705,4.724c-0.215,0.32-0.487,0.603-0.736,0.902
			c-0.509,0.561-1.134,1.044-1.5,1.702c-0.701,1.181-0.84,2.542-1.25,3.813c-0.146,0.419-0.348,0.863-0.771,1.104
			c-0.555,0.325-1.237,0.342-1.871,0.286c-1.236-0.153-2.388-0.667-3.432-1.271c-1.201-0.706-2.29-1.578-3.285-2.511
			c-1.371-1.297-2.629-2.755-3.379-4.449c-0.316-0.76-0.545-1.579-0.441-2.398c0.063-0.451,0.25-0.924,0.664-1.189
			c0.42-0.265,0.92-0.376,1.42-0.477c1.151-0.248,2.356-0.368,3.459-0.806c0.326-0.133,0.639-0.295,0.915-0.494
			c0.33-0.252,0.634-0.528,0.946-0.796c1.5-1.226,3.316-2.184,5.303-2.466c1.138-0.149,2.334-0.092,3.379,0.359
			C351.089,3.987,351.227,3.542,351.53,3.204z M352.815,3.443c-0.316,0.073-0.584,0.306-0.687,0.59
			c-0.099,0.28-0.041,0.604,0.16,0.832c0.215,0.266,0.594,0.398,0.946,0.338c0.509-0.08,0.893-0.586,0.776-1.057
			C353.923,3.653,353.338,3.309,352.815,3.443z M348.178,5.674c-1.044,0.161-1.941,0.751-2.718,1.395
			c-0.991,0.828-1.905,1.732-2.972,2.487c-0.854,0.61-1.791,1.125-2.809,1.45c-0.709,0.214-1.459,0.376-2.209,0.323
			c0,0.819,0.634,1.508,1.37,1.901c0.058,0.043,0.13,0.013,0.196,0.013c1.16-0.119,2.245-0.637,3.129-1.328
			c0.603-0.451,1.08-1.02,1.559-1.568c1.209-1.324,2.468-2.64,4.003-3.638c0.772-0.479,1.656-0.901,2.606-0.896
			C349.638,5.64,348.896,5.553,348.178,5.674z"/>
	</g>
	<path fill="#FFFFFF" d="M340.096,19.251c0.945,0.697,1.955,1.335,3.053,1.805c-0.099,0.437-0.361,0.839-0.754,1.104
		c-0.474,0.333-1.112,0.437-1.679,0.291c-0.482-0.12-0.906-0.42-1.161-0.813c-0.308-0.479-0.361-1.086-0.133-1.596
		C339.555,19.726,339.801,19.456,340.096,19.251z"/>
</g>
<rect x="367.305" y="13.766" fill="#FFFFFF" width="12.5" height="1.25"/>
<rect x="367.305" y="16.266" fill="#FFFFFF" width="10.863" height="1.25"/>
<rect x="367.305" y="18.766" fill="#FFFFFF" width="10.863" height="1.25"/>
<path fill="#FFFFFF" d="M380.082,2.516h-1.25v8.125h-10V2.516h-5v20h17.477c-0.07-0.031-0.137-0.074-0.204-0.111
	c-0.054-0.003-0.098-0.02-0.146-0.029c-0.067,0.018-0.129,0.042-0.208,0.042c-0.408,0-0.673-0.209-0.822-0.483
	c-0.023-0.014-0.051-0.023-0.072-0.039c-0.401-0.054-0.661-0.309-0.766-0.629h-12.758v-8.75h15v1.804
	c0.103-0.036,0.207-0.068,0.335-0.068c0.103,0,0.184,0.031,0.27,0.055c0.093-0.034,0.195-0.055,0.313-0.055
	c0.224,0,0.394,0.075,0.539,0.175c0.017,0,0.027-0.009,0.044-0.009c0.342,0,0.587,0.145,0.747,0.351
	c0.096,0.044,0.182,0.098,0.252,0.166V6.266L380.082,2.516z"/>
<g>
	<path fill="#FFFFFF" d="M382.168,14.516c2.209,0,4,1.794,4,3.998c0,2.209-1.791,4.002-4,4.002s-4-1.793-4-4.002
		C378.168,16.31,379.959,14.516,382.168,14.516 M382.168,14.016c-2.481,0-4.5,2.018-4.5,4.498c0,2.482,2.019,4.502,4.5,4.502
		s4.5-2.02,4.5-4.502C386.668,16.033,384.649,14.016,382.168,14.016L382.168,14.016z"/>
</g>
<rect x="382.806" y="18.556" transform="matrix(0.7071 -0.7071 0.7071 0.7071 98.7827 276.3672)" fill="#FFFFFF" width="0.381" height="0.773"/>
<path fill="#FFFFFF" d="M384.277,19.644c0.115,0.113,0.115,0.31,0,0.433l-0.15,0.143c-0.117,0.121-0.311,0.121-0.432,0l-0.773-0.774
	c-0.121-0.12-0.121-0.315,0-0.432l0.145-0.144c0.119-0.12,0.313-0.12,0.432,0L384.277,19.644z"/>
<path fill="#FFFFFF" d="M381.701,16.004c-0.91,0-1.648,0.735-1.648,1.645s0.738,1.647,1.648,1.647s1.648-0.738,1.648-1.647
	S382.611,16.004,381.701,16.004z M381.701,18.994c-0.742,0-1.344-0.604-1.344-1.346c0-0.739,0.602-1.339,1.344-1.339
	c0.74,0,1.34,0.6,1.34,1.339C383.041,18.391,382.441,18.994,381.701,18.994z"/>
<path fill="#FFFFFF" d="M382.035,18.461c-0.654,0-1.186-0.529-1.186-1.186c0-0.019,0-0.031,0.002-0.051
	c-0.088,0.137-0.139,0.303-0.139,0.48c0,0.507,0.414,0.915,0.922,0.915c0.191,0,0.377-0.061,0.523-0.163
	C382.123,18.461,382.08,18.461,382.035,18.461z"/>
<path fill="#FFFFFF" d="M397.773,8.452c0.33,0,0.661,0,0.997,0c0.082,0,0.082-1.105,0-1.105c-0.336,0-0.667,0-0.997,0
	C397.69,7.347,397.69,8.452,397.773,8.452z"/>
<path fill="#FFFFFF" d="M398.771,9.971c-0.336,0-0.667,0-0.997,0c-0.083,0-0.083,1.111,0,1.111c0.33,0,0.661,0,0.997,0
	C398.853,11.083,398.853,9.971,398.771,9.971z"/>
<path fill="#FFFFFF" d="M398.771,12.403c-0.336,0-0.667,0-0.997,0c-0.083,0-0.083,1.115,0,1.115c0.33,0,0.661,0,0.997,0
	C398.853,13.518,398.853,12.403,398.771,12.403z"/>
<path fill="#FFFFFF" d="M398.771,15.031c-0.336,0-0.667,0-0.997,0c-0.083,0-0.083,1.111,0,1.111c0.33,0,0.661,0,0.997,0
	C398.853,16.143,398.853,15.031,398.771,15.031z"/>
<path fill="#FFFFFF" d="M398.752,17.508c-0.331,0-0.666,0-0.997,0c-0.083,0-0.083,1.111,0,1.111c0.331,0,0.666,0,0.997,0
	C398.835,18.619,398.835,17.508,398.752,17.508z"/>
<path fill="#FFFFFF" d="M410.282,2.516H394v20h16.46c-0.032-0.028-0.075-0.045-0.103-0.077c-0.163-0.052-0.306-0.128-0.407-0.243
	c-0.386-0.119-0.596-0.45-0.636-0.816c-0.177-0.031-0.325-0.098-0.441-0.2h-13.141V3.846h13.663v2.116h2.877v8.484
	c0.051-0.007,0.09-0.029,0.145-0.029c0.001,0,0.002,0.001,0.004,0.001c0.118-0.053,0.255-0.084,0.412-0.084
	c0.281,0,0.49,0.106,0.649,0.255c0.163,0.074,0.293,0.188,0.385,0.328c0.045,0.02,0.092,0.036,0.133,0.061V5.29L410.282,2.516z"/>
<path fill="#FFFFFF" d="M401.638,8.45c2.688,0,5.354,0,8.079,0c0.652,0,0.652-1.103,0-1.103c-2.725,0-5.391,0-8.079,0
	C400.967,7.347,400.967,8.45,401.638,8.45z"/>
<path fill="#FFFFFF" d="M409.717,9.971c-2.725,0-5.391,0-8.079,0c-0.671,0-0.671,1.111,0,1.111c2.688,0,5.354,0,8.079,0
	C410.369,11.083,410.369,9.971,409.717,9.971z"/>
<path fill="#FFFFFF" d="M409.717,12.403c-2.725,0-5.391,0-8.079,0c-0.671,0-0.671,1.115,0,1.115c2.688,0,5.354,0,8.079,0
	C410.369,13.518,410.369,12.403,409.717,12.403z"/>
<path fill="#FFFFFF" d="M408.587,15.031c-2.366,0-4.681,0-7.016,0c-0.582,0-0.582,1.111,0,1.111c2.335,0,4.649,0,7.016,0
	C409.153,16.143,409.153,15.031,408.587,15.031z"/>
<path fill="#FFFFFF" d="M407.83,17.508c-2.145,0-4.303,0-6.442,0c-0.521,0-0.521,1.111,0,1.111c2.14,0,4.298,0,6.442,0
	C408.364,18.619,408.364,17.508,407.83,17.508z"/>
<g>
	<path fill="#FFFFFF" d="M412.168,14.62c2.209,0,4,1.794,4,3.998c0,2.209-1.791,4.002-4,4.002s-4-1.793-4-4.002
		C408.168,16.414,409.959,14.62,412.168,14.62 M412.168,14.12c-2.481,0-4.5,2.018-4.5,4.498c0,2.482,2.019,4.502,4.5,4.502
		s4.5-2.02,4.5-4.502C416.668,16.138,414.649,14.12,412.168,14.12L412.168,14.12z"/>
</g>
<rect x="412.806" y="18.66" transform="matrix(0.7071 -0.7071 0.7071 0.7071 107.4956 297.611)" fill="#FFFFFF" width="0.381" height="0.773"/>
<path fill="#FFFFFF" d="M414.277,19.748c0.115,0.113,0.115,0.31,0,0.433l-0.15,0.143c-0.117,0.121-0.311,0.121-0.432,0l-0.773-0.774
	c-0.121-0.12-0.121-0.315,0-0.432l0.145-0.144c0.119-0.12,0.313-0.12,0.432,0L414.277,19.748z"/>
<path fill="#FFFFFF" d="M411.701,16.108c-0.91,0-1.648,0.735-1.648,1.645s0.738,1.647,1.648,1.647s1.648-0.738,1.648-1.647
	S412.611,16.108,411.701,16.108z M411.701,19.099c-0.742,0-1.344-0.604-1.344-1.346c0-0.739,0.602-1.339,1.344-1.339
	c0.74,0,1.34,0.6,1.34,1.339C413.041,18.495,412.441,19.099,411.701,19.099z"/>
<path fill="#FFFFFF" d="M412.035,18.565c-0.654,0-1.186-0.529-1.186-1.186c0-0.019,0-0.031,0.002-0.051
	c-0.088,0.137-0.139,0.303-0.139,0.48c0,0.507,0.414,0.915,0.922,0.915c0.191,0,0.377-0.061,0.523-0.163
	C412.123,18.565,412.08,18.565,412.035,18.565z"/>
<polygon fill="#FFFFFF" points="439.715,17.515 446,17.515 439.715,22.516 "/>
<g>
	<path fill="#FFFFFF" d="M444.429,3.266c0.47,0,0.821,0.264,0.821,0.499v11.75h-6.322c-0.847,0-1.535,0.618-1.535,1.377v4.873
		h-11.82c-0.471,0-0.822-0.264-0.822-0.499V3.765c0-0.235,0.352-0.499,0.822-0.499H444.429 M444.429,2.516h-18.856
		c-0.873,0-1.572,0.561-1.572,1.249v17.501c0,0.691,0.699,1.249,1.572,1.249h12.57v-5.623c0-0.346,0.353-0.627,0.785-0.627H446
		v-12.5C446,3.077,445.301,2.516,444.429,2.516L444.429,2.516z"/>
</g>
<path fill="#FFFFFF" d="M427.143,6.891c0,0.345,0.033,0.626,0.074,0.626h1.293c0.041,0,0.073-0.281,0.073-0.626
	c0-0.346-0.032-0.625-0.073-0.625h-1.293C427.176,6.266,427.143,6.545,427.143,6.891z"/>
<path fill="#FFFFFF" d="M427.143,10.64c0,0.345,0.033,0.627,0.074,0.627h1.293c0.041,0,0.073-0.282,0.073-0.627
	c0-0.343-0.032-0.625-0.073-0.625h-1.293C427.176,10.016,427.143,10.297,427.143,10.64z"/>
<path fill="#FFFFFF" d="M428.51,15.017c0.041,0,0.073-0.281,0.073-0.627c0-0.345-0.032-0.622-0.073-0.622h-1.293
	c-0.041,0-0.074,0.277-0.074,0.622c0,0.346,0.033,0.627,0.074,0.627H428.51z"/>
<path fill="#FFFFFF" d="M430.154,6.891c0,0.345,0.295,0.626,0.655,0.626h11.394c0.359,0,0.654-0.281,0.654-0.626
	c0-0.346-0.295-0.627-0.654-0.627H430.81C430.449,6.264,430.154,6.545,430.154,6.891z"/>
<path fill="#FFFFFF" d="M430.154,10.638c0,0.35,0.295,0.631,0.655,0.631h11.394c0.359,0,0.654-0.281,0.654-0.631
	c0-0.341-0.295-0.623-0.654-0.623H430.81C430.449,10.016,430.154,10.297,430.154,10.638z"/>
<path fill="#FFFFFF" d="M442.203,15.017c0.359,0,0.654-0.281,0.654-0.627c0-0.345-0.295-0.622-0.654-0.622H430.81
	c-0.36,0-0.655,0.277-0.655,0.622c0,0.346,0.295,0.627,0.655,0.627H442.203z"/>
<g id="chat">
	<path fill="#FFFFFF" d="M454.675,8.251c1.351-2.178,3.89-3.274,6.32-3.619c2.575-0.35,5.512,0.026,7.431,1.954
		c2.26,2.244,2.102,6.442-0.383,8.458c-1.941,1.619-4.58,1.85-6.997,1.647c-1.407,1.594-3.503,2.256-5.579,2.018
		c0.888-0.696,2.152-1.393,2.066-2.726c-0.57-1.042-1.866-1.447-2.504-2.473C453.834,12.058,453.633,9.845,454.675,8.251z"/>
	<path fill="#FFFFFF" d="M469.422,6.135c2.861,0.744,5.958,2.605,6.513,5.789c0.459,2.556-1.571,4.586-3.526,5.834
		c0.326,1.219,1.429,1.86,2.388,2.531c-2.052,0.516-4.368,0.203-5.808-1.488c-2.221,0.486-4.516-0.037-6.428-1.241
		c2.711-0.02,5.83-0.689,7.348-3.209C471.531,11.825,470.736,8.607,469.422,6.135z"/>
</g>
<path id="search" fill="#FFFFFF" d="M503.5,20.244l-4.708-6.362l-0.782,0.336l-0.919-1.206c2.03-2.159,2.296-5.546,0.47-8.013
	c-2.039-2.743-5.889-3.299-8.603-1.243c-2.714,2.058-3.265,5.953-1.229,8.698c1.827,2.465,5.121,3.155,7.735,1.783l0.87,1.13
	l-0.521,0.774l4.712,6.352c0,0,1.192,0.189,2.028-0.542C503.398,21.228,503.5,20.244,503.5,20.244z M488.852,11.6
	c-1.565-2.118-1.139-5.116,0.953-6.704c2.09-1.583,5.06-1.156,6.623,0.958c1.565,2.118,1.143,5.114-0.949,6.702
	C493.393,14.135,490.426,13.706,488.852,11.6z"/>
<rect x="517.32" y="13.768" fill="#FFFFFF" width="12.859" height="1.25"/>
<path fill="#FFFFFF" d="M532.083,22.417c-0.293,0-0.511-0.111-0.671-0.271c-0.052,0.01-0.103,0.021-0.162,0.021
	c-0.35,0-0.596-0.152-0.756-0.366c-0.436,0.038-0.846-0.136-1.041-0.534H516.04v-17.5h10.28v5h5.14v5.635
	c0.156-0.137,0.355-0.235,0.623-0.235c0.291,0,0.507,0.11,0.667,0.269V7.519l-5.145-5.003H514.75v20h18V22.2
	c-0.028,0.008-0.061,0.009-0.09,0.016C532.509,22.331,532.326,22.417,532.083,22.417z M527.605,4.284l3.326,3.235h-3.326V4.284z"/>
<rect x="517.32" y="10.017" fill="#FFFFFF" width="12.859" height="1.249"/>
<rect x="517.32" y="17.516" fill="#FFFFFF" width="11.097" height="1.249"/>
<rect x="517.32" y="6.267" fill="#FFFFFF" width="7.72" height="1.251"/>
<g>
	<path fill="#FFFFFF" d="M532.416,14.266c2.209,0,4.001,1.794,4.001,3.998c0,2.209-1.792,4.002-4.001,4.002
		c-2.208,0-3.999-1.793-3.999-4.002C528.417,16.06,530.208,14.266,532.416,14.266 M532.416,13.766c-2.48,0-4.499,2.018-4.499,4.498
		c0,2.482,2.019,4.502,4.499,4.502c2.481,0,4.501-2.02,4.501-4.502C536.917,15.783,534.897,13.766,532.416,13.766L532.416,13.766z"
		/>
</g>
<g>
	<polygon fill="#FFFFFF" points="531.67,18.464 534.034,20.106 534.142,19.899 531.782,18.256 	"/>
	<polygon fill="#FFFFFF" points="531.917,17.995 534.281,19.639 534.552,19.121 532.192,17.477 	"/>
	<polygon fill="#FFFFFF" points="534.691,18.856 534.828,18.602 532.47,16.955 532.335,17.212 	"/>
	<polygon fill="#FFFFFF" points="531.227,16.653 530.862,17.335 531.51,18.351 532.31,16.846 	"/>
	<polygon fill="#FFFFFF" points="530.328,16.495 530.779,17.199 531.08,16.631 	"/>
</g>
<g>
	<path fill="#FFFFFF" d="M562.5,3.016v14.779l-3.576-0.004h-0.502l0.001,0.501l0.008,3.724H547.5v-19H562.5 M563,2.516h-16v20
		h11.932l-0.009-4.225L563,18.295V2.516L563,2.516z"/>
</g>
<rect x="548.792" y="6.296" fill="#FFFFFF" width="5.182" height="0.789"/>
<rect x="549.41" y="9.128" fill="#FFFFFF" width="11.594" height="0.785"/>
<rect x="549.394" y="10.876" fill="#FFFFFF" width="11.595" height="0.791"/>
<rect x="549.394" y="12.595" fill="#FFFFFF" width="11.595" height="0.789"/>
<rect x="548.792" y="4.647" fill="#FFFFFF" width="5.182" height="0.79"/>
<rect x="548.792" y="17.079" fill="#FFFFFF" width="5.182" height="0.789"/>
<rect x="548.792" y="15.427" fill="#FFFFFF" width="5.182" height="0.789"/>
<path fill="#FFFFFF" stroke="#FFFFFF" stroke-miterlimit="10" d="M560.52,16.261c0,0.61-0.531,1.103-1.186,1.103
	c-0.662,0-1.191-0.492-1.191-1.103s0.529-1.103,1.191-1.103C559.988,15.158,560.52,15.65,560.52,16.261z"/>
<polygon fill="#FFFFFF" points="559.895,22.178 563,18.779 559.895,18.779 "/>
<rect x="140.473" y="13.257" fill="none" width="4.754" height="4.466"/>
<path fill="#FFFFFF" d="M593.917,6.271h-6.221c0,0,0-1.979,0-2.394c0-0.409-0.222-0.36-0.222-0.36h-5.802
	c0,0-0.247,0.036-0.247,0.372c0,0.34,0,2.382,0,2.382h-5.65c-0.511,0-0.927,0.494-0.927,1.105v4.911h19.999V7.376
	C594.848,6.765,594.431,6.271,593.917,6.271z M582.378,6.271V4.35h4.372v1.921H582.378z"/>
<rect x="583.522" y="13.79" fill="#FFFFFF" width="2.65" height="0.879"/>
<path id="Business_3_" fill="#FFFFFF" d="M586.862,16.076h-4.03v-2.183h-7.983v6.519c0,0.608,0.416,1.104,0.927,1.104h18.142
	c0.514,0,0.931-0.495,0.931-1.104v-6.519h-7.985V16.076z"/>
<g>
	<rect x="613.693" y="14.574" fill="#FFFFFF" width="5.994" height="1.102"/>
	<path fill="#FFFFFF" d="M625.146,11.059c-0.186,0.196-0.421,0.27-0.658,0.262v6.061h-20.564V6.193h15.679
		c-0.101-0.403,0.026-0.857,0.378-1.099h-17.289v13.388h23.031v-7.691C625.586,10.939,625.389,11.031,625.146,11.059z"/>
	<rect x="613.693" y="11.729" fill="#FFFFFF" width="5.994" height="1.101"/>
	<rect x="613.693" y="8.888" fill="#FFFFFF" width="5.994" height="1.102"/>
	<path fill="#FFFFFF" d="M605.299,15.764h6.59c0-1.2-0.889-2.229-2.137-2.625c0.289-0.252,0.497-0.627,0.592-1.16
		c0.127,0.021,0.291-0.092,0.351-0.286c0.056-0.206,0.128-0.543,0-0.573c-0.04-0.007-0.081,0-0.118,0.015V10.57
		c0.021-0.609-0.074-1.196-0.82-1.453c-0.137-0.25-0.146-0.478-0.146-0.478c-0.335,0.271-1.611,0.374-1.611,0.374l0.014,0.008
		c-1.619,0.146-1.387,0.668-1.387,1.549v0.564c-0.038-0.021-0.077-0.021-0.116-0.015c-0.13,0.03-0.089,0.353-0.031,0.558
		c0.061,0.199,0.259,0.33,0.386,0.302c0.096,0.554,0.289,0.921,0.557,1.167C606.18,13.551,605.299,14.566,605.299,15.764z"/>
	<g>
		<g>
			<path fill="#FFFFFF" d="M623.309,3.484c2.209,0,4,1.793,4,3.998c0,2.208-1.791,4.002-4,4.002s-4-1.794-4-4.002
				C619.309,5.277,621.1,3.484,623.309,3.484 M623.309,2.984c-2.481,0-4.5,2.018-4.5,4.498c0,2.482,2.019,4.502,4.5,4.502
				s4.5-2.02,4.5-4.502C627.809,5.001,625.79,2.984,623.309,2.984L623.309,2.984z"/>
		</g>
	</g>
	<path fill="#FFFFFF" d="M625.303,6.992c-0.02-0.06-0.069-0.104-0.132-0.111l-1.19-0.183l-0.528-1.126
		c-0.053-0.117-0.234-0.117-0.287,0l-0.528,1.126l-1.19,0.183c-0.063,0.008-0.112,0.052-0.132,0.111
		c-0.016,0.063-0.002,0.131,0.045,0.178l0.855,0.875l-0.199,1.242c-0.014,0.063,0.012,0.127,0.063,0.164
		c0.047,0.039,0.115,0.041,0.168,0.012l1.063-0.586l1.059,0.586c0.025,0.014,0.051,0.02,0.078,0.02c0.031,0,0.066-0.012,0.094-0.031
		c0.051-0.037,0.076-0.102,0.063-0.164l-0.199-1.242l0.855-0.875C625.305,7.123,625.318,7.055,625.303,6.992z"/>
</g>
</svg>
