<?xml version="1.0" encoding="utf-8"?>
<!-- Generator: Adobe Illustrator 20.0.0, SVG Export Plug-In . SVG Version: 6.00 Build 0)  -->
<svg version="1.1" id="Isolation_Mode" xmlns="http://www.w3.org/2000/svg" xmlns:xlink="http://www.w3.org/1999/xlink" x="0px"
	 y="0px" viewBox="0 0 52 48.2" style="enable-background:new 0 0 52 48.2;" xml:space="preserve">
<style type="text/css">
	.st0{fill:#9A88C0;}
	.st1{fill:#F98C67;}
</style>
<g>
	<path class="st0" d="M51.6,20L45,15.6V0.9C45,0.4,44.6,0,44.1,0H7.9C7.4,0,7,0.4,7,0.9v14.7L0.4,20h0C0.2,20.1,0,20.4,0,20.7v26.7
		c0,0.5,0.4,0.9,0.9,0.9h50.3c0.5,0,0.9-0.4,0.9-0.9V20.7C52,20.4,51.8,20.1,51.6,20L51.6,20z M7,23l-2.7-1.4H7V23z M1.7,22.1
		l19.8,10.5L1.7,45.8V22.1z M26,31.7l22.3,14.8H3.7L26,31.7z M30.5,32.6l19.8-10.5v23.6L30.5,32.6z M45,21.6h2.7L45,23V21.6z
		 M48.3,19.8H45v-2.2L48.3,19.8z M43.3,1.7v22.2l-14.4,7.6L26.5,30c-0.3-0.2-0.7-0.2-1,0l-2.4,1.6L8.7,23.9V1.7H43.3z M7,19.8H3.7
		L7,17.6V19.8z M7,19.8"/>
	<path class="st1" d="M26,22.6h6.9c0.5,0,0.9-0.4,0.9-0.9c0-0.5-0.4-0.9-0.9-0.9H26c-3.3,0-6-2.7-6-6v-0.3c0-3.3,2.7-6,6-6
		c3.3,0,6,2.7,6,6v0.6c0,0.7-0.6,1.3-1.3,1.3c-0.7,0-1.3-0.6-1.3-1.3v-1.2c0-2.1-1.7-3.7-3.7-3.7c-2.1,0-3.7,1.7-3.7,3.7
		c0,2.1,1.7,3.7,3.7,3.7c0.9,0,1.8-0.3,2.5-0.9c0.5,0.9,1.5,1.4,2.6,1.4c1.7,0,3-1.4,3-3v-0.6c0-4.3-3.5-7.7-7.7-7.7
		c-4.3,0-7.7,3.5-7.7,7.7v0.3C18.3,19.2,21.7,22.6,26,22.6L26,22.6z M25.7,16.1c-1.1,0-2-0.9-2-2s0.9-2,2-2c1.1,0,2,0.9,2,2
		S26.8,16.1,25.7,16.1L25.7,16.1z M25.7,16.1"/>
</g>
</svg>
