<?xml version="1.0" encoding="utf-8"?>
<!-- Generator: Adobe Illustrator 15.0.0, SVG Export Plug-In . SVG Version: 6.00 Build 0)  -->
<!DOCTYPE svg PUBLIC "-//W3C//DTD SVG 1.1//EN" "http://www.w3.org/Graphics/SVG/1.1/DTD/svg11.dtd">
<svg version="1.1" id="Layer_1" xmlns="http://www.w3.org/2000/svg" xmlns:xlink="http://www.w3.org/1999/xlink" x="0px" y="0px"
	 width="18px" height="12px" viewBox="0 0 18 12" enable-background="new 0 0 18 12" xml:space="preserve">
<g>
	
		<linearGradient id="SVGID_1_" gradientUnits="userSpaceOnUse" x1="20.7949" y1="353.7705" x2="20.7949" y2="363.2448" gradientTransform="matrix(1 0.0029 -0.0029 1 -10.7555 -352.5671)">
		<stop  offset="0" style="stop-color:#68A5D9"/>
		<stop  offset="0.1131" style="stop-color:#6199D1"/>
		<stop  offset="0.3378" style="stop-color:#507CBE"/>
		<stop  offset="0.6503" style="stop-color:#3554A5"/>
		<stop  offset="0.7079" style="stop-color:#314CA0"/>
		<stop  offset="0.7962" style="stop-color:#314DA1"/>
		<stop  offset="0.8469" style="stop-color:#3452A4"/>
		<stop  offset="0.8881" style="stop-color:#395AA8"/>
		<stop  offset="0.9243" style="stop-color:#4065AF"/>
		<stop  offset="0.957" style="stop-color:#4A73B8"/>
		<stop  offset="0.9869" style="stop-color:#5786C5"/>
		<stop  offset="1" style="stop-color:#5D90CC"/>
	</linearGradient>
	<polygon fill="url(#SVGID_1_)" enable-background="new    " points="16.792,10.838 1.177,10.797 1.208,1.163 16.822,1.205 	"/>
	<defs>
		<filter id="Adobe_OpacityMaskFilter" filterUnits="userSpaceOnUse" x="1.177" y="1.205" width="14.984" height="9.592">
			<feColorMatrix  type="matrix" values="1 0 0 0 0  0 1 0 0 0  0 0 1 0 0  0 0 0 1 0"/>
		</filter>
	</defs>
	<mask maskUnits="userSpaceOnUse" x="1.177" y="1.205" width="14.984" height="9.592" id="SVGID_2_">
		<g filter="url(#Adobe_OpacityMaskFilter)">
			
				<linearGradient id="SVGID_3_" gradientUnits="userSpaceOnUse" x1="13.582" y1="347.6338" x2="28.0331" y2="358.1906" gradientTransform="matrix(1 0.0029 -0.0029 1 -10.7555 -352.5671)">
				<stop  offset="0" style="stop-color:#FFFFFF"/>
				<stop  offset="1" style="stop-color:#000000"/>
			</linearGradient>
			<polygon fill="url(#SVGID_3_)" points="16.313,10.688 -1.073,-0.64 16.35,-0.595 			"/>
		</g>
	</mask>
	
		<linearGradient id="SVGID_4_" gradientUnits="userSpaceOnUse" x1="20.7051" y1="358.7783" x2="13.3868" y2="352.695" gradientTransform="matrix(1 0.0029 -0.0029 1 -10.7555 -352.5671)">
		<stop  offset="0" style="stop-color:#B5D4EF"/>
		<stop  offset="1" style="stop-color:#D4EFFC"/>
	</linearGradient>
	<polygon mask="url(#SVGID_2_)" fill="url(#SVGID_4_)" points="1.299,1.205 16.161,1.343 1.177,10.797 	"/>
	<path fill="#2D54A5" d="M1.031,1L1,10.959L16.968,11L17,1.042L1.031,1z M16.646,1.367c0,0.311-0.029,8.994-0.03,9.305
		c-0.343,0-14.92-0.039-15.261-0.039c0-0.311,0.028-8.996,0.029-9.306C1.725,1.328,16.304,1.367,16.646,1.367z"/>
	<polygon fill="#22336A" points="7.119,6.117 1.414,10.672 7.349,6.364 	"/>
	<polygon fill="#22336A" points="10.968,6.127 16.645,10.713 10.736,6.373 	"/>
	<polygon fill="#2D54A5" points="9.086,6.531 1.88,1.328 1.383,1.327 9.127,7.633 16.646,1.367 16.166,1.366 	"/>
	
		<linearGradient id="SVGID_5_" gradientUnits="userSpaceOnUse" x1="-5.1333" y1="352.9775" x2="-11.4839" y2="347.7139" gradientTransform="matrix(0.9989 -0.0468 0.0468 0.9989 5.4386 -341.7009)">
		<stop  offset="0" style="stop-color:#97C0E6"/>
		<stop  offset="1" style="stop-color:#D4EFFC"/>
	</linearGradient>
	<polygon opacity="0.36" fill="url(#SVGID_5_)" points="10.755,6.345 16.547,10.803 10.527,6.596 	"/>
	
		<linearGradient id="SVGID_6_" gradientUnits="userSpaceOnUse" x1="436.125" y1="375.2021" x2="429.7685" y2="369.9336" gradientTransform="matrix(-0.9986 -0.0526 -0.0526 0.9986 456.4789 -340.6486)">
		<stop  offset="0" style="stop-color:#97C0E6"/>
		<stop  offset="1" style="stop-color:#D4EFFC"/>
	</linearGradient>
	<polygon opacity="0.36" fill="url(#SVGID_6_)" points="7.338,6.335 1.516,10.764 7.563,6.587 	"/>
	<polygon fill="#22336A" points="1.619,1.355 9.128,7.061 16.44,1.367 9.086,6.558 	"/>
	<polygon opacity="0.74" fill="#FFFFFF" points="2,1.329 9.178,6.177 16.161,1.343 9.138,5.75 	"/>
</g>
<g>
	
		<linearGradient id="SVGID_7_" gradientUnits="userSpaceOnUse" x1="20.875" y1="353.2979" x2="20.875" y2="363.7169" gradientTransform="matrix(1 0.0029 -0.0029 1 -10.7555 -352.5671)">
		<stop  offset="0" style="stop-color:#D1D3D4"/>
		<stop  offset="0.3559" style="stop-color:#DFE0E2"/>
		<stop  offset="0.7079" style="stop-color:#F1F2F2"/>
		<stop  offset="0.804" style="stop-color:#EFF0F0"/>
		<stop  offset="0.8593" style="stop-color:#E8E9EA"/>
		<stop  offset="0.9042" style="stop-color:#DCDEDF"/>
		<stop  offset="0.9435" style="stop-color:#CCCECF"/>
		<stop  offset="0.9788" style="stop-color:#B7B9BB"/>
		<stop  offset="1" style="stop-color:#A7A9AC"/>
	</linearGradient>
	<polygon fill="url(#SVGID_7_)" enable-background="new    " points="17.36,11.321 0.769,11.276 0.802,0.679 17.393,0.726 	"/>
	<defs>
		<filter id="Adobe_OpacityMaskFilter_1_" filterUnits="userSpaceOnUse" x="0.769" y="0.726" width="15.92" height="10.551">
			<feColorMatrix  type="matrix" values="1 0 0 0 0  0 1 0 0 0  0 0 1 0 0  0 0 0 1 0"/>
		</filter>
	</defs>
	<mask maskUnits="userSpaceOnUse" x="0.769" y="0.726" width="15.92" height="10.551" id="SVGID_8_">
		<g filter="url(#Adobe_OpacityMaskFilter_1_)">
			
				<linearGradient id="SVGID_9_" gradientUnits="userSpaceOnUse" x1="13.208" y1="346.7031" x2="28.7381" y2="358.0482" gradientTransform="matrix(1 0.0029 -0.0029 1 -10.7555 -352.5671)">
				<stop  offset="0" style="stop-color:#FFFFFF"/>
				<stop  offset="1" style="stop-color:#000000"/>
			</linearGradient>
			<polygon fill="url(#SVGID_9_)" points="16.852,11.156 -1.622,-1.304 16.89,-1.254 			"/>
		</g>
	</mask>
	
		<linearGradient id="SVGID_10_" gradientUnits="userSpaceOnUse" x1="20.6934" y1="358.7246" x2="12.9154" y2="352.2592" gradientTransform="matrix(1 0.0029 -0.0029 1 -10.7555 -352.5671)">
		<stop  offset="0" style="stop-color:#B5D4EF"/>
		<stop  offset="1" style="stop-color:#D4EFFC"/>
	</linearGradient>
	<polygon mask="url(#SVGID_8_)" fill="url(#SVGID_10_)" points="0.898,0.726 16.689,0.877 0.769,11.276 	"/>
	<path fill="#A9ADB5" d="M0.614,0.5L0.581,11.455L17.547,11.5l0.034-10.953L0.614,0.5z M17.204,0.904
		c0,0.342-0.031,9.894-0.032,10.235c-0.364,0-15.853-0.043-16.215-0.043c0-0.341,0.03-9.895,0.031-10.236
		C1.351,0.86,16.841,0.903,17.204,0.904z"/>
	<polygon fill="#A1A5B1" points="7.083,6.128 1.021,11.139 7.327,6.4 	"/>
	<polygon fill="#A1A5B1" points="11.172,6.14 17.203,11.185 10.926,6.41 	"/>
	<polygon fill="#C0C3C9" points="9.173,6.584 1.517,0.861 0.988,0.86 9.216,7.796 17.204,0.904 16.695,0.903 	"/>
	
		<linearGradient id="SVGID_11_" gradientUnits="userSpaceOnUse" x1="-4.5005" y1="353.4082" x2="-11.3302" y2="347.7475" gradientTransform="matrix(0.9989 -0.0468 0.0468 0.9989 5.4386 -341.7009)">
		<stop  offset="0" style="stop-color:#97C0E6"/>
		<stop  offset="1" style="stop-color:#D4EFFC"/>
	</linearGradient>
	<polygon opacity="0.36" fill="url(#SVGID_11_)" points="10.945,6.379 17.1,11.283 10.704,6.655 	"/>
	
		<linearGradient id="SVGID_12_" gradientUnits="userSpaceOnUse" x1="436.5898" y1="375.624" x2="429.755" y2="369.9591" gradientTransform="matrix(-0.9986 -0.0526 -0.0526 0.9986 456.4789 -340.6486)">
		<stop  offset="0" style="stop-color:#97C0E6"/>
		<stop  offset="1" style="stop-color:#D4EFFC"/>
	</linearGradient>
	<polygon opacity="0.36" fill="url(#SVGID_12_)" points="7.315,6.369 1.129,11.24 7.555,6.646 	"/>
	<polygon fill="#B6BFD8" points="1.238,0.891 9.217,7.167 16.986,0.903 9.173,6.614 	"/>
	<polygon opacity="0.74" fill="#FFFFFF" points="1.644,0.861 9.271,6.195 16.689,0.877 9.228,5.725 	"/>
</g>
</svg>
