<?xml version="1.0" encoding="utf-8"?>
<!-- Generator: Adobe Illustrator 15.0.0, SVG Export Plug-In . SVG Version: 6.00 Build 0)  -->
<!DOCTYPE svg PUBLIC "-//W3C//DTD SVG 1.1//EN" "http://www.w3.org/Graphics/SVG/1.1/DTD/svg11.dtd">
<svg version="1.1" id="Layer_1" xmlns="http://www.w3.org/2000/svg" xmlns:xlink="http://www.w3.org/1999/xlink" x="0px" y="0px"
	 width="90px" height="30px" viewBox="0 0 90 30" enable-background="new 0 0 90 30" xml:space="preserve">
<rect display="none" fill="#E7DCE2" width="30" height="30"/>
<circle fill="#955495" cx="15" cy="15" r="14"/>
<g>
	<path fill="#FFFFFF" d="M8.723,10.178c0.591-0.551,1.236-1.031,1.928-1.455c1.801,0.777,3.364,1.98,4.693,3.441
		c1.987-1.443,4.051-3.324,6.657-3.135c-2.058,1.143-4.008,2.475-5.684,4.166c1.586,2.168,3.315,4.423,3.697,7.189
		c-1.682-1.973-2.744-4.595-5.046-5.938c-0.781,1.148-1.664,2.217-2.387,3.409c-0.466,1.137-0.453,2.455-1.294,3.42
		c-0.919-0.25-1.743-0.867-1.759-1.936c0.297-2.651,2.576-4.337,4.341-6.036C12.182,12.213,10.447,11.203,8.723,10.178z"/>
</g>
<rect x="30" display="none" fill="#E7DCE2" width="30" height="30"/>
<g>
	<circle opacity="0.69" fill="#255B2D" cx="45" cy="15" r="14"/>
	<g>
		<path fill="#FFFFFF" d="M47.565,11.115c1.304-1.311,2.715-2.514,4.272-3.464c0.056,0.077,0.109,0.155,0.163,0.233
			c-0.179,0.18-0.359,0.357-0.538,0.535c-1.991,1.998-3.76,4.25-5.255,6.693c-1.024,1.662-1.921,3.412-2.741,5.196h-0.148
			c-1.346-1.67-2.689-3.336-4.034-5.005c0.056-0.076,0.114-0.15,0.173-0.225c1.098,0.661,2.194,1.327,3.292,1.988
			C44.183,14.937,45.775,12.918,47.565,11.115z"/>
	</g>
</g>
<rect x="60" display="none" fill="#E7DCE2" width="30" height="30"/>
<g>
	<circle fill="#F5B54D" cx="75" cy="15" r="14"/>
	<g>
		<path fill="#FFFFFF" d="M75.566,22.425c-0.307,0.105-0.635,0.079-0.952,0.053l-0.038-0.029c-0.665-0.136-1.229-0.672-1.459-1.328
			c-0.131-0.354-0.135-0.743-0.086-1.115c0.373-2.353,0.809-4.692,1.233-7.034c0.087-0.342,0.048-0.777,0.36-1.006
			c0.34-0.281,0.903-0.063,0.997,0.375c0.158,0.861,0.328,1.723,0.464,2.59l0.025,0.035c0.212,1.345,0.492,2.678,0.687,4.026
			l0.027,0.038c0.065,0.65,0.284,1.312,0.113,1.964C76.757,21.671,76.224,22.238,75.566,22.425z"/>
		<path fill="#FFFFFF" d="M75.235,10.561c-0.362,0.053-0.745-0.021-1.053-0.232c-0.444-0.281-0.708-0.827-0.69-1.362
			c0.027-0.471,0.263-0.93,0.643-1.193c0.537-0.402,1.345-0.355,1.832,0.112c0.427,0.385,0.613,1.034,0.438,1.594
			C76.247,10.031,75.776,10.449,75.235,10.561z"/>
	</g>
</g>
</svg>
