<svg id="Isolation_Mode" data-name="Isolation Mode" xmlns="http://www.w3.org/2000/svg" viewBox="0 0 28.91 48"><defs><style>.cls-1{fill:#9a88c0;}.cls-2{fill:#f98c67;}</style></defs><title>phone</title><path class="cls-1" d="M28.91,44.26V3.73A3.73,3.73,0,0,0,25.18,0H3.73A3.73,3.73,0,0,0,0,3.73V44.27A3.73,3.73,0,0,0,3.73,48H25.18a3.75,3.75,0,0,0,3.73-3.74ZM2.4,8.64H26.5V35.92H2.4ZM3.73,2.4H25.18A1.32,1.32,0,0,1,26.5,3.73V6.24H2.4V3.73A1.32,1.32,0,0,1,3.73,2.4ZM2.4,44.26v-6H26.5v6a1.33,1.33,0,0,1-1.32,1.32H3.73A1.32,1.32,0,0,1,2.4,44.26Zm0,0"/><path class="cls-2" d="M16.89,40.85H12a1.21,1.21,0,0,0,0,2.41h4.87a1.21,1.21,0,0,0,0-2.41Zm0,0"/></svg>