<svg id="Isolation_Mode" data-name="Isolation Mode" xmlns="http://www.w3.org/2000/svg" viewBox="0 0 52 52"><defs><style>.cls-1{fill:#f98c67;}.cls-2{fill:#9a88c0;}.cls-3{fill-rule:evenodd;}</style></defs><title>question</title><path class="cls-1" d="M25.87,17.72c1.94,0,3.11,1,3.11,2.78,0,3.17-5.66,4-5.66,7.89a2.06,2.06,0,0,0,2.07,2.16c2.13,0,1.88-1.58,2.65-2.71,1-1.52,5.85-3.14,5.85-7.34,0-4.56-4.07-6.46-8.21-6.46-3.94,0-7.56,2.81-7.56,6a1.93,1.93,0,0,0,2.1,2c3.13,0,1.51-4.27,5.65-4.27Zm0,0"/><path class="cls-1" d="M28.16,35.31A2.65,2.65,0,1,0,25.51,38a2.66,2.66,0,0,0,2.65-2.65Zm0,0"/><path class="cls-2" d="M26,0A26,26,0,0,0,7.62,44.38a26,26,0,0,0,36.77,0A26,26,0,0,0,26,0ZM43.23,43.23A24.37,24.37,0,0,1,8.76,8.76,24.37,24.37,0,1,1,43.23,43.23Zm0,0"/><path class="cls-3" d="M20.42,15.45l-.4.44.4-.44Zm0,0"/></svg>