<?xml version="1.0" encoding="utf-8"?>
<!-- Generator: Adobe Illustrator 15.0.0, SVG Export Plug-In . SVG Version: 6.00 Build 0)  -->
<!DOCTYPE svg PUBLIC "-//W3C//DTD SVG 1.1//EN" "http://www.w3.org/Graphics/SVG/1.1/DTD/svg11.dtd">
<svg version="1.1" id="Layer_1" xmlns="http://www.w3.org/2000/svg" xmlns:xlink="http://www.w3.org/1999/xlink" x="0px" y="0px"
	 width="26px" height="52px" viewBox="0 0 26 52" enable-background="new 0 0 26 52" xml:space="preserve">
<g>
	<path fill="#A3A3A2" d="M13.075,4.3c4.756,0,8.625,3.869,8.625,8.625s-3.869,8.625-8.625,8.625S4.45,17.681,4.45,12.925
		S8.319,4.3,13.075,4.3 M13.075,0.3C6.103,0.3,0.45,5.953,0.45,12.925S6.103,25.55,13.075,25.55c6.973,0,12.625-5.653,12.625-12.625
		S20.048,0.3,13.075,0.3L13.075,0.3z"/>
</g>
<g>
	<path fill="#A3A3A2" d="M13.075,30.3c4.756,0,8.625,3.869,8.625,8.625s-3.869,8.625-8.625,8.625S4.45,43.681,4.45,38.925
		S8.319,30.3,13.075,30.3 M13.075,26.3C6.103,26.3,0.45,31.952,0.45,38.925S6.103,51.55,13.075,51.55
		c6.973,0,12.625-5.652,12.625-12.625S20.048,26.3,13.075,26.3L13.075,26.3z"/>
</g>
<circle fill="#A3A3A2" cx="13.2" cy="38.925" r="4"/>
</svg>
