<?xml version="1.0" encoding="utf-8"?>
<!-- Generator: Adobe Illustrator 16.0.2, SVG Export Plug-In . SVG Version: 6.00 Build 0)  -->
<!DOCTYPE svg PUBLIC "-//W3C//DTD SVG 1.1//EN" "http://www.w3.org/Graphics/SVG/1.1/DTD/svg11.dtd">
<svg version="1.1" id="Layer_1" xmlns="http://www.w3.org/2000/svg" xmlns:xlink="http://www.w3.org/1999/xlink" x="0px" y="0px"
	 width="43px" height="35.588px" viewBox="0 0 43 35.588" enable-background="new 0 0 43 35.588" xml:space="preserve">
<path fill="#9A88C0" d="M33.776,25.738c-0.026-0.006-0.052-0.013-0.077-0.016l-5.252-0.788c-0.849-0.549-0.93-1.912-0.931-3.388
	c1.658-1.709,2.692-4.116,2.692-6.778v-0.215c1.287-1.143,2.02-2.764,2.02-4.497v-4.04C32.229,2.699,29.53,0,26.212,0H17.46
	c-1.255,0-2.311,0.879-2.583,2.053c-2.31,0.28-4.107,2.252-4.107,4.637v3.366c0,1.732,0.732,3.354,2.02,4.497v0.215
	c0,2.662,1.035,5.069,2.693,6.778c-0.001,1.476-0.082,2.838-0.931,3.388l-5.251,0.788c-0.026,0.003-0.052,0.01-0.077,0.016
	c-1.155,0.324-2.138,1.04-2.842,2.071C5.74,28.75,5.386,29.887,5.386,31.01v2.608c0,1.087,0.97,1.97,2.162,1.97h27.905
	c1.192,0,2.161-0.883,2.161-1.97V31.01c0-1.123-0.354-2.26-0.996-3.201C35.913,26.778,34.931,26.062,33.776,25.738L33.776,25.738z
	 M21.5,24.151c1.763,0,3.403-0.567,4.776-1.54c0.061,1.152,0.299,2.43,1.236,3.2c-0.507,2.58-3.024,4.484-6.012,4.484
	c-2.987,0-5.504-1.904-6.011-4.484c0.937-0.77,1.175-2.048,1.236-3.2C18.097,23.584,19.738,24.151,21.5,24.151L21.5,24.151z
	 M14.053,14.322c0.003-0.039,0.003-0.077,0-0.115v-3.478c0-1.136,0.925-2.062,2.062-2.062h11.444c0.349,0,0.631-0.282,0.631-0.631
	s-0.282-0.631-0.631-0.631H16.114c-1.833,0-3.324,1.491-3.324,3.324v1.902c-0.49-0.758-0.757-1.646-0.757-2.576V6.69
	c0-1.879,1.529-3.408,3.408-3.408c0.349,0,0.631-0.283,0.631-0.631c0-0.766,0.623-1.389,1.388-1.389h8.751
	c2.622,0,4.754,2.133,4.754,4.754v4.039c0,0.93-0.267,1.818-0.757,2.576v-2.576c0-0.348-0.282-0.631-0.63-0.631
	c-0.35,0-0.632,0.283-0.632,0.631v4.712c0,4.478-3.341,8.12-7.448,8.12s-7.447-3.642-7.447-8.12V14.322z M36.353,33.619
	c0,0.384-0.412,0.709-0.899,0.709H7.547c-0.487,0-0.9-0.325-0.9-0.709V31.01c0-1.599,0.989-3.496,2.881-4.046l4.761-0.715
	c0.707,3.066,3.69,5.307,7.209,5.307c3.52,0,6.504-2.241,7.21-5.307l4.761,0.715c1.893,0.551,2.882,2.447,2.882,4.046V33.619z
	 M36.353,33.619"/>
<path fill="#F98C67" d="M3.997,28.274H1.622c-0.206,0-0.36-0.125-0.36-0.236v-1.688c0-0.947,0.58-2.069,1.689-2.4l3.436-0.515
	c0.015-0.002,0.029-0.005,0.043-0.009c0.007-0.002,0.013-0.002,0.019-0.004c0.023-0.006,0.046-0.013,0.069-0.022
	c0.005-0.002,0.01-0.004,0.016-0.007c0.018-0.007,0.036-0.016,0.053-0.025c0.003-0.001,0.006-0.002,0.009-0.004
	c0.005-0.003,0.01-0.006,0.016-0.01c0.005-0.002,0.01-0.005,0.014-0.008c0.765-0.437,1.029-1.227,1.121-1.999
	c0.838,0.498,1.8,0.782,2.823,0.782c0.858,0,1.686-0.196,2.459-0.58c0.312-0.155,0.439-0.534,0.284-0.846
	c-0.155-0.313-0.534-0.439-0.846-0.285c-0.597,0.297-1.236,0.448-1.897,0.448c-2.535,0-4.596-2.257-4.596-5.031v-2.692
	c0-0.613,0.498-1.112,1.111-1.112h1.624c0.348,0,0.631-0.282,0.631-0.631s-0.283-0.631-0.631-0.631H7.086
	c-1.309,0-2.374,1.065-2.374,2.374v0.331c-0.055-0.222-0.084-0.453-0.084-0.688V10.61c0-1.093,0.889-1.982,1.982-1.982
	c0.349,0,0.631-0.283,0.631-0.631c0-0.373,0.303-0.676,0.675-0.676h0.793c0.348,0,0.631-0.283,0.631-0.631
	c0-0.349-0.283-0.631-0.631-0.631H7.917c-0.864,0-1.598,0.569-1.847,1.352c-1.532,0.258-2.704,1.595-2.704,3.2v2.178
	c0,1.169,0.488,2.264,1.347,3.043v0.005c0,1.79,0.7,3.406,1.82,4.553c-0.007,0.803-0.068,1.522-0.465,1.817l-3.344,0.502
	c-0.026,0.004-0.052,0.009-0.077,0.016C0.909,23.212,0,24.917,0,26.351v1.688c0,0.827,0.727,1.499,1.622,1.499h2.375
	c0.348,0,0.631-0.283,0.631-0.632C4.628,28.557,4.345,28.274,3.997,28.274L3.997,28.274z M3.997,28.274"/>
<path fill="#F98C67" d="M40.354,22.725c-0.024-0.007-0.051-0.012-0.076-0.016l-3.346-0.502c-0.396-0.295-0.457-1.015-0.465-1.817
	c1.121-1.147,1.82-2.763,1.82-4.553v-0.005c0.859-0.78,1.347-1.875,1.347-3.045V9.383c0-1.833-1.49-3.324-3.323-3.324h-2.02
	c-0.349,0-0.631,0.283-0.631,0.631s0.282,0.631,0.631,0.631h2.02c1.137,0,2.062,0.925,2.062,2.062v3.405
	c0,0.234-0.03,0.465-0.085,0.687v-0.331c0-1.309-1.064-2.374-2.372-2.374h-1.624c-0.349,0-0.631,0.283-0.631,0.631
	s0.282,0.631,0.631,0.631h1.624c0.611,0,1.11,0.499,1.11,1.111v2.692c0,2.774-2.062,5.032-4.596,5.032
	c-0.661,0-1.301-0.151-1.896-0.448c-0.313-0.155-0.691-0.028-0.847,0.284s-0.028,0.691,0.284,0.846
	c0.773,0.384,1.601,0.58,2.459,0.58c1.023,0,1.984-0.284,2.822-0.782c0.092,0.772,0.355,1.562,1.121,1.999
	c0.004,0.003,0.009,0.005,0.014,0.008c0.006,0.003,0.011,0.007,0.017,0.01c0.002,0.002,0.006,0.003,0.009,0.004
	c0.017,0.01,0.035,0.018,0.054,0.025c0.005,0.002,0.01,0.005,0.016,0.007c0.022,0.008,0.045,0.016,0.068,0.021
	c0.007,0.002,0.013,0.002,0.019,0.004c0.015,0.003,0.029,0.007,0.044,0.009l3.436,0.515c1.109,0.331,1.69,1.453,1.69,2.4v1.688
	c0,0.111-0.154,0.236-0.359,0.236h-2.376c-0.349,0-0.631,0.283-0.631,0.631c0,0.349,0.282,0.632,0.631,0.632h2.376
	c0.894,0,1.621-0.672,1.621-1.499v-1.688C43,24.917,42.091,23.212,40.354,22.725L40.354,22.725z M40.354,22.725"/>
</svg>
