<?xml version="1.0" encoding="utf-8"?>
<!-- Generator: Adobe Illustrator 16.0.2, SVG Export Plug-In . SVG Version: 6.00 Build 0)  -->
<!DOCTYPE svg PUBLIC "-//W3C//DTD SVG 1.1//EN" "http://www.w3.org/Graphics/SVG/1.1/DTD/svg11.dtd">
<svg version="1.1" id="Layer_1" xmlns="http://www.w3.org/2000/svg" xmlns:xlink="http://www.w3.org/1999/xlink" x="0px" y="0px"
	 width="48px" height="48px" viewBox="0 0 48 48" enable-background="new 0 0 48 48" xml:space="preserve">
<path fill="#9A88C0" d="M30.764,40.579h-6.059v-12.07c0-0.39-0.316-0.704-0.705-0.704s-0.705,0.314-0.705,0.704v12.07h-6.059
	c-1.217,0-2.207,0.99-2.207,2.208v3.006c0,1.217,0.99,2.207,2.207,2.207h13.527c1.217,0,2.207-0.99,2.207-2.207v-3.006
	C32.971,41.569,31.98,40.579,30.764,40.579L30.764,40.579z M31.562,45.793c0,0.44-0.357,0.798-0.798,0.798H17.236
	c-0.439,0-0.798-0.357-0.798-0.798v-3.006c0-0.441,0.358-0.799,0.798-0.799h13.527c0.44,0,0.798,0.357,0.798,0.799V45.793z
	 M31.562,45.793"/>
<path fill="#F98C67" d="M20.242,43.585H18.74c-0.391,0-0.705,0.315-0.705,0.704s0.314,0.705,0.705,0.705h1.502
	c0.39,0,0.704-0.316,0.704-0.705S20.632,43.585,20.242,43.585L20.242,43.585z M20.242,43.585"/>
<path fill="#F98C67" d="M29.26,43.585h-6.012c-0.389,0-0.704,0.315-0.704,0.704s0.315,0.705,0.704,0.705h6.012
	c0.389,0,0.705-0.316,0.705-0.705S29.648,43.585,29.26,43.585L29.26,43.585z M29.26,43.585"/>
<path fill="#9A88C0" d="M45.793,33.064h-8.267c-0.352,0-0.686,0.084-0.979,0.23l-5.285-5.284c-0.275-0.275-0.721-0.275-0.996,0
	s-0.275,0.721,0,0.996l5.285,5.284c-0.148,0.295-0.232,0.629-0.232,0.98v3.006c0,1.218,0.99,2.208,2.208,2.208h8.267
	c1.217,0,2.207-0.99,2.207-2.208v-3.006C48,34.055,47.01,33.064,45.793,33.064L45.793,33.064z M46.591,38.277
	c0,0.441-0.357,0.799-0.798,0.799h-8.267c-0.439,0-0.798-0.357-0.798-0.799v-3.006c0-0.44,0.358-0.798,0.798-0.798h8.267
	c0.44,0,0.798,0.357,0.798,0.798V38.277z M46.591,38.277"/>
<path fill="#F98C67" d="M39.781,36.07h-0.752c-0.39,0-0.705,0.314-0.705,0.705c0,0.388,0.315,0.704,0.705,0.704h0.752
	c0.389,0,0.704-0.316,0.704-0.704C40.485,36.385,40.17,36.07,39.781,36.07L39.781,36.07z M39.781,36.07"/>
<path fill="#F98C67" d="M44.289,36.07h-1.502c-0.391,0-0.705,0.314-0.705,0.705c0,0.388,0.314,0.704,0.705,0.704h1.502
	c0.389,0,0.705-0.316,0.705-0.704C44.994,36.385,44.678,36.07,44.289,36.07L44.289,36.07z M44.289,36.07"/>
<path fill="#F98C67" d="M8.971,36.07H8.219c-0.389,0-0.704,0.314-0.704,0.705c0,0.388,0.315,0.704,0.704,0.704h0.752
	c0.389,0,0.704-0.316,0.704-0.704C9.675,36.385,9.359,36.07,8.971,36.07L8.971,36.07z M8.971,36.07"/>
<path fill="#F98C67" d="M5.213,36.07H3.711c-0.391,0-0.705,0.314-0.705,0.705c0,0.388,0.314,0.704,0.705,0.704h1.502
	c0.39,0,0.704-0.316,0.704-0.704C5.917,36.385,5.603,36.07,5.213,36.07L5.213,36.07z M5.213,36.07"/>
<path fill="#9A88C0" d="M17.734,29.007c0.275-0.275,0.275-0.721,0-0.996s-0.721-0.275-0.996,0l-5.284,5.284
	c-0.296-0.146-0.628-0.23-0.98-0.23H2.207C0.99,33.064,0,34.055,0,35.271v3.006c0,1.218,0.99,2.208,2.207,2.208h8.267
	c1.218,0,2.208-0.99,2.208-2.208v-3.006c0-0.352-0.084-0.686-0.231-0.98L17.734,29.007z M11.271,38.277
	c0,0.441-0.357,0.799-0.798,0.799H2.207c-0.439,0-0.798-0.357-0.798-0.799v-3.006c0-0.44,0.358-0.798,0.798-0.798h8.267
	c0.44,0,0.798,0.357,0.798,0.798V38.277z M11.271,38.277"/>
<path fill="#9A88C0" d="M14.23,26.207H33.77c1.217,0,2.207-0.99,2.207-2.207v-1.591c0-1.6-1.02-3.015-2.537-3.52l-4.708-1.57
	c-0.089-0.029-0.182-0.04-0.27-0.034v-1.352c0.972-1.092,1.503-2.48,1.503-3.957v-1.666c0.873-0.295,1.503-1.12,1.503-2.091V4.462
	c0-2.46-2.001-4.462-4.462-4.462h-6.012C20,0,19.157,0.661,18.882,1.566c-1.341,0.282-2.35,1.473-2.35,2.896v3.757
	c0,0.971,0.631,1.796,1.503,2.091v1.445c0,1.552,0.569,2.987,1.503,4.083v1.446c-0.089-0.006-0.181,0.005-0.27,0.034l-4.708,1.57
	c-1.518,0.505-2.537,1.92-2.537,3.52V24C12.023,25.217,13.014,26.207,14.23,26.207L14.23,26.207z M20.242,18.693
	c0.39,0,0.704-0.316,0.704-0.705v-0.932c0.847,0.53,1.826,0.851,2.87,0.882c0.063,0.002,0.124,0.003,0.186,0.003
	c1.091,0,2.137-0.292,3.051-0.839v0.886c0,0.389,0.314,0.705,0.705,0.705c0.01,0,0.019-0.001,0.029-0.001
	c-0.184,1.737-1.813,3.101-3.787,3.101c-1.976,0-3.603-1.364-3.787-3.101C20.223,18.691,20.232,18.693,20.242,18.693L20.242,18.693z
	 M17.941,8.219V4.462c0-0.854,0.695-1.55,1.55-1.55c0.389,0,0.704-0.315,0.704-0.705c0-0.44,0.358-0.798,0.799-0.798h6.012
	c1.684,0,3.053,1.37,3.053,3.053v3.757c0,0.135-0.033,0.263-0.094,0.375V7.468c0-1.217-0.99-2.208-2.207-2.208h-7.516
	c-1.217,0-2.207,0.99-2.207,2.208v1.126C17.975,8.482,17.941,8.354,17.941,8.219L17.941,8.219z M19.444,7.468
	c0-0.44,0.358-0.798,0.798-0.798h7.516c0.439,0,0.798,0.358,0.798,0.798v4.509c0,1.243-0.491,2.404-1.383,3.27
	s-2.069,1.321-3.313,1.284c-2.435-0.073-4.415-2.215-4.415-4.774V7.468z M13.432,22.409c0-0.992,0.633-1.87,1.574-2.184l3.82-1.273
	c0.314,2.391,2.514,4.25,5.174,4.25s4.859-1.859,5.174-4.25l3.82,1.273c0.94,0.313,1.573,1.191,1.573,2.184V24
	c0,0.439-0.358,0.799-0.798,0.799H14.23c-0.439,0-0.799-0.359-0.799-0.799V22.409z M13.432,22.409"/>
</svg>
