<?xml version="1.0" encoding="utf-8"?>
<!-- Generator: Adobe Illustrator 16.0.2, SVG Export Plug-In . SVG Version: 6.00 Build 0)  -->
<!DOCTYPE svg PUBLIC "-//W3C//DTD SVG 1.1//EN" "http://www.w3.org/Graphics/SVG/1.1/DTD/svg11.dtd">
<svg version="1.1" id="Layer_1" xmlns="http://www.w3.org/2000/svg" xmlns:xlink="http://www.w3.org/1999/xlink" x="0px" y="0px"
	 width="24.076px" height="24.179px" viewBox="0 0 24.076 24.179" enable-background="new 0 0 24.076 24.179" xml:space="preserve">
<g>
	<g>
		<defs>
			<rect id="SVGID_1_" x="0.135" y="0.179" width="23.941" height="24"/>
		</defs>
		<clipPath id="SVGID_2_">
			<use xlink:href="#SVGID_1_"  overflow="visible"/>
		</clipPath>
		<path clip-path="url(#SVGID_2_)" d="M0.135,10.153c0,5.492,4.468,9.955,9.955,9.955c2.528,0,4.84-0.95,6.599-2.508l6.345,6.344
			c0.117,0.118,0.269,0.177,0.426,0.177c0.156,0,0.309-0.059,0.426-0.177c0.235-0.234,0.235-0.612,0-0.848l-6.349-6.344
			c1.558-1.759,2.508-4.066,2.508-6.599c0-5.492-4.468-9.955-9.955-9.955S0.135,4.661,0.135,10.153L0.135,10.153z M18.844,10.153
			c0,4.826-3.929,8.754-8.754,8.754c-4.825,0-8.754-3.929-8.754-8.754c0-4.825,3.929-8.754,8.754-8.754
			C14.915,1.399,18.844,5.323,18.844,10.153L18.844,10.153z M18.844,10.153"/>
	</g>
</g>
</svg>
