<?xml version="1.0" encoding="utf-8"?>
<!-- Generator: Adobe Illustrator 15.0.0, SVG Export Plug-In . SVG Version: 6.00 Build 0)  -->
<!DOCTYPE svg PUBLIC "-//W3C//DTD SVG 1.1//EN" "http://www.w3.org/Graphics/SVG/1.1/DTD/svg11.dtd">
<svg version="1.1" id="Layer_1" xmlns="http://www.w3.org/2000/svg" xmlns:xlink="http://www.w3.org/1999/xlink" x="0px" y="0px"
	 width="20px" height="20px" viewBox="0 0 20 20" enable-background="new 0 0 20 20" xml:space="preserve">
<g>
	<path fill="#8B4F9F" d="M12.77,17.884c0,0.895,0.684,1.616,1.53,1.616c0.843,0,1.526-0.722,1.526-1.616
		c0-0.891-0.684-1.612-1.526-1.612C13.453,16.271,12.77,16.993,12.77,17.884L12.77,17.884z M12.77,17.884"/>
	<g>
		<path fill="#8B4F9F" d="M7.788,17.884c0,0.895,0.683,1.616,1.523,1.616c0.846,0,1.527-0.722,1.527-1.616
			c0-0.891-0.681-1.612-1.527-1.612C8.471,16.271,7.788,16.993,7.788,17.884L7.788,17.884z M7.788,17.884"/>
		<path fill="#8B4F9F" d="M0.564,1.075c0.178-0.47,0.687-0.699,1.137-0.507l3.193,1.364c0.075,0.031,0.137,0.077,0.197,0.124
			c0.228,0.12,0.406,0.338,0.462,0.621l0.456,2.432c0.068-0.007,0.131-0.02,0.193-0.02h11.65c0.909,0,1.648,0.825,1.648,1.842v0.192
			l-2.126,6.594c-0.273,0.989-0.861,1.621-1.7,1.621H7.522c-0.787,0-1.446-0.621-1.607-1.445c-0.025-0.061-0.05-0.128-0.069-0.196
			L3.654,3.392L1.045,2.274C0.599,2.086,0.383,1.548,0.564,1.075L0.564,1.075z M6.895,9.795l0.73,3.644V13.5h7.816l0.135-0.193
			l2.102-6.376H6.358L6.895,9.795z M6.895,9.795"/>
	</g>
</g>
</svg>
