<svg id="Isolation_Mode" data-name="Isolation Mode" xmlns="http://www.w3.org/2000/svg" viewBox="0 0 48 48"><defs><style>.cls-1{fill:#f98c67;}.cls-2{fill:#9a88c0;}</style></defs><title>social</title><path class="cls-1" d="M45,31.31a21.68,21.68,0,0,0,.56-4.83A21.39,21.39,0,0,0,35.27,8.15a.83.83,0,1,0-.87,1.41,19.79,19.79,0,0,1,9,21.19,5.72,5.72,0,0,0-1.18-.12,5.79,5.79,0,1,0,2.75.69Zm-2.75,9.24a4.14,4.14,0,1,1,4.14-4.14,4.14,4.14,0,0,1-4.14,4.14Zm0,0"/><path class="cls-1" d="M31.59,44.84A19.83,19.83,0,0,1,9.92,40.48a5.77,5.77,0,1,0-1.33,1,21.51,21.51,0,0,0,23.63,4.89.83.83,0,0,0-.63-1.53ZM1.66,36.41a4.14,4.14,0,1,1,4.14,4.14,4.14,4.14,0,0,1-4.14-4.14Zm0,0"/><path class="cls-2" d="M3.31,25.83h.06a.83.83,0,0,0,.82-.77A19.77,19.77,0,0,1,18.45,7.42a5.78,5.78,0,1,0-.24-1.65A21.42,21.42,0,0,0,2.54,24.95a.82.82,0,0,0,.77.88ZM24,1.66A4.14,4.14,0,1,1,19.86,5.8,4.14,4.14,0,0,1,24,1.66Zm0,0"/></svg>