<svg style="position: absolute; width: 0; height: 0; overflow: hidden;" version="1.1" xmlns="http://www.w3.org/2000/svg" xmlns:xlink="http://www.w3.org/1999/xlink">
<defs>
<symbol id="icon-circle" viewBox="0 0 32 32">
<title>circle</title>
<path class="path1" d="M16.050 29.5c-0.15 0-0.25 0-0.4 0s-0.25-0.1-0.25-0.25c0-0.15 0.1-0.25 0.25-0.25s0.25 0 0.4 0c0.2 0 0.4 0 0.6 0 0.15 0 0.25 0.1 0.25 0.25s-0.1 0.25-0.25 0.25c-0.2 0-0.4 0-0.6 0zM14.15 29.4c-0.050 0-0.050 0 0 0-0.35-0.050-0.7-0.1-1.050-0.2-0.15-0.050-0.2-0.15-0.2-0.3 0.050-0.15 0.15-0.2 0.3-0.2 0.3 0.050 0.65 0.15 0.95 0.2 0.15 0 0.25 0.15 0.2 0.3 0 0.1-0.1 0.2-0.2 0.2zM18.15 29.35c-0.1 0-0.25-0.1-0.25-0.2 0-0.15 0.050-0.25 0.2-0.3 0.35-0.050 0.65-0.1 0.95-0.2 0.15-0.050 0.25 0.050 0.3 0.2s-0.050 0.25-0.2 0.3c-0.3 0.050-0.6 0.15-1 0.2 0.050 0 0 0 0 0zM11.7 28.8c-0.050 0-0.050 0-0.1 0-0.3-0.1-0.65-0.25-0.95-0.35-0.15-0.050-0.2-0.2-0.15-0.35s0.2-0.2 0.35-0.15c0.3 0.15 0.6 0.25 0.9 0.35 0.15 0.050 0.2 0.2 0.15 0.3 0 0.15-0.1 0.2-0.2 0.2zM20.6 28.7c-0.1 0-0.2-0.050-0.25-0.15-0.050-0.15 0-0.25 0.15-0.3 0.3-0.1 0.6-0.25 0.9-0.4 0.1-0.050 0.25 0 0.35 0.1 0.050 0.15 0 0.25-0.1 0.35-0.3 0.15-0.65 0.25-0.95 0.4-0.050 0-0.1 0-0.1 0zM9.4 27.75c-0.050 0-0.1 0-0.1-0.050-0.3-0.15-0.6-0.35-0.85-0.55-0.1-0.1-0.15-0.25-0.050-0.35s0.25-0.15 0.35-0.050c0.25 0.2 0.55 0.35 0.85 0.55 0.1 0.050 0.15 0.2 0.1 0.35-0.15 0.050-0.25 0.1-0.3 0.1zM22.85 27.6c-0.1 0-0.15-0.050-0.2-0.1-0.050-0.1-0.050-0.25 0.1-0.35 0.3-0.15 0.55-0.35 0.85-0.55 0.1-0.1 0.25-0.050 0.35 0.050s0.050 0.25-0.050 0.35c-0.3 0.2-0.55 0.4-0.85 0.55-0.1 0.050-0.15 0.050-0.2 0.050zM7.35 26.3c-0.050 0-0.1 0-0.15-0.050-0.25-0.2-0.5-0.45-0.75-0.7-0.1-0.1-0.1-0.25 0-0.35s0.25-0.1 0.35 0c0.25 0.25 0.5 0.45 0.7 0.7 0.1 0.1 0.1 0.25 0.050 0.35-0.1 0-0.15 0.050-0.2 0.050zM24.9 26.1c-0.050 0-0.15-0.050-0.2-0.1-0.1-0.1-0.1-0.25 0-0.35 0.25-0.2 0.5-0.45 0.7-0.7 0.1-0.1 0.25-0.1 0.35 0s0.1 0.25 0 0.35c-0.25 0.25-0.5 0.5-0.75 0.7 0 0.1-0.050 0.1-0.1 0.1zM5.6 24.45c-0.050 0-0.15-0.050-0.2-0.1-0.2-0.25-0.4-0.55-0.6-0.85-0.1-0.1-0.050-0.25 0.050-0.35s0.25-0.050 0.35 0.050c0.2 0.25 0.4 0.55 0.6 0.8 0.1 0.1 0.050 0.25-0.050 0.35-0.050 0.1-0.1 0.1-0.15 0.1zM26.6 24.25c-0.050 0-0.1 0-0.15-0.050-0.1-0.1-0.15-0.25-0.050-0.35 0.2-0.25 0.4-0.55 0.55-0.8 0.1-0.1 0.25-0.15 0.35-0.1 0.1 0.1 0.15 0.25 0.1 0.35-0.2 0.3-0.4 0.55-0.6 0.85-0.050 0.050-0.15 0.1-0.2 0.1zM4.2 22.35c-0.1 0-0.2-0.050-0.2-0.15-0.15-0.3-0.3-0.6-0.45-0.95-0.050-0.15 0-0.25 0.15-0.35 0.15-0.050 0.25 0 0.35 0.15 0.15 0.3 0.25 0.6 0.4 0.9 0.050 0.1 0 0.25-0.1 0.35-0.050 0.050-0.1 0.050-0.15 0.050zM27.9 22.1c-0.050 0-0.050 0-0.1-0.050-0.1-0.050-0.15-0.2-0.1-0.35 0.15-0.3 0.3-0.6 0.4-0.9 0.050-0.15 0.2-0.2 0.3-0.15 0.15 0.050 0.2 0.2 0.15 0.3-0.15 0.3-0.25 0.65-0.4 0.95-0.050 0.15-0.15 0.2-0.25 0.2zM3.3 20c-0.1 0-0.2-0.050-0.25-0.2-0.1-0.35-0.2-0.65-0.25-1-0.050-0.15 0.050-0.25 0.2-0.3s0.25 0.050 0.3 0.2c0.050 0.3 0.15 0.65 0.25 0.95 0 0.15-0.050 0.3-0.2 0.35-0.050 0-0.050 0-0.050 0zM28.8 19.75c0 0-0.050 0-0.050 0-0.15-0.050-0.2-0.15-0.2-0.3 0.1-0.3 0.15-0.65 0.2-0.95 0.050-0.15 0.15-0.2 0.3-0.2 0.15 0.050 0.2 0.15 0.2 0.3-0.050 0.35-0.15 0.65-0.25 1 0 0.050-0.1 0.15-0.2 0.15zM2.8 17.55c-0.15 0-0.25-0.1-0.25-0.25-0.050-0.35-0.050-0.65-0.050-1 0-0.15 0.1-0.25 0.25-0.25s0.25 0.1 0.25 0.25c0 0.35 0.050 0.65 0.050 1 0 0.1-0.1 0.2-0.25 0.25 0 0 0 0 0 0zM29.25 17.25c-0.050 0-0.050 0 0 0-0.15 0-0.25-0.15-0.25-0.25 0-0.35 0.050-0.65 0.050-1v-0.050c0-0.15 0.1-0.25 0.25-0.25s0.25 0.1 0.25 0.25v0.050c0 0.35 0 0.7-0.050 1.050-0.050 0.1-0.15 0.2-0.25 0.2zM2.8 15c0 0 0 0 0 0-0.15 0-0.25-0.15-0.25-0.25 0.050-0.35 0.1-0.7 0.15-1 0-0.15 0.15-0.25 0.3-0.2 0.15 0 0.25 0.15 0.2 0.3-0.050 0.3-0.1 0.65-0.15 1 0 0.050-0.15 0.15-0.25 0.15zM29.15 14.7c-0.15 0-0.25-0.1-0.25-0.2-0.050-0.35-0.1-0.65-0.15-1-0.050-0.15 0.050-0.25 0.2-0.3s0.25 0.050 0.3 0.2c0.050 0.35 0.1 0.7 0.15 1 0.050 0.15-0.050 0.25-0.25 0.3 0.050 0 0.050 0 0 0zM3.25 12.55c0 0-0.050 0-0.050 0-0.15-0.050-0.2-0.2-0.2-0.35 0.1-0.35 0.2-0.65 0.3-1 0.050-0.15 0.2-0.2 0.3-0.15 0.15 0.050 0.2 0.2 0.15 0.3-0.1 0.3-0.2 0.65-0.3 0.95 0 0.15-0.1 0.25-0.2 0.25zM28.65 12.2c-0.1 0-0.2-0.050-0.25-0.15-0.1-0.3-0.2-0.65-0.35-0.95-0.050-0.15 0-0.25 0.15-0.35 0.15-0.050 0.25 0 0.35 0.15 0.15 0.3 0.25 0.65 0.35 0.95 0.050 0.15-0.050 0.25-0.15 0.3-0.050 0.050-0.1 0.050-0.1 0.050zM4.2 10.2c-0.050 0-0.1 0-0.1-0.050-0.1-0.050-0.15-0.2-0.1-0.35 0.15-0.3 0.35-0.6 0.5-0.9 0.050-0.1 0.25-0.15 0.35-0.1s0.15 0.25 0.1 0.35c-0.15 0.3-0.35 0.55-0.5 0.85-0.1 0.15-0.15 0.2-0.25 0.2zM27.65 9.9c-0.1 0-0.15-0.050-0.2-0.15-0.15-0.3-0.35-0.55-0.5-0.85-0.050-0.1-0.050-0.25 0.050-0.35 0.1-0.050 0.25-0.050 0.35 0.050 0.2 0.3 0.35 0.6 0.55 0.9 0.050 0.1 0 0.25-0.1 0.35-0.050 0.050-0.1 0.050-0.15 0.050zM5.55 8.050c-0.050 0-0.1 0-0.15-0.050-0.1-0.1-0.15-0.25-0.050-0.35 0.2-0.25 0.45-0.55 0.65-0.8 0.1-0.1 0.25-0.1 0.35 0s0.1 0.25 0 0.35c-0.2 0.25-0.45 0.5-0.65 0.75 0 0.1-0.050 0.1-0.15 0.1zM26.25 7.8c-0.050 0-0.15-0.050-0.2-0.1-0.2-0.25-0.45-0.5-0.65-0.75-0.1-0.1-0.1-0.25 0-0.35s0.25-0.1 0.35 0c0.25 0.25 0.45 0.5 0.7 0.75 0.1 0.1 0.050 0.25-0.050 0.35-0.050 0.1-0.1 0.1-0.15 0.1zM7.3 6.25c-0.050 0-0.15-0.050-0.2-0.1-0.1-0.1-0.1-0.25 0-0.35 0.25-0.2 0.55-0.45 0.8-0.65 0.1-0.1 0.25-0.050 0.35 0.050s0.050 0.25-0.050 0.35c-0.25 0.2-0.5 0.4-0.75 0.6-0.050 0.1-0.1 0.1-0.15 0.1zM24.45 6.050c-0.050 0-0.1 0-0.15-0.050-0.25-0.2-0.5-0.4-0.8-0.6-0.1-0.1-0.15-0.25-0.050-0.35s0.25-0.15 0.35-0.050c0.3 0.2 0.55 0.4 0.8 0.65 0.1 0.1 0.1 0.25 0.050 0.35-0.050 0-0.1 0.050-0.2 0.050zM9.35 4.8c-0.1 0-0.15-0.050-0.2-0.1-0.050-0.1-0.050-0.25 0.1-0.35 0.3-0.15 0.6-0.35 0.9-0.5 0.1-0.050 0.25 0 0.35 0.1 0.050 0.1 0 0.25-0.1 0.35-0.3 0.15-0.6 0.3-0.85 0.45-0.15 0-0.15 0.050-0.2 0.050zM22.35 4.6c-0.050 0-0.1 0-0.1-0.050-0.3-0.15-0.6-0.3-0.9-0.45-0.15-0.050-0.2-0.2-0.1-0.35 0.050-0.15 0.2-0.2 0.35-0.1 0.3 0.2 0.6 0.35 0.9 0.5 0.1 0.050 0.15 0.2 0.1 0.35-0.050 0.050-0.15 0.1-0.25 0.1zM11.65 3.7c-0.1 0-0.2-0.050-0.25-0.15-0.050-0.15 0-0.25 0.15-0.3 0.3-0.1 0.65-0.2 1-0.3 0.15-0.050 0.25 0.050 0.3 0.2s-0.050 0.25-0.2 0.3c-0.3 0.050-0.65 0.15-0.95 0.25 0 0-0.050 0-0.050 0zM20.050 3.6c-0.050 0-0.050 0-0.1 0-0.3-0.1-0.65-0.2-0.95-0.25-0.15-0.050-0.2-0.15-0.2-0.3 0.050-0.15 0.15-0.2 0.3-0.2 0.35 0.1 0.65 0.15 1 0.3 0.15 0.050 0.2 0.2 0.15 0.3 0 0.1-0.1 0.15-0.2 0.15zM14.050 3.15c-0.1 0-0.25-0.1-0.25-0.2 0-0.15 0.050-0.25 0.2-0.3 0.35-0.050 0.7-0.1 1-0.1 0.15 0 0.25 0.1 0.25 0.25s0 0.2-0.15 0.2c-0.35 0.050-0.65 0.1-1.050 0.15 0.050-0.050 0.050 0 0 0zM17.6 3.1c0 0 0 0 0 0-0.35-0.050-0.7-0.050-1-0.1-0.15 0-0.25-0.1-0.25-0.25s0.15-0.25 0.25-0.25c0.35 0 0.7 0.050 1 0.1 0.15 0 0.25 0.15 0.2 0.3 0.050 0.1-0.1 0.2-0.2 0.2z"></path>
</symbol>
<symbol id="icon-ADP" viewBox="0 0 32 32">
<title>ADP</title>
<path class="path1" fill="#9a88c0" d="M26 0h-22c-0.533 0-1 0.467-1 1v1h-1c-0.533 0-1 0.467-1 1v28.067c0 0.467 0.467 0.933 1 0.933h22.067c0.533 0 1-0.467 1-1v-1h1c0.533 0 1-0.467 1-1v-28c-0.067-0.533-0.533-1-1.067-1v0zM24.067 29.533c0 0 0 0 0 0s0 0 0 0v1.533c0 0 0 0 0 0h-22.067c0 0 0 0 0 0v-28.067c0 0 0 0 0 0h1.533c0 0 0 0 0 0s0 0 0 0h20.533c0 0 0 0 0 0v26.533zM26.067 29c0 0.067 0 0.067 0 0h-1.067v-26c0-0.533-0.467-1-1-1h-20.067v-1c0 0 0 0 0 0h22.067c0 0 0 0 0 0v28z"></path>
<path class="path2" fill="#f98c67" d="M21 6.533h-16c-0.267 0-0.467 0.2-0.467 0.467s0.2 0.467 0.467 0.467h16c0.267 0 0.467-0.2 0.467-0.467s-0.2-0.467-0.467-0.467v0z"></path>
<path class="path3" fill="#f98c67" d="M21 12.533h-16c-0.267 0-0.467 0.2-0.467 0.467s0.2 0.467 0.467 0.467h16c0.267 0 0.467-0.2 0.467-0.467s-0.2-0.467-0.467-0.467v0z"></path>
<path class="path4" fill="#9a88c0" d="M21 26.533h-16c-0.267 0-0.467 0.2-0.467 0.467s0.2 0.467 0.467 0.467h16c0.267 0 0.467-0.2 0.467-0.467s-0.2-0.467-0.467-0.467v0z"></path>
<path class="path5" fill="#9a88c0" d="M21 18.533h-16c-0.267 0-0.467 0.2-0.467 0.467s0.2 0.467 0.467 0.467h16c0.267 0 0.467-0.2 0.467-0.467s-0.2-0.467-0.467-0.467v0z"></path>
<path class="path6" fill="#9a88c0" d="M4.933 9.467h4c0.267 0 0.467-0.2 0.467-0.467s-0.2-0.467-0.467-0.467h-4c-0.267 0-0.467 0.2-0.467 0.467s0.2 0.467 0.467 0.467v0z"></path>
<path class="path7" fill="#9a88c0" d="M21 8.533h-10c-0.267 0-0.467 0.2-0.467 0.467s0.2 0.467 0.467 0.467h10c0.267 0 0.467-0.2 0.467-0.467s-0.2-0.467-0.467-0.467v0z"></path>
<path class="path8" fill="#9a88c0" d="M4.933 11.467h12c0.267 0 0.467-0.2 0.467-0.467s-0.2-0.467-0.467-0.467h-12c-0.267 0-0.467 0.2-0.467 0.467s0.2 0.467 0.467 0.467v0z"></path>
<path class="path9" fill="#9a88c0" d="M21 10.533h-2c-0.267 0-0.467 0.2-0.467 0.467s0.2 0.467 0.467 0.467h2c0.267 0 0.467-0.2 0.467-0.467s-0.2-0.467-0.467-0.467v0z"></path>
<path class="path10" fill="#f98c67" d="M21 24.533h-16c-0.267 0-0.467 0.2-0.467 0.467s0.2 0.467 0.467 0.467h16c0.267 0 0.467-0.2 0.467-0.467s-0.2-0.467-0.467-0.467v0z"></path>
<path class="path11" fill="#9a88c0" d="M4.933 21.467h4c0.267 0 0.467-0.2 0.467-0.467s-0.2-0.467-0.467-0.467h-4c-0.267 0-0.467 0.2-0.467 0.467s0.2 0.467 0.467 0.467v0z"></path>
<path class="path12" fill="#f98c67" d="M21 20.533h-10c-0.267 0-0.467 0.2-0.467 0.467s0.2 0.467 0.467 0.467h10c0.267 0 0.467-0.2 0.467-0.467s-0.2-0.467-0.467-0.467v0z"></path>
<path class="path13" fill="#9a88c0" d="M4.933 23.467h12c0.267 0 0.467-0.2 0.467-0.467s-0.2-0.467-0.467-0.467h-12c-0.267 0-0.467 0.2-0.467 0.467s0.2 0.467 0.467 0.467v0z"></path>
<path class="path14" fill="#9a88c0" d="M21 22.533h-2c-0.267 0-0.467 0.2-0.467 0.467s0.2 0.467 0.467 0.467h2c0.267 0 0.467-0.2 0.467-0.467s-0.2-0.467-0.467-0.467v0z"></path>
<path class="path15" fill="#9a88c0" d="M4.933 15.467h6.533c0.267 0 0.467-0.2 0.467-0.467s-0.2-0.467-0.467-0.467h-6.533c-0.267 0-0.467 0.2-0.467 0.467s0.2 0.467 0.467 0.467v0z"></path>
<path class="path16" fill="#9a88c0" d="M21 14.533h-7.533c-0.267 0-0.467 0.2-0.467 0.467s0.2 0.467 0.467 0.467h7.533c0.267 0 0.467-0.2 0.467-0.467s-0.2-0.467-0.467-0.467v0z"></path>
<path class="path17" fill="#f98c67" d="M4.933 17.467h10.533c0.267 0 0.467-0.2 0.467-0.467s-0.2-0.467-0.467-0.467h-10.533c-0.267 0-0.467 0.2-0.467 0.467s0.2 0.467 0.467 0.467v0z"></path>
<path class="path18" fill="#9a88c0" d="M21 16.533h-3.533c-0.267 0-0.467 0.2-0.467 0.467s0.2 0.467 0.467 0.467h3.533c0.267 0 0.467-0.2 0.467-0.467s-0.2-0.467-0.467-0.467v0z"></path>
<path class="path19" fill="#f98c67" d="M29.533 9c-0.8 0-1.467 0.667-1.467 1.467v17.533c0 0.067 0 0.133 0 0.133l1 2.933v0.4c0 0.267 0.2 0.467 0.467 0.467s0.467-0.2 0.467-0.467v-0.4l1-2.933c0-0.067 0-0.067 0-0.133v-17.533c0-0.8-0.667-1.467-1.467-1.467v0zM29.533 29.533l-0.533-1.533h1.067l-0.533 1.533zM30.067 27.067h-1.067v-15.133h1.067v15.133zM30.067 11h-1.067v-0.533c0-0.267 0.267-0.533 0.533-0.533s0.533 0.267 0.533 0.533v0.533z"></path>
</symbol>
<symbol id="icon-fresh" viewBox="0 0 32 32">
<title>fresh</title>
<path class="path1" fill="#9a88c0" d="M30.333 21.333c-0.2-0.6-0.733-1.067-1.333-1.333-0.6-0.2-1.267-0.133-1.867 0.2l-5.4 3.2-0.733 0.333h-3.867c-0.067 0-0.067 0-0.067-0.067 0 0 0-0.067 0-0.133 0 0 0-0.067 0.067-0.067l2.933-1.067c1.133-0.4 1.8-1.533 1.467-2.667-0.133-0.6-0.533-1.067-1.067-1.333s-1.133-0.333-1.733-0.133l-3 1.067-8 0.533c-0.533 0.067-1 0.267-1.4 0.6l-4.333 4.4c-0.867 0.867-0.933 2.133-0.2 3 0.2 0.2 1 1 2.267 2.2 0.733 0.667 1.4 1.333 1.733 1.667 0.133 0.133 0.2 0.133 0.333 0.133s0.267-0.067 0.333-0.133l2.4-2c0.533-0.4 1.133-0.667 1.8-0.667h8.2c0.267 0 0.6-0.067 0.867-0.2l3.867-1.667c0 0 0 0 0 0l0.2-0.133c0 0 0 0 0 0l5.467-3.267c1-0.4 1.4-1.533 1.067-2.467v0zM28.8 23.067l-5.467 3.267-0.133 0.067-3.867 1.667c-0.133 0.067-0.267 0.067-0.467 0.067h-8.133c-0.867 0-1.733 0.333-2.467 0.867l-2 1.667c-0.4-0.333-0.867-0.867-1.4-1.4-0.933-0.867-2.067-1.933-2.2-2.133-0.4-0.467-0.333-1.133 0.133-1.6l4.333-4.333c0.2-0.2 0.467-0.333 0.733-0.333l8.067-0.533c0.067 0 0.067 0 0.133 0l3.133-1.067c0.133-0.067 0.267-0.067 0.333-0.067 0.2 0 0.333 0.067 0.533 0.133 0.267 0.133 0.467 0.4 0.533 0.733 0.133 0.6-0.2 1.2-0.8 1.4 0 0 0 0 0 0l-2.933 1.067c-0.267 0.133-0.533 0.333-0.667 0.6-0.2 0.333-0.133 0.8 0.067 1.133s0.6 0.533 0.933 0.533h4c0.067 0 0.133 0 0.2-0.067l0.867-0.4c0 0 0.067 0 0.067 0l5.4-3.267c0.267-0.2 0.667-0.2 0.933-0.067 0.333 0.133 0.6 0.333 0.667 0.667 0.2 0.467-0.067 1.067-0.533 1.4v0z"></path>
<path class="path2" fill="#f98c67" d="M19.467 15.333v1.2c0 0.267 0.2 0.533 0.533 0.533 0.267 0 0.533-0.2 0.533-0.533v-4c5-0.667 8.867-4.733 9.333-9.8 0-0.133-0.067-0.333-0.133-0.4-0.133-0.133-0.267-0.133-0.4-0.133-3.867 0.4-7.2 2.8-8.8 6.133v-6.133c0-0.6 0.533-1.133 1.133-1.133 0.267 0 0.533-0.2 0.533-0.533 0-0.267-0.2-0.533-0.533-0.533-1.2 0-2.2 1-2.2 2.2v1.933c-1.067-1.667-2.867-2.8-4.933-3-0.133 0-0.333 0.067-0.4 0.133-0.133 0.133-0.133 0.267-0.133 0.467 0.267 3 2.6 5.4 5.533 5.933v3.533c-1.6-3.333-4.933-5.733-8.8-6.133-0.133 0-0.333 0.067-0.4 0.133-0.133 0.133-0.133 0.267-0.133 0.4 0.4 5 4.333 9.067 9.267 9.733v0zM15.133 2.267c2.133 0.467 3.8 2.133 4.267 4.267-2.133-0.467-3.8-2.133-4.267-4.267v0zM28.8 3.267c-0.6 3.867-3.467 6.933-7.133 7.933l4.267-4.267c0.2-0.2 0.2-0.533 0-0.733s-0.533-0.2-0.733 0l-4.4 4.4c0.933-3.733 4.067-6.667 8-7.333v0zM19.267 13.4l-4.4-4.4c-0.2-0.2-0.533-0.2-0.733 0s-0.2 0.533 0 0.733l4.267 4.267c-3.733-1-6.533-4.133-7.133-7.933 3.867 0.667 7 3.6 8 7.333v0z"></path>
</symbol>
<symbol id="icon-harvestapp" viewBox="0 0 32 32">
<title>harvestapp</title>
<path class="path1" fill="#9a88c0" d="M31.467 9.933h-7.133v-5.333c0-0.333-0.267-0.533-0.533-0.533h-23.267c-0.267-0.067-0.533 0.2-0.533 0.467v16.733c0 0.333 0.267 0.533 0.533 0.533h7.133v5.333c0 0.333 0.267 0.533 0.533 0.533h23.2c0.333 0 0.533-0.267 0.533-0.533v-16.667c0.067-0.333-0.2-0.533-0.467-0.533v0zM30.867 13.2h-22.067v-2.133h22.067v2.133zM23.2 5.133v2.133h-22.067v-2.133h22.067zM1.133 20.733v-12.333h22.067v1.533h-14.933c-0.333 0-0.533 0.267-0.533 0.533v10.267h-6.6zM8.8 14.267h6.667v12.333h-6.667v-12.333zM16.6 26.6v-12.333h14.267v12.333h-14.267z"></path>
<path class="path2" fill="#9a88c0" d="M9.933 12.667c0.133 0 0.267-0.067 0.4-0.133 0.133-0.133 0.133-0.267 0.133-0.4s-0.067-0.267-0.133-0.4c-0.133-0.133-0.267-0.133-0.4-0.133s-0.267 0.067-0.4 0.133c-0.133 0.133-0.133 0.267-0.133 0.4s0.067 0.267 0.133 0.4c0.133 0.067 0.267 0.133 0.4 0.133v0z"></path>
<path class="path3" fill="#9a88c0" d="M11.333 12.667c0.133 0 0.267-0.067 0.4-0.133 0.133-0.133 0.133-0.267 0.133-0.4s-0.067-0.267-0.133-0.4c-0.133-0.133-0.267-0.133-0.4-0.133s-0.267 0.067-0.4 0.133c-0.133 0.133-0.133 0.267-0.133 0.4s0.067 0.267 0.133 0.4c0.067 0.067 0.267 0.133 0.4 0.133v0z"></path>
<path class="path4" fill="#9a88c0" d="M12.667 12.667c0.133 0 0.267-0.067 0.4-0.133 0.133-0.133 0.133-0.267 0.133-0.4s-0.067-0.267-0.133-0.4c-0.133-0.133-0.267-0.133-0.4-0.133s-0.267 0.067-0.4 0.133c-0.133 0.133-0.133 0.267-0.133 0.4s0.067 0.267 0.133 0.4c0.133 0.067 0.267 0.133 0.4 0.133v0z"></path>
<path class="path5" fill="#f98c67" d="M10.4 16.533h3.533c0.333 0 0.533-0.267 0.533-0.533 0-0.333-0.267-0.533-0.533-0.533h-3.533c-0.333 0-0.533 0.267-0.533 0.533-0.067 0.267 0.2 0.533 0.533 0.533v0z"></path>
<path class="path6" fill="#f98c67" d="M13.933 17.4h-3.533c-0.333 0-0.533 0.267-0.533 0.533 0 0.333 0.267 0.533 0.533 0.533h3.533c0.333 0 0.533-0.267 0.533-0.533s-0.267-0.533-0.533-0.533v0z"></path>
<path class="path7" fill="#f98c67" d="M13.933 19.4h-3.533c-0.333 0-0.533 0.267-0.533 0.533 0 0.333 0.267 0.533 0.533 0.533h3.533c0.333 0 0.533-0.267 0.533-0.533s-0.267-0.533-0.533-0.533v0z"></path>
<path class="path8" fill="#9a88c0" d="M26.4 15.467h-8.333c-0.333 0-0.533 0.267-0.533 0.533 0 0.333 0.267 0.533 0.533 0.533h8.333c0.333 0 0.533-0.267 0.533-0.533 0-0.333-0.267-0.533-0.533-0.533v0z"></path>
<path class="path9" fill="#9a88c0" d="M26.4 17.4h-8.333c-0.333 0-0.533 0.267-0.533 0.533 0 0.333 0.267 0.533 0.533 0.533h8.333c0.333 0 0.533-0.267 0.533-0.533s-0.267-0.533-0.533-0.533v0z"></path>
<path class="path10" fill="#9a88c0" d="M26.4 19.4h-8.333c-0.333 0-0.533 0.267-0.533 0.533 0 0.333 0.267 0.533 0.533 0.533h8.333c0.333 0 0.533-0.267 0.533-0.533s-0.267-0.533-0.533-0.533v0z"></path>
<path class="path11" fill="#f98c67" d="M2.267 6.733c0.133 0 0.267-0.067 0.4-0.133 0.133-0.133 0.133-0.267 0.133-0.4s-0.067-0.267-0.133-0.4c-0.133-0.133-0.267-0.133-0.4-0.133s-0.267 0-0.4 0.133c-0.133 0.133-0.133 0.267-0.133 0.4s0.067 0.267 0.133 0.4c0.133 0.067 0.267 0.133 0.4 0.133v0z"></path>
<path class="path12" fill="#f98c67" d="M3.6 6.733c0.2 0 0.333-0.067 0.4-0.133 0.133-0.133 0.133-0.267 0.133-0.4s-0.067-0.267-0.133-0.4c-0.067-0.133-0.2-0.133-0.4-0.133-0.133 0-0.267 0-0.333 0.133-0.133 0.133-0.2 0.267-0.2 0.4s0.067 0.267 0.133 0.4c0.133 0.067 0.267 0.133 0.4 0.133v0z"></path>
<path class="path13" fill="#f98c67" d="M5 6.733c0.133 0 0.267-0.067 0.4-0.133 0.133-0.133 0.133-0.267 0.133-0.4s-0.067-0.267-0.133-0.4c-0.133-0.133-0.267-0.133-0.4-0.133s-0.267 0.067-0.4 0.133c-0.067 0.133-0.133 0.267-0.133 0.4s0.067 0.267 0.133 0.4c0.133 0.067 0.267 0.133 0.4 0.133v0z"></path>
<path class="path14" fill="#9a88c0" d="M6.2 9.533h-3.533c-0.333 0-0.533 0.267-0.533 0.533 0 0.333 0.267 0.533 0.533 0.533h3.533c0.333 0 0.533-0.267 0.533-0.533 0.067-0.267-0.2-0.533-0.533-0.533v0z"></path>
<path class="path15" fill="#9a88c0" d="M6.2 11.533h-3.533c-0.333 0-0.533 0.267-0.533 0.533 0 0.333 0.267 0.533 0.533 0.533h3.533c0.333 0 0.533-0.267 0.533-0.533 0.067-0.333-0.2-0.533-0.533-0.533v0z"></path>
<path class="path16" fill="#9a88c0" d="M6.2 13.533h-3.533c-0.333 0-0.533 0.267-0.533 0.533 0 0.333 0.267 0.533 0.533 0.533h3.533c0.333 0 0.533-0.267 0.533-0.533 0.067-0.333-0.2-0.533-0.533-0.533v0z"></path>
</symbol>
<symbol id="icon-oportunity" viewBox="0 0 32 32">
<title>oportunity</title>
<path class="path1" fill="#9a88c0" d="M28.133 7v0l-0.067-0.6c0-0.6-0.467-1.067-1.067-1.067h-1.667c-0.6 0-1.067 0.467-1.067 1.067v0.6h-2.267v-2.267c0.067-1.533-1.2-2.733-2.667-2.733h-6.667c-1.533 0-2.733 1.2-2.733 2.733v2.267h-2.267v-0.6c0-0.6-0.467-1.067-1.067-1.067h-1.667c-0.6 0-1.067 0.467-1.067 1.067v0.6c-2.133 0-3.867 1.667-3.867 3.8v15.467c0 2.133 1.733 3.867 3.867 3.867h24.333c2.133 0 3.867-1.733 3.867-3.867v-15.467c-0.067-2.133-1.8-3.8-3.933-3.8v0zM25.333 6.4c0 0 0.067-0.067 0 0l1.667-0.067c0 0 0.067 0 0.067 0.067v0.6h-1.733v-0.6zM11 4.733c0-0.933 0.733-1.667 1.667-1.667h6.667c0.933 0 1.667 0.733 1.667 1.667v2.267h-1.2v-2.267c0-0.267-0.2-0.533-0.533-0.533h-6.6c-0.267 0-0.533 0.2-0.533 0.533v2.267h-1.2v-2.267zM13.2 7v-1.733h5.6v1.733h-5.6zM4.933 6.4c0 0 0-0.067 0 0l1.667-0.067c0 0 0.067 0 0.067 0.067v0.6h-1.733v-0.6zM30.933 26.267c0 1.533-1.267 2.8-2.8 2.8h-24.267c-1.533 0-2.8-1.267-2.8-2.8v-15.467c0-1.533 1.2-2.8 2.8-2.8h24.333c1.533 0 2.8 1.267 2.8 2.8v15.467z"></path>
<path class="path2" fill="#f98c67" d="M27.6 18.067h-23.2c-0.267 0-0.533 0.2-0.533 0.533 0 0.267 0.2 0.533 0.533 0.533h23.2c0.267 0 0.533-0.2 0.533-0.533s-0.267-0.533-0.533-0.533v0z"></path>
<path class="path3" fill="#f98c67" d="M27.6 12.533h-23.2c-0.267 0-0.533 0.2-0.533 0.533 0 0.267 0.2 0.533 0.533 0.533h23.2c0.267 0 0.533-0.2 0.533-0.533s-0.267-0.533-0.533-0.533v0z"></path>
<path class="path4" fill="#f98c67" d="M27.6 23.533h-23.2c-0.267 0-0.533 0.2-0.533 0.533 0 0.267 0.2 0.533 0.533 0.533h23.2c0.267 0 0.533-0.2 0.533-0.533 0-0.267-0.267-0.533-0.533-0.533v0z"></path>
</symbol>
<symbol id="icon-opportunities" viewBox="0 0 32 32">
<title>opportunities</title>
<path class="path1" fill="#9a88c0" d="M28.133 7v0l-0.067-0.6c0-0.6-0.467-1.067-1.067-1.067h-1.667c-0.6 0-1.067 0.467-1.067 1.067v0.6h-2.267v-2.267c0.067-1.533-1.2-2.733-2.667-2.733h-6.667c-1.533 0-2.733 1.2-2.733 2.733v2.267h-2.267v-0.6c0-0.6-0.467-1.067-1.067-1.067h-1.667c-0.6 0-1.067 0.467-1.067 1.067v0.6c-2.133 0-3.867 1.667-3.867 3.8v15.467c0 2.133 1.733 3.867 3.867 3.867h24.333c2.133 0 3.867-1.733 3.867-3.867v-15.467c-0.067-2.133-1.8-3.8-3.933-3.8v0zM25.333 6.4c0 0 0.067-0.067 0 0l1.667-0.067c0 0 0.067 0 0.067 0.067v0.6h-1.733v-0.6zM11 4.733c0-0.933 0.733-1.667 1.667-1.667h6.667c0.933 0 1.667 0.733 1.667 1.667v2.267h-1.2v-2.267c0-0.267-0.2-0.533-0.533-0.533h-6.6c-0.267 0-0.533 0.2-0.533 0.533v2.267h-1.2v-2.267zM13.2 7v-1.733h5.6v1.733h-5.6zM4.933 6.4c0 0 0-0.067 0 0l1.667-0.067c0 0 0.067 0 0.067 0.067v0.6h-1.733v-0.6zM30.933 26.267c0 1.533-1.267 2.8-2.8 2.8h-24.267c-1.533 0-2.8-1.267-2.8-2.8v-15.467c0-1.533 1.2-2.8 2.8-2.8h24.333c1.533 0 2.8 1.267 2.8 2.8v15.467z"></path>
<path class="path2" fill="#f98c67" d="M27.6 18.067h-23.2c-0.267 0-0.533 0.2-0.533 0.533 0 0.267 0.2 0.533 0.533 0.533h23.2c0.267 0 0.533-0.2 0.533-0.533s-0.267-0.533-0.533-0.533v0z"></path>
<path class="path3" fill="#f98c67" d="M27.6 12.533h-23.2c-0.267 0-0.533 0.2-0.533 0.533 0 0.267 0.2 0.533 0.533 0.533h23.2c0.267 0 0.533-0.2 0.533-0.533s-0.267-0.533-0.533-0.533v0z"></path>
<path class="path4" fill="#f98c67" d="M27.6 23.533h-23.2c-0.267 0-0.533 0.2-0.533 0.533 0 0.267 0.2 0.533 0.533 0.533h23.2c0.267 0 0.533-0.2 0.533-0.533 0-0.267-0.267-0.533-0.533-0.533v0z"></path>
</symbol>
<symbol id="icon-read" viewBox="0 0 32 32">
<title>read</title>
<path class="path1" fill="#f98c67" d="M15.938 10.892c1.169 0 1.908 0.615 1.908 1.723 0 1.969-3.508 2.462-3.508 4.862 0 0.615 0.431 1.354 1.292 1.354 1.292 0 1.169-0.985 1.662-1.662 0.615-0.923 3.631-1.908 3.631-4.492 0-2.831-2.523-4-5.046-4-2.4 0-4.677 1.723-4.677 3.692 0 0.8 0.615 1.231 1.292 1.231 1.846-0.062 0.862-2.708 3.446-2.708v0z"></path>
<path class="path2" fill="#f98c67" d="M17.354 21.723c0-0.923-0.738-1.662-1.6-1.662s-1.662 0.738-1.662 1.662 0.738 1.6 1.662 1.6 1.6-0.677 1.6-1.6v0z"></path>
<path class="path3" fill="#9a88c0" d="M16 0c-4.246 0-8.308 1.662-11.323 4.677s-4.677 7.077-4.677 11.323c0 4.246 1.662 8.308 4.677 11.323s7.077 4.677 11.323 4.677c4.246 0 8.308-1.662 11.323-4.677s4.677-7.077 4.677-11.323c0-4.246-1.662-8.308-4.677-11.323s-7.077-4.677-11.323-4.677v0zM26.585 26.585c-2.831 2.831-6.585 4.369-10.585 4.369s-7.754-1.538-10.585-4.369c-2.831-2.831-4.431-6.585-4.431-10.585s1.538-7.754 4.369-10.585c2.892-2.831 6.646-4.431 10.646-4.431s7.754 1.538 10.585 4.369c2.831 2.831 4.369 6.585 4.369 10.585 0.062 4.062-1.538 7.815-4.369 10.646v0z"></path>
<path class="path4" fill="#000" d="M12.554 9.538c-0.123 0.123-0.185 0.185-0.246 0.246 0.123-0.123 0.246-0.246 0.246-0.246v0z"></path>
</symbol>
<symbol id="icon-social" viewBox="0 0 32 32">
<title>social</title>
<path class="path1" fill="#9a88c0" d="M21.538 22.769c-2.523 0-4.615 2.092-4.615 4.615s2.092 4.615 4.615 4.615 4.615-2.092 4.615-4.615-2.092-4.615-4.615-4.615v0zM21.538 30.708c-1.846 0-3.323-1.477-3.323-3.323s1.477-3.323 3.323-3.323 3.323 1.477 3.323 3.323c0 1.846-1.477 3.323-3.323 3.323v0z"></path>
<path class="path2" fill="#9a88c0" d="M13.908 11.877c0.185 0 0.308-0.062 0.431-0.185l3.877-3.877c0.862 0.862 2.031 1.415 3.323 1.415 2.523 0 4.615-2.092 4.615-4.615s-2.092-4.615-4.615-4.615-4.615 2.092-4.615 4.615c0 0.8 0.185 1.538 0.554 2.154l-4 4c-0.246 0.246-0.246 0.677 0 0.923 0.062 0.123 0.246 0.185 0.431 0.185v0zM21.538 1.292c1.846 0 3.323 1.477 3.323 3.323s-1.477 3.323-3.323 3.323-3.323-1.477-3.323-3.323c0-1.846 1.477-3.323 3.323-3.323v0z"></path>
<path class="path3" fill="#f98c67" d="M16.985 23.323l-3.815-3.815c0.985-0.862 1.6-2.092 1.6-3.508 0-2.523-2.092-4.615-4.615-4.615s-4.615 2.092-4.615 4.615c0 2.523 2.092 4.615 4.615 4.615 0.677 0 1.292-0.123 1.846-0.369l4.062 4.062c0.123 0.123 0.308 0.185 0.431 0.185 0.185 0 0.308-0.062 0.431-0.185 0.308-0.308 0.308-0.738 0.062-0.985v0zM6.831 16c0-1.846 1.477-3.323 3.323-3.323s3.323 1.477 3.323 3.323-1.477 3.323-3.323 3.323c-1.846 0-3.323-1.477-3.323-3.323v0z"></path>
</symbol>
<symbol id="icon-support" viewBox="0 0 32 32">
<title>support</title>
<path class="path1" fill="#f98c67" d="M19.667 8.8h0.667c0 0.067 0.067 0.133 0.067 0.2l-0.933 0.933c-0.2 0.2-0.2 0.533 0 0.733 0.133 0.133 0.267 0.133 0.333 0.133 0.133 0 0.267-0.067 0.333-0.133l0.933-0.933c0.2 0.133 0.467 0.2 0.733 0.2 0.733 0 1.333-0.467 1.533-1.133h2.333c0.267 0 0.533-0.2 0.533-0.533 0-0.267-0.2-0.533-0.533-0.533h-2.333c0-0.067-0.067-0.133-0.067-0.2l2.8-2.8c0.2-0.2 0.2-0.533 0-0.733s-0.533-0.2-0.733 0l-2.8 2.8c-0.133-0.133-0.4-0.133-0.667-0.133-0.733 0-1.333 0.467-1.533 1.133h-0.667c-0.267 0-0.533 0.2-0.533 0.533 0 0.2 0.267 0.467 0.533 0.467v0zM21.867 7.667c0.333 0 0.6 0.267 0.6 0.6s-0.267 0.6-0.6 0.6c-0.333 0-0.6-0.267-0.6-0.6s0.267-0.6 0.6-0.6v0z"></path>
<path class="path2" fill="#9a88c0" d="M19.067 17.133l0.067-1.067c0.867 0.333 1.8 0.467 2.733 0.467 4.533 0 8.267-3.733 8.267-8.267s-3.733-8.267-8.267-8.267c-4.4 0-8 3.4-8.267 7.733h-2.533c-1.2 0-2.333 0.467-3.2 1.4-0.867 0.867-1.267 2.067-1.2 3.267l0.267 4.733c0 2.067 0.867 3.867 2.2 5.067v0.8l-0.933 1.333-4.2 1.2c-1.2 0.333-2 1.4-2 2.667v2.2c0 0.867 0.733 1.6 1.6 1.6h18.8c0.867 0 1.6-0.733 1.6-1.6v-2.2c0-1.2-0.8-2.333-2-2.667l-4.267-1.133-0.933-1.333v-0.8c1.4-1.267 2.267-3.067 2.267-5.133v0zM14.467 26.667v0l-0.667-0.667 2.467-2 0.6 0.867-1.667 2.467c0 0 0 0 0 0s0 0 0 0l-0.733-0.667zM11.533 26.667l-0.6 0.667c0 0 0 0 0 0s0 0 0 0l-1.667-2.467 0.6-0.867 2.467 2-0.8 0.667c0 0 0 0 0 0v0zM13 25.267l-2.733-2.333c0.8 0.467 1.733 0.733 2.733 0.733s1.933-0.267 2.733-0.733l-2.733 2.333zM13 29.267c0.067 0 0.067 0 0.133 0l0.333 1.733h-1l0.333-1.733c0.133-0.067 0.2 0 0.2 0v0zM13.6 27.6c0 0.333-0.267 0.6-0.6 0.6s-0.6-0.267-0.6-0.6v-0.333l0.6-0.6 0.6 0.6v0.333zM21.333 1.067v1.133c0 0.267 0.267 0.467 0.533 0.467s0.533-0.2 0.533-0.533v-1.067c3.6 0.267 6.4 3.133 6.667 6.667 0 0 0 0 0 0h-1.133c-0.267 0-0.533 0.2-0.533 0.533 0 0.267 0.2 0.533 0.533 0.533h1.133c0 0 0 0 0 0-0.267 3.6-3.133 6.4-6.667 6.667v-1.133c0-0.267-0.2-0.533-0.533-0.533-0.267 0-0.533 0.2-0.533 0.533v1.133c-0.733-0.067-1.467-0.2-2.133-0.467l0.133-2.6c0.067-1.2-0.333-2.4-1.2-3.267s-2-1.4-3.2-1.4h-0.267c0.267-3.533 3.133-6.4 6.667-6.667v0zM8.6 9.867c0.667-0.667 1.533-1.067 2.467-1.067h3.933c0.933 0 1.8 0.4 2.467 1.067s0.933 1.6 0.933 2.533l-0.067 1.533c-0.467-0.867-0.867-1.467-0.933-1.533-0.133-0.2-0.4-0.267-0.6-0.133-2.6 1.067-7.467 1.067-7.533 1.067-0.133 0-0.2 0.067-0.333 0.133-0.067 0-0.533 0.4-1 1.133l-0.133-2.2c-0.133-1 0.2-1.867 0.8-2.533v0zM8 17.133c0.133-1.533 1-2.533 1.333-2.8 0.933 0 4.8-0.133 7.333-1 0.4 0.667 1.333 2.2 1.333 3.8 0 3.067-2.267 5.533-5 5.533s-5-2.467-5-5.533v0zM3.067 30.4v-2.2c0-0.733 0.533-1.467 1.267-1.667l4.067-1.133 1.6 2.467c0.2 0.267 0.467 0.467 0.8 0.467 0.067 0 0.067 0 0.133 0 0.2 0 0.4-0.067 0.6-0.2 0.067 0.267 0.267 0.467 0.4 0.6l-0.467 2.133h-4.533v-1.667c0-0.267-0.2-0.533-0.533-0.533-0.267 0-0.533 0.2-0.533 0.533v1.667h-2.267c-0.267 0.067-0.533-0.2-0.533-0.467v0zM23 28.2v2.2c0 0.333-0.267 0.6-0.6 0.6h-2.267v-1.667c0-0.267-0.2-0.533-0.533-0.533-0.267 0-0.533 0.2-0.533 0.533v1.667h-4.6l-0.467-2.133c0.2-0.2 0.333-0.4 0.4-0.6 0.2 0.133 0.4 0.2 0.6 0.2 0.067 0 0.067 0 0.133 0 0.333 0 0.6-0.2 0.8-0.467l1.6-2.467 4.067 1.133c0.867 0.067 1.4 0.8 1.4 1.533v0z"></path>
</symbol>
<symbol id="icon-tools" viewBox="0 0 32 32">
<title>tools</title>
<path class="path1" fill="#9a88c0" d="M30.523 13.046h-1.354c-0.369-1.477-0.923-2.954-1.723-4.246l0.985-0.985c0.554-0.554 0.554-1.538 0-2.092l-2.154-2.154c-0.308-0.308-0.677-0.431-1.046-0.431s-0.738 0.123-1.046 0.431l-0.985 0.985c-1.292-0.8-2.708-1.415-4.246-1.723v-1.354c0-0.8-0.677-1.477-1.477-1.477h-3.015c-0.8 0-1.477 0.677-1.477 1.477v1.354c-1.477 0.369-2.954 0.923-4.246 1.723l-0.985-0.985c-0.308-0.308-0.677-0.431-1.046-0.431s-0.738 0.123-1.046 0.431l-2.031 2.154c-0.554 0.554-0.554 1.477 0 2.092l0.985 0.985c-0.8 1.292-1.415 2.708-1.723 4.246h-1.415c-0.8 0-1.477 0.677-1.477 1.477v3.015c0 0.8 0.677 1.477 1.477 1.477h1.354c0.369 1.477 0.923 2.954 1.723 4.246l-0.985 0.985c-0.308 0.308-0.431 0.677-0.431 1.046s0.123 0.738 0.431 1.046l2.154 2.154c0.308 0.308 0.677 0.431 1.046 0.431s0.738-0.123 1.046-0.431l0.985-0.985c1.292 0.8 2.708 1.415 4.246 1.723v1.354c0 0.8 0.677 1.477 1.477 1.477h3.015c0.8 0 1.477-0.677 1.477-1.477v-1.354c1.477-0.369 2.954-0.923 4.246-1.723l0.985 0.985c0.308 0.308 0.677 0.431 1.046 0.431s0.738-0.123 1.046-0.431l2.154-2.154c0.308-0.308 0.431-0.677 0.431-1.046s-0.123-0.738-0.431-1.046l-0.985-0.985c0.8-1.292 1.415-2.708 1.723-4.246h1.354c0.8 0 1.477-0.677 1.477-1.477v-3.015c-0.062-0.862-0.738-1.477-1.538-1.477v0zM31.077 17.477c0 0.308-0.246 0.554-0.554 0.554h-1.723c-0.246 0-0.431 0.185-0.431 0.369-0.308 1.662-0.985 3.2-1.908 4.615-0.123 0.185-0.123 0.431 0.062 0.615l1.231 1.231c0.123 0.123 0.185 0.246 0.185 0.369s-0.062 0.246-0.185 0.369l-2.154 2.092c-0.123 0.123-0.246 0.185-0.369 0.185s-0.246-0.062-0.369-0.185l-1.231-1.231c-0.185-0.185-0.431-0.185-0.615-0.062-1.415 0.923-2.954 1.6-4.615 1.908-0.246 0.062-0.369 0.246-0.369 0.431v1.723c0 0.308-0.246 0.554-0.554 0.554h-3.015c-0.308 0-0.554-0.246-0.554-0.554v-1.723c0-0.246-0.185-0.431-0.369-0.431-1.662-0.308-3.2-0.985-4.615-1.908-0.062-0.062-0.185-0.062-0.246-0.062-0.123 0-0.246 0.062-0.308 0.123l-1.231 1.231c-0.123 0.123-0.246 0.185-0.369 0.185s-0.246-0.062-0.369-0.185l-2.092-2.092c-0.123-0.123-0.185-0.246-0.185-0.369s0.062-0.246 0.185-0.369l1.231-1.231c0.185-0.185 0.185-0.431 0.062-0.615-0.923-1.415-1.6-2.954-1.908-4.615-0.062-0.246-0.246-0.369-0.431-0.369h-1.785c-0.308 0-0.554-0.246-0.554-0.554v-3.015c0-0.308 0.246-0.554 0.554-0.554h1.723c0.246 0 0.431-0.185 0.431-0.369 0.308-1.662 0.985-3.2 1.908-4.615 0.123-0.185 0.123-0.431-0.062-0.615l-1.231-1.231c-0.185-0.185-0.185-0.554 0-0.738l2.154-2.031c0.123-0.123 0.246-0.185 0.369-0.185s0.246 0.062 0.369 0.185l1.231 1.231c0.185 0.185 0.431 0.185 0.615 0.062 1.415-0.923 2.954-1.6 4.615-1.908 0.246-0.062 0.369-0.246 0.369-0.431v-1.785c0-0.308 0.246-0.554 0.554-0.554h3.015c0.308 0 0.554 0.246 0.554 0.554v1.723c0 0.246 0.185 0.431 0.369 0.431 1.662 0.308 3.2 0.985 4.615 1.908 0.185 0.123 0.431 0.123 0.615-0.062l1.231-1.231c0.123-0.123 0.246-0.185 0.369-0.185s0.246 0.062 0.369 0.185l2.154 2.154c0.185 0.185 0.185 0.554 0 0.738l-1.231 1.231c-0.185 0.185-0.185 0.431-0.062 0.615 0.923 1.415 1.6 2.954 1.908 4.615 0.062 0.246 0.246 0.369 0.431 0.369h1.723c0.308 0 0.554 0.246 0.554 0.554v2.954z"></path>
<path class="path2" fill="#f98c67" d="M7.446 16c0-4.738 3.815-8.554 8.554-8.554 1.169 0 2.277 0.246 3.323 0.677 0.246 0.123 0.492 0 0.615-0.246s0-0.492-0.246-0.615c-1.169-0.492-2.4-0.738-3.692-0.738-5.231 0-9.477 4.246-9.477 9.477 0 2.154 0.738 4.308 2.092 5.969 0.123 0.123 0.246 0.185 0.369 0.185s0.185-0.062 0.308-0.123c0.185-0.185 0.246-0.431 0.062-0.677-1.231-1.477-1.908-3.385-1.908-5.354v0z"></path>
<path class="path3" fill="#f98c67" d="M24.123 12.062c-0.246 0.123-0.369 0.369-0.246 0.615 0.431 1.046 0.677 2.154 0.677 3.323 0 4.738-3.815 8.554-8.554 8.554-1.969 0-3.877-0.677-5.354-1.908-0.185-0.185-0.492-0.123-0.677 0.062s-0.123 0.492 0.062 0.677c1.662 1.354 3.815 2.092 5.969 2.092 5.231 0 9.477-4.246 9.477-9.477 0-1.292-0.246-2.523-0.738-3.692-0.123-0.246-0.369-0.369-0.615-0.246v0z"></path>
<path class="path4" fill="#f98c67" d="M21.354 9.354c0.492 0.369 0.923 0.8 1.292 1.292 0.123 0.123 0.246 0.185 0.369 0.185s0.185-0.062 0.308-0.123c0.185-0.185 0.246-0.431 0.062-0.677-0.431-0.492-0.923-0.985-1.415-1.415-0.185-0.185-0.492-0.123-0.677 0.062-0.123 0.246-0.123 0.492 0.062 0.677v0z"></path>
<path class="path5" fill="#9a88c0" d="M16 8.492c-4.123 0-7.508 3.385-7.508 7.508s3.385 7.508 7.508 7.508 7.508-3.385 7.508-7.508-3.385-7.508-7.508-7.508v0zM16 22.523c-3.631 0-6.523-2.954-6.523-6.523s2.892-6.523 6.523-6.523 6.523 2.892 6.523 6.523-2.892 6.523-6.523 6.523v0z"></path>
</symbol>
<symbol id="icon-verification" viewBox="0 0 32 32">
<title>verification</title>
<path class="path1" fill="#9a88c0" d="M25.231 2.215h-4c-0.246-0.615-0.8-1.108-1.538-1.108h-1.662c-0.554-0.677-1.354-1.108-2.215-1.108s-1.662 0.431-2.154 1.108h-1.662c-0.738 0-1.292 0.492-1.538 1.108h-4c-1.169 0-2.154 0.985-2.154 2.154v25.354c0 1.169 0.985 2.154 2.154 2.154h18.769c1.169 0 2.154-0.985 2.154-2.154v-25.354c0-1.169-0.985-2.154-2.154-2.154v0zM10.462 5.415c0.246 0.615 0.8 1.108 1.538 1.108h7.692c0.738 0 1.292-0.492 1.538-1.108h2.892v23.2h-16.615v-23.2h2.954zM12 2.154h1.969c0.185 0 0.369-0.123 0.431-0.246 0.308-0.554 0.862-0.862 1.477-0.862s1.169 0.308 1.477 0.862c0.123 0.185 0.246 0.246 0.431 0.246h1.908c0.308 0 0.615 0.246 0.615 0.615v2.154c0 0 0 0 0 0v0c0 0.308-0.246 0.615-0.615 0.615h-7.692c-0.308 0-0.615-0.246-0.615-0.554 0 0 0 0 0 0s0 0 0 0v-2.277c0-0.308 0.308-0.554 0.615-0.554v0zM26.338 29.723c0 0.615-0.492 1.108-1.108 1.108h-18.769c-0.615 0-1.108-0.492-1.108-1.108v-25.354c0-0.615 0.492-1.108 1.108-1.108h3.877v1.169h-3.323c-0.246 0-0.492 0.185-0.492 0.492v24.246c0 0.308 0.246 0.492 0.492 0.492h17.6c0.308 0 0.492-0.246 0.492-0.492v-24.246c0-0.308-0.246-0.492-0.492-0.492h-3.323v-1.169h3.938c0.615 0 1.108 0.492 1.108 1.108v25.354z"></path>
<path class="path2" fill="#f98c67" d="M15.815 4.308c0.308 0 0.492-0.246 0.492-0.492v-1.108c0-0.308-0.246-0.492-0.492-0.492-0.308 0-0.492 0.246-0.492 0.492v1.108c0 0.308 0.246 0.492 0.492 0.492v0z"></path>
<path class="path3" fill="#f98c67" d="M16.369 11.508h3.323c0.308 0 0.492-0.246 0.492-0.492 0-0.308-0.246-0.492-0.492-0.492h-3.323c-0.308 0-0.492 0.246-0.492 0.492s0.246 0.492 0.492 0.492v0z"></path>
<path class="path4" fill="#f98c67" d="M16.369 13.723h5.538c0.308 0 0.492-0.246 0.492-0.492 0-0.308-0.246-0.492-0.492-0.492h-5.538c-0.308 0-0.492 0.246-0.492 0.492s0.246 0.492 0.492 0.492v0z"></path>
<path class="path5" fill="#9a88c0" d="M11.077 13.538c0.123 0.123 0.246 0.123 0.369 0.123s0.246-0.062 0.369-0.123l2.769-2.769c0.185-0.185 0.185-0.554 0-0.738s-0.554-0.185-0.738 0l-2.4 2.4-1.292-1.292c-0.185-0.185-0.554-0.185-0.738 0-0.185 0.246-0.185 0.554 0 0.738l1.662 1.662z"></path>
<path class="path6" fill="#9a88c0" d="M16.369 16.985h3.323c0.308 0 0.492-0.246 0.492-0.492 0-0.308-0.246-0.492-0.492-0.492h-3.323c-0.308 0-0.492 0.246-0.492 0.492 0 0.308 0.246 0.492 0.492 0.492v0z"></path>
<path class="path7" fill="#9a88c0" d="M16.369 19.2h5.538c0.308 0 0.492-0.246 0.492-0.492 0-0.308-0.246-0.492-0.492-0.492h-5.538c-0.308 0-0.492 0.246-0.492 0.492s0.246 0.492 0.492 0.492v0z"></path>
<path class="path8" fill="#f98c67" d="M11.077 19.077c0.123 0.123 0.246 0.123 0.369 0.123s0.246-0.062 0.369-0.123l2.769-2.769c0.185-0.185 0.185-0.554 0-0.738s-0.554-0.185-0.738 0l-2.4 2.4-1.292-1.292c-0.185-0.185-0.554-0.185-0.738 0s-0.185 0.554 0 0.738l1.662 1.662z"></path>
<path class="path9" fill="#f98c67" d="M16.369 22.523h3.323c0.308 0 0.492-0.246 0.492-0.492 0-0.308-0.246-0.492-0.492-0.492h-3.323c-0.308 0-0.492 0.246-0.492 0.492s0.246 0.492 0.492 0.492v0z"></path>
<path class="path10" fill="#f98c67" d="M16.369 24.738h5.538c0.308 0 0.492-0.246 0.492-0.492 0-0.308-0.246-0.492-0.492-0.492h-5.538c-0.308 0-0.492 0.246-0.492 0.492s0.246 0.492 0.492 0.492v0z"></path>
<path class="path11" fill="#9a88c0" d="M11.077 24.554c0.123 0.123 0.246 0.123 0.369 0.123s0.246-0.062 0.369-0.123l2.769-2.769c0.185-0.185 0.185-0.554 0-0.738s-0.554-0.185-0.738 0l-2.4 2.4-1.292-1.292c-0.185-0.185-0.554-0.185-0.738 0s-0.185 0.554 0 0.738l1.662 1.662z"></path>
</symbol>
</defs>
</svg>
