<svg style="position: absolute; width: 0; height: 0; overflow: hidden;" version="1.1" xmlns="http://www.w3.org/2000/svg" xmlns:xlink="http://www.w3.org/1999/xlink">
<defs>
<symbol id="icon-check" viewBox="0 0 44 32">
<title>check</title>
<path class="path1" d="M17.502 32c-0.007 0-0.014 0-0.022 0-0.603 0-1.158-0.207-1.598-0.553l-14.913-12.072c-0.593-0.478-0.97-1.204-0.97-2.018 0-1.427 1.157-2.585 2.584-2.585 0.613 0 1.176 0.213 1.62 0.57l12.976 10.491 22.216-24.961c0.476-0.537 1.167-0.874 1.937-0.874 1.428 0 2.585 1.157 2.585 2.585 0 0.658-0.246 1.258-0.65 1.714l-23.893 26.831c-0.462 0.521-1.127 0.853-1.87 0.872z"></path>
</symbol>
<symbol id="icon-angle" viewBox="0 0 57 32">
<title>angle</title>
<path class="path1" d="M56.227 5.771c0.614-0.609 0.996-1.452 1.002-2.383-0.006-0.934-0.387-1.776-1.001-2.385-0.607-0.619-1.451-1.002-2.385-1.002s-1.778 0.383-2.384 1.001l-22.844 22.844-22.844-22.844c-0.625-0.746-1.558-1.217-2.6-1.217-1.87 0-3.386 1.516-3.386 3.386 0 1.043 0.471 1.975 1.212 2.596l25.233 25.232c0.606 0.619 1.451 1.002 2.384 1.002s1.778-0.383 2.384-1.001z"></path>
</symbol>
<symbol id="icon-logo-nav" viewBox="0 0 88 32">
<title>logo-nav</title>
<path class="path1" fill="#fff" d="M12.71 22.96h1.928l1.423-3.883q-1.336 0.915-2.606 1.837z"></path>
<path class="path2" fill="#fff" d="M23.122 14.579l3.075 8.385h1.928l-3.398-9.328q-0.812 0.469-1.601 0.942z"></path>
<path class="path3" fill="#fff" d="M20.417 7.195l1.632 4.443q0.788-0.473 1.608-0.934l-1.833-5.027h-2.815l-3.761 10.325q1.258-0.879 2.582-1.746z"></path>
<path class="path4" fill="#fff" d="M50.517 0s-35.982 10.68-50.517 32c0.020-0.035 9.659-15.15 50.517-32z"></path>
<path class="path5" fill="#fff" d="M38.935 13.179v1.632c0.164-0.198 0.342-0.374 0.537-0.531 0.362-0.292 0.771-0.53 1.214-0.701 0.244-0.089 0.445-0.152 0.642-0.208 0.413-0.11 0.893-0.184 1.386-0.205l0.014 1.253c-0.019-0-0.041-0-0.064-0-0.421 0-0.828 0.062-1.212 0.178-0.338 0.105-0.658 0.258-0.95 0.451-0.259 0.172-0.495 0.379-0.7 0.614-0.183 0.209-0.345 0.437-0.482 0.682-0.117 0.21-0.211 0.431-0.28 0.663-0.056 0.181-0.087 0.361-0.093 0.549l-0 5.487h-1.183v-9.856z"></path>
<path class="path6" fill="#fff" d="M47.036 12.789c0.013-0 0.028-0 0.043-0 0.663 0 1.292 0.145 1.857 0.406 0.572 0.264 1.083 0.634 1.508 1.086 0.434 0.462 0.784 1.003 1.027 1.6 0.251 0.625 0.389 1.31 0.389 2.028s-0.138 1.402-0.39 2.030c-0.242 0.595-0.593 1.136-1.026 1.598-0.424 0.452-0.935 0.822-1.505 1.085-0.58 0.266-1.224 0.414-1.903 0.414s-1.322-0.148-1.901-0.413c-0.572-0.264-1.082-0.634-1.507-1.086-0.434-0.462-0.784-1.003-1.027-1.6-0.251-0.625-0.389-1.31-0.389-2.028s0.138-1.402 0.39-2.030c0.242-0.595 0.593-1.136 1.026-1.598 0.425-0.451 0.935-0.821 1.505-1.085 0.567-0.262 1.196-0.407 1.859-0.407 0.016 0 0.031 0 0.047 0zM50.699 17.914c0-0.009 0-0.020 0-0.031 0-0.533-0.106-1.041-0.297-1.505-0.186-0.452-0.452-0.863-0.781-1.214-0.327-0.344-0.719-0.625-1.157-0.824-0.442-0.204-0.933-0.318-1.45-0.318s-1.008 0.114-1.449 0.318c-0.44 0.2-0.832 0.481-1.16 0.825-0.33 0.35-0.596 0.76-0.781 1.213-0.191 0.476-0.296 0.998-0.296 1.544s0.105 1.068 0.296 1.546c0.184 0.451 0.451 0.862 0.78 1.212 0.327 0.343 0.719 0.623 1.157 0.82 0.443 0.201 0.934 0.313 1.45 0.313s1.007-0.112 1.449-0.312c0.439-0.198 0.832-0.478 1.159-0.821 0.668-0.715 1.078-1.676 1.078-2.734 0-0.010-0-0.019-0-0.029z"></path>
<path class="path7" fill="#fff" d="M53.781 7.971v4.589h3.856v1.301h-3.864v4.104c-0 0.009-0 0.020-0 0.032 0 0.523 0.104 1.022 0.293 1.476 0.182 0.435 0.449 0.828 0.779 1.157 0.342 0.33 0.748 0.596 1.197 0.779 0.469 0.194 0.985 0.301 1.526 0.301 0.018 0 0.037-0 0.055-0l-0.003 1.305c-0.023 0-0.050 0.001-0.077 0.001-2.112 0-3.916-1.313-4.642-3.168-0.234-0.584-0.363-1.222-0.363-1.89 0-0 0-0 0-0.001v-10.014z"></path>
<path class="path8" fill="#fff" d="M66.933 12.915v10.132h-1.183v-1.723c-0.311 0.4-0.688 0.731-1.117 0.983-0.356 0.206-0.748 0.38-1.159 0.511-0.422 0.127-0.863 0.204-1.318 0.228-0.033 0.001-0.056 0.001-0.079 0.001-0.656 0-1.277-0.145-1.834-0.406-0.564-0.268-1.065-0.64-1.48-1.093-0.42-0.459-0.759-0.994-0.996-1.581-0.246-0.606-0.381-1.269-0.381-1.963s0.135-1.357 0.381-1.963c0.236-0.589 0.575-1.125 0.996-1.585 0.416-0.454 0.918-0.828 1.481-1.095 0.563-0.262 1.189-0.407 1.849-0.407 0.023 0 0.045 0 0.068 0.001 0.676 0.033 1.313 0.182 1.898 0.428 0.197 0.083 0.394 0.185 0.581 0.301 0.202 0.125 0.392 0.264 0.571 0.417 0.19 0.164 0.365 0.348 0.519 0.55l0.006-1.694zM65.774 17.981c0-0.007 0-0.016 0-0.024 0-0.531-0.104-1.037-0.293-1.5-0.185-0.448-0.452-0.855-0.781-1.201-0.317-0.338-0.698-0.615-1.123-0.813-0.435-0.201-0.919-0.313-1.428-0.313s-0.993 0.112-1.427 0.312c-0.428 0.197-0.81 0.475-1.128 0.813-0.329 0.347-0.596 0.753-0.781 1.202-0.19 0.467-0.294 0.978-0.294 1.514 0 1.058 0.408 2.022 1.076 2.741 0.318 0.336 0.7 0.612 1.126 0.808 0.435 0.201 0.919 0.313 1.428 0.313s0.993-0.112 1.426-0.313c0.426-0.198 0.807-0.474 1.125-0.81 0.657-0.711 1.058-1.662 1.058-2.708 0-0.006 0-0.013-0-0.019z"></path>
<path class="path9" fill="#fff" d="M76.087 12.915v1.77c-0.319-0.406-0.702-0.745-1.136-1.007-0.358-0.214-0.749-0.393-1.16-0.527-0.422-0.133-0.862-0.214-1.318-0.236-0.018-0.001-0.025-0.001-0.033-0.001-0.671 0-1.307 0.145-1.88 0.406-0.572 0.258-1.084 0.622-1.511 1.067-0.438 0.458-0.791 0.999-1.034 1.596-0.262 0.631-0.406 1.325-0.406 2.052 0 0.007 0 0.014 0 0.021-0 0.008-0 0.019-0 0.030 0 0.721 0.145 1.408 0.407 2.034 0.247 0.594 0.601 1.133 1.038 1.592 0.431 0.447 0.948 0.811 1.524 1.066 0.585 0.261 1.231 0.406 1.912 0.406 0.008 0 0.016-0 0.025-0 0.472-0.030 0.915-0.11 1.338-0.235 0.185-0.054 0.375-0.124 0.559-0.206 0.203-0.090 0.397-0.193 0.583-0.308 0.198-0.122 0.387-0.264 0.563-0.421 0.189-0.17 0.362-0.357 0.517-0.559l0.007 1.879c-0.005 0.231-0.041 0.451-0.103 0.66-0.074 0.261-0.174 0.504-0.297 0.731-0.139 0.259-0.304 0.5-0.492 0.72-0.205 0.241-0.442 0.454-0.705 0.633-0.287 0.194-0.603 0.349-0.94 0.458-0.368 0.115-0.76 0.177-1.167 0.177-0.015 0-0.030-0-0.045-0l0.002 0c-0.095 0-0.185 0-0.28 0-1.228-0.106-2.303-0.684-3.059-1.548-0.308 0.286-0.616 0.574-0.923 0.862 0.969 1.092 2.333 1.815 3.866 1.942 0.147 0.001 0.273 0.001 0.415 0.001v0c0.203-0 0.403-0.012 0.6-0.034l0.066 0.002 0.205-0.028 0.28-0.047c0.17-0.037 0.31-0.076 0.447-0.123 0.448-0.149 0.862-0.361 1.236-0.625 0.348-0.246 0.662-0.539 0.932-0.869 0.251-0.304 0.472-0.636 0.658-0.99 0.17-0.321 0.304-0.658 0.401-1.010 0.085-0.301 0.132-0.606 0.138-0.922l0-10.412zM75.831 19.574c-0.194 0.479-0.461 0.89-0.79 1.24-0.32 0.341-0.705 0.621-1.135 0.82-0.44 0.201-0.928 0.313-1.442 0.313s-1.002-0.112-1.441-0.313c-0.44-0.197-0.833-0.477-1.16-0.821-0.329-0.35-0.596-0.761-0.781-1.213-0.19-0.474-0.295-0.994-0.295-1.538s0.105-1.064 0.295-1.54c0.184-0.451 0.451-0.862 0.78-1.212 0.326-0.343 0.719-0.624 1.158-0.821 0.44-0.201 0.928-0.313 1.442-0.313s1.002 0.112 1.441 0.313c0.431 0.2 0.815 0.48 1.136 0.821 0.33 0.35 0.596 0.761 0.781 1.213 0.19 0.474 0.295 0.994 0.295 1.538s-0.105 1.064-0.295 1.54z"></path>
<path class="path10" fill="#fff" d="M34.515 21.032c-0.227 0.181-0.487 0.336-0.767 0.453-0.219 0.094-0.455 0.174-0.699 0.234-0.24 0.055-0.487 0.092-0.739 0.108-0.039 0.001-0.069 0.002-0.098 0.002-0.785 0-1.505-0.279-2.066-0.743-0.25-0.207-0.47-0.449-0.649-0.721-0.162-0.245-0.31-0.513-0.435-0.793-0.111-0.249-0.199-0.503-0.264-0.765-0.062-0.271-0.101-0.465-0.117-0.614h8.377c-0.001-0.44-0.051-0.869-0.145-1.28-0.090-0.421-0.226-0.826-0.402-1.208-0.182-0.382-0.406-0.742-0.665-1.072-0.527-0.671-1.247-1.187-2.076-1.465-0.446-0.149-0.924-0.23-1.421-0.23-0.014 0-0.029 0-0.043 0-0.016-0-0.038-0-0.059-0-0.518 0-1.014 0.090-1.475 0.254-0.837 0.306-1.557 0.853-2.078 1.555-0.242 0.322-0.453 0.673-0.625 1.045-0.161 0.348-0.287 0.713-0.374 1.094-0.080 0.334-0.124 0.676-0.129 1.028 0.003 0.406 0.049 0.796 0.133 1.172 0.087 0.414 0.214 0.809 0.379 1.185 0.168 0.375 0.38 0.731 0.629 1.058 0.254 0.335 0.556 0.635 0.893 0.889 0.351 0.266 0.742 0.478 1.164 0.626 0.461 0.157 0.957 0.242 1.473 0.242 0.019 0 0.039-0 0.058-0 0.703-0.039 1.359-0.215 1.951-0.502 0.273-0.134 0.531-0.289 0.774-0.463 0.269-0.195 0.518-0.422 0.74-0.674 0.25-0.287 0.47-0.604 0.653-0.943 0.041-0.075 0.061-0.138 0.088-0.189h-1.281c-0.201 0.29-0.434 0.54-0.699 0.752zM29.292 15.805c0.207-0.302 0.445-0.561 0.715-0.783 0.234-0.195 0.494-0.359 0.774-0.485 0.227-0.116 0.471-0.217 0.724-0.299 0.251-0.061 0.508-0.099 0.77-0.115 0.289 0.016 0.546 0.054 0.794 0.112 0.254 0.066 0.498 0.151 0.733 0.254 0.27 0.122 0.53 0.286 0.763 0.481 0.271 0.223 0.51 0.483 0.708 0.772 0.235 0.359 0.413 0.761 0.519 1.192l-7.012 0.027c0.115-0.439 0.291-0.824 0.521-1.169z"></path>
<path class="path11" fill="#fff" d="M84.942 21.032c-0.227 0.181-0.487 0.336-0.767 0.453-0.219 0.094-0.455 0.174-0.699 0.234-0.24 0.055-0.487 0.092-0.739 0.108-0.039 0.001-0.068 0.002-0.097 0.002-0.785 0-1.506-0.279-2.067-0.743-0.25-0.206-0.47-0.449-0.649-0.721-0.162-0.245-0.31-0.513-0.435-0.793-0.111-0.249-0.199-0.503-0.264-0.765-0.046-0.184-0.085-0.382-0.113-0.583l8.362-0.031c-0.001-0.441-0.051-0.869-0.145-1.281-0.090-0.421-0.226-0.826-0.402-1.208-0.182-0.381-0.405-0.741-0.664-1.072-0.258-0.329-0.565-0.623-0.908-0.87-0.727-0.522-1.618-0.829-2.582-0.829-0.017 0-0.035 0-0.052 0-0.015-0-0.036-0-0.057-0-0.518 0-1.015 0.090-1.477 0.254-0.423 0.16-0.815 0.381-1.166 0.653-0.337 0.256-0.638 0.558-0.892 0.895-0.255 0.319-0.477 0.666-0.66 1.035-0.161 0.345-0.287 0.711-0.374 1.091-0.078 0.335-0.121 0.677-0.126 1.028 0.003 0.405 0.049 0.796 0.133 1.171 0.087 0.414 0.217 0.809 0.383 1.184 0.167 0.375 0.38 0.732 0.629 1.058 0.254 0.336 0.555 0.636 0.894 0.889 0.351 0.266 0.742 0.478 1.165 0.626 0.461 0.157 0.957 0.242 1.474 0.242 0.019 0 0.038-0 0.057-0 0.703-0.039 1.359-0.215 1.952-0.502 0.273-0.134 0.531-0.289 0.774-0.463 0.268-0.194 0.516-0.421 0.736-0.673 0.25-0.288 0.47-0.604 0.653-0.944 0.041-0.075 0.061-0.138 0.085-0.189h-1.281c-0.201 0.29-0.434 0.54-0.699 0.752zM79.722 15.805c0.207-0.302 0.445-0.561 0.715-0.783 0.234-0.195 0.494-0.359 0.774-0.485 0.224-0.099 0.468-0.184 0.721-0.249 0.258-0.075 0.516-0.115 0.783-0.115s0.525 0.039 0.768 0.112c0.267 0.068 0.511 0.153 0.745 0.256 0.27 0.123 0.53 0.286 0.763 0.481 0.271 0.223 0.51 0.482 0.708 0.772 0.236 0.359 0.414 0.761 0.519 1.193l-7.012 0.026c0.112-0.458 0.289-0.86 0.526-1.221z"></path>
<path class="path12" fill="#fff" d="M12.718 27.376h0.371l0.619 3.41 0.978-3.426h0.509l0.97 3.426 0.619-3.426h0.371l-0.721 3.867h-0.442l-1.033-3.481-1.029 3.481h-0.524z"></path>
<path class="path13" fill="#fff" d="M20.173 30.545c-0.204 0.468-0.663 0.789-1.196 0.789-0.011 0-0.021-0-0.032-0-0.787 0-1.351-0.595-1.351-1.545s0.54-1.557 1.329-1.557 1.309 0.556 1.309 1.545v0.106h-2.275c-0.004 0.032-0.006 0.069-0.006 0.107 0 0.543 0.431 0.984 0.97 1.001 0.024 0.002 0.050 0.003 0.077 0.003 0.396 0 0.734-0.247 0.868-0.596zM19.865 29.579c0.003-0.028 0.005-0.061 0.005-0.095 0-0.509-0.413-0.922-0.922-0.922-0.009 0-0.017 0-0.026 0-0.528 0.011-0.954 0.442-0.954 0.974 0 0.015 0 0.031 0.001 0.046z"></path>
<path class="path14" fill="#fff" d="M22.412 28.314h0.319v0.28c0.173-0.222 0.439-0.363 0.739-0.363 0.008 0 0.015 0 0.023 0 0.014-0.001 0.032-0.002 0.050-0.002 0.318 0 0.594 0.177 0.736 0.439l0.002 0.004c0.187-0.268 0.493-0.442 0.841-0.442 0.004 0 0.008 0 0.011 0 0.014-0.001 0.031-0.001 0.048-0.001 0.509 0 0.922 0.413 0.922 0.922 0 0.035-0.002 0.070-0.006 0.104l0 1.967h-0.359v-1.857c0-0.564-0.205-0.824-0.631-0.824s-0.686 0.276-0.686 0.788v1.892h-0.359v-1.857c0-0.564-0.193-0.824-0.631-0.824s-0.674 0.371-0.674 0.788v1.892h-0.359z"></path>
<path class="path15" fill="#fff" d="M28.779 30.904v0c-0.192 0.257-0.495 0.422-0.837 0.422-0.032 0-0.063-0.001-0.094-0.004-0.654 0-0.958-0.394-0.958-0.824s0.26-0.733 0.978-0.919c0.469-0.122 0.867-0.217 0.867-0.54 0-0.252-0.181-0.481-0.651-0.481-0.019-0.002-0.040-0.003-0.062-0.003-0.356 0-0.649 0.272-0.683 0.619l-0.343-0.076c0.065-0.496 0.485-0.874 0.993-0.874 0.028 0 0.055 0.001 0.083 0.003 0.627-0 1.053 0.28 1.053 1.001v2.011h-0.347zM27.238 30.478c0 0.28 0.134 0.512 0.631 0.512 0.583 0 0.883-0.319 0.883-0.678v-0.788c-0.039 0.095-0.177 0.197-0.788 0.371s-0.729 0.304-0.729 0.583z"></path>
<path class="path16" fill="#fff" d="M30.045 27.21h0.359v2.484l1.293-1.38h0.497l-1.049 1.147 1.222 1.778h-0.434l-1.057-1.53-0.453 0.481v1.049h-0.359z"></path>
<path class="path17" fill="#fff" d="M35.233 30.545c-0.204 0.468-0.663 0.789-1.196 0.789-0.011 0-0.021-0-0.032-0-0.787 0-1.351-0.595-1.351-1.545s0.556-1.545 1.333-1.545 1.309 0.556 1.309 1.545v0.106h-2.275c-0.004 0.033-0.006 0.072-0.006 0.111 0 0.547 0.438 0.991 0.983 1.001 0.017 0.001 0.036 0.002 0.055 0.002 0.401 0 0.743-0.254 0.874-0.61zM34.925 29.579c0.003-0.028 0.005-0.061 0.005-0.095 0-0.509-0.413-0.922-0.922-0.922-0.007 0-0.014 0-0.022 0-0.529 0.011-0.954 0.442-0.954 0.974 0 0.015 0 0.031 0.001 0.046z"></path>
<path class="path18" fill="#fff" d="M39.179 30.904v0c-0.192 0.257-0.495 0.422-0.837 0.422-0.032 0-0.063-0.001-0.094-0.004-0.654 0-0.958-0.394-0.958-0.824s0.26-0.733 0.978-0.919c0.469-0.122 0.867-0.217 0.867-0.54 0-0.252-0.181-0.481-0.651-0.481-0.019-0.002-0.040-0.003-0.062-0.003-0.356 0-0.649 0.272-0.683 0.619l-0.343-0.076c0.065-0.496 0.485-0.874 0.993-0.874 0.028 0 0.055 0.001 0.083 0.003 0.627-0 1.053 0.28 1.053 1.001v2.011h-0.331zM37.638 30.478c0 0.28 0.134 0.512 0.631 0.512 0.583 0 0.883-0.319 0.883-0.678v-0.788c-0.039 0.095-0.177 0.197-0.788 0.371s-0.725 0.304-0.725 0.583z"></path>
<path class="path19" fill="#fff" d="M40.448 27.376h0.446v0.457h-0.446zM40.492 28.314h0.359v2.925h-0.359z"></path>
<path class="path20" fill="#fff" d="M41.887 28.314h0.347v0.315c0.117-0.217 0.343-0.363 0.603-0.363 0.002 0 0.003 0 0.005 0 0.007-0 0.016-0.001 0.024-0.001 0.082 0 0.159 0.021 0.226 0.057l-0.074 0.361c-0.056-0.029-0.122-0.045-0.191-0.045-0.015 0-0.029 0.001-0.043 0.002-0.306-0-0.55 0.217-0.55 0.694v1.904h-0.359z"></path>
<path class="path21" fill="#fff" d="M46.125 30.21c-0.036 0.624-0.551 1.116-1.181 1.116-0.001 0-0.001 0-0.002 0-0.769 0-1.313-0.548-1.313-1.545s0.591-1.545 1.313-1.545c0.001 0 0.003 0 0.004 0 0.618 0 1.126 0.475 1.178 1.080l-0.355 0.060c-0.029-0.437-0.387-0.781-0.827-0.788-0.565 0-0.963 0.438-0.963 1.214s0.371 1.214 0.954 1.214c0.46-0.017 0.827-0.39 0.836-0.851z"></path>
<path class="path22" fill="#fff" d="M46.878 28.314h0.347v0.315c0.117-0.217 0.343-0.363 0.603-0.363 0.002 0 0.003 0 0.005 0 0.007-0 0.016-0.001 0.024-0.001 0.082 0 0.159 0.021 0.226 0.057l-0.074 0.361c-0.055-0.029-0.121-0.045-0.191-0.045-0.015 0-0.029 0.001-0.044 0.002-0.306-0-0.55 0.217-0.55 0.694v1.904h-0.359z"></path>
<path class="path23" fill="#fff" d="M50.49 30.904v0c-0.192 0.257-0.495 0.422-0.837 0.422-0.032 0-0.063-0.001-0.094-0.004-0.654 0-0.958-0.394-0.958-0.824s0.26-0.733 0.978-0.919c0.469-0.122 0.867-0.217 0.867-0.54 0-0.252-0.181-0.481-0.651-0.481-0.019-0.002-0.040-0.003-0.062-0.003-0.356 0-0.649 0.272-0.683 0.619l-0.343-0.076c0.065-0.496 0.485-0.874 0.993-0.874 0.028 0 0.055 0.001 0.083 0.003 0.627-0 1.053 0.28 1.053 1.001v2.011h-0.331zM48.948 30.478c0 0.28 0.134 0.512 0.631 0.512 0.587 0 0.883-0.319 0.883-0.678v-0.788c-0.039 0.095-0.177 0.197-0.788 0.371s-0.725 0.304-0.725 0.583z"></path>
<path class="path24" fill="#fff" d="M51.862 28.645h-0.394v-0.331h0.394v-0.288c0-0.524 0.252-0.651 0.595-0.651h0.438v0.331h-0.394c-0.237 0-0.3 0.055-0.3 0.394v0.233h0.718v0.331h-0.718v2.594h-0.359z"></path>
<path class="path25" fill="#fff" d="M53.651 28.645h-0.394v-0.331h0.418v-0.718h0.335v0.718h0.718v0.331h-0.718v1.746c0 0.335 0.059 0.485 0.355 0.485h0.209v0.355h-0.221c-0.485 0-0.702-0.292-0.702-0.788z"></path>
<path class="path26" fill="#fff" d="M57.018 30.179c0.059 0.548 0.327 0.824 0.852 0.824s0.741-0.225 0.741-0.512-0.15-0.453-0.867-0.647-0.982-0.414-0.982-0.84 0.343-0.788 0.99-0.788c0.027-0.002 0.058-0.004 0.089-0.004 0.502 0 0.921 0.358 1.014 0.833l-0.33 0.093c-0.059-0.348-0.359-0.61-0.72-0.61-0.024 0-0.048 0.001-0.072 0.003-0.45-0-0.644 0.236-0.644 0.457s0.15 0.347 0.816 0.54c0.788 0.229 1.037 0.445 1.037 0.938 0 0.394-0.292 0.84-1.088 0.84-0.032 0.003-0.069 0.005-0.106 0.005-0.606 0-1.098-0.488-1.104-1.093z"></path>
<path class="path27" fill="#fff" d="M59.529 29.777c0-1.001 0.611-1.545 1.313-1.545s1.285 0.548 1.285 1.545-0.564 1.545-1.285 1.545-1.313-0.536-1.313-1.545zM61.773 29.777c0-0.788-0.394-1.214-0.926-1.214s-0.954 0.394-0.954 1.214 0.438 1.214 0.954 1.214 0.93-0.422 0.93-1.214z"></path>
<path class="path28" fill="#fff" d="M64.654 30.904v0c-0.192 0.257-0.495 0.422-0.837 0.422-0.032 0-0.063-0.001-0.094-0.004-0.654 0-0.958-0.394-0.958-0.824s0.26-0.733 0.978-0.919c0.469-0.122 0.867-0.217 0.867-0.54 0-0.252-0.181-0.481-0.651-0.481-0.019-0.002-0.040-0.003-0.062-0.003-0.356 0-0.649 0.272-0.683 0.619l-0.343-0.076c0.065-0.496 0.485-0.874 0.993-0.874 0.028 0 0.055 0.001 0.083 0.003 0.627-0 1.053 0.28 1.053 1.001v2.011h-0.347zM63.113 30.478c0 0.28 0.134 0.512 0.631 0.512 0.587 0 0.883-0.319 0.883-0.678v-0.788c-0.039 0.095-0.177 0.197-0.788 0.371s-0.741 0.304-0.741 0.583z"></path>
<path class="path29" fill="#fff" d="M65.908 28.314h0.347v0.315c0.117-0.217 0.343-0.363 0.603-0.363 0.002 0 0.003 0 0.005 0 0.007-0 0.016-0.001 0.024-0.001 0.082 0 0.159 0.021 0.226 0.057l-0.073 0.361c-0.056-0.029-0.122-0.045-0.191-0.045-0.015 0-0.029 0.001-0.043 0.002-0.306-0-0.55 0.217-0.55 0.694v1.904h-0.359z"></path>
</symbol>
<symbol id="icon-check-symbol" viewBox="0 0 32 32">
<title>check-symbol</title>
<path class="path1" d="M10.182 23.091l-7.636-7.636-2.545 2.545 10.182 10.182 21.818-21.818-2.545-2.545z"></path>
</symbol>
<symbol id="icon-facebook-small" viewBox="0 0 17 32">
<title>facebook-small</title>
<path class="path1" d="M10.781 32v-14.597h4.906l0.727-5.693h-5.633v-3.634c0-1.656 0.464-2.766 2.826-2.766h3.008v-5.088c-1.278-0.142-2.759-0.222-4.259-0.222-0.043 0-0.086 0-0.128 0-0.149-0.013-0.33-0.020-0.512-0.020-3.78 0-6.844 3.064-6.844 6.844 0 0.242 0.013 0.48 0.037 0.715l-0.002 4.17h-4.906v5.693h4.906v14.597z"></path>
</symbol>
<symbol id="icon-google-small" viewBox="0 0 32 32">
<title>google-small</title>
<path class="path1" d="M18.42 20.38c-0.35-0.465-0.717-0.877-1.116-1.256q-0.624-0.604-1.304-1.124l-1.12-0.92c-0.312-0.267-0.583-0.57-0.81-0.904-0.204-0.289-0.323-0.628-0.33-0.994 0.047-0.456 0.228-0.861 0.503-1.185 0.325-0.437 0.679-0.823 1.070-1.17q0.648-0.567 1.268-1.247c0.453-0.502 0.819-1.093 1.067-1.742 0.238-0.683 0.367-1.425 0.367-2.198 0-0.155-0.005-0.308-0.015-0.461 0.002-0.022 0.002-0.072 0.002-0.121 0-1.108-0.244-2.16-0.68-3.104-0.443-0.982-1.163-1.824-2.060-2.421l2.579-0.013 2.58-1.52h-8.42c-0.001 0-0.003 0-0.005 0-1.274 0-2.515 0.138-3.709 0.401-1.665 0.406-3.175 1.369-4.276 2.686-1.232 1.284-1.991 3.008-2.010 4.909-0.002 0.062-0.003 0.13-0.003 0.198 0 1.798 0.77 3.416 1.999 4.542 1.252 1.17 2.932 1.886 4.78 1.886 0.051 0 0.102-0.001 0.153-0.002 0.193 0.013 0.427 0.021 0.662 0.021s0.47-0.007 0.702-0.022c-0.080 0.175-0.127 0.314-0.182 0.45l-0.15 0.391c-0.006 0.057-0.009 0.123-0.009 0.19s0.003 0.133 0.010 0.198c0.015 0.064 0.029 0.117 0.044 0.17 0.093 1.090 0.546 2.078 1.239 2.846-1.047 0.025-2.041 0.119-3.015 0.273-1.053 0.24-2.063 0.543-3.041 0.913-0.908 0.267-1.833 0.731-2.654 1.328-1.437 1.047-2.41 2.709-2.533 4.603-0.001 0.037-0.001 0.059-0.001 0.080 0 0.835 0.215 1.62 0.593 2.302 0.349 0.636 0.826 1.189 1.395 1.627 0.59 0.443 1.249 0.82 1.953 1.108 0.727 0.289 1.513 0.511 2.328 0.651 0.761 0.134 1.556 0.207 2.368 0.21 0.189 0.010 0.406 0.016 0.625 0.016 2.794 0 5.365-0.955 7.404-2.556 1.683-1.222 2.805-3.181 2.894-5.407-0-0.729-0.117-1.417-0.333-2.059-0.186-0.58-0.465-1.124-0.818-1.611zM11 13.38c-0.685-0.002-1.326-0.187-1.878-0.51-0.576-0.329-1.075-0.763-1.474-1.279-0.411-0.533-0.772-1.125-1.064-1.754-0.298-0.629-0.531-1.296-0.691-1.992-0.153-0.654-0.233-1.33-0.233-2.024 0-0.015 0-0.029 0-0.044-0.001-0.039-0.002-0.088-0.002-0.137 0-1.142 0.368-2.198 0.992-3.056 0.588-0.736 1.503-1.213 2.529-1.213 0.078 0 0.155 0.003 0.231 0.008-0-0.001 0.012-0.001 0.024-0.001 0.858 0 1.648 0.294 2.274 0.786 0.677 0.521 1.225 1.191 1.598 1.961 0.37 0.745 0.678 1.578 0.896 2.446 0.214 0.823 0.33 1.669 0.338 2.541 0.004 0.078 0.006 0.163 0.006 0.249 0 1.055-0.316 2.037-0.858 2.856-0.561 0.698-1.435 1.153-2.416 1.153-0.096 0-0.191-0.004-0.285-0.013zM16.32 27.82c-0.348 0.598-0.836 1.080-1.421 1.41-0.595 0.341-1.264 0.603-1.971 0.761-0.685 0.162-1.416 0.249-2.168 0.249-0.014 0-0.028-0-0.042-0-0.039 0.001-0.088 0.001-0.137 0.001-0.794 0-1.567-0.088-2.311-0.254-0.819-0.221-1.597-0.542-2.319-0.952-0.681-0.366-1.28-0.914-1.72-1.577-0.438-0.656-0.692-1.442-0.692-2.286 0-0.025 0-0.050 0.001-0.076-0-0.004-0-0.014-0-0.024 0-0.725 0.193-1.405 0.53-1.992 0.319-0.565 0.763-1.047 1.295-1.411 0.555-0.366 1.178-0.665 1.841-0.875 0.618-0.211 1.292-0.378 1.986-0.486 0.666-0.095 1.359-0.146 2.064-0.149h0.963l0.58 0.4 0.64 0.44 0.6 0.44 0.76 0.56 0.52 0.5c0.184 0.167 0.349 0.351 0.493 0.55l0.407 0.59c0.139 0.189 0.255 0.408 0.335 0.643 0.005 0.237 0.125 0.457 0.185 0.717 0.014 0.117 0.022 0.253 0.022 0.39s-0.008 0.273-0.024 0.406c0.003 0.018 0.003 0.058 0.003 0.097 0 0.737-0.193 1.428-0.532 2.027z"></path>
<path class="path2" d="M27.080 4.92v-4.92h-2.46v4.92h-4.92v2.46h4.92v4.92h2.46v-4.92h4.92v-2.46z"></path>
</symbol>
</defs>
</svg>
