<svg style="position: absolute; width: 0; height: 0; overflow: hidden;" version="1.1" xmlns="http://www.w3.org/2000/svg" xmlns:xlink="http://www.w3.org/1999/xlink">
<defs>
<symbol id="icon-liaison" viewBox="0 0 28 32">
<title>liaison</title>
<path class="path1" fill="#9988c0" d="M8.56 16.3c-0.071-0.068-0.167-0.11-0.273-0.11-0.216 0-0.392 0.174-0.393 0.39v6.953c0 0.217 0.176 0.393 0.393 0.393h6.953c0.216-0.002 0.39-0.177 0.39-0.393 0-0.106-0.042-0.203-0.111-0.273zM8.673 23.14v-5.62l5.62 5.62z"></path>
<path class="path2" fill="#9988c0" d="M28.34 2.413l-2.040-2.040c-0.071-0.070-0.169-0.114-0.277-0.114s-0.206 0.043-0.277 0.114l-11.78 11.78c-0.037 0.037-0.066 0.081-0.086 0.131l-1.294 3.243-5.193-5.187 0.933-0.933c0.055-0.067 0.088-0.154 0.088-0.248 0-0.217-0.176-0.393-0.393-0.393-0.094 0-0.181 0.033-0.249 0.089l-0.933 0.933-1.567-1.567v-7.827c0-0.217-0.176-0.393-0.393-0.393h-4.46c-0.217 0-0.393 0.176-0.393 0.393v31.213c0 0.217 0.176 0.393 0.393 0.393h4.493c0.217 0 0.393-0.176 0.393-0.393v-4.287h18l1.093 1.093c0.067 0.055 0.154 0.088 0.248 0.088 0.217 0 0.393-0.176 0.393-0.393 0-0.094-0.033-0.181-0.089-0.249l-11.733-11.733 3.24-1.293c0.052-0.021 0.096-0.050 0.133-0.087l11.78-11.78c0.070-0.071 0.114-0.169 0.114-0.277s-0.043-0.206-0.114-0.277zM4.493 31.213h-3.707v-0.667h0.667c0.217 0 0.393-0.176 0.393-0.393s-0.176-0.393-0.393-0.393h-0.667v-1.233h0.667c0.217 0 0.393-0.176 0.393-0.393s-0.176-0.393-0.393-0.393h-0.667v-1.233h0.667c0.217 0 0.393-0.176 0.393-0.393s-0.176-0.393-0.393-0.393h-0.667v-1.233h0.667c0.217 0 0.393-0.176 0.393-0.393s-0.176-0.393-0.393-0.393h-0.667v-1.233h0.667c0.217 0 0.393-0.176 0.393-0.393s-0.176-0.393-0.393-0.393h-0.667v-1.233h0.667c0.217 0 0.393-0.176 0.393-0.393s-0.176-0.393-0.393-0.393h-0.667v-1.253h0.667c0.217 0 0.393-0.176 0.393-0.393s-0.176-0.393-0.393-0.393h-0.667v-1.233h0.667c0.217 0 0.393-0.176 0.393-0.393s-0.176-0.393-0.393-0.393h-0.667v-1.26h0.667c0.217 0 0.393-0.176 0.393-0.393s-0.176-0.393-0.393-0.393h-0.667v-1.213h0.667c0.217 0 0.393-0.176 0.393-0.393s-0.176-0.393-0.393-0.393h-0.667v-1.213h0.667c0.217 0 0.393-0.176 0.393-0.393s-0.176-0.393-0.393-0.393h-0.667v-1.213h0.667c0.217 0 0.393-0.176 0.393-0.393s-0.176-0.393-0.393-0.393h-0.667v-1.233h0.667c0.217 0 0.393-0.176 0.393-0.393s-0.176-0.393-0.393-0.393h-0.667v-1.233h0.667c0.217 0 0.393-0.176 0.393-0.393s-0.176-0.393-0.393-0.393h-0.667v-1.233h0.667c0.217 0 0.393-0.176 0.393-0.393s-0.176-0.393-0.393-0.393h-0.667v-0.667h3.707zM5.28 26.547v-17.227l1.907 1.907-1.12 1.113c-0.089 0.073-0.145 0.182-0.145 0.305 0 0.217 0.176 0.393 0.393 0.393 0.123 0 0.232-0.056 0.305-0.144l1.114-1.114 0.873 0.873-1.113 1.113c-0.089 0.073-0.145 0.182-0.145 0.305 0 0.217 0.176 0.393 0.393 0.393 0.123 0 0.232-0.056 0.305-0.144l1.114-1.114 0.873 0.873-1.113 1.113c-0.089 0.073-0.145 0.182-0.145 0.305 0 0.217 0.176 0.393 0.393 0.393 0.123 0 0.232-0.056 0.305-0.144l1.114-1.114 0.873 0.873-1.113 1.113c-0.089 0.073-0.145 0.182-0.145 0.305 0 0.217 0.176 0.393 0.393 0.393 0.123 0 0.232-0.056 0.305-0.144l1.114-1.114 0.873 0.873-1.133 1.12c-0.089 0.073-0.145 0.182-0.145 0.305 0 0.217 0.176 0.393 0.393 0.393 0.123 0 0.232-0.056 0.305-0.144l1.114-1.114 0.873 0.873-1.113 1.113c-0.089 0.073-0.145 0.182-0.145 0.305 0 0.217 0.176 0.393 0.393 0.393 0.123 0 0.232-0.056 0.305-0.144l1.114-1.114 0.873 0.873-1.113 1.113c-0.089 0.073-0.145 0.182-0.145 0.305 0 0.217 0.176 0.393 0.393 0.393 0.123 0 0.232-0.056 0.305-0.144l1.114-1.114 0.873 0.873-1.087 1.12c-0.089 0.073-0.145 0.182-0.145 0.305 0 0.217 0.176 0.393 0.393 0.393 0.123 0 0.232-0.056 0.305-0.144l1.114-1.114 0.873 0.873-1.113 1.113c-0.089 0.073-0.145 0.182-0.145 0.305 0 0.217 0.176 0.393 0.393 0.393 0.123 0 0.232-0.056 0.305-0.144l1.114-1.114 0.873 0.873-1.113 1.113c-0.089 0.073-0.145 0.182-0.145 0.305 0 0.217 0.176 0.393 0.393 0.393 0.123 0 0.232-0.056 0.305-0.144l1.114-1.114 1.907 1.907h-17.213zM15.82 13.46l9.747-9.787 0.467 0.467-9.747 9.747zM15.267 12.907l-0.467-0.467 9.747-9.747 0.467 0.467zM14.393 13.14l1.193 1.193-2 0.793zM26.587 3.627l-1.5-1.493 0.927-0.92 1.487 1.487z"></path>
<path class="path3" fill="#f68c68" d="M25.88 28.82c-0.067-0.055-0.154-0.088-0.248-0.088-0.217 0-0.393 0.176-0.393 0.393 0 0.094 0.033 0.181 0.089 0.249l1.206 1.206c0.073 0.089 0.182 0.145 0.305 0.145 0.217 0 0.393-0.176 0.393-0.393 0-0.123-0.056-0.232-0.144-0.305z"></path>
<path class="path4" fill="#f68c68" d="M28.047 31.007c-0.073-0.089-0.182-0.145-0.305-0.145-0.217 0-0.393 0.176-0.393 0.393 0 0.123 0.056 0.232 0.144 0.305l0.001 0.001c0.073 0.089 0.182 0.145 0.305 0.145 0.217 0 0.393-0.176 0.393-0.393 0-0.123-0.056-0.232-0.144-0.305z"></path>
<path class="path5" fill="#f68c68" d="M15.507 2.060c0.001 0 0.002 0 0.004 0 0.108 0 0.205-0.043 0.276-0.113l0.060-0.060c0.089-0.073 0.145-0.182 0.145-0.305 0-0.217-0.176-0.393-0.393-0.393-0.123 0-0.232 0.056-0.305 0.144l-0.061 0.061c-0.068 0.071-0.111 0.167-0.111 0.273 0 0.216 0.175 0.392 0.39 0.393z"></path>
<path class="path6" fill="#f68c68" d="M13.34 4.227c0.001 0 0.002 0 0.004 0 0.108 0 0.205-0.043 0.276-0.113l1.207-1.207c0.055-0.067 0.088-0.154 0.088-0.248 0-0.217-0.176-0.393-0.393-0.393-0.094 0-0.181 0.033-0.249 0.089l-1.186 1.199c-0.068 0.071-0.111 0.167-0.111 0.273 0 0.216 0.175 0.392 0.39 0.393z"></path>
<path class="path7" fill="#f68c68" d="M11.173 6.393c0.001 0 0.002 0 0.004 0 0.108 0 0.205-0.043 0.276-0.113l1.207-1.207c0.055-0.067 0.088-0.154 0.088-0.248 0-0.217-0.176-0.393-0.393-0.393-0.094 0-0.181 0.033-0.249 0.089l-1.206 1.206c-0.068 0.071-0.111 0.167-0.111 0.273 0 0.216 0.175 0.392 0.39 0.393z"></path>
<path class="path8" fill="#f68c68" d="M9.007 8.56c0.001 0 0.002 0 0.004 0 0.108 0 0.205-0.043 0.276-0.113l1.207-1.207c0.089-0.073 0.145-0.182 0.145-0.305 0-0.217-0.176-0.393-0.393-0.393-0.123 0-0.232 0.056-0.305 0.144l-1.207 1.207c-0.068 0.071-0.111 0.167-0.111 0.273 0 0.216 0.175 0.392 0.39 0.393z"></path>
</symbol>
<symbol id="icon-eurocontrol" viewBox="0 0 32 32">
<title>eurocontrol</title>
<path class="path1" d="M26.805 5.385c-2.372-3.274-6.183-5.378-10.485-5.378-7.13 0-12.91 5.78-12.91 12.91 0 0.931 0.098 1.838 0.286 2.713l12.985-5.84h-7.12c1.21-2.564 3.774-4.306 6.744-4.306 2.052 0 3.91 0.831 5.256 2.176z"></path>
<path class="path2" d="M0 17.96l29.45-13.21-12.95 13.21h-16.5z"></path>
<path class="path3" d="M16.27 20.34c-1.815-0.001-3.48-0.64-4.784-1.706l-6.941 0.011c2.237 4.292 6.654 7.173 11.744 7.173 5.231 0 9.751-3.042 11.887-7.454l-6.701-0.079c-1.353 1.273-3.18 2.055-5.189 2.055-0.005 0-0.011 0-0.016-0z"></path>
<path class="path4" d="M2.73 30.56h-1.175v0.94h1.315v0.47h-1.87v-3.15h1.8v0.47h-1.245v0.81h1.175z"></path>
<path class="path5" d="M3.94 28.82v1.825c0 0.615 0.255 0.895 0.64 0.895s0.66-0.285 0.66-0.895v-1.825h0.57v1.79c0 0.965-0.5 1.395-1.25 1.395s-1.195-0.405-1.195-1.39v-1.795z"></path>
<path class="path6" d="M6.465 28.865c0.249-0.045 0.536-0.070 0.829-0.070 0.013 0 0.025 0 0.037 0 0.040-0.004 0.088-0.007 0.136-0.007 0.309 0 0.596 0.096 0.831 0.26 0.161 0.143 0.266 0.357 0.266 0.594 0 0.011-0 0.023-0.001 0.034 0 0 0 0.002 0 0.004 0 0.362-0.234 0.669-0.559 0.778l-0.006 0.002c0.235 0.114 0.401 0.337 0.435 0.601 0.078 0.357 0.162 0.649 0.262 0.935l-0.607-0.056c-0.085-0.21-0.158-0.458-0.206-0.715-0.099-0.435-0.239-0.565-0.564-0.575h-0.29v1.3h-0.565zM7.030 30.245h0.34c0.385 0 0.62-0.205 0.62-0.5s-0.235-0.5-0.61-0.5c-0.011-0-0.025-0-0.039-0-0.112 0-0.221 0.011-0.327 0.032z"></path>
<path class="path7" d="M10.385 32c-0.001 0-0.001 0-0.002 0-0.801 0-1.45-0.649-1.45-1.45 0-0.051 0.003-0.102 0.008-0.151-0.005-0.036-0.007-0.084-0.007-0.134 0-0.828 0.672-1.5 1.5-1.5 0.002 0 0.005 0 0.007 0s0.007-0 0.011-0c0.798 0 1.445 0.647 1.445 1.445 0 0.049-0.002 0.098-0.007 0.146 0.001 1.044-0.634 1.644-1.499 1.644zM10.415 31.54c0.55 0 0.865-0.5 0.865-1.165s-0.29-1.145-0.865-1.145-0.87 0.545-0.87 1.165 0.315 1.145 0.865 1.145z"></path>
<path class="path8" d="M14.615 31.855c-0.226 0.092-0.488 0.146-0.763 0.146-0.018 0-0.037-0-0.055-0.001-0.026 0.002-0.060 0.003-0.094 0.003-0.828 0-1.5-0.672-1.5-1.5 0-0.027 0.001-0.055 0.002-0.082-0.001-0.020-0.002-0.047-0.002-0.075 0-0.87 0.705-1.575 1.575-1.575 0.036 0 0.071 0.001 0.107 0.004 0.016-0.001 0.041-0.002 0.066-0.002 0.247 0 0.482 0.050 0.696 0.141l-0.132 0.451c-0.176-0.076-0.38-0.12-0.595-0.12-0.007 0-0.014 0-0.021 0-0.017-0.001-0.039-0.002-0.060-0.002-0.574 0-1.040 0.466-1.040 1.040 0 0.039 0.002 0.078 0.006 0.116-0.004 0.028-0.007 0.067-0.007 0.105 0 0.552 0.448 1 1 1 0.036 0 0.071-0.002 0.105-0.006 0.005 0.001 0.017 0.001 0.029 0.001 0.203 0 0.398-0.035 0.579-0.099z"></path>
<path class="path9" d="M16.26 32c-0.001 0-0.001 0-0.002 0-0.801 0-1.45-0.649-1.45-1.45 0-0.051 0.003-0.102 0.008-0.151-0.005-0.036-0.007-0.084-0.007-0.134 0-0.828 0.672-1.5 1.5-1.5 0.002 0 0.005 0 0.007 0s0.007-0 0.011-0c0.798 0 1.445 0.647 1.445 1.445 0 0.049-0.002 0.098-0.007 0.146 0 1.044-0.634 1.644-1.5 1.644zM16.29 31.54c0.55 0 0.865-0.5 0.865-1.165s-0.295-1.145-0.865-1.145-0.87 0.545-0.87 1.165 0.315 1.145 0.865 1.145z"></path>
<path class="path10" d="M18.245 31.95v-3.13h0.655l0.81 1.34c0.175 0.289 0.354 0.634 0.511 0.99l0.024 0.060c-0.033-0.339-0.051-0.733-0.051-1.131 0-0.058 0-0.115 0.001-0.172l-0-1.086h0.53v3.13h-0.59l-0.815-1.38c-0.178-0.291-0.365-0.641-0.532-1.003l-0.028-0.067c0 0.405 0.035 0.815 0.035 1.33v1.12z"></path>
<path class="path11" d="M22 29.3h-0.905v-0.5h2.365v0.5h-0.9v2.65h-0.56z"></path>
<path class="path12" d="M23.82 28.865c0.249-0.045 0.536-0.070 0.829-0.070 0.013 0 0.025 0 0.038 0 0.040-0.004 0.088-0.007 0.136-0.007 0.309 0 0.596 0.096 0.831 0.26 0.161 0.143 0.266 0.357 0.266 0.594 0 0.011-0 0.023-0.001 0.034-0 0.362-0.237 0.669-0.564 0.777l-0.006 0.002c0.235 0.114 0.401 0.337 0.435 0.601 0.078 0.356 0.162 0.649 0.262 0.934l-0.602-0.055c-0.085-0.21-0.158-0.458-0.206-0.715-0.099-0.435-0.239-0.565-0.564-0.575h-0.29v1.305h-0.565zM24.385 30.245h0.34c0.385 0 0.62-0.205 0.62-0.5s-0.235-0.5-0.61-0.5c-0.010-0-0.022-0-0.034-0-0.112 0-0.221 0.011-0.327 0.032z"></path>
<path class="path13" d="M27.745 32c-0.001 0-0.001 0-0.002 0-0.801 0-1.45-0.649-1.45-1.45 0-0.051 0.003-0.102 0.008-0.151-0.005-0.036-0.007-0.084-0.007-0.134 0-0.828 0.672-1.5 1.5-1.5 0.002 0 0.005 0 0.007 0s0.007-0 0.011-0c0.798 0 1.445 0.647 1.445 1.445 0 0.049-0.002 0.098-0.007 0.146 0 1.044-0.634 1.644-1.5 1.644zM27.775 31.54c0.55 0 0.865-0.5 0.865-1.165s-0.295-1.145-0.865-1.145-0.87 0.545-0.87 1.165 0.315 1.145 0.865 1.145z"></path>
<path class="path14" d="M29.73 28.82h0.57v2.65h1.285v0.5h-1.855z"></path>
</symbol>
<symbol id="icon-analyze" viewBox="0 0 29 32">
<title>analyze</title>
<path class="path1" fill="#f98c67" d="M27.77 25.492c-0.034-0.007-0.072-0.012-0.112-0.012-0.263 0-0.482 0.187-0.532 0.435-0.472 2.843-2.903 4.984-5.836 5-2.765-0.008-5.107-1.806-5.928-4.295l2.537-0.044v-1.085h-4.339v4.339h1.085v-2.088c1.191 2.529 3.716 4.25 6.643 4.258 3.455-0.001 6.325-2.5 6.903-5.788 0.013-0.074 0.017-0.111 0.017-0.149 0-0.26-0.183-0.477-0.427-0.53z"></path>
<path class="path2" fill="#f98c67" d="M27.661 18.983v2.339c-1.188-2.366-3.593-3.962-6.372-3.966-0.012-0-0.025-0-0.038-0-3.337 0-6.163 2.192-7.115 5.215-0.028 0.099-0.036 0.151-0.036 0.205 0 0.3 0.243 0.544 0.544 0.544 0.246 0 0.454-0.163 0.521-0.387 0.853-2.616 3.258-4.473 6.1-4.492 2.524 0.018 4.68 1.564 5.594 3.756l-2.453 0.040v1.085h4.339v-4.339z"></path>
<path class="path3" fill="#f98c67" d="M3.708 9.763h7.051c0.3 0 0.542-0.243 0.542-0.542s-0.243-0.542-0.542-0.542h-7.051c-0.3 0-0.542 0.243-0.542 0.542s0.243 0.542 0.542 0.542z"></path>
<path class="path4" fill="#9a88c0" d="M9.675 26.034c0.3 0 0.542-0.243 0.542-0.542s-0.243-0.542-0.542-0.542h-5.966c-0.3 0-0.542 0.243-0.542 0.542s0.243 0.542 0.542 0.542z"></path>
<path class="path5" fill="#9a88c0" d="M19.437 11.932h-15.729c-0.3 0-0.542 0.243-0.542 0.542s0.243 0.542 0.542 0.542h15.729c0.3 0 0.542-0.243 0.542-0.542s-0.243-0.542-0.542-0.542z"></path>
<path class="path6" fill="#9a88c0" d="M12.929 18.441h-9.22c-0.3 0-0.542 0.243-0.542 0.542s0.243 0.542 0.542 0.542h9.22c0.3 0 0.542-0.243 0.542-0.542s-0.243-0.542-0.542-0.542z"></path>
<path class="path7" fill="#f98c67" d="M11.302 21.695h-7.593c-0.3 0-0.542 0.243-0.542 0.542s0.243 0.542 0.542 0.542h7.593c0.3 0 0.542-0.243 0.542-0.542s-0.243-0.542-0.542-0.542z"></path>
<path class="path8" fill="#9a88c0" d="M3.708 15.186c-0.3 0-0.542 0.243-0.542 0.542s0.243 0.542 0.542 0.542h7.593c0.3 0 0.542-0.243 0.542-0.542s-0.243-0.542-0.542-0.542z"></path>
<path class="path9" fill="#f98c67" d="M19.437 15.186h-3.797c-0.3 0-0.542 0.243-0.542 0.542s0.243 0.542 0.542 0.542h3.797c0.3 0 0.542-0.243 0.542-0.542s-0.243-0.542-0.542-0.542z"></path>
<path class="path10" fill="#9a88c0" d="M13.092 15.322c-0.1 0.099-0.162 0.235-0.163 0.386 0.006 0.299 0.249 0.539 0.549 0.539 0.147 0 0.281-0.058 0.38-0.153 0.096-0.1 0.155-0.236 0.156-0.386 0-0.001 0-0.002 0-0.003 0-0.149-0.059-0.284-0.156-0.383-0.1-0.093-0.235-0.15-0.383-0.15s-0.283 0.057-0.383 0.151z"></path>
<path class="path11" fill="#9a88c0" d="M10.847 30.373h-9.763v-26.034h3.797v1.085c0 0.3 0.243 0.542 0.542 0.542h12.475c0.3 0 0.542-0.243 0.542-0.542v-1.085h3.797v10.305c0 0.3 0.243 0.542 0.542 0.542s0.542-0.243 0.542-0.542v-10.847c0-0.3-0.243-0.542-0.542-0.542h-4.339v-1.085c0-0.3-0.243-0.542-0.542-0.542h-3.254v-1.085c0-0.3-0.243-0.542-0.542-0.542h-4.881c-0.3 0-0.542 0.243-0.542 0.542v1.085h-3.254c-0.3 0-0.542 0.243-0.542 0.542v1.085h-4.339c-0.3 0-0.542 0.243-0.542 0.542v27.119c0 0.3 0.243 0.542 0.542 0.542h10.305c0.3 0 0.542-0.243 0.542-0.542s-0.243-0.542-0.542-0.542zM9.763 1.085h3.797v2.17h-3.797zM5.966 2.712h2.712v1.085c0 0.3 0.243 0.542 0.542 0.542h4.881c0.3 0 0.542-0.243 0.542-0.542v-1.085h2.712v2.169h-11.39z"></path>
</symbol>
<symbol id="icon-aviation" viewBox="0 0 68 32">
<title>aviation</title>
<path class="path1" fill="#f98c67" d="M26.81 15.29c-0.173 0.183-0.279 0.431-0.279 0.703s0.106 0.52 0.279 0.704l1.673 1.673c-0.761 1.044-1.217 2.353-1.217 3.768 0 3.558 2.884 6.442 6.442 6.442s6.442-2.884 6.442-6.442c0-1.415-0.456-2.723-1.23-3.786l1.687-1.655c0.173-0.183 0.279-0.431 0.279-0.703s-0.106-0.52-0.279-0.704c-1.765-1.76-4.201-2.848-6.892-2.848s-5.127 1.088-6.893 2.849zM33.702 26.542c-2.416 0-4.375-1.959-4.375-4.375s1.959-4.375 4.375-4.375c2.416 0 4.374 1.959 4.374 4.375 0 0.004 0 0.009 0 0.014 0 2.396-1.927 4.342-4.315 4.374zM37.458 16.949c-1.042-0.762-2.349-1.22-3.763-1.22s-2.721 0.457-3.781 1.232l-0.868-0.955c1.276-0.976 2.894-1.563 4.649-1.563s3.373 0.588 4.667 1.577z"></path>
<path class="path2" fill="#9a88c0" d="M66.644 13.925c-0.083-0.024-0.178-0.038-0.276-0.038-0.47 0-0.867 0.316-0.988 0.748-0.612 2.18-2.569 3.749-4.895 3.763h-14.419c-0.279-3.266-1.787-6.134-4.054-8.177l4.518-0.010c0.571 0 1.034-0.463 1.034-1.034s-0.463-1.034-1.034-1.034h-7.666c-1.204-0.568-2.603-0.954-4.076-1.080l-0.046-5.939c0-0.571-0.463-1.034-1.034-1.034s-1.034 0.463-1.034 1.034v5.95c-1.519 0.129-2.918 0.515-4.196 1.115l-7.605-0.032c-0.571 0-1.034 0.463-1.034 1.034s0.463 1.034 1.034 1.034h4.529c-2.278 2.052-3.786 4.92-4.062 8.14l-14.393 0.046c-2.352-0.013-4.327-1.609-4.915-3.776-0.143-0.476-0.545-0.79-1.021-0.79-0.584 0-1.057 0.473-1.057 1.057 0 0.108 0.016 0.212 0.046 0.31 0.868 3.045 3.628 5.245 6.903 5.253h1.408c-1.063 1.146-1.716 2.686-1.716 4.378 0 3.558 2.884 6.442 6.442 6.442s6.442-2.884 6.442-6.442c0-1.692-0.653-3.232-1.72-4.382l3.52 0.004c0.545 6.398 5.872 11.384 12.364 11.384s11.819-4.986 12.361-11.338l3.52-0.046c-1.072 1.149-1.73 2.697-1.73 4.398 0 3.566 2.891 6.456 6.456 6.456s6.456-2.891 6.456-6.456c0-1.701-0.658-3.249-1.734-4.402l1.41 0.004c3.276-0.009 6.037-2.208 6.894-5.21 0.034-0.13 0.047-0.222 0.047-0.317 0-0.472-0.314-0.87-0.745-0.998zM13.095 29.229c-2.424 0-4.389-1.965-4.389-4.389s1.965-4.389 4.389-4.389c2.424 0 4.389 1.965 4.389 4.389s-1.965 4.389-4.389 4.389zM33.758 29.778c-5.71 0-10.338-4.629-10.338-10.338s4.629-10.338 10.338-10.338c5.71 0 10.338 4.629 10.338 10.338-0.008 5.707-4.632 10.33-10.338 10.338zM54.365 29.243c-2.424 0-4.389-1.965-4.389-4.389s1.965-4.389 4.389-4.389c2.424 0 4.389 1.965 4.389 4.389s-1.965 4.389-4.389 4.389z"></path>
<path class="path3" fill="#f98c67" d="M54.309 21.521c-1.829 0.016-3.306 1.502-3.306 3.334 0 1.841 1.492 3.334 3.334 3.334s3.334-1.492 3.334-3.334c0-1.841-1.492-3.334-3.334-3.334zM54.309 26.12c-0.699 0-1.266-0.567-1.266-1.266s0.567-1.266 1.266-1.266c0.699 0 1.266 0.567 1.266 1.266s-0.567 1.266-1.266 1.266z"></path>
<path class="path4" fill="#f98c67" d="M13.095 21.521c-1.841 0-3.334 1.492-3.334 3.334s1.492 3.334 3.334 3.334c1.841 0 3.334-1.492 3.334-3.334s-1.492-3.334-3.334-3.334zM13.095 26.12c-0.699 0-1.266-0.567-1.266-1.266s0.567-1.266 1.266-1.266c0.699 0 1.266 0.567 1.266 1.266s-0.567 1.266-1.266 1.266z"></path>
<path class="path5" fill="#9a88c0" d="M33.758 21.155c-0.006-0-0.013-0-0.020-0-0.567 0-1.027 0.46-1.027 1.027s0.46 1.027 1.027 1.027c0.567 0 1.027-0.46 1.027-1.027 0-0.142-0.029-0.277-0.081-0.4-0.156-0.36-0.51-0.614-0.924-0.626z"></path>
<path class="path6" fill="#000" d="M34.658 21.788v0z"></path>
</symbol>
<symbol id="icon-certification" viewBox="0 0 27 32">
<title>certification</title>
<path class="path1" fill="#9a88c0" d="M26.533 28.487l-4.233-10.227c-0.082-0.19-0.267-0.321-0.483-0.321-0.29 0-0.524 0.235-0.524 0.524 0 0.073 0.015 0.143 0.042 0.207l3.832 9.243-3.493-1.013c-0.041-0.012-0.088-0.019-0.137-0.019-0.192 0-0.36 0.106-0.448 0.263l-1.755 3.169-4.093-9.92c4.792-0.945 8.357-5.114 8.357-10.115 0-5.689-4.611-10.3-10.3-10.3s-10.3 4.611-10.3 10.3c0 2.317 0.765 4.454 2.056 6.175l-5.012 12.033c-0.018 0.051-0.029 0.109-0.029 0.17 0 0.284 0.23 0.513 0.513 0.513 0.046 0 0.090-0.006 0.132-0.017l4.116-1.153 2.067 3.76c0.088 0.159 0.255 0.265 0.446 0.267h0c0.198-0.013 0.365-0.137 0.439-0.31l3.961-9.557c0.019-0.051 0.029-0.11 0.029-0.171 0-0.284-0.23-0.513-0.513-0.513-0.203 0-0.378 0.117-0.461 0.288l-3.515 8.55-1.753-3.187c-0.089-0.159-0.257-0.265-0.449-0.265-0.049 0-0.096 0.007-0.141 0.020l-3.496 1.012 4.387-10.56c1.878 2.012 4.546 3.267 7.507 3.267 0.002 0 0.004 0 0.006 0 0.306 0 0.606 0 0.906-0.040l4.62 11.147c0.075 0.176 0.242 0.3 0.438 0.313l0.002 0c0.192-0.001 0.358-0.108 0.445-0.264l2.101-3.756 4.12 1.193c0.039 0.010 0.083 0.016 0.129 0.016 0.284 0 0.513-0.23 0.513-0.513 0-0.061-0.011-0.119-0.030-0.173zM4 10.287c0-5.118 4.149-9.267 9.267-9.267s9.267 4.149 9.267 9.267c0 5.118-4.149 9.267-9.267 9.267-5.115-0.008-9.259-4.152-9.267-9.266z"></path>
<path class="path2" fill="#9a88c0" d="M19.187 8.373c-0.060-0.179-0.211-0.313-0.397-0.346l-3.456-0.58-1.593-3.087c-0.088-0.163-0.258-0.272-0.453-0.272s-0.365 0.109-0.452 0.27l-1.608 3.089-3.44 0.553c-0.242 0.045-0.422 0.254-0.422 0.505 0 0.138 0.054 0.263 0.143 0.355l2.44 2.486-0.513 3.447c-0.003 0.022-0.005 0.047-0.005 0.072 0 0.284 0.23 0.513 0.513 0.513 0.082 0 0.159-0.019 0.228-0.053l3.117-1.552 3.12 1.56c0.075 0.046 0.166 0.073 0.263 0.073s0.188-0.027 0.266-0.074c0.127-0.092 0.21-0.242 0.21-0.411 0-0.026-0.002-0.052-0.006-0.077l-0.513-3.444 2.44-2.487c0.090-0.091 0.145-0.217 0.145-0.355 0-0.057-0.009-0.111-0.026-0.162zM15.72 10.84c-0.090 0.092-0.146 0.219-0.146 0.358 0 0.027 0.002 0.053 0.006 0.078l0.42 2.724-2.467-1.227c-0.066-0.033-0.144-0.053-0.227-0.053s-0.161 0.019-0.23 0.054l-2.484 1.225 0.407-2.727c0.004-0.023 0.006-0.050 0.006-0.078 0-0.139-0.056-0.264-0.146-0.356l-1.933-2 2.72-0.453c0.16-0.028 0.293-0.128 0.365-0.264l1.275-2.449 1.273 2.447c0.074 0.139 0.207 0.238 0.364 0.266l2.723 0.454z"></path>
<path class="path3" fill="#f98c67" d="M21.020 10.807c-0.019-0.003-0.042-0.004-0.065-0.004-0.259 0-0.473 0.192-0.508 0.441-0.488 3.563-3.509 6.276-7.164 6.276-3.991 0-7.227-3.236-7.227-7.227s3.236-7.227 7.227-7.227c3.655 0 6.676 2.713 7.159 6.236 0.058 0.268 0.262 0.436 0.505 0.436 0.284 0 0.513-0.23 0.513-0.513 0-0.007-0-0.013-0-0.019-0.557-4.060-4.004-7.156-8.174-7.156-4.555 0-8.247 3.692-8.247 8.247s3.692 8.247 8.247 8.247c4.17 0 7.617-3.095 8.169-7.114 0.007-0.062 0.009-0.085 0.009-0.108 0-0.259-0.192-0.473-0.441-0.508z"></path>
</symbol>
<symbol id="icon-checked-mark" viewBox="0 0 32 32">
<title>checked-mark</title>
<path class="path1" d="M31.683 7.425l-3.567-3.567c-0.422-0.422-1.107-0.422-1.529 0l-14.857 14.857-6.319-6.319c-0.422-0.422-1.107-0.422-1.529 0l-3.567 3.567c-0.422 0.422-0.422 1.106 0 1.529l10.65 10.65c0.211 0.211 0.488 0.317 0.764 0.317s0.553-0.105 0.764-0.317l19.188-19.188c0.203-0.203 0.317-0.478 0.317-0.764s-0.114-0.562-0.317-0.764z"></path>
</symbol>
<symbol id="icon-electrical" viewBox="0 0 35 32">
<title>electrical</title>
<path class="path1" fill="#9a88c0" d="M27.921 14.982h-20.433c-0.377 0-0.682-0.306-0.682-0.682s0.306-0.682 0.682-0.682h20.433c3.386 0 6.13-2.745 6.13-6.13s-2.744-6.13-6.13-6.13h-20.433c-0.377 0-0.682-0.305-0.682-0.682s0.306-0.682 0.682-0.682h20.433c4.137 0 7.491 3.354 7.491 7.491s-3.354 7.491-7.491 7.491z"></path>
<path class="path2" fill="#9a88c0" d="M7.487 14.982c-4.132-0.004-7.48-3.355-7.48-7.487 0-4.135 3.352-7.487 7.487-7.487 4.133 0 7.483 3.348 7.487 7.48-0.004 4.138-3.357 7.491-7.494 7.495zM7.487 1.365c-3.386 0-6.13 2.744-6.13 6.13s2.744 6.13 6.13 6.13c3.386 0 6.13-2.745 6.13-6.13 0-3.387-2.744-6.133-6.13-6.137z"></path>
<path class="path3" fill="#f98c67" d="M7.487 11.574c-2.257 0-4.087-1.83-4.087-4.087s1.83-4.087 4.087-4.087c2.257 0 4.087 1.83 4.087 4.087s-1.83 4.087-4.087 4.087zM7.487 4.765c-1.503 0-2.722 1.219-2.722 2.722s1.219 2.722 2.722 2.722c1.503 0 2.722-1.219 2.722-2.722-0.004-1.502-1.22-2.718-2.722-2.722z"></path>
<path class="path4" fill="#9a88c0" d="M27.921 32h-20.433c-4.137 0-7.491-3.354-7.491-7.491s3.354-7.491 7.491-7.491h20.433c0.377 0 0.682 0.305 0.682 0.682s-0.305 0.682-0.682 0.682h-20.433c-3.386 0-6.13 2.744-6.13 6.13s2.744 6.13 6.13 6.13h20.433c0.377 0 0.682 0.305 0.682 0.682s-0.305 0.682-0.682 0.682z"></path>
<path class="path5" fill="#9a88c0" d="M27.921 32c-4.135 0-7.487-3.352-7.487-7.487s3.352-7.487 7.487-7.487c4.135 0 7.487 3.352 7.487 7.487-0.008 4.132-3.356 7.479-7.487 7.487zM27.921 18.383c-3.386 0-6.13 2.744-6.13 6.13s2.744 6.13 6.13 6.13c3.386 0 6.13-2.744 6.13-6.13-0.004-3.384-2.746-6.126-6.13-6.13z"></path>
<path class="path6" fill="#f98c67" d="M27.921 28.599c-2.257 0-4.087-1.83-4.087-4.087s1.83-4.087 4.087-4.087c2.257 0 4.087 1.83 4.087 4.087s-1.83 4.087-4.087 4.087zM27.921 21.791c-1.503 0-2.722 1.219-2.722 2.722s1.219 2.722 2.722 2.722c1.503 0 2.722-1.219 2.722-2.722-0.004-1.502-1.22-2.718-2.722-2.722z"></path>
</symbol>
<symbol id="icon-expertise" viewBox="0 0 39 32">
<title>expertise</title>
<path class="path1" fill="#9a88c0" d="M37.513 7.269l-15.835-6.751c-0.646-0.283-1.399-0.447-2.19-0.447s-1.544 0.164-2.226 0.461l-15.754 6.737c-0.876 0.387-1.477 1.249-1.477 2.25s0.601 1.863 1.461 2.244l1.883 0.809s0 0.037 0 0.060v8.851c-0.716 0.259-1.219 0.933-1.219 1.725 0 0.471 0.178 0.9 0.47 1.225-0.322 0.312-0.535 0.734-0.578 1.206l-0.451 4.936c-0.003 0.031-0.005 0.068-0.005 0.105 0 0.666 0.539 1.206 1.205 1.208h2.371c0.666-0.002 1.205-0.542 1.205-1.208 0-0.037-0.002-0.074-0.005-0.11l-0.45-4.924c-0.045-0.479-0.257-0.902-0.577-1.215 0.29-0.323 0.468-0.752 0.468-1.223 0-0.792-0.503-1.466-1.206-1.721l-0.013-8.413 3.196 1.373c-0.001 0.009-0.001 0.019-0.001 0.030s0 0.021 0.001 0.031l-0 4.492c0 1.86 1.275 3.586 3.586 4.846 2.268 1.156 4.946 1.834 7.783 1.834 0.125 0 0.25-0.001 0.374-0.004 0.085 0.003 0.206 0.004 0.328 0.004 2.867 0 5.572-0.692 7.957-1.917 2.212-1.222 3.488-2.955 3.488-4.8v-4.463s0-0.037 0-0.060l6.211-2.663c0.876-0.387 1.477-1.249 1.477-2.25s-0.601-1.863-1.461-2.244zM5.153 30.725v0h-2.4l0.405-4.973c0-0.429 0.348-0.776 0.776-0.776s0.776 0.348 0.776 0.776l0.45 4.928zM3.938 23.884c-0.365 0-0.66-0.296-0.66-0.66s0.296-0.66 0.66-0.66c0.365 0 0.66 0.296 0.66 0.66s-0.296 0.66-0.66 0.66zM30.14 16.473c0 1.5-1.245 3-3.413 4.043-0.196 0.097-0.328 0.296-0.328 0.526 0 0.323 0.262 0.585 0.585 0.585 0.010 0 0.020-0 0.030-0.001 0.092-0 0.179-0.022 0.257-0.061 1.113-0.523 2.060-1.23 2.84-2.091-0.211 1.223-1.231 2.385-2.926 3.316-2.121 1.086-4.627 1.722-7.282 1.722-0.138 0-0.275-0.002-0.412-0.005-0.066 0.002-0.169 0.003-0.271 0.003-2.683 0-5.213-0.65-7.443-1.801-1.597-0.88-2.617-2.043-2.842-3.265 0.666 0.739 1.45 1.355 2.325 1.823 2.347 1.22 5.072 1.923 7.96 1.923 0.103 0 0.205-0.001 0.307-0.003-0.013 0-0.010 0-0.007 0 0.901 0 1.79-0.057 2.661-0.168 0.215 0.004 0.47-0.255 0.47-0.574 0-0.323-0.262-0.585-0.585-0.585-0.047 0-0.092 0.005-0.135 0.016-0.67 0.081-1.451 0.128-2.243 0.128-0.062 0-0.124-0-0.186-0.001-0.094 0.002-0.216 0.004-0.339 0.004-2.66 0-5.171-0.639-7.387-1.772-1.828-1.008-2.909-2.365-2.909-3.783v-1.5l8.439 3.616c0.646 0.283 1.399 0.447 2.19 0.447s1.544-0.164 2.226-0.461l8.395-3.602zM37.078 10.704l-15.827 6.751c-0.511 0.224-1.107 0.354-1.733 0.354s-1.222-0.13-1.761-0.365l-12.078-5.142 11.087-1.928c0.648 0.61 1.523 0.984 2.486 0.984 0.091 0 0.182-0.003 0.272-0.010 1.743 0.001 3.064-0.749 3.064-1.83s-1.32-1.83-3.075-1.83c-1.59 0-2.828 0.653-3.045 1.553l-12.624 2.198-0.083 0.060-1.785-0.75c-0.464-0.2-0.783-0.653-0.783-1.181s0.319-0.982 0.775-1.178l15.836-6.754c0.511-0.224 1.107-0.354 1.733-0.354s1.222 0.13 1.761 0.365l15.806 6.74c0.464 0.2 0.783 0.653 0.783 1.181s-0.319 0.982-0.775 1.178zM17.575 9.527c0-0.173 0.66-0.66 1.905-0.66s1.905 0.495 1.905 0.66-0.653 0.66-1.905 0.66-1.905-0.495-1.905-0.66z"></path>
<path class="path2" fill="#f98c67" d="M23.869 22.706h0.135c0.443-0.105 0.878-0.218 1.29-0.353 0.28-0.047 0.49-0.288 0.49-0.577 0-0.323-0.262-0.585-0.585-0.585-0.094 0-0.182 0.022-0.261 0.061-0.379 0.119-0.784 0.231-1.197 0.329-0.262 0.062-0.454 0.294-0.454 0.57 0 0.322 0.26 0.583 0.581 0.585z"></path>
</symbol>
<symbol id="icon-job" viewBox="0 0 29 32">
<title>job</title>
<path class="path1" fill="#f98c67" d="M28.74 31.093l-3.193-3.333c0.945-1.029 1.524-2.408 1.524-3.922 0-3.207-2.6-5.807-5.807-5.807s-5.807 2.6-5.807 5.807c0 3.207 2.6 5.807 5.807 5.807 1.316 0 2.53-0.438 3.504-1.176l3.192 3.344c0.097 0.103 0.235 0.166 0.387 0.167 0.002 0 0.004 0 0.006 0 0.295 0 0.533-0.239 0.533-0.533 0-0.145-0.058-0.277-0.153-0.373zM16.58 23.88c0-0.002 0-0.004 0-0.007 0-2.599 2.107-4.707 4.707-4.707s4.707 2.107 4.707 4.707c0 2.599-2.107 4.707-4.707 4.707-0.002 0-0.005 0-0.007 0-2.594-0.004-4.696-2.106-4.7-4.7z"></path>
<path class="path2" fill="#f98c67" d="M3.653 9.627h6.953c0.295 0 0.533-0.239 0.533-0.533s-0.239-0.533-0.533-0.533h-6.953c-0.295 0-0.533 0.239-0.533 0.533s0.239 0.533 0.533 0.533z"></path>
<path class="path3" fill="#9a88c0" d="M3.653 24.6c-0.295 0-0.533 0.239-0.533 0.533s0.239 0.533 0.533 0.533h7.58c0.295 0 0.533-0.239 0.533-0.533s-0.239-0.533-0.533-0.533z"></path>
<path class="path4" fill="#9a88c0" d="M19.7 12.3c0-0.295-0.239-0.533-0.533-0.533h-15.513c-0.295 0-0.533 0.239-0.533 0.533s0.239 0.533 0.533 0.533h15.513c0.295 0 0.533-0.239 0.533-0.533z"></path>
<path class="path5" fill="#9a88c0" d="M14.447 18.187h-10.793c-0.296 0-0.537 0.24-0.537 0.537s0.24 0.537 0.537 0.537h10.793c0.296 0 0.537-0.24 0.537-0.537s-0.24-0.537-0.537-0.537z"></path>
<path class="path6" fill="#f98c67" d="M13.373 21.927c0-0.295-0.239-0.533-0.533-0.533h-9.187c-0.296 0-0.537 0.24-0.537 0.537s0.24 0.537 0.537 0.537h9.18c0.295 0 0.533-0.239 0.533-0.533z"></path>
<path class="path7" fill="#9a88c0" d="M3.653 14.973c-0.296 0-0.537 0.24-0.537 0.537s0.24 0.537 0.537 0.537h7.46c0.296 0 0.537-0.24 0.537-0.537s-0.24-0.537-0.537-0.537z"></path>
<path class="path8" fill="#f98c67" d="M19.7 15.507c0-0.295-0.239-0.533-0.533-0.533h-3.747c-0.296 0-0.537 0.24-0.537 0.537s0.24 0.537 0.537 0.537h3.747c0.295 0 0.533-0.239 0.533-0.533z"></path>
<path class="path9" fill="#9a88c0" d="M12.9 15.133c-0.1 0.096-0.162 0.231-0.162 0.38s0.062 0.284 0.162 0.38c0.095 0.095 0.227 0.154 0.372 0.154 0.001 0 0.001 0 0.002 0 0.002 0 0.004 0 0.007 0 0.291 0 0.527-0.236 0.527-0.527 0-0.002 0-0.005-0-0.007 0-0.001 0-0.002 0-0.003 0-0.147-0.059-0.28-0.153-0.377-0.099-0.092-0.233-0.149-0.38-0.149s-0.28 0.057-0.38 0.149z"></path>
<path class="path10" fill="#9a88c0" d="M13.907 29.953h-12.833v-25.673h3.74v1.053c0 0.295 0.239 0.533 0.533 0.533h12.3c0.295 0 0.533-0.239 0.533-0.533v-1.053h3.747v10.667c0 0.295 0.239 0.533 0.533 0.533s0.533-0.239 0.533-0.533v-11.2c0-0.295-0.239-0.533-0.533-0.533h-4.273v-1.073c0-0.295-0.239-0.533-0.533-0.533h-3.207v-1.073c0-0.295-0.239-0.533-0.533-0.533h-4.8c-0.295 0-0.533 0.239-0.533 0.533v1.067h-3.227c-0.295 0-0.533 0.239-0.533 0.533v1.073h-4.28c-0.295 0-0.533 0.239-0.533 0.533v26.747c0 0.295 0.239 0.533 0.533 0.533h13.367c0.295 0 0.533-0.239 0.533-0.533s-0.239-0.533-0.533-0.533zM9.627 1.073h3.747v2.14h-3.747zM5.887 2.667h2.667v1.073c0 0.295 0.239 0.533 0.533 0.533h4.813c0.295 0 0.533-0.239 0.533-0.533v-1.073h2.667v2.14h-11.213z"></path>
</symbol>
<symbol id="icon-knowledge" viewBox="0 0 26 32">
<title>knowledge</title>
<path class="path1" fill="#9a88c0" d="M25.74 27.447l-9.693-16.38v-8.193c0.615-0.184 1.056-0.744 1.056-1.408 0-0.81-0.657-1.467-1.467-1.467-0.022 0-0.044 0.001-0.066 0.001l-4.99-0c-0.003-0-0.006-0-0.009-0-0.81 0-1.467 0.657-1.467 1.467 0 0.646 0.418 1.195 0.998 1.39l0.010 8.21-9.667 16.38c-0.261 0.433-0.415 0.955-0.415 1.513 0 1.638 1.328 2.967 2.967 2.967 0.001 0 0.001 0 0.002 0h20.187c0 0 0.001 0 0.002 0 1.638 0 2.967-1.328 2.967-2.967 0-0.558-0.154-1.081-0.422-1.527zM10.58 0.947h4.993c0.018-0.002 0.039-0.003 0.060-0.003 0.295 0 0.533 0.239 0.533 0.533s-0.239 0.533-0.533 0.533c-0.021 0-0.042-0.001-0.062-0.004l-4.991 0c-0.018 0.002-0.039 0.003-0.060 0.003-0.295 0-0.533-0.239-0.533-0.533s0.239-0.533 0.533-0.533c0.021 0 0.042 0.001 0.062 0.004zM24.947 29.967c-0.349 0.617-1 1.027-1.747 1.027-0.005 0-0.009 0-0.014-0h-20.213c-0.015 0-0.033 0.001-0.051 0.001-1.105 0-2-0.895-2-2 0-0.393 0.113-0.76 0.309-1.069l9.748-16.492c0.041-0.069 0.066-0.151 0.067-0.24v-8.247h4.067v8.253c0 0.089 0.025 0.171 0.068 0.242l9.752 16.485c0.176 0.292 0.28 0.644 0.28 1.020s-0.104 0.728-0.285 1.029z"></path>
<path class="path2" fill="#9a88c0" d="M11.58 16.94h3c0.26 0 0.47-0.21 0.47-0.47s-0.21-0.47-0.47-0.47h-3c-0.26 0-0.47 0.21-0.47 0.47s0.21 0.47 0.47 0.47z"></path>
<path class="path3" fill="#9a88c0" d="M11.58 19.433h3c0.26 0 0.47-0.21 0.47-0.47s-0.21-0.47-0.47-0.47h-3c-0.26 0-0.47 0.21-0.47 0.47s0.21 0.47 0.47 0.47z"></path>
<path class="path4" fill="#9a88c0" d="M11.58 21.933h3c0.26 0 0.47-0.21 0.47-0.47s-0.21-0.47-0.47-0.47h-3c-0.26 0-0.47 0.21-0.47 0.47s0.21 0.47 0.47 0.47z"></path>
<path class="path5" fill="#f98c67" d="M21.213 23.72c-0.083-0.137-0.231-0.227-0.4-0.227h-15.467c-0.169 0.001-0.316 0.091-0.399 0.225l-2.808 4.749c-0.085 0.141-0.135 0.311-0.135 0.493 0 0.534 0.433 0.967 0.967 0.967 0.001 0 0.001 0 0.002 0h20.213c0.001 0 0.001 0 0.002 0 0.534 0 0.967-0.433 0.967-0.967 0-0.182-0.050-0.352-0.138-0.498zM10.113 24.433s0 0 0 0c0.002 0.018 0.003 0.039 0.003 0.060 0 0.295-0.239 0.533-0.533 0.533s-0.533-0.239-0.533-0.533c0-0.021 0.001-0.042 0.004-0.062s-0 0.002-0 0.002zM23.213 28.973v0h-20.26v-0.047l2.667-4.513h2.493s0 0 0 0c0 0.81 0.657 1.467 1.467 1.467s1.467-0.657 1.467-1.467v0h9.493l2.667 4.513z"></path>
<path class="path6" fill="#f98c67" d="M14.58 25.493c-0.81 0-1.467 0.657-1.467 1.467s0.657 1.467 1.467 1.467c0.81 0 1.467-0.657 1.467-1.467s-0.657-1.467-1.467-1.467zM14.58 27.493c-0.295 0-0.533-0.239-0.533-0.533s0.239-0.533 0.533-0.533c0.295 0 0.533 0.239 0.533 0.533s-0.239 0.533-0.533 0.533z"></path>
<path class="path7" fill="#f98c67" d="M18.573 25.493v0c-0.258 0-0.467 0.209-0.467 0.467s0.209 0.467 0.467 0.467c0.258 0 0.467-0.209 0.467-0.467s-0.209-0.467-0.467-0.467z"></path>
<path class="path8" fill="#f98c67" d="M11.113 26.993v0c-0.258 0-0.467 0.209-0.467 0.467s0.209 0.467 0.467 0.467c0.258 0 0.467-0.209 0.467-0.467s-0.209-0.467-0.467-0.467z"></path>
<path class="path9" fill="#f98c67" d="M6.587 26v0c-0.258 0-0.467 0.209-0.467 0.467s0.209 0.467 0.467 0.467c0.258 0 0.467-0.209 0.467-0.467s-0.209-0.467-0.467-0.467z"></path>
</symbol>
<symbol id="icon-maintenance" viewBox="0 0 28 32">
<title>maintenance</title>
<path class="path1" fill="#9a88c0" d="M22.773 26.167c0.118-0.095 0.193-0.238 0.193-0.4v-23.213c0-0.002 0-0.004 0-0.007 0-0.28-0.227-0.507-0.507-0.507-0.002 0-0.005 0-0.007 0h-14.773c-0.374-1.195-1.471-2.047-2.767-2.047s-2.393 0.852-2.761 2.026l-1.639 0.021c-0.283 0-0.513 0.23-0.513 0.513v28.933c0 0.284 0.23 0.513 0.513 0.513h16.213c0.162-0 0.305-0.075 0.399-0.192zM17.247 30.253v-4h4zM4.913 1.020c0.723 0 1.35 0.41 1.662 1.010l-3.328 0.010c0.318-0.609 0.944-1.018 1.666-1.020zM1.020 3.067h5.76v3.6c0.002 0.023 0.003 0.049 0.003 0.075 0 0.471-0.382 0.853-0.853 0.853s-0.853-0.382-0.853-0.853c0-0.027 0.001-0.053 0.004-0.079l-0-2.070c0.002-0.018 0.003-0.038 0.003-0.058 0-0.284-0.23-0.513-0.513-0.513s-0.513 0.23-0.513 0.513c0 0.021 0.001 0.041 0.004 0.061l-0 2.071c0 1.035 0.839 1.873 1.873 1.873s1.873-0.839 1.873-1.873v-3.6h14.133v22.193h-5.207c-0.284 0-0.513 0.23-0.513 0.513v5.207h-15.2z"></path>
<path class="path2" fill="#f98c67" d="M18.367 23.52c0.018 0.002 0.038 0.003 0.058 0.003 0.284 0 0.513-0.23 0.513-0.513s-0.23-0.513-0.513-0.513c-0.021 0-0.041 0.001-0.061 0.004l-13.771-0c-0.257 0.030-0.455 0.247-0.455 0.51s0.198 0.48 0.452 0.51z"></path>
<path class="path3" fill="#f98c67" d="M4.593 20.46h13.773c0.018 0.002 0.038 0.003 0.058 0.003 0.284 0 0.513-0.23 0.513-0.513s-0.23-0.513-0.513-0.513c-0.021 0-0.041 0.001-0.061 0.004l-13.771-0c-0.257 0.030-0.455 0.247-0.455 0.51s0.198 0.48 0.452 0.51z"></path>
<path class="path4" fill="#f98c67" d="M4.593 17.393h13.773c0.018 0.002 0.038 0.003 0.058 0.003 0.284 0 0.513-0.23 0.513-0.513s-0.23-0.513-0.513-0.513c-0.021 0-0.041 0.001-0.061 0.004l-13.771-0c-0.257 0.030-0.455 0.247-0.455 0.51s0.198 0.48 0.452 0.51z"></path>
<path class="path5" fill="#f98c67" d="M4.593 14.333h13.773c0.018 0.002 0.038 0.003 0.058 0.003 0.284 0 0.513-0.23 0.513-0.513s-0.23-0.513-0.513-0.513c-0.021 0-0.041 0.001-0.061 0.004l-13.771-0c-0.257 0.030-0.455 0.247-0.455 0.51s0.198 0.48 0.452 0.51z"></path>
<path class="path6" fill="#f98c67" d="M4.593 11.267h13.773c0.018 0.002 0.038 0.003 0.058 0.003 0.284 0 0.513-0.23 0.513-0.513s-0.23-0.513-0.513-0.513c-0.021 0-0.041 0.001-0.061 0.004l-13.771-0c-0.257 0.030-0.455 0.247-0.455 0.51s0.198 0.48 0.452 0.51z"></path>
<path class="path7" fill="#9a88c0" d="M25.173 2.040h-0.667c-0.257 0.030-0.455 0.247-0.455 0.51s0.198 0.48 0.453 0.51l0.162 0v27.92h-5.453c-0.257 0.030-0.455 0.247-0.455 0.51s0.198 0.48 0.453 0.51l5.962 0c0.284 0 0.513-0.23 0.513-0.513v-28.933c0-0.284-0.23-0.513-0.513-0.513z"></path>
<path class="path8" fill="#9a88c0" d="M27.9 2.040h-0.667c-0.018-0.002-0.038-0.003-0.058-0.003-0.284 0-0.513 0.23-0.513 0.513s0.23 0.513 0.513 0.513c0.021 0 0.041-0.001 0.061-0.004l0.164 0v27.92h-0.167c-0.018-0.002-0.038-0.003-0.058-0.003-0.284 0-0.513 0.23-0.513 0.513s0.23 0.513 0.513 0.513c0.021 0 0.041-0.001 0.061-0.004l0.664 0c0.284 0 0.513-0.23 0.513-0.513v-28.933c0-0.284-0.23-0.513-0.513-0.513z"></path>
</symbol>
<symbol id="icon-mechanical" viewBox="0 0 32 32">
<title>mechanical</title>
<path class="path1" fill="#9a88c0" d="M8.747 24.168c-0.001 0-0.003 0-0.004 0-0.349 0-0.632-0.283-0.632-0.632 0-0.070 0.011-0.137 0.032-0.2l6.303-19.75c0.088-0.25 0.322-0.426 0.598-0.426 0.167 0 0.319 0.065 0.432 0.171l13.456 13.456c0.117 0.115 0.19 0.275 0.19 0.452 0 0.283-0.185 0.522-0.441 0.603l-19.725 6.299c-0.057 0.017-0.122 0.027-0.189 0.027-0.007 0-0.014-0-0.020-0zM15.334 4.966l-5.598 17.595 17.595-5.598z"></path>
<path class="path2" fill="#9a88c0" d="M26.241 15.637c-0 0-0 0-0 0-0.176 0-0.336-0.072-0.45-0.188l-8.969-8.976c-0.115-0.115-0.187-0.273-0.187-0.449 0-0.207 0.099-0.39 0.252-0.506l7.188-5.384c0.104-0.079 0.236-0.126 0.379-0.126 0.172 0 0.328 0.069 0.442 0.18l7.213 7.213c0.115 0.115 0.187 0.273 0.187 0.449 0 0.143-0.047 0.275-0.127 0.381l-5.382 7.184c-0.108 0.145-0.273 0.242-0.462 0.256zM18.261 6.089l7.946 7.946 4.622-6.156-6.412-6.405z"></path>
<path class="path3" fill="#9a88c0" d="M8.311 23.084l7.633-7.639 0.899 0.899-7.633 7.639-0.899-0.899z"></path>
<path class="path4" fill="#9a88c0" d="M18.167 17.278c-1.753-0.002-3.172-1.423-3.172-3.176 0-1.754 1.422-3.176 3.176-3.176s3.176 1.422 3.176 3.176c0 0.878-0.356 1.672-0.932 2.247-0.572 0.574-1.362 0.929-2.236 0.929-0.004 0-0.008 0-0.012-0zM18.167 12.198c-0.008-0-0.017-0-0.026-0-1.052 0-1.904 0.852-1.904 1.904 0 0.539 0.224 1.026 0.584 1.372 0.35 0.334 0.824 0.539 1.346 0.539s0.996-0.205 1.346-0.539c0.343-0.344 0.556-0.819 0.556-1.345 0-1.051-0.852-1.903-1.903-1.904z"></path>
<path class="path5" fill="#f98c67" d="M27.304 32c-0.349 0-0.632-0.283-0.632-0.632v-7.643c0-0.351 0.285-0.636 0.636-0.636s0.636 0.285 0.636 0.636v7.643c0 0 0 0 0 0 0 0.349-0.283 0.632-0.632 0.632-0.002 0-0.005 0-0.007-0z"></path>
<path class="path6" fill="#f98c67" d="M31.139 28.172h-7.643c-0.351 0-0.636-0.285-0.636-0.636s0.285-0.636 0.636-0.636h7.643c0.351 0 0.636 0.285 0.636 0.636s-0.285 0.636-0.636 0.636z"></path>
<path class="path7" fill="#f98c67" d="M0 26.261h5.080v5.080h-5.080v-5.080z"></path>
<path class="path8" fill="#f98c67" d="M1.904 21.82h1.272v4.447h-1.272v-4.447z"></path>
<path class="path9" fill="#f98c67" d="M5.080 28.172h4.447v1.272h-4.447v-1.272z"></path>
</symbol>
<symbol id="icon-on-site" viewBox="0 0 24 32">
<title>on-site</title>
<path class="path1" fill="#9a88c0" d="M12 32c-3.927 0-12-13.46-12-20 0-6.627 5.373-12 12-12s12 5.373 12 12c0 6.54-8.073 20-12 20zM12 1.14c-5.995 0.008-10.852 4.865-10.86 10.859 0 6.287 7.793 18.861 10.86 18.861s10.86-12.573 10.86-18.86c-0.008-5.995-4.865-10.852-10.859-10.86z"></path>
<path class="path2" fill="#9a88c0" d="M12 17.14c-3.472 0-6.287-2.815-6.287-6.287s2.815-6.287 6.287-6.287c3.472 0 6.287 2.815 6.287 6.287-0.004 3.47-2.816 6.283-6.286 6.287zM12 5.713c-2.839 0-5.14 2.301-5.14 5.14s2.301 5.14 5.14 5.14c2.839 0 5.14-2.301 5.14-5.14-0.004-2.837-2.303-5.136-5.14-5.14z"></path>
<path class="path3" fill="#f98c67" d="M11.953 14.073c-0.15-0-0.286-0.059-0.387-0.154l-2.746-2.526 0.773-0.84 2.227 2.053 2.733-4.607 0.987 0.58-3.093 5.233c-0.087 0.145-0.233 0.246-0.403 0.273z"></path>
</symbol>
<symbol id="icon-positioning" viewBox="0 0 54 32">
<title>positioning</title>
<path class="path1" fill="#9a88c0" d="M30.358 16v-11.829c0-2.304-1.868-4.171-4.171-4.171h-22.015c-2.304 0-4.171 1.868-4.171 4.171v11.829c0 2.304 1.868 4.171 4.171 4.171h11.885v3.429c-0 0.003-0 0.007-0 0.011 0 0.435 0.352 0.787 0.787 0.787 0.22 0 0.419-0.090 0.562-0.236l3.958-3.992h4.745c0.023 0 0.051 0.001 0.079 0.001 2.304 0 4.171-1.868 4.171-4.171 0-0 0-0.001 0-0.001zM21.116 18.586c-0.22 0.001-0.419 0.091-0.562 0.236l-2.867 2.867v-2.316c0-0.003 0-0.007 0-0.011 0-0.435-0.352-0.787-0.787-0.787-0 0-0 0-0 0h-12.728c0 0-0 0-0 0-1.424 0-2.58-1.151-2.586-2.574v-11.829c0-1.428 1.158-2.586 2.586-2.586h21.971c1.428 0 2.586 1.158 2.586 2.586v11.829c0 1.428-1.158 2.586-2.586 2.586z"></path>
<path class="path2" fill="#9a88c0" d="M5.015 5.813h2.53c0.438 0 0.793-0.355 0.793-0.793s-0.355-0.793-0.793-0.793h-2.53c-0.438 0-0.793 0.355-0.793 0.793s0.355 0.793 0.793 0.793z"></path>
<path class="path3" fill="#f98c67" d="M25.299 4.228h-14.37c-0.438 0-0.793 0.355-0.793 0.793s0.355 0.793 0.793 0.793h14.37c0.438 0 0.793-0.355 0.793-0.793s-0.355-0.793-0.793-0.793z"></path>
<path class="path4" fill="#9a88c0" d="M25.299 7.601h-20.239c-0.438 0-0.793 0.355-0.793 0.793s0.355 0.793 0.793 0.793h20.239c0.438 0 0.793-0.355 0.793-0.793s-0.355-0.793-0.793-0.793z"></path>
<path class="path5" fill="#9a88c0" d="M25.299 10.985h-2.541c-0.438 0-0.793 0.355-0.793 0.793s0.355 0.793 0.793 0.793h2.541c0.438 0 0.793-0.355 0.793-0.793s-0.355-0.793-0.793-0.793z"></path>
<path class="path6" fill="#f98c67" d="M5.015 12.571h14.37c0.438 0 0.793-0.355 0.793-0.793s-0.355-0.793-0.793-0.793h-14.37c-0.438 0-0.793 0.355-0.793 0.793s0.355 0.793 0.793 0.793z"></path>
<path class="path7" fill="#9a88c0" d="M25.299 14.358h-20.239c-0.438 0-0.793 0.355-0.793 0.793s0.355 0.793 0.793 0.793h20.239c0.438 0 0.793-0.355 0.793-0.793s-0.355-0.793-0.793-0.793z"></path>
<path class="path8" fill="#9a88c0" d="M32.9 13.414h2.53c0.438 0 0.793-0.355 0.793-0.793s-0.355-0.793-0.793-0.793h-2.53c-0.438 0-0.793 0.355-0.793 0.793s0.355 0.793 0.793 0.793z"></path>
<path class="path9" fill="#9a88c0" d="M48.956 13.414c0.438 0 0.793-0.355 0.793-0.793s-0.355-0.793-0.793-0.793h-10.119c-0.438 0-0.793 0.355-0.793 0.793s0.355 0.793 0.793 0.793z"></path>
<path class="path10" fill="#f98c67" d="M32.9 16.787h16.056c0.438 0 0.793-0.355 0.793-0.793s-0.355-0.793-0.793-0.793h-16.056c-0.438 0-0.793 0.355-0.793 0.793s0.355 0.793 0.793 0.793z"></path>
<path class="path11" fill="#9a88c0" d="M48.956 18.586h-2.541c-0.028-0.004-0.061-0.006-0.095-0.006-0.441 0-0.798 0.357-0.798 0.798s0.357 0.798 0.798 0.798c0.033 0 0.066-0.002 0.098-0.006l2.526 0c0.398-0.049 0.704-0.385 0.704-0.793s-0.305-0.744-0.7-0.792z"></path>
<path class="path12" fill="#9a88c0" d="M32.9 20.171h10.119c0.028 0.004 0.061 0.006 0.095 0.006 0.441 0 0.798-0.357 0.798-0.798s-0.357-0.798-0.798-0.798c-0.033 0-0.066 0.002-0.098 0.006l-10.116-0c-0.398 0.049-0.704 0.385-0.704 0.793s0.305 0.744 0.7 0.792z"></path>
<path class="path13" fill="#f98c67" d="M48.956 21.971h-21.127c-0.438 0-0.793 0.355-0.793 0.793s0.355 0.793 0.793 0.793h21.127c0.438 0 0.793-0.355 0.793-0.793s-0.355-0.793-0.793-0.793z"></path>
<path class="path14" fill="#f98c67" d="M49.799 7.601h-16.866c-0.438 0-0.793 0.355-0.793 0.793s0.355 0.793 0.793 0.793h16.866c1.428 0 2.586 1.158 2.586 2.586v11.829c0 1.428-1.158 2.586-2.586 2.586h-12.694c-0.003-0-0.007-0-0.011-0-0.435 0-0.787 0.352-0.787 0.787 0 0 0 0 0 0v2.316l-2.867-2.867c-0.143-0.146-0.342-0.236-0.562-0.236-0 0-0 0-0 0h-5.048c-1.428 0-2.586-1.158-2.586-2.586v-0.855c0-0.45-0.365-0.815-0.815-0.815s-0.815 0.365-0.815 0.815v0.843c0 2.304 1.868 4.171 4.171 4.171h4.824l3.958 3.98c0.143 0.146 0.342 0.236 0.562 0.236 0.435 0 0.787-0.352 0.787-0.787 0-0.004-0-0.008-0-0.012v-3.406h11.885c2.304 0 4.171-1.868 4.171-4.171v-11.829c0-2.304-1.868-4.171-4.171-4.171z"></path>
</symbol>
<symbol id="icon-program" viewBox="0 0 43 32">
<title>program</title>
<path class="path1" fill="#9a88c0" d="M41.902 32h-41.138c-0.422 0-0.764-0.342-0.764-0.764v-30.471c0-0.422 0.342-0.764 0.764-0.764h41.138c0.422 0 0.764 0.342 0.764 0.764v30.471c0 0.422-0.342 0.764-0.764 0.764zM1.52 30.48h39.627v-28.96h-39.627z"></path>
<path class="path2" fill="#9a88c0" d="M28.187 28.187h-13.707c-0.422 0-0.764-0.342-0.764-0.764v-22.853c0-0.422 0.342-0.764 0.764-0.764h13.707c0.422 0 0.764 0.342 0.764 0.764v22.862c-0.005 0.418-0.345 0.756-0.764 0.756-0 0-0 0-0 0zM15.236 26.667h12.196v-21.333h-12.196z"></path>
<path class="path3" fill="#9a88c0" d="M38.098 25.902h-9.911c-0.422 0-0.764-0.342-0.764-0.764v-18.284c0-0.422 0.342-0.764 0.764-0.764h9.911c0.422 0 0.764 0.342 0.764 0.764v18.293c-0.005 0.418-0.345 0.756-0.764 0.756-0 0-0 0-0 0zM28.951 24.382h8.382v-16.764h-8.382z"></path>
<path class="path4" fill="#9a88c0" d="M14.48 25.902h-9.911c-0.422 0-0.764-0.342-0.764-0.764v-18.284c0-0.422 0.342-0.764 0.764-0.764h9.911c0.422 0 0.764 0.342 0.764 0.764v18.293c-0.005 0.418-0.345 0.756-0.764 0.756-0 0-0 0-0 0zM5.333 24.382h8.382v-16.764h-8.382z"></path>
<path class="path5" fill="#f98c67" d="M21.333 14.48c-1.684 0-3.049-1.365-3.049-3.049s1.365-3.049 3.049-3.049c1.684 0 3.049 1.365 3.049 3.049s-1.365 3.049-3.049 3.049zM21.333 9.911c-0.839 0-1.52 0.681-1.52 1.52s0.681 1.52 1.52 1.52c0.839 0 1.52-0.681 1.52-1.52 0 0 0-0 0-0 0-0.841-0.679-1.524-1.52-1.529z"></path>
<path class="path6" fill="#f98c67" d="M16.764 19.049h9.147v1.52h-9.147v-1.52z"></path>
<path class="path7" fill="#f98c67" d="M18.284 21.333h6.098v1.52h-6.098v-1.52z"></path>
</symbol>
<symbol id="icon-requirements" viewBox="0 0 25 32">
<title>requirements</title>
<path class="path1" fill="#9a88c0" d="M24 32h-23.387c-0.339 0-0.613-0.275-0.613-0.613v-27.1c0-0.001-0-0.003-0-0.004 0-0.313 0.234-0.571 0.537-0.609l1.683-3.334c0.12-0.19 0.328-0.314 0.565-0.314 0.226 0 0.426 0.113 0.546 0.285l1.288 2.595 1.293-2.593c0.122-0.176 0.323-0.29 0.55-0.29s0.428 0.114 0.549 0.288l1.301 2.596 1.3-2.593c0.122-0.176 0.323-0.29 0.55-0.29s0.428 0.114 0.549 0.288l1.608 3.209 1.6-3.207c0.122-0.176 0.323-0.29 0.55-0.29s0.428 0.114 0.549 0.288l1.301 2.596 1.3-2.593c0.122-0.176 0.323-0.29 0.55-0.29s0.428 0.114 0.549 0.288l1.281 2.596 1.333-2.593c0.122-0.176 0.323-0.29 0.55-0.29s0.428 0.114 0.549 0.288l1.681 3.336c0.306 0.038 0.54 0.296 0.54 0.609 0 0.002 0 0.003-0 0.005v27.126c0 0 0 0.001 0 0.001 0 0.339-0.275 0.613-0.613 0.613-0.014 0-0.028-0-0.042-0.001zM1.233 30.767h22.173v-25.947c-0.106-0.061-0.191-0.15-0.245-0.256l-1.295-2.597-1.3 2.593c-0.122 0.176-0.323 0.29-0.55 0.29s-0.428-0.114-0.549-0.288l-1.301-2.596-1.293 2.593c-0.122 0.176-0.323 0.29-0.55 0.29s-0.428-0.114-0.549-0.288l-1.301-2.596-1.293 2.593c-0.103 0.203-0.31 0.34-0.549 0.34-0.002 0-0.003 0-0.005-0h-0.626c-0.001 0-0.003 0-0.004 0-0.239 0-0.446-0.137-0.547-0.337l-1.288-2.597-1.293 2.593c-0.122 0.176-0.323 0.29-0.55 0.29s-0.428-0.114-0.549-0.288l-1.301-2.596-1.293 2.593c-0.122 0.176-0.323 0.29-0.55 0.29s-0.428-0.114-0.549-0.288l-1.301-2.596-1.3 2.593c-0.056 0.11-0.141 0.199-0.244 0.258z"></path>
<path class="path2" fill="#9a88c0" d="M20.327 12.293h-8.627c-0.341 0-0.617-0.276-0.617-0.617s0.276-0.617 0.617-0.617h8.627c0.341 0 0.617 0.276 0.617 0.617s-0.276 0.617-0.617 0.617z"></path>
<path class="path3" fill="#9a88c0" d="M20.327 15.373h-8.627c-0.341 0-0.617-0.276-0.617-0.617s0.276-0.617 0.617-0.617h8.627c0.341 0 0.617 0.276 0.617 0.617s-0.276 0.617-0.617 0.617z"></path>
<path class="path4" fill="#9a88c0" d="M20.327 18.453h-8.627c-0.341 0-0.617-0.276-0.617-0.617s0.276-0.617 0.617-0.617h8.627c0.341 0 0.617 0.276 0.617 0.617s-0.276 0.617-0.617 0.617z"></path>
<path class="path5" fill="#9a88c0" d="M20.327 21.527h-8.627c-0.341 0-0.617-0.276-0.617-0.617s0.276-0.617 0.617-0.617h8.627c0.341 0 0.617 0.276 0.617 0.617s-0.276 0.617-0.617 0.617z"></path>
<path class="path6" fill="#f98c67" d="M6.2 21.26c-0 0-0 0-0.001 0-0.097 0-0.188-0.022-0.27-0.062l-2.596-1.258c-0.209-0.102-0.351-0.313-0.351-0.557 0-0.341 0.276-0.617 0.617-0.617 0.097 0 0.189 0.022 0.27 0.062l1.996 0.965 2.393-6.6c0.088-0.239 0.315-0.407 0.58-0.407 0.341 0 0.617 0.276 0.617 0.617 0 0.075-0.014 0.148-0.038 0.214l-2.639 7.236c-0.061 0.165-0.185 0.293-0.343 0.358-0.073 0.031-0.153 0.048-0.237 0.048z"></path>
<path class="path7" fill="#9a88c0" d="M20.94 28.307h-9.853c-0.681 0-1.233-0.552-1.233-1.233v-3.693c0-0.681 0.552-1.233 1.233-1.233h9.853c0.681 0 1.233 0.552 1.233 1.233v3.693c0 0.681-0.552 1.233-1.233 1.233zM12.32 25.84h7.387v-1.233h-7.387z"></path>
</symbol>
<symbol id="icon-response" viewBox="0 0 29 32">
<title>response</title>
<path class="path1" fill="#f98c67" d="M28.44 30.72l-3.753-3.747 3.573-1.787-9.727-3.587 3.587 9.733 1.787-3.58 3.727 3.747c0.099 0.099 0.236 0.16 0.386 0.16 0.002 0 0.005 0 0.007-0 0.304-0.001 0.55-0.249 0.55-0.553 0-0.151-0.060-0.287-0.158-0.387zM20.393 23.46l5.093 1.873-2.147 1.073-1.040 2.147z"></path>
<path class="path2" fill="#9a88c0" d="M3.773 9.933h7.193c0.018 0.002 0.039 0.003 0.061 0.003 0.306 0 0.553-0.248 0.553-0.553s-0.248-0.553-0.553-0.553c-0.021 0-0.042 0.001-0.063 0.004l-7.191-0c-0.018-0.002-0.039-0.003-0.061-0.003-0.306 0-0.553 0.248-0.553 0.553s0.248 0.553 0.553 0.553c0.021 0 0.042-0.001 0.063-0.004z"></path>
<path class="path3" fill="#f98c67" d="M3.773 25.38c-0.018-0.002-0.039-0.003-0.061-0.003-0.306 0-0.553 0.248-0.553 0.553s0.248 0.553 0.553 0.553c0.021 0 0.042-0.001 0.063-0.004l9.997 0c0.018 0.002 0.039 0.003 0.061 0.003 0.306 0 0.553-0.248 0.553-0.553s-0.248-0.553-0.553-0.553c-0.021 0-0.042 0.001-0.063 0.004z"></path>
<path class="path4" fill="#f98c67" d="M19.773 12.14h-16c-0.018-0.002-0.039-0.003-0.061-0.003-0.306 0-0.553 0.248-0.553 0.553s0.248 0.553 0.553 0.553c0.021 0 0.042-0.001 0.063-0.004l15.997 0c0.018 0.002 0.039 0.003 0.061 0.003 0.306 0 0.553-0.248 0.553-0.553s-0.248-0.553-0.553-0.553c-0.021 0-0.042 0.001-0.063 0.004z"></path>
<path class="path5" fill="#f98c67" d="M17.633 19.333c0-0.306-0.248-0.553-0.553-0.553h-13.333c-0.306 0-0.553 0.248-0.553 0.553s0.248 0.553 0.553 0.553h13.333c0.306 0 0.553-0.248 0.553-0.553z"></path>
<path class="path6" fill="#9a88c0" d="M16 22.62c0-0.306-0.248-0.553-0.553-0.553h-11.673c-0.306 0-0.553 0.248-0.553 0.553s0.248 0.553 0.553 0.553h11.68c0.303-0.004 0.547-0.25 0.547-0.553 0 0 0-0 0-0z"></path>
<path class="path7" fill="#9a88c0" d="M3.773 16.553h7.72c0.306 0 0.553-0.248 0.553-0.553s-0.248-0.553-0.553-0.553h-7.72c-0.306 0-0.553 0.248-0.553 0.553s0.248 0.553 0.553 0.553z"></path>
<path class="path8" fill="#9a88c0" d="M20.3 16c0-0.306-0.248-0.553-0.553-0.553h-3.84c-0.306 0-0.553 0.248-0.553 0.553s0.248 0.553 0.553 0.553h3.86c0.297-0.011 0.533-0.254 0.533-0.553 0-0 0-0 0-0z"></path>
<path class="path9" fill="#9a88c0" d="M14.093 16.393c0.099-0.1 0.16-0.237 0.16-0.389 0-0.001 0-0.003-0-0.004s0-0.004 0-0.007c0-0.151-0.061-0.288-0.16-0.386-0.102-0.095-0.239-0.153-0.39-0.153s-0.288 0.058-0.39 0.153c-0.102 0.099-0.166 0.238-0.166 0.393 0 0 0 0 0 0 0.002 0.153 0.062 0.291 0.16 0.394 0.101 0.1 0.24 0.161 0.393 0.161s0.292-0.062 0.393-0.161z"></path>
<path class="path10" fill="#9a88c0" d="M19.313 30.9h-18.207v-26.487h3.86v1.107c0 0.306 0.248 0.553 0.553 0.553h12.667c0.306 0 0.553-0.248 0.553-0.553v-1.107h3.86v16c0.032 0.278 0.266 0.493 0.55 0.493s0.518-0.214 0.55-0.49l0-16.549c0-0.002 0-0.004 0-0.007 0-0.302-0.245-0.547-0.547-0.547 0 0-0 0-0 0h-4.393v-1.107c0-0.306-0.248-0.553-0.553-0.553h-3.333v-1.1c0-0 0-0 0-0.001 0-0.296-0.233-0.538-0.525-0.553l-4.968-0c-0.306 0-0.553 0.248-0.553 0.553v1.1h-3.333c-0.306 0-0.553 0.248-0.553 0.553v1.127h-4.387c-0.306 0-0.553 0.248-0.553 0.553v27.567c0.004 0.303 0.25 0.547 0.553 0.547 0 0 0 0 0 0h18.76c0.018 0.002 0.039 0.003 0.061 0.003 0.306 0 0.553-0.248 0.553-0.553s-0.248-0.553-0.553-0.553c-0.021 0-0.042 0.001-0.063 0.004zM9.933 1.107h3.86v2.227h-3.86zM6.073 2.76h2.76v1.107c0 0 0 0 0 0 0 0.302 0.245 0.547 0.547 0.547 0.002 0 0.005 0 0.007-0h4.966c0 0 0 0 0 0 0.303 0 0.55-0.244 0.553-0.546v-1.107h2.727v2.207h-11.56z"></path>
</symbol>
<symbol id="icon-retainers" viewBox="0 0 30 32">
<title>retainers</title>
<path class="path1" fill="#9a88c0" d="M25.015 0h-22.043c-0.534 0.004-0.966 0.437-0.966 0.972 0 0 0 0 0 0v1.034h-1.034c0 0 0 0-0 0-0.535 0-0.969 0.432-0.972 0.966v28.056c0 0.537 0.435 0.972 0.972 0.972h22.043c0.004 0 0.008 0 0.012 0 0.537 0 0.972-0.435 0.972-0.972 0-0 0-0 0-0v-1.034h1.034c0.537 0 0.972-0.435 0.972-0.972v-28.049c0-0 0-0 0-0 0-0.537-0.435-0.972-0.972-0.972-0.006 0-0.013 0-0.019 0zM23.046 29.538v0 1.495c-0.004 0.003-0.010 0.004-0.015 0.004s-0.011-0.002-0.016-0.004l-22.043 0c-0.004 0.003-0.010 0.004-0.015 0.004s-0.011-0.002-0.016-0.004l0-28.061c0-0.017 0.014-0.031 0.031-0.031h22.043c0.017 0 0.031 0.014 0.031 0.031zM25.052 29.040c0.003 0.004 0.004 0.010 0.004 0.015s-0.002 0.011-0.004 0.016l-1.052-0v-26.098c-0.003-0.534-0.437-0.966-0.972-0.966-0.004 0-0.009 0-0.013 0h-20.073v-1.034c0-0.017 0.014-0.031 0.031-0.031h22.043cz"></path>
<path class="path2" fill="#9a88c0" d="M19.975 6.511h-16.031c-0.26 0-0.471 0.211-0.471 0.471s0.211 0.471 0.471 0.471h16.031c0.26 0 0.471-0.211 0.471-0.471s-0.211-0.471-0.471-0.471z"></path>
<path class="path3" fill="#f98c67" d="M19.975 12.523h-16.031c-0.26 0-0.471 0.211-0.471 0.471s0.211 0.471 0.471 0.471h16.031c0.26 0 0.471-0.211 0.471-0.471s-0.211-0.471-0.471-0.471z"></path>
<path class="path4" fill="#9a88c0" d="M19.975 26.554h-16.031c-0.26 0-0.471 0.211-0.471 0.471s0.211 0.471 0.471 0.471h16.031c0.26 0 0.471-0.211 0.471-0.471s-0.211-0.471-0.471-0.471z"></path>
<path class="path5" fill="#9a88c0" d="M19.975 18.535h-16.031c-0.26 0-0.471 0.211-0.471 0.471s0.211 0.471 0.471 0.471h16.031c0.26 0 0.471-0.211 0.471-0.471s-0.211-0.471-0.471-0.471z"></path>
<path class="path6" fill="#f98c67" d="M3.945 9.458h4.006c0.26 0 0.471-0.211 0.471-0.471s-0.211-0.471-0.471-0.471h-4.006c-0.26 0-0.471 0.211-0.471 0.471s0.211 0.471 0.471 0.471z"></path>
<path class="path7" fill="#f98c67" d="M19.975 8.517h-10.018c-0.26 0-0.471 0.211-0.471 0.471s0.211 0.471 0.471 0.471h10.018c0.26 0 0.471-0.211 0.471-0.471s-0.211-0.471-0.471-0.471z"></path>
<path class="path8" fill="#9a88c0" d="M3.945 11.458h12.055c0.26 0 0.471-0.211 0.471-0.471s-0.211-0.471-0.471-0.471h-12.055c-0.26 0-0.471 0.211-0.471 0.471s0.211 0.471 0.471 0.471z"></path>
<path class="path9" fill="#9a88c0" d="M19.975 10.523h-2c-0.26 0-0.471 0.211-0.471 0.471s0.211 0.471 0.471 0.471h2.006c0.26 0 0.471-0.211 0.471-0.471s-0.211-0.471-0.471-0.471z"></path>
<path class="path10" fill="#f98c67" d="M19.975 24.548h-16.031c-0.26 0-0.471 0.211-0.471 0.471s0.211 0.471 0.471 0.471h16.031c0.26 0 0.471-0.211 0.471-0.471s-0.211-0.471-0.471-0.471z"></path>
<path class="path11" fill="#9a88c0" d="M3.945 21.477h4.006c0.26 0 0.471-0.211 0.471-0.471s-0.211-0.471-0.471-0.471h-4.006c-0.26 0-0.471 0.211-0.471 0.471s0.211 0.471 0.471 0.471z"></path>
<path class="path12" fill="#9a88c0" d="M19.975 20.542h-10.018c-0.26 0-0.471 0.211-0.471 0.471s0.211 0.471 0.471 0.471h10.018c0.26 0 0.471-0.211 0.471-0.471s-0.211-0.471-0.471-0.471z"></path>
<path class="path13" fill="#f98c67" d="M3.945 23.483h12.055c0.26 0 0.471-0.211 0.471-0.471s-0.211-0.471-0.471-0.471h-12.055c-0.26 0-0.471 0.211-0.471 0.471s0.211 0.471 0.471 0.471z"></path>
<path class="path14" fill="#9a88c0" d="M19.975 22.542h-2c-0.26 0-0.471 0.211-0.471 0.471s0.211 0.471 0.471 0.471h2.006c0.26 0 0.471-0.211 0.471-0.471s-0.211-0.471-0.471-0.471z"></path>
<path class="path15" fill="#9a88c0" d="M3.945 15.471h6.517c0.26 0 0.471-0.211 0.471-0.471s-0.211-0.471-0.471-0.471h-6.517c-0.26 0-0.471 0.211-0.471 0.471s0.211 0.471 0.471 0.471z"></path>
<path class="path16" fill="#9a88c0" d="M19.975 14.529h-7.514c-0.26 0-0.471 0.211-0.471 0.471s0.211 0.471 0.471 0.471h7.514c0.26 0 0.471-0.211 0.471-0.471s-0.211-0.471-0.471-0.471z"></path>
<path class="path17" fill="#f98c67" d="M3.945 17.471h10.523c0.26 0 0.471-0.211 0.471-0.471s-0.211-0.471-0.471-0.471h-10.523c-0.26 0-0.471 0.211-0.471 0.471s0.211 0.471 0.471 0.471z"></path>
<path class="path18" fill="#f98c67" d="M19.975 16.529h-3.508c-0.26 0-0.471 0.211-0.471 0.471s0.211 0.471 0.471 0.471h3.508c0.26 0 0.471-0.211 0.471-0.471s-0.211-0.471-0.471-0.471z"></path>
<path class="path19" fill="#9a88c0" d="M28.523 9.015c-0.793 0.014-1.433 0.653-1.446 1.445l-0 17.564c-0.004 0.022-0.006 0.048-0.006 0.074s0.002 0.052 0.006 0.077l0.978 2.933v0.425c0 0.26 0.211 0.471 0.471 0.471s0.471-0.211 0.471-0.471v-0.425l0.978-2.935c0.004-0.022 0.006-0.048 0.006-0.074s-0.002-0.052-0.006-0.076l0-17.56c0-0.812-0.659-1.471-1.471-1.471zM28.523 29.545l-0.517-1.551h1.034zM29.058 27.083h-1.065v-15.12h1.065zM29.058 11.052h-1.065v-0.591c0-0.294 0.238-0.532 0.532-0.532s0.532 0.238 0.532 0.532z"></path>
</symbol>
<symbol id="icon-services" viewBox="0 0 43 32">
<title>services</title>
<path class="path1" fill="#9a88c0" d="M41.902 32h-41.138c-0.422 0-0.764-0.342-0.764-0.764v-30.471c0-0.422 0.342-0.764 0.764-0.764h41.138c0.422 0 0.764 0.342 0.764 0.764v30.471c0 0.422-0.342 0.764-0.764 0.764zM1.52 30.48h39.627v-28.96h-39.627z"></path>
<path class="path2" fill="#9a88c0" d="M9.147 22.098h-8.382c-0.422 0-0.764-0.342-0.764-0.764v-15.236c0-0.422 0.342-0.764 0.764-0.764h8.382c0.422 0 0.764 0.342 0.764 0.764v15.236c0 0.422-0.342 0.764-0.764 0.764zM1.52 20.569h6.862v-13.716h-6.862z"></path>
<path class="path3" fill="#f98c67" d="M23.618 26.667c0 0.839-0.681 1.52-1.52 1.52s-1.52-0.681-1.52-1.52c0-0.839 0.681-1.52 1.52-1.52s1.52 0.681 1.52 1.52z"></path>
<path class="path4" fill="#9a88c0" d="M25.902 25.902h1.52v1.52h-1.52v-1.52z"></path>
<path class="path5" fill="#9a88c0" d="M25.902 24.382h1.529c0.839 0 1.52 0.681 1.52 1.52v1.529c0 0.839-0.681 1.52-1.52 1.52h-1.529c-0.839 0-1.52-0.681-1.52-1.52v-1.529c0-0.839 0.681-1.52 1.52-1.52z"></path>
<path class="path6" fill="#9a88c0" d="M29.716 25.902h1.52v1.52h-1.52v-1.52z"></path>
<path class="path7" fill="#9a88c0" d="M29.707 24.382h1.529c0.839 0 1.52 0.681 1.52 1.52v1.529c0 0.839-0.681 1.52-1.52 1.52h-1.529c-0.839 0-1.52-0.681-1.52-1.52v-1.529c0-0.839 0.681-1.52 1.52-1.52z"></path>
<path class="path8" fill="#9a88c0" d="M12.951 25.902h1.52v1.52h-1.52v-1.52z"></path>
<path class="path9" fill="#9a88c0" d="M12.951 24.382h1.529c0.839 0 1.52 0.681 1.52 1.52v1.529c0 0.839-0.681 1.52-1.52 1.52h-1.529c-0.839 0-1.52-0.681-1.52-1.52v-1.529c0-0.839 0.681-1.52 1.52-1.52z"></path>
<path class="path10" fill="#9a88c0" d="M16.764 25.902h1.52v1.52h-1.52v-1.52z"></path>
<path class="path11" fill="#9a88c0" d="M16.756 24.382h1.529c0.839 0 1.52 0.681 1.52 1.52v1.529c0 0.839-0.681 1.52-1.52 1.52h-1.529c-0.839 0-1.52-0.681-1.52-1.52v-1.529c0-0.839 0.681-1.52 1.52-1.52z"></path>
<path class="path12" fill="#9a88c0" d="M41.902 22.098h-3.804c-0.422 0-0.764-0.342-0.764-0.764v-15.236c0-0.422 0.342-0.764 0.764-0.764h3.813c0.422 0 0.764 0.342 0.764 0.764v15.236c0 0 0 0 0 0 0 0.422-0.342 0.764-0.764 0.764-0.003 0-0.006-0-0.009-0zM38.853 20.578h2.284v-13.724h-2.284z"></path>
<path class="path13" fill="#f98c67" d="M34.284 22.098h-21.333c-0.422 0-0.764-0.342-0.764-0.764v-15.236c0-0.422 0.342-0.764 0.764-0.764h21.333c0.422 0 0.764 0.342 0.764 0.764v15.236c0 0.422-0.342 0.764-0.764 0.764zM13.716 20.569h19.804v-13.716h-19.804z"></path>
</symbol>
<symbol id="icon-worksite" viewBox="0 0 29 32">
<title>worksite</title>
<path class="path1" fill="#f98c67" d="M25.6 24.533h-6.4c-0.295 0-0.533 0.239-0.533 0.533s0.239 0.533 0.533 0.533h6.4c0.295 0 0.533-0.239 0.533-0.533s-0.239-0.533-0.533-0.533z"></path>
<path class="path2" fill="#f98c67" d="M21.867 21.867v6.4c0 0.295 0.239 0.533 0.533 0.533s0.533-0.239 0.533-0.533v-6.4c0-0.295-0.239-0.533-0.533-0.533s-0.533 0.239-0.533 0.533z"></path>
<path class="path3" fill="#9a88c0" d="M22.933 18.16v-14.427c0-0.295-0.239-0.533-0.533-0.533h-4.267v-1.067c0-0.295-0.239-0.533-0.533-0.533h-3.2v-1.067c0-0.295-0.239-0.533-0.533-0.533h-4.8c-0.295 0-0.533 0.239-0.533 0.533v1.067h-3.2c-0.295 0-0.533 0.239-0.533 0.533v1.067h-4.267c-0.295 0-0.533 0.239-0.533 0.533v26.667c0 0.295 0.239 0.533 0.533 0.533h18.187c1.044 0.665 2.317 1.060 3.682 1.060 3.826 0 6.927-3.101 6.927-6.927 0-3.638-2.805-6.622-6.371-6.905zM9.6 1.067h3.733v2.133h-3.733zM5.867 2.667h2.667v1.067c0 0.295 0.239 0.533 0.533 0.533h4.8c0.295 0 0.533-0.239 0.533-0.533v-1.067h2.667v2.133h-11.2zM1.067 29.867v-25.6h3.733v1.067c0 0.295 0.239 0.533 0.533 0.533h12.267c0.295 0 0.533-0.239 0.533-0.533v-1.067h3.733v13.887h-0.093l-0.307 0.040-0.367 0.060-0.307 0.067-0.347 0.087-0.293 0.093-0.333 0.12-0.287 0.12-0.313 0.153-0.267 0.147-0.3 0.18-0.253 0.167-0.28 0.207-0.233 0.193-0.26 0.233-0.213 0.213-0.233 0.26-0.193 0.227-0.213 0.28-0.173 0.247c-0.067 0.1-0.127 0.2-0.187 0.307l-0.147 0.26c-0.060 0.107-0.107 0.22-0.16 0.333s-0.087 0.173-0.12 0.26-0.087 0.24-0.133 0.36-0.067 0.18-0.093 0.267-0.067 0.26-0.1 0.393-0.047 0.173-0.067 0.26-0.047 0.3-0.067 0.447 0 0.147-0.033 0.227c-0.023 0.208-0.037 0.449-0.037 0.693s0.013 0.485 0.039 0.723c-0.003 0.057-0.003 0.137 0.031 0.224s0.033 0.28 0.067 0.42 0.047 0.187 0.067 0.28 0.060 0.253 0.093 0.38 0.060 0.167 0.087 0.253 0.087 0.26 0.14 0.387 0.060 0.14 0.093 0.207 0.127 0.273 0.193 0.4l0.093 0.167c0.080 0.14 0.16 0.273 0.247 0.407l0.1 0.14c0.093 0.133 0.193 0.267 0.293 0.393l0.12 0.133c0.087 0.093 0.16 0.193 0.247 0.287zM22.4 30.933c-0.005 0-0.010 0-0.016 0-1.21 0-2.333-0.369-3.265-1-0.176-0.119-0.346-0.248-0.507-0.387l-0.159-0.147q-0.16-0.147-0.307-0.3l-0.18-0.2c-0.087-0.1-0.167-0.207-0.247-0.313s-0.107-0.133-0.153-0.2c-0.105-0.148-0.213-0.32-0.312-0.498l-0.081-0.162c-0.073-0.153-0.147-0.307-0.213-0.467s-0.053-0.14-0.080-0.213-0.093-0.28-0.133-0.427-0.040-0.147-0.060-0.22-0.067-0.307-0.087-0.467 0-0.133 0-0.2c-0.024-0.2-0.038-0.432-0.038-0.667 0-3.24 2.627-5.867 5.867-5.867s5.867 2.627 5.867 5.867c0 3.24-2.627 5.867-5.867 5.867-0.010 0-0.020-0-0.030-0z"></path>
<path class="path4" fill="#9a88c0" d="M3.733 9.6h6.933c0.295 0 0.533-0.239 0.533-0.533s-0.239-0.533-0.533-0.533h-6.933c-0.295 0-0.533 0.239-0.533 0.533s0.239 0.533 0.533 0.533z"></path>
<path class="path5" fill="#f98c67" d="M10.667 24.533h-6.933c-0.295 0-0.533 0.239-0.533 0.533s0.239 0.533 0.533 0.533h6.933c0.295 0 0.533-0.239 0.533-0.533s-0.239-0.533-0.533-0.533z"></path>
<path class="path6" fill="#f98c67" d="M3.733 12.8h15.467c0.295 0 0.533-0.239 0.533-0.533s-0.239-0.533-0.533-0.533h-15.467c-0.295 0-0.533 0.239-0.533 0.533s0.239 0.533 0.533 0.533z"></path>
<path class="path7" fill="#f98c67" d="M3.733 19.2h12.8c0.295 0 0.533-0.239 0.533-0.533s-0.239-0.533-0.533-0.533h-12.8c-0.295 0-0.533 0.239-0.533 0.533s0.239 0.533 0.533 0.533z"></path>
<path class="path8" fill="#9a88c0" d="M13.867 21.333h-10.133c-0.295 0-0.533 0.239-0.533 0.533s0.239 0.533 0.533 0.533h10.133c0.295 0 0.533-0.239 0.533-0.533s-0.239-0.533-0.533-0.533z"></path>
<path class="path9" fill="#9a88c0" d="M3.733 16h7.467c0.295 0 0.533-0.239 0.533-0.533s-0.239-0.533-0.533-0.533h-7.467c-0.295 0-0.533 0.239-0.533 0.533s0.239 0.533 0.533 0.533z"></path>
<path class="path10" fill="#f98c67" d="M19.2 14.933h-3.733c-0.295 0-0.533 0.239-0.533 0.533s0.239 0.533 0.533 0.533h3.733c0.295 0 0.533-0.239 0.533-0.533s-0.239-0.533-0.533-0.533z"></path>
<path class="path11" fill="#9a88c0" d="M12.953 15.087c-0.094 0.099-0.153 0.232-0.153 0.38 0.002 0.147 0.060 0.281 0.154 0.38 0.097 0.094 0.23 0.153 0.376 0.153s0.28-0.058 0.377-0.153c0.093-0.099 0.151-0.233 0.153-0.379 0-0.002 0-0.004 0-0.006 0-0.295-0.239-0.533-0.533-0.533-0.149 0-0.283 0.061-0.38 0.159z"></path>
</symbol>
</defs>
</svg>
