<svg style="position: absolute; width: 0; height: 0; overflow: hidden;" version="1.1" xmlns="http://www.w3.org/2000/svg" xmlns:xlink="http://www.w3.org/1999/xlink">
<defs>
<symbol id="icon-angle" viewBox="0 0 57 32">
<title>angle</title>
<path class="path1" d="M56.227 5.771c0.614-0.609 0.996-1.452 1.002-2.383-0.006-0.934-0.387-1.776-1.001-2.385-0.607-0.619-1.451-1.002-2.385-1.002s-1.778 0.383-2.384 1.001l-22.844 22.844-22.844-22.844c-0.625-0.746-1.558-1.217-2.6-1.217-1.87 0-3.386 1.516-3.386 3.386 0 1.043 0.471 1.975 1.212 2.596l25.233 25.232c0.606 0.619 1.451 1.002 2.384 1.002s1.778-0.383 2.384-1.001z"></path>
</symbol>
<symbol id="icon-check" viewBox="0 0 44 32">
<title>check</title>
<path class="path1" d="M17.502 32c-0.007 0-0.014 0-0.022 0-0.603 0-1.158-0.207-1.598-0.553l-14.913-12.072c-0.593-0.478-0.97-1.204-0.97-2.018 0-1.427 1.157-2.585 2.584-2.585 0.613 0 1.176 0.213 1.62 0.57l12.976 10.491 22.216-24.961c0.476-0.537 1.167-0.874 1.937-0.874 1.428 0 2.585 1.157 2.585 2.585 0 0.658-0.246 1.258-0.65 1.714l-23.893 26.831c-0.462 0.521-1.127 0.853-1.87 0.872z"></path>
</symbol>
<symbol id="icon-controls" viewBox="0 0 32 32">
<title>controls</title>
<path class="path1" fill="#949493" d="M8 5.143h22.857c0.316 0 0.571-0.255 0.571-0.571s-0.255-0.571-0.571-0.571h-22.857c-0.315 0-0.571 0.255-0.571 0.571s0.256 0.571 0.571 0.571z"></path>
<path class="path2" fill="#949493" d="M24 28h-22.857c-0.315 0-0.571 0.255-0.571 0.571s0.256 0.571 0.571 0.571h22.857c0.315 0 0.571-0.255 0.571-0.571s-0.256-0.571-0.571-0.571z"></path>
<path class="path3" fill="#949493" d="M30.857 16h-10.857c-0.315 0-0.571 0.255-0.571 0.571s0.256 0.571 0.571 0.571h10.857c0.316 0 0.571-0.255 0.571-0.571s-0.255-0.571-0.571-0.571z"></path>
<path class="path4" fill="#949493" d="M1.143 17.143h11.429c0.315 0 0.571-0.255 0.571-0.571s-0.256-0.571-0.571-0.571h-11.429c-0.315 0-0.571 0.255-0.571 0.571s0.256 0.571 0.571 0.571z"></path>
<path class="path5" fill="#c7cac7" d="M8 4.571c0 1.894-1.535 3.429-3.429 3.429s-3.429-1.535-3.429-3.429c0-1.894 1.535-3.429 3.429-3.429s3.429 1.535 3.429 3.429z"></path>
<path class="path6" fill="#c7cac7" d="M19.665 16.453c0 1.959-1.588 3.547-3.547 3.547s-3.547-1.588-3.547-3.547c0-1.959 1.588-3.547 3.547-3.547s3.547 1.588 3.547 3.547z"></path>
<path class="path7" fill="#c7cac7" d="M30.857 28.571c0 1.894-1.535 3.429-3.429 3.429s-3.429-1.535-3.429-3.429c0-1.894 1.535-3.429 3.429-3.429s3.429 1.535 3.429 3.429z"></path>
<path class="path8" fill="#e7eced" d="M8 3.429c0 1.894-1.535 3.429-3.429 3.429s-3.429-1.535-3.429-3.429c0-1.894 1.535-3.429 3.429-3.429s3.429 1.535 3.429 3.429z"></path>
<path class="path9" fill="#e7eced" d="M19.665 15.31c0 1.959-1.588 3.547-3.547 3.547s-3.547-1.588-3.547-3.547c0-1.959 1.588-3.547 3.547-3.547s3.547 1.588 3.547 3.547z"></path>
<path class="path10" fill="#e7eced" d="M30.857 27.429c0 1.894-1.535 3.429-3.429 3.429s-3.429-1.535-3.429-3.429c0-1.894 1.535-3.429 3.429-3.429s3.429 1.535 3.429 3.429z"></path>
</symbol>
<symbol id="icon-date" viewBox="0 0 30 32">
<title>date</title>
<path class="path1" d="M29.328 2.128h-3.728v-1.6c0-0.292-0.236-0.528-0.528-0.528h-3.744c-0.292 0-0.528 0.236-0.528 0.528v1.6h-11.728v-1.6c0-0 0-0 0-0 0-0.292-0.236-0.528-0.528-0.528-0.006 0-0.011 0-0.017 0l-3.727-0c-0.292 0-0.528 0.236-0.528 0.528v1.6h-3.744c-0 0-0 0-0 0-0.292 0-0.528 0.236-0.528 0.528 0 0.006 0 0.011 0 0.017l-0 28.799c0 0.292 0.236 0.528 0.528 0.528h28.8c0.292 0 0.528-0.236 0.528-0.528v-28.8c0-0.292-0.236-0.528-0.528-0.528zM21.872 1.072h2.672v3.2h-2.672zM5.328 1.072h2.672v3.2h-2.672zM1.072 3.2h3.2v1.6c0 0.292 0.236 0.528 0.528 0.528h3.728c0.005 0 0.010 0 0.016 0 0.292 0 0.528-0.236 0.528-0.528 0-0 0-0 0-0v-1.6h11.728v1.6c0 0.292 0.236 0.528 0.528 0.528h3.728c0.005 0 0.010 0 0.016 0 0.292 0 0.528-0.236 0.528-0.528 0-0 0-0 0-0v-1.6h3.2v4.8h-27.728zM1.072 30.928v-21.856h27.728v21.856z"></path>
<path class="path2" d="M19.2 12.272h-14.4v15.472h20.272v-15.472zM15.472 13.344h3.728v3.728h-3.728zM19.2 21.872h-3.728v-3.744h3.728zM10.672 18.128h3.728v3.728h-3.728zM10.672 13.328h3.728v3.728h-3.728zM5.872 13.328h3.728v3.728h-3.728zM5.872 18.128h3.728v3.728h-3.728zM9.6 26.672h-3.728v-3.744h3.728zM14.4 26.672h-3.728v-3.744h3.728zM19.2 26.672h-3.728v-3.744h3.728zM24 26.672h-3.728v-3.744h3.728zM24 21.872h-3.728v-3.744h3.728zM24 13.344v3.728h-3.728v-3.744z"></path>
</symbol>
<symbol id="icon-employment" viewBox="0 0 35 32">
<title>employment</title>
<path class="path1" d="M32.314 25.628l-5.691-2.462c-0.186-0.115-0.335-0.275-0.433-0.465l3.803-0.007c0.171 0.015 0.37 0.024 0.571 0.024 0.829 0 1.623-0.15 2.356-0.424 0.563-0.266 0.979-0.872 0.979-1.575 0-0.372-0.116-0.716-0.314-0.999-2.011-2.685-3.347-5.992-3.691-9.588s-0.233-7.061-7.111-7.165c-0 0-0 0-0 0-1.002 0-1.962 0.179-2.85 0.507-0.161-0.57-0.456-1.044-0.82-1.455-1.31-1.266-3.102-2.049-5.078-2.049-0.227 0-0.451 0.010-0.673 0.031-0.164-0.020-0.388-0.030-0.615-0.030-1.993 0-3.8 0.797-5.119 2.090-0.768 0.905-1.237 2.088-1.237 3.38 0 0.143 0.006 0.285 0.017 0.425l-0.001 3.089c-0.361 0.402-0.585 0.933-0.594 1.517l-0 2.324c0.019 0.707 0.354 1.332 0.868 1.742 0.431 1.638 1.134 3.067 2.070 4.312l-0.023 1.889c-0.002 0.577-0.323 1.080-0.795 1.34l-5.245 2.832c-1.616 0.913-2.689 2.619-2.689 4.575 0 0.018 0 0.036 0 0.054l-0 2.459h34.915v-2.147c0-0.006 0-0.014 0-0.022 0-1.83-1.047-3.416-2.575-4.191zM25.61 30.865h-24.441v-1.309c0.003-1.536 0.854-2.873 2.109-3.568l5.258-2.839c0.848-0.467 1.413-1.355 1.414-2.374v-2.357l-0.14-0.157c-0.927-1.159-1.632-2.538-2.026-4.044l-0.017-0.303-0.192-0.122c-0.353-0.198-0.589-0.569-0.594-0.994v-2.323c0.001-0.339 0.149-0.644 0.383-0.854l0.193-0.176v-3.701c-0.009-0.099-0.013-0.213-0.013-0.329 0-0.987 0.355-1.892 0.944-2.593 1.11-1.041 2.615-1.684 4.27-1.684 0.222 0 0.442 0.012 0.658 0.034 0.161-0.022 0.379-0.034 0.599-0.034 1.648 0 3.147 0.636 4.266 1.676 0.409 0.475 0.704 1.067 0.83 1.719l0.004 0.495s0 0.14 0 0.21v0 0.349c0 0.14 0 0.227 0 0.227v3.631l0.192 0.175c0.236 0.209 0.384 0.513 0.384 0.851 0 0.002 0 0.003 0 0.005v2.322c-0.002 0.517-0.343 0.953-0.812 1.098l-0.218 0.072-0.087 0.279c-0.408 1.265-0.965 2.364-1.667 3.355-0.14 0.199-0.3 0.403-0.471 0.599l-0.132 0.148v2.409c-0.006 0.065-0.009 0.141-0.009 0.218s0.003 0.153 0.009 0.228l-0.001 0.077c0.025 0.137 0.055 0.254 0.093 0.368l-0.005-0.019c0.049 0.137 0.102 0.252 0.163 0.362l-0.006-0.012c0.093 0.159 0.191 0.296 0.3 0.423l0.136 0.153c0.199 0.2 0.43 0.369 0.683 0.499l5.567 2.783c1.414 0.658 2.377 2.066 2.377 3.7 0 0.050-0.001 0.099-0.003 0.148zM33.763 30.865h-6.983v-1.187c0-0.003 0-0.007 0-0.010 0-2.040-1.166-3.807-2.868-4.672l-4.028-2.004c0.048-0.114 0.076-0.246 0.076-0.384 0-0.555-0.447-1.006-1-1.012h-1.293v-0.157c-0.002-0.031-0.004-0.068-0.004-0.105s0.001-0.073 0.004-0.11c-0.009-0.055-0.014-0.125-0.014-0.196s0.005-0.14 0.015-0.209l-0.001-1.982 0.419-0.559c0.702-0.969 1.292-2.084 1.717-3.276 0.705-0.503 1.15-1.235 1.15-2.070 0-0.047-0.001-0.095-0.004-0.141l0-2.315c-0.003-0.583-0.221-1.115-0.578-1.521l0.002-3.105c0.023-0.186 0.037-0.401 0.037-0.62s-0.013-0.434-0.039-0.645c0.738-0.262 1.589-0.429 2.479-0.429 0.007 0 0.014 0 0.021 0 0.004-0 0.010-0 0.016-0 3.268 0 5.918 2.65 5.918 5.918 0 0.012-0 0.025-0 0.037 0.359 3.914 1.772 7.443 3.949 10.37-0.004 0.017 0.016 0.101 0.016 0.19s-0.020 0.173-0.056 0.248c-0.044 0.162-0.159 0.294-0.309 0.362-0.564 0.203-1.211 0.319-1.885 0.319-0.173 0-0.345-0.008-0.514-0.023l-3.941 0.002c-0.004-0-0.009-0-0.014-0-0.588 0-1.065 0.477-1.065 1.065 0 0.179 0.044 0.347 0.122 0.495 0.218 0.472 0.573 0.856 1.015 1.105l5.686 2.468c1.167 0.581 1.956 1.766 1.956 3.136 0 0.015-0 0.029-0 0.044z"></path>
</symbol>
<symbol id="icon-hire" viewBox="0 0 42 32">
<title>hire</title>
<path class="path1" fill="#6964ac" d="M41.21 30.77h-8.49c0.435-0.544 0.698-1.242 0.698-2.002 0-0.215-0.021-0.425-0.061-0.629l-1.737-9.14c-0.228-1.159-1.049-2.082-2.127-2.453l-4.493-1.457c-0.036-0.008-0.078-0.012-0.12-0.012s-0.084 0.004-0.124 0.013l0.004-1.211c0.813-0.907 1.31-2.111 1.31-3.432 0-0.006 0-0.013-0-0.019v-1.429c0.766-0.265 1.307-0.979 1.31-1.82v-3.29c0-0 0-0 0-0 0-2.134-1.719-3.867-3.848-3.89l-5.242-0c-0.861 0.002-1.589 0.567-1.836 1.346-1.158 0.287-2.004 1.308-2.004 2.528 0 0.002 0 0.004 0 0.006v3.28c-0 0.009-0 0.019-0 0.030 0 0.825 0.518 1.53 1.247 1.806l0.013 1.264c0 0.002 0 0.005 0 0.008 0 1.349 0.488 2.585 1.297 3.54l-0.007 1.252c-0.035-0.007-0.074-0.011-0.115-0.011s-0.080 0.004-0.119 0.012l-4.436 1.479c-1.093 0.383-1.905 1.306-2.127 2.44l-1.743 9.18c-0.037 0.183-0.058 0.393-0.058 0.608 0 0.76 0.263 1.458 0.703 2.008l-8.495-0.006c-0.34 0-0.615 0.275-0.615 0.615s0.275 0.615 0.615 0.615h40.6c0.34 0 0.615-0.275 0.615-0.615s-0.275-0.615-0.615-0.615zM17.64 16.29c0.337 0 0.61-0.273 0.61-0.61v-0.81c0.71 0.455 1.569 0.737 2.491 0.77l0.169 0c0.005 0 0.011 0 0.017 0 0.976 0 1.888-0.271 2.666-0.743l-0.023 0.783c0 0.337 0.273 0.61 0.61 0.61v0c-0.253 1.541-1.576 2.703-3.17 2.703-0.046 0-0.091-0.001-0.137-0.003-0.032 0.002-0.078 0.003-0.124 0.003-1.594 0-2.916-1.161-3.167-2.684zM15.64 7.16v-3.27c0 0 0-0 0-0 0-0.746 0.604-1.35 1.35-1.35 0.004 0 0.007 0 0.011 0 0.336 0 0.609-0.273 0.609-0.61 0-0.387 0.313-0.7 0.7-0.7h5.24c1.469 0 2.66 1.191 2.66 2.66v3.27c0 0.002 0 0.003 0 0.005 0 0.119-0.030 0.231-0.082 0.329l0.002-1.004c-0.006-1.058-0.862-1.914-1.919-1.92h-6.571c-1.058 0.006-1.914 0.862-1.92 1.919v1.001c-0.050-0.093-0.080-0.205-0.080-0.323 0-0.003 0-0.005 0-0.008zM16.95 6.51c0-0.387 0.313-0.7 0.7-0.7h6.55c0.387 0 0.7 0.313 0.7 0.7v3.93c0 0 0 0.001 0 0.001 0 2.209-1.791 4-4 4-0.032 0-0.063-0-0.095-0.001-2.15-0.135-3.846-1.916-3.846-4.092 0-0.024 0-0.047 0.001-0.071zM13.050 30.77v-8.55h15.72v8.51zM30.050 30.77v0s0 0 0 0v-8.55c-0.028-0.68-0.585-1.22-1.269-1.22-0.004 0-0.008 0-0.012 0h-15.719c-0.701 0-1.27 0.569-1.27 1.27v8.51s0 0 0 0h-0.15c-0.011 0-0.024 0-0.037 0-1.105 0-2-0.895-2-2 0-0.135 0.013-0.266 0.039-0.393l1.738-9.117c0.139-0.723 0.652-1.299 1.326-1.526l3.674-1.224c0.366 2.114 2.187 3.702 4.378 3.702 0.046 0 0.093-0.001 0.139-0.002 0.033 0.001 0.079 0.002 0.125 0.002 2.191 0 4.012-1.588 4.374-3.675l3.664 1.194c0.688 0.231 1.201 0.807 1.338 1.517l1.742 9.143c0.023 0.114 0.036 0.246 0.036 0.38 0 1.105-0.895 2-2 2-0.013 0-0.026-0-0.038-0z"></path>
<path class="path2" fill="#6964ac" d="M20.91 24.88c-1.060 0-1.92 0.86-1.92 1.92s0.86 1.92 1.92 1.92c1.060 0 1.92-0.86 1.92-1.92-0.006-1.058-0.862-1.914-1.919-1.92zM20.91 27.5c-0.387 0-0.7-0.313-0.7-0.7s0.313-0.7 0.7-0.7c0.387 0 0.7 0.313 0.7 0.7s-0.313 0.7-0.7 0.7z"></path>
</symbol>
<symbol id="icon-location" viewBox="0 0 22 32">
<title>location</title>
<path class="path1" d="M11.311 7.016c-0.005-0-0.011-0-0.016-0-2.263 0-4.098 1.835-4.098 4.098s1.835 4.098 4.098 4.098c2.263 0 4.098-1.835 4.098-4.098 0-0.006 0-0.011-0-0.017-0.009-2.25-1.831-4.072-4.081-4.081zM11.311 14.033c-1.612-0-2.918-1.306-2.918-2.918s1.306-2.918 2.918-2.918c1.606 0 2.909 1.297 2.918 2.901 0 0.006 0 0.012 0 0.017 0 1.612-1.306 2.918-2.918 2.918-0 0-0 0-0 0z"></path>
<path class="path2" d="M19.131 3.279c-2.029-2.028-4.831-3.282-7.926-3.282s-5.897 1.254-7.926 3.282c-2.034 2.253-3.279 5.253-3.279 8.544 0 2.694 0.834 5.193 2.258 7.253l8.956 12.925 8.967-12.951c1.4-2.019 2.236-4.522 2.236-7.219 0-3.294-1.247-6.297-3.295-8.562zM19.23 18.361l-8.016 11.59-8.033-11.59c-1.278-1.824-2.042-4.090-2.042-6.535 0-2.973 1.131-5.682 2.985-7.72 1.809-1.805 4.319-2.927 7.090-2.927s5.281 1.122 7.099 2.936c1.844 2.029 2.974 4.736 2.974 7.708 0 2.453-0.77 4.726-2.080 6.591z"></path>
</symbol>
<symbol id="icon-salary" viewBox="0 0 30 32">
<title>salary</title>
<path class="path1" d="M15.92 20.256c0.575-0.045 1.073-0.342 1.388-0.778l4.996-6.902c0.096-0.096 0.156-0.229 0.156-0.376 0-0.294-0.238-0.532-0.532-0.532-0.147 0-0.28 0.060-0.376 0.156l-6.896 5.008c-0.475 0.35-0.779 0.908-0.779 1.536 0 1.050 0.85 1.901 1.899 1.904zM14.944 18.304c0.021-0.249 0.148-0.465 0.334-0.606l4.21-3.042-3.040 4.208c-0.153 0.211-0.398 0.346-0.675 0.346-0.46 0-0.832-0.372-0.832-0.832 0-0.026 0.001-0.052 0.004-0.077z"></path>
<path class="path2" d="M27.856 10.432v0c-0.572-0.968-1.201-1.807-1.912-2.569l1.144-1.127 0.752 0.752 2.256-2.256-2.272-2.336-2.224 2.256 0.752 0.752-1.152 1.152c-0.753-0.703-1.592-1.333-2.493-1.867l-0.067-0.037c-1.576-0.923-3.428-1.563-5.404-1.801l-0.068-0.647h0.8c0.738 0 1.336-0.598 1.336-1.336s-0.598-1.336-1.336-1.336h-4.8c-0.738 0-1.336 0.598-1.336 1.336s0.598 1.336 1.336 1.336h0.8v0.624c-0.657 0.071-1.24 0.172-1.809 0.307-0.142 0.037-0.317 0.248-0.317 0.501 0 0.295 0.239 0.534 0.534 0.534 0.043 0 0.084-0.005 0.124-0.014 0.399-0.097 0.904-0.187 1.419-0.249l0.641-0.006h0.496v1.056c0 0.296 0.24 0.536 0.536 0.536s0.536-0.24 0.536-0.536v-1.168c2.052 0.098 3.955 0.649 5.638 1.555l-0.598 0.877c-0.045 0.077-0.072 0.171-0.072 0.27 0 0.197 0.105 0.369 0.261 0.465 0.043 0.012 0.090 0.018 0.138 0.018s0.095-0.006 0.14-0.018c0.194-0.002 0.366-0.109 0.459-0.269l0.401-0.787c1.681 1.077 3.067 2.463 4.112 4.091l-0.88 0.581c-0.166 0.091-0.277 0.265-0.277 0.464 0 0.292 0.236 0.528 0.528 0.528 0.007 0 0.015-0 0.022-0 0.040 0.011 0.087 0.017 0.135 0.017s0.095-0.006 0.14-0.018l0.924-0.655c0.91 1.637 1.489 3.571 1.599 5.631l-1.055 0.033c-0.296 0-0.536 0.24-0.536 0.536s0.24 0.536 0.536 0.536h1.056c-0.111 2.093-0.69 4.027-1.635 5.732l-0.877-0.596c-0.076-0.044-0.167-0.070-0.264-0.070-0.295 0-0.534 0.239-0.534 0.534 0 0.198 0.108 0.37 0.267 0.463l0.915 0.529c-1.094 1.65-2.489 3.011-4.12 4.031l-0.584-0.879c-0.094-0.162-0.266-0.27-0.464-0.27-0.295 0-0.534 0.239-0.534 0.534 0 0.097 0.026 0.188 0.071 0.267l0.527 0.909c-1.618 0.873-3.527 1.424-5.555 1.519l-0.029-1.055c0-0.296-0.24-0.536-0.536-0.536s-0.536 0.24-0.536 0.536v1.056c-0.92-0.034-1.793-0.154-2.635-0.354 0.055 0.010 0.014 0.005-0.029 0.005-0.295 0-0.534 0.239-0.534 0.534 0 0.252 0.175 0.463 0.41 0.519 0.964 0.232 2.068 0.366 3.202 0.369h0.098c2.599-0.019 5.030-0.723 7.125-1.941l-0.069 0.037c2.17-1.278 3.932-3.035 5.179-5.133l0.037-0.067c1.213-2.065 1.929-4.549 1.929-7.2s-0.716-5.135-1.966-7.268zM27.856 4.4l0.752 0.752-0.752 0.752-0.752-0.752zM14.928 3.2v-1.6h-1.856c-0.020 0.005-0.042 0.008-0.065 0.008-0.15 0-0.272-0.122-0.272-0.272s0.122-0.272 0.272-0.272c0.023 0 0.046 0.003 0.067 0.008l4.798-0c0.020-0.005 0.042-0.008 0.065-0.008 0.15 0 0.272 0.122 0.272 0.272s-0.122 0.272-0.272 0.272c-0.023 0-0.046-0.003-0.067-0.008l-1.87 0v1.6h-1.072z"></path>
<path class="path3" d="M10.672 7.472h-2.672c-0.296 0-0.536 0.24-0.536 0.536s0.24 0.536 0.536 0.536h2.672c0.296 0 0.536-0.24 0.536-0.536s-0.24-0.536-0.536-0.536z"></path>
<path class="path4" d="M10.672 11.2h-5.344c-0.296 0-0.536 0.24-0.536 0.536s0.24 0.536 0.536 0.536h5.344c0.296 0 0.536-0.24 0.536-0.536s-0.24-0.536-0.536-0.536z"></path>
<path class="path5" d="M10.672 14.928h-8c-0.296 0-0.536 0.24-0.536 0.536s0.24 0.536 0.536 0.536h8c0.296 0 0.536-0.24 0.536-0.536s-0.24-0.536-0.536-0.536z"></path>
<path class="path6" d="M10.672 18.672h-10.144c-0.296 0-0.536 0.24-0.536 0.536s0.24 0.536 0.536 0.536h10.144c0.296 0 0.536-0.24 0.536-0.536s-0.24-0.536-0.536-0.536z"></path>
<path class="path7" d="M10.672 22.4h-6.944c-0.296 0-0.536 0.24-0.536 0.536s0.24 0.536 0.536 0.536h6.944c0.296 0 0.536-0.24 0.536-0.536s-0.24-0.536-0.536-0.536z"></path>
<path class="path8" d="M10.672 26.128h-3.744c-0.296 0-0.536 0.24-0.536 0.536s0.24 0.536 0.536 0.536h3.744c0.296 0 0.536-0.24 0.536-0.536s-0.24-0.536-0.536-0.536z"></path>
</symbol>
<symbol id="icon-title" viewBox="0 0 29 32">
<title>title</title>
<path class="path1" d="M23.584 13.328l5.664-8.24c0.047-0.078 0.075-0.172 0.075-0.272s-0.028-0.194-0.077-0.274c-0.088-0.157-0.254-0.264-0.446-0.27h-16.001v-2.144c0-0.292-0.236-0.528-0.528-0.528h-11.2v-1.072c0-0.296-0.24-0.536-0.536-0.536s-0.536 0.24-0.536 0.536v30.944c0 0.296 0.24 0.536 0.536 0.536s0.536-0.24 0.536-0.536v-13.344h5.872c-0.338 0.438-0.543 0.995-0.544 1.6 0 1.476 1.196 2.672 2.672 2.672h19.728c0.202-0.003 0.376-0.118 0.463-0.285 0.049-0.081 0.077-0.174 0.077-0.275s-0.028-0.194-0.077-0.274zM1.072 2.672h10.656v14.4h-10.656zM9.072 21.344c-0.884 0-1.6-0.716-1.6-1.6s0.716-1.6 1.6-1.6h3.2c0 0 0 0 0 0 0.292 0 0.528-0.236 0.528-0.528 0-0.006-0-0.011-0-0.017l0-12.271h14.992l-5.296 7.696c-0.060 0.085-0.096 0.19-0.096 0.304s0.036 0.219 0.097 0.306l5.295 7.694z"></path>
</symbol>
</defs>
</svg>
