<svg style="position: absolute; width: 0; height: 0; overflow: hidden;" version="1.1" xmlns="http://www.w3.org/2000/svg" xmlns:xlink="http://www.w3.org/1999/xlink">
<defs>
<symbol id="icon-current" viewBox="0 0 31 32">
<title>current</title>
<path class="path1" fill="#f98c67" d="M19.2 11.733h-13.333c-0.295 0-0.533 0.239-0.533 0.533s0.239 0.533 0.533 0.533h13.333c0.295 0 0.533-0.239 0.533-0.533s-0.239-0.533-0.533-0.533z"></path>
<path class="path2" fill="#f98c67" d="M5.867 8.533h5.333c0.295 0 0.533-0.239 0.533-0.533s-0.239-0.533-0.533-0.533h-5.333c-0.295 0-0.533 0.239-0.533 0.533s0.239 0.533 0.533 0.533z"></path>
<path class="path3" fill="#f98c67" d="M19.733 16.533c0-0.295-0.239-0.533-0.533-0.533h-13.333c-0.295 0-0.533 0.239-0.533 0.533s0.239 0.533 0.533 0.533h13.333c0.295 0 0.533-0.239 0.533-0.533z"></path>
<path class="path4" fill="#f98c67" d="M15.467 20.8c0-0.295-0.239-0.533-0.533-0.533h-9.067c-0.295 0-0.533 0.239-0.533 0.533s0.239 0.533 0.533 0.533h9.067c0.295 0 0.533-0.239 0.533-0.533z"></path>
<path class="path5" fill="#f98c67" d="M5.867 24.533c-0.295 0-0.533 0.239-0.533 0.533s0.239 0.533 0.533 0.533h7.467c0.295 0 0.533-0.239 0.533-0.533s-0.239-0.533-0.533-0.533z"></path>
<path class="path6" fill="#9a88c0" d="M1.067 1.067h15.467v7.467h7.467v8h1.067v-8.753l-7.78-7.78h-17.287v32h18.667v-1.067h-17.6zM17.6 1.82l5.647 5.647h-5.647z"></path>
<path class="path7" fill="#f98c67" d="M31.033 23.927l-0.773-0.147c-0.496-0.092-0.866-0.521-0.866-1.037 0-0.232 0.075-0.446 0.202-0.62l0.485-0.664c0.058-0.084 0.093-0.188 0.093-0.3 0-0.142-0.056-0.271-0.146-0.367l-1.026-1.066c-0.096-0.095-0.229-0.154-0.375-0.154-0.109 0-0.21 0.032-0.294 0.088l-0.665 0.439c-0.166 0.114-0.371 0.182-0.592 0.182-0.526 0-0.962-0.386-1.041-0.889l-0.121-0.813c-0.040-0.258-0.261-0.453-0.527-0.453h-1.473c-0.001 0-0.002 0-0.003 0-0.259 0-0.475 0.185-0.523 0.43l-0.194 0.997c-0.1 0.486-0.524 0.846-1.033 0.846-0.219 0-0.422-0.067-0.591-0.181l-0.836-0.564c-0.082-0.055-0.183-0.087-0.292-0.087-0.146 0-0.278 0.059-0.375 0.154l-1.047 1.047c-0.090 0.095-0.146 0.224-0.146 0.366 0 0.112 0.035 0.216 0.094 0.302l0.479 0.665c0.128 0.172 0.204 0.388 0.204 0.622 0 0.516-0.373 0.945-0.865 1.031l-0.786 0.174c-0.248 0.049-0.433 0.265-0.433 0.524 0 0.001 0 0.002 0 0.003v1.48c0 0.266 0.195 0.486 0.45 0.526l0.81 0.127c0.51 0.076 0.896 0.511 0.896 1.036 0 0.221-0.068 0.426-0.185 0.594l-0.438 0.663c-0.055 0.082-0.087 0.183-0.087 0.292 0 0.146 0.059 0.278 0.154 0.375l1.047 1.047c0.095 0.090 0.224 0.146 0.366 0.146 0.112 0 0.216-0.035 0.302-0.094l0.665-0.485c0.171-0.125 0.385-0.199 0.617-0.199 0.516 0 0.945 0.37 1.036 0.86l0.148 0.78c0.049 0.248 0.265 0.433 0.524 0.433 0.001 0 0.002 0 0.003 0h1.48c0.266-0 0.486-0.195 0.526-0.45l0.087-0.57c0.090-0.498 0.52-0.87 1.037-0.87 0.234 0 0.451 0.076 0.626 0.206l0.464 0.338c0.084 0.058 0.188 0.093 0.3 0.093 0.142 0 0.271-0.056 0.367-0.146l1.106-1.1c0.096-0.095 0.156-0.228 0.156-0.374 0-0.109-0.033-0.211-0.090-0.295l-0.439-0.665c-0.111-0.165-0.178-0.367-0.178-0.586 0-0.525 0.383-0.96 0.885-1.040l0.813-0.127c0.258-0.040 0.453-0.261 0.453-0.527v-1.467c0-0.001 0-0.002 0-0.003 0-0.259-0.185-0.475-0.43-0.523zM30.4 25.473l-0.36 0.053c-1.023 0.163-1.795 1.039-1.795 2.095 0 0.442 0.135 0.853 0.367 1.192l0.189 0.279-0.407 0.407-0.093-0.073c-0.344-0.25-0.774-0.4-1.24-0.4-1.053 0-1.927 0.768-2.092 1.775l-0.002 0.126h-0.58l-0.067-0.333c-0.187-0.996-1.049-1.739-2.086-1.739-0.469 0-0.903 0.152-1.254 0.41l-0.281 0.209-0.413-0.407 0.193-0.287c0.227-0.333 0.363-0.743 0.363-1.186 0-1.054-0.769-1.929-1.777-2.092l-0.399-0.028v-0.58l0.34-0.067c0.996-0.187 1.739-1.049 1.739-2.086 0-0.469-0.152-0.903-0.41-1.254l-0.209-0.287 0.413-0.407 0.473 0.32c0.333 0.228 0.745 0.365 1.189 0.365 1.022 0 1.874-0.723 2.075-1.684l0.109-0.574h0.58l0.053 0.353c0.163 1.023 1.039 1.795 2.095 1.795 0.442 0 0.853-0.135 1.192-0.367l0.279-0.189 0.413 0.407-0.213 0.293c-0.254 0.345-0.406 0.779-0.406 1.248 0 1.036 0.744 1.899 1.726 2.084l0.353 0.069z"></path>
<path class="path8" fill="#9a88c0" d="M24.533 22.4c-1.473 0-2.667 1.194-2.667 2.667s1.194 2.667 2.667 2.667c1.473 0 2.667-1.194 2.667-2.667s-1.194-2.667-2.667-2.667zM24.533 26.667c-0.884 0-1.6-0.716-1.6-1.6s0.716-1.6 1.6-1.6c0.884 0 1.6 0.716 1.6 1.6s-0.716 1.6-1.6 1.6z"></path>
</symbol>
<symbol id="icon-logo" viewBox="0 0 87 32">
<title>logo</title>
<path class="path1" d="M12.869 22.837h1.894l1.398-3.813c-0.876 0.599-1.728 1.201-2.559 1.803l-0.733 2.010z"></path>
<path class="path2" d="M23.095 14.604l3.018 8.235h1.894l-3.339-9.16c-0.531 0.307-1.055 0.615-1.573 0.925"></path>
<path class="path3" d="M20.438 7.353l1.601 4.365c0.52-0.309 1.047-0.614 1.581-0.916l-1.8-4.938h-0.835v-0.002h-1.928l-3.695 10.14c0.823-0.577 1.669-1.148 2.535-1.715l2.541-6.933z"></path>
<path class="path4" d="M49.998 0.287c0 0-35.337 10.485-49.613 31.427 0.021-0.034 9.486-14.881 49.613-31.427"></path>
<path class="path5" d="M38.624 13.232v1.604c0.162-0.197 0.341-0.373 0.534-0.528 0.192-0.153 0.391-0.288 0.596-0.403s0.412-0.212 0.619-0.288c0.208-0.077 0.408-0.141 0.601-0.192 0.452-0.115 0.91-0.183 1.373-0.202v1.23c-0.457 0-0.865 0.057-1.223 0.168-0.359 0.113-0.676 0.261-0.949 0.443-0.274 0.183-0.508 0.387-0.705 0.616-0.196 0.228-0.355 0.456-0.479 0.687s-0.213 0.448-0.271 0.654c-0.057 0.206-0.086 0.379-0.086 0.518v5.384h-1.174v-9.69h1.165z"></path>
<path class="path6" d="M46.581 12.847c0.65 0 1.263 0.13 1.839 0.394s1.078 0.623 1.508 1.082c0.431 0.457 0.77 0.993 1.017 1.604 0.247 0.612 0.37 1.264 0.37 1.957s-0.123 1.345-0.37 1.957c-0.247 0.612-0.586 1.146-1.017 1.605-0.43 0.458-0.933 0.818-1.508 1.081-0.576 0.264-1.189 0.395-1.839 0.395s-1.264-0.13-1.839-0.395c-0.575-0.262-1.079-0.623-1.509-1.081s-0.77-0.992-1.017-1.605c-0.247-0.612-0.37-1.264-0.37-1.957s0.123-1.345 0.37-1.957c0.247-0.611 0.586-1.147 1.017-1.604 0.431-0.459 0.934-0.818 1.509-1.082s1.188-0.394 1.839-0.394zM50.177 17.883c0-0.525-0.094-1.021-0.284-1.485-0.191-0.465-0.448-0.87-0.773-1.216s-0.706-0.621-1.143-0.822c-0.438-0.202-0.903-0.303-1.396-0.303-0.5 0-0.969 0.101-1.405 0.303s-0.818 0.476-1.143 0.822c-0.324 0.346-0.581 0.751-0.767 1.216s-0.281 0.959-0.281 1.485c0 0.532 0.094 1.029 0.281 1.495s0.443 0.868 0.767 1.216c0.326 0.346 0.707 0.617 1.143 0.817 0.437 0.198 0.906 0.298 1.405 0.298 0.493 0 0.959-0.099 1.396-0.298 0.437-0.2 0.818-0.472 1.143-0.817 0.325-0.347 0.583-0.75 0.773-1.216 0.189-0.465 0.284-0.963 0.284-1.495"></path>
<path class="path7" d="M53.205 8.118v4.508h3.785v1.278h-3.795v4.032c0 0.519 0.093 1.002 0.28 1.455 0.188 0.45 0.449 0.842 0.787 1.174 0.337 0.333 0.738 0.594 1.202 0.788s0.973 0.287 1.527 0.287v1.28c-0.771 0-1.465-0.144-2.083-0.43-0.618-0.285-1.142-0.657-1.574-1.123-0.432-0.464-0.764-0.995-0.994-1.591-0.232-0.596-0.346-1.205-0.346-1.826v-9.834h1.211z"></path>
<path class="path8" d="M66.122 12.972v9.949h-1.166v-1.693c-0.337 0.423-0.71 0.749-1.115 0.976-0.407 0.226-0.791 0.396-1.153 0.504-0.422 0.121-0.843 0.192-1.265 0.213-0.657 0-1.27-0.137-1.839-0.405-0.57-0.268-1.063-0.632-1.482-1.089-0.419-0.458-0.749-0.985-0.989-1.584-0.242-0.599-0.362-1.232-0.362-1.897 0-0.66 0.12-1.29 0.362-1.891 0.24-0.602 0.57-1.131 0.989-1.589 0.419-0.459 0.914-0.821 1.486-1.091 0.573-0.268 1.189-0.403 1.851-0.403 0.422 0.020 0.844 0.089 1.266 0.211 0.181 0.052 0.369 0.117 0.564 0.197 0.197 0.081 0.392 0.18 0.588 0.299s0.387 0.256 0.574 0.413c0.186 0.157 0.361 0.342 0.524 0.553v-1.673h1.166zM64.983 17.946c0-0.52-0.093-1.010-0.28-1.472s-0.44-0.863-0.759-1.203c-0.319-0.34-0.695-0.611-1.125-0.808s-0.891-0.298-1.38-0.298c-0.487 0-0.947 0.1-1.381 0.298s-0.811 0.468-1.13 0.808c-0.319 0.34-0.573 0.742-0.759 1.203s-0.281 0.952-0.281 1.472 0.093 1.011 0.281 1.473c0.186 0.462 0.439 0.863 0.759 1.204 0.319 0.339 0.696 0.609 1.13 0.807 0.434 0.2 0.894 0.299 1.381 0.299 0.489 0 0.949-0.099 1.38-0.299 0.43-0.198 0.805-0.468 1.125-0.807 0.319-0.341 0.573-0.742 0.759-1.204s0.28-0.953 0.28-1.473"></path>
<path class="path9" d="M75.104 12.972l0.009 1.738c-0.344-0.428-0.722-0.76-1.135-1-0.412-0.236-0.8-0.408-1.161-0.518-0.422-0.128-0.843-0.202-1.265-0.221-0.651 0-1.264 0.128-1.839 0.384s-1.080 0.611-1.513 1.062c-0.434 0.451-0.776 0.985-1.026 1.6-0.25 0.614-0.374 1.282-0.374 2 0 0.717 0.126 1.381 0.379 1.993s0.596 1.143 1.029 1.596c0.434 0.451 0.943 0.805 1.528 1.061s1.207 0.384 1.87 0.384c0.427-0.025 0.851-0.099 1.274-0.221 0.182-0.052 0.368-0.119 0.561-0.203s0.387-0.184 0.583-0.302c0.196-0.119 0.385-0.26 0.569-0.423s0.357-0.351 0.52-0.563v1.856c0 0.185-0.032 0.395-0.095 0.629s-0.158 0.472-0.285 0.716c-0.127 0.244-0.289 0.485-0.487 0.721-0.199 0.236-0.436 0.448-0.71 0.634s-0.586 0.335-0.935 0.448c-0.35 0.112-0.741 0.168-1.174 0.168v0.012c-0.092-0.001-0.184-0.003-0.277-0.010-1.15-0.088-2.203-0.628-3.010-1.527-0.298 0.288-0.6 0.57-0.903 0.853 1.017 1.124 2.355 1.798 3.818 1.91 0.125 0.010 0.248 0.014 0.371 0.015v0.007c0.196 0 0.383-0.012 0.566-0.031 0.029-0.004 0.058-0.008 0.088-0.009 0.067-0.008 0.135-0.016 0.201-0.026 0.093-0.014 0.185-0.029 0.276-0.048v-0.005c0.14-0.031 0.278-0.068 0.409-0.111 0.461-0.153 0.87-0.357 1.229-0.61s0.669-0.543 0.935-0.87c0.265-0.326 0.483-0.657 0.655-0.995 0.171-0.336 0.299-0.668 0.383-0.994 0.084-0.328 0.127-0.62 0.127-0.875v-10.229h-1.192zM74.851 19.512c-0.187 0.465-0.444 0.87-0.768 1.216-0.326 0.347-0.705 0.619-1.139 0.817-0.434 0.199-0.897 0.299-1.391 0.299s-0.96-0.1-1.396-0.299c-0.437-0.198-0.818-0.47-1.143-0.817s-0.581-0.751-0.768-1.216c-0.186-0.465-0.28-0.959-0.28-1.485s0.093-1.020 0.28-1.484c0.187-0.465 0.443-0.871 0.768-1.218s0.706-0.617 1.143-0.816 0.902-0.299 1.396-0.299 0.958 0.1 1.391 0.299c0.434 0.199 0.813 0.47 1.139 0.816s0.581 0.752 0.768 1.218c0.186 0.464 0.28 0.959 0.28 1.484s-0.093 1.020-0.28 1.485"></path>
<path class="path10" d="M34.283 20.945c-0.25 0.196-0.503 0.346-0.759 0.452-0.256 0.105-0.488 0.183-0.697 0.23s-0.444 0.082-0.709 0.101c-0.452 0-0.851-0.067-1.198-0.202s-0.649-0.31-0.908-0.524-0.475-0.456-0.651-0.725c-0.175-0.269-0.319-0.538-0.433-0.803s-0.199-0.516-0.253-0.749c-0.054-0.235-0.091-0.427-0.109-0.573h8.215c0-0.403-0.045-0.81-0.137-1.221-0.089-0.41-0.224-0.805-0.401-1.187s-0.398-0.739-0.659-1.076c-0.263-0.336-0.566-0.628-0.913-0.873-0.347-0.248-0.735-0.444-1.166-0.588s-0.899-0.216-1.405-0.216c-0.543 0-1.035 0.080-1.477 0.24-0.444 0.16-0.838 0.372-1.184 0.634-0.347 0.263-0.645 0.562-0.896 0.899s-0.455 0.686-0.619 1.049c-0.162 0.361-0.283 0.72-0.361 1.076s-0.118 0.681-0.118 0.974c0 0.354 0.040 0.722 0.122 1.112 0.082 0.387 0.203 0.767 0.366 1.143 0.163 0.374 0.37 0.73 0.623 1.067 0.255 0.336 0.553 0.635 0.9 0.893 0.347 0.261 0.739 0.465 1.18 0.615 0.439 0.151 0.931 0.227 1.472 0.227 0.663-0.039 1.293-0.198 1.889-0.481 0.253-0.121 0.509-0.273 0.769-0.456 0.258-0.182 0.507-0.409 0.745-0.677 0.238-0.27 0.455-0.585 0.65-0.947 0.026-0.048 0.047-0.107 0.072-0.158h-1.259c-0.211 0.299-0.441 0.546-0.691 0.742zM29.155 15.797c0.217-0.321 0.453-0.584 0.709-0.793s0.517-0.369 0.782-0.482c0.265-0.111 0.504-0.193 0.718-0.244s0.46-0.086 0.737-0.105c0.276 0.019 0.523 0.055 0.736 0.105 0.214 0.052 0.454 0.133 0.718 0.244 0.266 0.113 0.525 0.273 0.782 0.482s0.492 0.472 0.71 0.793c0.217 0.321 0.384 0.715 0.506 1.183h-6.903c0.12-0.468 0.289-0.861 0.506-1.183"></path>
<path class="path11" d="M83.808 20.945c-0.249 0.196-0.502 0.346-0.758 0.452-0.256 0.105-0.487 0.183-0.696 0.23s-0.444 0.082-0.709 0.101c-0.452 0-0.851-0.067-1.198-0.202s-0.649-0.31-0.909-0.524c-0.258-0.214-0.476-0.456-0.65-0.725s-0.319-0.538-0.434-0.803c-0.116-0.266-0.198-0.516-0.253-0.749-0.054-0.235-0.090-0.427-0.108-0.573h8.214c0-0.403-0.046-0.81-0.136-1.221s-0.225-0.805-0.402-1.187c-0.177-0.381-0.398-0.739-0.659-1.076s-0.566-0.628-0.912-0.873c-0.347-0.248-0.735-0.444-1.166-0.588s-0.899-0.216-1.405-0.216c-0.542 0-1.035 0.080-1.477 0.24-0.444 0.16-0.838 0.372-1.184 0.634s-0.644 0.562-0.895 0.899c-0.25 0.336-0.456 0.686-0.62 1.049-0.162 0.361-0.282 0.72-0.361 1.076-0.077 0.355-0.118 0.681-0.118 0.974 0 0.354 0.041 0.722 0.123 1.112 0.081 0.387 0.203 0.767 0.366 1.143 0.162 0.374 0.37 0.73 0.623 1.067s0.552 0.635 0.899 0.893c0.346 0.261 0.739 0.465 1.179 0.615 0.44 0.151 0.931 0.227 1.473 0.227 0.662-0.039 1.293-0.198 1.889-0.481 0.253-0.121 0.508-0.273 0.768-0.456s0.508-0.409 0.745-0.677c0.238-0.27 0.456-0.585 0.651-0.947 0.025-0.048 0.047-0.107 0.072-0.158h-1.26c-0.21 0.299-0.441 0.546-0.691 0.742zM78.681 15.797c0.218-0.321 0.454-0.584 0.71-0.793s0.516-0.369 0.781-0.482c0.266-0.111 0.505-0.193 0.719-0.244s0.46-0.086 0.736-0.105c0.278 0.019 0.523 0.055 0.737 0.105 0.214 0.052 0.454 0.133 0.718 0.244 0.265 0.113 0.525 0.273 0.782 0.482 0.256 0.208 0.492 0.472 0.709 0.793 0.218 0.321 0.385 0.715 0.506 1.183h-6.904c0.121-0.468 0.29-0.861 0.506-1.183"></path>
</symbol>
<symbol id="icon-facebook" viewBox="0 0 32 32">
<title>facebook</title>
<path class="path1" d="M16 0c-8.837 0-16 7.164-16 16 0 8.837 7.163 16 16 16s16-7.163 16-16c0-8.836-7.163-16-16-16zM16 30.545c-8.033 0-14.546-6.512-14.546-14.545s6.513-14.545 14.546-14.545 14.546 6.512 14.546 14.545-6.513 14.545-14.546 14.545zM17.446 12.545c0-0.588 0.061-0.902 0.966-0.902h1.209v-2.19h-1.936c-2.325 0-3.144 1.096-3.144 2.936v1.422h-1.449v2.189h1.449v6.547h2.9v-6.547h1.937l0.257-2.189h-2.193l0.004-1.266z"></path>
</symbol>
<symbol id="icon-twitter" viewBox="0 0 32 32">
<title>twitter</title>
<path class="path1" d="M23.598 10.398c-0.576 0.336-1.215 0.58-1.895 0.713-0.544-0.571-1.319-0.928-2.179-0.928-1.647 0-2.983 1.314-2.983 2.937 0 0.229 0.025 0.454 0.077 0.67-2.48-0.123-4.68-1.293-6.151-3.069-0.257 0.434-0.403 0.938-0.403 1.477 0 1.019 0.526 1.918 1.327 2.445-0.488-0.016-0.949-0.148-1.352-0.368-0.001 0.013-0.001 0.024-0.001 0.036 0 1.424 1.029 2.611 2.395 2.881-0.251 0.067-0.514 0.103-0.786 0.103-0.192 0-0.38-0.019-0.562-0.052 0.38 1.167 1.481 2.016 2.787 2.039-1.021 0.789-2.308 1.258-3.706 1.258-0.241 0-0.478-0.014-0.712-0.041 1.321 0.833 2.89 1.319 4.575 1.319 5.489 0 8.49-4.476 8.49-8.356 0-0.128-0.003-0.254-0.008-0.38 0.582-0.415 1.088-0.932 1.488-1.521-0.535 0.233-1.11 0.391-1.714 0.463 0.617-0.365 1.090-0.94 1.313-1.626zM16 0c-8.837 0-16 7.164-16 16 0 8.837 7.163 16 16 16s16-7.163 16-16c0-8.836-7.163-16-16-16zM16 30.545c-8.033 0-14.546-6.512-14.546-14.545s6.513-14.545 14.546-14.545 14.545 6.512 14.545 14.545-6.512 14.545-14.545 14.545z"></path>
</symbol>
<symbol id="icon-google" viewBox="0 0 32 32">
<title>google</title>
<path class="path1" d="M16 0c-8.836 0-16 7.163-16 16s7.164 16 16 16c8.837 0 16-7.163 16-16s-7.163-16-16-16zM16 30.545c-8.033 0-14.545-6.511-14.545-14.545 0-8.033 6.512-14.545 14.545-14.545s14.545 6.512 14.545 14.545c0 8.034-6.512 14.545-14.545 14.545zM16.057 16.587c-0.373-0.277-0.721-0.688-0.734-0.815 0-0.217 0-0.317 0.513-0.737 0.666-0.546 1.033-1.264 1.033-2.021 0-0.654-0.183-1.24-0.498-1.665h0.278l1.538-1.165h-4.167c-1.672 0-3.137 1.313-3.137 2.809 0 1.546 1.131 2.721 2.653 2.784-0.023 0.108-0.036 0.216-0.036 0.323 0 0.224 0.051 0.437 0.152 0.642-1.886 0.013-3.475 1.274-3.475 2.766 0 1.339 1.53 2.311 3.637 2.311 2.276 0 3.505-1.424 3.505-2.765 0-1.116-0.342-1.785-1.262-2.467zM12.654 12.946c-0.069-0.558 0.047-1.074 0.315-1.382 0.163-0.188 0.373-0.286 0.607-0.286v-0.303l0.027 0.303c0.698 0.022 1.368 0.849 1.492 1.841 0.071 0.567-0.051 1.097-0.325 1.413-0.163 0.187-0.368 0.285-0.622 0.284h-0.001c-0.684-0.019-1.368-0.877-1.493-1.87zM13.809 20.66c-1.039 0-1.852-0.668-1.852-1.521 0-0.782 0.952-1.468 2.038-1.468v-0.304h0.001l0.028 0.304c0.234 0.003 0.461 0.038 0.677 0.106l0.215 0.154c0.552 0.394 0.843 0.617 0.931 0.977 0.021 0.094 0.032 0.188 0.032 0.282-0.002 0.976-0.698 1.47-2.070 1.47zM21.814 10.902h-1.455v2.184h-2.188v1.456h2.188v2.174h1.455v-2.174h2.192v-1.456h-2.192v-2.184z"></path>
</symbol>
<symbol id="icon-linkedin" viewBox="0 0 32 32">
<title>linkedin</title>
<path class="path1" d="M11.631 10.182c-0.801 0-1.45 0.652-1.45 1.457 0 0.804 0.649 1.457 1.45 1.457s1.449-0.653 1.449-1.457c0-0.805-0.649-1.457-1.449-1.457zM10.182 21.818h2.898v-8.011h-2.898v8.011zM19.896 13.808c-2.156 0-2.444 1.298-2.444 1.298l0.003-1.287h-2.909v8h2.909v-4.363c0 0 0-1.466 1.236-1.466 0.695 0 0.945 0.65 0.945 1.466v4.363h2.909v-4.363c0-2.278-0.989-3.648-2.649-3.648zM16 0c-8.836 0-16 7.163-16 16s7.164 16 16 16 16-7.163 16-16-7.164-16-16-16zM16 30.545c-8.033 0-14.545-6.512-14.545-14.545s6.512-14.545 14.545-14.545 14.545 6.512 14.545 14.545-6.512 14.545-14.545 14.545z"></path>
</symbol>
<symbol id="icon-customer" viewBox="0 0 49 32">
<title>customer</title>
<path class="path1" fill="#f98c67" d="M31.238 17.524h0.762c0.457 0 0.762-0.305 0.762-0.762s-0.305-0.762-0.762-0.762h-0.762c-0.457 0-0.762 0.305-0.762 0.762s0.305 0.762 0.762 0.762v0z"></path>
<path class="path2" fill="#f98c67" d="M32.762 21.333h-0.762c-0.457 0-0.762 0.305-0.762 0.762s0.305 0.762 0.762 0.762h0.762c0.457 0 0.762-0.305 0.762-0.762s-0.305-0.762-0.762-0.762v0z"></path>
<path class="path3" fill="#f98c67" d="M32 25.905h-0.762c-0.457 0-0.762 0.305-0.762 0.762s0.305 0.762 0.762 0.762h0.762c0.457 0 0.762-0.305 0.762-0.762s-0.305-0.762-0.762-0.762v0z"></path>
<path class="path4" fill="#928ed5" d="M45.333 10.667h-19.733c0.686-1.6 1.829-4.648 1.829-7.238 0-1.905-1.524-3.429-3.429-3.429s-3.429 1.524-3.429 3.429c0 1.524-0.914 4.267-2.819 6.781-1.524 1.981-4.114 4.267-7.848 4.267-0.076 0-0.152 0-0.229 0-0.533-0.457-1.295-0.762-2.057-0.762h-4.571c-1.676 0-3.048 1.371-3.048 3.048v10.667c0 1.676 1.371 3.048 3.048 3.048h4.571c0.762 0 1.524-0.305 2.057-0.762 0.076 0 0.152 0 0.229 0 1.295 0 2.743 0.61 4.038 1.219 1.295 0.533 2.438 1.067 3.581 1.067h14.857c1.905 0 3.429-1.524 3.429-3.429 0-0.533-0.152-1.067-0.381-1.524 1.143-0.533 1.905-1.752 1.905-3.048 0-0.686-0.229-1.295-0.533-1.905 0.838-0.61 1.295-1.6 1.295-2.667 0-0.686-0.229-1.371-0.61-1.905h7.848c1.905 0 3.429-1.524 3.429-3.429s-1.524-3.429-3.429-3.429v0zM7.619 28.952h-4.571c-0.838 0-1.524-0.686-1.524-1.524v-10.667c0-0.838 0.686-1.524 1.524-1.524h4.571c0.838 0 1.524 0.686 1.524 1.524v10.667c0 0.838-0.686 1.524-1.524 1.524v0zM45.333 16h-10.667c-0.457 0-0.762 0.305-0.762 0.762s0.305 0.762 0.762 0.762v0c1.067 0 1.905 0.838 1.905 1.905 0 0.762-0.533 1.524-1.295 1.752-0.229 0.076-0.457 0.305-0.457 0.61-0.076 0.305 0.076 0.533 0.305 0.686 0.457 0.381 0.686 0.914 0.686 1.448 0 0.99-0.762 1.752-1.676 1.905-0.305 0-0.533 0.229-0.61 0.533s0 0.61 0.229 0.762c0.381 0.381 0.61 0.838 0.61 1.371 0 1.067-0.838 1.905-1.905 1.905h-14.933c-0.762 0-1.829-0.457-2.895-0.914-1.219-0.533-2.59-1.143-4.038-1.295 0.076-0.229 0.076-0.533 0.076-0.762v-10.667c0-0.305 0-0.533-0.076-0.762 3.124-0.229 6.095-1.905 8.381-4.8 2.133-2.895 3.124-5.943 3.124-7.771 0-1.067 0.838-1.905 1.905-1.905s1.905 0.838 1.905 1.905c0 3.276-2.21 7.619-2.21 7.619-0.152 0.229-0.076 0.533 0 0.762 0.152 0.229 0.381 0.381 0.686 0.381h20.952c1.067 0 1.905 0.838 1.905 1.905s-0.838 1.905-1.905 1.905v0z"></path>
<path class="path5" fill="#f98c67" d="M6.095 16.762c-0.838 0-1.524 0.686-1.524 1.524s0.686 1.524 1.524 1.524c0.838 0 1.524-0.686 1.524-1.524s-0.686-1.524-1.524-1.524v0z"></path>
</symbol>
<symbol id="icon-employ" viewBox="0 0 35 32">
<title>employ</title>
<path class="path1" fill="#9a88c0" d="M32.072 5.43h-7.095v-1.158c0-2.317-1.882-4.271-4.271-4.271h-6.661c-2.317 0-4.271 1.882-4.271 4.271v1.158h-7.095c-1.448 0-2.679 1.231-2.679 2.679v21.213c0 1.448 1.231 2.679 2.679 2.679h29.394c1.448 0 2.679-1.231 2.679-2.679v-21.213c0-1.448-1.231-2.679-2.679-2.679v0zM10.787 4.271c0-1.81 1.448-3.258 3.258-3.258h6.661c1.81 0 3.258 1.448 3.258 3.258v1.158h-1.158v-1.158c0-1.158-0.941-2.1-2.1-2.1h-6.661c-1.158 0-2.1 0.941-2.1 2.1v1.158h-1.158v-1.158zM21.792 5.43h-8.833v-1.158c0-0.579 0.507-1.086 1.086-1.086h6.661c0.579 0 1.086 0.507 1.086 1.086v1.158zM32.072 30.986h-29.394c-0.941 0-1.665-0.724-1.665-1.665v-7.167c0.434 0.362 1.014 0.579 1.665 0.579h2.751v2.244c0 0.869 0.724 1.593 1.593 1.593s1.593-0.724 1.593-1.593v-5.43c0-0.869-0.724-1.593-1.593-1.593s-1.593 0.724-1.593 1.593v2.244h-2.751c-0.941 0-1.665-0.724-1.665-1.665v-12.018c0-0.941 0.724-1.665 1.665-1.665h29.394c0.941 0 1.665 0.724 1.665 1.665v11.946c0 0.941-0.724 1.665-1.665 1.665h-1.665c-0.29 0-0.507 0.217-0.507 0.507s0.217 0.507 0.507 0.507h1.665c0.652 0 1.231-0.217 1.665-0.579v7.167c0 0.941-0.724 1.665-1.665 1.665v0zM6.443 23.747c0.217 0.072 0.362 0.145 0.579 0.145s0.362-0.072 0.579-0.145v1.231c0 0.29-0.29 0.579-0.579 0.579s-0.579-0.29-0.579-0.579v-1.231zM7.602 22.299c0 0.29-0.29 0.579-0.579 0.579s-0.579-0.29-0.579-0.579v-2.751c0-0.29 0.29-0.579 0.579-0.579s0.579 0.29 0.579 0.579v2.751z"></path>
<path class="path2" fill="#f98c67" d="M27.149 17.955c-0.869 0-1.593 0.724-1.593 1.593v2.244h-15.276c-0.29 0-0.507 0.217-0.507 0.507s0.217 0.507 0.507 0.507h15.276v2.244c0 0.869 0.724 1.593 1.593 1.593s1.593-0.724 1.593-1.593v-5.502c0-0.869-0.724-1.593-1.593-1.593v0zM26.57 19.547c0-0.29 0.29-0.579 0.579-0.579s0.579 0.29 0.579 0.579v2.751c0 0.29-0.29 0.579-0.579 0.579s-0.579-0.29-0.579-0.579v-2.751zM27.149 25.557c-0.29 0-0.579-0.29-0.579-0.579v-1.231c0.145 0.072 0.362 0.145 0.579 0.145s0.434-0.072 0.579-0.145v1.231c0 0.362-0.217 0.579-0.579 0.579v0z"></path>
<path class="path3" fill="#f98c67" d="M14.118 20.633h6.516c0.29 0 0.507-0.217 0.507-0.507s-0.217-0.507-0.507-0.507h-6.516c-0.29 0-0.507 0.217-0.507 0.507 0 0.217 0.217 0.507 0.507 0.507v0z"></path>
</symbol>
<symbol id="icon-engineering" viewBox="0 0 24 32">
<title>engineering</title>
<path class="path1" fill="#9a88c0" d="M24.050 6.28l-6.079-6.079c-0.067-0.067-0.2-0.134-0.334-0.134h-16.033c-0.868 0-1.603 0.668-1.603 1.603v28.727c0 0.868 0.735 1.603 1.603 1.603h20.977c0.868 0 1.603-0.735 1.603-1.603v-23.783c0.067-0.134 0-0.267-0.134-0.334v0zM18.171 1.804l4.276 4.276h-3.741c-0.334 0-0.601-0.267-0.601-0.601v-3.674zM22.58 30.931h-20.977c-0.334 0-0.601-0.267-0.601-0.601v-28.727c0-0.334 0.267-0.601 0.601-0.601h15.499v4.476c0 0.868 0.735 1.603 1.603 1.603h4.476v23.248c0 0.334-0.267 0.601-0.601 0.601v0z"></path>
<path class="path2" fill="#f98c67" d="M3.808 4.409h3.875c0.267 0 0.534-0.2 0.534-0.534 0-0.267-0.2-0.534-0.534-0.534h-3.875c-0.267 0-0.468 0.267-0.468 0.534s0.2 0.534 0.468 0.534v0z"></path>
<path class="path3" fill="#f98c67" d="M3.808 7.148h6.079c0.267 0 0.534-0.2 0.534-0.534 0-0.267-0.2-0.534-0.534-0.534h-6.079c-0.267 0-0.468 0.267-0.468 0.534s0.2 0.534 0.468 0.534v0z"></path>
<path class="path4" fill="#f98c67" d="M8.284 11.023c0 0.267 0.2 0.534 0.534 0.534h6.614c0.267 0 0.534-0.2 0.534-0.534 0-0.267-0.2-0.534-0.534-0.534h-6.614c-0.334 0.067-0.534 0.267-0.534 0.534v0z"></path>
<path class="path5" fill="#f98c67" d="M20.376 13.294h-16.568c-0.267 0-0.534 0.2-0.534 0.534 0 0.267 0.2 0.534 0.534 0.534h16.568c0.267 0 0.534-0.2 0.534-0.534s-0.2-0.534-0.534-0.534v0z"></path>
<path class="path6" fill="#f98c67" d="M13.762 23.248h-3.875c-0.267 0-0.534 0.2-0.534 0.534 0 0.267 0.2 0.534 0.534 0.534h3.875c0.267 0 0.534-0.2 0.534-0.534s-0.267-0.534-0.534-0.534v0z"></path>
<path class="path7" fill="#f98c67" d="M13.762 25.987h-3.875c-0.267 0-0.534 0.2-0.534 0.534 0 0.267 0.2 0.534 0.534 0.534h3.875c0.267 0 0.534-0.2 0.534-0.534s-0.267-0.534-0.534-0.534v0z"></path>
<path class="path8" fill="#f98c67" d="M20.376 16.033h-16.568c-0.267 0-0.468 0.267-0.468 0.534s0.2 0.534 0.534 0.534h16.568c0.267 0 0.534-0.2 0.534-0.534-0.067-0.267-0.267-0.534-0.601-0.534v0z"></path>
<path class="path9" fill="#f98c67" d="M20.376 18.772h-16.568c-0.267 0-0.534 0.2-0.534 0.534 0 0.267 0.2 0.534 0.534 0.534h16.568c0.267 0 0.534-0.2 0.534-0.534 0-0.267-0.2-0.534-0.534-0.534v0z"></path>
<path class="path10" fill="#9a88c0" d="M18.171 22.647c-1.537 0-2.739 1.203-2.739 2.739s1.203 2.739 2.739 2.739c1.47 0 2.739-1.203 2.739-2.739s-1.203-2.739-2.739-2.739v0zM18.171 27.056c-0.935 0-1.67-0.735-1.67-1.67s0.735-1.67 1.67-1.67c0.935 0 1.67 0.735 1.67 1.67s-0.735 1.67-1.67 1.67v0z"></path>
<path class="path11" fill="#9a88c0" d="M18.171 24.451c-0.534 0-0.935 0.401-0.935 0.935s0.401 0.935 0.935 0.935c0.534 0 0.935-0.401 0.935-0.935s-0.401-0.935-0.935-0.935v0z"></path>
</symbol>
<symbol id="icon-enjoy" viewBox="0 0 17 32">
<title>enjoy</title>
<path class="path1" fill="#f98c67" d="M8.502 6.962c-1.941 0-3.481 1.54-3.481 3.481s1.54 3.481 3.481 3.481c1.941 0 3.481-1.54 3.481-3.481s-1.54-3.481-3.481-3.481v0zM8.502 12.987c-1.406 0-2.544-1.138-2.544-2.544s1.138-2.544 2.544-2.544c1.406 0 2.544 1.138 2.544 2.544s-1.138 2.544-2.544 2.544v0z"></path>
<path class="path2" fill="#f98c67" d="M8.502 8.971c-0.268 0-0.469 0.201-0.469 0.469s0.201 0.469 0.469 0.469c0.268 0 0.536 0.268 0.536 0.536s0.201 0.469 0.469 0.469c0.268 0 0.469-0.201 0.469-0.469 0-0.803-0.669-1.473-1.473-1.473v0z"></path>
<path class="path3" fill="#9a88c0" d="M16.268 23.766l-3.013-4.686c0.402-4.017 0.669-7.431 0.669-9.172 0-3.481-1.406-6.025-2.611-7.498-1.205-1.607-2.544-2.41-2.544-2.41-0.134-0.067-0.335-0.067-0.469 0-0.067 0-1.339 0.803-2.611 2.41-1.205 1.473-2.611 4.017-2.611 7.498 0 1.674 0.268 5.155 0.669 9.172l-3.013 4.686c-0.469 0.736-0.669 1.54-0.669 2.41v5.356c0 0.201 0.134 0.402 0.335 0.469 0.067 0 0.134 0 0.134 0 0.134 0 0.268-0.067 0.335-0.201l3.816-4.686c0.268 0.803 1.004 1.339 1.874 1.339h1.473v3.013c0 0.268 0.201 0.469 0.469 0.469s0.469-0.201 0.469-0.469v-3.013h1.473c0.87 0 1.607-0.536 1.874-1.339l3.816 4.686c0.067 0.134 0.201 0.201 0.335 0.201 0.067 0 0.134 0 0.134 0 0.201-0.067 0.335-0.268 0.335-0.469v-5.356c0.067-0.87-0.201-1.674-0.669-2.41v0zM0.937 26.176c0-0.669 0.201-1.339 0.536-1.874l2.343-3.682c0.201 1.674 0.402 3.481 0.669 5.289l-3.548 4.285v-4.017zM10.444 27.515h-1.473v-8.033c0-0.268-0.201-0.469-0.469-0.469s-0.469 0.201-0.469 0.469v8.033h-1.473c-0.536 0-0.937-0.402-1.004-0.87-0.402-2.544-0.669-5.088-0.937-7.498 0 0 0-0.067 0-0.067-0.402-4.017-0.669-7.498-0.669-9.172 0-1.808 0.402-3.481 1.205-5.021h3.883c0.268 0 0.469-0.201 0.469-0.469s-0.201-0.469-0.469-0.469h-3.347c0.201-0.335 0.402-0.603 0.669-0.87 0.87-1.071 1.741-1.808 2.142-2.075 0.536 0.335 1.741 1.339 2.812 2.946h-0.268c-0.268 0-0.469 0.201-0.469 0.469s0.201 0.469 0.469 0.469h0.87c0.669 1.339 1.205 3.013 1.205 5.021 0 1.674-0.268 5.155-0.669 9.172 0 0 0 0.067 0 0.067-0.268 2.343-0.536 4.954-0.87 7.431-0.134 0.536-0.602 0.937-1.138 0.937v0zM16.067 30.192l-3.548-4.285c0.201-1.808 0.469-3.548 0.603-5.289l2.343 3.682c0.335 0.536 0.536 1.205 0.536 1.874v4.017z"></path>
</symbol>
<symbol id="icon-integrity" viewBox="0 0 32 32">
<title>integrity</title>
<path class="path1" fill="#928ed5" d="M32 4.666l-7.201-1.471c0-0.101 0-0.203-0.051-0.304l-1.014-2.029c-0.203-0.355-0.558-0.659-0.964-0.761s-0.862-0.051-1.217 0.152l-5.325 2.789-5.426-2.84c-0.355-0.203-0.761-0.254-1.166-0.152s-0.761 0.406-0.964 0.761l-1.014 2.029c-0.051 0.152-0.051 0.254-0.051 0.355l-7.201 1.471c-0.254 0.051-0.456 0.304-0.406 0.558s0.254 0.406 0.507 0.406c0.051 0 0.051 0 0.101 0l7.607-1.521c0.051 0 0.051 0 0.101-0.051l4.006 4.412c0.101 0.101 0.254 0.152 0.355 0.152 0 0 0 0 0 0 0.152 0 0.304-0.101 0.406-0.203l0.609-0.811c0 0.456 0.203 0.811 0.507 1.116l-1.826 19.271c0 0.152 0.051 0.304 0.152 0.406l3.398 3.398c0.101 0.101 0.254 0.152 0.355 0.152 0.152 0 0.254-0.051 0.355-0.152l3.398-3.398c0.101-0.101 0.152-0.254 0.152-0.406l-1.471-14.808c0-0.051 0-0.101 0-0.152l-0.304-2.891c0 0 0-0.051 0-0.051l-0.152-1.319c0.304-0.254 0.507-0.659 0.507-1.116l0.609 0.811c0.101 0.101 0.254 0.203 0.406 0.203 0 0 0 0 0 0 0.152 0 0.304-0.051 0.355-0.152l4.006-4.412c0.051 0 0.051 0 0.101 0.051l7.607 1.521c0.051 0 0.051 0 0.101 0 0.254 0 0.456-0.152 0.507-0.406 0-0.304-0.152-0.558-0.456-0.609v0zM19.119 27.892l-0.355 0.355-4.919-4.919 0.101-1.014 5.122 5.122c0 0 0 0 0.051 0.051v0.406zM17.496 29.515l-3.905-3.905 0.101-1.014 4.361 4.361-0.558 0.558zM18.358 20.285l-3.905-3.905 0.101-1.014 3.702 3.702 0.101 1.217zM14.048 20.995c0 0 0 0 0 0l0.101-1.014 4.666 4.666 0.101 1.217-4.868-4.868zM14.25 18.713c0 0 0 0 0 0l0.101-1.014 4.057 4.057c0.051 0.051 0.101 0.051 0.152 0.101l0.101 1.268-4.412-4.412zM14.808 14.149c-0.051-0.051-0.051-0.051-0.101-0.101l0.101-1.014 3.195 3.195c0 0 0 0 0 0l0.101 1.217-3.296-3.296zM14.96 11.765c0 0-0.051 0 0 0l0.051-1.065 2.688 2.688 0.101 1.217-2.84-2.84zM17.242 8.165h-0.659l-1.876-1.826 0.558-0.71 2.333 2.333c0 0 0 0 0.051 0-0.101 0.152-0.254 0.203-0.406 0.203v0zM14.707 7.759l0.406 0.406c-0.203 0-0.355-0.203-0.406-0.406v0zM12.628 7.404l-3.905-4.361 0.862-1.724c0.051-0.152 0.203-0.254 0.304-0.304 0.152-0.051 0.304 0 0.406 0.051 0 0 0 0 0.051 0l5.122 2.688-2.84 3.651zM15.214 9.179h0.913l1.268 1.268 0.152 1.369-2.384-2.384 0.051-0.254c-0.051 0-0.051 0 0 0v0zM16.279 30.783l-2.891-2.891 0.101-0.964 3.296 3.296-0.507 0.558zM17.75 6.643l-1.826-1.826 0.304-0.355 1.572 2.029c-0.051 0.051-0.051 0.101-0.051 0.152v0zM19.778 7.404l-2.789-3.601 5.122-2.688c0 0 0 0 0.051 0 0.101-0.101 0.254-0.101 0.355-0.101 0.152 0.051 0.254 0.152 0.304 0.254l0.913 1.775-3.956 4.361z"></path>
<path class="path2" fill="#f98c67" d="M10.143 13.236h-6.086c-0.862 0-1.521 0.659-1.521 1.521v6.086c0 0.862 0.659 1.521 1.521 1.521h6.086c0.862 0 1.521-0.659 1.521-1.521v-6.086c0-0.811-0.71-1.521-1.521-1.521v0zM4.057 14.25h6.086c0.304 0 0.507 0.203 0.507 0.507v1.674l-3.55 1.319-3.55-1.319v-1.674c0-0.254 0.203-0.507 0.507-0.507v0zM10.143 21.35h-6.086c-0.304 0-0.507-0.203-0.507-0.507v-3.347l3.347 1.268c0.051 0 0.101 0.051 0.203 0.051 0.051 0 0.101 0 0.203-0.051l3.347-1.268v3.347c0 0.304-0.254 0.507-0.507 0.507v0z"></path>
<path class="path3" fill="#9a88c0" d="M7.1 17.293c0.152 0 0.254-0.051 0.355-0.152s0.152-0.203 0.152-0.355c0-0.152-0.051-0.254-0.152-0.355s-0.203-0.152-0.355-0.152c-0.152 0-0.254 0.051-0.355 0.152s-0.152 0.203-0.152 0.355c0 0.152 0.051 0.254 0.152 0.355s0.203 0.152 0.355 0.152v0z"></path>
<path class="path4" fill="#f98c67" d="M29.414 14.25h-1.521c0-0.862-0.659-1.521-1.521-1.521v-1.014c0-0.558-0.456-1.014-1.014-1.014h-1.014c-0.558 0-1.014 0.456-1.014 1.014v2.536h-2.029c-0.304 0-0.507 0.203-0.507 0.507v6.086c0 0.862 0.659 1.521 1.521 1.521h6.086c0.862 0 1.521-0.659 1.521-1.521v-6.086c0-0.254-0.254-0.507-0.507-0.507v0zM26.878 14.25h-0.507v-0.507c0.254 0 0.507 0.254 0.507 0.507v0zM24.342 11.715h1.014v2.536h-1.014v-2.536zM28.907 20.843c0 0.304-0.203 0.507-0.507 0.507h-6.086c-0.304 0-0.507-0.203-0.507-0.507v-5.578h5.071v2.029c0 0.304 0.203 0.507 0.507 0.507s0.507-0.203 0.507-0.507v-2.029h1.014v5.578z"></path>
</symbol>
<symbol id="icon-locate" viewBox="0 0 25 32">
<title>locate</title>
<path class="path1" fill="#9a88c0" d="M12.467 0c-6.867 0-12.467 5.6-12.467 12.467 0 2.733 0.867 5.333 2.533 7.533 1.4 1.867 3.333 3.333 5.467 4.133v3.333c0 1.2 0.867 2.2 2.067 2.467 0.2 1.133 1.2 2.067 2.467 2.067 1.2 0 2.2-0.867 2.467-2.067 1.133-0.2 2.067-1.2 2.067-2.467v-3.333c2.133-0.867 4.067-2.267 5.467-4.133 1.667-2.2 2.533-4.8 2.533-7.533-0.067-6.867-5.667-12.467-12.6-12.467v0zM12.467 31.067c-0.667 0-1.267-0.467-1.467-1.067h2.933c-0.2 0.6-0.733 1.067-1.467 1.067v0zM14.467 29.067h-4c-0.867 0-1.533-0.667-1.533-1.533v-1h4.067c0.267 0 0.467-0.2 0.467-0.467s-0.2-0.467-0.467-0.467h-4.067v-1.067h7c0 0 0 0 0 0s0 0 0 0h0.067v1.067h-1c-0.267 0-0.467 0.2-0.467 0.467s0.2 0.467 0.467 0.467h1v1c0 0.867-0.667 1.533-1.533 1.533v0zM21.733 19.467c-1.467 1.933-3.533 3.4-5.867 4.067h-6.733c-2.333-0.733-4.4-2.133-5.867-4.067-1.533-2-2.333-4.4-2.333-6.933 0-6.4 5.2-11.533 11.533-11.533 6.4 0 11.533 5.2 11.533 11.533 0.067 2.467-0.733 4.933-2.267 6.933v0z"></path>
<path class="path2" fill="#f98c67" d="M14.867 3.267c0.467 0.133 1 0.267 1.4 0.467 0.067 0 0.133 0.067 0.2 0.067 0.2 0 0.333-0.133 0.4-0.267 0.133-0.267 0-0.533-0.267-0.6-0.533-0.2-1.067-0.4-1.6-0.533-0.267-0.067-0.533 0.067-0.6 0.333 0.067 0.2 0.2 0.467 0.467 0.533v0z"></path>
<path class="path3" fill="#f98c67" d="M18.8 4.133c-0.2-0.133-0.533-0.133-0.667 0.067s-0.133 0.467 0.067 0.667c0.867 0.667 1.667 1.467 2.267 2.4 0.067 0.133 0.267 0.2 0.4 0.2 0.067 0 0.2 0 0.267-0.067 0.2-0.133 0.267-0.467 0.133-0.667-0.667-1-1.533-1.933-2.467-2.6v0z"></path>
<path class="path4" fill="#f98c67" d="M16.933 11h-3.6l0.6-5c0.067-0.533-0.067-0.8-0.333-0.933-0.333-0.133-0.6 0-0.933 0.467l-4.933 6.933c-0.267 0.333-0.267 0.733-0.133 1.067s0.533 0.467 0.933 0.467h3.067l-0.667 6c-0.067 0.533 0.067 0.8 0.333 0.933 0.067 0 0.133 0.067 0.2 0.067 0.267 0 0.467-0.133 0.667-0.467l5.533-7.933c0.267-0.333 0.333-0.733 0.133-1.067-0.067-0.333-0.4-0.533-0.867-0.533v0zM17 12l-5 7.2 0.667-5.6c0-0.133 0-0.267-0.133-0.333-0.067-0.067-0.2-0.133-0.333-0.133h-3.6c0 0-0.067 0-0.067 0s0 0 0-0.067l4.4-6.133-0.6 4.6c0 0.133 0 0.267 0.133 0.4 0.067 0.133 0.2 0.133 0.333 0.133l4.2-0.067c-0.067-0.067 0-0.067 0 0 0 0 0 0 0 0v0z"></path>
</symbol>
<symbol id="icon-mail" viewBox="0 0 42 32">
<title>mail</title>
<path class="path1" d="M36.721 0h-31.475c-2.885 0-5.246 2.361-5.246 5.246v21.77c0 2.885 2.361 5.246 5.246 5.246h31.475c2.885 0 5.246-2.361 5.246-5.246v-21.77c0-2.885-2.361-5.246-5.246-5.246v0zM39.607 26.754c0 1.574-1.311 2.885-2.885 2.885h-31.475c-1.574 0-2.885-1.311-2.885-2.885v-21.508c0-1.574 1.311-2.885 2.885-2.885h31.475c1.574 0 2.885 1.311 2.885 2.885v21.508z"></path>
<path class="path2" d="M26.492 15.738l10.23-9.18c0.525-0.525 0.525-1.049 0-1.574s-1.049-0.525-1.574 0l-14.164 12.59-2.623-2.623c0 0 0 0 0 0s0 0-0.262-0.262l-11.279-9.967c-0.525-0.525-1.311-0.262-1.574 0-0.525 0.525-0.525 1.311 0 1.836l10.492 9.18-10.492 9.705c-0.525 0.525-0.525 1.311 0 1.574 0.262 0.262 0.525 0.262 0.787 0.262s0.525 0 0.787-0.262l10.492-9.705 2.885 2.623c0.262 0.262 0.525 0.262 0.787 0.262s0.525 0 0.787-0.262l2.885-2.623 10.492 9.967c0.262 0.262 0.525 0.262 0.787 0.262s0.525 0 0.787-0.262c0.525-0.525 0.525-1.311 0-1.574l-10.23-9.967z"></path>
</symbol>
<symbol id="icon-members" viewBox="0 0 28 32">
<title>members</title>
<path class="path1" fill="#9a88c0" d="M17.046 17.108l0.062-1.046c0.862 0.308 1.785 0.492 2.708 0.492 4.554 0 8.246-3.692 8.246-8.246 0.062-4.615-3.631-8.308-8.185-8.308-4.369 0-8 3.446-8.246 7.754h-2.585c-1.231 0-2.338 0.492-3.2 1.354s-1.231 2.031-1.169 3.262l0.308 4.738c0 2.031 0.862 3.877 2.215 5.108v0.8l-0.923 1.354-4.246 1.169c-1.231 0.369-2.031 1.415-2.031 2.646v2.154c0 0.923 0.738 1.662 1.6 1.662h18.769c0.923 0 1.6-0.738 1.6-1.6v-2.154c0-1.231-0.8-2.338-2.031-2.646l-4.246-1.169-0.923-1.354v-0.8c1.415-1.292 2.277-3.077 2.277-5.169v0zM11.015 25.292l-2.769-2.277c0.8 0.492 1.785 0.738 2.769 0.738s1.908-0.246 2.769-0.738l-2.769 2.277zM7.815 23.938l2.462 2.031-1.354 1.354c0 0 0 0 0 0s0 0 0 0l-1.662-2.462 0.554-0.923zM11.015 29.231c0.062 0 0.062 0 0.123 0l0.369 1.723h-0.985l0.369-1.723c0.062 0 0.062 0 0.123 0v0zM11.631 27.631c0 0.308-0.246 0.615-0.615 0.615-0.308 0-0.615-0.246-0.615-0.615v-0.308l0.615-0.615 0.615 0.615v0.308zM11.815 25.969l2.462-2.031 0.615 0.862-1.662 2.462c0 0 0 0 0 0s0 0 0 0l-1.415-1.292zM19.877 1.046c4 0 7.2 3.262 7.2 7.2 0 4-3.262 7.2-7.2 7.2-0.923 0-1.846-0.185-2.646-0.492l0.185-2.585c0.062-1.231-0.369-2.4-1.169-3.262-0.862-0.923-1.969-1.354-3.2-1.354h-0.308c0.185-3.754 3.323-6.708 7.138-6.708v0zM6.646 9.846c0.615-0.677 1.538-1.046 2.462-1.046h3.938c0.923 0 1.785 0.369 2.462 1.046 0.615 0.677 0.985 1.6 0.923 2.523l-0.123 1.538c-0.431-0.862-0.923-1.477-0.923-1.538-0.123-0.185-0.369-0.246-0.615-0.185-2.585 1.046-7.508 1.046-7.569 1.046-0.123 0-0.246 0.062-0.308 0.123-0.062 0-0.492 0.431-0.985 1.169l-0.185-2.215c-0.062-0.923 0.246-1.785 0.923-2.462v0zM6.031 17.108c0.185-1.538 1.046-2.523 1.354-2.831 0.923 0 4.8-0.123 7.323-0.985 0.431 0.615 1.354 2.215 1.354 3.815 0 3.077-2.277 5.538-4.985 5.538-2.831 0-5.046-2.462-5.046-5.538v0zM1.046 30.4v-2.154c0-0.738 0.492-1.415 1.231-1.662l4.123-1.108 1.6 2.462c0.185 0.246 0.492 0.431 0.8 0.492 0.062 0 0.062 0 0.123 0 0.246 0 0.431-0.062 0.615-0.185 0.062 0.246 0.246 0.431 0.431 0.615l-0.431 2.154h-4.615v-1.723c0-0.308-0.246-0.492-0.492-0.492-0.308 0-0.492 0.246-0.492 0.492v1.723h-2.338c-0.308-0.062-0.554-0.308-0.554-0.615v0zM20.985 28.185v2.154c0 0.308-0.246 0.615-0.615 0.615h-2.277v-1.723c0-0.308-0.246-0.492-0.492-0.492s-0.492 0.246-0.492 0.492v1.723h-4.554l-0.431-2.154c0.185-0.185 0.308-0.369 0.431-0.615 0.185 0.123 0.369 0.185 0.615 0.185 0.062 0 0.062 0 0.123 0 0.308-0.062 0.615-0.185 0.8-0.492l1.6-2.462 4.062 1.108c0.738 0.246 1.231 0.923 1.231 1.662v0z"></path>
<path class="path2" fill="#f98c67" d="M19.323 12.185c-0.308 0-0.492 0.246-0.492 0.492 0 0.308 0.246 0.492 0.492 0.492h1.108c0.308 0 0.492-0.246 0.492-0.492 0-0.308-0.246-0.492-0.492-0.492h-0.062v-4.492h0.062c0.308 0 0.492-0.246 0.492-0.492 0-0.308-0.246-0.492-0.492-0.492h-1.108c-0.308 0-0.492 0.246-0.492 0.492 0 0.308 0.246 0.492 0.492 0.492h0.062l-0.062 4.492z"></path>
<path class="path3" fill="#f98c67" d="M19.877 5.415c0.554 0 0.985-0.431 0.985-0.985s-0.431-0.985-0.985-0.985c-0.554 0-0.985 0.431-0.985 0.985 0 0.492 0.431 0.985 0.985 0.985v0z"></path>
</symbol>
<symbol id="icon-mission" viewBox="0 0 32 32">
<title>mission</title>
<path class="path1" fill="#9c98c2" d="M31.508 2.031h-15.015v-1.538c0-0.308-0.246-0.492-0.492-0.492s-0.492 0.185-0.492 0.492v1.538h-15.015c-0.308 0-0.492 0.185-0.492 0.431s0.185 0.492 0.492 0.492h0.554v19.077c0 0.8 0.677 1.477 1.477 1.477h6.4l-0.677 2.4-1.6 5.538c-0.062 0.246 0.062 0.492 0.308 0.554 0.062 0 0.062 0 0.123 0 0.185 0 0.369-0.123 0.431-0.308l1.538-5.169h14.092l1.538 5.169c0.062 0.185 0.246 0.308 0.431 0.308 0.062 0 0.062 0 0.123 0 0.246-0.062 0.369-0.308 0.308-0.554l-1.6-5.538-0.677-2.4h6.277c0.8 0 1.477-0.677 1.477-1.477v-19.077h0.554c0.246 0 0.431-0.246 0.431-0.492s-0.185-0.431-0.492-0.431v0zM22.769 25.538h-13.538l0.615-2.092h12.308l0.615 2.092zM30.031 22.031c0 0.308-0.246 0.554-0.554 0.554h-27.015c-0.308 0-0.554-0.246-0.554-0.554v-19.077h28.123v19.077z"></path>
<path class="path2" fill="#f49e80" d="M10.954 12.862l-5.785 5.785c-0.185 0.185-0.185 0.492 0 0.677 0.062 0.062 0.185 0.123 0.308 0.123s0.246-0.062 0.308-0.123l5.785-5.785c0.185-0.185 0.554-0.185 0.738 0l3.077 3.077c0.308 0.308 0.677 0.431 1.046 0.431s0.738-0.123 1.046-0.431l8.492-8.492v3.385c0 0.246 0.185 0.492 0.492 0.492 0.246 0 0.492-0.185 0.492-0.492v-4.492c0 0 0-0.062 0-0.062s0 0 0 0 0 0 0 0 0 0 0 0 0 0 0 0 0 0 0 0 0 0 0 0 0 0 0 0 0 0 0 0 0 0 0 0 0 0 0 0 0 0 0 0 0 0 0 0-0.062-0.062-0.062-0.062c0 0 0 0 0 0s0 0 0 0 0 0 0 0 0 0 0 0 0 0 0 0 0 0 0 0 0 0 0 0 0 0 0 0 0 0 0 0 0 0 0 0 0 0 0 0 0 0 0 0 0 0-0.062 0c0 0 0 0 0 0h-4.492c-0.246 0-0.492 0.185-0.492 0.492 0 0.246 0.185 0.492 0.492 0.492h3.385l-8.862 8.062c-0.123 0.123-0.246 0.185-0.369 0.185s-0.246-0.062-0.369-0.185l-3.077-3.077c-0.615-0.554-1.538-0.554-2.092 0v0z"></path>
</symbol>
<symbol id="icon-quality" viewBox="0 0 32 32">
<title>quality</title>
<path class="path1" fill="#928ed5" d="M31.5 4.45c-0.25-0.3-0.65-0.45-1-0.45h-5.5v-1.15c0.6-0.2 1-0.75 1-1.4-0.050-0.8-0.7-1.45-1.5-1.45h-17c-0.8 0-1.45 0.65-1.45 1.45 0 0.65 0.4 1.2 1 1.4v1.15h-5.55c-0.4 0-0.75 0.15-1.050 0.45-0.25 0.25-0.4 0.65-0.4 1.050 0 2.8 0.75 5.5 2.2 7.85 1.4 2.35 3.35 4.1 5.6 5.050 0.050 0 0.1 0.050 0.15 0.050 1.25 2.55 3.7 4.4 6.55 4.9v4.65h-2.55c-0.8 0-1.45 0.65-1.45 1.45v2c0 0.25 0.2 0.45 0.45 0.45h10c0.25 0 0.45-0.2 0.45-0.45v-2c0-0.8-0.65-1.45-1.45-1.45h-2.55v-4.7c2.9-0.5 5.3-2.35 6.55-4.9 0.050 0 0.1 0 0.15-0.050 2.25-0.95 4.2-2.7 5.6-5.050s2.15-5.050 2.15-7.85c0.050-0.35-0.1-0.75-0.4-1v0zM7.5 0.95h17c0.3 0 0.5 0.25 0.5 0.55 0 0.25-0.2 0.5-0.5 0.5h-17c-0.3 0-0.55-0.25-0.55-0.55 0-0.25 0.25-0.5 0.55-0.5v0zM3 12.85c-1.3-2.15-2-4.7-2.050-7.35 0-0.15 0.050-0.3 0.15-0.4 0.15-0.1 0.25-0.15 0.4-0.15h5.5v9.5c0 0.95 0.15 1.85 0.4 2.7-1.7-0.9-3.25-2.4-4.4-4.3v0zM20.5 29.45v1.55h-9.050v-1.55c0-0.3 0.25-0.55 0.55-0.55h8c0.3 0.050 0.5 0.25 0.5 0.55v0zM16.5 28h-1.050v-4.55c0.2 0 0.35 0 0.55 0s0.35 0 0.55 0v4.55zM16 22.5c-4.45 0-8-3.6-8-8v-11.5h16v11.5c0 4.4-3.6 8-8 8v0zM28.95 12.85c-1.15 1.9-2.65 3.4-4.45 4.3 0.25-0.85 0.4-1.75 0.4-2.7v-9.5h5.5c0.15 0 0.3 0.050 0.4 0.15s0.15 0.25 0.15 0.4c0.050 2.65-0.65 5.2-2 7.35v0z"></path>
<path class="path2" fill="#f98c67" d="M20.8 9.5h-2.8l-0.85-2.65c-0.2-0.5-0.65-0.85-1.15-0.85s-0.95 0.3-1.1 0.8l-0.9 2.7h-2.8c-0.5 0-0.95 0.3-1.1 0.8s0 1 0.45 1.3l2.25 1.65-0.85 2.65c-0.15 0.5 0 1 0.45 1.3 0.2 0.15 0.45 0.25 0.7 0.25s0.5-0.1 0.7-0.25l2.25-1.65 2.25 1.65c0.4 0.3 0.95 0.3 1.4 0 0.4-0.3 0.6-0.8 0.45-1.3l-0.85-2.65 2.25-1.65c0.4-0.3 0.6-0.8 0.45-1.3-0.25-0.5-0.7-0.8-1.2-0.8v0zM20.9 10.85l-2.55 1.85c-0.15 0.1-0.25 0.35-0.15 0.5l0.95 3c0.050 0.15-0.050 0.25-0.1 0.25-0.050 0.050-0.15 0.1-0.3 0l-2.55-1.85c-0.15-0.1-0.4-0.1-0.55 0l-2.45 1.9c-0.15 0.1-0.25 0.050-0.3 0s-0.15-0.1-0.1-0.25l0.95-3c0.050-0.2 0-0.4-0.15-0.5l-2.55-1.85c-0.15-0.1-0.1-0.2-0.1-0.25s0.050-0.15 0.25-0.15h3.15c0.2 0 0.4-0.15 0.45-0.3l0.95-3c0.050-0.15 0.2-0.15 0.25-0.15s0.2 0 0.25 0.15l0.95 3c0.050 0.2 0.25 0.3 0.45 0.3h3.15c0.15 0 0.2 0.1 0.25 0.15-0.050 0 0 0.1-0.15 0.2v0z"></path>
</symbol>
<symbol id="icon-recruiting" viewBox="0 0 26 32">
<title>recruiting</title>
<path class="path1" fill="#9a88c0" d="M25.467 31.067l-1.467-1.4v-18.667l-2.667-2.667v-8.333h-21.333v27.733h2.667v2.667h20.6l1.467 1.467c0.133 0.133 0.267 0.133 0.4 0.133s0.267-0.067 0.4-0.133c0.133-0.2 0.133-0.6-0.067-0.8v0zM22.2 10.667h-6.2v-6.2l6.2 6.2zM1.067 26.667v-25.6h19.2v6.2l-4.6-4.6h-13v24h-1.6zM3.733 29.333v-25.6h11.2v8h8v16.867l-4-4c0.933-1.067 1.467-2.533 1.467-4.067 0-3.467-2.8-6.333-6.333-6.333-3.467 0-6.333 2.8-6.333 6.333 0 3.467 2.8 6.333 6.333 6.333 1.533 0 2.933-0.533 4.067-1.467l4 4h-18.4zM14.133 25.733c-2.867 0-5.267-2.333-5.267-5.267 0-2.867 2.333-5.267 5.267-5.267 2.867 0 5.267 2.333 5.267 5.267-0.067 2.933-2.4 5.267-5.267 5.267v0z"></path>
<path class="path2" fill="#f98c67" d="M11 19.2h3.2c0.267 0 0.533-0.267 0.533-0.533s-0.267-0.533-0.533-0.533h-3.2c-0.267 0-0.533 0.267-0.533 0.533s0.267 0.533 0.533 0.533v0z"></path>
<path class="path3" fill="#f98c67" d="M17.4 21.333h-6.4c-0.267 0-0.533 0.267-0.533 0.533s0.267 0.533 0.533 0.533h6.4c0.267 0 0.533-0.267 0.533-0.533s-0.267-0.533-0.533-0.533v0z"></path>
</symbol>
<symbol id="icon-smartphone" viewBox="0 0 19 32">
<title>smartphone</title>
<path class="path1" d="M16.4 0h-14.2c-1.2 0-2.2 1-2.2 2.2v27.6c0 1.2 1 2.2 2.2 2.2h14.2c1.2 0 2.2-1 2.2-2.2v-27.6c0-1.2-1-2.2-2.2-2.2v0zM7 1.6h4.6c0.2 0 0.2 0.2 0.2 0.2 0 0.2 0 0.2-0.2 0.2h-4.6c-0.2 0-0.2 0-0.2-0.2s0-0.2 0.2-0.2v0zM9.2 31c-0.6 0-1-0.4-1-1s0.4-1 1-1 1 0.4 1 1c0.2 0.4-0.4 1-1 1v0zM17 28h-15.4v-24.6h15.6v24.6z"></path>
</symbol>
<symbol id="icon-spiral" viewBox="0 0 104 32">
<title>spiral</title>
<path class="path1" d="M0.995 29.397c0 0-0.077 0-0.077 0-0.383-0.077-0.689-0.459-0.689-0.842 0.077-0.766 0.23-1.531 0.536-2.373 0.153-0.383 0.536-0.612 0.995-0.459 0.383 0.153 0.612 0.536 0.459 0.995-0.23 0.766-0.383 1.455-0.459 2.067 0 0.306-0.383 0.612-0.766 0.612z"></path>
<path class="path2" d="M42.105 32.077c-0.383 0-0.766-0.306-0.766-0.689 0-0.459 0.306-0.766 0.689-0.766 1.072-0.077 2.144-0.536 3.215-1.531 0.153-0.153 0.306-0.23 0.383-0.383 0.306-0.306 0.766-0.306 1.072 0s0.306 0.766 0 1.072c-0.153 0.153-0.306 0.306-0.459 0.459-1.225 1.148-2.679 1.761-4.134 1.837 0.077 0 0.077 0 0 0zM37.971 30.239c-0.23 0-0.383-0.077-0.536-0.23-0.536-0.612-1.072-1.225-1.608-1.99-0.459-0.689-0.842-1.378-1.148-2.144-0.153-0.383 0-0.842 0.383-0.995s0.842 0 0.995 0.383c0.306 0.689 0.689 1.378 1.072 1.99 0.459 0.689 0.919 1.301 1.378 1.761 0.306 0.306 0.306 0.766 0 1.072-0.153 0.077-0.383 0.153-0.536 0.153zM49.225 26.258c-0.153 0-0.306-0.077-0.383-0.153-0.383-0.23-0.459-0.689-0.23-1.072 0.766-1.225 1.531-2.603 2.22-4.057 0.153-0.383 0.612-0.536 0.995-0.383s0.536 0.612 0.383 0.995c-0.689 1.608-1.455 2.986-2.297 4.287-0.153 0.23-0.383 0.383-0.689 0.383zM3.445 22.813c-0.153 0-0.23 0-0.383-0.077-0.383-0.23-0.536-0.689-0.306-1.072 0.459-0.766 0.842-1.531 1.301-2.297 0.23-0.459 0.536-0.842 0.766-1.301 0.077-0.23 0.23-0.383 0.306-0.612 0.23-0.383 0.689-0.459 1.072-0.306 0.383 0.23 0.459 0.689 0.306 1.072-0.077 0.153-0.23 0.383-0.306 0.536-0.23 0.459-0.459 0.842-0.766 1.301-0.383 0.689-0.842 1.455-1.301 2.22-0.153 0.383-0.383 0.536-0.689 0.536zM33.837 21.742c-0.383 0-0.689-0.23-0.766-0.612-0.383-1.684-0.536-3.368-0.766-4.746-0.077-0.383 0.23-0.766 0.689-0.842 0.383-0.077 0.766 0.23 0.842 0.689 0.153 1.455 0.383 3.062 0.689 4.593 0.077 0.383-0.153 0.842-0.612 0.919 0.077 0 0 0-0.077 0zM53.206 17.608c-0.077 0-0.153 0-0.23-0.077-0.383-0.153-0.612-0.536-0.459-0.995s0.306-0.919 0.383-1.301c0.306-1.148 0.766-2.22 1.301-3.215 0.23-0.383 0.689-0.536 1.072-0.306s0.536 0.689 0.306 1.072c-0.536 0.919-0.919 1.914-1.225 2.986-0.153 0.459-0.306 0.919-0.459 1.378-0.077 0.306-0.383 0.459-0.689 0.459zM8.421 14.699c-0.153 0-0.306-0.077-0.459-0.153-0.306-0.23-0.383-0.766-0.153-1.072 0.995-1.301 2.067-2.603 3.139-3.675 0.306-0.306 0.766-0.306 1.072 0s0.306 0.766 0 1.072c-1.072 1.072-2.067 2.297-2.986 3.522-0.153 0.23-0.383 0.306-0.612 0.306zM32.612 12.325c-0.383 0-0.689-0.306-0.766-0.689s-0.077-0.689-0.153-1.072c-0.23-1.301-0.536-2.373-0.919-3.368-0.153-0.383 0-0.842 0.383-0.995s0.842 0 0.995 0.383c0.459 1.072 0.842 2.297 1.072 3.751 0.077 0.383 0.077 0.689 0.153 1.072s-0.23 0.842-0.689 0.842c0 0.077-0.077 0.077-0.077 0.077zM57.646 9.34c-0.23 0-0.383-0.077-0.536-0.23-0.306-0.306-0.306-0.766 0-1.072 1.225-1.225 2.526-2.22 4.057-2.986 0.383-0.153 0.842 0 0.995 0.383s0 0.842-0.383 0.995c-1.301 0.612-2.526 1.531-3.598 2.679-0.077 0.153-0.306 0.23-0.536 0.23zM79.77 8.345c-0.153 0-0.306 0-0.383-0.077-0.995-0.612-1.914-1.072-2.756-1.378-0.459-0.153-0.919-0.306-1.378-0.459-0.383-0.153-0.612-0.536-0.536-0.995 0.153-0.383 0.536-0.612 0.995-0.536 0.536 0.153 0.995 0.306 1.531 0.536 0.995 0.383 1.914 0.842 2.986 1.531 0.383 0.23 0.459 0.689 0.23 1.072-0.153 0.23-0.383 0.306-0.689 0.306zM15.081 7.962c-0.23 0-0.459-0.077-0.612-0.306-0.23-0.306-0.153-0.842 0.153-1.072 1.301-0.995 2.756-1.837 4.211-2.526 0.383-0.153 0.842 0 0.995 0.383s0 0.842-0.383 0.995c-1.301 0.689-2.603 1.455-3.904 2.373-0.153 0.077-0.306 0.153-0.459 0.153zM70.813 5.435c0 0-0.077 0-0.077 0-0.995-0.153-1.914-0.153-2.833-0.153-0.612 0-1.148 0-1.761 0.077-0.459 0-0.766-0.306-0.842-0.689s0.306-0.766 0.689-0.842c0.612-0.077 1.225-0.077 1.837-0.077 0.995 0 1.99 0.077 3.062 0.153 0.383 0.077 0.689 0.459 0.689 0.842-0.077 0.383-0.383 0.689-0.766 0.689zM28.325 4.287c-0.077 0-0.23 0-0.306-0.077-0.689-0.306-1.531-0.536-2.373-0.536 0 0 0 0 0 0-0.536 0-1.148 0.077-1.761 0.23-0.383 0.077-0.842-0.153-0.919-0.612-0.077-0.383 0.153-0.842 0.612-0.919 0.766-0.153 1.455-0.23 2.067-0.23 0 0 0 0 0 0 1.072 0 2.144 0.23 3.062 0.612 0.383 0.153 0.536 0.612 0.383 0.995-0.23 0.383-0.536 0.536-0.766 0.536z"></path>
<path class="path3" d="M85.742 12.325c-0.153 0-0.306 0-0.383-0.077-0.612-0.383-1.225-0.766-1.99-1.301-0.383-0.23-0.459-0.689-0.23-1.072s0.689-0.459 1.072-0.23c0.766 0.536 1.301 0.919 1.914 1.225 0.383 0.23 0.459 0.689 0.23 1.072-0.153 0.23-0.383 0.383-0.612 0.383z"></path>
<path class="path4" d="M88.88 3.828c-0.306 0-0.612-0.153-0.689-0.459-0.459-0.995-0.536-1.837-0.459-2.679 0.077-0.383 0.459-0.689 0.919-0.612 0.383 0.077 0.689 0.459 0.612 0.919-0.077 0.536 0 1.072 0.306 1.761 0.153 0.383 0 0.842-0.383 0.995-0.153 0.077-0.23 0.077-0.306 0.077z"></path>
<path class="path5" d="M98.986 20.823c-0.23 0-0.536-0.153-0.612-0.383-0.536-0.995-0.995-1.914-1.531-2.833l-0.919-1.455c-0.23-0.383-0.077-0.842 0.23-1.072 0.383-0.23 0.842-0.077 1.072 0.23l0.919 1.455c0.536 0.919 1.072 1.914 1.531 2.833 0.23 0.383 0.077 0.842-0.306 1.072-0.153 0.153-0.306 0.153-0.383 0.153zM93.933 12.325c-0.23 0-0.536-0.153-0.689-0.383-0.842-1.378-1.761-2.833-2.603-4.211-0.23-0.383-0.077-0.842 0.23-1.072 0.383-0.23 0.842-0.077 1.072 0.23 0.842 1.378 1.761 2.833 2.603 4.211 0.23 0.383 0.077 0.842-0.23 1.072-0.077 0.153-0.23 0.153-0.383 0.153z"></path>
<path class="path6" d="M100.593 27.33c-0.383 0-0.766-0.306-0.766-0.766s0.306-0.766 0.766-0.766c0.383 0 0.766 0 1.072-0.077-0.077-0.077-0.153-0.23-0.23-0.306-0.153-0.153-0.306-0.383-0.459-0.612-0.23-0.306-0.153-0.842 0.153-1.072s0.842-0.153 1.072 0.153c0.153 0.153 0.23 0.306 0.383 0.459 0.383 0.459 0.842 0.995 0.995 1.684l0.153 0.689-0.689 0.23c-0.689 0.23-1.531 0.306-2.45 0.383 0 0 0 0 0 0z"></path>
<path class="path7" d="M96.077 26.794c-0.077 0-0.077 0-0.153 0-0.919-0.23-1.837-0.383-2.756-0.612-0.536-0.153-1.148-0.306-1.684-0.383-0.383-0.077-0.689-0.536-0.612-0.919s0.536-0.689 0.919-0.612c0.536 0.153 1.148 0.23 1.684 0.383 0.919 0.23 1.761 0.459 2.679 0.612 0.383 0.077 0.689 0.459 0.612 0.919 0 0.383-0.306 0.612-0.689 0.612zM87.196 25.11c0 0-0.077 0 0 0-1.608-0.153-3.139-0.306-4.593-0.383-0.459 0-0.766-0.383-0.689-0.842 0-0.459 0.383-0.766 0.842-0.689 1.455 0.077 2.986 0.23 4.517 0.383 0.383 0.077 0.766 0.383 0.689 0.842-0.077 0.383-0.383 0.689-0.766 0.689z"></path>
<path class="path8" d="M78.163 24.498c-0.077 0-0.077 0 0 0-0.766 0-1.531 0-2.297 0-0.459 0-0.766-0.383-0.766-0.766 0-0.459 0.306-0.766 0.766-0.766 0 0 0 0 0 0 0.766 0 1.531 0 2.297 0 0.459 0 0.766 0.383 0.766 0.766-0.077 0.459-0.383 0.766-0.766 0.766z"></path>
</symbol>
<symbol id="icon-staff" viewBox="0 0 30 32">
<title>staff</title>
<path class="path1" fill="#9a88c0" d="M7.446 12.985c0 2.215 0.8 4.492 2.154 6.215 1.477 1.785 3.323 2.769 5.354 2.769 1.969 0 3.877-0.985 5.354-2.769 1.354-1.723 2.154-4 2.154-6.215v-2.031c1.477-4.677 0.923-8.615 0.431-9.662 0 0 0 0 0 0s0 0 0 0 0 0 0 0 0 0 0 0 0 0 0 0 0 0 0 0 0 0 0 0 0 0 0 0 0 0 0 0 0 0 0 0 0 0 0 0 0 0 0 0 0 0 0 0 0 0 0 0 0 0 0 0 0 0 0 0 0 0 0 0 0 0 0 0 0 0 0 0 0 0 0 0 0 0 0 0 0 0 0 0 0 0 0 0 0 0 0 0 0 0-0.062 0c0 0 0 0 0 0s0 0-0.062 0c0 0 0 0 0 0-1.231 0.185-2.769-0.123-4.369-0.431-3.077-0.862-5.846-1.415-8 0.123-0.062 0-0.062 0-0.123 0-2.215 0-3.815 1.846-3.815 4.492 0 2.031 0.862 5.846 0.985 6.4v1.108zM19.569 18.585c-1.231 1.538-2.892 2.4-4.554 2.4s-3.323-0.862-4.554-2.4c-1.231-1.538-1.969-3.569-1.969-5.6v-0.554c0-1.785 0.985-4.185 1.354-4.923 3.446-0.431 6.215 0 7.938 0.431 1.477 0.369 2.462 0.8 2.831 0.985l0.923 2.154v1.969c-0.062 1.969-0.738 4-1.969 5.538v0zM10.277 2.031c0.062 0 0.123 0 0.123 0 0.123 0.062 0.308 0 0.431-0.062 1.846-1.415 4.431-0.862 6.954-0.369 1.354 0.246 2.585 0.492 3.754 0.492 0.185 0 0.369 0 0.554 0 0.308 1.108 0.615 3.877-0.246 7.323l-0.431-1.108c-0.062-0.123-0.123-0.185-0.246-0.246-0.185-0.123-4.615-2.462-11.815-1.538 0 0 0 0 0 0s0 0 0 0 0 0 0 0 0 0 0 0c-0.062 0-0.123 0.062-0.185 0.062s-0.062 0.062-0.062 0.062c0 0 0 0 0 0s0 0 0 0 0 0 0 0 0 0 0 0 0 0 0 0 0 0 0 0c-0.062 0.062-0.615 1.231-1.046 2.708-0.246-1.292-0.492-2.954-0.492-4-0.062-2.277 1.354-3.323 2.708-3.323v0z"></path>
<path class="path2" fill="#f98c67" d="M29.046 25.846c-0.677-0.985-1.6-1.662-2.708-1.969 0 0 0 0-0.062 0l-4-0.862-1.046-1.6c0 0 0 0 0 0-0.185-0.246-0.431-0.369-0.677-0.369-0.246-0.062-0.554 0.062-0.738 0.246 0 0 0 0 0 0l-4.738 4.123-4.738-4.123c0 0 0 0 0 0-0.185-0.185-0.492-0.246-0.738-0.246-0.246 0.062-0.492 0.185-0.677 0.369 0 0 0 0 0 0l-1.046 1.6-4.185 0.862c0 0 0 0-0.062 0-1.108 0.308-2.031 0.985-2.708 1.969-0.615 0.923-0.985 1.969-0.985 3.077v1.231c0.062 0.985 0.985 1.846 2.031 1.846h11.508c0 0 0 0 0 0s0 0 0 0h3.015c0 0 0 0 0 0v0h11.508c1.108 0 1.969-0.8 1.969-1.785v-1.231c0-1.108-0.308-2.215-0.923-3.138v0zM20.369 21.969l0.985 1.477-3.446 4.738-2.215-2.215 4.677-4zM14.462 29.477h0.985c0 0 0.062 0 0.062 0l0.308 1.477h-1.785l0.308-1.477c0.062 0 0.123 0 0.123 0v0zM16 28c0 0.246-0.246 0.492-0.492 0.492h-0.985c-0.246 0-0.492-0.246-0.492-0.492v-0.308l0.985-0.985 0.985 0.985v0.308zM9.6 21.969l4.677 4-2.215 2.215-3.446-4.738 0.985-1.477zM0.985 30.154v-1.231c0-1.6 0.985-3.508 2.954-4.062l3.877-0.8 3.815 5.231c0.062 0.123 0.246 0.185 0.369 0.185 0 0 0 0 0.062 0 0.123 0 0.246-0.062 0.369-0.123l0.738-0.738c0.062 0.185 0.185 0.369 0.369 0.492l-0.369 1.908h-11.077c-0.615-0.062-1.108-0.431-1.108-0.862v0zM28.985 30.154c0 0.431-0.431 0.8-0.985 0.8h-11.077l-0.369-1.908c0.123-0.123 0.246-0.308 0.369-0.492l0.738 0.738c0.123 0.123 0.246 0.123 0.369 0.123 0 0 0 0 0.062 0 0.123 0 0.308-0.062 0.369-0.185l3.815-5.231 3.877 0.8c1.908 0.554 2.954 2.462 2.954 4.062v1.292z"></path>
</symbol>
<symbol id="icon-staffing" viewBox="0 0 32 32">
<title>staffing</title>
<path class="path1" fill="#9a88c0" d="M20.533 0c-6.333 0-11.533 5.133-11.533 11.533 0 3 1.133 5.667 3 7.733l-1.6 1.6c-0.4-0.267-0.8-0.4-1.267-0.4-0.667 0-1.267 0.267-1.733 0.733l-6.667 6.667c-0.467 0.4-0.733 1.067-0.733 1.667 0 0.667 0.267 1.267 0.733 1.733s1.067 0.733 1.733 0.733c0.667 0 1.267-0.267 1.733-0.733l6.667-6.667c0.467-0.467 0.733-1.067 0.733-1.733 0-0.467-0.133-1-0.4-1.4l1.533-1.533c2.067 1.867 4.8 3.067 7.8 3.067 6.333 0 11.533-5.133 11.533-11.467s-5.2-11.533-11.533-11.533v0zM10.133 23.867l-6.667 6.667c-0.267 0.267-0.667 0.4-1 0.4-0.4 0-0.733-0.133-1-0.4s-0.4-0.667-0.4-1c0-0.4 0.133-0.733 0.4-1l6.667-6.667c0.267-0.267 0.667-0.4 1-0.4 0.4 0 0.733 0.133 1 0.4s0.4 0.667 0.4 1c0 0.4-0.133 0.733-0.4 1v0zM20.533 22c-5.8 0-10.533-4.733-10.533-10.467s4.733-10.533 10.533-10.533c5.8 0 10.533 4.733 10.533 10.533s-4.8 10.467-10.533 10.467v0z"></path>
<path class="path2" fill="#9a88c0" d="M29.467 8.333c-0.467-1.333-1.267-2.533-2.267-3.533s-2.267-1.8-3.6-2.267c-0.267-0.067-0.533 0.067-0.667 0.333-0.067 0.267 0.067 0.533 0.333 0.667 2.4 0.867 4.333 2.8 5.2 5.2 0.067 0.2 0.267 0.333 0.467 0.333 0.067 0 0.133 0 0.2 0 0.267-0.2 0.4-0.467 0.333-0.733v0z"></path>
<path class="path3" fill="#f98c67" d="M25.2 14.4c0 0 0 0 0 0l-1.867-0.467c-0.133-0.067-0.267-0.133-0.333-0.2v-1c0 0 0 0 0 0 0.667-0.733 1-1.733 1-2.8v-0.733c0.667-2.067 0.2-3.867-0.067-4.4 0 0 0 0 0 0s0 0 0 0 0 0 0 0 0 0 0 0 0 0 0 0 0 0 0 0 0 0 0 0 0 0 0 0 0 0 0 0 0 0 0 0 0 0 0 0 0 0 0 0 0 0 0 0 0 0 0 0 0 0 0 0 0 0 0 0 0 0 0 0 0 0 0 0 0 0 0 0 0 0 0 0 0 0 0 0 0 0 0 0 0 0 0 0 0 0 0 0 0 0 0 0 0 0 0 0 0 0-0.067 0c0 0 0 0 0 0-0.467 0.067-1.067-0.067-1.667-0.2-1.533-0.6-2.8-0.867-3.867-0.067-1.067 0.067-1.8 1-1.8 2.2 0 0.867 0.4 2.4 0.467 2.733v0.4c0 1.067 0.4 2.067 1 2.8v1.067c0 0.067-0.133 0.133-0.333 0.2l-1.867 0.467c0 0 0 0 0 0-1.2 0.333-1.8 1.467-1.8 2.467v0.533c0 0.6 0.533 1.067 1.133 1.067h5.333c0 0 0 0 0 0s0 0 0 0h5.333c0.667 0 1.133-0.467 1.133-1.067v-0.533c0.067-0.933-0.533-2.133-1.733-2.467v0zM20.533 15.4l-1.733-1.067c0.133-0.2 0.2-0.4 0.2-0.6v-0.2c0.467 0.267 1 0.4 1.533 0.4s1.067-0.133 1.533-0.4v0.2c0 0.267 0.067 0.467 0.2 0.6l-1.733 1.067zM18 9.667c0-0.467 0.2-1.2 0.4-1.667 2.267 0.067 4 0.6 4.6 0.867v1.133c0 0.867-0.333 1.667-0.867 2.267 0 0 0 0 0 0-0.467 0.467-1 0.8-1.667 0.8-1.333 0-2.467-1.467-2.467-3.133v-0.267zM18.467 5.467c0.067 0 0.067 0 0 0 0.067 0 0.067 0 0 0 0.067 0 0.067 0 0 0 0.067 0 0.067 0 0.067 0s0 0 0 0 0 0 0 0 0 0 0 0 0 0 0 0 0 0 0 0 0 0 0 0 0 0 0 0 0 0 0 0 0 0 0 0 0 0 0 0c0.733-0.6 1.667-0.4 2.733-0.133 0.533 0.133 1.133 0.267 1.667 0.267 0.133 0.467 0.267 1.333 0.133 2.333-0.8-0.267-2.733-0.867-5.267-0.867 0 0 0 0 0 0s0 0-0.067 0c0 0 0 0 0 0s0 0 0 0 0 0 0 0 0 0 0 0 0 0 0 0 0 0 0 0 0 0 0 0 0 0 0 0 0 0 0 0 0 0 0 0 0 0 0 0 0 0 0 0 0 0 0 0 0 0 0 0 0 0 0 0 0 0 0 0 0 0 0 0 0 0 0 0 0 0 0 0 0 0 0 0 0 0 0 0 0 0 0 0 0 0 0 0c-0.067-0.267-0.067-0.467-0.067-0.6-0.133-0.333 0.133-1 0.8-1v0zM15.133 17.533c-0.133 0-0.133-0.067-0.133-0.067v-0.533c0-0.6 0.4-1.333 1.067-1.533l1.667-0.467 2.267 1.333v1.2l-4.867 0.067zM26 17.4c0 0-0.067 0.067-0.133 0.067h-4.867v-1.2l2.267-1.333 1.667 0.4c0.733 0.2 1.067 0.933 1.067 1.533v0.533z"></path>
</symbol>
<symbol id="icon-values" viewBox="0 0 32 32">
<title>values</title>
<path class="path1" fill="#f98c67" d="M25.723 12c-0.246 0.062-0.369 0.369-0.308 0.615 0.369 1.046 0.554 2.215 0.554 3.323 0 5.538-4.492 10.031-10.031 10.031-5.477 0.062-9.908-4.431-9.908-9.969s4.431-9.969 9.969-9.969c2.4 0 4.677 0.862 6.462 2.4 0.185 0.185 0.554 0.123 0.677-0.062 0.185-0.185 0.185-0.554-0.062-0.677-1.908-1.785-4.492-2.708-7.077-2.708-6.092 0-11.015 4.923-11.015 11.015s4.923 11.015 11.015 11.015c6.092 0 11.015-4.923 11.015-11.015 0-1.231-0.185-2.462-0.615-3.692-0.123-0.246-0.431-0.369-0.677-0.308v0z"></path>
<path class="path2" fill="#f98c67" d="M24.492 10.769c0.123 0.123 0.246 0.246 0.431 0.246 0.062 0 0.185 0 0.246-0.062 0.246-0.123 0.308-0.431 0.185-0.677-0.246-0.369-0.492-0.738-0.738-1.046-0.185-0.246-0.492-0.246-0.677-0.062-0.246 0.185-0.246 0.492-0.062 0.677 0.246 0.246 0.431 0.615 0.615 0.923v0z"></path>
<path class="path3" fill="#928ed5" d="M30.031 12.985h-0.862c-0.308-1.477-0.923-2.892-1.723-4.185l0.615-0.615c0.8-0.8 0.8-2.031 0-2.831l-1.415-1.415c-0.8-0.8-2.031-0.8-2.831 0l-0.615 0.615c-1.292-0.8-2.708-1.415-4.185-1.723v-0.8c0-1.108-0.923-2.031-2.031-2.031h-2.031c-1.108 0-2.031 0.923-2.031 2.031v0.862c-1.477 0.308-2.892 0.923-4.185 1.723l-0.615-0.615c-0.8-0.8-2.031-0.8-2.831 0l-1.292 1.415c-0.8 0.8-0.8 2.031 0 2.831l0.615 0.615c-0.8 1.292-1.415 2.708-1.723 4.185h-0.862c-1.108 0-2.031 0.923-2.031 2.031v2.031c0 1.108 0.923 2.031 2.031 2.031h0.862c0.308 1.477 0.923 2.892 1.723 4.185l-0.615 0.615c-0.8 0.8-0.8 2.031 0 2.831l1.415 1.415c0.8 0.8 2.031 0.8 2.831 0l0.615-0.615c1.292 0.8 2.708 1.415 4.185 1.723v0.862c0 1.108 0.923 2.031 2.031 2.031h2.031c1.108 0 2.031-0.923 2.031-2.031v-0.862c1.477-0.308 2.892-0.923 4.185-1.723l0.615 0.615c0.8 0.8 2.031 0.8 2.831 0l1.415-1.415c0.8-0.8 0.8-2.031 0-2.831l-0.615-0.615c0.8-1.292 1.415-2.708 1.723-4.185h0.862c1.108 0 2.031-0.923 2.031-2.031v-2.031c-0.185-1.169-1.108-2.092-2.154-2.092v0zM31.015 16.985c0 0.554-0.431 0.985-0.985 0.985h-1.231c-0.246 0-0.431 0.185-0.492 0.431-0.308 1.662-0.985 3.2-1.908 4.554-0.123 0.185-0.123 0.492 0.062 0.615l0.862 0.862c0.369 0.369 0.369 1.046 0 1.415l-1.415 1.415c-0.369 0.369-1.046 0.369-1.415 0l-0.862-0.8c-0.185-0.185-0.431-0.185-0.615-0.062-1.415 0.923-2.954 1.6-4.554 1.908-0.246 0.062-0.431 0.246-0.431 0.492v1.231c0 0.554-0.431 0.985-0.985 0.985h-2.031c-0.554 0-0.985-0.431-0.985-0.985v-1.231c0-0.246-0.185-0.431-0.431-0.492-1.662-0.308-3.2-0.985-4.554-1.908-0.062-0.062-0.185-0.062-0.308-0.062s-0.246 0.062-0.369 0.123l-0.862 0.862c-0.369 0.369-1.046 0.369-1.415 0l-1.415-1.415c-0.369-0.369-0.369-1.046 0-1.415l0.862-0.862c0.185-0.185 0.185-0.431 0.062-0.615-0.923-1.415-1.6-2.954-1.908-4.554-0.062-0.246-0.246-0.431-0.492-0.431h-1.231c-0.554 0-0.985-0.431-0.985-0.985v-2.031c0-0.554 0.431-0.985 0.985-0.985h1.231c0.246 0 0.431-0.185 0.492-0.431 0.308-1.662 0.985-3.2 1.908-4.554 0.123-0.185 0.123-0.492-0.062-0.615l-0.862-0.862c-0.369-0.431-0.369-1.108 0-1.477l1.415-1.415c0.369-0.369 1.046-0.369 1.415 0l0.862 0.862c0.185 0.185 0.431 0.185 0.615 0.062 1.415-0.923 2.954-1.6 4.554-1.908 0.246-0.062 0.431-0.246 0.431-0.492v-1.231c0-0.554 0.431-0.985 0.985-0.985h2.031c0.554 0 0.985 0.431 0.985 0.985v1.231c0 0.246 0.185 0.431 0.431 0.492 1.662 0.308 3.2 0.985 4.554 1.908 0.185 0.123 0.492 0.123 0.615-0.062l0.862-0.862c0.369-0.369 1.046-0.369 1.415 0l1.415 1.415c0.369 0.369 0.369 1.046 0 1.415l-0.8 0.862c-0.185 0.185-0.185 0.431-0.062 0.615 0.923 1.415 1.6 2.954 1.908 4.554 0.062 0.246 0.246 0.431 0.492 0.431h1.231c0.554 0 0.985 0.431 0.985 0.985v2.031z"></path>
<path class="path4" fill="#9a88c0" d="M13.169 18.4l-1.846 0.492c0 0 0 0 0 0-1.169 0.308-1.785 1.477-1.785 2.462v0.554c0 0.615 0.492 1.046 1.169 1.046h5.354c0 0 0 0 0 0s0 0 0 0h5.354c0.615 0 1.169-0.492 1.169-1.046v-0.554c0-0.985-0.615-2.154-1.785-2.462 0 0 0 0 0 0l-1.846-0.492c-0.185-0.062-0.308-0.123-0.308-0.185v-0.985c0 0 0 0 0 0 0.615-0.738 0.985-1.723 0.985-2.769v-0.738c0.615-2.092 0.185-3.877-0.062-4.431 0 0 0 0 0 0s0 0 0 0 0 0 0 0 0 0 0 0 0 0 0 0 0 0 0 0 0 0 0 0 0 0 0 0 0 0 0 0 0 0 0 0 0 0 0 0 0 0 0 0 0 0 0 0 0 0 0 0 0 0 0 0 0 0 0 0 0 0 0 0 0 0 0 0 0 0 0 0 0 0 0 0 0 0 0 0 0 0 0 0 0 0 0 0 0 0 0 0 0 0 0 0 0 0 0 0 0 0-0.062 0c0 0 0 0 0 0-1.046-0.246-1.662-0.369-2.277-0.492-1.108-0.246-2.338-0.554-3.446 0.246-1.046 0.062-1.785 0.985-1.785 2.154 0 0.862 0.431 2.4 0.492 2.769v0.431c0 1.108 0.369 2.092 0.985 2.831v1.108c0-0.062-0.123 0.062-0.308 0.062v0zM13.538 14.215c0-0.492 0.185-1.231 0.369-1.662 2.277 0.062 4 0.615 4.615 0.862v1.108c0 0.862-0.308 1.662-0.862 2.277 0 0 0 0 0 0-0.431 0.369-1.046 0.677-1.662 0.677-1.354 0-2.462-1.477-2.462-3.138v-0.123zM14.462 18.031c0.492 0.246 0.985 0.431 1.538 0.431s1.046-0.123 1.538-0.369v0.185c0 0.246 0.062 0.431 0.246 0.615l-1.785 1.046-1.723-1.046c0.123-0.185 0.246-0.369 0.246-0.615l-0.062-0.246zM10.646 22.031c-0.123 0-0.123-0.062-0.123-0.062v-0.554c0-0.615 0.369-1.292 1.046-1.477l1.723-0.431 2.215 1.354v1.231l-4.862-0.062zM21.477 21.415v0.554c0 0-0.062 0.062-0.123 0.062h-4.862v-1.231l2.277-1.354 1.662 0.431c0.738 0.185 1.046 0.923 1.046 1.538v0zM13.969 10.031c0.062 0 0.062-0.062 0 0 0.062-0.062 0.062-0.062 0 0 0.062 0 0.062 0 0.062 0s0 0 0.062 0c0 0 0 0 0 0s0 0 0 0 0 0 0 0 0 0 0 0 0 0 0 0 0 0 0 0 0 0 0 0 0 0 0 0 0 0 0 0 0 0 0 0c0.738-0.615 1.662-0.369 2.708-0.123 0.554 0.123 1.108 0.246 1.662 0.246 0.123 0.492 0.246 1.354 0.123 2.338-0.8-0.308-2.708-0.862-5.231-0.862 0 0 0 0 0 0s0 0-0.062 0c0 0 0 0 0 0s0 0 0 0 0 0 0 0 0 0 0 0 0 0 0 0 0 0 0 0 0 0-0.062 0c0 0 0 0 0 0s0 0-0.062 0c0 0 0 0 0 0s0 0 0 0 0 0 0 0 0 0 0 0 0 0 0 0 0 0 0 0 0 0 0 0 0 0 0 0 0 0 0 0 0 0 0 0 0 0 0 0 0 0 0 0 0 0 0 0 0 0 0 0c-0.062-0.246-0.062-0.431-0.062-0.615-0.062-0.369 0.185-0.985 0.862-0.985v0z"></path>
</symbol>
</defs>
</svg>
