<?xml version="1.0" encoding="utf-8"?>
<!-- Generator: Adobe Illustrator 16.0.2, SVG Export Plug-In . SVG Version: 6.00 Build 0)  -->
<!DOCTYPE svg PUBLIC "-//W3C//DTD SVG 1.1//EN" "http://www.w3.org/Graphics/SVG/1.1/DTD/svg11.dtd">
<svg version="1.1" id="Layer_1" xmlns="http://www.w3.org/2000/svg" xmlns:xlink="http://www.w3.org/1999/xlink" x="0px" y="0px"
	 width="47.888px" height="48px" viewBox="0 0 47.888 48" enable-background="new 0 0 47.888 48" xml:space="preserve">
<path fill="#9A88C0" d="M24.617,24.321c0.564,0.773,0.872,1.705,0.872,2.677c0,2.505-2.037,4.543-4.542,4.543
	s-4.544-2.038-4.544-4.543c0-2.506,2.039-4.543,4.544-4.543c0.354,0,0.709,0.041,1.052,0.122c0.378,0.09,0.755-0.144,0.846-0.521
	c0.089-0.377-0.145-0.756-0.522-0.845c-0.447-0.106-0.911-0.16-1.375-0.16c-3.28,0-5.949,2.668-5.949,5.949
	c0,3.279,2.669,5.949,5.949,5.949s5.948-2.67,5.948-5.949c0-1.347-0.45-2.634-1.275-3.68 M34.119,14.819l1.127-1.125
	c3.379,3.625,5.232,8.326,5.232,13.305c0,10.77-8.762,19.533-19.531,19.533c-10.771,0-19.533-8.764-19.533-19.533
	c0-10.77,8.763-19.532,19.533-19.532c4.199,0,8.203,1.313,11.574,3.797c0.313,0.23,0.752,0.164,0.982-0.149
	c0.23-0.312,0.164-0.752-0.148-0.982C29.74,7.468,25.45,6.061,20.947,6.061c-5.593,0-10.851,2.177-14.806,6.133
	C2.188,16.147,0.01,21.406,0.01,26.998c0,5.592,2.178,10.85,6.132,14.805c3.955,3.955,9.213,6.133,14.806,6.133
	c5.592,0,10.851-2.178,14.804-6.133c3.955-3.955,6.133-9.213,6.133-14.805c0-5.354-2-10.408-5.645-14.3l0.736-0.736h4.955
	c0.188,0,0.365-0.074,0.496-0.206l5.246-5.246c0.201-0.202,0.262-0.503,0.152-0.766l0,0c-0.107-0.262-0.363-0.434-0.648-0.434
	h-4.543V0.768c0-0.285-0.172-0.541-0.434-0.649c-0.264-0.109-0.566-0.049-0.768,0.152l-5.246,5.246
	c-0.131,0.132-0.205,0.311-0.205,0.497v4.955L20.45,26.501c-0.274,0.274-0.274,0.72,0,0.993c0.136,0.137,0.316,0.207,0.497,0.207
	c0.178,0,0.358-0.07,0.496-0.207l0.973-0.973c0.049,0.153,0.077,0.313,0.077,0.477c0,0.852-0.695,1.545-1.546,1.545
	c-0.854,0-1.547-0.693-1.547-1.545c0-0.389-0.314-0.703-0.702-0.703s-0.703,0.314-0.703,0.703c0,1.627,1.324,2.951,2.952,2.951
	c1.626,0,2.95-1.324,2.95-2.951c0-0.545-0.149-1.072-0.429-1.529l1.148-1.148 M33.125,15.813c2.813,3.06,4.357,7.013,4.357,11.185
	c0,9.117-7.418,16.533-16.535,16.533c-9.118,0-16.535-7.416-16.535-16.533c0-9.118,7.417-16.534,16.535-16.534
	c3.346,0,6.566,0.993,9.318,2.873c0.32,0.22,0.758,0.137,0.977-0.183c0.219-0.321,0.137-0.757-0.182-0.977
	c-2.988-2.041-6.483-3.12-10.113-3.12c-9.893,0-17.939,8.047-17.939,17.94c0,9.892,8.047,17.939,17.939,17.939
	c9.89,0,17.939-8.047,17.939-17.939c0-4.546-1.691-8.854-4.768-12.179 M30.935,18.002l2.189-2.188 M29.939,18.998
	c1.971,2.206,3.045,5.021,3.045,8c0,6.637-5.4,12.037-12.037,12.037c-6.639,0-12.038-5.4-12.038-12.037
	c0-6.638,5.399-12.038,12.038-12.038c2.259,0,4.462,0.629,6.367,1.82c0.33,0.206,0.763,0.105,0.968-0.223
	c0.205-0.33,0.105-0.763-0.223-0.969c-2.13-1.33-4.591-2.034-7.113-2.034c-7.413,0-13.443,6.031-13.443,13.443
	c0,7.412,6.03,13.443,13.443,13.443c7.412,0,13.443-6.031,13.443-13.443c0-3.354-1.221-6.523-3.455-8.996 M25.62,23.318l2.196-2.196
	c1.404,1.637,2.17,3.704,2.17,5.876c0,4.984-4.055,9.039-9.039,9.039c-4.985,0-9.04-4.055-9.04-9.039s4.055-9.04,9.04-9.04
	c1.558,0,3.093,0.402,4.44,1.163c0.338,0.191,0.766,0.072,0.956-0.266c0.192-0.338,0.071-0.767-0.265-0.958
	c-1.559-0.88-3.333-1.345-5.132-1.345c-5.761,0-10.445,4.686-10.445,10.445c0,5.759,4.685,10.445,10.445,10.445
	c5.758,0,10.445-4.687,10.445-10.445c0-2.547-0.914-4.968-2.58-6.873l1.127-1.128 M41.64,10.558h-3.26l1.799-1.799
	c0.275-0.275,0.275-0.719,0-0.993c-0.273-0.275-0.719-0.275-0.992,0l-1.799,1.798V6.304l3.84-3.84v3.549
	c0,0.388,0.316,0.703,0.703,0.703h3.551L41.64,10.558z M41.64,10.558"/>
<rect fill="none" width="47.888" height="48"/>
<path fill="#F98C67" d="M25.622,23.315l-1.007,1.006c0.563,0.775,0.877,1.708,0.877,2.676c0,2.502-2.04,4.542-4.542,4.542
	c-2.51,0-4.55-2.04-4.55-4.542c0-2.51,2.04-4.541,4.55-4.541c0.351,0,0.702,0.037,1.054,0.12c0.368,0.092,0.747-0.148,0.839-0.526
	c0.093-0.37-0.138-0.748-0.517-0.84c-0.452-0.111-0.914-0.167-1.376-0.167c-3.285,0-5.954,2.677-5.954,5.954
	c0,3.277,2.669,5.945,5.954,5.945c3.277,0,5.945-2.668,5.945-5.945C26.896,25.65,26.443,24.368,25.622,23.315z"/>
<path fill="#F98C67" d="M25.696,23.315l-0.997,1.006c0.563,0.775,0.867,1.708,0.867,2.676c0,2.502-2.04,4.542-4.542,4.542
	s-4.541-2.04-4.541-4.542c0-2.51,2.039-4.541,4.541-4.541c0.351,0,0.711,0.037,1.052,0.12c0.379,0.092,0.758-0.148,0.851-0.526
	c0.083-0.37-0.148-0.748-0.526-0.84c-0.453-0.111-0.914-0.167-1.376-0.167c-3.276,0-5.944,2.677-5.944,5.954
	c0,3.277,2.668,5.945,5.944,5.945c3.277,0,5.945-2.668,5.945-5.945C26.97,25.65,26.526,24.368,25.696,23.315z"/>
</svg>
