<?xml version="1.0" encoding="utf-8"?>
<!-- Generator: Adobe Illustrator 16.0.2, SVG Export Plug-In . SVG Version: 6.00 Build 0)  -->
<!DOCTYPE svg PUBLIC "-//W3C//DTD SVG 1.1//EN" "http://www.w3.org/Graphics/SVG/1.1/DTD/svg11.dtd">
<svg version="1.1" id="Layer_1" xmlns="http://www.w3.org/2000/svg" xmlns:xlink="http://www.w3.org/1999/xlink" x="0px" y="0px"
	 width="32px" height="32px" viewBox="0 0 32 32" enable-background="new 0 0 32 32" xml:space="preserve">
<path fill="#090A0A" d="M23.598,10.398c-0.576,0.336-1.215,0.58-1.895,0.713c-0.544-0.571-1.319-0.928-2.179-0.928
	c-1.647,0-2.983,1.314-2.983,2.937c0,0.229,0.025,0.454,0.077,0.67c-2.48-0.123-4.68-1.293-6.151-3.069
	c-0.257,0.434-0.403,0.938-0.403,1.477c0,1.019,0.526,1.918,1.327,2.445c-0.488-0.016-0.949-0.148-1.352-0.368
	c-0.001,0.013-0.001,0.024-0.001,0.036c0,1.424,1.029,2.611,2.395,2.881c-0.251,0.067-0.514,0.103-0.786,0.103
	c-0.192,0-0.38-0.019-0.562-0.052c0.38,1.167,1.481,2.016,2.787,2.039c-1.021,0.789-2.308,1.258-3.706,1.258
	c-0.241,0-0.478-0.014-0.712-0.041c1.321,0.833,2.89,1.319,4.575,1.319c5.489,0,8.49-4.476,8.49-8.356
	c0-0.128-0.003-0.254-0.008-0.38c0.582-0.415,1.088-0.932,1.488-1.521c-0.535,0.233-1.11,0.391-1.714,0.463
	C22.902,11.659,23.375,11.084,23.598,10.398 M16,0C7.163,0,0,7.164,0,16c0,8.837,7.163,16,16,16s16-7.163,16-16
	C32,7.164,24.837,0,16,0 M16,30.545C7.967,30.545,1.454,24.033,1.454,16S7.967,1.455,16,1.455S30.545,7.967,30.545,16
	S24.033,30.545,16,30.545"/>
</svg>
