<?xml version="1.0" encoding="utf-8"?>
<!-- Generator: Adobe Illustrator 16.0.2, SVG Export Plug-In . SVG Version: 6.00 Build 0)  -->
<!DOCTYPE svg PUBLIC "-//W3C//DTD SVG 1.1//EN" "http://www.w3.org/Graphics/SVG/1.1/DTD/svg11.dtd">
<svg version="1.1" id="Layer_1" xmlns="http://www.w3.org/2000/svg" xmlns:xlink="http://www.w3.org/1999/xlink" x="0px" y="0px"
	 width="52px" height="39.788px" viewBox="0 0 52 39.788" enable-background="new 0 0 52 39.788" xml:space="preserve">
<g>
	<path fill="#9A88C0" d="M51.236,38.263H40.684c0.726-0.917,1.018-2.095,0.797-3.245l-2.161-11.354
		c-0.273-1.428-1.299-2.603-2.679-3.062l-5.515-1.839c-0.097-0.032-0.197-0.044-0.292-0.038v-1.465
		c1.052-1.183,1.628-2.687,1.628-4.286v-1.805c0.946-0.319,1.628-1.213,1.628-2.265v-4.07C34.09,2.168,31.922,0,29.256,0h-6.512
		c-1.078,0-1.99,0.716-2.289,1.696c-1.452,0.306-2.545,1.596-2.545,3.138v4.07c0,1.052,0.683,1.946,1.628,2.265v1.566
		c0,1.681,0.617,3.236,1.628,4.423v1.567c-0.096-0.006-0.195,0.006-0.292,0.038l-5.515,1.839c-1.379,0.459-2.405,1.633-2.678,3.062
		l-2.162,11.354c-0.22,1.15,0.072,2.328,0.797,3.245H0.763C0.342,38.263,0,38.604,0,39.026c0,0.421,0.342,0.762,0.763,0.762h50.473
		c0.423,0,0.764-0.341,0.764-0.762C52,38.604,51.659,38.263,51.236,38.263L51.236,38.263z M21.93,20.25
		c0.421,0,0.762-0.341,0.762-0.763v-1.009c0.917,0.575,1.978,0.921,3.11,0.956c0.066,0.002,0.134,0.002,0.2,0.002
		c1.182,0,2.314-0.315,3.305-0.908v0.958c0,0.422,0.342,0.763,0.764,0.763c0.012,0,0.021,0,0.032-0.001
		c-0.198,1.882-1.964,3.361-4.103,3.361c-2.14,0-3.903-1.479-4.102-3.361C21.908,20.25,21.918,20.25,21.93,20.25L21.93,20.25z
		 M19.437,8.904v-4.07c0-0.926,0.753-1.679,1.679-1.679c0.421,0,0.764-0.342,0.764-0.763c0-0.477,0.388-0.865,0.865-0.865h6.512
		c1.824,0,3.308,1.483,3.308,3.307v4.07c0,0.147-0.036,0.285-0.102,0.406V8.09c0-1.319-1.073-2.392-2.392-2.392H21.93
		c-1.319,0-2.392,1.073-2.392,2.392v1.22C19.473,9.189,19.437,9.051,19.437,8.904L19.437,8.904z M21.064,8.09
		c0-0.477,0.388-0.865,0.865-0.865h8.141c0.477,0,0.865,0.388,0.865,0.865v4.884c0,1.347-0.532,2.604-1.498,3.542
		c-0.967,0.938-2.242,1.432-3.59,1.391c-2.638-0.08-4.783-2.399-4.783-5.172V8.09z M16.231,38.263c-0.029,0-0.051-0.023-0.051-0.052
		V27.628c0-0.027,0.022-0.051,0.051-0.051H35.77c0.028,0,0.051,0.023,0.051,0.051v10.583c0,0.028-0.022,0.052-0.051,0.052H16.231z
		 M37.397,38.263h-0.054c0.001-0.018,0.003-0.034,0.003-0.052V27.628c0-0.87-0.708-1.576-1.577-1.576H16.231
		c-0.87,0-1.578,0.706-1.578,1.576v10.583c0,0.018,0.002,0.034,0.002,0.052h-0.188c-0.745,0-1.446-0.33-1.92-0.904
		c-0.476-0.574-0.668-1.323-0.528-2.057l2.162-11.354c0.169-0.885,0.805-1.612,1.661-1.898l4.554-1.517
		c0.341,2.59,2.723,4.604,5.605,4.604s5.264-2.014,5.605-4.604l4.553,1.517c0.856,0.286,1.491,1.013,1.661,1.898l2.161,11.354
		c0.14,0.733-0.052,1.482-0.526,2.057c-0.477,0.574-1.176,0.904-1.922,0.904H37.397z M37.397,38.263"/>
	<path fill="#F98C67" d="M26,30.935c-1.319,0-2.392,1.074-2.392,2.392c0,1.318,1.073,2.393,2.392,2.393
		c1.318,0,2.392-1.074,2.392-2.393C28.392,32.009,27.318,30.935,26,30.935L26,30.935z M26,34.192c-0.477,0-0.865-0.389-0.865-0.866
		c0-0.477,0.388-0.865,0.865-0.865c0.477,0,0.865,0.389,0.865,0.865C26.865,33.804,26.477,34.192,26,34.192L26,34.192z M26,34.192"
		/>
</g>
</svg>
