<?xml version="1.0" encoding="utf-8"?>
<!-- Generator: Adobe Illustrator 20.0.0, SVG Export Plug-In . SVG Version: 6.00 Build 0)  -->
<svg version="1.1" id="Isolation_Mode" xmlns="http://www.w3.org/2000/svg" xmlns:xlink="http://www.w3.org/1999/xlink" x="0px"
	 y="0px" viewBox="0 0 45 48" style="enable-background:new 0 0 45 48;" xml:space="preserve">
<style type="text/css">
	.st0{fill:#9A88C0;}
	.st1{fill:#F98C67;}
</style>
<path class="st0" d="M37.5,0H4.5C3.7,0,3,0.7,3,1.5V3H1.5C0.7,3,0,3.7,0,4.5v42.1C0,47.3,0.7,48,1.5,48h33.1c0.8,0,1.5-0.7,1.5-1.5
	V45h1.5c0.8,0,1.5-0.7,1.5-1.5V1.5C39,0.7,38.3,0,37.5,0L37.5,0z M34.6,44.3C34.6,44.3,34.6,44.3,34.6,44.3
	C34.6,44.3,34.6,44.3,34.6,44.3v2.3c0,0,0,0,0,0H1.5c0,0,0,0,0,0V4.5c0,0,0,0,0,0h2.3c0,0,0,0,0,0c0,0,0,0,0,0h30.8c0,0,0,0,0,0
	V44.3z M37.6,43.5C37.6,43.6,37.6,43.6,37.6,43.5l-1.6,0V4.5C36,3.7,35.3,3,34.5,3H4.4V1.5c0,0,0,0,0,0h33.1c0,0,0,0,0,0V43.5z
	 M37.6,43.5"/>
<path class="st1" d="M30,9.8h-24c-0.4,0-0.7,0.3-0.7,0.7c0,0.4,0.3,0.7,0.7,0.7h24c0.4,0,0.7-0.3,0.7-0.7C30.7,10.1,30.4,9.8,30,9.8
	L30,9.8z M30,9.8"/>
<path class="st1" d="M30,18.8h-24c-0.4,0-0.7,0.3-0.7,0.7c0,0.4,0.3,0.7,0.7,0.7h24c0.4,0,0.7-0.3,0.7-0.7
	C30.7,19.1,30.4,18.8,30,18.8L30,18.8z M30,18.8"/>
<path class="st0" d="M30,39.8h-24c-0.4,0-0.7,0.3-0.7,0.7c0,0.4,0.3,0.7,0.7,0.7h24c0.4,0,0.7-0.3,0.7-0.7
	C30.7,40.1,30.4,39.8,30,39.8L30,39.8z M30,39.8"/>
<path class="st0" d="M30,27.8h-24c-0.4,0-0.7,0.3-0.7,0.7c0,0.4,0.3,0.7,0.7,0.7h24c0.4,0,0.7-0.3,0.7-0.7
	C30.7,28.1,30.4,27.8,30,27.8L30,27.8z M30,27.8"/>
<path class="st0" d="M5.9,14.2h6c0.4,0,0.7-0.3,0.7-0.7c0-0.4-0.3-0.7-0.7-0.7h-6c-0.4,0-0.7,0.3-0.7,0.7
	C5.2,13.9,5.5,14.2,5.9,14.2L5.9,14.2z M5.9,14.2"/>
<path class="st0" d="M30,12.8h-15c-0.4,0-0.7,0.3-0.7,0.7c0,0.4,0.3,0.7,0.7,0.7h15c0.4,0,0.7-0.3,0.7-0.7
	C30.7,13.1,30.4,12.8,30,12.8L30,12.8z M30,12.8"/>
<path class="st0" d="M5.9,17.2h18c0.4,0,0.7-0.3,0.7-0.7c0-0.4-0.3-0.7-0.7-0.7h-18c-0.4,0-0.7,0.3-0.7,0.7
	C5.2,16.9,5.5,17.2,5.9,17.2L5.9,17.2z M5.9,17.2"/>
<path class="st0" d="M30,15.8h-3c-0.4,0-0.7,0.3-0.7,0.7c0,0.4,0.3,0.7,0.7,0.7h3c0.4,0,0.7-0.3,0.7-0.7
	C30.7,16.1,30.4,15.8,30,15.8L30,15.8z M30,15.8"/>
<path class="st1" d="M30,36.8h-24c-0.4,0-0.7,0.3-0.7,0.7c0,0.4,0.3,0.7,0.7,0.7h24c0.4,0,0.7-0.3,0.7-0.7
	C30.7,37.1,30.4,36.8,30,36.8L30,36.8z M30,36.8"/>
<path class="st0" d="M5.9,32.2h6c0.4,0,0.7-0.3,0.7-0.7c0-0.4-0.3-0.7-0.7-0.7h-6c-0.4,0-0.7,0.3-0.7,0.7
	C5.2,31.9,5.5,32.2,5.9,32.2L5.9,32.2z M5.9,32.2"/>
<path class="st1" d="M30,30.8h-15c-0.4,0-0.7,0.3-0.7,0.7c0,0.4,0.3,0.7,0.7,0.7h15c0.4,0,0.7-0.3,0.7-0.7
	C30.7,31.1,30.4,30.8,30,30.8L30,30.8z M30,30.8"/>
<path class="st0" d="M5.9,35.2h18c0.4,0,0.7-0.3,0.7-0.7c0-0.4-0.3-0.7-0.7-0.7h-18c-0.4,0-0.7,0.3-0.7,0.7
	C5.2,34.9,5.5,35.2,5.9,35.2L5.9,35.2z M5.9,35.2"/>
<path class="st0" d="M30,33.8h-3c-0.4,0-0.7,0.3-0.7,0.7c0,0.4,0.3,0.7,0.7,0.7h3c0.4,0,0.7-0.3,0.7-0.7
	C30.7,34.1,30.4,33.8,30,33.8L30,33.8z M30,33.8"/>
<path class="st0" d="M5.9,23.2h9.8c0.4,0,0.7-0.3,0.7-0.7c0-0.4-0.3-0.7-0.7-0.7H5.9c-0.4,0-0.7,0.3-0.7,0.7
	C5.2,22.9,5.5,23.2,5.9,23.2L5.9,23.2z M5.9,23.2"/>
<path class="st0" d="M30,21.8H18.7c-0.4,0-0.7,0.3-0.7,0.7c0,0.4,0.3,0.7,0.7,0.7H30c0.4,0,0.7-0.3,0.7-0.7
	C30.7,22.1,30.4,21.8,30,21.8L30,21.8z M30,21.8"/>
<path class="st1" d="M5.9,26.2h15.8c0.4,0,0.7-0.3,0.7-0.7c0-0.4-0.3-0.7-0.7-0.7H5.9c-0.4,0-0.7,0.3-0.7,0.7
	C5.2,25.9,5.5,26.2,5.9,26.2L5.9,26.2z M5.9,26.2"/>
<path class="st0" d="M30,24.8h-5.3c-0.4,0-0.7,0.3-0.7,0.7c0,0.4,0.3,0.7,0.7,0.7H30c0.4,0,0.7-0.3,0.7-0.7
	C30.7,25.1,30.4,24.8,30,24.8L30,24.8z M30,24.8"/>
<path class="st1" d="M42.8,13.5c-1.2,0-2.2,1-2.2,2.2V42c0,0.1,0,0.2,0,0.2l1.5,4.4v0.6c0,0.4,0.3,0.7,0.7,0.7
	c0.4,0,0.7-0.3,0.7-0.7v-0.6l1.5-4.4c0-0.1,0-0.1,0-0.2V15.7C45,14.5,44,13.5,42.8,13.5L42.8,13.5z M42.8,44.3L42,42h1.6L42.8,44.3z
	 M43.6,40.6H42V17.9h1.6V40.6z M43.6,16.5H42v-0.8c0-0.4,0.4-0.8,0.8-0.8c0.4,0,0.8,0.4,0.8,0.8V16.5z M43.6,16.5"/>
</svg>
