<?xml version="1.0" encoding="utf-8"?>
<!-- Generator: Adobe Illustrator 20.0.0, SVG Export Plug-In . SVG Version: 6.00 Build 0)  -->
<svg version="1.1" id="Isolation_Mode" xmlns="http://www.w3.org/2000/svg" xmlns:xlink="http://www.w3.org/1999/xlink" x="0px"
	 y="0px" viewBox="0 0 64 64" style="enable-background:new 0 0 64 64;" xml:space="preserve">
<style type="text/css">
	.st0{fill:#231F20;}
</style>
<g>
	<path class="st0" d="M32.1,59c-0.3,0-0.5,0-0.8,0c-0.3,0-0.5-0.2-0.5-0.5c0-0.3,0.2-0.5,0.5-0.5c0.3,0,0.5,0,0.8,0
		c0.4,0,0.8,0,1.2,0c0.3,0,0.5,0.2,0.5,0.5c0,0.3-0.2,0.5-0.5,0.5C32.9,59,32.5,59,32.1,59z M28.3,58.8
		C28.2,58.8,28.2,58.8,28.3,58.8c-0.7-0.1-1.4-0.2-2.1-0.4c-0.3-0.1-0.4-0.3-0.4-0.6c0.1-0.3,0.3-0.4,0.6-0.4
		c0.6,0.1,1.3,0.3,1.9,0.4c0.3,0,0.5,0.3,0.4,0.6C28.7,58.6,28.5,58.8,28.3,58.8z M36.3,58.7c-0.2,0-0.5-0.2-0.5-0.4
		c0-0.3,0.1-0.5,0.4-0.6c0.7-0.1,1.3-0.2,1.9-0.4c0.3-0.1,0.5,0.1,0.6,0.4c0.1,0.3-0.1,0.5-0.4,0.6C37.7,58.4,37.1,58.6,36.3,58.7
		C36.4,58.7,36.3,58.7,36.3,58.7z M23.4,57.6c-0.1,0-0.1,0-0.2,0c-0.6-0.2-1.3-0.5-1.9-0.7c-0.3-0.1-0.4-0.4-0.3-0.7
		c0.1-0.3,0.4-0.4,0.7-0.3c0.6,0.3,1.2,0.5,1.8,0.7c0.3,0.1,0.4,0.4,0.3,0.6C23.8,57.5,23.6,57.6,23.4,57.6z M41.2,57.4
		c-0.2,0-0.4-0.1-0.5-0.3c-0.1-0.3,0-0.5,0.3-0.6c0.6-0.2,1.2-0.5,1.8-0.8c0.2-0.1,0.5,0,0.7,0.2c0.1,0.3,0,0.5-0.2,0.7
		c-0.6,0.3-1.3,0.5-1.9,0.8C41.3,57.4,41.2,57.4,41.2,57.4z M18.8,55.5c-0.1,0-0.2,0-0.2-0.1c-0.6-0.3-1.2-0.7-1.7-1.1
		c-0.2-0.2-0.3-0.5-0.1-0.7c0.2-0.2,0.5-0.3,0.7-0.1c0.5,0.4,1.1,0.7,1.7,1.1c0.2,0.1,0.3,0.4,0.2,0.7
		C19.1,55.4,18.9,55.5,18.8,55.5z M45.7,55.2c-0.2,0-0.3-0.1-0.4-0.2c-0.1-0.2-0.1-0.5,0.2-0.7c0.6-0.3,1.1-0.7,1.7-1.1
		c0.2-0.2,0.5-0.1,0.7,0.1s0.1,0.5-0.1,0.7c-0.6,0.4-1.1,0.8-1.7,1.1C45.9,55.2,45.8,55.2,45.7,55.2z M14.7,52.6
		c-0.1,0-0.2,0-0.3-0.1c-0.5-0.4-1-0.9-1.5-1.4c-0.2-0.2-0.2-0.5,0-0.7c0.2-0.2,0.5-0.2,0.7,0c0.5,0.5,1,0.9,1.4,1.4
		c0.2,0.2,0.2,0.5,0.1,0.7C14.9,52.5,14.8,52.6,14.7,52.6z M49.8,52.2c-0.1,0-0.3-0.1-0.4-0.2c-0.2-0.2-0.2-0.5,0-0.7
		c0.5-0.4,1-0.9,1.4-1.4c0.2-0.2,0.5-0.2,0.7,0c0.2,0.2,0.2,0.5,0,0.7c-0.5,0.5-1,1-1.5,1.4C50,52.2,49.9,52.2,49.8,52.2z
		 M11.2,48.9c-0.1,0-0.3-0.1-0.4-0.2c-0.4-0.5-0.8-1.1-1.2-1.7c-0.2-0.2-0.1-0.5,0.1-0.7c0.2-0.2,0.5-0.1,0.7,0.1
		c0.4,0.5,0.8,1.1,1.2,1.6c0.2,0.2,0.1,0.5-0.1,0.7C11.4,48.9,11.3,48.9,11.2,48.9z M53.2,48.5c-0.1,0-0.2,0-0.3-0.1
		c-0.2-0.2-0.3-0.5-0.1-0.7c0.4-0.5,0.8-1.1,1.1-1.6c0.2-0.2,0.5-0.3,0.7-0.2c0.2,0.2,0.3,0.5,0.2,0.7c-0.4,0.6-0.8,1.1-1.2,1.7
		C53.5,48.4,53.3,48.5,53.2,48.5z M8.4,44.7c-0.2,0-0.4-0.1-0.4-0.3c-0.3-0.6-0.6-1.2-0.9-1.9c-0.1-0.3,0-0.5,0.3-0.7
		c0.3-0.1,0.5,0,0.7,0.3c0.3,0.6,0.5,1.2,0.8,1.8c0.1,0.2,0,0.5-0.2,0.7C8.6,44.7,8.5,44.7,8.4,44.7z M55.8,44.2
		c-0.1,0-0.1,0-0.2-0.1c-0.2-0.1-0.3-0.4-0.2-0.7c0.3-0.6,0.6-1.2,0.8-1.8c0.1-0.3,0.4-0.4,0.6-0.3c0.3,0.1,0.4,0.4,0.3,0.6
		c-0.3,0.6-0.5,1.3-0.8,1.9C56.2,44.1,56,44.2,55.8,44.2z M6.6,40c-0.2,0-0.4-0.1-0.5-0.4c-0.2-0.7-0.4-1.3-0.5-2
		c-0.1-0.3,0.1-0.5,0.4-0.6c0.3-0.1,0.5,0.1,0.6,0.4c0.1,0.6,0.3,1.3,0.5,1.9C7.1,39.6,7,39.9,6.7,40C6.6,40,6.6,40,6.6,40z
		 M57.6,39.5c0,0-0.1,0-0.1,0c-0.3-0.1-0.4-0.3-0.4-0.6c0.2-0.6,0.3-1.3,0.4-1.9c0.1-0.3,0.3-0.4,0.6-0.4c0.3,0.1,0.4,0.3,0.4,0.6
		c-0.1,0.7-0.3,1.3-0.5,2C58,39.3,57.8,39.5,57.6,39.5z M5.6,35.1c-0.3,0-0.5-0.2-0.5-0.5C5,33.9,5,33.3,5,32.6
		c0-0.3,0.2-0.5,0.5-0.5c0.3,0,0.5,0.2,0.5,0.5c0,0.7,0.1,1.3,0.1,2C6.1,34.8,5.9,35,5.6,35.1C5.6,35.1,5.6,35.1,5.6,35.1z
		 M58.5,34.5C58.4,34.5,58.4,34.5,58.5,34.5c-0.3,0-0.5-0.3-0.5-0.5c0-0.7,0.1-1.3,0.1-2v-0.1c0-0.3,0.2-0.5,0.5-0.5
		s0.5,0.2,0.5,0.5V32c0,0.7,0,1.4-0.1,2.1C58.9,34.3,58.7,34.5,58.5,34.5z M5.6,30C5.6,30,5.6,30,5.6,30c-0.3,0-0.5-0.3-0.5-0.5
		c0.1-0.7,0.2-1.4,0.3-2c0-0.3,0.3-0.5,0.6-0.4c0.3,0,0.5,0.3,0.4,0.6c-0.1,0.6-0.2,1.3-0.3,2C6.1,29.8,5.8,30,5.6,30z M58.3,29.4
		c-0.3,0-0.5-0.2-0.5-0.4c-0.1-0.7-0.2-1.3-0.3-2c-0.1-0.3,0.1-0.5,0.4-0.6c0.3-0.1,0.5,0.1,0.6,0.4c0.1,0.7,0.2,1.4,0.3,2
		C58.9,29.1,58.7,29.3,58.3,29.4C58.4,29.4,58.4,29.4,58.3,29.4z M6.5,25.1c0,0-0.1,0-0.1,0C6.1,25,6,24.7,6,24.4
		c0.2-0.7,0.4-1.3,0.6-2c0.1-0.3,0.4-0.4,0.6-0.3c0.3,0.1,0.4,0.4,0.3,0.6c-0.2,0.6-0.4,1.3-0.6,1.9C6.9,24.9,6.7,25.1,6.5,25.1z
		 M57.3,24.4c-0.2,0-0.4-0.1-0.5-0.3c-0.2-0.6-0.4-1.3-0.7-1.9c-0.1-0.3,0-0.5,0.3-0.7c0.3-0.1,0.5,0,0.7,0.3
		c0.3,0.6,0.5,1.3,0.7,1.9c0.1,0.3-0.1,0.5-0.3,0.6C57.4,24.4,57.3,24.4,57.3,24.4z M8.4,20.4c-0.1,0-0.2,0-0.2-0.1
		c-0.2-0.1-0.3-0.4-0.2-0.7c0.3-0.6,0.7-1.2,1-1.8c0.1-0.2,0.5-0.3,0.7-0.2c0.2,0.1,0.3,0.5,0.2,0.7c-0.3,0.6-0.7,1.1-1,1.7
		C8.7,20.3,8.6,20.4,8.4,20.4z M55.3,19.8c-0.2,0-0.3-0.1-0.4-0.3c-0.3-0.6-0.7-1.1-1-1.7c-0.1-0.2-0.1-0.5,0.1-0.7
		c0.2-0.1,0.5-0.1,0.7,0.1c0.4,0.6,0.7,1.2,1.1,1.8c0.1,0.2,0,0.5-0.2,0.7C55.5,19.8,55.4,19.8,55.3,19.8z M11.1,16.1
		c-0.1,0-0.2,0-0.3-0.1c-0.2-0.2-0.3-0.5-0.1-0.7c0.4-0.5,0.9-1.1,1.3-1.6c0.2-0.2,0.5-0.2,0.7,0c0.2,0.2,0.2,0.5,0,0.7
		c-0.4,0.5-0.9,1-1.3,1.5C11.4,16.1,11.3,16.1,11.1,16.1z M52.5,15.6c-0.1,0-0.3-0.1-0.4-0.2c-0.4-0.5-0.9-1-1.3-1.5
		c-0.2-0.2-0.2-0.5,0-0.7c0.2-0.2,0.5-0.2,0.7,0c0.5,0.5,0.9,1,1.4,1.5c0.2,0.2,0.1,0.5-0.1,0.7C52.7,15.6,52.6,15.6,52.5,15.6z
		 M14.6,12.5c-0.1,0-0.3-0.1-0.4-0.2c-0.2-0.2-0.2-0.5,0-0.7c0.5-0.4,1.1-0.9,1.6-1.3c0.2-0.2,0.5-0.1,0.7,0.1
		c0.2,0.2,0.1,0.5-0.1,0.7c-0.5,0.4-1,0.8-1.5,1.2C14.8,12.5,14.7,12.5,14.6,12.5z M48.9,12.1c-0.1,0-0.2,0-0.3-0.1
		c-0.5-0.4-1-0.8-1.6-1.2c-0.2-0.2-0.3-0.5-0.1-0.7c0.2-0.2,0.5-0.3,0.7-0.1c0.6,0.4,1.1,0.8,1.6,1.3c0.2,0.2,0.2,0.5,0.1,0.7
		C49.2,12,49.1,12.1,48.9,12.1z M18.7,9.6c-0.2,0-0.3-0.1-0.4-0.2c-0.1-0.2-0.1-0.5,0.2-0.7c0.6-0.3,1.2-0.7,1.8-1
		c0.2-0.1,0.5,0,0.7,0.2c0.1,0.2,0,0.5-0.2,0.7c-0.6,0.3-1.2,0.6-1.7,0.9C18.8,9.5,18.8,9.6,18.7,9.6z M44.7,9.2
		c-0.1,0-0.2,0-0.2-0.1c-0.6-0.3-1.2-0.6-1.8-0.9c-0.3-0.1-0.4-0.4-0.2-0.7c0.1-0.3,0.4-0.4,0.7-0.2C43.8,7.7,44.4,8,45,8.3
		c0.2,0.1,0.3,0.4,0.2,0.7C45.1,9.1,44.9,9.2,44.7,9.2z M23.3,7.4c-0.2,0-0.4-0.1-0.5-0.3c-0.1-0.3,0-0.5,0.3-0.6
		c0.6-0.2,1.3-0.4,2-0.6c0.3-0.1,0.5,0.1,0.6,0.4c0.1,0.3-0.1,0.5-0.4,0.6C24.7,7,24,7.2,23.4,7.4C23.4,7.4,23.3,7.4,23.3,7.4z
		 M40.1,7.2c-0.1,0-0.1,0-0.2,0c-0.6-0.2-1.3-0.4-1.9-0.5c-0.3-0.1-0.4-0.3-0.4-0.6c0.1-0.3,0.3-0.4,0.6-0.4c0.7,0.2,1.3,0.3,2,0.6
		c0.3,0.1,0.4,0.4,0.3,0.6C40.5,7.1,40.3,7.2,40.1,7.2z M28.1,6.3c-0.2,0-0.5-0.2-0.5-0.4c0-0.3,0.1-0.5,0.4-0.6
		c0.7-0.1,1.4-0.2,2-0.2c0.3,0,0.5,0.2,0.5,0.5S30.5,6,30.2,6C29.5,6.1,28.9,6.2,28.1,6.3C28.2,6.2,28.2,6.3,28.1,6.3z M35.2,6.2
		C35.2,6.2,35.2,6.2,35.2,6.2c-0.7-0.1-1.4-0.1-2-0.2c-0.3,0-0.5-0.2-0.5-0.5c0-0.3,0.3-0.5,0.5-0.5c0.7,0,1.4,0.1,2,0.2
		c0.3,0,0.5,0.3,0.4,0.6C35.7,6,35.4,6.2,35.2,6.2z"/>
</g>
</svg>
