<?xml version="1.0" encoding="utf-8"?>
<!-- Generator: Adobe Illustrator 20.0.0, SVG Export Plug-In . SVG Version: 6.00 Build 0)  -->
<svg version="1.1" id="Isolation_Mode" xmlns="http://www.w3.org/2000/svg" xmlns:xlink="http://www.w3.org/1999/xlink" x="0px"
	 y="0px" viewBox="0 0 43.8 48" style="enable-background:new 0 0 43.8 48;" xml:space="preserve">
<style type="text/css">
	.st0{fill:#9A88C0;}
	.st1{fill:none;}
	.st2{fill:#F98C67;}
</style>
<path class="st0" d="M43.5,32c-0.3-0.9-1.1-1.6-2-2c-0.9-0.3-1.9-0.2-2.8,0.3l-8.1,4.8l-1.1,0.5h-5.8c-0.1,0-0.1,0-0.1-0.1
	c0,0,0-0.1,0-0.2c0,0,0-0.1,0.1-0.1l4.4-1.6c1.7-0.6,2.7-2.3,2.2-4c-0.2-0.9-0.8-1.6-1.6-2c-0.8-0.4-1.7-0.5-2.6-0.2L21.6,29
	l-12,0.8c-0.8,0.1-1.5,0.4-2.1,0.9L1,37.3c-1.3,1.3-1.4,3.2-0.3,4.5c0.3,0.3,1.5,1.5,3.4,3.3c1.1,1,2.1,2,2.6,2.5
	c0.2,0.2,0.3,0.2,0.5,0.2c0.2,0,0.4-0.1,0.5-0.2l3.6-3c0.8-0.6,1.7-1,2.7-1h12.3c0.4,0,0.9-0.1,1.3-0.3l5.8-2.5c0,0,0,0,0,0l0.3-0.2
	c0,0,0,0,0,0l8.2-4.9C43.4,35.1,44,33.4,43.5,32L43.5,32z M41.2,34.6L33,39.5l-0.2,0.1L27,42.1c-0.2,0.1-0.4,0.1-0.7,0.1H14.1
	c-1.3,0-2.6,0.5-3.7,1.3l-3,2.5c-0.6-0.5-1.3-1.3-2.1-2.1c-1.4-1.3-3.1-2.9-3.3-3.2c-0.6-0.7-0.5-1.7,0.2-2.4l6.5-6.5
	c0.3-0.3,0.7-0.5,1.1-0.5l12.1-0.8c0.1,0,0.1,0,0.2,0l4.7-1.6c0.2-0.1,0.4-0.1,0.5-0.1c0.3,0,0.5,0.1,0.8,0.2
	c0.4,0.2,0.7,0.6,0.8,1.1c0.2,0.9-0.3,1.8-1.2,2.1c0,0,0,0,0,0l-4.4,1.6c-0.4,0.2-0.8,0.5-1,0.9c-0.3,0.5-0.2,1.2,0.1,1.7
	c0.3,0.5,0.9,0.8,1.4,0.8h6c0.1,0,0.2,0,0.3-0.1l1.3-0.6c0,0,0.1,0,0.1,0l8.1-4.9c0.4-0.3,1-0.3,1.4-0.1c0.5,0.2,0.9,0.5,1,1
	C42.3,33.2,41.9,34.1,41.2,34.6L41.2,34.6z M41.2,34.6"/>
<rect x="0" class="st1" width="43.8" height="48"/>
<path class="st2" d="M27.2,23v1.8c0,0.4,0.3,0.8,0.8,0.8c0.4,0,0.8-0.3,0.8-0.8v-6c7.5-1,13.3-7.1,14-14.7c0-0.2-0.1-0.5-0.2-0.6
	c-0.2-0.2-0.4-0.2-0.6-0.2c-5.8,0.6-10.8,4.2-13.2,9.2V3.3c0-0.9,0.8-1.7,1.7-1.7c0.4,0,0.8-0.3,0.8-0.8c0-0.4-0.3-0.8-0.8-0.8
	c-1.8,0-3.3,1.5-3.3,3.3v2.9c-1.6-2.5-4.3-4.2-7.4-4.5c-0.2,0-0.5,0.1-0.6,0.2C19,2.1,19,2.3,19,2.6c0.4,4.5,3.9,8.1,8.3,8.9v5.3
	c-2.4-5-7.4-8.6-13.2-9.2c-0.2,0-0.5,0.1-0.6,0.2c-0.2,0.2-0.2,0.4-0.2,0.6C13.9,15.9,19.8,22,27.2,23L27.2,23z M20.7,3.4
	c3.2,0.7,5.7,3.2,6.4,6.4C23.9,9.1,21.4,6.6,20.7,3.4L20.7,3.4z M41.2,4.9c-0.9,5.8-5.2,10.4-10.7,11.9l6.4-6.4
	c0.3-0.3,0.3-0.8,0-1.1c-0.3-0.3-0.8-0.3-1.1,0l-6.6,6.6C30.6,10.3,35.3,5.9,41.2,4.9L41.2,4.9z M26.9,20.1l-6.6-6.6
	c-0.3-0.3-0.8-0.3-1.1,0c-0.3,0.3-0.3,0.8,0,1.1l6.4,6.4c-5.6-1.5-9.8-6.2-10.7-11.9C20.7,10.1,25.4,14.5,26.9,20.1L26.9,20.1z
	 M26.9,20.1"/>
</svg>
