<?xml version="1.0" encoding="utf-8"?>
<!-- Generator: Adobe Illustrator 20.0.0, SVG Export Plug-In . SVG Version: 6.00 Build 0)  -->
<svg version="1.1" id="Isolation_Mode" xmlns="http://www.w3.org/2000/svg" xmlns:xlink="http://www.w3.org/1999/xlink" x="0px"
	 y="0px" viewBox="0 0 48 35.6" style="enable-background:new 0 0 48 35.6;" xml:space="preserve">
<style type="text/css">
	.st0{fill:#9A88C0;}
	.st1{fill:#F98C67;}
</style>
<path class="st0" d="M47.2,8.9H36.5v-8c0-0.5-0.4-0.8-0.8-0.8H0.8C0.4,0,0,0.4,0,0.8v25.1c0,0.5,0.4,0.8,0.8,0.8h10.7v8
	c0,0.5,0.4,0.8,0.8,0.8h34.8c0.5,0,0.8-0.4,0.8-0.8V9.7C48,9.2,47.6,8.9,47.2,8.9L47.2,8.9z M46.3,13.8H13.2v-3.2h33.1V13.8z
	 M34.8,1.7v3.2H1.7V1.7H34.8z M1.7,25.1V6.6h33.1v2.3H12.4c-0.5,0-0.8,0.4-0.8,0.8v15.4H1.7z M13.2,15.4h10v18.5h-10V15.4z
	 M24.9,33.9V15.4h21.4v18.5H24.9z M24.9,33.9"/>
<path class="st0" d="M14.9,13c0.2,0,0.4-0.1,0.6-0.2c0.2-0.2,0.2-0.4,0.2-0.6c0-0.2-0.1-0.4-0.2-0.6c-0.2-0.2-0.4-0.2-0.6-0.2
	c-0.2,0-0.4,0.1-0.6,0.2c-0.2,0.2-0.2,0.4-0.2,0.6c0,0.2,0.1,0.4,0.2,0.6C14.5,12.9,14.7,13,14.9,13L14.9,13z M14.9,13"/>
<path class="st0" d="M17,13c0.2,0,0.4-0.1,0.6-0.2c0.2-0.2,0.2-0.4,0.2-0.6s-0.1-0.4-0.2-0.6c-0.2-0.2-0.4-0.2-0.6-0.2
	c-0.2,0-0.4,0.1-0.6,0.2c-0.2,0.2-0.2,0.4-0.2,0.6s0.1,0.4,0.2,0.6C16.5,12.9,16.8,13,17,13L17,13z M17,13"/>
<path class="st0" d="M19,13c0.2,0,0.4-0.1,0.6-0.2c0.2-0.2,0.2-0.4,0.2-0.6c0-0.2-0.1-0.4-0.2-0.6c-0.2-0.2-0.4-0.2-0.6-0.2
	c-0.2,0-0.4,0.1-0.6,0.2c-0.2,0.2-0.2,0.4-0.2,0.6s0.1,0.4,0.2,0.6C18.6,12.9,18.8,13,19,13L19,13z M19,13"/>
<path class="st1" d="M15.6,18.8h5.3c0.5,0,0.8-0.4,0.8-0.8c0-0.5-0.4-0.8-0.8-0.8h-5.3c-0.5,0-0.8,0.4-0.8,0.8
	C14.7,18.4,15.1,18.8,15.6,18.8L15.6,18.8z M15.6,18.8"/>
<path class="st1" d="M20.9,20.1h-5.3c-0.5,0-0.8,0.4-0.8,0.8c0,0.5,0.4,0.8,0.8,0.8h5.3c0.5,0,0.8-0.4,0.8-0.8
	C21.7,20.5,21.3,20.1,20.9,20.1L20.9,20.1z M20.9,20.1"/>
<path class="st1" d="M20.9,23.1h-5.3c-0.5,0-0.8,0.4-0.8,0.8c0,0.5,0.4,0.8,0.8,0.8h5.3c0.5,0,0.8-0.4,0.8-0.8
	C21.7,23.5,21.3,23.1,20.9,23.1L20.9,23.1z M20.9,23.1"/>
<path class="st0" d="M39.6,17.2H27.1c-0.5,0-0.8,0.4-0.8,0.8c0,0.5,0.4,0.8,0.8,0.8h12.5c0.5,0,0.8-0.4,0.8-0.8
	C40.4,17.5,40,17.2,39.6,17.2L39.6,17.2z M39.6,17.2"/>
<path class="st0" d="M39.6,20.1H27.1c-0.5,0-0.8,0.4-0.8,0.8c0,0.5,0.4,0.8,0.8,0.8h12.5c0.5,0,0.8-0.4,0.8-0.8
	C40.4,20.5,40,20.1,39.6,20.1L39.6,20.1z M39.6,20.1"/>
<path class="st0" d="M39.6,23.1H27.1c-0.5,0-0.8,0.4-0.8,0.8c0,0.5,0.4,0.8,0.8,0.8h12.5c0.5,0,0.8-0.4,0.8-0.8
	C40.4,23.5,40,23.1,39.6,23.1L39.6,23.1z M39.6,23.1"/>
<path class="st1" d="M3.4,4.1C3.6,4.1,3.8,4,4,3.9c0.2-0.2,0.2-0.4,0.2-0.6c0-0.2-0.1-0.4-0.2-0.6C3.8,2.5,3.6,2.5,3.4,2.5
	C3.2,2.5,3,2.5,2.8,2.7C2.6,2.9,2.6,3.1,2.6,3.3c0,0.2,0.1,0.4,0.2,0.6C3,4,3.2,4.1,3.4,4.1L3.4,4.1z M3.4,4.1"/>
<path class="st1" d="M5.4,4.1C5.7,4.1,5.9,4,6,3.9c0.2-0.2,0.2-0.4,0.2-0.6c0-0.2-0.1-0.4-0.2-0.6C5.9,2.5,5.7,2.5,5.4,2.5
	C5.2,2.5,5,2.5,4.9,2.7C4.7,2.9,4.6,3.1,4.6,3.3c0,0.2,0.1,0.4,0.2,0.6C5,4,5.2,4.1,5.4,4.1L5.4,4.1z M5.4,4.1"/>
<path class="st1" d="M7.5,4.1c0.2,0,0.4-0.1,0.6-0.2c0.2-0.2,0.2-0.4,0.2-0.6c0-0.2-0.1-0.4-0.2-0.6C7.9,2.5,7.7,2.5,7.5,2.5
	c-0.2,0-0.4,0.1-0.6,0.2C6.8,2.9,6.7,3.1,6.7,3.3c0,0.2,0.1,0.4,0.2,0.6C7.1,4,7.3,4.1,7.5,4.1L7.5,4.1z M7.5,4.1"/>
<path class="st0" d="M9.3,8.3H4c-0.5,0-0.8,0.4-0.8,0.8c0,0.5,0.4,0.8,0.8,0.8h5.3c0.5,0,0.8-0.4,0.8-0.8C10.2,8.7,9.8,8.3,9.3,8.3
	L9.3,8.3z M9.3,8.3"/>
<path class="st0" d="M9.3,11.3H4c-0.5,0-0.8,0.4-0.8,0.8c0,0.5,0.4,0.8,0.8,0.8h5.3c0.5,0,0.8-0.4,0.8-0.8
	C10.2,11.6,9.8,11.3,9.3,11.3L9.3,11.3z M9.3,11.3"/>
<path class="st0" d="M9.3,14.3H4c-0.5,0-0.8,0.4-0.8,0.8c0,0.5,0.4,0.8,0.8,0.8h5.3c0.5,0,0.8-0.4,0.8-0.8
	C10.2,14.6,9.8,14.3,9.3,14.3L9.3,14.3z M9.3,14.3"/>
</svg>
