<?xml version="1.0" encoding="utf-8"?>
<!-- Generator: Adobe Illustrator 20.0.0, SVG Export Plug-In . SVG Version: 6.00 Build 0)  -->
<svg version="1.1" id="Isolation_Mode" xmlns="http://www.w3.org/2000/svg" xmlns:xlink="http://www.w3.org/1999/xlink" x="0px"
	 y="0px" viewBox="0 0 48 42.2" style="enable-background:new 0 0 48 42.2;" xml:space="preserve">
<style type="text/css">
	.st0{fill:#9A88C0;}
	.st1{fill:#F98C67;}
</style>
<path class="st0" d="M42.2,7.5L42.2,7.5l-0.1-0.9c0-0.9-0.7-1.6-1.6-1.6h-2.5c-0.9,0-1.6,0.7-1.6,1.6v0.9h-3.4V4.1
	C33.1,1.8,31.2,0,29,0H19c-2.3,0-4.1,1.8-4.1,4.1v3.4h-3.4V6.6c0-0.9-0.7-1.6-1.6-1.6H7.4C6.5,5,5.8,5.7,5.8,6.6v0.9H5.8
	C2.6,7.5,0,10,0,13.2v23.2c0,3.2,2.6,5.8,5.8,5.8h36.5c3.2,0,5.8-2.6,5.8-5.8V13.2C48,10,45.4,7.5,42.2,7.5L42.2,7.5z M38,6.6
	C38,6.6,38.1,6.5,38,6.6l2.5-0.1c0,0,0.1,0,0.1,0.1v0.9H38V6.6z M16.5,4.1c0-1.4,1.1-2.5,2.5-2.5h10c1.4,0,2.5,1.1,2.5,2.5v3.4h-1.8
	V4.1c0-0.4-0.3-0.8-0.8-0.8H19c-0.4,0-0.8,0.3-0.8,0.8v3.4h-1.8V4.1z M19.8,7.5V4.9h8.4v2.6H19.8z M7.4,6.6C7.4,6.6,7.4,6.5,7.4,6.6
	l2.5-0.1c0,0,0.1,0,0.1,0.1v0.9H7.4V6.6z M46.4,36.4c0,2.3-1.9,4.2-4.2,4.2H5.8c-2.3,0-4.2-1.9-4.2-4.2V13.2C1.6,10.9,3.4,9,5.8,9
	h36.5c2.3,0,4.2,1.9,4.2,4.2V36.4z M46.4,36.4"/>
<path class="st1" d="M41.4,24.1H6.6c-0.4,0-0.8,0.3-0.8,0.8c0,0.4,0.3,0.8,0.8,0.8h34.8c0.4,0,0.8-0.3,0.8-0.8
	C42.2,24.4,41.8,24.1,41.4,24.1L41.4,24.1z M41.4,24.1"/>
<path class="st1" d="M41.4,15.8H6.6c-0.4,0-0.8,0.3-0.8,0.8c0,0.4,0.3,0.8,0.8,0.8h34.8c0.4,0,0.8-0.3,0.8-0.8
	C42.2,16.1,41.8,15.8,41.4,15.8L41.4,15.8z M41.4,15.8"/>
<path class="st1" d="M41.4,32.3H6.6c-0.4,0-0.8,0.3-0.8,0.8c0,0.4,0.3,0.8,0.8,0.8h34.8c0.4,0,0.8-0.3,0.8-0.8
	C42.2,32.7,41.8,32.3,41.4,32.3L41.4,32.3z M41.4,32.3"/>
</svg>
