<?xml version="1.0" encoding="utf-8"?>
<!-- Generator: Adobe Illustrator 20.0.0, SVG Export Plug-In . SVG Version: 6.00 Build 0)  -->
<svg version="1.1" id="Isolation_Mode" xmlns="http://www.w3.org/2000/svg" xmlns:xlink="http://www.w3.org/1999/xlink" x="0px"
	 y="0px" viewBox="0 0 52 52" style="enable-background:new 0 0 52 52;" xml:space="preserve">
<style type="text/css">
	.st0{fill:#F98C67;}
	.st1{fill:#9A88C0;}
	.st2{fill-rule:evenodd;clip-rule:evenodd;}
</style>
<g>
	<path class="st0" d="M25.9,17.7c1.9,0,3.1,1,3.1,2.8c0,3.2-5.7,4-5.7,7.9c0,1,0.7,2.2,2.1,2.2c2.1,0,1.9-1.6,2.7-2.7
		c1-1.5,5.9-3.1,5.9-7.3c0-4.6-4.1-6.5-8.2-6.5c-3.9,0-7.6,2.8-7.6,6c0,1.3,1,2,2.1,2C23.3,22,21.7,17.7,25.9,17.7L25.9,17.7z
		 M25.9,17.7"/>
	<path class="st0" d="M28.2,35.3c0-1.5-1.2-2.7-2.6-2.7s-2.7,1.2-2.7,2.7s1.2,2.6,2.7,2.6S28.2,36.8,28.2,35.3L28.2,35.3z
		 M28.2,35.3"/>
</g>
<path class="st1" d="M26,0C19.1,0,12.5,2.7,7.6,7.6C2.7,12.5,0,19.1,0,26c0,6.9,2.7,13.5,7.6,18.4C12.5,49.3,19.1,52,26,52
	c6.9,0,13.5-2.7,18.4-7.6C49.3,39.5,52,32.9,52,26c0-6.9-2.7-13.5-7.6-18.4C39.5,2.7,32.9,0,26,0L26,0z M43.2,43.2
	c-4.6,4.6-10.7,7.1-17.2,7.1c-6.5,0-12.6-2.5-17.2-7.1C4.2,38.6,1.6,32.5,1.6,26c0-6.5,2.5-12.6,7.1-17.2C13.4,4.2,19.5,1.6,26,1.6
	c6.5,0,12.6,2.5,17.2,7.1c4.6,4.6,7.1,10.7,7.1,17.2C50.4,32.5,47.8,38.6,43.2,43.2L43.2,43.2z M43.2,43.2"/>
<path class="st2" d="M20.4,15.5c-0.2,0.2-0.3,0.3-0.4,0.4C20.2,15.7,20.4,15.5,20.4,15.5L20.4,15.5z M20.4,15.5"/>
</svg>
