<?xml version="1.0" encoding="utf-8"?>
<!-- Generator: Adobe Illustrator 20.0.0, SVG Export Plug-In . SVG Version: 6.00 Build 0)  -->
<svg version="1.1" id="Isolation_Mode" xmlns="http://www.w3.org/2000/svg" xmlns:xlink="http://www.w3.org/1999/xlink" x="0px"
	 y="0px" viewBox="0 0 33.5 52" style="enable-background:new 0 0 33.5 52;" xml:space="preserve">
<style type="text/css">
	.st0{fill:#9A88C0;}
	.st1{fill:#F98C67;}
</style>
<path class="st0" d="M26,37c-4.1,0-7.5,3.4-7.5,7.5S21.9,52,26,52s7.5-3.4,7.5-7.5S30.1,37,26,37L26,37z M26,49.9
	c-3,0-5.4-2.4-5.4-5.4c0-3,2.4-5.4,5.4-5.4s5.4,2.4,5.4,5.4C31.4,47.5,29,49.9,26,49.9L26,49.9z M26,49.9"/>
<path class="st0" d="M13.6,19.3c0.3,0,0.5-0.1,0.7-0.3l6.3-6.3C22,14.1,23.9,15,26,15c4.1,0,7.5-3.4,7.5-7.5C33.5,3.4,30.1,0,26,0
	s-7.5,3.4-7.5,7.5c0,1.3,0.3,2.5,0.9,3.5l-6.5,6.5c-0.4,0.4-0.4,1.1,0,1.5C13,19.2,13.3,19.3,13.6,19.3L13.6,19.3z M26,2.1
	c3,0,5.4,2.4,5.4,5.4c0,3-2.4,5.4-5.4,5.4s-5.4-2.4-5.4-5.4C20.6,4.5,23,2.1,26,2.1L26,2.1z M26,2.1"/>
<path class="st1" d="M18.6,37.9l-6.2-6.2c1.6-1.4,2.6-3.4,2.6-5.7c0-4.1-3.4-7.5-7.5-7.5C3.4,18.5,0,21.9,0,26
	c0,4.1,3.4,7.5,7.5,7.5c1.1,0,2.1-0.2,3-0.6l6.6,6.6c0.2,0.2,0.5,0.3,0.7,0.3c0.3,0,0.5-0.1,0.7-0.3C19,39,19,38.3,18.6,37.9
	L18.6,37.9z M2.1,26c0-3,2.4-5.4,5.4-5.4s5.4,2.4,5.4,5.4s-2.4,5.4-5.4,5.4C4.5,31.4,2.1,29,2.1,26L2.1,26z M2.1,26"/>
</svg>
