<?xml version="1.0" encoding="utf-8"?>
<!-- Generator: Adobe Illustrator 20.0.0, SVG Export Plug-In . SVG Version: 6.00 Build 0)  -->
<svg version="1.1" id="Isolation_Mode" xmlns="http://www.w3.org/2000/svg" xmlns:xlink="http://www.w3.org/1999/xlink" x="0px"
	 y="0px" viewBox="0 0 42.2 48" style="enable-background:new 0 0 42.2 48;" xml:space="preserve">
<style type="text/css">
	.st0{fill:#F98C67;}
	.st1{fill:#9A88C0;}
</style>
<path class="st0" d="M26.5,13.2h1c0,0.1,0.1,0.2,0.1,0.3l-1.4,1.4c-0.3,0.3-0.3,0.8,0,1.1c0.2,0.2,0.4,0.2,0.5,0.2
	c0.2,0,0.4-0.1,0.5-0.2l1.4-1.4c0.3,0.2,0.7,0.3,1.1,0.3c1.1,0,2-0.7,2.3-1.7h3.5c0.4,0,0.8-0.3,0.8-0.8c0-0.4-0.3-0.8-0.8-0.8h-3.5
	c0-0.1-0.1-0.2-0.1-0.3l4.2-4.2c0.3-0.3,0.3-0.8,0-1.1c-0.3-0.3-0.8-0.3-1.1,0l-4.2,4.2C30.6,10,30.2,10,29.8,10
	c-1.1,0-2,0.7-2.3,1.7h-1c-0.4,0-0.8,0.3-0.8,0.8C25.7,12.8,26.1,13.2,26.5,13.2L26.5,13.2z M29.8,11.5c0.5,0,0.9,0.4,0.9,0.9
	c0,0.5-0.4,0.9-0.9,0.9c-0.5,0-0.9-0.4-0.9-0.9C28.9,11.9,29.3,11.5,29.8,11.5L29.8,11.5z M29.8,11.5"/>
<path class="st1" d="M25.6,25.7l0.1-1.6c1.3,0.5,2.7,0.7,4.1,0.7c6.8,0,12.4-5.6,12.4-12.4S36.6,0,29.8,0c-6.6,0-12,5.1-12.4,11.6
	h-3.8c-1.8,0-3.5,0.7-4.8,2.1C7.5,15,6.9,16.8,7,18.6l0.4,7.1c0,3.1,1.3,5.8,3.3,7.6v1.2l-1.4,2L3,38.3c-1.8,0.5-3,2.1-3,4v3.3
	C0,46.9,1.1,48,2.4,48h28.2c1.3,0,2.4-1.1,2.4-2.4v-3.3c0-1.8-1.2-3.5-3-4l-6.4-1.7l-1.4-2v-1.2C24.3,31.5,25.6,28.8,25.6,25.7
	L25.6,25.7z M18.7,40L18.7,40L17.7,39l3.7-3l0.9,1.3L19.8,41c0,0,0,0,0,0c0,0,0,0,0,0L18.7,40z M14.3,40L13.4,41c0,0,0,0,0,0
	c0,0,0,0,0,0l-2.5-3.7l0.9-1.3l3.7,3L14.3,40C14.3,40,14.3,40,14.3,40L14.3,40z M16.5,37.9l-4.1-3.5c1.2,0.7,2.6,1.1,4.1,1.1
	c1.5,0,2.9-0.4,4.1-1.1L16.5,37.9z M16.5,43.9c0.1,0,0.1,0,0.2,0l0.5,2.6h-1.5l0.5-2.6C16.4,43.8,16.5,43.9,16.5,43.9L16.5,43.9z
	 M17.4,41.4c0,0.5-0.4,0.9-0.9,0.9c-0.5,0-0.9-0.4-0.9-0.9v-0.5l0.9-0.9l0.9,0.9V41.4z M29,1.6v1.7C29,3.7,29.4,4,29.8,4
	c0.4,0,0.8-0.3,0.8-0.8V1.6c5.4,0.4,9.6,4.7,10,10c0,0,0,0,0,0h-1.7c-0.4,0-0.8,0.3-0.8,0.8c0,0.4,0.3,0.8,0.8,0.8h1.7c0,0,0,0,0,0
	c-0.4,5.4-4.7,9.6-10,10v-1.7c0-0.4-0.3-0.8-0.8-0.8c-0.4,0-0.8,0.3-0.8,0.8v1.7c-1.1-0.1-2.2-0.3-3.2-0.7l0.2-3.9
	c0.1-1.8-0.5-3.6-1.8-4.9c-1.3-1.3-3-2.1-4.8-2.1H19C19.4,6.3,23.7,2,29,1.6L29,1.6z M9.9,14.8c1-1,2.3-1.6,3.7-1.6h5.9
	c1.4,0,2.7,0.6,3.7,1.6c1,1,1.4,2.4,1.4,3.8l-0.1,2.3c-0.7-1.3-1.3-2.2-1.4-2.3c-0.2-0.3-0.6-0.4-0.9-0.2
	c-3.9,1.6-11.2,1.6-11.3,1.6c-0.2,0-0.3,0.1-0.5,0.2c-0.1,0-0.8,0.6-1.5,1.7l-0.2-3.3C8.5,17.1,9,15.8,9.9,14.8L9.9,14.8z M9,25.7
	c0.2-2.3,1.5-3.8,2-4.2c1.4,0,7.2-0.2,11-1.5c0.6,1,2,3.3,2,5.7c0,4.6-3.4,8.3-7.5,8.3C12.4,34,9,30.3,9,25.7L9,25.7z M1.6,45.6
	v-3.3c0-1.1,0.8-2.2,1.9-2.5l6.1-1.7l2.4,3.7c0.3,0.4,0.7,0.7,1.2,0.7c0.1,0,0.1,0,0.2,0c0.3,0,0.6-0.1,0.9-0.3
	c0.1,0.4,0.4,0.7,0.6,0.9l-0.7,3.2H7.4v-2.5c0-0.4-0.3-0.8-0.8-0.8c-0.4,0-0.8,0.3-0.8,0.8v2.5H2.4C2,46.4,1.6,46,1.6,45.6L1.6,45.6
	z M31.5,42.3v3.3c0,0.5-0.4,0.9-0.9,0.9h-3.4v-2.5c0-0.4-0.3-0.8-0.8-0.8c-0.4,0-0.8,0.3-0.8,0.8v2.5h-6.9l-0.7-3.2
	c0.3-0.3,0.5-0.6,0.6-0.9c0.3,0.2,0.6,0.3,0.9,0.3c0.1,0,0.1,0,0.2,0c0.5,0,0.9-0.3,1.2-0.7l2.4-3.7l6.1,1.7
	C30.7,40.1,31.5,41.2,31.5,42.3L31.5,42.3z M31.5,42.3"/>
</svg>
