<?xml version="1.0" encoding="utf-8"?>
<!-- Generator: Adobe Illustrator 20.0.0, SVG Export Plug-In . SVG Version: 6.00 Build 0)  -->
<svg version="1.1" id="Isolation_Mode" xmlns="http://www.w3.org/2000/svg" xmlns:xlink="http://www.w3.org/1999/xlink" x="0px"
	 y="0px" viewBox="0 0 52 52" style="enable-background:new 0 0 52 52;" xml:space="preserve">
<style type="text/css">
	.st0{fill:#9A88C0;}
	.st1{fill:#F98C67;}
</style>
<path class="st0" d="M49.6,21.2h-2.2c-0.6-2.4-1.5-4.8-2.8-6.9l1.6-1.6c0.9-0.9,0.9-2.5,0-3.4l-3.5-3.5c-0.5-0.5-1.1-0.7-1.7-0.7
	c-0.6,0-1.2,0.2-1.7,0.7l-1.6,1.6c-2.1-1.3-4.4-2.3-6.9-2.8V2.4c0-1.3-1.1-2.4-2.4-2.4h-4.9c-1.3,0-2.4,1.1-2.4,2.4v2.2
	c-2.4,0.6-4.8,1.5-6.9,2.8l-1.6-1.6c-0.5-0.5-1.1-0.7-1.7-0.7c-0.6,0-1.2,0.2-1.7,0.7L5.9,9.3c-0.9,0.9-0.9,2.4,0,3.4l1.6,1.6
	c-1.3,2.1-2.3,4.4-2.8,6.9H2.4c-1.3,0-2.4,1.1-2.4,2.4v4.9c0,1.3,1.1,2.4,2.4,2.4h2.2c0.6,2.4,1.5,4.8,2.8,6.9l-1.6,1.6
	c-0.5,0.5-0.7,1.1-0.7,1.7c0,0.6,0.2,1.2,0.7,1.7l3.5,3.5c0.5,0.5,1.1,0.7,1.7,0.7c0.6,0,1.2-0.2,1.7-0.7l1.6-1.6
	c2.1,1.3,4.4,2.3,6.9,2.8v2.2c0,1.3,1.1,2.4,2.4,2.4h4.9c1.3,0,2.4-1.1,2.4-2.4v-2.2c2.4-0.6,4.8-1.5,6.9-2.8l1.6,1.6
	c0.5,0.5,1.1,0.7,1.7,0.7c0.6,0,1.2-0.2,1.7-0.7l3.5-3.5c0.5-0.5,0.7-1.1,0.7-1.7c0-0.6-0.2-1.2-0.7-1.7l-1.6-1.6
	c1.3-2.1,2.3-4.4,2.8-6.9h2.2c1.3,0,2.4-1.1,2.4-2.4v-4.9C52,22.2,50.9,21.2,49.6,21.2L49.6,21.2z M50.5,28.4c0,0.5-0.4,0.9-0.9,0.9
	h-2.8c-0.4,0-0.7,0.3-0.7,0.6c-0.5,2.7-1.6,5.2-3.1,7.5c-0.2,0.3-0.2,0.7,0.1,1l2,2c0.2,0.2,0.3,0.4,0.3,0.6c0,0.2-0.1,0.4-0.3,0.6
	L41.6,45c-0.2,0.2-0.4,0.3-0.6,0.3c-0.2,0-0.4-0.1-0.6-0.3l-2-2c-0.3-0.3-0.7-0.3-1-0.1c-2.3,1.5-4.8,2.6-7.5,3.1
	c-0.4,0.1-0.6,0.4-0.6,0.7v2.8c0,0.5-0.4,0.9-0.9,0.9h-4.9c-0.5,0-0.9-0.4-0.9-0.9v-2.8c0-0.4-0.3-0.7-0.6-0.7
	c-2.7-0.5-5.2-1.6-7.5-3.1c-0.1-0.1-0.3-0.1-0.4-0.1c-0.2,0-0.4,0.1-0.5,0.2l-2,2c-0.2,0.2-0.4,0.3-0.6,0.3c-0.2,0-0.4-0.1-0.6-0.3
	L7,41.6c-0.2-0.2-0.3-0.4-0.3-0.6c0-0.2,0.1-0.4,0.3-0.6l2-2c0.3-0.3,0.3-0.7,0.1-1c-1.5-2.3-2.6-4.8-3.1-7.5
	c-0.1-0.4-0.4-0.6-0.7-0.6H2.4c-0.5,0-0.9-0.4-0.9-0.9v-4.9c0-0.5,0.4-0.9,0.9-0.9h2.8c0.4,0,0.7-0.3,0.7-0.6
	c0.5-2.7,1.6-5.2,3.1-7.5c0.2-0.3,0.2-0.7-0.1-1l-2-2c-0.3-0.3-0.3-0.9,0-1.2L10.4,7c0.2-0.2,0.4-0.3,0.6-0.3c0.2,0,0.4,0.1,0.6,0.3
	l2,2c0.3,0.3,0.7,0.3,1,0.1c2.3-1.5,4.8-2.6,7.5-3.1c0.4-0.1,0.6-0.4,0.6-0.7V2.4c0-0.5,0.4-0.9,0.9-0.9h4.9c0.5,0,0.9,0.4,0.9,0.9
	v2.8c0,0.4,0.3,0.7,0.6,0.7c2.7,0.5,5.2,1.6,7.5,3.1c0.3,0.2,0.7,0.2,1-0.1l2-2c0.2-0.2,0.4-0.3,0.6-0.3c0.2,0,0.4,0.1,0.6,0.3
	l3.5,3.5c0.3,0.3,0.3,0.9,0,1.2l-2,2c-0.3,0.3-0.3,0.7-0.1,1c1.5,2.3,2.6,4.8,3.1,7.5c0.1,0.4,0.4,0.6,0.7,0.6h2.8
	c0.5,0,0.9,0.4,0.9,0.9V28.4z M50.5,28.4"/>
<path class="st1" d="M12.1,26c0-7.7,6.2-13.9,13.9-13.9c1.9,0,3.7,0.4,5.4,1.1c0.4,0.2,0.8,0,1-0.4c0.2-0.4,0-0.8-0.4-1
	c-1.9-0.8-3.9-1.2-6-1.2c-8.5,0-15.4,6.9-15.4,15.4c0,3.5,1.2,7,3.4,9.7c0.2,0.2,0.4,0.3,0.6,0.3c0.2,0,0.3-0.1,0.5-0.2
	c0.3-0.3,0.4-0.7,0.1-1.1C13.2,32.3,12.1,29.2,12.1,26L12.1,26z M12.1,26"/>
<path class="st1" d="M39.2,19.6c-0.4,0.2-0.6,0.6-0.4,1c0.7,1.7,1.1,3.5,1.1,5.4c0,7.7-6.2,13.9-13.9,13.9c-3.2,0-6.3-1.1-8.7-3.1
	c-0.3-0.3-0.8-0.2-1.1,0.1c-0.3,0.3-0.2,0.8,0.1,1.1c2.7,2.2,6.2,3.4,9.7,3.4c8.5,0,15.4-6.9,15.4-15.4c0-2.1-0.4-4.1-1.2-6
	C40,19.6,39.6,19.4,39.2,19.6L39.2,19.6z M39.2,19.6"/>
<path class="st1" d="M34.7,15.2c0.8,0.6,1.5,1.3,2.1,2.1c0.2,0.2,0.4,0.3,0.6,0.3c0.2,0,0.3-0.1,0.5-0.2c0.3-0.3,0.4-0.7,0.1-1.1
	c-0.7-0.8-1.5-1.6-2.3-2.3c-0.3-0.3-0.8-0.2-1.1,0.1C34.4,14.5,34.4,14.9,34.7,15.2L34.7,15.2z M34.7,15.2"/>
<path class="st0" d="M26,13.8c-6.7,0-12.2,5.5-12.2,12.2S19.3,38.2,26,38.2S38.2,32.7,38.2,26S32.7,13.8,26,13.8L26,13.8z M26,36.6
	c-5.9,0-10.6-4.8-10.6-10.6S20.1,15.4,26,15.4S36.6,20.1,36.6,26S31.9,36.6,26,36.6L26,36.6z M26,36.6"/>
</svg>
