<?xml version="1.0" encoding="utf-8"?>
<!-- Generator: Adobe Illustrator 20.0.0, SVG Export Plug-In . SVG Version: 6.00 Build 0)  -->
<svg version="1.1" id="Isolation_Mode" xmlns="http://www.w3.org/2000/svg" xmlns:xlink="http://www.w3.org/1999/xlink" x="0px"
	 y="0px" viewBox="0 0 37.5 51.9" style="enable-background:new 0 0 37.5 51.9;" xml:space="preserve">
<style type="text/css">
	.st0{fill:#9A88C0;}
	.st1{fill:none;}
	.st2{fill:#F98C67;}
</style>
<path class="st0" d="M34,3.6h-6.5c-0.4-1-1.3-1.8-2.5-1.8h-2.7C21.4,0.7,20.1,0,18.7,0c-1.4,0-2.7,0.7-3.5,1.8h-2.7
	c-1.2,0-2.1,0.8-2.5,1.8H3.5C1.6,3.6,0,5.2,0,7.1v41.2c0,1.9,1.6,3.5,3.5,3.5H34c1.9,0,3.5-1.6,3.5-3.5V7.1
	C37.5,5.2,35.9,3.6,34,3.6L34,3.6z M10,8.8c0.4,1,1.3,1.8,2.5,1.8H25c1.2,0,2.1-0.8,2.5-1.8h4.7v37.7h-27V8.8H10z M12.5,3.5h3.2
	c0.3,0,0.6-0.2,0.7-0.4c0.5-0.9,1.4-1.4,2.4-1.4c1,0,1.9,0.5,2.4,1.4c0.2,0.3,0.4,0.4,0.7,0.4H25c0.5,0,1,0.4,1,1V8c0,0,0,0,0,0v0
	c0,0.5-0.4,1-1,1H12.5c-0.5,0-1-0.4-1-0.9c0,0,0,0,0,0c0,0,0,0,0,0V4.4C11.5,3.9,12,3.5,12.5,3.5L12.5,3.5z M35.8,48.3
	c0,1-0.8,1.8-1.8,1.8H3.5c-1,0-1.8-0.8-1.8-1.8V7.1c0-1,0.8-1.8,1.8-1.8h6.3v1.9H4.4C4,7.2,3.6,7.5,3.6,8v39.4
	c0,0.5,0.4,0.8,0.8,0.8h28.6c0.5,0,0.8-0.4,0.8-0.8V8c0-0.5-0.4-0.8-0.8-0.8h-5.4V5.3H34c1,0,1.8,0.8,1.8,1.8V48.3z M35.8,48.3"/>
<rect y="-0.1" class="st1" width="37.5" height="52"/>
<path class="st2" d="M18.7,7c0.5,0,0.8-0.4,0.8-0.8V4.4c0-0.5-0.4-0.8-0.8-0.8c-0.5,0-0.8,0.4-0.8,0.8v1.8C17.9,6.7,18.3,7,18.7,7
	L18.7,7z M18.7,7"/>
<path class="st2" d="M19.6,18.7H25c0.5,0,0.8-0.4,0.8-0.8c0-0.5-0.4-0.8-0.8-0.8h-5.4c-0.5,0-0.8,0.4-0.8,0.8
	C18.8,18.3,19.2,18.7,19.6,18.7L19.6,18.7z M19.6,18.7"/>
<path class="st2" d="M19.6,22.3h9c0.5,0,0.8-0.4,0.8-0.8c0-0.5-0.4-0.8-0.8-0.8h-9c-0.5,0-0.8,0.4-0.8,0.8
	C18.8,21.9,19.2,22.3,19.6,22.3L19.6,22.3z M19.6,22.3"/>
<path class="st0" d="M11,22c0.2,0.2,0.4,0.2,0.6,0.2c0.2,0,0.4-0.1,0.6-0.2l4.5-4.5c0.3-0.3,0.3-0.9,0-1.2c-0.3-0.3-0.9-0.3-1.2,0
	l-3.9,3.9l-2.1-2.1c-0.3-0.3-0.9-0.3-1.2,0C8,18.5,8,19,8.3,19.3L11,22z M11,22"/>
<path class="st0" d="M19.6,27.6H25c0.5,0,0.8-0.4,0.8-0.8c0-0.5-0.4-0.8-0.8-0.8h-5.4c-0.5,0-0.8,0.4-0.8,0.8
	C18.8,27.3,19.2,27.6,19.6,27.6L19.6,27.6z M19.6,27.6"/>
<path class="st0" d="M19.6,31.2h9c0.5,0,0.8-0.4,0.8-0.8c0-0.5-0.4-0.8-0.8-0.8h-9c-0.5,0-0.8,0.4-0.8,0.8
	C18.8,30.8,19.2,31.2,19.6,31.2L19.6,31.2z M19.6,31.2"/>
<path class="st2" d="M11,31c0.2,0.2,0.4,0.2,0.6,0.2c0.2,0,0.4-0.1,0.6-0.2l4.5-4.5c0.3-0.3,0.3-0.9,0-1.2s-0.9-0.3-1.2,0l-3.9,3.9
	l-2.1-2.1c-0.3-0.3-0.9-0.3-1.2,0C8,27.4,8,28,8.3,28.3L11,31z M11,31"/>
<path class="st2" d="M19.6,36.6H25c0.5,0,0.8-0.4,0.8-0.8c0-0.5-0.4-0.8-0.8-0.8h-5.4c-0.5,0-0.8,0.4-0.8,0.8
	C18.8,36.2,19.2,36.6,19.6,36.6L19.6,36.6z M19.6,36.6"/>
<path class="st2" d="M19.6,40.2h9c0.5,0,0.8-0.4,0.8-0.8c0-0.5-0.4-0.8-0.8-0.8h-9c-0.5,0-0.8,0.4-0.8,0.8
	C18.8,39.8,19.2,40.2,19.6,40.2L19.6,40.2z M19.6,40.2"/>
<path class="st0" d="M11,39.9c0.2,0.2,0.4,0.2,0.6,0.2c0.2,0,0.4-0.1,0.6-0.2l4.5-4.5c0.3-0.3,0.3-0.9,0-1.2c-0.3-0.3-0.9-0.3-1.2,0
	l-3.9,3.9l-2.1-2.1c-0.3-0.3-0.9-0.3-1.2,0c-0.3,0.3-0.3,0.9,0,1.2L11,39.9z M11,39.9"/>
</svg>
