<svg id="Layer_1" data-name="Layer 1" xmlns="http://www.w3.org/2000/svg" viewBox="0 0 42.4 47.2"><defs><style>.cls-1{fill:#f98c67;}.cls-2{fill:#9a88c0;}</style></defs><title>analyze</title><path class="cls-1" d="M51.76,46a.8.8,0,0,0-.95.63A8.77,8.77,0,0,1,42.2,54a9.23,9.23,0,0,1-8.76-6.4H37.2V46H30.8v6.4h1.6V49.32a10.83,10.83,0,0,0,9.8,6.28A10.34,10.34,0,0,0,52.39,47a.8.8,0,0,0-.62-.94Zm0,0" transform="translate(-10.8 -8.4)"/><path class="cls-1" d="M51.6,36.4v3.45A10.5,10.5,0,0,0,42.2,34a11,11,0,0,0-10.57,7.77.8.8,0,1,0,1.54.45,9.51,9.51,0,0,1,9-6.62,9,9,0,0,1,8.27,5.6H46.8v1.6h6.4V36.4Zm0,0" transform="translate(-10.8 -8.4)"/><path class="cls-1" d="M16.27,22.8h10.4a.8.8,0,1,0,0-1.6H16.27a.8.8,0,0,0,0,1.6Zm0,0" transform="translate(-10.8 -8.4)"/><path class="cls-2" d="M25.07,46.8a.8.8,0,1,0,0-1.6h-8.8a.8.8,0,0,0,0,1.6Zm0,0" transform="translate(-10.8 -8.4)"/><path class="cls-2" d="M39.47,26H16.27a.8.8,0,0,0,0,1.6h23.2a.8.8,0,0,0,0-1.6Zm0,0" transform="translate(-10.8 -8.4)"/><path class="cls-2" d="M29.87,35.6H16.27a.8.8,0,0,0,0,1.6h13.6a.8.8,0,0,0,0-1.6Zm0,0" transform="translate(-10.8 -8.4)"/><path class="cls-1" d="M27.47,40.4H16.27a.8.8,0,0,0,0,1.6h11.2a.8.8,0,0,0,0-1.6Zm0,0" transform="translate(-10.8 -8.4)"/><path class="cls-2" d="M16.27,30.8a.8.8,0,0,0,0,1.6h11.2a.8.8,0,0,0,0-1.6Zm0,0" transform="translate(-10.8 -8.4)"/><path class="cls-1" d="M39.47,30.8h-5.6a.8.8,0,0,0,0,1.6h5.6a.8.8,0,0,0,0-1.6Zm0,0" transform="translate(-10.8 -8.4)"/><path class="cls-2" d="M30.11,31a.81.81,0,0,0-.24.57.81.81,0,0,0,1.37.57.83.83,0,0,0,.23-.57.81.81,0,0,0-.23-.57.83.83,0,0,0-1.13,0Zm0,0" transform="translate(-10.8 -8.4)"/><path class="cls-2" d="M26.8,53.2H12.4V14.8H18v1.6a.8.8,0,0,0,.8.8H37.2a.8.8,0,0,0,.8-.8V14.8h5.6V30a.8.8,0,0,0,1.6,0V14a.8.8,0,0,0-.8-.8H38V11.6a.8.8,0,0,0-.8-.8H32.4V9.2a.8.8,0,0,0-.8-.8H24.4a.8.8,0,0,0-.8.8v1.6H18.8a.8.8,0,0,0-.8.8v1.6H11.6a.8.8,0,0,0-.8.8V54a.8.8,0,0,0,.8.8H26.8a.8.8,0,1,0,0-1.6ZM25.2,10h5.6v3.2H25.2Zm-5.6,2.4h4V14a.8.8,0,0,0,.8.8h7.2a.8.8,0,0,0,.8-.8V12.4h4v3.2H19.6Zm0,0" transform="translate(-10.8 -8.4)"/></svg>