<svg id="Layer_1" data-name="Layer 1" xmlns="http://www.w3.org/2000/svg" viewBox="0 0 48 22.75"><defs><style>.cls-1{fill:#f98c67;}.cls-2{fill:#9a88c0;}.cls-3{fill:none;}</style></defs><title>aviation</title><path class="cls-1" d="M27.06,31.49a.73.73,0,0,0,0,1l1.19,1.19a4.58,4.58,0,1,0,7.43,0l1.19-1.19a.73.73,0,0,0,0-1,6.94,6.94,0,0,0-9.8,0Zm4.9,8a3.11,3.11,0,1,1,3.11-3.11A3.11,3.11,0,0,1,32,39.5Zm2.67-6.82a4.56,4.56,0,0,0-5.35,0L28.65,32a5.47,5.47,0,0,1,6.61,0Zm0,0" transform="translate(-8 -20.62)"/><path class="cls-2" d="M55.38,30.52a.73.73,0,0,0-.9.51A3.63,3.63,0,0,1,51,33.7H40.75a8.8,8.8,0,0,0-2.89-5.82h3.22a.73.73,0,0,0,0-1.47H35.63a8.74,8.74,0,0,0-2.93-.77V21.42a.73.73,0,1,0-1.47,0v4.23a8.73,8.73,0,0,0-2.93.77H22.84a.73.73,0,0,0,0,1.47h3.22a8.8,8.8,0,0,0-2.89,5.82H12.94A3.64,3.64,0,0,1,9.44,31,.73.73,0,1,0,8,31.43a5.11,5.11,0,0,0,4.91,3.74h1a4.58,4.58,0,1,0,6.72,0h2.5a8.82,8.82,0,0,0,17.58,0h2.5a4.59,4.59,0,1,0,6.72,0h1a5.11,5.11,0,0,0,4.91-3.74.74.74,0,0,0-.51-.9ZM17.31,41.4a3.12,3.12,0,1,1,3.12-3.12,3.12,3.12,0,0,1-3.12,3.12ZM32,41.79a7.35,7.35,0,1,1,7.35-7.35A7.36,7.36,0,0,1,32,41.79Zm14.65-.38a3.12,3.12,0,1,1,3.12-3.12,3.12,3.12,0,0,1-3.12,3.12Zm0,0" transform="translate(-8 -20.62)"/><rect class="cls-3" width="48" height="22.75"/><path class="cls-1" d="M46.61,35.92A2.37,2.37,0,1,0,49,38.29a2.37,2.37,0,0,0-2.37-2.37Zm0,3.27a.9.9,0,1,1,.9-.9.9.9,0,0,1-.9.9Zm0,0" transform="translate(-8 -20.62)"/><path class="cls-1" d="M17.31,35.92a2.37,2.37,0,1,0,2.37,2.37,2.37,2.37,0,0,0-2.37-2.37Zm0,3.27a.9.9,0,1,1,.9-.9.9.9,0,0,1-.9.9Zm0,0" transform="translate(-8 -20.62)"/><path class="cls-2" d="M32,35.66a.73.73,0,1,0,.66.45.74.74,0,0,0-.66-.45Zm0,0" transform="translate(-8 -20.62)"/><path d="M32.64,36.12Zm0,0" transform="translate(-8 -20.62)"/><path d="M32.64,36.11h0Zm0,0" transform="translate(-8 -20.62)"/><path d="M32.64,36.11h0Zm0,0" transform="translate(-8 -20.62)"/><path d="M32.63,36.1Zm0,0" transform="translate(-8 -20.62)"/></svg>