<svg xmlns="http://www.w3.org/2000/svg" viewBox="0 0 39.96 48"><defs><style>.cls-1{fill:#9a88c0;}.cls-2{fill:none;}.cls-3{fill:#f98c67;}</style></defs><title>certification</title><g id="Layer_2" data-name="Layer 2"><g id="Layer_1-2" data-name="Layer 1"><path class="cls-1" d="M39.8,42.73,33.45,27.39A.77.77,0,0,0,32,28l5.75,13.87-5.24-1.52a.77.77,0,0,0-.88.37L29,45.47,22.86,30.59A15.45,15.45,0,1,0,7.55,24.64L.06,42.73a.77.77,0,0,0,.92,1L7.16,42l3.1,5.64a.77.77,0,0,0,.67.4h0a.77.77,0,0,0,.66-.47l5.94-14.33a.77.77,0,0,0-1.42-.59L10.84,45.47,8.21,40.69a.77.77,0,0,0-.88-.37L2.08,41.84,8.66,26a15.39,15.39,0,0,0,11.27,4.9c.46,0,.91,0,1.36-.06l6.93,16.72a.77.77,0,0,0,.66.47h0a.77.77,0,0,0,.67-.4L32.7,42l6.18,1.79a.77.77,0,0,0,.92-1ZM6,15.43a13.9,13.9,0,1,1,13.9,13.9A13.92,13.92,0,0,1,6,15.43Zm0,0"/><rect class="cls-2" width="39.96" height="48"/><path class="cls-1" d="M28.78,12.56a.77.77,0,0,0-.6-.52L23,11.17,20.61,6.54a.77.77,0,0,0-1.36,0l-2.41,4.63L11.68,12a.77.77,0,0,0-.42,1.29l3.66,3.73-.77,5.17a.77.77,0,0,0,1.1.8l4.68-2.33L24.61,23A.77.77,0,0,0,25.4,23a.76.76,0,0,0,.31-.73l-.77-5.17,3.66-3.73a.76.76,0,0,0,.18-.77Zm-5.2,3.7a.77.77,0,0,0-.21.65L24,21l-3.7-1.84a.77.77,0,0,0-.68,0L15.89,21l.61-4.09a.76.76,0,0,0-.21-.65l-2.9-3,4.08-.68a.77.77,0,0,0,.55-.4l1.91-3.67,1.91,3.67a.77.77,0,0,0,.55.4l4.08.68Zm0,0"/><path class="cls-3" d="M31.53,16.21a.77.77,0,0,0-.86.66,10.84,10.84,0,1,1,0-2.86.77.77,0,0,0,1.52-.2,12.37,12.37,0,1,0,0,3.27.77.77,0,0,0-.66-.86Zm0,0"/></g></g></svg>