<svg xmlns="http://www.w3.org/2000/svg" viewBox="0 0 24 21.82"><defs><style>.cls-1{fill:#231f20;}</style></defs><title>comment_1</title><g id="Layer_2" data-name="Layer 2"><g id="Layer_1-2" data-name="Layer 1"><path class="cls-1" d="M12,0C5.37,0,0,4.4,0,9.82a9,9,0,0,0,3.4,6.84L2.18,21.82l6.45-2.58a14.51,14.51,0,0,0,3.37.4c6.63,0,12-4.39,12-9.82S18.63,0,12,0m0,18.54a13.44,13.44,0,0,1-3.11-.37,1.08,1.08,0,0,0-.66,0L3.72,20l.73-3.12a1.09,1.09,0,0,0-.36-1.08,7.86,7.86,0,0,1-3-6C1.09,5,6,1.09,12,1.09S22.91,5,22.91,9.82,18,18.54,12,18.54"/></g></g></svg>