<svg id="Layer_1" data-name="Layer 1" xmlns="http://www.w3.org/2000/svg" viewBox="0 0 48 43.38"><defs><style>.cls-1{fill:#9a88c0;}.cls-2{fill:#f98c67;}</style></defs><title>electrical</title><path class="cls-1" d="M45.85,30.62H18.15a.92.92,0,1,1,0-1.85h27.7a8.31,8.31,0,0,0,0-16.62H18.15a.92.92,0,1,1,0-1.85h27.7a10.15,10.15,0,0,1,0,20.31Z" transform="translate(-8 -10.31)"/><path class="cls-1" d="M18.15,30.62A10.15,10.15,0,1,1,28.31,20.46,10.17,10.17,0,0,1,18.15,30.62Zm0-18.46a8.31,8.31,0,1,0,8.31,8.31A8.32,8.32,0,0,0,18.15,12.15Z" transform="translate(-8 -10.31)"/><path class="cls-2" d="M18.15,26a5.54,5.54,0,1,1,5.54-5.54A5.54,5.54,0,0,1,18.15,26Zm0-9.23a3.69,3.69,0,1,0,3.69,3.69A3.7,3.7,0,0,0,18.15,16.77Z" transform="translate(-8 -10.31)"/><path class="cls-1" d="M45.85,53.69H18.15a10.15,10.15,0,0,1,0-20.31h27.7a.92.92,0,1,1,0,1.85H18.15a8.31,8.31,0,0,0,0,16.62h27.7a.92.92,0,1,1,0,1.85Z" transform="translate(-8 -10.31)"/><path class="cls-1" d="M45.85,53.69A10.15,10.15,0,1,1,56,43.54,10.17,10.17,0,0,1,45.85,53.69Zm0-18.46a8.31,8.31,0,1,0,8.31,8.31A8.32,8.32,0,0,0,45.85,35.23Z" transform="translate(-8 -10.31)"/><path class="cls-2" d="M45.85,49.08a5.54,5.54,0,1,1,5.54-5.54A5.54,5.54,0,0,1,45.85,49.08Zm0-9.23a3.69,3.69,0,1,0,3.69,3.69A3.7,3.7,0,0,0,45.85,39.85Z" transform="translate(-8 -10.31)"/></svg>