<svg xmlns="http://www.w3.org/2000/svg" viewBox="0 0 63.18 64"><defs><style>.cls-1{fill:#231f20;}</style></defs><title>aerocontrol</title><g id="Layer_2" data-name="Layer 2"><g id="svg2960"><g id="g140"><path id="path142" class="cls-1" d="M53.61,10.77A25.82,25.82,0,0,0,7.36,31.09l26-11.51H19.12a14.87,14.87,0,0,1,24-4.26Z"/></g><path id="path146" class="cls-1" d="M0,35.92,58.9,9.5,33,35.92H0"/><g id="g150"><g id="g156"><path id="path158" class="cls-1" d="M32.54,40.68A15.14,15.14,0,0,1,23,37.29H9.09a26.4,26.4,0,0,0,47.33-.72H42.95a15.16,15.16,0,0,1-10.41,4.11"/></g></g><path id="path162" class="cls-1" d="M5.46,61.12H3.11V63H5.74v.94H2V57.64H5.6v.94H3.11v1.62H5.46Z"/><g id="g172"><path id="path174" class="cls-1" d="M7.88,57.64v3.65c0,1.23.51,1.79,1.28,1.79s1.32-.57,1.32-1.79V57.64h1.14v3.58c0,1.93-1,2.79-2.5,2.79s-2.39-.81-2.39-2.78V57.64Z"/></g><g id="g176"><path id="path178" class="cls-1" d="M12.93,57.73a9.88,9.88,0,0,1,1.73-.14,2.92,2.92,0,0,1,1.93.5,1.59,1.59,0,0,1,.54,1.26A1.64,1.64,0,0,1,16,60.92v0a1.55,1.55,0,0,1,.87,1.21,16,16,0,0,0,.49,1.75H16.18a8,8,0,0,1-.42-1.48c-.19-.82-.47-1.08-1.12-1.1h-.58V63.9H12.93Zm1.13,2.76h.68c.77,0,1.24-.41,1.24-1s-.47-1-1.22-1a3.32,3.32,0,0,0-.71.06Z"/></g><g id="g180"><path id="path182" class="cls-1" d="M20.77,64a2.9,2.9,0,0,1-2.89-3.19,3,3,0,0,1,3-3.28,2.89,2.89,0,0,1,2.9,3.17c0,2.1-1.27,3.3-3,3.3Zm.06-.92c1.1,0,1.73-1,1.73-2.33s-.58-2.29-1.73-2.29-1.74,1.09-1.74,2.33.63,2.29,1.73,2.29Z"/></g><g id="g184"><path id="path186" class="cls-1" d="M29.23,63.71A4.14,4.14,0,0,1,27.6,64a3,3,0,0,1-3.19-3.15,3.15,3.15,0,0,1,3.35-3.3,3.57,3.57,0,0,1,1.51.27l-.24.91a3.07,3.07,0,0,0-1.23-.24,2.08,2.08,0,0,0-2.19,2.3A2,2,0,0,0,27.8,63,3.47,3.47,0,0,0,29,62.81Z"/></g><g id="g188"><path id="path190" class="cls-1" d="M32.52,64a2.9,2.9,0,0,1-2.89-3.19,3,3,0,0,1,3-3.28,2.89,2.89,0,0,1,2.9,3.17c0,2.1-1.27,3.3-3,3.3Zm.06-.92c1.1,0,1.73-1,1.73-2.33s-.59-2.29-1.73-2.29-1.74,1.09-1.74,2.33.63,2.29,1.73,2.29Z"/></g><g id="g192"><path id="path194" class="cls-1" d="M36.49,63.9V57.64H37.8l1.62,2.68a18.75,18.75,0,0,1,1.07,2.1h0a25.12,25.12,0,0,1-.1-2.59V57.64h1.06V63.9H40.27l-1.63-2.76A21.6,21.6,0,0,1,37.52,59h0c0,.81.07,1.63.07,2.66V63.9Z"/></g><g id="g196"><path id="path198" class="cls-1" d="M44,58.6H42.19v-1h4.73v1h-1.8v5.3H44Z"/></g><g id="g208"><path id="path210" class="cls-1" d="M47.64,57.73a9.87,9.87,0,0,1,1.73-.14,2.92,2.92,0,0,1,1.93.5,1.59,1.59,0,0,1,.54,1.26,1.64,1.64,0,0,1-1.14,1.56v0a1.55,1.55,0,0,1,.87,1.21,15.72,15.72,0,0,0,.49,1.75H50.89a8.07,8.07,0,0,1-.42-1.48c-.19-.82-.47-1.08-1.12-1.1h-.58V63.9H47.64Zm1.13,2.76h.68c.77,0,1.24-.41,1.24-1s-.47-1-1.22-1a3.32,3.32,0,0,0-.7.06Z"/></g><path id="path214" class="cls-1" d="M55.49,64a2.9,2.9,0,0,1-2.89-3.19,3,3,0,0,1,3-3.28,2.89,2.89,0,0,1,2.9,3.17c0,2.1-1.27,3.3-3,3.3Zm.06-.92c1.1,0,1.73-1,1.73-2.33s-.59-2.29-1.73-2.29-1.74,1.09-1.74,2.33.63,2.29,1.73,2.29Z"/><path id="path218" class="cls-1" d="M59.46,57.64H60.6v5.3h2.57v1H59.46Z"/></g></g></svg>