<svg id="Layer_1" data-name="Layer 1" xmlns="http://www.w3.org/2000/svg" viewBox="0 0 52.02 42.66"><defs><style>.cls-1{fill:#9a88c0;}.cls-2{fill:none;}.cls-3{fill:#f98c67;}</style></defs><title>expertise</title><path class="cls-1" d="M56,20.36l-21.11-9a7.45,7.45,0,0,0-5.84,0L8,20.36a3.27,3.27,0,0,0,0,6l2.49,1.07s0,.05,0,.08v11.8a2.44,2.44,0,0,0-1,3.93,2.59,2.59,0,0,0-.77,1.62l-.6,6.57a1.61,1.61,0,0,0,1.6,1.75h3.16a1.61,1.61,0,0,0,1.6-1.75l-.6-6.57a2.59,2.59,0,0,0-.77-1.62,2.44,2.44,0,0,0-1-3.93V28.1l4.26,1.83a.69.69,0,0,0,0,.08V36c0,2.48,1.7,4.78,4.78,6.46A23.24,23.24,0,0,0,32,44.9a23.25,23.25,0,0,0,10.94-2.49c3.08-1.69,4.78-4,4.78-6.46V30s0-.05,0-.08L56,26.37a3.27,3.27,0,0,0,0-6ZM12.86,51.63l0,0H9.66a0,0,0,0,1,0,0,0,0,0,0,1,0,0L10.2,45a1,1,0,0,1,2.07,0l.6,6.57a0,0,0,0,1,0,0Zm-1.62-9.12a.88.88,0,1,1,.88-.88.88.88,0,0,1-.88.88Zm34.93-9.88c0,2-1.66,4-4.55,5.39A.78.78,0,0,0,42,39.5a.77.77,0,0,0,.34-.08,11.82,11.82,0,0,0,3.8-2.8c-.29,1.64-1.65,3.19-3.91,4.43A21.67,21.67,0,0,1,32,43.34,21.67,21.67,0,0,1,21.81,41c-2.25-1.23-3.61-2.78-3.91-4.41a11.36,11.36,0,0,0,3.16,2.46A23.24,23.24,0,0,0,32,41.58a27.78,27.78,0,0,0,3.42-.21.78.78,0,1,0-.19-1.54A26.31,26.31,0,0,1,32,40a21.67,21.67,0,0,1-10.19-2.3c-2.56-1.4-4-3.21-4-5.1v-2l11.25,4.82a7.45,7.45,0,0,0,5.84,0l11.24-4.82Zm9.25-7.69-21.1,9a5.89,5.89,0,0,1-4.62,0L13.56,27.07,28.34,24.5A4.84,4.84,0,0,0,32,25.8c2.34,0,4.1-1,4.1-2.44s-1.76-2.44-4.1-2.44c-2.12,0-3.77.87-4.06,2.07L11.11,25.92,11,26l-2.38-1a1.71,1.71,0,0,1,0-3.15l21.1-9a5.89,5.89,0,0,1,4.62,0l21.11,9a1.71,1.71,0,0,1,0,3.15Zm-26-1.57c0-.23.88-.88,2.54-.88s2.54.66,2.54.88-.87.88-2.54.88-2.54-.66-2.54-.88Zm0,0" transform="translate(-5.99 -10.67)"/><rect class="cls-2" width="52" height="42.66"/><path class="cls-3" d="M37.81,40.94l.18,0c.59-.14,1.17-.29,1.72-.47A.78.78,0,1,0,39.24,39c-.51.16-1.05.31-1.6.44a.78.78,0,0,0,.17,1.54Zm0,0" transform="translate(-5.99 -10.67)"/></svg>