<svg id="Layer_1" data-name="Layer 1" xmlns="http://www.w3.org/2000/svg" viewBox="0 0 43.34 48"><defs><style>.cls-1{fill:#f98c67;}.cls-2{fill:#9a88c0;}</style></defs><title>screening</title><path class="cls-1" d="M53.44,54.64l-4.79-5a8.71,8.71,0,1,0-1.19,1.08l4.81,5a.8.8,0,0,0,.58.25.8.8,0,0,0,.58-1.36ZM35.2,43.82a7.06,7.06,0,1,1,7.05,7.05,7.06,7.06,0,0,1-7.05-7.05Zm0,0" transform="translate(-10.33 -8)"/><path class="cls-1" d="M15.81,22.44H26.24a.8.8,0,1,0,0-1.6H15.81a.8.8,0,0,0,0,1.6Zm0,0" transform="translate(-10.33 -8)"/><path class="cls-2" d="M15.81,44.9a.8.8,0,0,0,0,1.6H27.18a.8.8,0,1,0,0-1.6Zm0,0" transform="translate(-10.33 -8)"/><path class="cls-2" d="M39.88,26.45a.8.8,0,0,0-.8-.8H15.81a.8.8,0,0,0,0,1.6H39.08a.8.8,0,0,0,.8-.8Zm0,0" transform="translate(-10.33 -8)"/><path class="cls-2" d="M32,35.28H15.81a.8.8,0,0,0,0,1.61H32a.8.8,0,0,0,0-1.61Zm0,0" transform="translate(-10.33 -8)"/><path class="cls-1" d="M30.39,40.89a.8.8,0,0,0-.8-.8H15.81a.8.8,0,0,0,0,1.61H29.58a.8.8,0,0,0,.8-.8Zm0,0" transform="translate(-10.33 -8)"/><path class="cls-2" d="M15.81,30.46a.8.8,0,0,0,0,1.61H27a.8.8,0,0,0,0-1.61Zm0,0" transform="translate(-10.33 -8)"/><path class="cls-1" d="M39.88,31.26a.8.8,0,0,0-.8-.8H33.46a.8.8,0,1,0,0,1.61h5.62a.8.8,0,0,0,.8-.8Zm0,0" transform="translate(-10.33 -8)"/><path class="cls-2" d="M29.68,30.7a.79.79,0,0,0,0,1.14.79.79,0,0,0,.56.23.79.79,0,0,0,.8-.8.81.81,0,0,0-.23-.57.84.84,0,0,0-1.14,0Zm0,0" transform="translate(-10.33 -8)"/><path class="cls-2" d="M31.19,52.93H11.94V14.42h5.61V16a.8.8,0,0,0,.8.8H36.8a.8.8,0,0,0,.8-.8V14.42h5.62v16a.8.8,0,1,0,1.6,0V13.62a.8.8,0,0,0-.8-.8H37.61V11.21a.8.8,0,0,0-.8-.8H32V8.8a.8.8,0,0,0-.8-.8H24a.8.8,0,0,0-.8.8v1.6H18.36a.8.8,0,0,0-.8.8v1.61H11.14a.8.8,0,0,0-.8.8V53.73a.8.8,0,0,0,.8.8H31.19a.8.8,0,1,0,0-1.6ZM24.77,9.61h5.62v3.21H24.77ZM19.16,12h4v1.61a.8.8,0,0,0,.8.8h7.22a.8.8,0,0,0,.8-.8V12h4v3.21H19.16Zm0,0" transform="translate(-10.33 -8)"/></svg>