<svg id="Layer_1" data-name="Layer 1" xmlns="http://www.w3.org/2000/svg" viewBox="0 0 39.34 48"><defs><style>.cls-1{fill:#9a88c0;}.cls-2{fill:none;}.cls-3{fill:#f98c67;}</style></defs><title>knowledge</title><path class="cls-1" d="M50.94,49.17,36.4,24.6V12.31A2.2,2.2,0,0,0,35.69,8H28.2a2.2,2.2,0,0,0-.7,4.29V24.6L13,49.17a4.45,4.45,0,0,0,3.83,6.72H47.11a4.45,4.45,0,0,0,3.83-6.72ZM28.2,9.42h7.49a.8.8,0,1,1,0,1.59H28.2a.8.8,0,1,1,0-1.59ZM49.75,52.95a3,3,0,0,1-2.64,1.54H16.79a3,3,0,0,1-2.62-4.59L28.8,25.15a.71.71,0,0,0,.1-.36V12.42H35V24.8a.71.71,0,0,0,.1.36L49.73,49.89a3,3,0,0,1,0,3.06Zm0,0" transform="translate(-12.33 -8)"/><rect class="cls-2" width="39.34" height="48"/><path class="cls-1" d="M29.7,33.41h4.5a.7.7,0,0,0,0-1.41H29.7a.7.7,0,1,0,0,1.41Zm0,0" transform="translate(-12.33 -8)"/><path class="cls-1" d="M29.7,37.15h4.5a.7.7,0,0,0,0-1.41H29.7a.7.7,0,1,0,0,1.41Zm0,0" transform="translate(-12.33 -8)"/><path class="cls-1" d="M29.7,40.9h4.5a.7.7,0,0,0,0-1.41H29.7a.7.7,0,1,0,0,1.41Zm0,0" transform="translate(-12.33 -8)"/><path class="cls-3" d="M44.15,43.58a.7.7,0,0,0-.6-.34H20.35a.71.71,0,0,0-.6.34L15.54,50.7a1.45,1.45,0,0,0,1.25,2.19H47.11a1.45,1.45,0,0,0,1.25-2.19ZM27.5,44.65s0,0,0,0a.8.8,0,1,1-1.59,0s0,0,0,0Zm19.65,6.81v0H16.76v-.07l4-6.77H24.5s0,0,0,0a2.2,2.2,0,0,0,4.4,0v0H43.14l4,6.77v0Zm0,0" transform="translate(-12.33 -8)"/><path class="cls-3" d="M34.2,46.24a2.2,2.2,0,1,0,2.2,2.2,2.2,2.2,0,0,0-2.2-2.2Zm0,3a.8.8,0,1,1,.8-.8.8.8,0,0,1-.8.8Zm0,0" transform="translate(-12.33 -8)"/><path class="cls-3" d="M40.19,46.24h0a.7.7,0,1,0,.7.7.7.7,0,0,0-.7-.7Zm0,0" transform="translate(-12.33 -8)"/><path class="cls-3" d="M29,48.49h0a.7.7,0,1,0,.7.7.7.7,0,0,0-.7-.7Zm0,0" transform="translate(-12.33 -8)"/><path class="cls-3" d="M22.21,47h0a.7.7,0,1,0,.7.7.7.7,0,0,0-.7-.7Zm0,0" transform="translate(-12.33 -8)"/></svg>