<svg xmlns="http://www.w3.org/2000/svg" viewBox="0 0 42.61 48"><defs><style>.cls-1{fill:#9a88c0;}.cls-2{fill:#f98c67;}</style></defs><title>maintenace</title><g id="Layer_2" data-name="Layer 2"><g id="Layer_1-2" data-name="Layer 1"><path class="cls-1" d="M34.16,39.25a.77.77,0,0,0,.29-.6V3.83a.76.76,0,0,0-.77-.77H11.52a4.34,4.34,0,0,0-8.3,0H.77A.77.77,0,0,0,0,3.83v43.4A.77.77,0,0,0,.77,48H25.09a.77.77,0,0,0,.6-.29Zm-8.29,6.13v-6h6ZM7.37,1.53a2.81,2.81,0,0,1,2.5,1.53h-5a2.82,2.82,0,0,1,2.5-1.53ZM1.53,4.6h8.64V10a1.28,1.28,0,1,1-2.55,0V6.89a.77.77,0,1,0-1.53,0V10a2.81,2.81,0,0,0,5.62,0V4.6h21.2V37.89H25.1a.77.77,0,0,0-.77.77v7.81H1.53Zm0,0"/><path class="cls-2" d="M27.55,35.28a.77.77,0,1,0,0-1.53H6.89a.77.77,0,0,0,0,1.53Zm0,0"/><path class="cls-2" d="M6.89,30.69H27.55a.77.77,0,1,0,0-1.53H6.89a.77.77,0,0,0,0,1.53Zm0,0"/><path class="cls-2" d="M6.89,26.09H27.55a.77.77,0,1,0,0-1.53H6.89a.77.77,0,0,0,0,1.53Zm0,0"/><path class="cls-2" d="M6.89,21.5H27.55a.77.77,0,1,0,0-1.53H6.89a.77.77,0,0,0,0,1.53Zm0,0"/><path class="cls-2" d="M6.89,16.9H27.55a.77.77,0,1,0,0-1.53H6.89a.77.77,0,0,0,0,1.53Zm0,0"/><path class="cls-1" d="M37.76,3.06h-1a.77.77,0,0,0,0,1.53H37V46.47H28.82a.77.77,0,0,0,0,1.53h8.94a.77.77,0,0,0,.77-.77V3.83a.77.77,0,0,0-.77-.77Zm0,0"/><path class="cls-1" d="M41.85,3.06h-1a.77.77,0,1,0,0,1.53h.25V46.47h-.25a.77.77,0,1,0,0,1.53h1a.77.77,0,0,0,.77-.77V3.83a.77.77,0,0,0-.77-.77Zm0,0"/></g></g></svg>