<svg xmlns="http://www.w3.org/2000/svg" viewBox="0 0 48 47.56"><defs><style>.cls-1{fill:#9a88c0;}.cls-2{fill:#f98c67;}</style></defs><title>mechanical</title><g id="Layer_2" data-name="Layer 2"><g id="Layer_1-2" data-name="Layer 1"><path class="cls-1" d="M13,35.92a.94.94,0,0,1-.9-1.23L21.47,5.33A.94.94,0,0,1,23,4.95l20,20a.94.94,0,0,1-.38,1.57L13.31,35.88A1,1,0,0,1,13,35.92ZM22.79,7.38,14.47,33.53l26.15-8.32Z"/><path class="cls-1" d="M39,23.24a.94.94,0,0,1-.67-.28L25,9.62a.94.94,0,0,1,.1-1.42l10.68-8A.94.94,0,0,1,37,.28L47.72,11a.94.94,0,0,1,.09,1.23l-8,10.68a.94.94,0,0,1-.69.38ZM27.14,9.05,38.95,20.86l6.87-9.15L36.29,2.19Z"/><rect class="cls-1" x="10.67" y="28.36" width="16.05" height="1.89" transform="translate(-15.25 21.81) rotate(-45.02)"/><path class="cls-1" d="M27,25.68a4.72,4.72,0,1,1,3.34-1.38A4.69,4.69,0,0,1,27,25.68Zm0-7.55A2.83,2.83,0,0,0,25,23a2.9,2.9,0,0,0,4,0,2.83,2.83,0,0,0-2-4.83Z"/><path class="cls-2" d="M40.58,47.56a.94.94,0,0,1-.94-.94V35.26a.94.94,0,1,1,1.89,0V46.62A.94.94,0,0,1,40.58,47.56Z"/><path class="cls-2" d="M46.28,41.87H34.92a.94.94,0,1,1,0-1.89H46.28a.94.94,0,0,1,0,1.89Z"/><rect class="cls-2" y="39.03" width="7.55" height="7.55"/><rect class="cls-2" x="2.83" y="32.43" width="1.89" height="6.61"/><rect class="cls-2" x="7.55" y="41.87" width="6.61" height="1.89"/></g></g></svg>