<svg xmlns="http://www.w3.org/2000/svg" viewBox="0 0 36 48"><defs><style>.cls-1{fill:#9a88c0;}.cls-2{fill:#f98c67;}</style></defs><title>on-site</title><g id="Layer_2" data-name="Layer 2"><g id="Layer_1-2" data-name="Layer 1"><path class="cls-1" d="M18,48C12.11,48,0,27.81,0,18a18,18,0,1,1,36,0C36,27.81,23.89,48,18,48ZM18,1.71A16.31,16.31,0,0,0,1.71,18C1.71,27.43,13.4,46.29,18,46.29S34.29,27.43,34.29,18A16.31,16.31,0,0,0,18,1.71Z"/><path class="cls-1" d="M18,25.71a9.43,9.43,0,1,1,9.43-9.43A9.44,9.44,0,0,1,18,25.71ZM18,8.57a7.71,7.71,0,1,0,7.71,7.71A7.72,7.72,0,0,0,18,8.57Z"/><path class="cls-2" d="M17.93,21.11a.85.85,0,0,1-.58-.23l-4.12-3.79,1.16-1.26,3.34,3.08L21.83,12l1.48.87-4.64,7.85a.86.86,0,0,1-.61.41Z"/></g></g></svg>