<svg id="Layer_1" data-name="Layer 1" xmlns="http://www.w3.org/2000/svg" viewBox="0 0 48 28.46"><defs><style>.cls-1{fill:#9a88c0;}.cls-2{fill:#f98c67;}</style></defs><title>positioning</title><path class="cls-1" d="M35,32V21.48a3.71,3.71,0,0,0-3.71-3.71H11.71A3.71,3.71,0,0,0,8,21.48V32a3.71,3.71,0,0,0,3.71,3.71H22.28v3.05a.7.7,0,0,0,1.2.5L27,35.71h4.22A3.71,3.71,0,0,0,35,32Zm-8.22,2.3a.71.71,0,0,0-.5.21l-2.55,2.55V35a.7.7,0,0,0-.7-.71H11.71A2.3,2.3,0,0,1,9.41,32V21.48a2.3,2.3,0,0,1,2.3-2.3H31.25a2.3,2.3,0,0,1,2.3,2.3V32a2.3,2.3,0,0,1-2.3,2.3Zm0,0" transform="translate(-8 -17.77)"/><path class="cls-1" d="M12.46,22.94h2.25a.7.7,0,0,0,0-1.41H12.46a.7.7,0,1,0,0,1.41Zm0,0" transform="translate(-8 -17.77)"/><path class="cls-2" d="M30.5,21.53H17.72a.7.7,0,1,0,0,1.41H30.5a.7.7,0,0,0,0-1.41Zm0,0" transform="translate(-8 -17.77)"/><path class="cls-1" d="M30.5,24.53h-18a.7.7,0,1,0,0,1.41h18a.7.7,0,0,0,0-1.41Zm0,0" transform="translate(-8 -17.77)"/><path class="cls-1" d="M30.5,27.54H28.24a.7.7,0,1,0,0,1.41H30.5a.7.7,0,0,0,0-1.41Zm0,0" transform="translate(-8 -17.77)"/><path class="cls-2" d="M12.46,28.95H25.24a.7.7,0,1,0,0-1.41H12.46a.7.7,0,1,0,0,1.41Zm0,0" transform="translate(-8 -17.77)"/><path class="cls-1" d="M30.5,30.54h-18a.7.7,0,1,0,0,1.41h18a.7.7,0,0,0,0-1.41Zm0,0" transform="translate(-8 -17.77)"/><path class="cls-1" d="M37.26,29.7h2.25a.7.7,0,0,0,0-1.41H37.26a.7.7,0,0,0,0,1.41Zm0,0" transform="translate(-8 -17.77)"/><path class="cls-1" d="M51.54,29.7a.7.7,0,0,0,0-1.41h-9a.7.7,0,0,0,0,1.41Zm0,0" transform="translate(-8 -17.77)"/><path class="cls-2" d="M37.26,32.7H51.54a.7.7,0,0,0,0-1.41H37.26a.7.7,0,0,0,0,1.41Zm0,0" transform="translate(-8 -17.77)"/><path class="cls-1" d="M51.54,34.3H49.28a.71.71,0,1,0,0,1.41h2.25a.71.71,0,0,0,0-1.41Zm0,0" transform="translate(-8 -17.77)"/><path class="cls-1" d="M37.26,35.71h9a.71.71,0,1,0,0-1.41h-9a.71.71,0,0,0,0,1.41Zm0,0" transform="translate(-8 -17.77)"/><path class="cls-2" d="M51.54,37.31H32.75a.7.7,0,1,0,0,1.41H51.54a.7.7,0,0,0,0-1.41Zm0,0" transform="translate(-8 -17.77)"/><path class="cls-2" d="M52.29,24.53h-15a.7.7,0,0,0,0,1.41h15a2.3,2.3,0,0,1,2.3,2.3V38.76a2.3,2.3,0,0,1-2.3,2.3H41a.7.7,0,0,0-.71.7v2.06l-2.55-2.55a.7.7,0,0,0-.5-.21H32.75a2.3,2.3,0,0,1-2.3-2.3V38A.7.7,0,0,0,29,38v.75a3.71,3.71,0,0,0,3.71,3.71H37L40.52,46a.7.7,0,0,0,1.2-.5V42.47H52.29A3.71,3.71,0,0,0,56,38.76V28.24a3.71,3.71,0,0,0-3.71-3.71Zm0,0" transform="translate(-8 -17.77)"/></svg>