<svg xmlns="http://www.w3.org/2000/svg" viewBox="0 0 48 36"><defs><style>.cls-1{fill:#9a88c0;}.cls-2{fill:#f98c67;}</style></defs><title>program</title><g id="Layer_2" data-name="Layer 2"><g id="Layer_1-2" data-name="Layer 1"><path class="cls-1" d="M47.14,36H.86A.86.86,0,0,1,0,35.14V.86A.86.86,0,0,1,.86,0H47.14A.86.86,0,0,1,48,.86V35.14A.86.86,0,0,1,47.14,36ZM1.71,34.29H46.29V1.71H1.71Z"/><path class="cls-1" d="M31.71,31.71H16.29a.86.86,0,0,1-.86-.86V5.14a.86.86,0,0,1,.86-.86H31.71a.86.86,0,0,1,.86.86V30.86A.86.86,0,0,1,31.71,31.71ZM17.14,30H30.86V6H17.14Z"/><path class="cls-1" d="M42.86,29.14H31.71a.86.86,0,0,1-.86-.86V7.71a.86.86,0,0,1,.86-.86H42.86a.86.86,0,0,1,.86.86V28.29A.86.86,0,0,1,42.86,29.14ZM32.57,27.43H42V8.57H32.57Z"/><path class="cls-1" d="M16.29,29.14H5.14a.86.86,0,0,1-.86-.86V7.71a.86.86,0,0,1,.86-.86H16.29a.86.86,0,0,1,.86.86V28.29A.86.86,0,0,1,16.29,29.14ZM6,27.43h9.43V8.57H6Z"/><path class="cls-2" d="M24,16.29a3.43,3.43,0,1,1,3.43-3.43A3.43,3.43,0,0,1,24,16.29Zm0-5.14a1.71,1.71,0,1,0,1.71,1.71A1.72,1.72,0,0,0,24,11.14Z"/><rect class="cls-2" x="18.86" y="21.43" width="10.29" height="1.71"/><rect class="cls-2" x="20.57" y="24" width="6.86" height="1.71"/></g></g></svg>