<svg xmlns="http://www.w3.org/2000/svg" xmlns:xlink="http://www.w3.org/1999/xlink" viewBox="0 0 36.96 48"><defs><style>.cls-1{fill:none;}.cls-2{fill:#9a88c0;}.cls-3{fill:#f98c67;}.cls-4{clip-path:url(#clip-path);}</style><clipPath id="clip-path"><rect class="cls-1" x="16.63" y="35.07" width="14.78" height="5.54"/></clipPath></defs><title>requirements</title><g id="Layer_2" data-name="Layer 2"><g id="Layer_1-2" data-name="Layer 1"><path class="cls-2" d="M36,48H.92A.92.92,0,0,1,0,47.08V6.43a.92.92,0,0,1,.81-.92l2.52-5A1,1,0,0,1,5,.47L6.93,4.36,8.87.47a1,1,0,0,1,1.65,0l1.95,3.89L14.42.47a1,1,0,0,1,1.65,0l2.41,4.81L20.88.47a1,1,0,0,1,1.65,0l1.95,3.89L26.43.47a1,1,0,0,1,1.65,0L30,4.36,32,.47a1,1,0,0,1,1.65,0l2.52,5a.92.92,0,0,1,.81.92V47.08A.92.92,0,0,1,36,48ZM1.85,46.15H35.11V7.23a.92.92,0,0,1-.37-.39L32.8,2.95,30.85,6.84a1,1,0,0,1-1.65,0L27.25,2.95,25.31,6.84a1,1,0,0,1-1.65,0L21.71,2.95,19.77,6.84a.92.92,0,0,1-.83.51H18a.92.92,0,0,1-.83-.51L15.24,2.95,13.3,6.84a1,1,0,0,1-1.65,0L9.7,2.95,7.76,6.84a1,1,0,0,1-1.65,0L4.16,2.95,2.21,6.84a.93.93,0,0,1-.37.39Z"/><path class="cls-2" d="M30.49,18.44H17.55a.92.92,0,1,1,0-1.85H30.49a.92.92,0,1,1,0,1.85Z"/><path class="cls-2" d="M30.49,23.06H17.55a.92.92,0,0,1,0-1.85H30.49a.92.92,0,0,1,0,1.85Z"/><path class="cls-2" d="M30.49,27.68H17.55a.92.92,0,0,1,0-1.85H30.49a.92.92,0,0,1,0,1.85Z"/><path class="cls-2" d="M30.49,32.29H17.55a.92.92,0,0,1,0-1.85H30.49a.92.92,0,0,1,0,1.85Z"/><path class="cls-3" d="M9.3,31.89a.93.93,0,0,1-.4-.09L5,29.91a.92.92,0,1,1,.8-1.67l3,1.45,3.59-9.9a.92.92,0,1,1,1.74.63L10.17,31.28a.92.92,0,0,1-.52.54A.91.91,0,0,1,9.3,31.89Z"/><g class="cls-4"><path class="cls-2" d="M31.41,42.46H16.63a1.85,1.85,0,0,1-1.85-1.85V35.07a1.85,1.85,0,0,1,1.85-1.85H31.41a1.85,1.85,0,0,1,1.85,1.85v5.54A1.85,1.85,0,0,1,31.41,42.46Zm-12.93-3.7H29.56V36.91H18.48Z"/></g></g></g></svg>