<svg id="Layer_1" data-name="Layer 1" xmlns="http://www.w3.org/2000/svg" viewBox="0 0 42.9 48"><defs><style>.cls-1{fill:#f98c67;}.cls-2{fill:#9a88c0;}</style></defs><title>expeditious</title><path class="cls-1" d="M53.21,54.08l-5.63-5.62,5.36-2.68L38.35,40.4,43.73,55l2.68-5.37L52,55.25a.82.82,0,0,0,.59.24.83.83,0,0,0,.59-1.41ZM41.14,43.19,48.78,46l-3.22,1.61L44,50.83Zm0,0" transform="translate(-10.55 -8)"/><path class="cls-2" d="M16.21,22.9H27a.83.83,0,1,0,0-1.65H16.21a.83.83,0,1,0,0,1.65Zm0,0" transform="translate(-10.55 -8)"/><path class="cls-1" d="M16.21,46.07a.83.83,0,1,0,0,1.65h15a.83.83,0,1,0,0-1.65Zm0,0" transform="translate(-10.55 -8)"/><path class="cls-1" d="M40.21,26.21h-24a.83.83,0,1,0,0,1.65h24a.83.83,0,1,0,0-1.65Zm0,0" transform="translate(-10.55 -8)"/><path class="cls-1" d="M37,37a.83.83,0,0,0-.83-.83h-20a.83.83,0,0,0,0,1.66h20A.83.83,0,0,0,37,37Zm0,0" transform="translate(-10.55 -8)"/><path class="cls-2" d="M34.55,41.93a.83.83,0,0,0-.83-.83H16.21a.83.83,0,0,0,0,1.66H33.73a.83.83,0,0,0,.82-.83Zm0,0" transform="translate(-10.55 -8)"/><path class="cls-2" d="M16.21,32.83H27.79a.83.83,0,1,0,0-1.66H16.21a.83.83,0,0,0,0,1.66Zm0,0" transform="translate(-10.55 -8)"/><path class="cls-2" d="M41,32a.83.83,0,0,0-.83-.83H34.41a.83.83,0,0,0,0,1.66h5.79A.83.83,0,0,0,41,32Zm0,0" transform="translate(-10.55 -8)"/><path class="cls-2" d="M31.69,32.59a.83.83,0,0,0,.24-.59.82.82,0,0,0-.24-.59.86.86,0,0,0-1.17,0,.82.82,0,0,0-.25.59.87.87,0,0,0,.24.59.84.84,0,0,0,1.18,0Zm0,0" transform="translate(-10.55 -8)"/><path class="cls-2" d="M39.52,54.35H12.21V14.62H18v1.66a.83.83,0,0,0,.83.83h19a.83.83,0,0,0,.83-.83V14.62h5.79v24a.83.83,0,0,0,1.65,0V13.8a.82.82,0,0,0-.82-.83H38.69V11.31a.83.83,0,0,0-.83-.83h-5V8.83A.83.83,0,0,0,32.07,8H24.62a.83.83,0,0,0-.83.83v1.65h-5a.83.83,0,0,0-.83.83V13H11.38a.83.83,0,0,0-.83.83V55.18a.83.83,0,0,0,.83.82H39.52a.83.83,0,1,0,0-1.65ZM25.45,9.66h5.79V13H25.45Zm-5.79,2.48h4.14V13.8a.82.82,0,0,0,.83.82h7.45a.83.83,0,0,0,.83-.82V12.14H37v3.31H19.66Zm0,0" transform="translate(-10.55 -8)"/></svg>