<svg xmlns="http://www.w3.org/2000/svg" viewBox="0 0 48.74 52"><defs><style>.cls-1{fill:#9a88c0;}.cls-2{fill:#f98c67;}</style></defs><title>retainers</title><g id="Layer_2" data-name="Layer 2"><g id="Layer_1-2" data-name="Layer 1"><path class="cls-1" d="M40.65,0H4.83A1.58,1.58,0,0,0,3.26,1.58V3.26H1.58A1.58,1.58,0,0,0,0,4.83V50.42A1.58,1.58,0,0,0,1.58,52H37.4A1.58,1.58,0,0,0,39,50.42V48.74h1.68a1.58,1.58,0,0,0,1.58-1.58V1.58A1.58,1.58,0,0,0,40.65,0ZM37.45,48h0v2.43a.05.05,0,0,1-.05,0H1.58a.05.05,0,0,1-.05,0V4.83a.05.05,0,0,1,.05-.05H37.4a.05.05,0,0,1,.05.05Zm3.26-.81a.05.05,0,0,1,0,.05H39V4.83A1.58,1.58,0,0,0,37.4,3.26H4.78V1.58a.05.05,0,0,1,.05-.05H40.65a0,0,0,0,1,0,.05Zm0,0"/><path class="cls-1" d="M32.46,10.58H6.41a.76.76,0,1,0,0,1.53H32.46a.76.76,0,1,0,0-1.53Zm0,0"/><path class="cls-2" d="M32.46,20.35H6.41a.76.76,0,1,0,0,1.53H32.46a.76.76,0,1,0,0-1.53Zm0,0"/><path class="cls-1" d="M32.46,43.15H6.41a.76.76,0,0,0,0,1.53H32.46a.76.76,0,1,0,0-1.53Zm0,0"/><path class="cls-1" d="M32.46,30.12H6.41a.76.76,0,1,0,0,1.53H32.46a.76.76,0,1,0,0-1.53Zm0,0"/><path class="cls-2" d="M6.41,15.37h6.51a.76.76,0,0,0,0-1.53H6.41a.76.76,0,1,0,0,1.53Zm0,0"/><path class="cls-2" d="M32.46,13.84H16.18a.76.76,0,0,0,0,1.53H32.46a.76.76,0,1,0,0-1.53Zm0,0"/><path class="cls-1" d="M6.41,18.62H26a.76.76,0,0,0,0-1.53H6.41a.76.76,0,1,0,0,1.53Zm0,0"/><path class="cls-1" d="M32.46,17.1H29.21a.76.76,0,0,0,0,1.53h3.26a.76.76,0,1,0,0-1.53Zm0,0"/><path class="cls-2" d="M32.46,39.89H6.41a.76.76,0,1,0,0,1.53H32.46a.76.76,0,1,0,0-1.53Zm0,0"/><path class="cls-1" d="M6.41,34.9h6.51a.76.76,0,0,0,0-1.53H6.41a.76.76,0,1,0,0,1.53Zm0,0"/><path class="cls-1" d="M32.46,33.38H16.18a.76.76,0,0,0,0,1.53H32.46a.76.76,0,1,0,0-1.53Zm0,0"/><path class="cls-2" d="M6.41,38.16H26a.76.76,0,0,0,0-1.53H6.41a.76.76,0,0,0,0,1.53Zm0,0"/><path class="cls-1" d="M32.46,36.63H29.21a.76.76,0,0,0,0,1.53h3.26a.76.76,0,0,0,0-1.53Zm0,0"/><path class="cls-1" d="M6.41,25.14H17a.76.76,0,0,0,0-1.53H6.41a.76.76,0,1,0,0,1.53Zm0,0"/><path class="cls-1" d="M32.46,23.61H20.25a.76.76,0,0,0,0,1.53H32.46a.76.76,0,1,0,0-1.53Zm0,0"/><path class="cls-2" d="M6.41,28.39h17.1a.76.76,0,0,0,0-1.53H6.41a.76.76,0,0,0,0,1.53Zm0,0"/><path class="cls-2" d="M32.46,26.86h-5.7a.76.76,0,0,0,0,1.53h5.7a.76.76,0,0,0,0-1.53Zm0,0"/><path class="cls-1" d="M46.35,14.65A2.39,2.39,0,0,0,44,17V45.54a.79.79,0,0,0,0,.24l1.59,4.77v.69a.76.76,0,0,0,1.53,0v-.69l1.59-4.77a.73.73,0,0,0,0-.24V17a2.39,2.39,0,0,0-2.39-2.39Zm0,33.36-.84-2.52h1.68Zm.87-4H45.49V19.44h1.73Zm0-26.05H45.49V17a.86.86,0,1,1,1.73,0Zm0,0"/></g></g></svg>