<svg xmlns="http://www.w3.org/2000/svg" xmlns:xlink="http://www.w3.org/1999/xlink" viewBox="0 0 48 36"><defs><style>.cls-1{fill:#9a88c0;}.cls-2{fill:#f98c67;}.cls-3{clip-path:url(#clip-path);}.cls-4{clip-path:url(#clip-path-2);}.cls-5{clip-path:url(#clip-path-3);}.cls-6{clip-path:url(#clip-path-4);}</style><clipPath id="clip-path"><rect class="cls-1" x="29.14" y="29.14" width="1.71" height="1.71"/></clipPath><clipPath id="clip-path-2"><rect class="cls-1" x="33.43" y="29.14" width="1.71" height="1.71"/></clipPath><clipPath id="clip-path-3"><rect class="cls-1" x="14.57" y="29.14" width="1.71" height="1.71"/></clipPath><clipPath id="clip-path-4"><rect class="cls-1" x="18.86" y="29.14" width="1.71" height="1.71"/></clipPath></defs><title>services</title><g id="Layer_2" data-name="Layer 2"><g id="Layer_1-2" data-name="Layer 1"><path class="cls-1" d="M47.14,36H.86A.86.86,0,0,1,0,35.14V.86A.86.86,0,0,1,.86,0H47.14A.86.86,0,0,1,48,.86V35.14A.86.86,0,0,1,47.14,36ZM1.71,34.29H46.29V1.71H1.71Z"/><path class="cls-1" d="M10.29,24.86H.86A.86.86,0,0,1,0,24V6.86A.86.86,0,0,1,.86,6h9.43a.86.86,0,0,1,.86.86V24A.86.86,0,0,1,10.29,24.86ZM1.71,23.14H9.43V7.71H1.71Z"/><circle class="cls-2" cx="24.86" cy="30" r="1.71"/><rect class="cls-1" x="29.14" y="29.14" width="1.71" height="1.71"/><g class="cls-3"><rect class="cls-1" x="27.43" y="27.43" width="5.14" height="5.14" rx="1.71" ry="1.71"/></g><rect class="cls-1" x="33.43" y="29.14" width="1.71" height="1.71"/><g class="cls-4"><rect class="cls-1" x="31.71" y="27.43" width="5.14" height="5.14" rx="1.71" ry="1.71"/></g><rect class="cls-1" x="14.57" y="29.14" width="1.71" height="1.71"/><g class="cls-5"><rect class="cls-1" x="12.86" y="27.43" width="5.14" height="5.14" rx="1.71" ry="1.71"/></g><rect class="cls-1" x="18.86" y="29.14" width="1.71" height="1.71"/><g class="cls-6"><rect class="cls-1" x="17.14" y="27.43" width="5.14" height="5.14" rx="1.71" ry="1.71"/></g><path class="cls-1" d="M47.14,24.86H42.86A.86.86,0,0,1,42,24V6.86A.86.86,0,0,1,42.86,6h4.29a.86.86,0,0,1,.86.86V24A.86.86,0,0,1,47.14,24.86Zm-3.43-1.71h2.57V7.71H43.71Z"/><path class="cls-2" d="M38.57,24.86h-24a.86.86,0,0,1-.86-.86V6.86A.86.86,0,0,1,14.57,6h24a.86.86,0,0,1,.86.86V24A.86.86,0,0,1,38.57,24.86ZM15.43,23.14H37.71V7.71H15.43Z"/></g></g></svg>