<svg id="Layer_1" data-name="Layer 1" xmlns="http://www.w3.org/2000/svg" viewBox="0 0 44 48"><defs><style>.cls-1{fill:#f98c67;}.cls-2{fill:#9a88c0;}</style></defs><title>worksite</title><path class="cls-1" d="M48.4,44.8H38.8a.8.8,0,1,0,0,1.6h9.6a.8.8,0,1,0,0-1.6Zm0,0" transform="translate(-10 -8)"/><path class="cls-1" d="M42.8,40.8v9.6a.8.8,0,1,0,1.6,0V40.8a.8.8,0,1,0-1.6,0Zm0,0" transform="translate(-10 -8)"/><path class="cls-2" d="M44.4,35.24V13.6a.8.8,0,0,0-.8-.8H37.2V11.2a.8.8,0,0,0-.8-.8H31.6V8.8a.8.8,0,0,0-.8-.8H23.6a.8.8,0,0,0-.8.8v1.6H18a.8.8,0,0,0-.8.8v1.6H10.8a.8.8,0,0,0-.8.8v40a.8.8,0,0,0,.8.8H38.08A10.39,10.39,0,1,0,44.4,35.24ZM24.4,9.6H30v3.2H24.4ZM18.8,12h4v1.6a.8.8,0,0,0,.8.8h7.2a.8.8,0,0,0,.8-.8V12h4v3.2H18.8ZM11.6,52.8V14.4h5.6V16a.8.8,0,0,0,.8.8H36.4a.8.8,0,0,0,.8-.8V14.4h5.6V35.23l-.14,0-.46.06-.55.09-.46.1-.52.13-.44.14-.5.18-.43.18-.47.23-.4.22-.45.27-.38.25-.42.31-.35.29-.39.35-.32.32-.35.39-.29.34-.32.42-.26.37c-.1.15-.19.3-.28.46l-.22.39c-.09.16-.16.33-.24.5s-.13.26-.18.39-.13.36-.2.54-.1.27-.14.4-.1.39-.15.59-.07.26-.1.39-.07.45-.1.67,0,.22-.05.34a9.87,9.87,0,0,0,0,2.08c0,.13,0,.25.05.38s.05.42.1.63.07.28.1.42.09.38.14.57.09.25.13.38.13.39.21.58.09.21.14.31.19.41.29.6l.14.25c.12.21.24.41.37.61l.15.21c.14.2.29.4.44.59l.18.2c.13.14.24.29.37.43Zm32,1.6a8.74,8.74,0,0,1-4.89-1.48,8.3,8.3,0,0,1-.78-.59l-.25-.23q-.24-.22-.46-.45l-.27-.3c-.13-.15-.25-.31-.37-.47s-.16-.2-.23-.3a8.47,8.47,0,0,1-.49-.79l-.1-.2c-.11-.23-.22-.46-.32-.7s-.08-.21-.12-.32-.14-.42-.2-.64-.06-.22-.09-.33-.1-.46-.13-.7,0-.2,0-.3A8.8,8.8,0,1,1,43.6,54.4Zm0,0" transform="translate(-10 -8)"/><path class="cls-2" d="M15.6,22.4H26a.8.8,0,1,0,0-1.6H15.6a.8.8,0,1,0,0,1.6Zm0,0" transform="translate(-10 -8)"/><path class="cls-1" d="M26,44.8H15.6a.8.8,0,1,0,0,1.6H26a.8.8,0,1,0,0-1.6Zm0,0" transform="translate(-10 -8)"/><path class="cls-1" d="M15.6,27.2H38.8a.8.8,0,1,0,0-1.6H15.6a.8.8,0,1,0,0,1.6Zm0,0" transform="translate(-10 -8)"/><path class="cls-1" d="M15.6,36.8H34.8a.8.8,0,0,0,0-1.6H15.6a.8.8,0,0,0,0,1.6Zm0,0" transform="translate(-10 -8)"/><path class="cls-2" d="M30.8,40H15.6a.8.8,0,0,0,0,1.6H30.8a.8.8,0,0,0,0-1.6Zm0,0" transform="translate(-10 -8)"/><path class="cls-2" d="M15.6,32H26.8a.8.8,0,0,0,0-1.6H15.6a.8.8,0,0,0,0,1.6Zm0,0" transform="translate(-10 -8)"/><path class="cls-1" d="M38.8,30.4H33.2a.8.8,0,0,0,0,1.6h5.6a.8.8,0,0,0,0-1.6Zm0,0" transform="translate(-10 -8)"/><path class="cls-2" d="M29.43,30.63a.83.83,0,0,0-.23.57.85.85,0,0,0,.23.57.81.81,0,0,0,1.13,0,.85.85,0,0,0,.23-.57.8.8,0,0,0-1.37-.57Zm0,0" transform="translate(-10 -8)"/></svg>