<?xml version="1.0" encoding="utf-8"?>
<!-- Generator: Adobe Illustrator 20.0.0, SVG Export Plug-In . SVG Version: 6.00 Build 0)  -->
<svg version="1.1" id="Layer_1" xmlns="http://www.w3.org/2000/svg" xmlns:xlink="http://www.w3.org/1999/xlink" x="0px" y="0px"
	 viewBox="0 0 52 52" style="enable-background:new 0 0 52 52;" xml:space="preserve">
<style type="text/css">
	.st0{fill:#F98C67;}
	.st1{fill:#9A88C0;}
</style>
<g>
	<path class="st0" d="M26.1,31.6c-5.1,0-9.4-3.8-10.1-8.7c-1.2-0.5-2.1-1.7-2.1-3v-0.6c0-1.3,0.8-2.5,2-3v-1.8c0-3.9,3.1-7,7-7h12.4
		c0.5,0,0.9,0.4,0.9,0.9v7.9c1.1,0.5,1.9,1.7,1.9,2.9v0.6c0,1.3-0.8,2.5-1.9,3C35.4,27.8,31.1,31.6,26.1,31.6z M22.9,9.3
		c-2.8,0-5.2,2.3-5.2,5.2v2.5c0,0.5-0.3,0.9-0.8,0.9c-0.7,0.1-1.2,0.7-1.2,1.4v0.6c0,0.7,0.5,1.3,1.2,1.4c0.4,0.1,0.8,0.4,0.8,0.9
		c0.3,4.3,4,7.7,8.3,7.7c4.3,0,8-3.4,8.3-7.7c0-0.4,0.3-0.8,0.8-0.8c0.6-0.1,1.1-0.7,1.1-1.4v-0.6c0-0.7-0.5-1.2-1.1-1.3
		c-0.4-0.1-0.8-0.5-0.8-0.9V9.3H22.9z"/>
</g>
<g>
	<path class="st0" d="M9.3,45.6c-0.5,0-0.9-0.4-0.9-0.9v-4.7c0-3.1,2.7-5.8,5.9-5.8h4.6l1.9-3.9c0.2-0.5,0.8-0.7,1.2-0.4
		c0.5,0.2,0.7,0.8,0.4,1.2l-2.2,4.4c-0.2,0.3-0.5,0.5-0.8,0.5h-5.2c-2.2,0-4.1,1.8-4.1,3.9v4.7C10.2,45.2,9.8,45.6,9.3,45.6z
		 M42.7,45.5c-0.5,0-0.9-0.4-0.9-0.9v-4.7c0-2.1-1.7-3.8-3.9-3.8h-5.8c-0.4,0-0.7-0.2-0.8-0.5l-2.2-4.4c-0.2-0.5,0-1,0.4-1.2
		c0.5-0.2,1,0,1.2,0.4l1.9,3.9h5.2c3.2,0,5.7,2.5,5.7,5.7v4.7C43.6,45.1,43.2,45.5,42.7,45.5z"/>
</g>
<g>
	<path class="st0" d="M48.8,12.9c-0.1,0-0.3,0-0.4-0.1l-2.8-1.5l-2.8,1.5c-0.3,0.2-0.7,0.1-1-0.1c-0.3-0.2-0.4-0.6-0.4-0.9l0.5-3.2
		l-2.3-2.2c-0.3-0.2-0.3-0.6-0.2-1c0.1-0.3,0.4-0.6,0.8-0.6l3.2-0.5l1.4-2.9c0.3-0.6,1.4-0.6,1.7,0l1.4,2.9l3.2,0.5
		c0.3,0.1,0.6,0.3,0.8,0.6c0.1,0.3,0,0.7-0.2,1l-2.3,2.2l0.5,3c0,0.1,0.1,0.2,0.1,0.3C49.7,12.4,49.3,12.9,48.8,12.9
		C48.8,12.9,48.8,12.9,48.8,12.9z M42.2,6.4l1.3,1.3c0.2,0.2,0.3,0.5,0.3,0.8l-0.3,1.8l1.6-0.8c0.3-0.1,0.6-0.1,0.9,0l1.6,0.8
		l-0.3-1.8c-0.1-0.3,0-0.6,0.3-0.8l1.3-1.3L47,6.1c-0.3,0-0.6-0.2-0.7-0.5L45.5,4l-0.8,1.6c-0.1,0.3-0.4,0.5-0.7,0.5L42.2,6.4z"/>
</g>
<g>
	<path class="st1" d="M26,52C11.7,52,0,40.3,0,26S11.7,0,26,0c0.5,0,0.9,0.4,0.9,0.9S26.5,1.9,26,1.9C12.7,1.9,1.9,12.7,1.9,26
		S12.7,50.1,26,50.1c13.3,0,24.1-10.8,24.1-24.1c0-0.5,0.4-0.9,0.9-0.9c0.5,0,0.9,0.4,0.9,0.9C52,40.3,40.3,52,26,52z"/>
</g>
</svg>
