<?xml version="1.0" encoding="utf-8"?>
<!-- Generator: Adobe Illustrator 20.0.0, SVG Export Plug-In . SVG Version: 6.00 Build 0)  -->
<svg version="1.1" id="Layer_1" xmlns="http://www.w3.org/2000/svg" xmlns:xlink="http://www.w3.org/1999/xlink" x="0px" y="0px"
	 viewBox="0 0 52 51.3" style="enable-background:new 0 0 52 51.3;" xml:space="preserve">
<style type="text/css">
	.st0{fill:#F98C67;}
	.st1{fill:#9A88C0;}
</style>
<path class="st0" d="M23.9,10.8c-4,4-4,10.5,0,14.5c2,2,4.6,3,7.3,3c2.6,0,5.3-1,7.3-3c4-4,4-10.5,0-14.5
	C34.4,6.8,27.9,6.8,23.9,10.8L23.9,10.8z M38.9,22.6v-9.1C40.5,16.3,40.5,19.8,38.9,22.6L38.9,22.6z M37.6,11.8v12.5
	c0,0,0,0-0.1,0.1c-3.5,3.5-9.2,3.5-12.7,0c-0.5-0.5-1-1.1-1.3-1.7h0.8c0.4,0,0.7-0.3,0.7-0.7c0-0.4-0.3-0.7-0.7-0.7h-1.4
	c-0.5-1.3-0.7-2.7-0.6-4.1h5.2c0.4,0,0.7-0.3,0.7-0.7c0-0.4-0.3-0.7-0.7-0.7h-5c0.3-1.5,1.1-2.9,2.2-4.1h8.4c0.4,0,0.7-0.3,0.7-0.7
	c0-0.4-0.3-0.7-0.7-0.7h-6.9c1.5-1,3.2-1.5,5-1.5C33.5,9.1,35.8,9.9,37.6,11.8C37.5,11.7,37.5,11.7,37.6,11.8L37.6,11.8z M37.6,11.8
	"/>
<path class="st1" d="M51.3,34.8l-9.5-9.5c1.5-2.1,2.2-4.6,2.2-7.2c0-3.4-1.3-6.7-3.8-9.1c-1-1-2.1-1.8-3.3-2.4V0.7
	c0-0.4-0.3-0.7-0.7-0.7H7.3C7.2,0,7,0.1,6.9,0.2L0.2,6.9C0.1,7,0,7.2,0,7.3v43.3c0,0.4,0.3,0.7,0.7,0.7h35.6c0.4,0,0.7-0.3,0.7-0.7
	V29.5c0.5-0.3,1-0.5,1.5-0.9l9.6,9.6c0.5,0.5,1.1,0.7,1.7,0.7c0.6,0,1.2-0.2,1.7-0.7c0.4-0.4,0.7-1,0.7-1.7
	C52,35.9,51.8,35.3,51.3,34.8L51.3,34.8z M42.7,18c0,3.1-1.2,6-3.4,8.1c-4.5,4.5-11.8,4.5-16.3,0c-2.2-2.2-3.4-5.1-3.4-8.1
	s1.2-6,3.4-8.1c2.2-2.2,5.2-3.4,8.1-3.4c2.9,0,5.9,1.1,8.1,3.4C41.5,12.1,42.7,15,42.7,18L42.7,18z M6.7,2.3v4.4H2.3L6.7,2.3z
	 M35.6,50H1.3V8h6C7.7,8,8,7.7,8,7.3v-6h27.6V6C31,4.3,25.7,5.3,22.1,9c-0.8,0.8-1.5,1.7-2.1,2.7h-6.2c-0.4,0-0.7,0.3-0.7,0.7
	c0,0.4,0.3,0.7,0.7,0.7h5.5c-0.4,0.9-0.6,1.8-0.8,2.7H6.4c-0.4,0-0.7,0.3-0.7,0.7C5.7,16.7,6,17,6.4,17h12c0,0.3,0,0.7,0,1.1
	c0,0.6,0,1.1,0.1,1.7h-6.2c-0.4,0-0.7,0.3-0.7,0.7c0,0.4,0.3,0.7,0.7,0.7h6.4c0.2,0.9,0.5,1.8,1,2.7H6.4c-0.4,0-0.7,0.3-0.7,0.7
	C5.7,24.7,6,25,6.4,25h14c0.5,0.7,1,1.4,1.7,2.1c0.2,0.2,0.4,0.4,0.7,0.6h-2.3c-0.4,0-0.7,0.3-0.7,0.7c0,0.4,0.3,0.7,0.7,0.7h4.1
	c2,1.2,4.3,1.8,6.6,1.8c1.5,0,3-0.3,4.4-0.8V50z M40.2,27.1c0.3-0.3,0.5-0.5,0.7-0.8l6.8,6.8l-1.5,1.5l-6.8-6.8
	C39.7,27.6,40,27.4,40.2,27.1L40.2,27.1z M50.4,37.2c-0.4,0.4-1.1,0.4-1.5,0l-1.7-1.7l1.5-1.5l1.7,1.7c0.2,0.2,0.3,0.5,0.3,0.7
	C50.7,36.8,50.6,37,50.4,37.2L50.4,37.2z M50.4,37.2"/>
<path class="st0" d="M6.4,13h5.3c0.4,0,0.7-0.3,0.7-0.7c0-0.4-0.3-0.7-0.7-0.7H6.4c-0.4,0-0.7,0.3-0.7,0.7C5.7,12.7,6,13,6.4,13
	L6.4,13z M6.4,13"/>
<path class="st0" d="M6.4,21H10c0.4,0,0.7-0.3,0.7-0.7c0-0.4-0.3-0.7-0.7-0.7H6.4c-0.4,0-0.7,0.3-0.7,0.7C5.7,20.7,6,21,6.4,21
	L6.4,21z M6.4,21"/>
<path class="st0" d="M6.4,29h12.2c0.4,0,0.7-0.3,0.7-0.7c0-0.4-0.3-0.7-0.7-0.7H6.4c-0.4,0-0.7,0.3-0.7,0.7C5.7,28.7,6,29,6.4,29
	L6.4,29z M6.4,29"/>
<path class="st0" d="M30.5,31.7H11.4c-0.4,0-0.7,0.3-0.7,0.7c0,0.4,0.3,0.7,0.7,0.7h19.1c0.4,0,0.7-0.3,0.7-0.7
	C31.2,32,30.9,31.7,30.5,31.7L30.5,31.7z M30.5,31.7"/>
<path class="st1" d="M6.4,33.1h2.9c0.4,0,0.7-0.3,0.7-0.7c0-0.4-0.3-0.7-0.7-0.7H6.4c-0.4,0-0.7,0.3-0.7,0.7
	C5.7,32.8,6,33.1,6.4,33.1L6.4,33.1z M6.4,33.1"/>
<path class="st0" d="M30.5,39.8H18.1c-0.4,0-0.7,0.3-0.7,0.7c0,0.4,0.3,0.7,0.7,0.7h12.5c0.4,0,0.7-0.3,0.7-0.7
	C31.2,40.1,30.9,39.8,30.5,39.8L30.5,39.8z M30.5,39.8"/>
<path class="st1" d="M6.4,41.1H16c0.4,0,0.7-0.3,0.7-0.7c0-0.4-0.3-0.7-0.7-0.7H6.4c-0.4,0-0.7,0.3-0.7,0.7
	C5.7,40.8,6,41.1,6.4,41.1L6.4,41.1z M6.4,41.1"/>
<path class="st0" d="M30.5,43.8h-7.1c-0.4,0-0.7,0.3-0.7,0.7c0,0.4,0.3,0.7,0.7,0.7h7.1c0.4,0,0.7-0.3,0.7-0.7
	C31.2,44.1,30.9,43.8,30.5,43.8L30.5,43.8z M30.5,43.8"/>
<path class="st1" d="M21.5,43.8H9.7c-0.4,0-0.7,0.3-0.7,0.7c0,0.4,0.3,0.7,0.7,0.7h11.8c0.4,0,0.7-0.3,0.7-0.7
	C22.2,44.1,21.9,43.8,21.5,43.8L21.5,43.8z M21.5,43.8"/>
<path class="st1" d="M7.7,43.8H6.4c-0.4,0-0.7,0.3-0.7,0.7c0,0.4,0.3,0.7,0.7,0.7h1.3c0.4,0,0.7-0.3,0.7-0.7
	C8.4,44.1,8.1,43.8,7.7,43.8L7.7,43.8z M7.7,43.8"/>
<path class="st1" d="M30.5,35.8h-4c-0.4,0-0.7,0.3-0.7,0.7c0,0.4,0.3,0.7,0.7,0.7h4c0.4,0,0.7-0.3,0.7-0.7
	C31.2,36.1,30.9,35.8,30.5,35.8L30.5,35.8z M30.5,35.8"/>
<path class="st0" d="M6.4,37.1h17.8c0.4,0,0.7-0.3,0.7-0.7c0-0.4-0.3-0.7-0.7-0.7H6.4c-0.4,0-0.7,0.3-0.7,0.7
	C5.7,36.8,6,37.1,6.4,37.1L6.4,37.1z M6.4,37.1"/>
<path class="st1" d="M33.1,16h-2.3c-0.4,0-0.7,0.3-0.7,0.7c0,0.4,0.3,0.7,0.7,0.7h2.3c0.4,0,0.7-0.3,0.7-0.7
	C33.7,16.3,33.4,16,33.1,16L33.1,16z M33.1,16"/>
<path class="st1" d="M33.1,21.4H27c-0.4,0-0.7,0.3-0.7,0.7c0,0.4,0.3,0.7,0.7,0.7h6.1c0.4,0,0.7-0.3,0.7-0.7
	C33.7,21.6,33.4,21.4,33.1,21.4L33.1,21.4z M33.1,21.4"/>
</svg>
