<svg xmlns="http://www.w3.org/2000/svg" viewBox="0 0 12 8.57"><title>mail</title><g id="Layer_2" data-name="Layer 2"><g id="Layer_1-2" data-name="Layer 1"><path d="M6,6,4.52,4.7.27,8.34a.85.85,0,0,0,.59.23H11.14a.85.85,0,0,0,.59-.23L7.48,4.7Z"/><path d="M6,6"/><path d="M11.73.23A.84.84,0,0,0,11.14,0H.86A.86.86,0,0,0,.27.23L6,5.14Z"/><path d="M11.73.23"/><polygon points="0 0.75 0 7.87 4.14 4.35 0 0.75"/><path d="M0,.75"/><polygon points="7.86 4.35 12 7.87 12 0.75 7.86 4.35"/><path d="M7.86,4.35"/></g></g></svg>