<svg xmlns="http://www.w3.org/2000/svg" xmlns:xlink="http://www.w3.org/1999/xlink" viewBox="0 0 11.81 11.26"><defs><style>.cls-1{fill:none;}.cls-2{clip-path:url(#clip-path);}.cls-3{fill:#6864ad;}</style><clipPath id="clip-path"><rect class="cls-1" y="-0.01" width="12" height="12"/></clipPath></defs><title>like</title><g id="Layer_2" data-name="Layer 2"><g id="Layer_1-2" data-name="Layer 1"><g class="cls-2"><path class="cls-3" d="M6.18.19l1.5,3.55,3.84.33a.3.3,0,0,1,.17.53L8.79,7.13l.87,3.76a.3.3,0,0,1-.45.33l-3.31-2-3.31,2a.3.3,0,0,1-.45-.33L3,7.13.1,4.6a.3.3,0,0,1,.17-.53l3.84-.33L5.63.19a.3.3,0,0,1,.56,0Zm0,0"/></g></g></g></svg>