<svg xmlns="http://www.w3.org/2000/svg" viewBox="0 0 12 11.47"><defs><style>.cls-1{fill:#6864ad;}</style></defs><title>linkedin</title><g id="Layer_2" data-name="Layer 2"><g id="Layer_1-2" data-name="Layer 1"><path class="cls-1" d="M12,7v4.44H9.43V7.33c0-1-.37-1.75-1.3-1.75a1.41,1.41,0,0,0-1.32.94,1.76,1.76,0,0,0-.09.63v4.32H4.15s0-7,0-7.74H6.72v1.1l0,0h0v0A2.55,2.55,0,0,1,9,3.55c1.69,0,3,1.11,3,3.48ZM1.46,0a1.34,1.34,0,1,0,0,2.67h0A1.34,1.34,0,1,0,1.46,0ZM.15,11.47H2.72V3.73H.15Zm0,0"/></g></g></svg>