<svg xmlns="http://www.w3.org/2000/svg" viewBox="0 0 12 2.9"><defs><style>.cls-1{fill:#6965ae;}</style></defs><title>more</title><g id="Layer_2" data-name="Layer 2"><g id="Layer_1-2" data-name="Layer 1"><path class="cls-1" d="M2.9,1.45A1.45,1.45,0,1,1,1.45,0,1.45,1.45,0,0,1,2.9,1.45Zm0,0"/><path class="cls-1" d="M12,1.45A1.45,1.45,0,1,1,10.55,0,1.45,1.45,0,0,1,12,1.45Zm0,0"/><path class="cls-1" d="M7.45,1.45A1.45,1.45,0,1,1,6,0,1.45,1.45,0,0,1,7.45,1.45Zm0,0"/><path class="cls-1" d="M2.9,1.45A1.45,1.45,0,1,1,1.45,0,1.45,1.45,0,0,1,2.9,1.45Zm0,0"/><path class="cls-1" d="M12,1.45A1.45,1.45,0,1,1,10.55,0,1.45,1.45,0,0,1,12,1.45Zm0,0"/><path class="cls-1" d="M7.45,1.45A1.45,1.45,0,1,1,6,0,1.45,1.45,0,0,1,7.45,1.45Zm0,0"/></g></g></svg>