<svg xmlns="http://www.w3.org/2000/svg" viewBox="0 0 12 10.63"><defs><style>.cls-1{fill:#6965ae;}</style></defs><title>reddit</title><g id="Layer_2" data-name="Layer 2"><g id="Layer_1-2" data-name="Layer 1"><path class="cls-1" d="M12,4.81A1.51,1.51,0,0,0,9.43,3.74a6.27,6.27,0,0,0-3.1-.94,1.65,1.65,0,0,1,2-1.61H8.4s0,0,0,.05a1.26,1.26,0,1,0,.2-.67l-.12,0A2.3,2.3,0,0,0,5.67,2.8a6.27,6.27,0,0,0-3.1.94A1.51,1.51,0,1,0,.81,6.14a3,3,0,0,0-.06.57C.75,8.88,3.1,10.63,6,10.63s5.25-1.76,5.25-3.92a3,3,0,0,0-.06-.57A1.51,1.51,0,0,0,12,4.81ZM9.66.65A.61.61,0,1,1,9,1.26.61.61,0,0,1,9.66.65Zm-9,4.16A.86.86,0,0,1,2,4.14,3.81,3.81,0,0,0,1,5.5a.85.85,0,0,1-.36-.7ZM9.32,9A5.56,5.56,0,0,1,6,10,5.56,5.56,0,0,1,2.68,9,2.85,2.85,0,0,1,1.4,6.71,2.85,2.85,0,0,1,2.68,4.46,5.56,5.56,0,0,1,6,3.44a5.56,5.56,0,0,1,3.32,1A2.85,2.85,0,0,1,10.6,6.71,2.85,2.85,0,0,1,9.32,9ZM11,5.5a3.82,3.82,0,0,0-1-1.36A.86.86,0,1,1,11,5.5Zm0,0"/><path class="cls-1" d="M4.77,5.8a.69.69,0,1,1-.69-.69.69.69,0,0,1,.69.69Zm0,0"/><path class="cls-1" d="M8.6,5.8a.69.69,0,1,1-.69-.69.69.69,0,0,1,.69.69Zm0,0"/><path class="cls-1" d="M7.63,7.46a2.62,2.62,0,0,1-3.68-.15.33.33,0,1,0-.48.44,3.27,3.27,0,0,0,4.6.19.33.33,0,0,0-.44-.48Zm0,0"/></g></g></svg>