<svg xmlns="http://www.w3.org/2000/svg" viewBox="0 0 11.98 9.96"><defs><style>.cls-1{fill:#6965ae;}</style></defs><title>twitter</title><g id="Layer_2" data-name="Layer 2"><g id="Layer_1-2" data-name="Layer 1"><path class="cls-1" d="M11.78,1.16a4.73,4.73,0,0,1-.83.28A2.57,2.57,0,0,0,11.64.35a.14.14,0,0,0-.2-.16,4.76,4.76,0,0,1-1.26.52H10.1A.33.33,0,0,1,9.88.64,2.58,2.58,0,0,0,8.17,0a2.76,2.76,0,0,0-.82.13,2.5,2.5,0,0,0-1.69,1.8,2.76,2.76,0,0,0-.06,1,.09.09,0,0,1,0,.07.1.1,0,0,1-.07,0h0A6.77,6.77,0,0,1,.85.5a.14.14,0,0,0-.22,0A2.58,2.58,0,0,0,1,3.65a2.31,2.31,0,0,1-.59-.23.14.14,0,0,0-.2.12A2.59,2.59,0,0,0,1.77,5.92H1.71a2.31,2.31,0,0,1-.43,0,.14.14,0,0,0-.15.17,2.59,2.59,0,0,0,2,1.76A4.76,4.76,0,0,1,.5,8.63H.2A.2.2,0,0,0,0,8.78.2.2,0,0,0,.1,9a7.09,7.09,0,0,0,3.56,1,7.18,7.18,0,0,0,3-.65A6.72,6.72,0,0,0,8.93,7.65,7.31,7.31,0,0,0,10.3,5.36a7.21,7.21,0,0,0,.46-2.5v0a.44.44,0,0,1,.16-.34,5.1,5.1,0,0,0,1-1.13.14.14,0,0,0-.17-.2Zm0,0"/></g></g></svg>