<svg xmlns="http://www.w3.org/2000/svg" viewBox="0 0 18.67 20"><title>date</title><g id="Layer_2" data-name="Layer 2"><g id="Layer_1-2" data-name="Layer 1"><path d="M18.33,1.33H16v-1A.33.33,0,0,0,15.67,0H13.33A.33.33,0,0,0,13,.33v1H5.67v-1A.33.33,0,0,0,5.33,0H3a.33.33,0,0,0-.33.33v1H.33A.33.33,0,0,0,0,1.67v18A.33.33,0,0,0,.33,20h18a.33.33,0,0,0,.33-.33v-18a.33.33,0,0,0-.33-.33ZM13.67.67h1.67v2H13.67ZM3.33.67H5v2H3.33ZM.67,2h2V3A.33.33,0,0,0,3,3.33H5.33A.33.33,0,0,0,5.67,3V2H13V3a.33.33,0,0,0,.33.33h2.33A.33.33,0,0,0,16,3V2h2V5H.67Zm0,17.33V5.67H18V19.33Zm0,0"/><path d="M12,7.67H3v9.67H15.67V7.67Zm-2.33.67H12v2.33H9.67ZM12,13.67H9.67V11.33H12ZM6.67,11.33H9v2.33H6.67Zm0-3H9v2.33H6.67Zm-3,0H6v2.33H3.67Zm0,3H6v2.33H3.67ZM6,16.67H3.67V14.33H6Zm3,0H6.67V14.33H9Zm3,0H9.67V14.33H12Zm3,0H12.67V14.33H15Zm0-3H12.67V11.33H15Zm0-5.33v2.33H12.67V8.33Zm0,0"/></g></g></svg>