<svg xmlns="http://www.w3.org/2000/svg" viewBox="0 0 18.81 20"><title>salary</title><g id="Layer_2" data-name="Layer 2"><g id="Layer_1-2" data-name="Layer 1"><path d="M9.95,12.66a1.18,1.18,0,0,0,.87-.49l3.12-4.31a.33.33,0,0,0-.47-.47L9.16,10.52a1.19,1.19,0,0,0,.7,2.15Zm-.61-1.22a.53.53,0,0,1,.21-.38l2.63-1.9-1.9,2.63a.52.52,0,0,1-.94-.35Zm0,0"/><path d="M17.41,6.52v0a9.09,9.09,0,0,0-1.19-1.6l.71-.71.47.47,1.41-1.41L17.39,1.81,16,3.22l.47.47-.72.72a9.05,9.05,0,0,0-1.6-1.19h0a8.94,8.94,0,0,0-3.42-1.13v-.4h.5a.83.83,0,1,0,0-1.67h-3a.83.83,0,1,0,0,1.67h.5v.39a8.91,8.91,0,0,0-1.07.18.33.33,0,1,0,.15.65,8.6,8.6,0,0,1,.93-.16l.36,0,.31,0v.66a.33.33,0,0,0,.67,0V2.68a8.26,8.26,0,0,1,3.48.95l-.33.57a.34.34,0,0,0,.12.46.35.35,0,0,0,.17,0,.34.34,0,0,0,.29-.17L14.06,4a8.38,8.38,0,0,1,2.59,2.59l-.57.33a.33.33,0,0,0,.17.62.35.35,0,0,0,.17,0L17,7.13a8.28,8.28,0,0,1,1,3.54h-.66a.33.33,0,1,0,0,.67h.66a8.28,8.28,0,0,1-1,3.54l-.57-.33a.33.33,0,1,0-.33.58l.57.33A8.41,8.41,0,0,1,14.06,18l-.33-.57a.33.33,0,0,0-.58.33l.33.57a8.27,8.27,0,0,1-3.49.95v-.66a.33.33,0,1,0-.67,0v.66a8.4,8.4,0,0,1-1.59-.21.33.33,0,1,0-.15.65,9,9,0,0,0,2,.23h.06a9,9,0,0,0,4.41-1.19h0a9.06,9.06,0,0,0,3.26-3.25l0,0v0a9,9,0,0,0,0-9Zm0-3.77.47.47-.47.47-.47-.47ZM9.33,2V1H8.17a.17.17,0,1,1,0-.33h3a.17.17,0,1,1,0,.33H10V2H9.33Zm0,0"/><path d="M6.67,4.67H5a.33.33,0,1,0,0,.67H6.67a.33.33,0,1,0,0-.67Zm0,0"/><path d="M6.67,7H3.33a.33.33,0,1,0,0,.67H6.67a.33.33,0,1,0,0-.67Zm0,0"/><path d="M6.67,9.33h-5a.33.33,0,0,0,0,.67h5a.33.33,0,1,0,0-.67Zm0,0"/><path d="M6.67,11.67H.33a.33.33,0,0,0,0,.67H6.67a.33.33,0,1,0,0-.67Zm0,0"/><path d="M6.67,14H2.33a.33.33,0,1,0,0,.67H6.67a.33.33,0,1,0,0-.67Zm0,0"/><path d="M6.67,16.33H4.33a.33.33,0,0,0,0,.67H6.67a.33.33,0,1,0,0-.67Zm0,0"/></g></g></svg>