<svg xmlns="http://www.w3.org/2000/svg" viewBox="0 0 41.82 32"><defs><style>.cls-1{fill:#6964ac;}</style></defs><title>hire</title><g id="Layer_2" data-name="Layer 2"><g id="Layer_1-2" data-name="Layer 1"><path class="cls-1" d="M41.21,30.77H32.72a3.22,3.22,0,0,0,.64-2.61L31.62,19a3.24,3.24,0,0,0-2.15-2.46L25,15.09a.61.61,0,0,0-.24,0V13.88a5.15,5.15,0,0,0,1.31-3.45V9a1.93,1.93,0,0,0,1.31-1.82V3.89A3.89,3.89,0,0,0,23.53,0H18.29a1.93,1.93,0,0,0-1.84,1.36,2.58,2.58,0,0,0-2,2.52V7.16A1.93,1.93,0,0,0,15.71,9v1.26A5.48,5.48,0,0,0,17,13.8v1.26a.61.61,0,0,0-.23,0l-4.44,1.48A3.24,3.24,0,0,0,10.2,19L8.46,28.16a3.22,3.22,0,0,0,.64,2.61H.61A.61.61,0,0,0,.61,32H41.21a.61.61,0,0,0,0-1.23ZM17.64,16.29a.61.61,0,0,0,.61-.61v-.81a5,5,0,0,0,2.5.77h.16a5.15,5.15,0,0,0,2.66-.73v.77a.61.61,0,0,0,.61.61h0a3.21,3.21,0,0,1-3.3,2.7,3.21,3.21,0,0,1-3.3-2.7Zm-2-9.13V3.89A1.35,1.35,0,0,1,17,2.54a.61.61,0,0,0,.61-.61.7.7,0,0,1,.7-.7h5.24a2.66,2.66,0,0,1,2.66,2.66V7.16a.7.7,0,0,1-.08.33v-1a1.93,1.93,0,0,0-1.92-1.92H17.64a1.93,1.93,0,0,0-1.92,1.92v1a.69.69,0,0,1-.08-.33Zm1.31-.65a.7.7,0,0,1,.7-.7h6.55a.7.7,0,0,1,.7.7v3.93a4,4,0,0,1-4.09,4,4.1,4.1,0,0,1-3.85-4.16ZM13.05,30.77a0,0,0,0,1,0,0V22.22a0,0,0,0,1,0,0H28.77a0,0,0,0,1,0,0v8.51a0,0,0,0,1,0,0Zm17,0h0s0,0,0,0V22.22A1.27,1.27,0,0,0,28.77,21H13.05a1.27,1.27,0,0,0-1.27,1.27v8.51s0,0,0,0h-.15a2,2,0,0,1-2-2.38l1.74-9.13a2,2,0,0,1,1.34-1.53l3.66-1.22a4.44,4.44,0,0,0,4.51,3.7,4.44,4.44,0,0,0,4.51-3.7l3.66,1.22a2,2,0,0,1,1.34,1.53l1.74,9.13a2,2,0,0,1-2,2.38Zm0,0"/><path class="cls-1" d="M20.91,24.88a1.92,1.92,0,1,0,1.92,1.92,1.93,1.93,0,0,0-1.92-1.92Zm0,2.62a.7.7,0,1,1,.7-.7.7.7,0,0,1-.7.7Zm0,0"/></g></g></svg>