<svg xmlns="http://www.w3.org/2000/svg" xmlns:xlink="http://www.w3.org/1999/xlink" viewBox="0 0 13.67 19.52"><defs><style>.cls-1{fill:none;}.cls-2{clip-path:url(#clip-path);}</style><clipPath id="clip-path"><rect class="cls-1" y="-0.05" width="13.8" height="20"/></clipPath></defs><title>location</title><g id="Layer_2" data-name="Layer 2"><g id="Layer_1-2" data-name="Layer 1"><g class="cls-2"><path d="M6.9,4.28A2.5,2.5,0,1,0,9.39,6.77,2.5,2.5,0,0,0,6.9,4.28Zm0,4.28A1.78,1.78,0,1,1,8.68,6.77,1.78,1.78,0,0,1,6.9,8.56Zm0,0"/><path d="M11.67,2A6.84,6.84,0,0,0,2,2a7.79,7.79,0,0,0-.64,9.61l5.48,7.91,5.47-7.9A7.79,7.79,0,0,0,11.67,2Zm.06,9.2L6.84,18.27l-4.9-7.07a7,7,0,0,1,.57-8.69,6.13,6.13,0,0,1,8.66,0,7,7,0,0,1,.56,8.7Zm0,0"/></g></g></g></svg>