<svg xmlns="http://www.w3.org/2000/svg" viewBox="0 0 20 18.33"><title>salary</title><g id="Layer_2" data-name="Layer 2"><g id="Layer_1-2" data-name="Layer 1"><path d="M18.51,14.68l-3.26-1.41A.68.68,0,0,1,15,13h2.18a3.86,3.86,0,0,0,1.65-.22,1,1,0,0,0,.41-1.48,11,11,0,0,1-2.12-5.54s-.13-4-4.07-4.06a4.71,4.71,0,0,0-1.6.28,2.74,2.74,0,0,0-.5-.82A4.19,4.19,0,0,0,7.67,0a4.19,4.19,0,0,0-3.3,1.18,3,3,0,0,0-.7,2.17V5.13A1.33,1.33,0,0,0,3.33,6V7.33a1.32,1.32,0,0,0,.5,1A7,7,0,0,0,5,10.78v1.1a.88.88,0,0,1-.46.77l-3,1.62A3,3,0,0,0,0,16.92v1.41H20V17.1a2.69,2.69,0,0,0-1.49-2.42Zm-3.84,3H.67v-.75a2.34,2.34,0,0,1,1.22-2.05l3-1.62a1.55,1.55,0,0,0,.81-1.36V10.55l-.08-.09A6.29,6.29,0,0,1,4.45,8.1l0-.13-.11-.07A.66.66,0,0,1,4,7.33V6a.66.66,0,0,1,.22-.49l.11-.1V3.29a2.31,2.31,0,0,1,.53-1.67A3.58,3.58,0,0,1,7.67.67a3.59,3.59,0,0,1,2.8.94,2.15,2.15,0,0,1,.48,1v.27s0,.08,0,.12h0v.2h0c0,.08,0,.13,0,.13V5.41l.11.1a.65.65,0,0,1,.22.49V7.33a.66.66,0,0,1-.47.63L10.69,8l-.05.16a7,7,0,0,1-.94,1.9,4.22,4.22,0,0,1-.28.36l-.08.09v1.38a1.58,1.58,0,0,0,0,.25v.05a1.54,1.54,0,0,0,.05.2l0,0a1.4,1.4,0,0,0,.09.2v0a1.65,1.65,0,0,0,.17.24l.08.09h0a1.55,1.55,0,0,0,.4.29l3.18,1.59A2.33,2.33,0,0,1,14.67,17Zm4.67,0h-4V17a3,3,0,0,0-1.66-2.69l-2.29-1.14a.58.58,0,0,0-.53-.8h-.74l0-.09a.89.89,0,0,1,0-.12.84.84,0,0,1,0-.23V10.79l.24-.32a7.61,7.61,0,0,0,1-1.93A1.32,1.32,0,0,0,12,7.33V6a1.33,1.33,0,0,0-.33-.87V3.35a3,3,0,0,0,0-.71,4,4,0,0,1,1.43-.26,3.39,3.39,0,0,1,3.4,3.41,11.71,11.71,0,0,0,2.24,5.91.33.33,0,0,1,0,.28.32.32,0,0,1-.18.21,3.28,3.28,0,0,1-1.36.17H14.93a.61.61,0,0,0-.55.89,1.39,1.39,0,0,0,.59.64l3.25,1.41a2,2,0,0,1,1.12,1.82Zm0,0"/></g></g></svg>