<svg xmlns="http://www.w3.org/2000/svg" xmlns:xlink="http://www.w3.org/1999/xlink" viewBox="0 0 18.33 20"><defs><style>.cls-1{fill:none;}.cls-2{clip-path:url(#clip-path);}</style><clipPath id="clip-path"><rect class="cls-1" width="18.33" height="20"/></clipPath></defs><title>title</title><g id="Layer_2" data-name="Layer 2"><g id="Layer_1-2" data-name="Layer 1"><g class="cls-2"><path d="M14.74,8.33l3.54-5.15a.33.33,0,0,0,0-.34A.33.33,0,0,0,18,2.67H8V1.33A.33.33,0,0,0,7.67,1h-7V.33A.33.33,0,1,0,0,.33V19.67a.33.33,0,1,0,.67,0V11.33H4.34a1.65,1.65,0,0,0-.34,1A1.67,1.67,0,0,0,5.67,14H18a.33.33,0,0,0,.29-.18.33.33,0,0,0,0-.34ZM.67,1.67H7.33v9H.67Zm5,11.67a1,1,0,1,1,0-2h2A.33.33,0,0,0,8,11V3.33h9.37L14.06,8.14a.33.33,0,0,0,0,.38l3.31,4.81Zm0,0"/></g></g></g></svg>